<?xml version="1.0" standalone="no"?>
<!DOCTYPE svg PUBLIC "-//W3C//DTD SVG 1.1//EN" "http://www.w3.org/Graphics/SVG/1.1/DTD/svg11.dtd" >
<svg xmlns="http://www.w3.org/2000/svg" xmlns:xlink="http://www.w3.org/1999/xlink" version="1.1">
<metadata>
Created by FontForge 20170731 at Tue Nov 22 01:44:36 2016
 By Aleksey,,,
Copyright (c) 2012-2016, Damien Gautier, 205TF. All rights reserved.
</metadata>
<defs>
<font id="Maax-Regular" horiz-adv-x="600" >
  <font-face 
    font-family="Maax"
    font-weight="400"
    font-stretch="normal"
    units-per-em="1000"
    panose-1="2 0 0 0 0 0 0 0 0 0"
    ascent="750"
    descent="-250"
    x-height="490"
    cap-height="700"
    bbox="-32 -205 1488 996"
    underline-thickness="0"
    underline-position="0"
    unicode-range="U+0020-FB05"
  />
<missing-glyph horiz-adv-x="589" 
d="M293 202q13 0 21.5 -9t8.5 -22t-8.5 -22.5t-21.5 -9.5t-22 9.5t-9 22.5t9 22t22 9zM302 153h8l-9 13q4 1 6 4.5t2 7.5q0 5 -3.5 8.5t-9.5 3.5h-17v-37h8v12h7zM145 400q7 -12 3 -25.5t-16 -20.5q-13 -7 -26.5 -4t-20.5 16t-3 26t16 20q13 7 26.5 4t20.5 -16zM294 184
q4 0 6 -2t2 -4q0 -4 -2 -5.5t-6 -1.5h-7v13h7zM260 412q10 6 21 4t21 -10l-29 -92q-4 4 -7.5 9t-7.5 11q-14 25 -14.5 46.5t16.5 31.5zM314 394q4 -4 7.5 -9t6.5 -11q14 -25 14.5 -46.5t-15.5 -31.5q-10 -5 -20.5 -3.5t-20.5 9.5zM294 684l285 -164v-328l-285 -164l-284 164
v328zM308 561v-75h8v34h36v8h-36v25h39v8h-47zM230 561v-8h23v-67h8v67h24v8h-55zM127 259l89 51l-8 15l-68 -40l20 69q4 15 5 28.5t-6 26.5q-10 18 -30 22.5t-39 -5.5q-18 -10 -23.5 -30t4.5 -38t29.5 -23.5t35.5 4.5l4 3l-20 -70zM293 130q16 0 28 12t12 29q0 16 -12 28
t-28 12q-17 0 -28.5 -12t-11.5 -28q0 -17 11.5 -29t28.5 -12zM335 282q26 16 25 45t-17 56q-16 28 -40.5 43t-50.5 0t-25.5 -44t16.5 -56q16 -28 40.5 -43.5t51.5 -0.5zM493 281q24 13 28.5 35t-6.5 40q-12 22 -33 25.5t-37 -6.5q-9 -5 -14.5 -12t-8.5 -15l-26 46l63 37
l-8 14l-78 -45l47 -82l14 8q-1 9 3 18.5t15 15.5q13 7 27 4t22 -16q7 -15 3 -29.5t-18 -22.5q-12 -7 -22.5 -6.5t-20.5 5.5l-5 -17q11 -4 25.5 -5t29.5 8z" />
    <glyph glyph-name="f_f" unicode="ff" horiz-adv-x="610" 
d="M573 712q13 0 20 -0.5l7 -0.5v-67h-26q-56 0 -77.5 -26.5t-21.5 -79.5v-48h114v-68h-114v-422h-74v422h-220v-422h-74v422h-80v68h80v48q0 93 44.5 133.5t127.5 40.5q13 0 20 -0.5l7 -0.5v-67h-26q-56 0 -77.5 -26.5t-21.5 -79.5v-48h220v48q0 93 44.5 133.5t127.5 40.5z
" />
    <glyph glyph-name="fi" unicode="fi" horiz-adv-x="563" 
d="M279 712q13 0 20 -0.5l7 -0.5v-67h-26q-56 0 -77.5 -26.5t-21.5 -79.5v-48h294v-490h-74v422h-220v-422h-74v422h-80v68h80v48q0 93 44.5 133.5t127.5 40.5zM382 657q0 22 16.5 38.5t39.5 16.5t39.5 -16.5t16.5 -38.5q0 -23 -16.5 -39.5t-39.5 -16.5t-39.5 16.5
t-16.5 39.5z" />
    <glyph glyph-name="fl" unicode="fl" horiz-adv-x="556" 
d="M280 700h196v-700h-74v632h-121q-57 0 -78.5 -26.5t-21.5 -79.5v-36h114v-68h-114v-422h-74v422h-80v68h80v36q0 93 45 133.5t128 40.5z" />
    <glyph glyph-name="f_f_i" unicode="ffi" horiz-adv-x="857" 
d="M573 712q13 0 20 -0.5l7 -0.5v-67h-26q-56 0 -77.5 -26.5t-21.5 -79.5v-48h294v-490h-74v422h-220v-422h-74v422h-220v-422h-74v422h-80v68h80v48q0 93 44.5 133.5t127.5 40.5q13 0 20 -0.5l7 -0.5v-67h-26q-56 0 -77.5 -26.5t-21.5 -79.5v-48h220v48q0 93 44.5 133.5
t127.5 40.5zM676 657q0 22 16.5 38.5t39.5 16.5t39.5 -16.5t16.5 -38.5q0 -23 -16.5 -39.5t-39.5 -16.5t-39.5 16.5t-16.5 39.5z" />
    <glyph glyph-name="f_f_l" unicode="ffl" horiz-adv-x="849" 
d="M769 0h-74v632h-120q-57 0 -78.5 -26.5t-21.5 -79.5v-36h114v-68h-114v-422h-74v422h-220v-422h-74v422h-80v68h80v48q0 93 44.5 133.5t127.5 40.5q13 0 20 -0.5l7 -0.5v-67h-26q-56 0 -77.5 -26.5t-21.5 -79.5v-48h220v36q0 93 45 133.5t128 40.5h195v-700z" />
    <glyph glyph-name="f_t" unicode="ft" horiz-adv-x="640" 
d="M279 712q13 0 20 -0.5l7 -0.5v-67h-26q-56 0 -77.5 -26.5t-21.5 -79.5v-48h220v137h74v-137h114v-68h-114v-267q0 -45 14.5 -67t60.5 -22q8 0 23.5 0.5l15.5 0.5v-67l-13.5 -1t-32.5 -1q-69 0 -105.5 32.5t-36.5 113.5v278h-220v-422h-74v422h-80v68h80v48
q0 93 44.5 133.5t127.5 40.5z" />
    <glyph glyph-name="f_b" unicode="fb" horiz-adv-x="926" 
d="M869 245q0 -53 -16.5 -99.5t-46.5 -81t-72 -55t-93 -20.5t-93.5 20.5t-73.5 57.5v-67h-72v632h-121q-57 0 -78.5 -26.5t-21.5 -79.5v-36h114v-68h-114v-422h-74v422h-80v68h80v36q0 93 45 133.5t128 40.5h196v-275q31 36 72.5 56.5t92.5 20.5t93 -20.5t72 -55t46.5 -81.5
t16.5 -100zM793 245q0 39 -11 73.5t-31 59.5t-50 39.5t-67 14.5t-67 -14.5t-50.5 -39.5t-31.5 -59.5t-11 -73.5t11 -73.5t31.5 -59.5t50.5 -39.5t67 -14.5t67 14.5t50 39.5t31 59.5t11 73.5z" />
    <glyph glyph-name="f_f_b" unicode="ffb" horiz-adv-x="1219" 
d="M1162 245q0 -53 -16.5 -99.5t-46.5 -81t-72 -55t-93 -20.5t-93.5 20.5t-73.5 57.5v-67h-72v632h-120q-57 0 -78.5 -26.5t-21.5 -79.5v-36h114v-68h-114v-422h-74v422h-220v-422h-74v422h-80v68h80v48q0 93 44.5 133.5t127.5 40.5q13 0 20 -0.5l7 -0.5v-67h-26
q-56 0 -77.5 -26.5t-21.5 -79.5v-48h220v36q0 93 45 133.5t128 40.5h195v-275q31 36 72.5 56.5t92.5 20.5t93 -20.5t72 -55t46.5 -81.5t16.5 -100zM1086 245q0 39 -11 73.5t-31 59.5t-50 39.5t-67 14.5t-67 -14.5t-50.5 -39.5t-31.5 -59.5t-11 -73.5t11 -73.5t31.5 -59.5
t50.5 -39.5t67 -14.5t67 14.5t50 39.5t31 59.5t11 73.5z" />
    <glyph glyph-name="f_h" unicode="fh" horiz-adv-x="881" 
d="M280 700h196v-269q25 31 65.5 51t87.5 20q93 0 144 -56.5t51 -160.5v-285h-75v291q0 69 -33.5 105.5t-91.5 36.5q-73 0 -110.5 -52t-37.5 -138v-243h-74v632h-121q-57 0 -78.5 -26.5t-21.5 -79.5v-36h114v-68h-114v-422h-74v422h-80v68h80v36q0 93 45 133.5t128 40.5z
" />
    <glyph glyph-name="f_f_h" unicode="ffh" horiz-adv-x="1174" 
d="M574 700h195v-269q25 31 65.5 51t87.5 20q93 0 144 -56.5t51 -160.5v-285h-75v291q0 69 -33.5 105.5t-91.5 36.5q-73 0 -110.5 -52t-37.5 -138v-243h-74v632h-120q-57 0 -78.5 -26.5t-21.5 -79.5v-36h114v-68h-114v-422h-74v422h-220v-422h-74v422h-80v68h80v48
q0 93 44.5 133.5t127.5 40.5q13 0 20 -0.5l7 -0.5v-67h-26q-56 0 -77.5 -26.5t-21.5 -79.5v-48h220v36q0 93 45 133.5t128 40.5z" />
    <glyph glyph-name="f_j" unicode="fj" horiz-adv-x="563" 
d="M401 -48v470h-220v-422h-74v422h-80v68h80v48q0 93 44.5 133.5t127.5 40.5q13 0 20 -0.5l7 -0.5v-67h-26q-56 0 -77.5 -26.5t-21.5 -79.5v-48h294v-550q0 -80 -36.5 -112.5t-106.5 -32.5q-19 0 -35 1l-16 1v67l18 -0.5t26 -0.5q46 0 61 21.5t15 67.5zM382 657
q0 22 17 38.5t39 16.5q23 0 39.5 -16.5t16.5 -38.5q0 -23 -16.5 -39.5t-39.5 -16.5q-22 0 -39 16.5t-17 39.5z" />
    <glyph glyph-name="f_f_j" unicode="ffj" horiz-adv-x="857" 
d="M695 -48v470h-220v-422h-74v422h-220v-422h-74v422h-80v68h80v48q0 93 44.5 133.5t127.5 40.5q13 0 20 -0.5l7 -0.5v-67h-26q-56 0 -77.5 -26.5t-21.5 -79.5v-48h220v48q0 93 44.5 133.5t127.5 40.5q13 0 20 -0.5l7 -0.5v-67h-26q-56 0 -77.5 -26.5t-21.5 -79.5v-48h294
v-550q0 -80 -36.5 -112.5t-106.5 -32.5q-19 0 -35 1l-16 1v67l18 -0.5t26 -0.5q46 0 61 21.5t15 67.5zM676 657q0 22 17 38.5t39 16.5q23 0 39.5 -16.5t16.5 -38.5q0 -23 -16.5 -39.5t-39.5 -16.5q-22 0 -39 16.5t-17 39.5z" />
    <glyph glyph-name="f_k" unicode="fk" horiz-adv-x="857" 
d="M476 0h-74v632h-121q-57 0 -78.5 -26.5t-21.5 -79.5v-36h114v-68h-114v-422h-74v422h-80v68h80v36q0 93 45 133.5t128 40.5h196v-461l227 251h97l-191 -207l202 -283h-95l-160 225l-80 -87v-138z" />
    <glyph glyph-name="f_f_k" unicode="ffk" horiz-adv-x="1150" 
d="M769 0h-74v632h-120q-57 0 -78.5 -26.5t-21.5 -79.5v-36h114v-68h-114v-422h-74v422h-220v-422h-74v422h-80v68h80v48q0 93 44.5 133.5t127.5 40.5q13 0 20 -0.5l7 -0.5v-67h-26q-56 0 -77.5 -26.5t-21.5 -79.5v-48h220v36q0 93 45 133.5t128 40.5h195v-461l227 251h97
l-191 -207l202 -283h-95l-160 225l-80 -87v-138z" />
    <glyph glyph-name="f_f_t" unicode="fft" horiz-adv-x="934" 
d="M573 712q13 0 20 -0.5l7 -0.5v-67h-26q-56 0 -77.5 -26.5t-21.5 -79.5v-48h220v137h74v-137h114v-68h-114v-267q0 -45 14.5 -67t60.5 -22q8 0 23.5 0.5l15.5 0.5v-67l-13.5 -1t-32.5 -1q-69 0 -105.5 32.5t-36.5 113.5v278h-220v-422h-74v422h-220v-422h-74v422h-80v68
h80v48q0 93 44.5 133.5t127.5 40.5q13 0 20 -0.5l7 -0.5v-67h-26q-56 0 -77.5 -26.5t-21.5 -79.5v-48h220v48q0 93 44.5 133.5t127.5 40.5z" />
    <glyph glyph-name="t_t" unicode="tt" horiz-adv-x="636" 
d="M245 -2q-69 0 -105.5 32.5t-36.5 113.5v278h-80v68h80v137h74v-137h220v137h74v-137h114v-68h-114v-267q0 -45 14.5 -67t60.5 -22q8 0 23.5 0.5l15.5 0.5v-67l-13.5 -1t-32.5 -1q-69 0 -105.5 32.5t-36.5 113.5v278h-220v-267q0 -45 14.5 -67t60.5 -22q8 0 23.5 0.5
l15.5 0.5v-67l-13.5 -1t-32.5 -1z" />
    <glyph glyph-name="t_f" unicode="tf" horiz-adv-x="605" 
d="M245 -2q-69 0 -105.5 32.5t-36.5 113.5v278h-80v68h80v137h74v-137h220v48q0 93 44.5 133.5t127.5 40.5q13 0 20 -0.5l7 -0.5v-67h-26q-56 0 -77.5 -26.5t-21.5 -79.5v-48h114v-68h-114v-422h-74v422h-220v-267q0 -45 14.5 -67t60.5 -22q8 0 23.5 0.5l15.5 0.5v-67
l-13.5 -1t-32.5 -1z" />
    <glyph glyph-name=".notdef" horiz-adv-x="589" 
d="M293 202q13 0 21.5 -9t8.5 -22t-8.5 -22.5t-21.5 -9.5t-22 9.5t-9 22.5t9 22t22 9zM302 153h8l-9 13q4 1 6 4.5t2 7.5q0 5 -3.5 8.5t-9.5 3.5h-17v-37h8v12h7zM145 400q7 -12 3 -25.5t-16 -20.5q-13 -7 -26.5 -4t-20.5 16t-3 26t16 20q13 7 26.5 4t20.5 -16zM294 184
q4 0 6 -2t2 -4q0 -4 -2 -5.5t-6 -1.5h-7v13h7zM260 412q10 6 21 4t21 -10l-29 -92q-4 4 -7.5 9t-7.5 11q-14 25 -14.5 46.5t16.5 31.5zM314 394q4 -4 7.5 -9t6.5 -11q14 -25 14.5 -46.5t-15.5 -31.5q-10 -5 -20.5 -3.5t-20.5 9.5zM294 684l285 -164v-328l-285 -164l-284 164
v328zM308 561v-75h8v34h36v8h-36v25h39v8h-47zM230 561v-8h23v-67h8v67h24v8h-55zM127 259l89 51l-8 15l-68 -40l20 69q4 15 5 28.5t-6 26.5q-10 18 -30 22.5t-39 -5.5q-18 -10 -23.5 -30t4.5 -38t29.5 -23.5t35.5 4.5l4 3l-20 -70zM293 130q16 0 28 12t12 29q0 16 -12 28
t-28 12q-17 0 -28.5 -12t-11.5 -28q0 -17 11.5 -29t28.5 -12zM335 282q26 16 25 45t-17 56q-16 28 -40.5 43t-50.5 0t-25.5 -44t16.5 -56q16 -28 40.5 -43.5t51.5 -0.5zM493 281q24 13 28.5 35t-6.5 40q-12 22 -33 25.5t-37 -6.5q-9 -5 -14.5 -12t-8.5 -15l-26 46l63 37
l-8 14l-78 -45l47 -82l14 8q-1 9 3 18.5t15 15.5q13 7 27 4t22 -16q7 -15 3 -29.5t-18 -22.5q-12 -7 -22.5 -6.5t-20.5 5.5l-5 -17q11 -4 25.5 -5t29.5 8z" />
    <glyph glyph-name=".null" horiz-adv-x="0" 
 />
    <glyph glyph-name="nonmarkingreturn" horiz-adv-x="333" 
 />
    <glyph glyph-name="NULL" horiz-adv-x="0" 
 />
    <glyph glyph-name="NULL" horiz-adv-x="0" 
 />
    <glyph glyph-name="space" unicode=" " horiz-adv-x="308" 
 />
    <glyph glyph-name="exclam" unicode="!" horiz-adv-x="291" 
d="M184 209h-76v491h76v-491zM91 42q0 23 16 39t38 16q23 0 38.5 -16t15.5 -39q0 -22 -15.5 -37.5t-38.5 -15.5q-22 0 -38 15.5t-16 37.5z" />
    <glyph glyph-name="quotedbl" unicode="&#x22;" horiz-adv-x="429" 
d="M85 455v245h72v-245h-72zM271 455v245h72v-245h-72z" />
    <glyph glyph-name="numbersign" unicode="#" horiz-adv-x="721" 
d="M50 205v69h134l43 153h-124v69h144l59 204h69l-59 -204h171l58 204h71l-59 -204h114v-69h-134l-43 -153h124v-69h-143l-57 -205h-71l58 205h-171l-58 -205h-70l58 205h-114zM468 427h-171l-44 -153h171z" />
    <glyph glyph-name="dollar" unicode="$" horiz-adv-x="650" 
d="M363 815v-106q63 -8 111 -37t83 -67l-51 -56q-24 28 -58.5 52.5t-84.5 34.5v-249l5 -1q98 -17 155.5 -66.5t57.5 -133.5q0 -76 -58.5 -131t-159.5 -64v-105h-71v105q-78 7 -139 42t-96 84l52 54q28 -39 72.5 -70t110.5 -39v260l-20 4q-38 7 -74 21.5t-63.5 38t-44 56.5
t-16.5 76t18 77.5t48 59t69.5 39t82.5 17.5v104h71zM505 185q0 54 -40 84t-102 41v-249q60 6 101 38t41 86zM150 521q0 -55 40 -83.5t102 -38.5v241q-61 -4 -101.5 -37t-40.5 -82z" />
    <glyph glyph-name="percent" unicode="%" horiz-adv-x="695" 
d="M57 574q0 57 40 97.5t97 40.5q56 0 95.5 -40.5t39.5 -97.5t-39.5 -97.5t-95.5 -40.5q-57 0 -97 40.5t-40 97.5zM123 574q0 -34 22 -54.5t49 -20.5q26 0 47.5 20.5t21.5 54.5q0 35 -21.5 55.5t-47.5 20.5q-27 0 -49 -20.5t-22 -55.5zM163 0h-80l449 700h79zM366 126
q0 58 40 98.5t97 40.5q56 0 95.5 -40.5t39.5 -98.5q0 -57 -39.5 -97t-95.5 -40q-57 0 -97 40t-40 97zM432 126q0 -34 22 -54.5t49 -20.5q25 0 47 20.5t22 54.5q0 35 -22 55.5t-47 20.5q-27 0 -49 -20.5t-22 -55.5z" />
    <glyph glyph-name="ampersand" unicode="&#x26;" horiz-adv-x="669" 
d="M609 0h-94l-56 71q-37 -39 -87.5 -60.5t-103.5 -21.5q-62 0 -104.5 20t-68.5 49.5t-37.5 64.5t-11.5 66q0 59 30 108t93 83l36 19q-41 52 -58.5 86.5t-17.5 77.5q0 65 45 107t124 42t123 -45.5t44 -110.5q0 -51 -31 -90t-71 -61l-47 -27l148 -191q25 39 43 82.5t28 83.5
h77q-14 -60 -39 -116.5t-62 -108.5zM269 57q31 0 71.5 15.5t75.5 54.5l-167 216l-15 -8q-58 -31 -86 -64.5t-28 -81.5q0 -24 9.5 -47.5t28.5 -42.5t47 -30.5t64 -11.5zM203 563q0 -28 15.5 -54.5t34.5 -51.5l19 -24l38 21q28 16 54.5 41t26.5 62q0 38 -26.5 62.5t-69.5 24.5
t-67.5 -22t-24.5 -59z" />
    <glyph glyph-name="quotesingle" unicode="'" horiz-adv-x="243" 
d="M85 455v245h72v-245h-72z" />
    <glyph glyph-name="parenleft" unicode="(" horiz-adv-x="360" 
d="M157 260q0 -119 43.5 -220.5t136.5 -195.5l-53 -49q-39 38 -76 86t-65.5 105t-45.5 126t-17 148t17 147.5t45.5 126t65.5 105.5t76 86l53 -49q-93 -95 -136.5 -196t-43.5 -220z" />
    <glyph glyph-name="parenright" unicode=")" horiz-adv-x="360" 
d="M203 260q0 119 -43.5 220.5t-136.5 195.5l53 49q39 -38 76 -86t65.5 -105t45.5 -126t17 -148t-17 -147.5t-45.5 -126t-65.5 -105.5t-76 -86l-53 49q93 95 136.5 196t43.5 220z" />
    <glyph glyph-name="asterisk" unicode="*" horiz-adv-x="458" 
d="M157 441l-58 43l80 100l-122 27l19 70l121 -39l-4 127h73l-5 -127l121 39l19 -70l-122 -27l80 -100l-58 -43l-72 106z" />
    <glyph glyph-name="plus" unicode="+" horiz-adv-x="630" 
d="M70 212v68h208v210h71v-210h211v-68h-211v-212h-71v212h-208z" />
    <glyph glyph-name="comma" unicode="," horiz-adv-x="268" 
d="M199 114l-108 -239h-80l95 239h93z" />
    <glyph glyph-name="hyphen" unicode="-" horiz-adv-x="308" 
d="M278 228h-248v68h248v-68z" />
    <glyph glyph-name="period" unicode="." horiz-adv-x="302" 
d="M91 48q0 25 17 42.5t42 17.5q26 0 43.5 -17.5t17.5 -42.5t-17.5 -42t-43.5 -17q-25 0 -42 17t-17 42z" />
    <glyph glyph-name="slash" unicode="/" horiz-adv-x="452" 
d="M87 -93h-77l355 843h77z" />
    <glyph glyph-name="zero" unicode="0" horiz-adv-x="618" 
d="M484 350q0 64 -11.5 117.5t-33.5 92t-54.5 60t-75.5 21.5t-76 -21.5t-55 -60t-33.5 -92t-11.5 -117.5t11.5 -117.5t33.5 -91.5t55 -59.5t76 -21.5t75.5 21.5t54.5 59.5t33.5 91.5t11.5 117.5zM57 350q0 68 14.5 133.5t45 116t78.5 81.5t114 31t114 -31t78.5 -81.5
t45 -116t14.5 -133.5t-14.5 -133t-45 -115.5t-78.5 -81.5t-114 -31t-114 31t-78.5 81.5t-45 115.5t-14.5 133z" />
    <glyph glyph-name="one" unicode="1" horiz-adv-x="527" 
d="M68 0v72h178v514q-29 -23 -78 -36.5t-100 -13.5v68q26 1 55 6.5t54.5 17t47 29.5t33.5 43h65v-628h169v-72h-424z" />
    <glyph glyph-name="two" unicode="2" horiz-adv-x="577" 
d="M138 72h367v-72h-448v23q0 51 10 95.5t35 83.5t68.5 73.5t109.5 65.5l19 9q53 25 92.5 61t39.5 104q0 58 -42.5 92t-105.5 34q-34 0 -61.5 -11.5t-48.5 -30t-37 -42.5t-27 -50l-52 53q29 66 85 109t140 43q43 0 84 -12.5t72.5 -38t50.5 -65t19 -92.5q0 -73 -43.5 -124
t-124.5 -93l-56 -28q-66 -34 -104.5 -81.5t-41.5 -105.5z" />
    <glyph glyph-name="three" unicode="3" horiz-adv-x="569" 
d="M384 366q44 -18 80 -61t36 -110q0 -51 -19 -90t-50.5 -64.5t-73.5 -38.5t-88 -13q-62 0 -125.5 26t-103.5 75l52 52q34 -38 78 -60t104 -22q29 0 56.5 8t48 24t33 41.5t12.5 60.5q0 34 -14 58t-37.5 39t-55 22t-65.5 7h-53v73h42q73 0 119.5 34t46.5 97q0 32 -13.5 54.5
t-33.5 36.5t-44.5 20t-45.5 6q-50 0 -90.5 -20.5t-71.5 -55.5l-51 52q40 44 94.5 69.5t114.5 25.5q40 0 79 -11.5t69.5 -35t49.5 -59.5t19 -83q0 -31 -10.5 -57.5t-25.5 -46.5t-32 -33.5t-31 -19.5z" />
    <glyph glyph-name="four" unicode="4" horiz-adv-x="583" 
d="M537 249v-72h-97v-177h-76v177h-324v66l329 457h71v-451h97zM364 583l-243 -334h243v334z" />
    <glyph glyph-name="five" unicode="5" horiz-adv-x="552" 
d="M447 218q0 75 -46.5 115t-112.5 40q-46 0 -84.5 -23.5t-54.5 -53.5h-69l17 404h374v-72h-305l-11 -236q19 21 56.5 37t86.5 16q44 0 84.5 -14.5t71.5 -43t50 -71t19 -98.5q0 -45 -17 -86.5t-48.5 -73t-78 -50.5t-104.5 -19q-68 0 -123 29t-95 78l54 53q31 -39 72 -64
t96 -25q34 0 64.5 11t53.5 31.5t36.5 49.5t13.5 66z" />
    <glyph glyph-name="six" unicode="6" horiz-adv-x="616" 
d="M329 -11q-59 0 -106 26.5t-80 74.5t-51 116t-18 151q0 79 18 145t52 112.5t83 72t109 25.5q66 0 114.5 -26.5t78.5 -63.5l-52 -55q-22 31 -58 52.5t-83 21.5q-43 0 -79 -21.5t-61.5 -60t-39 -92.5t-10.5 -119q29 54 81 80t102 26q44 0 85.5 -16t73.5 -46t51.5 -73
t19.5 -97q0 -56 -20.5 -99.5t-52.5 -73t-73.5 -45t-83.5 -15.5zM329 382q-29 0 -56.5 -11t-48.5 -31.5t-33.5 -50t-12.5 -66.5q0 -68 45 -115.5t111 -47.5q26 0 53 10t48 29.5t34 50.5t13 72q0 38 -12.5 68t-34 50.5t-49 31t-57.5 10.5z" />
    <glyph glyph-name="seven" unicode="7" horiz-adv-x="535" 
d="M117 486h-71v214h454v-66q-111 -133 -172 -280.5t-75 -313.5l-3 -40h-77l4 39q7 83 25.5 165t47.5 158t68.5 144t88.5 122h-290v-142z" />
    <glyph glyph-name="eight" unicode="8" horiz-adv-x="554" 
d="M277 -11q-46 0 -87 14t-72 40t-49 63.5t-18 83.5q0 35 13 64.5t31.5 51.5t39.5 36.5t38 18.5q-13 6 -31.5 18.5t-34.5 31.5t-27.5 45.5t-11.5 60.5q0 46 18 82.5t47 61.5t66.5 38t77.5 13t77.5 -13t66.5 -38t47 -61.5t18 -82.5q0 -34 -11.5 -60.5t-27.5 -45.5
t-34.5 -31.5t-31.5 -18.5q17 -4 38 -18.5t39.5 -36.5t31.5 -51.5t13 -64.5q0 -46 -18 -83.5t-49 -63.5t-72 -40t-87 -14zM277 322q-63 0 -106 -34.5t-43 -96.5q0 -63 44.5 -97t104.5 -34t104.5 34t44.5 97q0 62 -44 96.5t-105 34.5zM277 641q-21 0 -44.5 -7t-43 -22t-32 -39
t-12.5 -57q0 -58 38.5 -90t93.5 -32q54 0 93 32t39 90q0 33 -12.5 57t-32 39t-43 22t-44.5 7z" />
    <glyph glyph-name="nine" unicode="9" horiz-adv-x="598" 
d="M286 712q57 0 104 -26.5t80.5 -74t52 -116t18.5 -151.5q0 -79 -16.5 -145t-49 -112.5t-82 -72t-114.5 -25.5t-113.5 26.5t-78.5 63.5l52 56q22 -32 58 -53.5t82 -21.5q47 0 84 21.5t61.5 60t36.5 92.5t9 119q-30 -56 -82 -81t-102 -25q-44 0 -85.5 16t-73 46t-51 73
t-19.5 97q0 56 20 99.5t52.5 73t73.5 45t83 15.5zM286 319q64 0 108 44t44 109q0 72 -45 120.5t-111 48.5q-28 0 -55 -9.5t-48 -29.5t-33.5 -50.5t-12.5 -72.5q0 -38 13.5 -68t35 -50.5t49 -31t55.5 -10.5z" />
    <glyph glyph-name="colon" unicode=":" horiz-adv-x="291" 
d="M80 48q0 25 17 42.5t42 17.5q26 0 43.5 -17.5t17.5 -42.5t-17.5 -42t-43.5 -17q-25 0 -42 17t-17 42zM80 436q0 25 17 42.5t42 17.5q26 0 43.5 -17.5t17.5 -42.5t-17.5 -42t-43.5 -17q-25 0 -42 17t-17 42z" />
    <glyph glyph-name="semicolon" unicode=";" horiz-adv-x="311" 
d="M112 436q0 25 17 42.5t42 17.5q26 0 43.5 -17.5t17.5 -42.5t-17.5 -42t-43.5 -17q-25 0 -42 17t-17 42zM225 114l-108 -239h-80l95 239h93z" />
    <glyph glyph-name="less" unicode="&#x3c;" horiz-adv-x="605" 
d="M537 -11l-491 215v82l491 216v-78l-420 -179l420 -179v-77z" />
    <glyph glyph-name="equal" unicode="=" horiz-adv-x="650" 
d="M570 319h-490v69h490v-69zM570 137h-490v68h490v-68z" />
    <glyph glyph-name="greater" unicode="&#x3e;" horiz-adv-x="605" 
d="M68 502l491 -216v-82l-491 -215v77l420 179l-420 179v78z" />
    <glyph glyph-name="question" unicode="?" horiz-adv-x="546" 
d="M278 308v-97h-77v161l25 1q88 4 131.5 46t43.5 96q0 55 -39.5 90.5t-99.5 35.5t-104.5 -30t-72.5 -79l-51 56q37 54 95 89t133 35q46 0 85.5 -14t68.5 -39t45.5 -61t16.5 -80q0 -77 -52 -135.5t-148 -74.5zM180 48q0 25 17 42.5t42 17.5q26 0 43.5 -17.5t17.5 -42.5
t-17.5 -42t-43.5 -17q-25 0 -42 17t-17 42z" />
    <glyph glyph-name="at" unicode="@" horiz-adv-x="1076" 
d="M361 245q0 -39 11 -73.5t31.5 -60t50 -40t66.5 -14.5t67 14.5t50.5 40t32 60t11.5 73.5t-11.5 73.5t-32 59.5t-50.5 39.5t-67 14.5t-66.5 -14.5t-50 -39.5t-31.5 -59.5t-11 -73.5zM691 74q-32 -42 -79.5 -63.5t-98.5 -21.5t-93 20.5t-72 55t-46.5 81t-16.5 99.5t16.5 100
t46.5 81.5t72 55t93 20.5t92.5 -20.5t72.5 -56.5v65h74v-361q0 -28 11.5 -50t39.5 -22t49.5 19.5t35.5 49.5t21.5 66.5t7.5 71.5q0 78 -24 147.5t-70.5 120.5t-117 81.5t-162.5 30.5q-88 0 -161 -30.5t-124 -83t-79.5 -124t-28.5 -153.5t29.5 -153.5t82.5 -123.5t129 -82.5
t169 -30.5q60 0 106 10t86 26v-70q-34 -13 -83 -23.5t-109 -10.5q-107 0 -196.5 36t-152 98t-97.5 146t-35 178t34 178t94.5 146t146.5 98.5t189 36.5q107 0 191 -36t140.5 -97t86 -143t29.5 -172q0 -61 -15.5 -112t-42 -87t-61.5 -56t-74 -20q-43 0 -69.5 24.5t-36.5 60.5z
" />
    <glyph glyph-name="A" unicode="A" horiz-adv-x="689" 
d="M302 700h86l273 -700h-82l-64 161h-342l-62 -161h-83zM487 234l-143 368l-141 -368h284z" />
    <glyph glyph-name="B" unicode="B" horiz-adv-x="659" 
d="M355 0h-275v700h257q107 0 174.5 -44.5t67.5 -140.5q0 -45 -24 -86.5t-67 -63.5q51 -23 79.5 -69t28.5 -97q0 -92 -66.5 -145.5t-174.5 -53.5zM156 321v-249h208q66 0 110.5 31.5t44.5 97.5q0 62 -44.5 91t-106.5 29h-212zM351 628h-195v-235h196q62 0 106 29t44 91
t-44.5 88.5t-106.5 26.5z" />
    <glyph glyph-name="C" unicode="C" horiz-adv-x="700" 
d="M617 165l49 -56q-48 -55 -118.5 -87.5t-149.5 -32.5q-76 0 -141 28.5t-111.5 77.5t-73 114.5t-26.5 139.5q0 75 26.5 141t72.5 115.5t110 78t138 28.5q80 0 147 -30.5t115 -89.5l-51 -54q-37 48 -90 75.5t-121 27.5q-58 0 -108 -22.5t-86 -62t-56.5 -93t-20.5 -114.5
q0 -60 20.5 -113t57.5 -92t87.5 -61.5t110.5 -22.5q67 0 123 26.5t96 78.5z" />
    <glyph glyph-name="D" unicode="D" horiz-adv-x="695" 
d="M270 0h-190v700h190q71 0 139.5 -16.5t121.5 -56.5t86 -106.5t33 -165.5t-33 -167.5t-86 -110t-121.5 -59.5t-139.5 -18zM279 628h-123v-556h124q56 0 108.5 15t93 48t65 87.5t24.5 132.5q0 75 -24.5 127.5t-65 84.5t-93.5 46.5t-109 14.5z" />
    <glyph glyph-name="E" unicode="E" horiz-adv-x="614" 
d="M539 0h-459v700h459v-72h-383v-235h372v-72h-372v-249h383v-72z" />
    <glyph glyph-name="F" unicode="F" horiz-adv-x="556" 
d="M156 321v-321h-76v700h436v-72h-360v-235h338v-72h-338z" />
    <glyph glyph-name="G" unicode="G" horiz-adv-x="728" 
d="M398 277v72h268v-240q-48 -55 -118.5 -87.5t-149.5 -32.5q-76 0 -141 28.5t-111.5 77.5t-73 114.5t-26.5 139.5q0 75 26.5 141t72.5 115.5t110 78t138 28.5q80 0 147 -30.5t115 -89.5l-51 -54q-37 48 -90 75.5t-121 27.5q-58 0 -108 -22.5t-86 -62t-56.5 -93
t-20.5 -114.5q0 -60 20.5 -113t57.5 -92t87.5 -61.5t110.5 -22.5q57 0 106.5 19t87.5 57v141h-194z" />
    <glyph glyph-name="H" unicode="H" horiz-adv-x="693" 
d="M613 0h-76v321h-381v-321h-76v700h76v-307h381v307h76v-700z" />
    <glyph glyph-name="I" unicode="I" horiz-adv-x="236" 
d="M156 0h-76v700h76v-700z" />
    <glyph glyph-name="J" unicode="J" horiz-adv-x="483" 
d="M17 98l54 54q19 -37 52.5 -64.5t80.5 -27.5q68 0 101.5 43t33.5 115v482h76v-482q0 -101 -54 -165t-159 -64q-65 0 -112.5 32t-72.5 77z" />
    <glyph glyph-name="K" unicode="K" horiz-adv-x="601" 
d="M135 0h-77v700h77v-404l326 404h89l-241 -301l258 -399h-92l-219 335l-121 -150v-185z" />
    <glyph glyph-name="L" unicode="L" horiz-adv-x="537" 
d="M497 0h-417v700h76v-628h341v-72z" />
    <glyph glyph-name="M" unicode="M" horiz-adv-x="798" 
d="M437 155h-76l-205 376v-531h-76v700h74l245 -458l245 458h74v-700h-76v531z" />
    <glyph glyph-name="N" unicode="N" horiz-adv-x="713" 
d="M633 0h-79l-398 567v-567h-76v700h78l398 -569v569h77v-700z" />
    <glyph glyph-name="O" unicode="O" horiz-adv-x="790" 
d="M45 351q0 74 26.5 140t72.5 115t110 77.5t139 28.5t139.5 -28.5t111.5 -77.5t74 -115t27 -140q0 -75 -27 -141.5t-74 -115t-111.5 -77t-139.5 -28.5t-139 28.5t-110 77t-72.5 115t-26.5 141.5zM121 351q0 -61 20 -114.5t56.5 -92.5t87.5 -61.5t112 -22.5q60 0 110.5 22.5
t86.5 61.5t56 92.5t20 114.5q0 60 -20 113.5t-56 92.5t-86.5 61.5t-110.5 22.5q-61 0 -112 -22.5t-87.5 -61.5t-56.5 -92.5t-20 -113.5z" />
    <glyph glyph-name="P" unicode="P" horiz-adv-x="609" 
d="M324 258h-168v-258h-76v700h244q117 0 186.5 -60.5t69.5 -160.5q0 -101 -69.5 -161t-186.5 -60zM335 628h-179v-299h179q75 0 122 37t47 113q0 72 -46.5 110.5t-122.5 38.5z" />
    <glyph glyph-name="Q" unicode="Q" horiz-adv-x="814" 
d="M46 351q0 74 26.5 140t72.5 115t110 77.5t139 28.5t139.5 -28.5t111.5 -77.5t74 -115t27 -140q0 -66 -21.5 -126t-58.5 -107l91 -90l-51 -51l-90 90q-45 -37 -102 -57.5t-120 -20.5q-75 0 -139 28.5t-110 77t-72.5 115t-26.5 141.5zM566 117l-85 85l51 51l83 -84
q27 37 41.5 83.5t14.5 98.5q0 60 -20 113.5t-56 92.5t-86.5 61.5t-110.5 22.5q-61 0 -112 -22.5t-87.5 -61.5t-56.5 -92.5t-20 -113.5q0 -61 20 -114.5t56.5 -92.5t87.5 -61.5t112 -22.5q49 0 91.5 15t76.5 42z" />
    <glyph glyph-name="R" unicode="R" horiz-adv-x="649" 
d="M597 0h-91l-183 258h-167v-258h-76v700h244q117 0 186.5 -60.5t69.5 -160.5q0 -81 -45.5 -137t-124.5 -75zM335 628h-179v-299h179q75 0 122 37t47 113q0 72 -46.5 110.5t-122.5 38.5z" />
    <glyph glyph-name="S" unicode="S" horiz-adv-x="638" 
d="M360 311l-88 15q-38 7 -74 21.5t-63.5 38t-44 56.5t-16.5 76q0 46 20.5 82.5t54.5 61t77.5 37.5t89.5 13q83 0 141.5 -31t99.5 -76l-51 -56q-29 35 -76 63.5t-120 28.5q-68 0 -114 -33.5t-46 -86.5q0 -57 42.5 -85t106.5 -38l69 -12q98 -17 155.5 -66.5t57.5 -133.5
q0 -41 -18 -77.5t-51 -63t-80.5 -41.5t-106.5 -15q-89 0 -159 37t-109 91l52 54q32 -44 86.5 -77.5t138.5 -33.5q71 0 121 32.5t50 92.5q0 55 -41 85t-104 41z" />
    <glyph glyph-name="T" unicode="T" horiz-adv-x="586" 
d="M33 628v72h520v-72h-222v-628h-76v628h-222z" />
    <glyph glyph-name="U" unicode="U" horiz-adv-x="668" 
d="M523 275v425h77v-425q0 -61 -18 -113.5t-51.5 -90.5t-83.5 -60t-113 -22t-113 22t-83.5 60t-51.5 90.5t-18 113.5v425h77v-426q0 -44 12 -83t36 -68t59.5 -46t81.5 -17t81.5 17t59.5 46t36 68.5t12 83.5z" />
    <glyph glyph-name="V" unicode="V" horiz-adv-x="619" 
d="M95 700l216 -608l213 608h80l-251 -700h-86l-252 700h80z" />
    <glyph glyph-name="W" unicode="W" horiz-adv-x="887" 
d="M489 700l152 -585l152 585h84l-194 -700h-85l-154 575l-154 -575h-86l-194 700h84l154 -585l150 585h91z" />
    <glyph glyph-name="X" unicode="X" horiz-adv-x="651" 
d="M140 700l185 -279l185 279h94l-229 -341l242 -359h-94l-198 298l-198 -298h-94l242 359l-229 341h94z" />
    <glyph glyph-name="Y" unicode="Y" horiz-adv-x="578" 
d="M23 700h84l183 -342l181 342h84l-228 -417v-283h-76v283z" />
    <glyph glyph-name="Z" unicode="Z" horiz-adv-x="621" 
d="M65 628v72h494v-68l-402 -560h399v-72h-493v68l401 560h-399z" />
    <glyph glyph-name="bracketleft" unicode="[" horiz-adv-x="361" 
d="M327 -194h-236v894h236v-72h-159v-750h159v-72z" />
    <glyph glyph-name="backslash" unicode="\" horiz-adv-x="452" 
d="M442 -93h-77l-355 843h77z" />
    <glyph glyph-name="bracketright" unicode="]" horiz-adv-x="361" 
d="M34 700h236v-894h-236v72h159v750h-159v72z" />
    <glyph glyph-name="asciicircum" unicode="^" horiz-adv-x="621" 
d="M272 425h76l216 -359h-80l-174 290l-174 -290h-79z" />
    <glyph glyph-name="underscore" unicode="_" horiz-adv-x="496" 
d="M476 -194h-456v69h456v-69z" />
    <glyph glyph-name="grave" unicode="`" horiz-adv-x="556" 
d="M279 569l-114 131h97l91 -131h-74z" />
    <glyph glyph-name="a" unicode="a" horiz-adv-x="520" 
d="M228 57q42 0 79 20t65 57v62q0 -1 -40.5 11.5t-92.5 12.5q-54 0 -81 -24t-27 -58q0 -39 27 -60t70 -21zM446 0h-72v54q-30 -33 -69 -49t-82 -16q-69 0 -117.5 38.5t-48.5 110.5t49.5 110.5t128.5 38.5q54 0 95.5 -12.5t41.5 -11.5v54q0 58 -35.5 87t-92.5 29
q-28 0 -50 -9t-37 -20t-23 -20.5l-8 -9.5l-51 47l11 12.5t32.5 28t53.5 28t73 12.5q90 0 145.5 -46t55.5 -144v-312z" />
    <glyph glyph-name="b" unicode="b" horiz-adv-x="604" 
d="M547 245q0 -53 -16.5 -99.5t-46.5 -81t-72 -55t-93 -20.5t-93.5 20.5t-73.5 57.5v-67h-72v700h74v-275q31 36 72.5 56.5t92.5 20.5t93 -20.5t72 -55t46.5 -81.5t16.5 -100zM471 245q0 39 -11 73.5t-31 59.5t-50 39.5t-67 14.5t-67 -14.5t-50.5 -39.5t-31.5 -59.5
t-11 -73.5t11 -73.5t31.5 -59.5t50.5 -39.5t67 -14.5t67 14.5t50 39.5t31 59.5t11 73.5z" />
    <glyph glyph-name="c" unicode="c" horiz-adv-x="545" 
d="M448 130l51 -47q-33 -40 -81.5 -67t-114.5 -27q-53 0 -98 20.5t-78 55t-51.5 81t-18.5 99.5t19.5 100t52.5 81.5t79 55t98 20.5q57 0 102.5 -22t80.5 -65l-50 -49q-26 31 -59.5 48.5t-73.5 17.5q-75 0 -124 -54t-49 -133t46 -133t130 -54q43 0 77.5 19t61.5 53z" />
    <glyph glyph-name="d" unicode="d" horiz-adv-x="604" 
d="M57 245q0 53 16.5 100t46.5 81.5t72 55t93 20.5t92.5 -20.5t72.5 -56.5v275h74v-700h-71v67q-32 -37 -74.5 -57.5t-93.5 -20.5t-93 20.5t-72 55t-46.5 81t-16.5 99.5zM133 245q0 -39 11 -73.5t31.5 -59.5t50 -39.5t66.5 -14.5t67 14.5t50.5 39.5t32 59.5t11.5 73.5
t-11.5 73.5t-32 59.5t-50.5 39.5t-67 14.5t-66.5 -14.5t-50 -39.5t-31.5 -59.5t-11 -73.5z" />
    <glyph glyph-name="e" unicode="e" horiz-adv-x="556" 
d="M498 222h-365q5 -76 49 -120t116 -44q43 0 77.5 19t62.5 53l51 -47q-33 -40 -79 -67t-112 -27q-55 0 -100 18.5t-76 52t-48 80t-17 102.5q0 53 15.5 100.5t44 83t70.5 56t95 20.5q59 0 100.5 -22.5t67 -58t37.5 -79.5t12 -86q0 -13 -0.5 -23.5zM282 432q-64 0 -100.5 -42
t-45.5 -102h288q-4 64 -42.5 104t-99.5 40z" />
    <glyph glyph-name="f" unicode="f" horiz-adv-x="315" 
d="M279 712q13 0 20 -0.5l7 -0.5v-67h-26q-56 0 -77.5 -26.5t-21.5 -79.5v-48h114v-68h-114v-422h-74v422h-80v68h80v48q0 93 44.5 133.5t127.5 40.5z" />
    <glyph glyph-name="g" unicode="g" horiz-adv-x="595" 
d="M74 -96l54 52q7 -12 18.5 -28t29.5 -30.5t44 -24.5t60 -10q78 0 118.5 48.5t40.5 122.5v51q-30 -40 -71.5 -57t-88.5 -17q-46 0 -87 18.5t-70.5 51t-47 77.5t-17.5 98t17.5 98.5t47 78t70.5 51t87 18.5q47 0 88.5 -17t73.5 -58v63h72v-450q0 -110 -63 -177.5t-170 -67.5
q-49 0 -84.5 13t-60 30.5t-39.5 36t-22 29.5zM133 256q0 -78 43.5 -126.5t109.5 -48.5t110.5 48.5t44.5 126.5t-44.5 127t-110.5 49t-109.5 -49t-43.5 -127z" />
    <glyph glyph-name="h" unicode="h" horiz-adv-x="559" 
d="M80 700h74v-269q25 31 65.5 51t87.5 20q93 0 144 -56.5t51 -160.5v-285h-75v291q0 69 -33.5 105.5t-91.5 36.5q-73 0 -110.5 -52t-37.5 -138v-243h-74v700z" />
    <glyph glyph-name="i" unicode="i" horiz-adv-x="250" 
d="M162 0h-74v490h74v-490zM69 657q0 22 16.5 38.5t39.5 16.5t39.5 -16.5t16.5 -38.5q0 -23 -16.5 -39.5t-39.5 -16.5t-39.5 16.5t-16.5 39.5z" />
    <glyph glyph-name="j" unicode="j" horiz-adv-x="250" 
d="M69 657q0 22 17 38.5t39 16.5q23 0 39.5 -16.5t16.5 -38.5q0 -23 -16.5 -39.5t-39.5 -16.5q-22 0 -39 16.5t-17 39.5zM88 -48v538h74v-550q0 -80 -36.5 -112.5t-106.5 -32.5q-19 0 -35 1l-16 1v67l18 -0.5t26 -0.5q46 0 61 21.5t15 67.5z" />
    <glyph glyph-name="k" unicode="k" horiz-adv-x="535" 
d="M154 0h-74v700h74v-461l227 251h97l-191 -207l202 -283h-95l-160 225l-80 -87v-138z" />
    <glyph glyph-name="l" unicode="l" horiz-adv-x="234" 
d="M154 0h-74v700h74v-700z" />
    <glyph glyph-name="m" unicode="m" horiz-adv-x="855" 
d="M80 490h72v-59q19 27 56.5 49t84.5 22q50 0 87 -21.5t59 -59.5q26 39 66 60t87 21q98 0 143.5 -56.5t45.5 -160.5v-285h-74v291q0 69 -29 105.5t-85 36.5q-60 0 -93 -42.5t-33 -120.5v-270h-74v286q0 74 -29 110.5t-81 36.5q-63 0 -96 -43t-33 -120v-270h-74v490z" />
    <glyph glyph-name="n" unicode="n" horiz-adv-x="576" 
d="M80 490h72v-60q25 31 66.5 51.5t88.5 20.5q93 0 144 -56.5t51 -160.5v-285h-75v291q0 69 -33.5 105.5t-91.5 36.5q-73 0 -110.5 -52t-37.5 -138v-243h-74v490z" />
    <glyph glyph-name="o" unicode="o" horiz-adv-x="608" 
d="M57 245q0 53 18.5 100t51.5 81.5t78 55t98 20.5t98.5 -20.5t78.5 -55t52 -81.5t19 -100t-19 -99.5t-52 -81t-78.5 -55t-98.5 -20.5t-98 20.5t-78 55t-51.5 81t-18.5 99.5zM133 245q0 -79 47.5 -133t122.5 -54t123 54t48 133t-48 133t-123 54t-122.5 -54t-47.5 -133z" />
    <glyph glyph-name="p" unicode="p" horiz-adv-x="604" 
d="M547 245q0 -53 -16.5 -99.5t-46.5 -81t-72 -55t-93 -20.5t-92.5 20t-72.5 56v-259h-74v684h72v-67q31 37 73.5 58t93.5 21t93 -20.5t72 -55t46.5 -81.5t16.5 -100zM471 245q0 39 -11 73.5t-31 59.5t-50 39.5t-67 14.5t-67 -14.5t-50.5 -39.5t-31.5 -59.5t-11 -73.5
t11 -73.5t31.5 -59.5t50.5 -39.5t67 -14.5t67 14.5t50 39.5t31 59.5t11 73.5z" />
    <glyph glyph-name="q" unicode="q" horiz-adv-x="604" 
d="M57 245q0 53 16.5 100t46.5 81.5t72 55t93 20.5t93.5 -21t74.5 -58v67h71v-684h-74v259q-31 -36 -72.5 -56t-92.5 -20t-93 20.5t-72 55t-46.5 81t-16.5 99.5zM133 245q0 -39 11 -73.5t31.5 -59.5t50 -39.5t66.5 -14.5t67 14.5t50.5 39.5t32 59.5t11.5 73.5t-11.5 73.5
t-32 59.5t-50.5 39.5t-67 14.5t-66.5 -14.5t-50 -39.5t-31.5 -59.5t-11 -73.5z" />
    <glyph glyph-name="r" unicode="r" horiz-adv-x="363" 
d="M334 496v-71l-5 0.5t-12 0.5q-86 0 -124.5 -49t-38.5 -168v-209h-74v490h72v-65q33 41 70.5 56.5t89.5 15.5h8.5t13.5 -1z" />
    <glyph glyph-name="s" unicode="s" horiz-adv-x="490" 
d="M286 203l-73 17q-69 16 -103.5 51.5t-34.5 89.5q0 34 14.5 60.5t38 44.5t54.5 27t63 9q53 0 97 -21.5t78 -57.5l-50 -53q-17 18 -48.5 40.5t-81.5 22.5q-41 0 -66 -19t-25 -50q0 -26 17.5 -44.5t54.5 -27.5l77 -18q65 -15 101 -49t36 -89q0 -64 -50 -105.5t-133 -41.5
q-67 0 -118.5 28t-79.5 64l49 51q27 -34 66 -54.5t82 -20.5q51 0 80.5 20t29.5 55q0 25 -18.5 43.5t-56.5 27.5z" />
    <glyph glyph-name="t" unicode="t" horiz-adv-x="342" 
d="M245 -2q-69 0 -105.5 32.5t-36.5 113.5v278h-80v68h80v137h74v-137h114v-68h-114v-267q0 -45 14.5 -67t60.5 -22q8 0 23.5 0.5l15.5 0.5v-67l-13.5 -1t-32.5 -1z" />
    <glyph glyph-name="u" unicode="u" horiz-adv-x="555" 
d="M475 0h-71v62q-26 -34 -67.5 -53.5t-87.5 -19.5q-94 0 -139 56t-45 160v285h74v-288q0 -69 31 -106t89 -37q73 0 107.5 51t34.5 137v243h74v-490z" />
    <glyph glyph-name="v" unicode="v" horiz-adv-x="488" 
d="M382 490h81l-180 -490h-78l-180 490h81l138 -400z" />
    <glyph glyph-name="w" unicode="w" horiz-adv-x="772" 
d="M110 490l113 -409l113 409h100l113 -409l113 409h81l-146 -490h-92l-119 405l-118 -405h-93l-146 490h81z" />
    <glyph glyph-name="x" unicode="x" horiz-adv-x="513" 
d="M46 490h89l121 -183l122 183h89l-164 -238l176 -252h-89l-134 198l-133 -198h-89l176 252z" />
    <glyph glyph-name="y" unicode="y" horiz-adv-x="506" 
d="M222 -194h-79l69 187l-185 497h83l143 -400l145 400h81z" />
    <glyph glyph-name="z" unicode="z" horiz-adv-x="504" 
d="M74 422v68h356v-63l-274 -359h285v-68h-378v63l271 359h-260z" />
    <glyph glyph-name="braceleft" unicode="{" horiz-adv-x="417" 
d="M225 537v-567q0 -53 26.5 -72.5t60.5 -19.5h71v-72h-84q-41 0 -70 13t-47 35t-26 51t-8 61v252h-114v72h114v250q0 32 8 61t26 51t47 35t70 13h84v-71h-71q-34 0 -60.5 -19t-26.5 -73z" />
    <glyph glyph-name="bar" unicode="|" horiz-adv-x="393" 
d="M234 -194h-74v894h74v-894z" />
    <glyph glyph-name="braceright" unicode="}" horiz-adv-x="417" 
d="M192 -30v567q0 54 -26.5 73t-60.5 19h-71v71h84q41 0 70 -13t47 -35t26 -51t8 -61v-250h114v-72h-114v-252q0 -32 -8 -61t-26 -51t-47 -35t-70 -13h-84v72h71q34 0 60.5 19.5t26.5 72.5z" />
    <glyph glyph-name="asciitilde" unicode="~" horiz-adv-x="495" 
d="M368 319h62q4 -52 -18 -86t-68 -34q-18 0 -35.5 6t-26.5 9l-62 28l-22 8t-22 4q-19 0 -27.5 -13.5t-8.5 -35.5h-63q-4 53 18.5 86.5t68.5 33.5q18 0 35.5 -5.5t25.5 -9.5l63 -27q11 -4 21.5 -8.5t21.5 -4.5q20 0 28.5 14t8.5 35z" />
    <glyph glyph-name="nbspace" unicode="&#xa0;" horiz-adv-x="308" 
 />
    <glyph glyph-name="exclamdown" unicode="&#xa1;" horiz-adv-x="291" 
d="M107 279h77v-473h-77v473zM199 448q0 -23 -15.5 -39t-37.5 -16q-23 0 -39 16t-16 39q0 22 16 38t39 16q22 0 37.5 -16t15.5 -38z" />
    <glyph glyph-name="cent" unicode="&#xa2;" horiz-adv-x="545" 
d="M448 130l51 -47q-29 -35 -70.5 -60.5t-96.5 -31.5v-105h-74v107q-44 8 -81 30.5t-63.5 56t-41.5 76t-15 89.5q0 46 15 88.5t42 75.5t64 56t80 32v107h74v-104q48 -4 87 -26t70 -59l-50 -49q-22 26 -49 42.5t-58 21.5v-371q35 4 64 22.5t52 48.5zM133 245
q0 -66 32.5 -115.5t92.5 -65.5v361q-56 -16 -90.5 -65t-34.5 -115z" />
    <glyph glyph-name="sterling" unicode="&#xa3;" horiz-adv-x="620" 
d="M146 325h-83v68h68q-6 28 -9 54.5t-3 50.5q0 60 21 101t53 66t70 36t72 11q75 0 123 -32t79 -75l-53 -54q-23 34 -61 62t-88 28q-66 0 -103 -41t-37 -101q0 -25 3.5 -52.5t9.5 -53.5h199v-68h-184l55 -253h194v142h68v-214h-477v72h138z" />
    <glyph glyph-name="currency" unicode="&#xa4;" horiz-adv-x="568" 
d="M92 246q0 30 9 58t25 51l-45 46l48 48l45 -46q23 16 51 25.5t59 9.5q30 0 58 -9.5t51 -25.5l45 45l49 -48l-45 -45q16 -23 25 -51t9 -58q0 -31 -9.5 -59t-25.5 -51l47 -46l-48 -48l-47 46q-23 -16 -51 -25t-58 -9q-31 0 -58.5 9t-50.5 25l-46 -46l-49 48l46 46
q-16 23 -25 51t-9 59zM160 246q0 -50 35 -88t89 -38t89 38t35 88q0 51 -35 90t-89 39q-55 0 -89.5 -39t-34.5 -90z" />
    <glyph glyph-name="yen" unicode="&#xa5;" horiz-adv-x="578" 
d="M356 363h161v-69h-190v-80h191v-68h-191v-146h-76v146h-189v68h189v80h-189v69h159l-198 337h84l183 -312l181 312h84z" />
    <glyph glyph-name="brokenbar" unicode="&#xa6;" horiz-adv-x="393" 
d="M234 -194h-74v365h74v-365zM234 335h-74v365h74v-365z" />
    <glyph glyph-name="section" unicode="&#xa7;" horiz-adv-x="627" 
d="M551 209q0 -40 -17.5 -75t-49.5 -63q26 -28 34.5 -55t8.5 -57q0 -32 -13.5 -62t-39 -52.5t-62.5 -36t-84 -13.5q-79 0 -138.5 38t-96.5 101l54 50q35 -62 82.5 -90.5t99.5 -28.5q60 0 90.5 26t30.5 68q0 43 -30 67.5t-71 38.5l-116 40q-72 25 -119.5 73t-47.5 117
q0 46 21 83t54 62q-18 22 -27.5 48.5t-9.5 56.5q0 74 55.5 120.5t140.5 46.5q72 0 124 -34.5t80 -75.5l-54 -54q-24 40 -65 67t-90 27t-82 -25.5t-33 -68.5q0 -28 19.5 -55t68.5 -46l101 -39q90 -34 136 -81t46 -118zM356 332l-162 65q-22 -16 -37 -44.5t-15 -54.5
q0 -46 31.5 -73t88.5 -49l168 -65q22 16 33 41t11 53q0 44 -30.5 74t-87.5 53z" />
    <glyph glyph-name="dieresis" unicode="&#xa8;" horiz-adv-x="556" 
d="M132 655q0 22 14.5 37t36.5 15t37 -15t15 -37t-15 -36.5t-37 -14.5t-36.5 14.5t-14.5 36.5zM313 655q0 22 14.5 37t36.5 15t37 -15t15 -37t-15 -36.5t-37 -14.5t-36.5 14.5t-14.5 36.5z" />
    <glyph glyph-name="copyright" unicode="&#xa9;" horiz-adv-x="826" 
d="M57 351q0 74 27.5 140t75 115t113 77.5t140.5 28.5t140 -28.5t113 -77.5t75.5 -115t27.5 -140q0 -75 -27.5 -141.5t-75.5 -115t-113 -77t-140 -28.5t-140.5 28.5t-113 77t-75 115t-27.5 141.5zM122 351q0 -62 22 -117t61 -95t92.5 -63.5t115.5 -23.5t115.5 23.5
t92.5 63.5t61.5 95t22.5 117q0 61 -22.5 115.5t-61.5 95t-92.5 64t-115.5 23.5t-115.5 -23.5t-92.5 -64t-61 -95t-22 -115.5zM531 264l46 -41q-27 -31 -66 -52t-90 -21q-43 0 -79.5 15.5t-62.5 42t-41 63.5t-15 79t15.5 78.5t42 63t63 42t79.5 15.5q44 0 81 -16t65 -50
l-45 -44q-22 25 -46.5 37t-54.5 12q-58 0 -94.5 -41.5t-36.5 -96.5t35 -96.5t98 -41.5q33 0 58 13t48 39z" />
    <glyph glyph-name="ordfeminine" unicode="&#xaa;" horiz-adv-x="403" 
d="M171 334q-54 0 -91.5 29t-37.5 81q0 54 39.5 82.5t99.5 28.5q40 0 70.5 -8.5t31.5 -8.5v35q0 41 -26 61.5t-68 20.5q-20 0 -36.5 -6t-28 -14t-18 -15t-7.5 -8l-43 38q2 3 12 12.5t27 20.5t41.5 19.5t54.5 8.5q69 0 112.5 -34t43.5 -106v-229h-62v38q-22 -23 -51 -34.5
t-63 -11.5zM106 445q0 -27 20 -41.5t52 -14.5q31 0 58 13.5t47 38.5v45q-1 0 -30 8t-66 8q-40 0 -60.5 -16.5t-20.5 -40.5z" />
    <glyph glyph-name="guillemotleft" unicode="&#xab;" horiz-adv-x="543" 
d="M171 0l-137 245l137 245h82l-139 -245l139 -245h-82zM393 0l-137 245l137 245h82l-139 -245l139 -245h-82z" />
    <glyph glyph-name="logicalnot" unicode="&#xac;" horiz-adv-x="627" 
d="M479 228h-411v68h479v-211h-68v143z" />
    <glyph glyph-name="uni00AD" unicode="&#xad;" horiz-adv-x="308" 
d="M278 228h-248v68h248v-68z" />
    <glyph glyph-name="registered" unicode="&#xae;" horiz-adv-x="659" 
d="M57 435q0 57 21 107.5t57.5 88t86 59.5t106.5 22t107.5 -22t87 -59.5t58 -88t21.5 -107.5t-21.5 -107t-58 -87.5t-87 -59t-107.5 -21.5t-106.5 21.5t-86 59t-57.5 87.5t-21 107zM117 435q0 -45 16.5 -85t44.5 -69t67 -46t83 -17q45 0 84 17t67.5 46t45 69t16.5 85
q0 46 -16.5 86t-45 69.5t-67.5 46.5t-84 17q-44 0 -83 -17t-67 -46.5t-44.5 -69.5t-16.5 -86zM450 317h-61l-55 78h-44v-78h-54v256h115q43 0 67.5 -25.5t24.5 -62.5q0 -27 -14.5 -49.5t-40.5 -33.5zM337 527h-47v-84h47q26 0 39.5 10.5t13.5 31.5q0 20 -13.5 31t-39.5 11z
" />
    <glyph glyph-name="macron" unicode="&#xaf;" horiz-adv-x="556" 
d="M161 632v68h228v-68h-228z" />
    <glyph glyph-name="degree" unicode="&#xb0;" horiz-adv-x="408" 
d="M50 559q0 63 45.5 108t108.5 45q64 0 109 -45t45 -108q0 -64 -45 -109t-109 -45q-63 0 -108.5 45t-45.5 109zM119 559q0 -39 24 -64t61 -25q35 0 60 25t25 64q0 38 -25 63.5t-60 25.5q-37 0 -61 -25.5t-24 -63.5z" />
    <glyph glyph-name="plusminus" unicode="&#xb1;" horiz-adv-x="650" 
d="M570 -68h-490v68h490v-68zM80 292v68h208v210h71v-210h211v-68h-211v-212h-71v212h-208z" />
    <glyph glyph-name="twosuperior" unicode="&#xb2;" horiz-adv-x="352" 
d="M106 367h205v-59h-279v13q0 63 27.5 108.5t105.5 81.5l17 8q32 15 48 32t16 42t-20 40t-52 15q-35 0 -60 -19.5t-38 -48.5l-44 42q18 37 54.5 61t85.5 24q27 0 52.5 -7.5t45 -22t31.5 -36.5t12 -51q0 -43 -26.5 -72t-72.5 -51l-34 -16q-32 -16 -51.5 -36t-22.5 -48z" />
    <glyph glyph-name="threesuperior" unicode="&#xb3;" horiz-adv-x="342" 
d="M243 513q24 -10 43 -33.5t19 -60.5q0 -57 -43.5 -87t-102.5 -30q-40 0 -78.5 16t-62.5 44l45 43q19 -22 44 -33.5t55 -11.5q31 0 53.5 14.5t22.5 45.5q0 29 -24.5 43.5t-64.5 14.5h-33v59h27q41 0 63 15.5t22 43.5q0 26 -21 39t-46 13q-28 0 -50 -10.5t-39 -29.5l-44 42
q24 25 57.5 41t73.5 16q25 0 49.5 -6.5t43.5 -19.5t31 -33.5t12 -48.5q0 -34 -17.5 -55.5t-34.5 -30.5z" />
    <glyph glyph-name="acute" unicode="&#xb4;" horiz-adv-x="556" 
d="M217 569l91 131h97l-114 -131h-74z" />
    <glyph glyph-name="mu" unicode="&#xb5;" horiz-adv-x="570" 
d="M154 -194h-74v684h74v-295q0 -66 31.5 -101t88.5 -35q73 0 107.5 51t34.5 137v243h74v-490h-72v62q-25 -34 -63.5 -53.5t-85.5 -19.5q-34 0 -64.5 11.5t-50.5 33.5v-228z" />
    <glyph glyph-name="paragraph" unicode="&#xb6;" horiz-adv-x="685" 
d="M377 -194v451h-92q-117 0 -187 60t-70 161q0 100 70 161t187 61h320v-894h-76v826h-75v-826h-77z" />
    <glyph glyph-name="periodcentered" unicode="&#xb7;" horiz-adv-x="372" 
d="M123 261q0 25 17 42.5t42 17.5q26 0 43.5 -17.5t17.5 -42.5t-17.5 -42t-43.5 -17q-25 0 -42 17t-17 42z" />
    <glyph glyph-name="cedilla" unicode="&#xb8;" horiz-adv-x="545" 
d="M343 10l-64 -147h-80l71 148z" />
    <glyph glyph-name="onesuperior" unicode="&#xb9;" horiz-adv-x="323" 
d="M38 367h102v249q-17 -12 -44.5 -19t-57.5 -7v56q31 1 63 13.5t47 40.5h59v-333h98v-59h-267v59z" />
    <glyph glyph-name="ordmasculine" unicode="&#xba;" horiz-adv-x="468" 
d="M42 522q0 39 14.5 73.5t40 60t60.5 40.5t76 15t76.5 -15t61 -40.5t40.5 -60t15 -73.5t-15 -73.5t-40.5 -59.5t-61 -40t-76.5 -15t-76 15t-60.5 40t-40 59.5t-14.5 73.5zM107 522q0 -55 35.5 -93t90.5 -38q56 0 91.5 38t35.5 93q0 56 -35.5 94t-91.5 38q-55 0 -90.5 -38
t-35.5 -94z" />
    <glyph glyph-name="guillemotright" unicode="&#xbb;" horiz-adv-x="544" 
d="M68 490h82l137 -245l-137 -245h-82l139 245zM291 490h82l137 -245l-137 -245h-82l139 245z" />
    <glyph glyph-name="onequarter" unicode="&#xbc;" horiz-adv-x="838" 
d="M813 91h-57v-91h-66v91h-188v53l185 248h69v-244h57v-57zM572 148h118v158zM38 367h102v249q-17 -12 -44.5 -19t-57.5 -7v56q31 1 63 13.5t47 40.5h59v-333h98v-59h-267v59zM186 0h81l427 700h-80z" />
    <glyph glyph-name="onehalf" unicode="&#xbd;" horiz-adv-x="872" 
d="M38 367h102v249q-17 -12 -44.5 -19t-57.5 -7v56q31 1 63 13.5t47 40.5h59v-333h98v-59h-267v59zM186 0h81l427 700h-80zM626 59h205v-59h-279v13q0 63 27.5 108.5t105.5 81.5l17 8q32 15 48 32t16 42t-20 40t-52 15q-35 0 -60 -19.5t-38 -48.5l-44 42q18 37 54.5 61
t85.5 24q27 0 52.5 -7.5t45 -22t31.5 -36.5t12 -51q0 -43 -26.5 -72t-72.5 -51l-34 -16q-32 -16 -51.5 -36t-22.5 -48z" />
    <glyph glyph-name="threequarters" unicode="&#xbe;" horiz-adv-x="838" 
d="M243 513q24 -10 43 -33.5t19 -60.5q0 -57 -43.5 -87t-102.5 -30q-40 0 -78.5 16t-62.5 44l45 43q19 -22 44 -33.5t55 -11.5q31 0 53.5 14.5t22.5 45.5q0 29 -24.5 43.5t-64.5 14.5h-33v59h27q41 0 63 15.5t22 43.5q0 26 -21 39t-46 13q-28 0 -50 -10.5t-39 -29.5l-44 42
q24 25 57.5 41t73.5 16q25 0 49.5 -6.5t43.5 -19.5t31 -33.5t12 -48.5q0 -34 -17.5 -55.5t-34.5 -30.5zM813 91h-57v-91h-66v91h-188v53l185 248h69v-244h57v-57zM572 148h118v158zM186 0h81l427 700h-80z" />
    <glyph glyph-name="questiondown" unicode="&#xbf;" horiz-adv-x="546" 
d="M341 279v-155l-25 -1q-89 -4 -132.5 -43.5t-43.5 -93.5q0 -55 39.5 -87t99.5 -32t104.5 29.5t72.5 78.5l51 -56q-37 -54 -95 -89t-133 -35q-46 0 -85.5 13t-68 37t-45 59.5t-16.5 79.5q0 77 51.5 132.5t147.5 71.5v91h78zM361 442q0 -25 -17 -42.5t-42 -17.5t-42.5 17.5
t-17.5 42.5t17.5 42.5t42.5 17.5t42 -17.5t17 -42.5z" />
    <glyph glyph-name="Agrave" unicode="&#xc0;" horiz-adv-x="689" 
d="M302 700h86l273 -700h-82l-64 161h-342l-62 -161h-83zM487 234l-143 368l-141 -368h284zM311 769l-109 103h103l91 -103h-85z" />
    <glyph glyph-name="Aacute" unicode="&#xc1;" horiz-adv-x="689" 
d="M302 700h86l273 -700h-82l-64 161h-342l-62 -161h-83zM487 234l-143 368l-141 -368h284zM265 769l91 103h103l-108 -103h-86z" />
    <glyph glyph-name="Acircumflex" unicode="&#xc2;" horiz-adv-x="689" 
d="M302 700h86l273 -700h-82l-64 161h-342l-62 -161h-83zM487 234l-143 368l-141 -368h284zM199 769l96 103h97l97 -103h-80l-65 62l-66 -62h-79z" />
    <glyph glyph-name="Atilde" unicode="&#xc3;" horiz-adv-x="689" 
d="M302 700h86l273 -700h-82l-64 161h-342l-62 -161h-83zM487 234l-143 368l-141 -368h284zM424 872h57q0 -49 -21 -76t-54 -27q-13 0 -24 3.5t-18 6.5l-30 12q-11 4 -19 7t-19 3q-15 0 -22 -9.5t-8 -22.5h-57q0 49 20.5 76t54.5 27q13 0 24 -3t18 -6l30 -13q11 -4 18.5 -7
t18.5 -3q16 0 23 9.5t8 22.5z" />
    <glyph glyph-name="Adieresis" unicode="&#xc4;" horiz-adv-x="689" 
d="M302 700h86l273 -700h-82l-64 161h-342l-62 -161h-83zM487 234l-143 368l-141 -368h284zM202 820q0 22 14.5 37t36.5 15t37 -15t15 -37t-15 -36.5t-37 -14.5t-36.5 14.5t-14.5 36.5zM383 820q0 22 14.5 37t36.5 15t37 -15t15 -37t-15 -36.5t-37 -14.5t-36.5 14.5
t-14.5 36.5z" />
    <glyph glyph-name="Aring" unicode="&#xc5;" horiz-adv-x="689" 
d="M257 777q0 40 26.5 64.5t60.5 24.5q37 0 63.5 -24.5t26.5 -64.5q0 -25 -13 -46t-35 -31h2l273 -700h-82l-64 161h-342l-62 -161h-83l274 700h2q-21 10 -34 31t-13 46zM487 234l-143 368l-141 -368h284zM312 777q0 -14 10 -23.5t24 -9.5t23.5 9.5t9.5 23.5q0 15 -9.5 24.5
t-23.5 9.5t-24 -9.5t-10 -24.5z" />
    <glyph glyph-name="AE" unicode="&#xc6;" horiz-adv-x="910" 
d="M302 700h533v-72h-420l92 -235h317v-72h-289l98 -249h202v-72h-256l-64 161h-342l-63 -161h-82zM486 234l-142 368l-141 -368h283z" />
    <glyph glyph-name="Ccedilla" unicode="&#xc7;" horiz-adv-x="700" 
d="M617 165l49 -56q-43 -49 -103 -80t-129 -38l-55 -128h-80l61 128q-69 7 -127 38t-99 78.5t-64.5 110t-23.5 131.5q0 75 26.5 141t72.5 115.5t110 78t138 28.5q80 0 147 -30.5t115 -89.5l-51 -54q-37 48 -90 75.5t-121 27.5q-58 0 -108 -22.5t-86 -62t-56.5 -93
t-20.5 -114.5q0 -60 20.5 -113t57.5 -92t87.5 -61.5t110.5 -22.5q67 0 123 26.5t96 78.5z" />
    <glyph glyph-name="Egrave" unicode="&#xc8;" horiz-adv-x="614" 
d="M539 0h-459v700h459v-72h-383v-235h372v-72h-372v-249h383v-72zM291 769l-109 103h103l91 -103h-85z" />
    <glyph glyph-name="Eacute" unicode="&#xc9;" horiz-adv-x="614" 
d="M539 0h-459v700h459v-72h-383v-235h372v-72h-372v-249h383v-72zM245 769l91 103h103l-108 -103h-86z" />
    <glyph glyph-name="Ecircumflex" unicode="&#xca;" horiz-adv-x="614" 
d="M539 0h-459v700h459v-72h-383v-235h372v-72h-372v-249h383v-72zM168 769l96 103h97l97 -103h-80l-65 62l-66 -62h-79z" />
    <glyph glyph-name="Edieresis" unicode="&#xcb;" horiz-adv-x="614" 
d="M539 0h-459v700h459v-72h-383v-235h372v-72h-372v-249h383v-72zM177 820q0 22 14.5 37t36.5 15t37 -15t15 -37t-15 -36.5t-37 -14.5t-36.5 14.5t-14.5 36.5zM358 820q0 22 14.5 37t36.5 15t37 -15t15 -37t-15 -36.5t-37 -14.5t-36.5 14.5t-14.5 36.5z" />
    <glyph glyph-name="Igrave" unicode="&#xcc;" horiz-adv-x="236" 
d="M156 0h-76v700h76v-700zM93 769l-109 103h103l91 -103h-85z" />
    <glyph glyph-name="Iacute" unicode="&#xcd;" horiz-adv-x="236" 
d="M156 0h-76v700h76v-700zM56 769l91 103h103l-108 -103h-86z" />
    <glyph glyph-name="Icircumflex" unicode="&#xce;" horiz-adv-x="236" 
d="M156 0h-76v700h76v-700zM-27 769l96 103h97l97 -103h-80l-65 62l-66 -62h-79z" />
    <glyph glyph-name="Idieresis" unicode="&#xcf;" horiz-adv-x="236" 
d="M156 0h-76v700h76v-700zM-24 820q0 22 14.5 37t36.5 15t37 -15t15 -37t-15 -36.5t-37 -14.5t-36.5 14.5t-14.5 36.5zM157 820q0 22 14.5 37t36.5 15t37 -15t15 -37t-15 -36.5t-37 -14.5t-36.5 14.5t-14.5 36.5z" />
    <glyph glyph-name="Eth" unicode="&#xd0;" horiz-adv-x="695" 
d="M270 0h-190v321h-80v72h80v307h190q71 0 139.5 -16.5t121.5 -56.5t86 -106.5t33 -165.5t-33 -167.5t-86 -110t-121.5 -59.5t-139.5 -18zM279 628h-123v-235h129v-72h-129v-249h124q56 0 108.5 15t93 48t65 87.5t24.5 132.5q0 75 -24.5 127.5t-65 84.5t-93.5 46.5
t-109 14.5z" />
    <glyph glyph-name="Ntilde" unicode="&#xd1;" horiz-adv-x="713" 
d="M633 0h-79l-398 567v-567h-76v700h78l398 -569v569h77v-700zM455 872h57q0 -49 -21 -76t-54 -27q-13 0 -24 3.5t-18 6.5l-30 12q-11 4 -19 7t-19 3q-15 0 -22 -9.5t-8 -22.5h-57q0 49 20.5 76t54.5 27q13 0 24 -3t18 -6l30 -13q11 -4 18.5 -7t18.5 -3q16 0 23 9.5t8 22.5
z" />
    <glyph glyph-name="Ograve" unicode="&#xd2;" horiz-adv-x="790" 
d="M45 351q0 74 26.5 140t72.5 115t110 77.5t139 28.5t139.5 -28.5t111.5 -77.5t74 -115t27 -140q0 -75 -27 -141.5t-74 -115t-111.5 -77t-139.5 -28.5t-139 28.5t-110 77t-72.5 115t-26.5 141.5zM121 351q0 -61 20 -114.5t56.5 -92.5t87.5 -61.5t112 -22.5q60 0 110.5 22.5
t86.5 61.5t56 92.5t20 114.5q0 60 -20 113.5t-56 92.5t-86.5 61.5t-110.5 22.5q-61 0 -112 -22.5t-87.5 -61.5t-56.5 -92.5t-20 -113.5zM361 769l-109 103h103l91 -103h-85z" />
    <glyph glyph-name="Oacute" unicode="&#xd3;" horiz-adv-x="790" 
d="M45 351q0 74 26.5 140t72.5 115t110 77.5t139 28.5t139.5 -28.5t111.5 -77.5t74 -115t27 -140q0 -75 -27 -141.5t-74 -115t-111.5 -77t-139.5 -28.5t-139 28.5t-110 77t-72.5 115t-26.5 141.5zM121 351q0 -61 20 -114.5t56.5 -92.5t87.5 -61.5t112 -22.5q60 0 110.5 22.5
t86.5 61.5t56 92.5t20 114.5q0 60 -20 113.5t-56 92.5t-86.5 61.5t-110.5 22.5q-61 0 -112 -22.5t-87.5 -61.5t-56.5 -92.5t-20 -113.5zM335 769l91 103h103l-108 -103h-86z" />
    <glyph glyph-name="Ocircumflex" unicode="&#xd4;" horiz-adv-x="790" 
d="M45 351q0 74 26.5 140t72.5 115t110 77.5t139 28.5t139.5 -28.5t111.5 -77.5t74 -115t27 -140q0 -75 -27 -141.5t-74 -115t-111.5 -77t-139.5 -28.5t-139 28.5t-110 77t-72.5 115t-26.5 141.5zM121 351q0 -61 20 -114.5t56.5 -92.5t87.5 -61.5t112 -22.5q60 0 110.5 22.5
t86.5 61.5t56 92.5t20 114.5q0 60 -20 113.5t-56 92.5t-86.5 61.5t-110.5 22.5q-61 0 -112 -22.5t-87.5 -61.5t-56.5 -92.5t-20 -113.5zM250 769l96 103h97l97 -103h-80l-65 62l-66 -62h-79z" />
    <glyph glyph-name="Otilde" unicode="&#xd5;" horiz-adv-x="790" 
d="M45 351q0 74 26.5 140t72.5 115t110 77.5t139 28.5t139.5 -28.5t111.5 -77.5t74 -115t27 -140q0 -75 -27 -141.5t-74 -115t-111.5 -77t-139.5 -28.5t-139 28.5t-110 77t-72.5 115t-26.5 141.5zM121 351q0 -61 20 -114.5t56.5 -92.5t87.5 -61.5t112 -22.5q60 0 110.5 22.5
t86.5 61.5t56 92.5t20 114.5q0 60 -20 113.5t-56 92.5t-86.5 61.5t-110.5 22.5q-61 0 -112 -22.5t-87.5 -61.5t-56.5 -92.5t-20 -113.5zM474 872h57q0 -49 -21 -76t-54 -27q-13 0 -24 3.5t-18 6.5l-30 12q-11 4 -19 7t-19 3q-15 0 -22 -9.5t-8 -22.5h-57q0 49 20.5 76
t54.5 27q13 0 24 -3t18 -6l30 -13q11 -4 18.5 -7t18.5 -3q16 0 23 9.5t8 22.5z" />
    <glyph glyph-name="Odieresis" unicode="&#xd6;" horiz-adv-x="790" 
d="M45 351q0 74 26.5 140t72.5 115t110 77.5t139 28.5t139.5 -28.5t111.5 -77.5t74 -115t27 -140q0 -75 -27 -141.5t-74 -115t-111.5 -77t-139.5 -28.5t-139 28.5t-110 77t-72.5 115t-26.5 141.5zM121 351q0 -61 20 -114.5t56.5 -92.5t87.5 -61.5t112 -22.5q60 0 110.5 22.5
t86.5 61.5t56 92.5t20 114.5q0 60 -20 113.5t-56 92.5t-86.5 61.5t-110.5 22.5q-61 0 -112 -22.5t-87.5 -61.5t-56.5 -92.5t-20 -113.5zM253 820q0 22 14.5 37t36.5 15t37 -15t15 -37t-15 -36.5t-37 -14.5t-36.5 14.5t-14.5 36.5zM434 820q0 22 14.5 37t36.5 15t37 -15
t15 -37t-15 -36.5t-37 -14.5t-36.5 14.5t-14.5 36.5z" />
    <glyph glyph-name="multiply" unicode="&#xd7;" horiz-adv-x="568" 
d="M81 401l48 48l155 -155l154 154l49 -48l-154 -154l155 -156l-48 -48l-156 155l-155 -155l-49 48l156 156z" />
    <glyph glyph-name="Oslash" unicode="&#xd8;" horiz-adv-x="790" 
d="M45 351q0 74 26.5 140t72.5 115t110 77.5t139 28.5q48 0 92.5 -12.5t82.5 -34.5l41 59l55 -40l-41 -58q57 -50 89.5 -122t32.5 -153q0 -75 -27 -141.5t-74 -115t-111.5 -77t-139.5 -28.5q-50 0 -95.5 13t-84.5 36l-42 -60l-56 40l43 62q-52 49 -82.5 119.5t-30.5 151.5z
M397 60q60 0 110.5 22.5t86.5 61.5t56 92.5t20 114.5q0 65 -23 121t-64 96l-329 -471q31 -18 67 -27.5t76 -9.5zM121 351q0 -63 21 -117t58 -93l328 467q-28 16 -61 24.5t-70 8.5q-61 0 -112 -22.5t-87.5 -61.5t-56.5 -92.5t-20 -113.5z" />
    <glyph glyph-name="Ugrave" unicode="&#xd9;" horiz-adv-x="668" 
d="M523 275v425h77v-425q0 -61 -18 -113.5t-51.5 -90.5t-83.5 -60t-113 -22t-113 22t-83.5 60t-51.5 90.5t-18 113.5v425h77v-426q0 -44 12 -83t36 -68t59.5 -46t81.5 -17t81.5 17t59.5 46t36 68.5t12 83.5zM322 769l-109 103h103l91 -103h-85z" />
    <glyph glyph-name="Uacute" unicode="&#xda;" horiz-adv-x="668" 
d="M523 275v425h77v-425q0 -61 -18 -113.5t-51.5 -90.5t-83.5 -60t-113 -22t-113 22t-83.5 60t-51.5 90.5t-18 113.5v425h77v-426q0 -44 12 -83t36 -68t59.5 -46t81.5 -17t81.5 17t59.5 46t36 68.5t12 83.5zM273 769l91 103h103l-108 -103h-86z" />
    <glyph glyph-name="Ucircumflex" unicode="&#xdb;" horiz-adv-x="668" 
d="M523 275v425h77v-425q0 -61 -18 -113.5t-51.5 -90.5t-83.5 -60t-113 -22t-113 22t-83.5 60t-51.5 90.5t-18 113.5v425h77v-426q0 -44 12 -83t36 -68t59.5 -46t81.5 -17t81.5 17t59.5 46t36 68.5t12 83.5zM189 769l96 103h97l97 -103h-80l-65 62l-66 -62h-79z" />
    <glyph glyph-name="Udieresis" unicode="&#xdc;" horiz-adv-x="668" 
d="M523 275v425h77v-425q0 -61 -18 -113.5t-51.5 -90.5t-83.5 -60t-113 -22t-113 22t-83.5 60t-51.5 90.5t-18 113.5v425h77v-426q0 -44 12 -83t36 -68t59.5 -46t81.5 -17t81.5 17t59.5 46t36 68.5t12 83.5zM192 820q0 22 14.5 37t36.5 15t37 -15t15 -37t-15 -36.5
t-37 -14.5t-36.5 14.5t-14.5 36.5zM373 820q0 22 14.5 37t36.5 15t37 -15t15 -37t-15 -36.5t-37 -14.5t-36.5 14.5t-14.5 36.5z" />
    <glyph glyph-name="Yacute" unicode="&#xdd;" horiz-adv-x="578" 
d="M23 700h84l183 -342l181 342h84l-228 -417v-283h-76v283zM245 769l91 103h103l-108 -103h-86z" />
    <glyph glyph-name="Thorn" unicode="&#xde;" horiz-adv-x="609" 
d="M324 138h-168v-138h-76v700h76v-119h168q117 0 186.5 -60.5t69.5 -161.5q0 -100 -69.5 -160.5t-186.5 -60.5zM335 510h-179v-300h179q75 0 122 37t47 112q0 72 -46.5 111.5t-122.5 39.5z" />
    <glyph glyph-name="germandbls" unicode="&#xdf;" horiz-adv-x="632" 
d="M150 0h-75v441q0 127 62.5 199t183.5 72q44 0 85 -14t72 -39.5t49.5 -62t18.5 -82.5q0 -49 -22 -87.5t-55 -57.5q44 -23 76 -66t32 -106q0 -47 -17.5 -84t-47.5 -62t-70.5 -38t-86.5 -13h-95v68h80q29 0 58 8t52.5 23.5t38 40t14.5 57.5q0 64 -47 97t-113 33h-83v68h75
q54 0 95 29t41 93q0 50 -40.5 88.5t-109.5 38.5q-82 0 -126.5 -51.5t-44.5 -151.5v-441z" />
    <glyph glyph-name="agrave" unicode="&#xe0;" horiz-adv-x="520" 
d="M228 57q42 0 79 20t65 57v62q0 -1 -40.5 11.5t-92.5 12.5q-54 0 -81 -24t-27 -58q0 -39 27 -60t70 -21zM446 0h-72v54q-30 -33 -69 -49t-82 -16q-69 0 -117.5 38.5t-48.5 110.5t49.5 110.5t128.5 38.5q54 0 95.5 -12.5t41.5 -11.5v54q0 58 -35.5 87t-92.5 29
q-28 0 -50 -9t-37 -20t-23 -20.5l-8 -9.5l-51 47l11 12.5t32.5 28t53.5 28t73 12.5q90 0 145.5 -46t55.5 -144v-312zM257 569l-114 131h97l91 -131h-74z" />
    <glyph glyph-name="aacute" unicode="&#xe1;" horiz-adv-x="520" 
d="M228 57q42 0 79 20t65 57v62q0 -1 -40.5 11.5t-92.5 12.5q-54 0 -81 -24t-27 -58q0 -39 27 -60t70 -21zM446 0h-72v54q-30 -33 -69 -49t-82 -16q-69 0 -117.5 38.5t-48.5 110.5t49.5 110.5t128.5 38.5q54 0 95.5 -12.5t41.5 -11.5v54q0 58 -35.5 87t-92.5 29
q-28 0 -50 -9t-37 -20t-23 -20.5l-8 -9.5l-51 47l11 12.5t32.5 28t53.5 28t73 12.5q90 0 145.5 -46t55.5 -144v-312zM210 569l91 131h97l-114 -131h-74z" />
    <glyph glyph-name="acircumflex" unicode="&#xe2;" horiz-adv-x="520" 
d="M228 57q42 0 79 20t65 57v62q0 -1 -40.5 11.5t-92.5 12.5q-54 0 -81 -24t-27 -58q0 -39 27 -60t70 -21zM446 0h-72v54q-30 -33 -69 -49t-82 -16q-69 0 -117.5 38.5t-48.5 110.5t49.5 110.5t128.5 38.5q54 0 95.5 -12.5t41.5 -11.5v54q0 58 -35.5 87t-92.5 29
q-28 0 -50 -9t-37 -20t-23 -20.5l-8 -9.5l-51 47l11 12.5t32.5 28t53.5 28t73 12.5q90 0 145.5 -46t55.5 -144v-312zM117 569l97 131h97l97 -131h-74l-72 82l-71 -82h-74z" />
    <glyph glyph-name="atilde" unicode="&#xe3;" horiz-adv-x="520" 
d="M228 57q42 0 79 20t65 57v62q0 -1 -40.5 11.5t-92.5 12.5q-54 0 -81 -24t-27 -58q0 -39 27 -60t70 -21zM446 0h-72v54q-30 -33 -69 -49t-82 -16q-69 0 -117.5 38.5t-48.5 110.5t49.5 110.5t128.5 38.5q54 0 95.5 -12.5t41.5 -11.5v54q0 58 -35.5 87t-92.5 29
q-28 0 -50 -9t-37 -20t-23 -20.5l-8 -9.5l-51 47l11 12.5t32.5 28t53.5 28t73 12.5q90 0 145.5 -46t55.5 -144v-312zM344 700h57q0 -49 -21 -76t-54 -27q-13 0 -24 3.5t-18 6.5l-30 12q-11 4 -19 7t-19 3q-15 0 -22 -9.5t-8 -22.5h-57q0 49 20.5 76t54.5 27q13 0 24 -3
t18 -6l30 -13q11 -4 18.5 -7t18.5 -3q16 0 23 9.5t8 22.5z" />
    <glyph glyph-name="adieresis" unicode="&#xe4;" horiz-adv-x="520" 
d="M228 57q42 0 79 20t65 57v62q0 -1 -40.5 11.5t-92.5 12.5q-54 0 -81 -24t-27 -58q0 -39 27 -60t70 -21zM446 0h-72v54q-30 -33 -69 -49t-82 -16q-69 0 -117.5 38.5t-48.5 110.5t49.5 110.5t128.5 38.5q54 0 95.5 -12.5t41.5 -11.5v54q0 58 -35.5 87t-92.5 29
q-28 0 -50 -9t-37 -20t-23 -20.5l-8 -9.5l-51 47l11 12.5t32.5 28t53.5 28t73 12.5q90 0 145.5 -46t55.5 -144v-312zM123 655q0 22 14.5 37t36.5 15t37 -15t15 -37t-15 -36.5t-37 -14.5t-36.5 14.5t-14.5 36.5zM304 655q0 22 14.5 37t36.5 15t37 -15t15 -37t-15 -36.5
t-37 -14.5t-36.5 14.5t-14.5 36.5z" />
    <glyph glyph-name="aring" unicode="&#xe5;" horiz-adv-x="520" 
d="M228 57q42 0 79 20t65 57v62q0 -1 -40.5 11.5t-92.5 12.5q-54 0 -81 -24t-27 -58q0 -39 27 -60t70 -21zM446 0h-72v54q-30 -33 -69 -49t-82 -16q-69 0 -117.5 38.5t-48.5 110.5t49.5 110.5t128.5 38.5q54 0 95.5 -12.5t41.5 -11.5v54q0 58 -35.5 87t-92.5 29
q-28 0 -50 -9t-37 -20t-23 -20.5l-8 -9.5l-51 47l11 12.5t32.5 28t53.5 28t73 12.5q90 0 145.5 -46t55.5 -144v-312zM196 635q0 34 22.5 55.5t52.5 21.5q33 0 56 -21.5t23 -55.5q0 -31 -22.5 -53.5t-56.5 -22.5q-31 0 -53 22.5t-22 53.5zM244 635q0 -13 8.5 -21t21.5 -8
q12 0 20 8t8 21t-8 20.5t-20 7.5q-13 0 -21.5 -7.5t-8.5 -20.5z" />
    <glyph glyph-name="ae" unicode="&#xe6;" horiz-adv-x="871" 
d="M418 81q-28 -37 -78.5 -64.5t-122.5 -27.5q-66 0 -113 40.5t-47 108.5q0 38 16 66.5t44 47.5t65.5 29t79.5 10h111v27q0 53 -34 84t-94 31q-44 0 -74.5 -21t-43.5 -38l-51 47q21 27 65.5 54t107.5 27q60 0 105 -23.5t68 -66.5q28 39 72.5 64.5t100.5 25.5q59 0 101 -22.5
t68 -58t38 -79.5t12 -86q0 -13 -0.5 -23.5l-0.5 -10.5h-365q5 -76 48.5 -120t115.5 -44q43 0 78 19t62 53l52 -47q-34 -40 -83 -67t-115 -27q-63 0 -111 24.5t-77 67.5zM131 136q0 -38 26.5 -59.5t64.5 -21.5q55 0 101 28t63 63q-6 16 -9.5 38.5t-3.5 37.5h-113
q-62 0 -95.5 -24t-33.5 -62zM596 432q-63 0 -99.5 -42t-46.5 -102h289q-4 64 -43 104t-100 40z" />
    <glyph glyph-name="ccedilla" unicode="&#xe7;" horiz-adv-x="545" 
d="M448 130l51 -47q-29 -35 -70 -60.5t-95 -31.5l-55 -128h-80l62 130q-45 7 -82.5 30t-64.5 56t-42 76t-15 90q0 53 19.5 100t52.5 81.5t79 55t98 20.5q57 0 102.5 -22t80.5 -65l-50 -49q-26 31 -59.5 48.5t-73.5 17.5q-75 0 -124 -54t-49 -133t46 -133t130 -54
q43 0 77.5 19t61.5 53z" />
    <glyph glyph-name="egrave" unicode="&#xe8;" horiz-adv-x="556" 
d="M498 222h-365q5 -76 49 -120t116 -44q43 0 77.5 19t62.5 53l51 -47q-33 -40 -79 -67t-112 -27q-55 0 -100 18.5t-76 52t-48 80t-17 102.5q0 53 15.5 100.5t44 83t70.5 56t95 20.5q59 0 100.5 -22.5t67 -58t37.5 -79.5t12 -86q0 -13 -0.5 -23.5zM282 432q-64 0 -100.5 -42
t-45.5 -102h288q-4 64 -42.5 104t-99.5 40zM279 569l-114 131h97l91 -131h-74z" />
    <glyph glyph-name="eacute" unicode="&#xe9;" horiz-adv-x="556" 
d="M498 222h-365q5 -76 49 -120t116 -44q43 0 77.5 19t62.5 53l51 -47q-33 -40 -79 -67t-112 -27q-55 0 -100 18.5t-76 52t-48 80t-17 102.5q0 53 15.5 100.5t44 83t70.5 56t95 20.5q59 0 100.5 -22.5t67 -58t37.5 -79.5t12 -86q0 -13 -0.5 -23.5zM282 432q-64 0 -100.5 -42
t-45.5 -102h288q-4 64 -42.5 104t-99.5 40zM219 569l91 131h97l-114 -131h-74z" />
    <glyph glyph-name="ecircumflex" unicode="&#xea;" horiz-adv-x="556" 
d="M498 222h-365q5 -76 49 -120t116 -44q43 0 77.5 19t62.5 53l51 -47q-33 -40 -79 -67t-112 -27q-55 0 -100 18.5t-76 52t-48 80t-17 102.5q0 53 15.5 100.5t44 83t70.5 56t95 20.5q59 0 100.5 -22.5t67 -58t37.5 -79.5t12 -86q0 -13 -0.5 -23.5zM282 432q-64 0 -100.5 -42
t-45.5 -102h288q-4 64 -42.5 104t-99.5 40zM138 569l97 131h97l97 -131h-74l-72 82l-71 -82h-74z" />
    <glyph glyph-name="edieresis" unicode="&#xeb;" horiz-adv-x="556" 
d="M498 222h-365q5 -76 49 -120t116 -44q43 0 77.5 19t62.5 53l51 -47q-33 -40 -79 -67t-112 -27q-55 0 -100 18.5t-76 52t-48 80t-17 102.5q0 53 15.5 100.5t44 83t70.5 56t95 20.5q59 0 100.5 -22.5t67 -58t37.5 -79.5t12 -86q0 -13 -0.5 -23.5zM282 432q-64 0 -100.5 -42
t-45.5 -102h288q-4 64 -42.5 104t-99.5 40zM139 655q0 22 14.5 37t36.5 15t37 -15t15 -37t-15 -36.5t-37 -14.5t-36.5 14.5t-14.5 36.5zM320 655q0 22 14.5 37t36.5 15t37 -15t15 -37t-15 -36.5t-37 -14.5t-36.5 14.5t-14.5 36.5z" />
    <glyph glyph-name="igrave" unicode="&#xec;" horiz-adv-x="250" 
d="M162 0h-74v490h74v-490zM99 569l-114 131h97l91 -131h-74z" />
    <glyph glyph-name="iacute" unicode="&#xed;" horiz-adv-x="250" 
d="M162 0h-74v490h74v-490zM77 569l91 131h97l-114 -131h-74z" />
    <glyph glyph-name="icircumflex" unicode="&#xee;" horiz-adv-x="250" 
d="M-22 569l97 131h97l97 -131h-74l-72 82l-71 -82h-74zM162 0h-74v490h74v-490z" />
    <glyph glyph-name="idieresis" unicode="&#xef;" horiz-adv-x="250" 
d="M162 0h-74v490h74v-490zM-17 655q0 22 14.5 37t36.5 15t37 -15t15 -37t-15 -36.5t-37 -14.5t-36.5 14.5t-14.5 36.5zM164 655q0 22 14.5 37t36.5 15t37 -15t15 -37t-15 -36.5t-37 -14.5t-36.5 14.5t-14.5 36.5z" />
    <glyph glyph-name="eth" unicode="&#xf0;" 
d="M285 572l-110 -60v68l75 41l-57 80h88l31 -46l104 57v-68l-69 -38l112 -161q32 -46 58 -101.5t26 -115.5q0 -51 -18 -95.5t-50 -76t-77 -49.5t-98 -18q-48 0 -92.5 15.5t-77.5 45t-53 73t-20 99.5q0 54 20 97t52.5 73t76 46t89.5 16q23 0 46 -5t40 -12zM466 221
q0 37 -13 66.5t-35.5 50.5t-53 32.5t-64.5 11.5t-64.5 -11.5t-53 -32.5t-35.5 -50.5t-13 -66.5t13 -66.5t35.5 -50.5t53 -32.5t64.5 -11.5t64 11.5t52.5 32.5t36 50.5t13.5 66.5z" />
    <glyph glyph-name="ntilde" unicode="&#xf1;" horiz-adv-x="576" 
d="M80 490h72v-60q25 31 66.5 51.5t88.5 20.5q93 0 144 -56.5t51 -160.5v-285h-75v291q0 69 -33.5 105.5t-91.5 36.5q-73 0 -110.5 -52t-37.5 -138v-243h-74v490zM350 700h57q0 -49 -21 -76t-54 -27q-13 0 -24 3.5t-18 6.5l-30 12q-11 4 -19 7t-19 3q-15 0 -22 -9.5
t-8 -22.5h-57q0 49 20.5 76t54.5 27q13 0 24 -3t18 -6l30 -13q11 -4 18.5 -7t18.5 -3q16 0 23 9.5t8 22.5z" />
    <glyph glyph-name="ograve" unicode="&#xf2;" horiz-adv-x="608" 
d="M57 245q0 53 18.5 100t51.5 81.5t78 55t98 20.5t98.5 -20.5t78.5 -55t52 -81.5t19 -100t-19 -99.5t-52 -81t-78.5 -55t-98.5 -20.5t-98 20.5t-78 55t-51.5 81t-18.5 99.5zM133 245q0 -79 47.5 -133t122.5 -54t123 54t48 133t-48 133t-123 54t-122.5 -54t-47.5 -133z
M289 569l-114 131h97l91 -131h-74z" />
    <glyph glyph-name="oacute" unicode="&#xf3;" horiz-adv-x="608" 
d="M57 245q0 53 18.5 100t51.5 81.5t78 55t98 20.5t98.5 -20.5t78.5 -55t52 -81.5t19 -100t-19 -99.5t-52 -81t-78.5 -55t-98.5 -20.5t-98 20.5t-78 55t-51.5 81t-18.5 99.5zM133 245q0 -79 47.5 -133t122.5 -54t123 54t48 133t-48 133t-123 54t-122.5 -54t-47.5 -133z
M252 569l91 131h97l-114 -131h-74z" />
    <glyph glyph-name="ocircumflex" unicode="&#xf4;" horiz-adv-x="608" 
d="M57 245q0 53 18.5 100t51.5 81.5t78 55t98 20.5t98.5 -20.5t78.5 -55t52 -81.5t19 -100t-19 -99.5t-52 -81t-78.5 -55t-98.5 -20.5t-98 20.5t-78 55t-51.5 81t-18.5 99.5zM133 245q0 -79 47.5 -133t122.5 -54t123 54t48 133t-48 133t-123 54t-122.5 -54t-47.5 -133z
M159 569l97 131h97l97 -131h-74l-72 82l-71 -82h-74z" />
    <glyph glyph-name="otilde" unicode="&#xf5;" horiz-adv-x="608" 
d="M57 245q0 53 18.5 100t51.5 81.5t78 55t98 20.5t98.5 -20.5t78.5 -55t52 -81.5t19 -100t-19 -99.5t-52 -81t-78.5 -55t-98.5 -20.5t-98 20.5t-78 55t-51.5 81t-18.5 99.5zM133 245q0 -79 47.5 -133t122.5 -54t123 54t48 133t-48 133t-123 54t-122.5 -54t-47.5 -133z
M383 700h57q0 -49 -21 -76t-54 -27q-13 0 -24 3.5t-18 6.5l-30 12q-11 4 -19 7t-19 3q-15 0 -22 -9.5t-8 -22.5h-57q0 49 20.5 76t54.5 27q13 0 24 -3t18 -6l30 -13q11 -4 18.5 -7t18.5 -3q16 0 23 9.5t8 22.5z" />
    <glyph glyph-name="odieresis" unicode="&#xf6;" horiz-adv-x="608" 
d="M57 245q0 53 18.5 100t51.5 81.5t78 55t98 20.5t98.5 -20.5t78.5 -55t52 -81.5t19 -100t-19 -99.5t-52 -81t-78.5 -55t-98.5 -20.5t-98 20.5t-78 55t-51.5 81t-18.5 99.5zM133 245q0 -79 47.5 -133t122.5 -54t123 54t48 133t-48 133t-123 54t-122.5 -54t-47.5 -133z
M162 655q0 22 14.5 37t36.5 15t37 -15t15 -37t-15 -36.5t-37 -14.5t-36.5 14.5t-14.5 36.5zM343 655q0 22 14.5 37t36.5 15t37 -15t15 -37t-15 -36.5t-37 -14.5t-36.5 14.5t-14.5 36.5z" />
    <glyph glyph-name="divide" unicode="&#xf7;" horiz-adv-x="650" 
d="M570 215h-490v68h490v-68zM267 48q0 25 17 42.5t42 17.5q26 0 43.5 -17.5t17.5 -42.5t-17.5 -42t-43.5 -17q-25 0 -42 17t-17 42zM267 441q0 25 17 42.5t42 17.5q26 0 43.5 -17.5t17.5 -42.5t-17.5 -42t-43.5 -17q-25 0 -42 17t-17 42z" />
    <glyph glyph-name="oslash" unicode="&#xf8;" horiz-adv-x="608" 
d="M57 245q0 53 18.5 100t51.5 81.5t78 55t98 20.5q32 0 61.5 -8t54.5 -22l29 41l56 -40l-29 -42q35 -35 55.5 -83.5t20.5 -102.5q0 -53 -19 -99.5t-52 -81t-78.5 -55t-98.5 -20.5q-32 0 -62 8t-56 22l-29 -42l-56 40l30 43q-34 35 -53.5 83t-19.5 102zM303 58q75 0 123 54
t48 133q0 37 -11 69t-31 57l-207 -295q17 -9 36.5 -13.5t41.5 -4.5zM133 245q0 -37 10.5 -68.5t29.5 -55.5l206 293q-17 9 -36 13.5t-40 4.5q-75 0 -122.5 -54t-47.5 -133z" />
    <glyph glyph-name="ugrave" unicode="&#xf9;" horiz-adv-x="555" 
d="M475 0h-71v62q-26 -34 -67.5 -53.5t-87.5 -19.5q-94 0 -139 56t-45 160v285h74v-288q0 -69 31 -106t89 -37q73 0 107.5 51t34.5 137v243h74v-490zM269 569l-114 131h97l91 -131h-74z" />
    <glyph glyph-name="uacute" unicode="&#xfa;" horiz-adv-x="555" 
d="M475 0h-71v62q-26 -34 -67.5 -53.5t-87.5 -19.5q-94 0 -139 56t-45 160v285h74v-288q0 -69 31 -106t89 -37q73 0 107.5 51t34.5 137v243h74v-490zM222 569l91 131h97l-114 -131h-74z" />
    <glyph glyph-name="ucircumflex" unicode="&#xfb;" horiz-adv-x="555" 
d="M475 0h-71v62q-26 -34 -67.5 -53.5t-87.5 -19.5q-94 0 -139 56t-45 160v285h74v-288q0 -69 31 -106t89 -37q73 0 107.5 51t34.5 137v243h74v-490zM135 569l97 131h97l97 -131h-74l-72 82l-71 -82h-74z" />
    <glyph glyph-name="udieresis" unicode="&#xfc;" horiz-adv-x="555" 
d="M475 0h-71v62q-26 -34 -67.5 -53.5t-87.5 -19.5q-94 0 -139 56t-45 160v285h74v-288q0 -69 31 -106t89 -37q73 0 107.5 51t34.5 137v243h74v-490zM138 655q0 22 14.5 37t36.5 15t37 -15t15 -37t-15 -36.5t-37 -14.5t-36.5 14.5t-14.5 36.5zM319 655q0 22 14.5 37t36.5 15
t37 -15t15 -37t-15 -36.5t-37 -14.5t-36.5 14.5t-14.5 36.5z" />
    <glyph glyph-name="yacute" unicode="&#xfd;" horiz-adv-x="506" 
d="M222 -194h-79l69 187l-185 497h83l143 -400l145 400h81zM215 569l91 131h97l-114 -131h-74z" />
    <glyph glyph-name="thorn" unicode="&#xfe;" horiz-adv-x="604" 
d="M547 245q0 -53 -16.5 -99.5t-46.5 -81t-72 -55t-93 -20.5t-92.5 20t-72.5 56v-259h-74v894h74v-277q31 37 72.5 58t92.5 21t93 -20.5t72 -55t46.5 -81.5t16.5 -100zM471 245q0 39 -11 73.5t-31 59.5t-50 39.5t-67 14.5t-67 -14.5t-50.5 -39.5t-31.5 -59.5t-11 -73.5
t11 -73.5t31.5 -59.5t50.5 -39.5t67 -14.5t67 14.5t50 39.5t31 59.5t11 73.5z" />
    <glyph glyph-name="ydieresis" unicode="&#xff;" horiz-adv-x="506" 
d="M222 -194h-79l69 187l-185 497h83l143 -400l145 400h81zM124 655q0 22 14.5 37t36.5 15t37 -15t15 -37t-15 -36.5t-37 -14.5t-36.5 14.5t-14.5 36.5zM305 655q0 22 14.5 37t36.5 15t37 -15t15 -37t-15 -36.5t-37 -14.5t-36.5 14.5t-14.5 36.5z" />
    <glyph glyph-name="Amacron" unicode="&#x100;" horiz-adv-x="689" 
d="M302 700h86l273 -700h-82l-64 161h-342l-62 -161h-83zM487 234l-143 368l-141 -368h284zM230 787v68h228v-68h-228z" />
    <glyph glyph-name="amacron" unicode="&#x101;" horiz-adv-x="520" 
d="M228 57q42 0 79 20t65 57v62q0 -1 -40.5 11.5t-92.5 12.5q-54 0 -81 -24t-27 -58q0 -39 27 -60t70 -21zM446 0h-72v54q-30 -33 -69 -49t-82 -16q-69 0 -117.5 38.5t-48.5 110.5t49.5 110.5t128.5 38.5q54 0 95.5 -12.5t41.5 -11.5v54q0 58 -35.5 87t-92.5 29
q-28 0 -50 -9t-37 -20t-23 -20.5l-8 -9.5l-51 47l11 12.5t32.5 28t53.5 28t73 12.5q90 0 145.5 -46t55.5 -144v-312zM156 632v68h228v-68h-228z" />
    <glyph glyph-name="Abreve" unicode="&#x102;" horiz-adv-x="689" 
d="M302 700h86l273 -700h-82l-64 161h-342l-62 -161h-83zM487 234l-143 368l-141 -368h284zM344 759q-55 0 -87.5 32t-36.5 81h66q3 -23 18 -36.5t40 -13.5t40 13.5t18 36.5h67q-4 -49 -36.5 -81t-88.5 -32z" />
    <glyph glyph-name="abreve" unicode="&#x103;" horiz-adv-x="520" 
d="M228 57q42 0 79 20t65 57v62q0 -1 -40.5 11.5t-92.5 12.5q-54 0 -81 -24t-27 -58q0 -39 27 -60t70 -21zM446 0h-72v54q-30 -33 -69 -49t-82 -16q-69 0 -117.5 38.5t-48.5 110.5t49.5 110.5t128.5 38.5q54 0 95.5 -12.5t41.5 -11.5v54q0 58 -35.5 87t-92.5 29
q-28 0 -50 -9t-37 -20t-23 -20.5l-8 -9.5l-51 47l11 12.5t32.5 28t53.5 28t73 12.5q90 0 145.5 -46t55.5 -144v-312zM270 558q-62 0 -98.5 40.5t-40.5 101.5h66q4 -34 23 -54t50 -20q32 0 50.5 20t22.5 54h67q-4 -61 -40.5 -101.5t-99.5 -40.5z" />
    <glyph glyph-name="Aogonek" unicode="&#x104;" horiz-adv-x="690" 
d="M661 -125v-55q-6 -1 -15.5 -2.5t-20.5 -1.5q-47 0 -73 21.5t-26 59.5q0 31 17.5 58t43.5 45h-8l-64 161h-342l-62 -161h-83l274 700h86l273 -700q-39 -30 -52 -48.5t-13 -35.5q0 -18 13 -29.5t47 -11.5h5zM487 234l-143 368l-141 -368h284z" />
    <glyph glyph-name="aogonek" unicode="&#x105;" horiz-adv-x="520" 
d="M446 -125v-55q-6 -1 -15.5 -2.5t-20.5 -1.5q-47 0 -73 21.5t-26 59.5q0 31 18 58.5t45 45.5v53q-30 -33 -69 -49t-82 -16q-69 0 -117.5 38.5t-48.5 110.5t49.5 110.5t128.5 38.5q54 0 95.5 -12.5t41.5 -11.5v54q0 58 -35.5 87t-92.5 29q-28 0 -50 -9t-37 -20t-23 -20.5
l-8 -9.5l-51 47l11 12.5t32.5 28t53.5 28t73 12.5q90 0 145.5 -46t55.5 -144v-312q-39 -30 -52 -48.5t-13 -35.5q0 -18 13 -29.5t47 -11.5h5zM228 57q42 0 79 20t65 57v62q0 -1 -40.5 11.5t-92.5 12.5q-54 0 -81 -24t-27 -58q0 -39 27 -60t70 -21z" />
    <glyph glyph-name="Cacute" unicode="&#x106;" horiz-adv-x="700" 
d="M617 165l49 -56q-48 -55 -118.5 -87.5t-149.5 -32.5q-76 0 -141 28.5t-111.5 77.5t-73 114.5t-26.5 139.5q0 75 26.5 141t72.5 115.5t110 78t138 28.5q80 0 147 -30.5t115 -89.5l-51 -54q-37 48 -90 75.5t-121 27.5q-58 0 -108 -22.5t-86 -62t-56.5 -93t-20.5 -114.5
q0 -60 20.5 -113t57.5 -92t87.5 -61.5t110.5 -22.5q67 0 123 26.5t96 78.5zM335 769l91 103h103l-108 -103h-86z" />
    <glyph glyph-name="cacute" unicode="&#x107;" horiz-adv-x="545" 
d="M448 130l51 -47q-33 -40 -81.5 -67t-114.5 -27q-53 0 -98 20.5t-78 55t-51.5 81t-18.5 99.5t19.5 100t52.5 81.5t79 55t98 20.5q57 0 102.5 -22t80.5 -65l-50 -49q-26 31 -59.5 48.5t-73.5 17.5q-75 0 -124 -54t-49 -133t46 -133t130 -54q43 0 77.5 19t61.5 53zM257 569
l91 131h97l-114 -131h-74z" />
    <glyph glyph-name="Ccircumflex" unicode="&#x108;" horiz-adv-x="700" 
d="M617 165l49 -56q-48 -55 -118.5 -87.5t-149.5 -32.5q-76 0 -141 28.5t-111.5 77.5t-73 114.5t-26.5 139.5q0 75 26.5 141t72.5 115.5t110 78t138 28.5q80 0 147 -30.5t115 -89.5l-51 -54q-37 48 -90 75.5t-121 27.5q-58 0 -108 -22.5t-86 -62t-56.5 -93t-20.5 -114.5
q0 -60 20.5 -113t57.5 -92t87.5 -61.5t110.5 -22.5q67 0 123 26.5t96 78.5zM250 769l96 103h97l97 -103h-80l-65 62l-66 -62h-79z" />
    <glyph glyph-name="ccircumflex" unicode="&#x109;" horiz-adv-x="545" 
d="M448 130l51 -47q-33 -40 -81.5 -67t-114.5 -27q-53 0 -98 20.5t-78 55t-51.5 81t-18.5 99.5t19.5 100t52.5 81.5t79 55t98 20.5q57 0 102.5 -22t80.5 -65l-50 -49q-26 31 -59.5 48.5t-73.5 17.5q-75 0 -124 -54t-49 -133t46 -133t130 -54q43 0 77.5 19t61.5 53zM157 569
l97 131h97l97 -131h-74l-72 82l-71 -82h-74z" />
    <glyph glyph-name="Cdotaccent" unicode="&#x10a;" horiz-adv-x="700" 
d="M617 165l49 -56q-48 -55 -118.5 -87.5t-149.5 -32.5q-76 0 -141 28.5t-111.5 77.5t-73 114.5t-26.5 139.5q0 75 26.5 141t72.5 115.5t110 78t138 28.5q80 0 147 -30.5t115 -89.5l-51 -54q-37 48 -90 75.5t-121 27.5q-58 0 -108 -22.5t-86 -62t-56.5 -93t-20.5 -114.5
q0 -60 20.5 -113t57.5 -92t87.5 -61.5t110.5 -22.5q67 0 123 26.5t96 78.5zM390 769q-23 0 -39.5 16.5t-16.5 39.5t16.5 39.5t39.5 16.5t39.5 -16.5t16.5 -39.5t-16.5 -39.5t-39.5 -16.5z" />
    <glyph glyph-name="cdotaccent" unicode="&#x10b;" horiz-adv-x="545" 
d="M448 130l51 -47q-33 -40 -81.5 -67t-114.5 -27q-53 0 -98 20.5t-78 55t-51.5 81t-18.5 99.5t19.5 100t52.5 81.5t79 55t98 20.5q57 0 102.5 -22t80.5 -65l-50 -49q-26 31 -59.5 48.5t-73.5 17.5q-75 0 -124 -54t-49 -133t46 -133t130 -54q43 0 77.5 19t61.5 53zM307 600
q-23 0 -39.5 16.5t-16.5 39.5t16.5 39.5t39.5 16.5t39.5 -16.5t16.5 -39.5t-16.5 -39.5t-39.5 -16.5z" />
    <glyph glyph-name="Ccaron" unicode="&#x10c;" horiz-adv-x="700" 
d="M617 165l49 -56q-48 -55 -118.5 -87.5t-149.5 -32.5q-76 0 -141 28.5t-111.5 77.5t-73 114.5t-26.5 139.5q0 75 26.5 141t72.5 115.5t110 78t138 28.5q80 0 147 -30.5t115 -89.5l-51 -54q-37 48 -90 75.5t-121 27.5q-58 0 -108 -22.5t-86 -62t-56.5 -93t-20.5 -114.5
q0 -60 20.5 -113t57.5 -92t87.5 -61.5t110.5 -22.5q67 0 123 26.5t96 78.5zM531 872l-97 -103h-97l-96 103h79l66 -62l65 62h80z" />
    <glyph glyph-name="ccaron" unicode="&#x10d;" horiz-adv-x="545" 
d="M448 130l51 -47q-33 -40 -81.5 -67t-114.5 -27q-53 0 -98 20.5t-78 55t-51.5 81t-18.5 99.5t19.5 100t52.5 81.5t79 55t98 20.5q57 0 102.5 -22t80.5 -65l-50 -49q-26 31 -59.5 48.5t-73.5 17.5q-75 0 -124 -54t-49 -133t46 -133t130 -54q43 0 77.5 19t61.5 53zM453 700
l-97 -131h-97l-97 131h74l71 -82l72 82h74z" />
    <glyph glyph-name="Dcaron" unicode="&#x10e;" horiz-adv-x="695" 
d="M270 0h-190v700h190q71 0 139.5 -16.5t121.5 -56.5t86 -106.5t33 -165.5t-33 -167.5t-86 -110t-121.5 -59.5t-139.5 -18zM279 628h-123v-556h124q56 0 108.5 15t93 48t65 87.5t24.5 132.5q0 75 -24.5 127.5t-65 84.5t-93.5 46.5t-109 14.5zM488 872l-97 -103h-97l-96 103
h79l66 -62l65 62h80z" />
    <glyph glyph-name="dcaron" unicode="&#x10f;" horiz-adv-x="604" 
d="M57 245q0 53 16.5 100t46.5 81.5t72 55t93 20.5t92.5 -20.5t72.5 -56.5v275h74v-700h-71v67q-32 -37 -74.5 -57.5t-93.5 -20.5t-93 20.5t-72 55t-46.5 81t-16.5 99.5zM133 245q0 -39 11 -73.5t31.5 -59.5t50 -39.5t66.5 -14.5t67 14.5t50.5 39.5t32 59.5t11.5 73.5
t-11.5 73.5t-32 59.5t-50.5 39.5t-67 14.5t-66.5 -14.5t-50 -39.5t-31.5 -59.5t-11 -73.5zM700 700l-59 -189h-55l27 189h87z" />
    <glyph glyph-name="Dcroat" unicode="&#x110;" horiz-adv-x="695" 
d="M270 0h-190v321h-80v72h80v307h190q71 0 139.5 -16.5t121.5 -56.5t86 -106.5t33 -165.5t-33 -167.5t-86 -110t-121.5 -59.5t-139.5 -18zM279 628h-123v-235h129v-72h-129v-249h124q56 0 108.5 15t93 48t65 87.5t24.5 132.5q0 75 -24.5 127.5t-65 84.5t-93.5 46.5
t-109 14.5z" />
    <glyph glyph-name="dcroat" unicode="&#x111;" horiz-adv-x="604" 
d="M57 245q0 53 16.5 100t46.5 81.5t72 55t93 20.5t92.5 -20.5t72.5 -56.5v131h-177v68h177v76h74v-76h73v-68h-73v-556h-71v67q-32 -37 -74.5 -57.5t-93.5 -20.5t-93 20.5t-72 55t-46.5 81t-16.5 99.5zM133 245q0 -39 11 -73.5t31.5 -59.5t50 -39.5t66.5 -14.5t67 14.5
t50.5 39.5t32 59.5t11.5 73.5t-11.5 73.5t-32 59.5t-50.5 39.5t-67 14.5t-66.5 -14.5t-50 -39.5t-31.5 -59.5t-11 -73.5z" />
    <glyph glyph-name="Emacron" unicode="&#x112;" horiz-adv-x="614" 
d="M539 0h-459v700h459v-72h-383v-235h372v-72h-372v-249h383v-72zM205 787v68h228v-68h-228z" />
    <glyph glyph-name="emacron" unicode="&#x113;" horiz-adv-x="556" 
d="M498 222h-365q5 -76 49 -120t116 -44q43 0 77.5 19t62.5 53l51 -47q-33 -40 -79 -67t-112 -27q-55 0 -100 18.5t-76 52t-48 80t-17 102.5q0 53 15.5 100.5t44 83t70.5 56t95 20.5q59 0 100.5 -22.5t67 -58t37.5 -79.5t12 -86q0 -13 -0.5 -23.5zM282 432q-64 0 -100.5 -42
t-45.5 -102h288q-4 64 -42.5 104t-99.5 40zM168 632v68h228v-68h-228z" />
    <glyph glyph-name="Ebreve" unicode="&#x114;" horiz-adv-x="614" 
d="M539 0h-459v700h459v-72h-383v-235h372v-72h-372v-249h383v-72zM319 759q-55 0 -87.5 32t-36.5 81h66q3 -23 18 -36.5t40 -13.5t40 13.5t18 36.5h67q-4 -49 -36.5 -81t-88.5 -32z" />
    <glyph glyph-name="ebreve" unicode="&#x115;" horiz-adv-x="556" 
d="M498 222h-365q5 -76 49 -120t116 -44q43 0 77.5 19t62.5 53l51 -47q-33 -40 -79 -67t-112 -27q-55 0 -100 18.5t-76 52t-48 80t-17 102.5q0 53 15.5 100.5t44 83t70.5 56t95 20.5q59 0 100.5 -22.5t67 -58t37.5 -79.5t12 -86q0 -13 -0.5 -23.5zM282 432q-64 0 -100.5 -42
t-45.5 -102h288q-4 64 -42.5 104t-99.5 40zM289 558q-62 0 -98.5 40.5t-40.5 101.5h66q4 -34 23 -54t50 -20q32 0 50.5 20t22.5 54h67q-4 -61 -40.5 -101.5t-99.5 -40.5z" />
    <glyph glyph-name="Edotaccent" unicode="&#x116;" horiz-adv-x="614" 
d="M539 0h-459v700h459v-72h-383v-235h372v-72h-372v-249h383v-72zM319 764q-23 0 -39.5 16.5t-16.5 39.5t16.5 39.5t39.5 16.5t39.5 -16.5t16.5 -39.5t-16.5 -39.5t-39.5 -16.5z" />
    <glyph glyph-name="edotaccent" unicode="&#x117;" horiz-adv-x="556" 
d="M498 222h-365q5 -76 49 -120t116 -44q43 0 77.5 19t62.5 53l51 -47q-33 -40 -79 -67t-112 -27q-55 0 -100 18.5t-76 52t-48 80t-17 102.5q0 53 15.5 100.5t44 83t70.5 56t95 20.5q59 0 100.5 -22.5t67 -58t37.5 -79.5t12 -86q0 -13 -0.5 -23.5zM282 432q-64 0 -100.5 -42
t-45.5 -102h288q-4 64 -42.5 104t-99.5 40zM295 600q-23 0 -39.5 16.5t-16.5 39.5t16.5 39.5t39.5 16.5t39.5 -16.5t16.5 -39.5t-16.5 -39.5t-39.5 -16.5z" />
    <glyph glyph-name="Eogonek" unicode="&#x118;" horiz-adv-x="614" 
d="M539 -125v-55q-6 -1 -15.5 -2.5t-20.5 -1.5q-47 0 -73 21.5t-26 59.5q0 31 17.5 58t43.5 45h-385v700h459v-72h-383v-235h372v-72h-372v-249h383v-72q-39 -30 -52 -48.5t-13 -35.5q0 -18 13 -29.5t47 -11.5h5z" />
    <glyph glyph-name="eogonek" unicode="&#x119;" horiz-adv-x="556" 
d="M298 -11q-55 0 -100 18.5t-76 52t-48 80t-17 102.5q0 53 15.5 100.5t44 83t70.5 56t95 20.5q59 0 100.5 -22.5t67 -58t37.5 -79.5t12 -86q0 -13 -0.5 -23.5l-0.5 -10.5h-365q5 -76 49 -120t116 -44q43 0 77.5 19t62.5 53l51 -47q-11 -13 -27 -28.5t-29 -27.5
q-23 -20 -35.5 -43.5t-12.5 -51.5q0 -29 16 -43t47 -14h5v-55q-6 -1 -15.5 -2.5t-20.5 -1.5q-47 0 -73 21.5t-26 59.5q0 25 13 54t34 47q-16 -4 -32.5 -6.5t-34.5 -2.5zM282 432q-64 0 -100.5 -42t-45.5 -102h288q-4 64 -42.5 104t-99.5 40z" />
    <glyph glyph-name="Ecaron" unicode="&#x11a;" horiz-adv-x="614" 
d="M539 0h-459v700h459v-72h-383v-235h372v-72h-372v-249h383v-72zM464 872l-97 -103h-97l-96 103h79l66 -62l65 62h80z" />
    <glyph glyph-name="ecaron" unicode="&#x11b;" horiz-adv-x="556" 
d="M498 222h-365q5 -76 49 -120t116 -44q43 0 77.5 19t62.5 53l51 -47q-33 -40 -79 -67t-112 -27q-55 0 -100 18.5t-76 52t-48 80t-17 102.5q0 53 15.5 100.5t44 83t70.5 56t95 20.5q59 0 100.5 -22.5t67 -58t37.5 -79.5t12 -86q0 -13 -0.5 -23.5zM282 432q-64 0 -100.5 -42
t-45.5 -102h288q-4 64 -42.5 104t-99.5 40zM427 700l-97 -131h-97l-97 131h74l71 -82l72 82h74z" />
    <glyph glyph-name="Gcircumflex" unicode="&#x11c;" horiz-adv-x="728" 
d="M398 277v72h268v-240q-48 -55 -118.5 -87.5t-149.5 -32.5q-76 0 -141 28.5t-111.5 77.5t-73 114.5t-26.5 139.5q0 75 26.5 141t72.5 115.5t110 78t138 28.5q80 0 147 -30.5t115 -89.5l-51 -54q-37 48 -90 75.5t-121 27.5q-58 0 -108 -22.5t-86 -62t-56.5 -93
t-20.5 -114.5q0 -60 20.5 -113t57.5 -92t87.5 -61.5t110.5 -22.5q57 0 106.5 19t87.5 57v141h-194zM251 769l96 103h97l97 -103h-80l-65 62l-66 -62h-79z" />
    <glyph glyph-name="gcircumflex" unicode="&#x11d;" horiz-adv-x="595" 
d="M74 -96l54 52q7 -12 18.5 -28t29.5 -30.5t44 -24.5t60 -10q78 0 118.5 48.5t40.5 122.5v51q-30 -40 -71.5 -57t-88.5 -17q-46 0 -87 18.5t-70.5 51t-47 77.5t-17.5 98t17.5 98.5t47 78t70.5 51t87 18.5q47 0 88.5 -17t73.5 -58v63h72v-450q0 -110 -63 -177.5t-170 -67.5
q-49 0 -84.5 13t-60 30.5t-39.5 36t-22 29.5zM133 256q0 -78 43.5 -126.5t109.5 -48.5t110.5 48.5t44.5 126.5t-44.5 127t-110.5 49t-109.5 -49t-43.5 -127zM165 569l97 131h97l97 -131h-74l-72 82l-71 -82h-74z" />
    <glyph glyph-name="Gbreve" unicode="&#x11e;" horiz-adv-x="728" 
d="M398 277v72h268v-240q-48 -55 -118.5 -87.5t-149.5 -32.5q-76 0 -141 28.5t-111.5 77.5t-73 114.5t-26.5 139.5q0 75 26.5 141t72.5 115.5t110 78t138 28.5q80 0 147 -30.5t115 -89.5l-51 -54q-37 48 -90 75.5t-121 27.5q-58 0 -108 -22.5t-86 -62t-56.5 -93
t-20.5 -114.5q0 -60 20.5 -113t57.5 -92t87.5 -61.5t110.5 -22.5q57 0 106.5 19t87.5 57v141h-194zM386 759q-55 0 -87.5 32t-36.5 81h66q3 -23 18 -36.5t40 -13.5t40 13.5t18 36.5h67q-4 -49 -36.5 -81t-88.5 -32z" />
    <glyph glyph-name="gbreve" unicode="&#x11f;" horiz-adv-x="595" 
d="M74 -96l54 52q7 -12 18.5 -28t29.5 -30.5t44 -24.5t60 -10q78 0 118.5 48.5t40.5 122.5v51q-30 -40 -71.5 -57t-88.5 -17q-46 0 -87 18.5t-70.5 51t-47 77.5t-17.5 98t17.5 98.5t47 78t70.5 51t87 18.5q47 0 88.5 -17t73.5 -58v63h72v-450q0 -110 -63 -177.5t-170 -67.5
q-49 0 -84.5 13t-60 30.5t-39.5 36t-22 29.5zM133 256q0 -78 43.5 -126.5t109.5 -48.5t110.5 48.5t44.5 126.5t-44.5 127t-110.5 49t-109.5 -49t-43.5 -127zM308 558q-62 0 -98.5 40.5t-40.5 101.5h66q4 -34 23 -54t50 -20q32 0 50.5 20t22.5 54h67q-4 -61 -40.5 -101.5
t-99.5 -40.5z" />
    <glyph glyph-name="Gdotaccent" unicode="&#x120;" horiz-adv-x="728" 
d="M398 277v72h268v-240q-48 -55 -118.5 -87.5t-149.5 -32.5q-76 0 -141 28.5t-111.5 77.5t-73 114.5t-26.5 139.5q0 75 26.5 141t72.5 115.5t110 78t138 28.5q80 0 147 -30.5t115 -89.5l-51 -54q-37 48 -90 75.5t-121 27.5q-58 0 -108 -22.5t-86 -62t-56.5 -93
t-20.5 -114.5q0 -60 20.5 -113t57.5 -92t87.5 -61.5t110.5 -22.5q57 0 106.5 19t87.5 57v141h-194zM386 764q-23 0 -39.5 16.5t-16.5 39.5t16.5 39.5t39.5 16.5t39.5 -16.5t16.5 -39.5t-16.5 -39.5t-39.5 -16.5z" />
    <glyph glyph-name="gdotaccent" unicode="&#x121;" horiz-adv-x="595" 
d="M74 -96l54 52q7 -12 18.5 -28t29.5 -30.5t44 -24.5t60 -10q78 0 118.5 48.5t40.5 122.5v51q-30 -40 -71.5 -57t-88.5 -17q-46 0 -87 18.5t-70.5 51t-47 77.5t-17.5 98t17.5 98.5t47 78t70.5 51t87 18.5q47 0 88.5 -17t73.5 -58v63h72v-450q0 -110 -63 -177.5t-170 -67.5
q-49 0 -84.5 13t-60 30.5t-39.5 36t-22 29.5zM133 256q0 -78 43.5 -126.5t109.5 -48.5t110.5 48.5t44.5 126.5t-44.5 127t-110.5 49t-109.5 -49t-43.5 -127zM310 600q-23 0 -39.5 16.5t-16.5 39.5t16.5 39.5t39.5 16.5t39.5 -16.5t16.5 -39.5t-16.5 -39.5t-39.5 -16.5z" />
    <glyph glyph-name="Gcommaaccent" unicode="&#x122;" horiz-adv-x="728" 
d="M398 277v72h268v-240q-48 -55 -118.5 -87.5t-149.5 -32.5q-76 0 -141 28.5t-111.5 77.5t-73 114.5t-26.5 139.5q0 75 26.5 141t72.5 115.5t110 78t138 28.5q80 0 147 -30.5t115 -89.5l-51 -54q-37 48 -90 75.5t-121 27.5q-58 0 -108 -22.5t-86 -62t-56.5 -93
t-20.5 -114.5q0 -60 20.5 -113t57.5 -92t87.5 -61.5t110.5 -22.5q57 0 106.5 19t87.5 57v141h-194zM318 -194h59l71 137h-83z" />
    <glyph glyph-name="gcommaaccent" unicode="&#x123;" horiz-adv-x="595" 
d="M74 -96l54 52q7 -12 18.5 -28t29.5 -30.5t44 -24.5t60 -10q78 0 118.5 48.5t40.5 122.5v51q-30 -40 -71.5 -57t-88.5 -17q-46 0 -87 18.5t-70.5 51t-47 77.5t-17.5 98t17.5 98.5t47 78t70.5 51t87 18.5q47 0 88.5 -17t73.5 -58v63h72v-450q0 -110 -63 -177.5t-170 -67.5
q-49 0 -84.5 13t-60 30.5t-39.5 36t-22 29.5zM133 256q0 -78 43.5 -126.5t109.5 -48.5t110.5 48.5t44.5 126.5t-44.5 127t-110.5 49t-109.5 -49t-43.5 -127zM324 700h59l-47 -137h-83z" />
    <glyph glyph-name="Hcircumflex" unicode="&#x124;" horiz-adv-x="693" 
d="M613 0h-76v321h-381v-321h-76v700h76v-307h381v307h76v-700zM201 769l96 103h97l97 -103h-80l-65 62l-66 -62h-79z" />
    <glyph glyph-name="hcircumflex" unicode="&#x125;" horiz-adv-x="559" 
d="M80 700h74v-269q25 31 65.5 51t87.5 20q93 0 144 -56.5t51 -160.5v-285h-75v291q0 69 -33.5 105.5t-91.5 36.5q-73 0 -110.5 -52t-37.5 -138v-243h-74v700zM-27 769l96 103h97l97 -103h-80l-65 62l-66 -62h-79z" />
    <glyph glyph-name="Hbar" unicode="&#x126;" horiz-adv-x="693" 
d="M613 0h-76v321h-381v-321h-76v509h-80v72h80v119h76v-119h381v119h76v-119h80v-72h-80v-509zM156 393h381v116h-381v-116z" />
    <glyph glyph-name="hbar" unicode="&#x127;" horiz-adv-x="559" 
d="M80 700h74v-76h179v-68h-179v-125q25 31 65.5 51t87.5 20q93 0 144 -56.5t51 -160.5v-285h-75v291q0 69 -33.5 105.5t-91.5 36.5q-73 0 -110.5 -52t-37.5 -138v-243h-74v556h-71v68h71v76z" />
    <glyph glyph-name="Itilde" unicode="&#x128;" horiz-adv-x="236" 
d="M156 0h-76v700h76v-700zM197 872h57q0 -49 -21 -76t-54 -27q-13 0 -24 3.5t-18 6.5l-30 12q-11 4 -19 7t-19 3q-15 0 -22 -9.5t-8 -22.5h-57q0 49 20.5 76t54.5 27q13 0 24 -3t18 -6l30 -13q11 -4 18.5 -7t18.5 -3q16 0 23 9.5t8 22.5z" />
    <glyph glyph-name="itilde" unicode="&#x129;" horiz-adv-x="250" 
d="M162 0h-74v490h74v-490zM196 700h57q0 -49 -21 -76t-54 -27q-13 0 -24 3.5t-18 6.5l-30 12q-11 4 -19 7t-19 3q-15 0 -22 -9.5t-8 -22.5h-57q0 49 20.5 76t54.5 27q13 0 24 -3t18 -6l30 -13q11 -4 18.5 -7t18.5 -3q16 0 23 9.5t8 22.5z" />
    <glyph glyph-name="Imacron" unicode="&#x12a;" horiz-adv-x="236" 
d="M156 0h-76v700h76v-700zM4 787v68h228v-68h-228z" />
    <glyph glyph-name="imacron" unicode="&#x12b;" horiz-adv-x="250" 
d="M10 632v68h228v-68h-228zM162 0h-74v490h74v-490z" />
    <glyph glyph-name="Ibreve" unicode="&#x12c;" horiz-adv-x="236" 
d="M156 0h-76v700h76v-700zM118 759q-55 0 -87.5 32t-36.5 81h66q3 -23 18 -36.5t40 -13.5t40 13.5t18 36.5h67q-4 -49 -36.5 -81t-88.5 -32z" />
    <glyph glyph-name="ibreve" unicode="&#x12d;" horiz-adv-x="250" 
d="M162 0h-74v490h74v-490zM126 558q-62 0 -98.5 40.5t-40.5 101.5h66q4 -34 23 -54t50 -20q32 0 50.5 20t22.5 54h67q-4 -61 -40.5 -101.5t-99.5 -40.5z" />
    <glyph glyph-name="Iogonek" unicode="&#x12e;" horiz-adv-x="236" 
d="M156 -125v-55q-6 -1 -15.5 -2.5t-20.5 -1.5q-47 0 -73 21.5t-26 59.5q0 31 17.5 58t43.5 45h-2v700h76v-700q-39 -30 -52 -48.5t-13 -35.5q0 -18 13 -29.5t47 -11.5h5z" />
    <glyph glyph-name="iogonek" unicode="&#x12f;" horiz-adv-x="250" 
d="M88 0v490h74v-490q-39 -30 -52 -48.5t-13 -35.5q0 -18 13 -29.5t47 -11.5h5v-55q-6 -1 -15.5 -2.5t-20.5 -1.5q-47 0 -73 21.5t-26 59.5q0 31 17.5 58t43.5 45zM69 657q0 22 16.5 38.5t39.5 16.5t39.5 -16.5t16.5 -38.5q0 -23 -16.5 -39.5t-39.5 -16.5t-39.5 16.5
t-16.5 39.5z" />
    <glyph glyph-name="Idotaccent" unicode="&#x130;" horiz-adv-x="236" 
d="M156 0h-76v700h76v-700zM118 764q-23 0 -39.5 16.5t-16.5 39.5t16.5 39.5t39.5 16.5t39.5 -16.5t16.5 -39.5t-16.5 -39.5t-39.5 -16.5z" />
    <glyph glyph-name="dotlessi" unicode="&#x131;" horiz-adv-x="250" 
d="M162 0h-74v490h74v-490z" />
    <glyph glyph-name="IJ" unicode="&#x132;" horiz-adv-x="719" 
d="M156 0h-76v700h76v-700zM253 98l54 54q19 -37 52.5 -64.5t80.5 -27.5q68 0 101.5 43t33.5 115v482h76v-482q0 -101 -54 -165t-159 -64q-65 0 -112.5 32t-72.5 77z" />
    <glyph glyph-name="ij" unicode="&#x133;" horiz-adv-x="500" 
d="M162 0h-74v490h74v-490zM69 657q0 22 16.5 38.5t39.5 16.5t39.5 -16.5t16.5 -38.5q0 -23 -16.5 -39.5t-39.5 -16.5t-39.5 16.5t-16.5 39.5zM319 657q0 22 17 38.5t39 16.5q23 0 39.5 -16.5t16.5 -38.5q0 -23 -16.5 -39.5t-39.5 -16.5q-22 0 -39 16.5t-17 39.5zM338 -48
v538h74v-550q0 -80 -36.5 -112.5t-106.5 -32.5q-19 0 -35 1l-16 1v67l18 -0.5t26 -0.5q46 0 61 21.5t15 67.5z" />
    <glyph glyph-name="Jcircumflex" unicode="&#x134;" horiz-adv-x="483" 
d="M17 98l54 54q19 -37 52.5 -64.5t80.5 -27.5q68 0 101.5 43t33.5 115v482h76v-482q0 -101 -54 -165t-159 -64q-65 0 -112.5 32t-72.5 77zM231 769l96 103h97l97 -103h-80l-65 62l-66 -62h-79z" />
    <glyph glyph-name="jcircumflex" unicode="&#x135;" horiz-adv-x="250" 
d="M88 -48v538h74v-550q0 -80 -36.5 -112.5t-106.5 -32.5q-19 0 -35 1l-16 1v67l18 -0.5t26 -0.5q46 0 61 21.5t15 67.5zM-25 569l97 131h97l97 -131h-74l-72 82l-71 -82h-74z" />
    <glyph glyph-name="Kcommaaccent" unicode="&#x136;" horiz-adv-x="601" 
d="M135 0h-77v700h77v-404l326 404h89l-241 -301l258 -399h-92l-219 335l-121 -150v-185zM283 -194h-59l47 137h83z" />
    <glyph glyph-name="kcommaaccent" unicode="&#x137;" horiz-adv-x="535" 
d="M154 0h-74v700h74v-461l227 251h97l-191 -207l202 -283h-95l-160 225l-80 -87v-138zM251 -194h-59l47 137h83z" />
    <glyph glyph-name="kgreenlandic" unicode="&#x138;" horiz-adv-x="535" 
d="M154 0h-74v490h74v-251l227 251h97l-191 -207l202 -283h-95l-160 225l-80 -87v-138z" />
    <glyph glyph-name="Lacute" unicode="&#x139;" horiz-adv-x="537" 
d="M497 0h-417v700h76v-628h341v-72zM84 769l91 103h103l-108 -103h-86z" />
    <glyph glyph-name="lacute" unicode="&#x13a;" horiz-adv-x="234" 
d="M154 0h-74v700h74v-700zM68 769l91 103h103l-108 -103h-86z" />
    <glyph glyph-name="Lcommaaccent" unicode="&#x13b;" horiz-adv-x="537" 
d="M497 0h-417v700h76v-628h341v-72zM279 -194h-59l47 137h83z" />
    <glyph glyph-name="lcommaaccent" unicode="&#x13c;" horiz-adv-x="234" 
d="M154 0h-74v700h74v-700zM85 -194h-59l47 137h83z" />
    <glyph glyph-name="Lcaron" unicode="&#x13d;" horiz-adv-x="537" 
d="M497 0h-417v700h76v-628h341v-72zM398 700l-59 -189h-55l27 189h87z" />
    <glyph glyph-name="lcaron" unicode="&#x13e;" horiz-adv-x="234" 
d="M154 0h-74v700h74v-700zM328 700l-59 -189h-55l27 189h87z" />
    <glyph glyph-name="Ldot" unicode="&#x13f;" horiz-adv-x="537" 
d="M497 0h-417v700h76v-628h341v-72zM327 346q0 25 17 42.5t42 17.5q26 0 43.5 -17.5t17.5 -42.5t-17.5 -42t-43.5 -17q-25 0 -42 17t-17 42z" />
    <glyph glyph-name="ldot" unicode="&#x140;" horiz-adv-x="308" 
d="M154 0h-74v700h74v-700zM211 345q0 25 17 42.5t42 17.5q26 0 43.5 -17.5t17.5 -42.5t-17.5 -42t-43.5 -17q-25 0 -42 17t-17 42z" />
    <glyph glyph-name="Lslash" unicode="&#x141;" horiz-adv-x="537" 
d="M497 0h-417v300l-82 -36v77l82 36v323h76v-290l180 79v-77l-180 -79v-261h341v-72z" />
    <glyph glyph-name="lslash" unicode="&#x142;" horiz-adv-x="234" 
d="M154 0h-74v308l-82 -41v77l82 41v315h74v-278l82 42v-77l-82 -42v-345z" />
    <glyph glyph-name="Nacute" unicode="&#x143;" horiz-adv-x="713" 
d="M633 0h-79l-398 567v-567h-76v700h78l398 -569v569h77v-700zM305 769l91 103h103l-108 -103h-86z" />
    <glyph glyph-name="nacute" unicode="&#x144;" horiz-adv-x="576" 
d="M80 490h72v-60q25 31 66.5 51.5t88.5 20.5q93 0 144 -56.5t51 -160.5v-285h-75v291q0 69 -33.5 105.5t-91.5 36.5q-73 0 -110.5 -52t-37.5 -138v-243h-74v490zM247 569l91 131h97l-114 -131h-74z" />
    <glyph glyph-name="Ncommaaccent" unicode="&#x145;" horiz-adv-x="713" 
d="M633 0h-79l-398 567v-567h-76v700h78l398 -569v569h77v-700zM349 -194h-59l47 137h83z" />
    <glyph glyph-name="ncommaaccent" unicode="&#x146;" horiz-adv-x="576" 
d="M80 490h72v-60q25 31 66.5 51.5t88.5 20.5q93 0 144 -56.5t51 -160.5v-285h-75v291q0 69 -33.5 105.5t-91.5 36.5q-73 0 -110.5 -52t-37.5 -138v-243h-74v490zM283 -194h-59l47 137h83z" />
    <glyph glyph-name="Ncaron" unicode="&#x147;" horiz-adv-x="713" 
d="M633 0h-79l-398 567v-567h-76v700h78l398 -569v569h77v-700zM521 872l-97 -103h-97l-96 103h79l66 -62l65 62h80z" />
    <glyph glyph-name="ncaron" unicode="&#x148;" horiz-adv-x="576" 
d="M80 490h72v-60q25 31 66.5 51.5t88.5 20.5q93 0 144 -56.5t51 -160.5v-285h-75v291q0 69 -33.5 105.5t-91.5 36.5q-73 0 -110.5 -52t-37.5 -138v-243h-74v490zM420 700l-97 -131h-97l-97 131h74l71 -82l72 82h74z" />
    <glyph glyph-name="Eng" unicode="&#x14a;" horiz-adv-x="713" 
d="M556 -50v47l-400 570v-567h-76v700h78l398 -569v569h77v-757q0 -81 -37.5 -114.5t-109.5 -33.5q-19 0 -35.5 1l-16.5 1v63l18.5 -0.5t26.5 -0.5q47 0 62 22.5t15 68.5z" />
    <glyph glyph-name="eng" unicode="&#x14b;" horiz-adv-x="576" 
d="M427 -48v339q0 69 -33.5 105.5t-91.5 36.5q-73 0 -110.5 -52t-37.5 -138v-243h-74v490h72v-60q25 31 66.5 51.5t88.5 20.5q93 0 144 -56.5t51 -160.5v-345q0 -80 -37 -112.5t-107 -32.5q-19 0 -35 1l-16 1v67l18 -0.5t26 -0.5q46 0 61 21.5t15 67.5z" />
    <glyph glyph-name="Omacron" unicode="&#x14c;" horiz-adv-x="790" 
d="M45 351q0 74 26.5 140t72.5 115t110 77.5t139 28.5t139.5 -28.5t111.5 -77.5t74 -115t27 -140q0 -75 -27 -141.5t-74 -115t-111.5 -77t-139.5 -28.5t-139 28.5t-110 77t-72.5 115t-26.5 141.5zM121 351q0 -61 20 -114.5t56.5 -92.5t87.5 -61.5t112 -22.5q60 0 110.5 22.5
t86.5 61.5t56 92.5t20 114.5q0 60 -20 113.5t-56 92.5t-86.5 61.5t-110.5 22.5q-61 0 -112 -22.5t-87.5 -61.5t-56.5 -92.5t-20 -113.5zM281 787v68h228v-68h-228z" />
    <glyph glyph-name="omacron" unicode="&#x14d;" horiz-adv-x="608" 
d="M57 245q0 53 18.5 100t51.5 81.5t78 55t98 20.5t98.5 -20.5t78.5 -55t52 -81.5t19 -100t-19 -99.5t-52 -81t-78.5 -55t-98.5 -20.5t-98 20.5t-78 55t-51.5 81t-18.5 99.5zM133 245q0 -79 47.5 -133t122.5 -54t123 54t48 133t-48 133t-123 54t-122.5 -54t-47.5 -133z
M190 632v68h228v-68h-228z" />
    <glyph glyph-name="Obreve" unicode="&#x14e;" horiz-adv-x="790" 
d="M45 351q0 74 26.5 140t72.5 115t110 77.5t139 28.5t139.5 -28.5t111.5 -77.5t74 -115t27 -140q0 -75 -27 -141.5t-74 -115t-111.5 -77t-139.5 -28.5t-139 28.5t-110 77t-72.5 115t-26.5 141.5zM121 351q0 -61 20 -114.5t56.5 -92.5t87.5 -61.5t112 -22.5q60 0 110.5 22.5
t86.5 61.5t56 92.5t20 114.5q0 60 -20 113.5t-56 92.5t-86.5 61.5t-110.5 22.5q-61 0 -112 -22.5t-87.5 -61.5t-56.5 -92.5t-20 -113.5zM395 759q-55 0 -87.5 32t-36.5 81h66q3 -23 18 -36.5t40 -13.5t40 13.5t18 36.5h67q-4 -49 -36.5 -81t-88.5 -32z" />
    <glyph glyph-name="obreve" unicode="&#x14f;" horiz-adv-x="608" 
d="M57 245q0 53 18.5 100t51.5 81.5t78 55t98 20.5t98.5 -20.5t78.5 -55t52 -81.5t19 -100t-19 -99.5t-52 -81t-78.5 -55t-98.5 -20.5t-98 20.5t-78 55t-51.5 81t-18.5 99.5zM133 245q0 -79 47.5 -133t122.5 -54t123 54t48 133t-48 133t-123 54t-122.5 -54t-47.5 -133z
M304 558q-62 0 -98.5 40.5t-40.5 101.5h66q4 -34 23 -54t50 -20q32 0 50.5 20t22.5 54h67q-4 -61 -40.5 -101.5t-99.5 -40.5z" />
    <glyph glyph-name="Ohungarumlaut" unicode="&#x150;" horiz-adv-x="790" 
d="M45 351q0 74 26.5 140t72.5 115t110 77.5t139 28.5t139.5 -28.5t111.5 -77.5t74 -115t27 -140q0 -75 -27 -141.5t-74 -115t-111.5 -77t-139.5 -28.5t-139 28.5t-110 77t-72.5 115t-26.5 141.5zM121 351q0 -61 20 -114.5t56.5 -92.5t87.5 -61.5t112 -22.5q60 0 110.5 22.5
t86.5 61.5t56 92.5t20 114.5q0 60 -20 113.5t-56 92.5t-86.5 61.5t-110.5 22.5q-61 0 -112 -22.5t-87.5 -61.5t-56.5 -92.5t-20 -113.5zM254 769l81 103h97l-104 -103h-74zM419 769l81 103h97l-104 -103h-74z" />
    <glyph glyph-name="ohungarumlaut" unicode="&#x151;" horiz-adv-x="608" 
d="M57 245q0 53 18.5 100t51.5 81.5t78 55t98 20.5t98.5 -20.5t78.5 -55t52 -81.5t19 -100t-19 -99.5t-52 -81t-78.5 -55t-98.5 -20.5t-98 20.5t-78 55t-51.5 81t-18.5 99.5zM133 245q0 -79 47.5 -133t122.5 -54t123 54t48 133t-48 133t-123 54t-122.5 -54t-47.5 -133z
M165 569l91 131h97l-114 -131h-74zM330 569l91 131h97l-114 -131h-74z" />
    <glyph glyph-name="OE" unicode="&#x152;" horiz-adv-x="915" 
d="M45 350q0 78 28 143t77.5 110.5t117.5 71t147 25.5h425v-72h-326v-235h314v-72h-314v-249h326v-72h-425q-79 0 -147 25t-117.5 70.5t-77.5 110.5t-28 144zM122 350q0 -65 21 -117t59.5 -87.5t92.5 -54.5t120 -19h22v556h-22q-62 0 -115.5 -19t-93 -55t-62 -87.5
t-22.5 -116.5z" />
    <glyph glyph-name="oe" unicode="&#x153;" horiz-adv-x="974" 
d="M915 222h-364q4 -76 48 -120t116 -44q43 0 78 19t62 53l51 -47q-33 -40 -79 -67t-112 -27q-71 0 -124 30.5t-83 86.5q-32 -54 -85.5 -85.5t-119.5 -31.5q-53 0 -98 20.5t-78 55t-51.5 81t-18.5 99.5t18.5 100t51.5 81.5t78 55t98 20.5q66 0 119.5 -32.5t85.5 -86.5
q28 54 76 86.5t114 32.5q59 0 101 -22.5t68 -58t38 -79.5t12 -86q0 -13 -1 -23.5zM133 245q0 -79 47.5 -133t122.5 -54q74 0 122.5 53t48.5 134q0 82 -49 134.5t-122 52.5q-75 0 -122.5 -54t-47.5 -133zM699 432q-64 0 -100.5 -42t-45.5 -102h288q-4 64 -42.5 104t-99.5 40z
" />
    <glyph glyph-name="Racute" unicode="&#x154;" horiz-adv-x="649" 
d="M597 0h-91l-183 258h-167v-258h-76v700h244q117 0 186.5 -60.5t69.5 -160.5q0 -81 -45.5 -137t-124.5 -75zM335 628h-179v-299h179q75 0 122 37t47 113q0 72 -46.5 110.5t-122.5 38.5zM245 769l91 103h103l-108 -103h-86z" />
    <glyph glyph-name="racute" unicode="&#x155;" horiz-adv-x="363" 
d="M334 496v-71l-5 0.5t-12 0.5q-86 0 -124.5 -49t-38.5 -168v-209h-74v490h72v-65q33 41 70.5 56.5t89.5 15.5h8.5t13.5 -1zM158 569l91 131h97l-114 -131h-74z" />
    <glyph glyph-name="Rcommaaccent" unicode="&#x156;" horiz-adv-x="649" 
d="M597 0h-91l-183 258h-167v-258h-76v700h244q117 0 186.5 -60.5t69.5 -160.5q0 -81 -45.5 -137t-124.5 -75zM335 628h-179v-299h179q75 0 122 37t47 113q0 72 -46.5 110.5t-122.5 38.5zM313 -194h-59l47 137h83z" />
    <glyph glyph-name="rcommaaccent" unicode="&#x157;" horiz-adv-x="363" 
d="M334 496v-71l-5 0.5t-12 0.5q-86 0 -124.5 -49t-38.5 -168v-209h-74v490h72v-65q33 41 70.5 56.5t89.5 15.5h8.5t13.5 -1zM87 -194h-59l47 137h83z" />
    <glyph glyph-name="Rcaron" unicode="&#x158;" horiz-adv-x="649" 
d="M597 0h-91l-183 258h-167v-258h-76v700h244q117 0 186.5 -60.5t69.5 -160.5q0 -81 -45.5 -137t-124.5 -75zM335 628h-179v-299h179q75 0 122 37t47 113q0 72 -46.5 110.5t-122.5 38.5zM468 872l-97 -103h-97l-96 103h79l66 -62l65 62h80z" />
    <glyph glyph-name="rcaron" unicode="&#x159;" horiz-adv-x="363" 
d="M334 496v-71l-5 0.5t-12 0.5q-86 0 -124.5 -49t-38.5 -168v-209h-74v490h72v-65q33 41 70.5 56.5t89.5 15.5h8.5t13.5 -1zM369 700l-97 -131h-97l-97 131h74l71 -82l72 82h74z" />
    <glyph glyph-name="Sacute" unicode="&#x15a;" horiz-adv-x="638" 
d="M340 311l-88 15q-38 7 -74 21.5t-63.5 38t-44 56.5t-16.5 76q0 46 20.5 82.5t54.5 61t77.5 37.5t89.5 13q83 0 141.5 -31t99.5 -76l-51 -56q-29 35 -76 63.5t-120 28.5q-68 0 -114 -33.5t-46 -86.5q0 -57 42.5 -85t106.5 -38l69 -12q98 -17 155.5 -66.5t57.5 -133.5
q0 -41 -18 -77.5t-51 -63t-80.5 -41.5t-106.5 -15q-89 0 -159 37t-109 91l52 54q32 -44 86.5 -77.5t138.5 -33.5q71 0 121 32.5t50 92.5q0 55 -41 85t-104 41zM278 769l91 103h103l-108 -103h-86z" />
    <glyph glyph-name="sacute" unicode="&#x15b;" horiz-adv-x="490" 
d="M286 203l-73 17q-69 16 -103.5 51.5t-34.5 89.5q0 34 14.5 60.5t38 44.5t54.5 27t63 9q53 0 97 -21.5t78 -57.5l-50 -53q-17 18 -48.5 40.5t-81.5 22.5q-41 0 -66 -19t-25 -50q0 -26 17.5 -44.5t54.5 -27.5l77 -18q65 -15 101 -49t36 -89q0 -64 -50 -105.5t-133 -41.5
q-67 0 -118.5 28t-79.5 64l49 51q27 -34 66 -54.5t82 -20.5q51 0 80.5 20t29.5 55q0 25 -18.5 43.5t-56.5 27.5zM194 569l91 131h97l-114 -131h-74z" />
    <glyph glyph-name="Scircumflex" unicode="&#x15c;" horiz-adv-x="638" 
d="M340 311l-88 15q-38 7 -74 21.5t-63.5 38t-44 56.5t-16.5 76q0 46 20.5 82.5t54.5 61t77.5 37.5t89.5 13q83 0 141.5 -31t99.5 -76l-51 -56q-29 35 -76 63.5t-120 28.5q-68 0 -114 -33.5t-46 -86.5q0 -57 42.5 -85t106.5 -38l69 -12q98 -17 155.5 -66.5t57.5 -133.5
q0 -41 -18 -77.5t-51 -63t-80.5 -41.5t-106.5 -15q-89 0 -159 37t-109 91l52 54q32 -44 86.5 -77.5t138.5 -33.5q71 0 121 32.5t50 92.5q0 55 -41 85t-104 41zM177 769l96 103h97l97 -103h-80l-65 62l-66 -62h-79z" />
    <glyph glyph-name="scircumflex" unicode="&#x15d;" horiz-adv-x="490" 
d="M286 203l-73 17q-69 16 -103.5 51.5t-34.5 89.5q0 34 14.5 60.5t38 44.5t54.5 27t63 9q53 0 97 -21.5t78 -57.5l-50 -53q-17 18 -48.5 40.5t-81.5 22.5q-41 0 -66 -19t-25 -50q0 -26 17.5 -44.5t54.5 -27.5l77 -18q65 -15 101 -49t36 -89q0 -64 -50 -105.5t-133 -41.5
q-67 0 -118.5 28t-79.5 64l49 51q27 -34 66 -54.5t82 -20.5q51 0 80.5 20t29.5 55q0 25 -18.5 43.5t-56.5 27.5zM111 569l97 131h97l97 -131h-74l-72 82l-71 -82h-74z" />
    <glyph glyph-name="Scedilla" unicode="&#x15e;" horiz-adv-x="638" 
d="M340 311l-88 15q-38 7 -74 21.5t-63.5 38t-44 56.5t-16.5 76q0 46 20.5 82.5t54.5 61t77.5 37.5t89.5 13q83 0 141.5 -31t99.5 -76l-51 -56q-29 35 -76 63.5t-120 28.5q-68 0 -114 -33.5t-46 -86.5q0 -57 42.5 -85t106.5 -38l69 -12q98 -17 155.5 -66.5t57.5 -133.5
q0 -76 -58.5 -130.5t-158.5 -64.5l-55 -128h-80l61 128q-77 7 -137.5 42t-95.5 84l52 54q32 -44 86.5 -77.5t138.5 -33.5q71 0 121 32.5t50 92.5q0 55 -41 85t-104 41z" />
    <glyph glyph-name="scedilla" unicode="&#x15f;" horiz-adv-x="490" 
d="M286 203l-73 17q-69 16 -103.5 51.5t-34.5 89.5q0 34 14.5 60.5t38 44.5t54.5 27t63 9q53 0 97 -21.5t78 -57.5l-50 -53q-17 18 -48.5 40.5t-81.5 22.5q-41 0 -66 -19t-25 -50q0 -26 17.5 -44.5t54.5 -27.5l77 -18q65 -15 101 -49t36 -89q0 -57 -40 -96.5t-108 -47.5
l-56 -129h-80l62 129q-54 7 -95 32.5t-64 56.5l49 51q27 -34 66 -54.5t82 -20.5q51 0 80.5 20t29.5 55q0 25 -18.5 43.5t-56.5 27.5z" />
    <glyph glyph-name="Scaron" unicode="&#x160;" horiz-adv-x="638" 
d="M340 311l-88 15q-38 7 -74 21.5t-63.5 38t-44 56.5t-16.5 76q0 46 20.5 82.5t54.5 61t77.5 37.5t89.5 13q83 0 141.5 -31t99.5 -76l-51 -56q-29 35 -76 63.5t-120 28.5q-68 0 -114 -33.5t-46 -86.5q0 -57 42.5 -85t106.5 -38l69 -12q98 -17 155.5 -66.5t57.5 -133.5
q0 -41 -18 -77.5t-51 -63t-80.5 -41.5t-106.5 -15q-89 0 -159 37t-109 91l52 54q32 -44 86.5 -77.5t138.5 -33.5q71 0 121 32.5t50 92.5q0 55 -41 85t-104 41zM478 872l-97 -103h-97l-96 103h79l66 -62l65 62h80z" />
    <glyph glyph-name="scaron" unicode="&#x161;" horiz-adv-x="490" 
d="M286 203l-73 17q-69 16 -103.5 51.5t-34.5 89.5q0 34 14.5 60.5t38 44.5t54.5 27t63 9q53 0 97 -21.5t78 -57.5l-50 -53q-17 18 -48.5 40.5t-81.5 22.5q-41 0 -66 -19t-25 -50q0 -26 17.5 -44.5t54.5 -27.5l77 -18q65 -15 101 -49t36 -89q0 -64 -50 -105.5t-133 -41.5
q-67 0 -118.5 28t-79.5 64l49 51q27 -34 66 -54.5t82 -20.5q51 0 80.5 20t29.5 55q0 25 -18.5 43.5t-56.5 27.5zM396 700l-97 -131h-97l-97 131h74l71 -82l72 82h74z" />
    <glyph glyph-name="uni0162" unicode="&#x162;" horiz-adv-x="586" 
d="M33 628v72h520v-72h-222v-628l-60 -138h-80l66 138h-2v628h-222z" />
    <glyph glyph-name="uni0163" unicode="&#x163;" horiz-adv-x="342" 
d="M291 0l-12.5 -1t-30.5 -1l-59 -135h-80l69 144q-37 13 -56 46t-19 91v278h-80v68h80v137h74v-137h114v-68h-114v-267q0 -45 14.5 -67t60.5 -22q8 0 23.5 0.5l15.5 0.5v-67z" />
    <glyph glyph-name="Tcaron" unicode="&#x164;" horiz-adv-x="586" 
d="M33 628v72h520v-72h-222v-628h-76v628h-222zM438 872l-97 -103h-97l-96 103h79l66 -62l65 62h80z" />
    <glyph glyph-name="tcaron" unicode="&#x165;" horiz-adv-x="342" 
d="M245 -2q-69 0 -105.5 32.5t-36.5 113.5v278h-80v68h80v137h74v-137h114v-68h-114v-267q0 -45 14.5 -67t60.5 -22q8 0 23.5 0.5l15.5 0.5v-67l-13.5 -1t-32.5 -1zM353 750l-59 -189h-55l27 189h87z" />
    <glyph glyph-name="Tbar" unicode="&#x166;" horiz-adv-x="586" 
d="M33 628v72h520v-72h-222v-278h141v-72h-141v-278h-76v278h-141v72h141v278h-222z" />
    <glyph glyph-name="tbar" unicode="&#x167;" horiz-adv-x="342" 
d="M245 -2q-69 0 -105.5 32.5t-36.5 113.5v85h-80v68h80v125h-80v68h80v137h74v-137h114v-68h-114v-125h114v-68h-114v-74q0 -45 14.5 -67t60.5 -22q8 0 23.5 0.5l15.5 0.5v-67l-13.5 -1t-32.5 -1z" />
    <glyph glyph-name="Utilde" unicode="&#x168;" horiz-adv-x="668" 
d="M523 275v425h77v-425q0 -61 -18 -113.5t-51.5 -90.5t-83.5 -60t-113 -22t-113 22t-83.5 60t-51.5 90.5t-18 113.5v425h77v-426q0 -44 12 -83t36 -68t59.5 -46t81.5 -17t81.5 17t59.5 46t36 68.5t12 83.5zM413 872h57q0 -49 -21 -76t-54 -27q-13 0 -24 3.5t-18 6.5l-30 12
q-11 4 -19 7t-19 3q-15 0 -22 -9.5t-8 -22.5h-57q0 49 20.5 76t54.5 27q13 0 24 -3t18 -6l30 -13q11 -4 18.5 -7t18.5 -3q16 0 23 9.5t8 22.5z" />
    <glyph glyph-name="utilde" unicode="&#x169;" horiz-adv-x="555" 
d="M475 0h-71v62q-26 -34 -67.5 -53.5t-87.5 -19.5q-94 0 -139 56t-45 160v285h74v-288q0 -69 31 -106t89 -37q73 0 107.5 51t34.5 137v243h74v-490zM358 700h57q0 -49 -21 -76t-54 -27q-13 0 -24 3.5t-18 6.5l-30 12q-11 4 -19 7t-19 3q-15 0 -22 -9.5t-8 -22.5h-57
q0 49 20.5 76t54.5 27q13 0 24 -3t18 -6l30 -13q11 -4 18.5 -7t18.5 -3q16 0 23 9.5t8 22.5z" />
    <glyph glyph-name="Umacron" unicode="&#x16a;" horiz-adv-x="668" 
d="M523 275v425h77v-425q0 -61 -18 -113.5t-51.5 -90.5t-83.5 -60t-113 -22t-113 22t-83.5 60t-51.5 90.5t-18 113.5v425h77v-426q0 -44 12 -83t36 -68t59.5 -46t81.5 -17t81.5 17t59.5 46t36 68.5t12 83.5zM220 787v68h228v-68h-228z" />
    <glyph glyph-name="umacron" unicode="&#x16b;" horiz-adv-x="555" 
d="M475 0h-71v62q-26 -34 -67.5 -53.5t-87.5 -19.5q-94 0 -139 56t-45 160v285h74v-288q0 -69 31 -106t89 -37q73 0 107.5 51t34.5 137v243h74v-490zM165 632v68h228v-68h-228z" />
    <glyph glyph-name="Ubreve" unicode="&#x16c;" horiz-adv-x="668" 
d="M523 275v425h77v-425q0 -61 -18 -113.5t-51.5 -90.5t-83.5 -60t-113 -22t-113 22t-83.5 60t-51.5 90.5t-18 113.5v425h77v-426q0 -44 12 -83t36 -68t59.5 -46t81.5 -17t81.5 17t59.5 46t36 68.5t12 83.5zM334 759q-55 0 -87.5 32t-36.5 81h66q3 -23 18 -36.5t40 -13.5
t40 13.5t18 36.5h67q-4 -49 -36.5 -81t-88.5 -32z" />
    <glyph glyph-name="ubreve" unicode="&#x16d;" horiz-adv-x="555" 
d="M475 0h-71v62q-26 -34 -67.5 -53.5t-87.5 -19.5q-94 0 -139 56t-45 160v285h74v-288q0 -69 31 -106t89 -37q73 0 107.5 51t34.5 137v243h74v-490zM279 558q-62 0 -98.5 40.5t-40.5 101.5h66q4 -34 23 -54t50 -20q32 0 50.5 20t22.5 54h67q-4 -61 -40.5 -101.5
t-99.5 -40.5z" />
    <glyph glyph-name="Uring" unicode="&#x16e;" horiz-adv-x="668" 
d="M523 275v425h77v-425q0 -61 -18 -113.5t-51.5 -90.5t-83.5 -60t-113 -22t-113 22t-83.5 60t-51.5 90.5t-18 113.5v425h77v-426q0 -44 12 -83t36 -68t59.5 -46t81.5 -17t81.5 17t59.5 46t36 68.5t12 83.5zM246 777q0 40 26.5 64.5t60.5 24.5q37 0 63.5 -24.5t26.5 -64.5
q0 -35 -26 -61t-64 -26q-35 0 -61 26t-26 61zM301 777q0 -14 10 -23.5t24 -9.5t23.5 9.5t9.5 23.5q0 15 -9.5 24.5t-23.5 9.5t-24 -9.5t-10 -24.5z" />
    <glyph glyph-name="uring" unicode="&#x16f;" horiz-adv-x="555" 
d="M475 0h-71v62q-26 -34 -67.5 -53.5t-87.5 -19.5q-94 0 -139 56t-45 160v285h74v-288q0 -69 31 -106t89 -37q73 0 107.5 51t34.5 137v243h74v-490zM205 635q0 34 22.5 55.5t52.5 21.5q33 0 56 -21.5t23 -55.5q0 -31 -22.5 -53.5t-56.5 -22.5q-31 0 -53 22.5t-22 53.5z
M253 635q0 -13 8.5 -21t21.5 -8q12 0 20 8t8 21t-8 20.5t-20 7.5q-13 0 -21.5 -7.5t-8.5 -20.5z" />
    <glyph glyph-name="Uhungarumlaut" unicode="&#x170;" horiz-adv-x="668" 
d="M523 275v425h77v-425q0 -61 -18 -113.5t-51.5 -90.5t-83.5 -60t-113 -22t-113 22t-83.5 60t-51.5 90.5t-18 113.5v425h77v-426q0 -44 12 -83t36 -68t59.5 -46t81.5 -17t81.5 17t59.5 46t36 68.5t12 83.5zM198 769l81 103h97l-104 -103h-74zM363 769l81 103h97l-104 -103
h-74z" />
    <glyph glyph-name="uhungarumlaut" unicode="&#x171;" horiz-adv-x="555" 
d="M475 0h-71v62q-26 -34 -67.5 -53.5t-87.5 -19.5q-94 0 -139 56t-45 160v285h74v-288q0 -69 31 -106t89 -37q73 0 107.5 51t34.5 137v243h74v-490zM135 569l91 131h97l-114 -131h-74zM300 569l91 131h97l-114 -131h-74z" />
    <glyph glyph-name="Uogonek" unicode="&#x172;" horiz-adv-x="668" 
d="M401 -125v-55q-6 -1 -15.5 -2.5t-20.5 -1.5q-47 0 -73 21.5t-26 59.5q0 27 13.5 51t34.5 42q-59 3 -105 26t-77 61t-47.5 88.5t-16.5 109.5v425h77v-426q0 -44 12 -83t36 -68t59.5 -46t81.5 -17t81.5 17t59.5 46t36 68.5t12 83.5v425h77v-425q0 -53 -13.5 -100.5t-40 -84
t-65 -61.5t-87.5 -34q-34 -28 -46 -45.5t-12 -33.5q0 -18 13 -29.5t47 -11.5h5z" />
    <glyph glyph-name="uogonek" unicode="&#x173;" horiz-adv-x="555" 
d="M475 -125v-55q-6 -1 -15.5 -2.5t-20.5 -1.5q-47 0 -73 21.5t-26 59.5q0 31 18 59t46 46v60q-26 -34 -67.5 -53.5t-87.5 -19.5q-94 0 -139 56t-45 160v285h74v-288q0 -69 31 -106t89 -37q73 0 107.5 51t34.5 137v243h74v-490q-39 -30 -52 -48.5t-13 -35.5q0 -18 13 -29.5
t47 -11.5h5z" />
    <glyph glyph-name="Wcircumflex" unicode="&#x174;" horiz-adv-x="887" 
d="M489 700l152 -585l152 585h84l-194 -700h-85l-154 575l-154 -575h-86l-194 700h84l154 -585l150 585h91zM298 769l96 103h97l97 -103h-80l-65 62l-66 -62h-79z" />
    <glyph glyph-name="wcircumflex" unicode="&#x175;" horiz-adv-x="772" 
d="M110 490l113 -409l113 409h100l113 -409l113 409h81l-146 -490h-92l-119 405l-118 -405h-93l-146 490h81zM240 569l97 131h97l97 -131h-74l-72 82l-71 -82h-74z" />
    <glyph glyph-name="Ycircumflex" unicode="&#x176;" horiz-adv-x="578" 
d="M23 700h84l183 -342l181 342h84l-228 -417v-283h-76v283zM145 769l96 103h97l97 -103h-80l-65 62l-66 -62h-79z" />
    <glyph glyph-name="ycircumflex" unicode="&#x177;" horiz-adv-x="506" 
d="M222 -194h-79l69 187l-185 497h83l143 -400l145 400h81zM122 569l97 131h97l97 -131h-74l-72 82l-71 -82h-74z" />
    <glyph glyph-name="Ydieresis" unicode="&#x178;" horiz-adv-x="578" 
d="M23 700h84l183 -342l181 342h84l-228 -417v-283h-76v283zM147 820q0 22 14.5 37t36.5 15t37 -15t15 -37t-15 -36.5t-37 -14.5t-36.5 14.5t-14.5 36.5zM328 820q0 22 14.5 37t36.5 15t37 -15t15 -37t-15 -36.5t-37 -14.5t-36.5 14.5t-14.5 36.5z" />
    <glyph glyph-name="Zacute" unicode="&#x179;" horiz-adv-x="621" 
d="M65 628v72h494v-68l-402 -560h399v-72h-493v68l401 560h-399zM251 769l91 103h103l-108 -103h-86z" />
    <glyph glyph-name="zacute" unicode="&#x17a;" horiz-adv-x="504" 
d="M74 422v68h356v-63l-274 -359h285v-68h-378v63l271 359h-260zM208 569l91 131h97l-114 -131h-74z" />
    <glyph glyph-name="Zdotaccent" unicode="&#x17b;" horiz-adv-x="621" 
d="M65 628v72h494v-68l-402 -560h399v-72h-493v68l401 560h-399zM310 764q-23 0 -39.5 16.5t-16.5 39.5t16.5 39.5t39.5 16.5t39.5 -16.5t16.5 -39.5t-16.5 -39.5t-39.5 -16.5z" />
    <glyph glyph-name="zdotaccent" unicode="&#x17c;" horiz-adv-x="504" 
d="M74 422v68h356v-63l-274 -359h285v-68h-378v63l271 359h-260zM257 600q-23 0 -39.5 16.5t-16.5 39.5t16.5 39.5t39.5 16.5t39.5 -16.5t16.5 -39.5t-16.5 -39.5t-39.5 -16.5z" />
    <glyph glyph-name="Zcaron" unicode="&#x17d;" horiz-adv-x="621" 
d="M65 628v72h494v-68l-402 -560h399v-72h-493v68l401 560h-399zM463 872l-97 -103h-97l-96 103h79l66 -62l65 62h80z" />
    <glyph glyph-name="zcaron" unicode="&#x17e;" horiz-adv-x="504" 
d="M74 422v68h356v-63l-274 -359h285v-68h-378v63l271 359h-260zM407 700l-97 -131h-97l-97 131h74l71 -82l72 82h74z" />
    <glyph glyph-name="florin" unicode="&#x192;" horiz-adv-x="365" 
d="M125 -31v453h-91v68h91v48q0 93 45 133.5t128 40.5q13 0 25.5 -0.5l12.5 -0.5v-68l-14.5 0.5t-22.5 0.5q-57 0 -78.5 -26.5t-21.5 -79.5v-48h126v-68h-126v-453q0 -93 -44.5 -133.5t-127.5 -40.5q-13 0 -25.5 0.5l-12.5 0.5v69l14.5 -1t22.5 -1q56 0 77.5 26.5t21.5 79.5
z" />
    <glyph glyph-name="Aringacute" unicode="&#x1fa;" horiz-adv-x="689" 
d="M257 777q0 40 26.5 64.5t60.5 24.5q37 0 63.5 -24.5t26.5 -64.5q0 -25 -13 -46t-35 -31h2l273 -700h-82l-64 161h-342l-62 -161h-83l274 700h2q-21 10 -34 31t-13 46zM487 234l-143 368l-141 -368h284zM277 893l91 103h103l-108 -103h-86zM312 777q0 -14 10 -23.5
t24 -9.5t23.5 9.5t9.5 23.5q0 15 -9.5 24.5t-23.5 9.5t-24 -9.5t-10 -24.5z" />
    <glyph glyph-name="aringacute" unicode="&#x1fb;" horiz-adv-x="520" 
d="M228 57q42 0 79 20t65 57v62q0 -1 -40.5 11.5t-92.5 12.5q-54 0 -81 -24t-27 -58q0 -39 27 -60t70 -21zM446 0h-72v54q-30 -33 -69 -49t-82 -16q-69 0 -117.5 38.5t-48.5 110.5t49.5 110.5t128.5 38.5q54 0 95.5 -12.5t41.5 -11.5v54q0 58 -35.5 87t-92.5 29
q-28 0 -50 -9t-37 -20t-23 -20.5l-8 -9.5l-51 47l11 12.5t32.5 28t53.5 28t73 12.5q90 0 145.5 -46t55.5 -144v-312zM196 635q0 34 22.5 55.5t52.5 21.5q33 0 56 -21.5t23 -55.5q0 -31 -22.5 -53.5t-56.5 -22.5q-31 0 -53 22.5t-22 53.5zM244 635q0 -13 8.5 -21t21.5 -8
q12 0 20 8t8 21t-8 20.5t-20 7.5q-13 0 -21.5 -7.5t-8.5 -20.5zM225 769l91 103h103l-108 -103h-86z" />
    <glyph glyph-name="AEacute" unicode="&#x1fc;" horiz-adv-x="910" 
d="M302 700h533v-72h-420l92 -235h317v-72h-289l98 -249h202v-72h-256l-64 161h-342l-63 -161h-82zM486 234l-142 368l-141 -368h283zM456 769l91 103h103l-108 -103h-86z" />
    <glyph glyph-name="aeacute" unicode="&#x1fd;" horiz-adv-x="871" 
d="M418 81q-28 -37 -78.5 -64.5t-122.5 -27.5q-66 0 -113 40.5t-47 108.5q0 38 16 66.5t44 47.5t65.5 29t79.5 10h111v27q0 53 -34 84t-94 31q-44 0 -74.5 -21t-43.5 -38l-51 47q21 27 65.5 54t107.5 27q60 0 105 -23.5t68 -66.5q28 39 72.5 64.5t100.5 25.5q59 0 101 -22.5
t68 -58t38 -79.5t12 -86q0 -13 -0.5 -23.5l-0.5 -10.5h-365q5 -76 48.5 -120t115.5 -44q43 0 78 19t62 53l52 -47q-34 -40 -83 -67t-115 -27q-63 0 -111 24.5t-77 67.5zM131 136q0 -38 26.5 -59.5t64.5 -21.5q55 0 101 28t63 63q-6 16 -9.5 38.5t-3.5 37.5h-113
q-62 0 -95.5 -24t-33.5 -62zM596 432q-63 0 -99.5 -42t-46.5 -102h289q-4 64 -43 104t-100 40zM387 569l91 131h97l-114 -131h-74z" />
    <glyph glyph-name="Oslashacute" unicode="&#x1fe;" horiz-adv-x="803" 
d="M45 351q0 74 26.5 140t72.5 115t110 77.5t139 28.5q48 0 92.5 -12.5t82.5 -34.5l41 59l55 -40l-41 -58q57 -50 89.5 -122t32.5 -153q0 -75 -27 -141.5t-74 -115t-111.5 -77t-139.5 -28.5q-50 0 -95.5 13t-84.5 36l-42 -60l-56 40l43 62q-52 49 -82.5 119.5t-30.5 151.5z
M397 60q60 0 110.5 22.5t86.5 61.5t56 92.5t20 114.5q0 65 -23 121t-64 96l-329 -471q31 -18 67 -27.5t76 -9.5zM121 351q0 -63 21 -117t58 -93l328 467q-28 16 -61 24.5t-70 8.5q-61 0 -112 -22.5t-87.5 -61.5t-56.5 -92.5t-20 -113.5zM335 769l91 103h103l-108 -103h-86z
" />
    <glyph glyph-name="oslashacute" unicode="&#x1ff;" horiz-adv-x="608" 
d="M57 245q0 53 18.5 100t51.5 81.5t78 55t98 20.5q32 0 61.5 -8t54.5 -22l29 41l56 -40l-29 -42q35 -35 55.5 -83.5t20.5 -102.5q0 -53 -19 -99.5t-52 -81t-78.5 -55t-98.5 -20.5q-32 0 -62 8t-56 22l-29 -42l-56 40l30 43q-34 35 -53.5 83t-19.5 102zM303 58q75 0 123 54
t48 133q0 37 -11 69t-31 57l-207 -295q17 -9 36.5 -13.5t41.5 -4.5zM133 245q0 -37 10.5 -68.5t29.5 -55.5l206 293q-17 9 -36 13.5t-40 4.5q-75 0 -122.5 -54t-47.5 -133zM252 569l91 131h97l-114 -131h-74z" />
    <glyph glyph-name="Scommaaccent" unicode="&#x218;" horiz-adv-x="638" 
d="M340 311l-88 15q-38 7 -74 21.5t-63.5 38t-44 56.5t-16.5 76q0 46 20.5 82.5t54.5 61t77.5 37.5t89.5 13q83 0 141.5 -31t99.5 -76l-51 -56q-29 35 -76 63.5t-120 28.5q-68 0 -114 -33.5t-46 -86.5q0 -57 42.5 -85t106.5 -38l69 -12q98 -17 155.5 -66.5t57.5 -133.5
q0 -41 -18 -77.5t-51 -63t-80.5 -41.5t-106.5 -15q-89 0 -159 37t-109 91l52 54q32 -44 86.5 -77.5t138.5 -33.5q71 0 121 32.5t50 92.5q0 55 -41 85t-104 41zM219 -194h59l71 137h-83z" />
    <glyph glyph-name="scommaaccent" unicode="&#x219;" horiz-adv-x="490" 
d="M286 203l-73 17q-69 16 -103.5 51.5t-34.5 89.5q0 34 14.5 60.5t38 44.5t54.5 27t63 9q53 0 97 -21.5t78 -57.5l-50 -53q-17 18 -48.5 40.5t-81.5 22.5q-41 0 -66 -19t-25 -50q0 -26 17.5 -44.5t54.5 -27.5l77 -18q65 -15 101 -49t36 -89q0 -64 -50 -105.5t-133 -41.5
q-67 0 -118.5 28t-79.5 64l49 51q27 -34 66 -54.5t82 -20.5q51 0 80.5 20t29.5 55q0 25 -18.5 43.5t-56.5 27.5zM167 -194h59l71 137h-83z" />
    <glyph glyph-name="Tcommaaccent" unicode="&#x21a;" horiz-adv-x="586" 
d="M33 628v72h520v-72h-222v-628h-76v628h-222zM200 -194h59l71 137h-83z" />
    <glyph glyph-name="tcommaaccent" unicode="&#x21b;" horiz-adv-x="342" 
d="M245 -2q-69 0 -105.5 32.5t-36.5 113.5v278h-80v68h80v137h74v-137h114v-68h-114v-267q0 -45 14.5 -67t60.5 -22q8 0 23.5 0.5l15.5 0.5v-67l-13.5 -1t-32.5 -1zM123 -194h59l71 137h-83z" />
    <glyph glyph-name="dotlessj" unicode="&#x237;" horiz-adv-x="250" 
d="M88 -48v538h74v-550q0 -80 -36.5 -112.5t-106.5 -32.5q-19 0 -35 1l-16 1v67l18 -0.5t26 -0.5q46 0 61 21.5t15 67.5z" />
    <glyph glyph-name="circumflex" unicode="&#x2c6;" horiz-adv-x="556" 
d="M133 569l97 131h97l97 -131h-74l-72 82l-71 -82h-74z" />
    <glyph glyph-name="caron" unicode="&#x2c7;" horiz-adv-x="484" 
d="M380 700l-97 -131h-97l-97 131h74l71 -82l72 82h74z" />
    <glyph glyph-name="uni02C9" unicode="&#x2c9;" horiz-adv-x="556" 
d="M161 632v68h228v-68h-228z" />
    <glyph glyph-name="breve" unicode="&#x2d8;" horiz-adv-x="556" 
d="M280 558q-62 0 -98.5 40.5t-40.5 101.5h66q4 -34 23 -54t50 -20q32 0 50.5 20t22.5 54h67q-4 -61 -40.5 -101.5t-99.5 -40.5z" />
    <glyph glyph-name="dotaccent" unicode="&#x2d9;" horiz-adv-x="249" 
d="M124 600q-23 0 -39.5 16.5t-16.5 39.5t16.5 39.5t39.5 16.5t39.5 -16.5t16.5 -39.5t-16.5 -39.5t-39.5 -16.5z" />
    <glyph glyph-name="ring" unicode="&#x2da;" horiz-adv-x="520" 
d="M180 635q0 34 22.5 55.5t52.5 21.5q33 0 56 -21.5t23 -55.5q0 -31 -22.5 -53.5t-56.5 -22.5q-31 0 -53 22.5t-22 53.5zM228 635q0 -13 8.5 -21t21.5 -8q12 0 20 8t8 21t-8 20.5t-20 7.5q-13 0 -21.5 -7.5t-8.5 -20.5z" />
    <glyph glyph-name="ogonek" unicode="&#x2db;" horiz-adv-x="500" 
d="M323 -125v-55q-6 -1 -15.5 -2.5t-20.5 -1.5q-47 0 -73 21.5t-26 59.5q0 33 20 61.5t49 46.5l66 -5q-39 -30 -52 -48.5t-13 -35.5q0 -18 13 -29.5t47 -11.5h5z" />
    <glyph glyph-name="tilde" unicode="&#x2dc;" horiz-adv-x="576" 
d="M359 700h57q0 -49 -21 -76t-54 -27q-13 0 -24 3.5t-18 6.5l-30 12q-11 4 -19 7t-19 3q-15 0 -22 -9.5t-8 -22.5h-57q0 49 20.5 76t54.5 27q13 0 24 -3t18 -6l30 -13q11 -4 18.5 -7t18.5 -3q16 0 23 9.5t8 22.5z" />
    <glyph glyph-name="hungarumlaut" unicode="&#x2dd;" horiz-adv-x="556" 
d="M135 569l91 131h97l-114 -131h-74zM300 569l91 131h97l-114 -131h-74z" />
    <glyph glyph-name="commaaccent" unicode="&#x326;" horiz-adv-x="545" 
d="M236 -194h-59l47 137h83z" />
    <glyph glyph-name="Deltagreek" unicode="&#x394;" horiz-adv-x="700" 
d="M80 65l238 635h64l238 -635v-65h-540v65zM546 71l-196 529l-196 -529h392z" />
    <glyph glyph-name="Omegagreek" unicode="&#x3a9;" horiz-adv-x="762" 
d="M521 68h125v-68h-197v184q39 8 70.5 29t52.5 51t32.5 67t11.5 77q0 52 -18.5 95t-50.5 74t-74.5 48t-90.5 17t-91 -17t-74.5 -48t-50.5 -74t-19 -95q0 -40 11.5 -77t32.5 -67t52 -51t70 -29v-184h-197v68h126v74q-72 27 -120 100t-48 166q0 65 24.5 121t66 96.5
t97.5 63.5t119 23q62 0 117.5 -23t97.5 -63.5t66.5 -96.5t24.5 -121q0 -92 -47.5 -165t-118.5 -101v-74z" />
    <glyph glyph-name="mugreek" unicode="&#x3bc;" horiz-adv-x="570" 
d="M154 -194h-74v684h74v-295q0 -66 31.5 -101t88.5 -35q73 0 107.5 51t34.5 137v243h74v-490h-72v62q-25 -34 -63.5 -53.5t-85.5 -19.5q-34 0 -64.5 11.5t-50.5 33.5v-228z" />
    <glyph glyph-name="pi" unicode="&#x3c0;" horiz-adv-x="642" 
d="M505 0h-71v422h-227v-422h-70v422h-80v68h528v-68h-80v-422z" />
    <glyph glyph-name="Wgrave" unicode="&#x1e80;" horiz-adv-x="887" 
d="M489 700l152 -585l152 585h84l-194 -700h-85l-154 575l-154 -575h-86l-194 700h84l154 -585l150 585h91zM396 769l-109 103h103l91 -103h-85z" />
    <glyph glyph-name="wgrave" unicode="&#x1e81;" horiz-adv-x="772" 
d="M110 490l113 -409l113 409h100l113 -409l113 409h81l-146 -490h-92l-119 405l-118 -405h-93l-146 490h81zM377 569l-114 131h97l91 -131h-74z" />
    <glyph glyph-name="Wacute" unicode="&#x1e82;" horiz-adv-x="887" 
d="M489 700l152 -585l152 585h84l-194 -700h-85l-154 575l-154 -575h-86l-194 700h84l154 -585l150 585h91zM395 769l91 103h103l-108 -103h-86z" />
    <glyph glyph-name="wacute" unicode="&#x1e83;" horiz-adv-x="772" 
d="M110 490l113 -409l113 409h100l113 -409l113 409h81l-146 -490h-92l-119 405l-118 -405h-93l-146 490h81zM331 569l91 131h97l-114 -131h-74z" />
    <glyph glyph-name="Wdieresis" unicode="&#x1e84;" horiz-adv-x="887" 
d="M489 700l152 -585l152 585h84l-194 -700h-85l-154 575l-154 -575h-86l-194 700h84l154 -585l150 585h91zM301 820q0 22 14.5 37t36.5 15t37 -15t15 -37t-15 -36.5t-37 -14.5t-36.5 14.5t-14.5 36.5zM482 820q0 22 14.5 37t36.5 15t37 -15t15 -37t-15 -36.5t-37 -14.5
t-36.5 14.5t-14.5 36.5z" />
    <glyph glyph-name="wdieresis" unicode="&#x1e85;" horiz-adv-x="772" 
d="M110 490l113 -409l113 409h100l113 -409l113 409h81l-146 -490h-92l-119 405l-118 -405h-93l-146 490h81zM243 655q0 22 14.5 37t36.5 15t37 -15t15 -37t-15 -36.5t-37 -14.5t-36.5 14.5t-14.5 36.5zM424 655q0 22 14.5 37t36.5 15t37 -15t15 -37t-15 -36.5t-37 -14.5
t-36.5 14.5t-14.5 36.5z" />
    <glyph glyph-name="Ygrave" unicode="&#x1ef2;" horiz-adv-x="578" 
d="M23 700h84l183 -342l181 342h84l-228 -417v-283h-76v283zM284 769l-109 103h103l91 -103h-85z" />
    <glyph glyph-name="ygrave" unicode="&#x1ef3;" horiz-adv-x="506" 
d="M222 -194h-79l69 187l-185 497h83l143 -400l145 400h81zM249 569l-114 131h97l91 -131h-74z" />
    <glyph glyph-name="thinspace" unicode="&#x2009;" horiz-adv-x="100" 
 />
    <glyph glyph-name="endash" unicode="&#x2013;" horiz-adv-x="576" 
d="M502 228h-422v68h422v-68z" />
    <glyph glyph-name="emdash" unicode="&#x2014;" horiz-adv-x="855" 
d="M781 228h-701v68h701v-68z" />
    <glyph glyph-name="quoteleft" unicode="&#x2018;" horiz-adv-x="262" 
d="M131 700l93 -229h-80l-106 229h93z" />
    <glyph glyph-name="quoteright" unicode="&#x2019;" horiz-adv-x="262" 
d="M227 700l-106 -229h-80l93 229h93z" />
    <glyph glyph-name="quotesinglbase" unicode="&#x201a;" horiz-adv-x="268" 
d="M199 114l-106 -229h-80l93 229h93z" />
    <glyph glyph-name="quotedblleft" unicode="&#x201c;" horiz-adv-x="446" 
d="M319 700l93 -229h-80l-106 229h93zM134 700l93 -229h-80l-106 229h93z" />
    <glyph glyph-name="quotedblright" unicode="&#x201d;" horiz-adv-x="446" 
d="M227 700l-106 -229h-80l93 229h93zM412 700l-106 -229h-80l93 229h93z" />
    <glyph glyph-name="quotedblbase" unicode="&#x201e;" horiz-adv-x="450" 
d="M214 114l-106 -229h-80l93 229h93zM396 114l-106 -229h-80l93 229h93z" />
    <glyph glyph-name="dagger" unicode="&#x2020;" horiz-adv-x="548" 
d="M46 418v72h190v210h76v-210h191v-72h-191v-612h-76v612h-190z" />
    <glyph glyph-name="daggerdbl" unicode="&#x2021;" horiz-adv-x="548" 
d="M46 114v72h190v232h-190v72h190v210h76v-210h191v-72h-191v-232h191v-72h-191v-308h-76v308h-190z" />
    <glyph glyph-name="bullet" unicode="&#x2022;" horiz-adv-x="404" 
d="M68 262q0 55 39.5 94.5t94.5 39.5t94 -39.5t39 -94.5t-39 -94t-94 -39t-94.5 39t-39.5 94z" />
    <glyph glyph-name="ellipsis" unicode="&#x2026;" horiz-adv-x="769" 
d="M91 48q0 25 17 42.5t42 17.5q26 0 43.5 -17.5t17.5 -42.5t-17.5 -42t-43.5 -17q-25 0 -42 17t-17 42zM347 48q0 25 17 42.5t42 17.5q26 0 43.5 -17.5t17.5 -42.5t-17.5 -42t-43.5 -17q-25 0 -42 17t-17 42zM604 48q0 25 17 42.5t42 17.5q26 0 43.5 -17.5t17.5 -42.5
t-17.5 -42t-43.5 -17q-25 0 -42 17t-17 42z" />
    <glyph glyph-name="perthousand" unicode="&#x2030;" horiz-adv-x="1025" 
d="M696 126q0 58 40 98.5t97 40.5q56 0 95.5 -40.5t39.5 -98.5q0 -57 -39.5 -97t-95.5 -40q-57 0 -97 40t-40 97zM762 126q0 -34 22 -54.5t49 -20.5q25 0 47 20.5t22 54.5q0 35 -22 55.5t-47 20.5q-27 0 -49 -20.5t-22 -55.5zM57 574q0 57 40 97.5t97 40.5q56 0 95.5 -40.5
t39.5 -97.5t-39.5 -97.5t-95.5 -40.5q-57 0 -97 40.5t-40 97.5zM123 574q0 -34 22 -54.5t49 -20.5q26 0 47.5 20.5t21.5 54.5q0 35 -21.5 55.5t-47.5 20.5q-27 0 -49 -20.5t-22 -55.5zM163 0h-80l449 700h79zM366 126q0 58 40 98.5t97 40.5q56 0 95.5 -40.5t39.5 -98.5
q0 -57 -39.5 -97t-95.5 -40q-57 0 -97 40t-40 97zM432 126q0 -34 22 -54.5t49 -20.5q25 0 47 20.5t22 54.5q0 35 -22 55.5t-47 20.5q-27 0 -49 -20.5t-22 -55.5z" />
    <glyph glyph-name="guilsinglleft" unicode="&#x2039;" horiz-adv-x="321" 
d="M171 0l-137 245l137 245h82l-139 -245l139 -245h-82z" />
    <glyph glyph-name="guilsinglright" unicode="&#x203a;" horiz-adv-x="321" 
d="M150 490l137 -245l-137 -245h-82l139 245l-139 245h82z" />
    <glyph glyph-name="fraction" unicode="&#x2044;" horiz-adv-x="580" 
d="M117 0h-81l428 700h80z" />
    <glyph glyph-name="zerosuperior" unicode="&#x2070;" horiz-adv-x="376" 
d="M188 361q43 0 65.5 38t22.5 106q0 67 -22.5 104.5t-65.5 37.5q-44 0 -66.5 -37.5t-22.5 -104.5q0 -68 22.5 -106t66.5 -38zM188 302q-39 0 -68.5 16.5t-49 44t-29.5 64.5t-10 78q0 40 10 77t29.5 64.5t49 44t68.5 16.5q38 0 67.5 -16.5t49 -44t29.5 -64.5t10 -77
q0 -41 -10 -78t-29.5 -64.5t-49 -44t-67.5 -16.5z" />
    <glyph glyph-name="foursuperior" unicode="&#x2074;" horiz-adv-x="356" 
d="M331 399h-57v-91h-66v91h-188v53l185 248h69v-244h57v-57zM90 456h118v158z" />
    <glyph glyph-name="zeroinferior" unicode="&#x2080;" horiz-adv-x="376" 
d="M188 53q43 0 65.5 38t22.5 106q0 67 -22.5 104.5t-65.5 37.5q-44 0 -66.5 -37.5t-22.5 -104.5q0 -68 22.5 -106t66.5 -38zM188 -6q-39 0 -68.5 16.5t-49 44t-29.5 64.5t-10 78q0 40 10 77t29.5 64.5t49 44t68.5 16.5q38 0 67.5 -16.5t49 -44t29.5 -64.5t10 -77
q0 -41 -10 -78t-29.5 -64.5t-49 -44t-67.5 -16.5z" />
    <glyph glyph-name="oneinferior" unicode="&#x2081;" horiz-adv-x="323" 
d="M38 59h102v249q-17 -12 -44.5 -19t-57.5 -7v56q31 1 63 13.5t47 40.5h59v-333h98v-59h-267v59z" />
    <glyph glyph-name="twoinferior" unicode="&#x2082;" horiz-adv-x="352" 
d="M106 59h205v-59h-279v13q0 63 27.5 108.5t105.5 81.5l17 8q32 15 48 32t16 42t-20 40t-52 15q-35 0 -60 -19.5t-38 -48.5l-44 42q18 37 54.5 61t85.5 24q27 0 52.5 -7.5t45 -22t31.5 -36.5t12 -51q0 -43 -26.5 -72t-72.5 -51l-34 -16q-32 -16 -51.5 -36t-22.5 -48z" />
    <glyph glyph-name="threeinferior" unicode="&#x2083;" horiz-adv-x="342" 
d="M243 205q24 -10 43 -33.5t19 -60.5q0 -57 -43.5 -87t-102.5 -30q-40 0 -78.5 16t-62.5 44l45 43q19 -22 44 -33.5t55 -11.5q31 0 53.5 14.5t22.5 45.5q0 29 -24.5 43.5t-64.5 14.5h-33v59h27q41 0 63 15.5t22 43.5q0 26 -21 39t-46 13q-28 0 -50 -10.5t-39 -29.5l-44 42
q24 25 57.5 41t73.5 16q25 0 49.5 -6.5t43.5 -19.5t31 -33.5t12 -48.5q0 -34 -17.5 -55.5t-34.5 -30.5z" />
    <glyph glyph-name="fourinferior" unicode="&#x2084;" horiz-adv-x="356" 
d="M331 91h-57v-91h-66v91h-188v53l185 248h69v-244h57v-57zM90 148h118v158z" />
    <glyph glyph-name="Euro" unicode="&#x20ac;" horiz-adv-x="700" 
d="M135 239h-78v69h68q-1 10 -1 21v21v18.5t1 19.5h-68v68h78q11 53 34 99.5t57.5 81t82 55t106.5 20.5q80 0 130 -33t81 -76l-50 -52q-30 46 -70.5 68t-90.5 22q-43 0 -76.5 -15t-57.5 -40t-40.5 -58.5t-25.5 -71.5h241v-68h-251q-1 -10 -1 -19.5v-18.5v-21t1 -21h251v-69
h-240q17 -75 64.5 -127t133.5 -52q50 0 93.5 21t79.5 65l49 -56q-48 -50 -102 -75.5t-120 -25.5q-61 0 -108.5 20t-81.5 54t-56 79.5t-33 96.5z" />
    <glyph glyph-name="litre" unicode="&#x2113;" horiz-adv-x="400" 
d="M45 121l-2 41q19 0 37.5 3t35.5 10q-2 20 -3 45.5t-1 60.5q0 138 24.5 204.5t82.5 66.5q44 0 61 -38.5t17 -95.5q0 -96 -40.5 -168.5t-98.5 -100.5q2 -21 6 -42.5t12 -39t19.5 -29t28.5 -11.5q34 0 47.5 28t17.5 75h34q-1 -62 -27 -101.5t-74 -39.5q-25 0 -42.5 12
t-29 32t-18.5 46t-11 54q-17 -6 -37 -9t-39 -3zM150 293q0 -28 1 -53.5t2 -47.5q23 12 42.5 35t33.5 52t22 63t8 68q0 39 -8.5 71.5t-34.5 32.5q-18 0 -31 -18t-20.5 -48.5t-11 -70.5t-3.5 -84z" />
    <glyph glyph-name="numero" unicode="&#x2116;" horiz-adv-x="1158" 
d="M554 0h79v700h-77v-569l-398 569h-78v-700h76v567zM732 522q0 39 14.5 73.5t40 60t60.5 40.5t76 15t76.5 -15t61 -40.5t40.5 -60t15 -73.5t-15 -73.5t-40.5 -59.5t-61 -40t-76.5 -15t-76 15t-60.5 40t-40 59.5t-14.5 73.5zM797 522q0 -55 35.5 -93t90.5 -38q56 0 91.5 38
t35.5 93q0 56 -35.5 94t-91.5 38q-55 0 -90.5 -38t-35.5 -94z" />
    <glyph glyph-name="published" unicode="&#x2117;" horiz-adv-x="826" 
d="M57 351q0 74 27.5 140t75 115t113 77.5t140.5 28.5t140 -28.5t113 -77.5t75.5 -115t27.5 -140q0 -75 -27.5 -141.5t-75.5 -115t-113 -77t-140 -28.5t-140.5 28.5t-113 77t-75 115t-27.5 141.5zM122 351q0 -62 22 -117t61 -95t92.5 -63.5t115.5 -23.5t115.5 23.5
t92.5 63.5t61.5 95t22.5 117q0 61 -22.5 115.5t-61.5 95t-92.5 64t-115.5 23.5t-115.5 -23.5t-92.5 -64t-61 -95t-22 -115.5zM441 297h-93v-142h-59v389h152q66 0 104.5 -34t38.5 -89q0 -57 -38.5 -90.5t-104.5 -33.5zM445 487h-97v-133h97q34 0 54 17t20 50q0 31 -20 48.5
t-54 17.5z" />
    <glyph glyph-name="trademark" unicode="&#x2122;" horiz-adv-x="847" 
d="M23 642v58h289v-58h-114v-335h-63v335h-112zM610 388h-65l-96 190v-271h-63v393h68l123 -251l124 251h66v-393h-62v271z" />
    <glyph glyph-name="Omega" unicode="&#x2126;" horiz-adv-x="762" 
d="M521 68h125v-68h-197v184q39 8 70.5 29t52.5 51t32.5 67t11.5 77q0 52 -18.5 95t-50.5 74t-74.5 48t-90.5 17t-91 -17t-74.5 -48t-50.5 -74t-19 -95q0 -40 11.5 -77t32.5 -67t52 -51t70 -29v-184h-197v68h126v74q-72 27 -120 100t-48 166q0 65 24.5 121t66 96.5
t97.5 63.5t119 23q62 0 117.5 -23t97.5 -63.5t66.5 -96.5t24.5 -121q0 -92 -47.5 -165t-118.5 -101v-74z" />
    <glyph glyph-name="estimated" unicode="&#x212e;" horiz-adv-x="650" 
d="M508 94h51q-39 -49 -95 -77t-143 -28q-62 0 -113.5 21t-88.5 58t-58 89t-21 114q0 61 21 113t58 89t88.5 58t113.5 21q58 0 109.5 -21t89.5 -58t60 -89t22 -113v-27h-486v-112q31 -49 84.5 -77t120.5 -28q72 0 114 17.5t73 49.5zM321 514q-67 0 -120.5 -28t-84.5 -77
v-127h410v123q-32 50 -86.5 79.5t-118.5 29.5z" />
    <glyph glyph-name="LeftArrow" unicode="&#x2190;" horiz-adv-x="804" 
d="M358 602l50 -51l-227 -226h577v-71h-575l225 -220l-50 -57l-312 313z" />
    <glyph glyph-name="UpArrow" unicode="&#x2191;" horiz-adv-x="716" 
d="M670 400l-50 -50l-224 224v-574h-76v574l-224 -224l-50 50l312 312z" />
    <glyph glyph-name="RightArrow" unicode="&#x2192;" horiz-adv-x="804" 
d="M46 325h577l-227 226l50 51l312 -312l-312 -313l-50 57l225 220h-575v71z" />
    <glyph glyph-name="DownwArrow" unicode="&#x2193;" horiz-adv-x="716" 
d="M396 701v-574l224 224l50 -50l-312 -312l-312 312l50 50l224 -224v574h76z" />
    <glyph glyph-name="NorthWestArrow" unicode="&#x2196;" horiz-adv-x="669" 
d="M521 521v-72h-316l404 -405l-52 -53l-405 405v-316h-72v441h441z" />
    <glyph glyph-name="NorthEastArrow" unicode="&#x2197;" horiz-adv-x="669" 
d="M60 44l404 405h-316v72h441v-441h-72v316l-405 -405z" />
    <glyph glyph-name="SouthEastArrow" unicode="&#x2198;" horiz-adv-x="669" 
d="M182 0v72h316l-404 405l52 53l405 -405v316h72v-441h-441z" />
    <glyph glyph-name="SouthWestArrow" unicode="&#x2199;" horiz-adv-x="669" 
d="M609 477l-404 -405h316v-72h-441v441h72v-316l405 405z" />
    <glyph glyph-name="partialdiff" unicode="&#x2202;" horiz-adv-x="587" 
d="M280 -11q-40 0 -80 15.5t-71.5 45t-51.5 73t-20 99.5q0 54 19.5 97t50.5 73t71.5 46t81.5 16q51 0 100.5 -24.5t77.5 -76.5q5 131 -46 209.5t-144 78.5q-47 0 -82.5 -21.5t-57.5 -52.5l-53 55q30 37 78.5 63.5t114.5 26.5q65 0 114 -25.5t82 -72t49.5 -112.5t16.5 -145
q0 -83 -18 -151t-50 -116t-78.5 -74.5t-103.5 -26.5zM286 382q-28 0 -55.5 -10.5t-49 -31t-35 -50.5t-13.5 -68q0 -41 12.5 -72t32.5 -50.5t46 -29.5t52 -10q66 0 108 48.5t42 120.5q0 65 -40 109t-100 44z" />
    <glyph glyph-name="Delta" unicode="&#x2206;" horiz-adv-x="700" 
d="M80 65l238 635h64l238 -635v-65h-540v65zM546 71l-196 529l-196 -529h392z" />
    <glyph glyph-name="product" unicode="&#x220f;" horiz-adv-x="641" 
d="M555 -194h-71v826h-328v-826h-71v894h470v-894z" />
    <glyph glyph-name="summation" unicode="&#x2211;" horiz-adv-x="519" 
d="M462 629h-325l220 -375l-220 -377h325v-71h-411v65l221 383l-221 381v65h411v-71z" />
    <glyph glyph-name="minus" unicode="&#x2212;" horiz-adv-x="630" 
d="M70 280h490v-68h-490v68z" />
    <glyph glyph-name="radical" unicode="&#x221a;" horiz-adv-x="697" 
d="M46 422v68h159l147 -399l227 609h74l-262 -700h-76l-160 422h-109z" />
    <glyph glyph-name="infinity" unicode="&#x221e;" horiz-adv-x="1145" 
d="M572 308q74 101 132.5 147.5t132.5 46.5q49 0 92.5 -20.5t76 -55t51.5 -81.5t19 -100t-19 -99.5t-51.5 -81t-76 -55t-92.5 -20.5q-74 0 -132.5 46t-132.5 147q-74 -101 -132 -147t-132 -46q-49 0 -92.5 20.5t-76 55t-52 81t-19.5 99.5t19.5 100t52 81.5t76 55t92.5 20.5
q74 0 132 -46t132 -148zM308 431q-35 0 -65.5 -14.5t-53 -39.5t-35.5 -59t-13 -73t13 -73t35.5 -59t53 -39.5t65.5 -14.5q28 0 51.5 10t48.5 32t54.5 57.5t69.5 86.5q-40 51 -69.5 86.5t-54.5 57.5t-48.5 32t-51.5 10zM613 244q39 -51 68.5 -86.5t54.5 -57t49 -31.5t52 -10
q34 0 64.5 14.5t53 39.5t35.5 59t13 73t-13 73t-35.5 59t-53 39.5t-64.5 14.5q-28 0 -52 -10t-49 -32t-54.5 -58t-68.5 -87z" />
    <glyph glyph-name="integral" unicode="&#x222b;" horiz-adv-x="348" 
d="M137 -31v569q0 93 44.5 133.5t127.5 40.5q13 0 26 -0.5l13 -0.5v-68l-15 0.5t-23 0.5q-56 0 -77.5 -26.5t-21.5 -79.5v-569q0 -93 -45 -133.5t-127 -40.5q-13 0 -26 0.5l-13 0.5v69l14.5 -1t23.5 -1q56 0 77.5 26.5t21.5 79.5z" />
    <glyph glyph-name="approxequal" unicode="&#x2248;" horiz-adv-x="653" 
d="M510 429h63q4 -61 -24.5 -102t-79.5 -41q-18 0 -38 5t-40 12l-137 48q-11 4 -27.5 8.5t-29.5 4.5q-28 0 -40 -21t-12 -51h-62q-4 61 24.5 101.5t79.5 40.5q17 0 37.5 -5t40.5 -12l137 -48q11 -4 27.5 -8t29.5 -4q28 0 39.5 21t11.5 51zM510 236h63q4 -61 -24.5 -102
t-79.5 -41q-18 0 -38 5.5t-40 12.5l-137 47q-11 4 -27.5 8.5t-29.5 4.5q-28 0 -40 -21t-12 -51h-62q-4 61 24.5 102t79.5 41q17 0 37.5 -5t40.5 -12l137 -48q11 -4 27.5 -8.5t29.5 -4.5q28 0 39.5 21t11.5 51z" />
    <glyph glyph-name="notequal" unicode="&#x2260;" horiz-adv-x="650" 
d="M323 319h-243v69h285l70 113h79l-69 -113h125v-69h-168l-70 -114h238v-68h-280l-77 -126h-80l77 126h-130v68h172z" />
    <glyph glyph-name="lessequal" unicode="&#x2264;" horiz-adv-x="605" 
d="M537 80l-491 175v71l491 176v-78l-391 -133l391 -134v-77zM537 -68h-490v68h490v-68z" />
    <glyph glyph-name="greaterequal" unicode="&#x2265;" horiz-adv-x="605" 
d="M68 502l492 -176v-71l-492 -175v77l391 134l-391 133v78zM559 -68h-490v68h490v-68z" />
    <glyph glyph-name="BlackSquare" unicode="&#x25a0;" horiz-adv-x="651" 
d="M80 137v491h491v-491h-491z" />
    <glyph glyph-name="UpTriangle" unicode="&#x25b2;" horiz-adv-x="760" 
d="M40 80l340 540l340 -540h-680z" />
    <glyph glyph-name="RightTriangle" unicode="&#x25ba;" horiz-adv-x="660" 
d="M620 350l-540 -340v680z" />
    <glyph glyph-name="DownTriangle" unicode="&#x25bc;" horiz-adv-x="760" 
d="M380 80l-340 540h680z" />
    <glyph glyph-name="LeftTriangle" unicode="&#x25c0;" horiz-adv-x="660" 
d="M580 10l-540 340l540 340v-680z" />
    <glyph glyph-name="Diamond" unicode="&#x25c6;" horiz-adv-x="718" 
d="M40 385l319 319l319 -319l-319 -319z" />
    <glyph glyph-name="lozenge" unicode="&#x25ca;" horiz-adv-x="650" 
d="M68 247l225 453h64l224 -453l-224 -452h-64zM325 610l-179 -363l179 -362l179 362z" />
    <glyph glyph-name="BlackCircle" unicode="&#x25cf;" horiz-adv-x="630" 
d="M315 75q-57 0 -107 21.5t-87.5 59t-59 87.5t-21.5 107q0 56 21.5 106.5t59 87.5t87.5 59t107 22q56 0 106.5 -22t87.5 -59t59 -87.5t22 -106.5q0 -57 -22 -107t-59 -87.5t-87.5 -59t-106.5 -21.5z" />
    <glyph glyph-name="HeavyBlackHeart" unicode="&#x2764;" horiz-adv-x="646" 
d="M461 626q25 0 52.5 -7.5t50.5 -25t37.5 -48t14.5 -75.5q0 -58 -36 -98t-84.5 -80.5t-97.5 -90.5t-75 -127h-1q-25 77 -74 127t-97.5 90.5t-84.5 80.5t-36 98q0 45 14.5 75.5t37 48t50 25t53.5 7.5q32 0 55 -10t38 -25t24 -33.5t13 -35.5h15q4 17 13 35.5t24.5 33.5
t38.5 25t55 10z" />
    <glyph glyph-name="i.TRK" horiz-adv-x="250" 
d="M162 0h-74v490h74v-490zM69 657q0 22 16.5 38.5t39.5 16.5t39.5 -16.5t16.5 -38.5q0 -23 -16.5 -39.5t-39.5 -16.5t-39.5 16.5t-16.5 39.5z" />
    <glyph glyph-name="a.ordn" horiz-adv-x="403" 
d="M171 334q-54 0 -91.5 29t-37.5 81q0 54 39.5 82.5t99.5 28.5q40 0 70.5 -8.5t31.5 -8.5v35q0 41 -26 61.5t-68 20.5q-20 0 -36.5 -6t-28 -14t-18 -15t-7.5 -8l-43 38q2 3 12 12.5t27 20.5t41.5 19.5t54.5 8.5q69 0 112.5 -34t43.5 -106v-229h-62v38q-22 -23 -51 -34.5
t-63 -11.5zM106 445q0 -27 20 -41.5t52 -14.5q31 0 58 13.5t47 38.5v45q-1 0 -30 8t-66 8q-40 0 -60.5 -16.5t-20.5 -40.5z" />
    <glyph glyph-name="d.ordn" horiz-adv-x="467" 
d="M42 522q0 39 13 73.5t36.5 60t56.5 40.5t72 15q38 0 69.5 -14t53.5 -39v199h64v-515h-62v46q-23 -25 -55 -39.5t-70 -14.5q-39 0 -72 14.5t-56.5 40t-36.5 60t-13 73.5zM345 522q0 56 -32.5 94t-86.5 38t-86.5 -38t-32.5 -94q0 -55 32.5 -93.5t86.5 -38.5t86.5 38.5
t32.5 93.5z" />
    <glyph glyph-name="e.ordn" horiz-adv-x="429" 
d="M386 504h-279q4 -52 36.5 -82.5t85.5 -30.5q33 0 59.5 13t46.5 38l44 -38q-25 -30 -61.5 -50t-87.5 -20q-86 0 -137 52t-51 134q0 39 12 74t34.5 61t55 41t73.5 15q46 0 78 -16.5t52.5 -42.5t30 -58.5t9.5 -63.5q0 -10 -0.5 -18zM218 655q-48 0 -74.5 -29t-33.5 -71h211
q-3 44 -31 72t-72 28z" />
    <glyph glyph-name="g.ordn" horiz-adv-x="460" 
d="M335 367v34q-22 -28 -53 -39.5t-67 -11.5q-72 0 -122.5 51t-50.5 129q0 79 50.5 130t122.5 51q36 0 67 -12t54 -40v44h63v-331q0 -81 -49.5 -131t-133.5 -50q-37 0 -65 9.5t-47 22t-31 26t-18 21.5l46 43q10 -18 37 -42t77 -24q58 0 89 34.5t31 85.5zM336 530
q0 55 -33 89.5t-82 34.5t-81 -34.5t-32 -89.5q0 -54 32 -88.5t81 -34.5t82 34.5t33 88.5z" />
    <glyph glyph-name="l.ordn" horiz-adv-x="184" 
d="M60 342v515h64v-515h-64z" />
    <glyph glyph-name="m.ordn" horiz-adv-x="662" 
d="M124 539v-197h-64v361h63v-42q15 19 43 34.5t63 15.5q38 0 66.5 -15t45.5 -42q20 27 50.5 42t67.5 15q75 0 111 -41.5t36 -117.5v-210h-64v213q0 48 -21 74t-63 26q-45 0 -69 -30.5t-24 -84.5v-198h-64v210q0 51 -21.5 77t-60.5 26q-46 0 -70.5 -31t-24.5 -85z" />
    <glyph glyph-name="o.ordn" horiz-adv-x="468" 
d="M42 522q0 39 14.5 73.5t40 60t60.5 40.5t76 15t76.5 -15t61 -40.5t40.5 -60t15 -73.5t-15 -73.5t-40.5 -59.5t-61 -40t-76.5 -15t-76 15t-60.5 40t-40 59.5t-14.5 73.5zM107 522q0 -55 35.5 -93t90.5 -38q56 0 91.5 38t35.5 93q0 56 -35.5 94t-91.5 38q-55 0 -90.5 -38
t-35.5 -94z" />
    <glyph glyph-name="r.ordn" horiz-adv-x="294" 
d="M261 707v-59l-5 0.5t-9 0.5q-63 0 -93 -35t-30 -119v-153h-64v361h63v-46q24 28 52 39.5t67 11.5h8t11 -1z" />
    <glyph glyph-name="s.ordn" horiz-adv-x="378" 
d="M220 488l-56 13q-54 12 -81.5 38.5t-27.5 66.5q0 25 11.5 45t29.5 33t42.5 20t49.5 7q41 0 75.5 -15.5t62.5 -42.5l-42 -42q-14 13 -38.5 29t-61.5 16q-29 0 -47 -13.5t-18 -33.5q0 -18 12.5 -30.5t39.5 -18.5l59 -13q50 -11 79 -36t29 -68q0 -48 -39 -78.5t-105 -30.5
q-52 0 -92.5 21t-61.5 47l41 41q22 -25 52 -39.5t62 -14.5q37 0 58 13.5t21 37.5q0 16 -13 29t-41 19z" />
    <glyph glyph-name="t.ordn" horiz-adv-x="268" 
d="M190 341q-55 0 -84 25t-29 85v195h-60v57h60v100h64v-100h88v-57h-88v-187q0 -32 11.5 -47t45.5 -15h31v-55l-11.5 -0.5t-27.5 -0.5z" />
    <glyph glyph-name="caron.alt" horiz-adv-x="283" 
d="M213 700l-59 -189h-55l27 189h87z" />
    <glyph glyph-name="revcommaaccent" horiz-adv-x="545" 
d="M254 700h59l-47 -137h-83z" />
    <glyph glyph-name="grave.cap" horiz-adv-x="608" 
d="M291 769l-109 103h103l91 -103h-85z" />
    <glyph glyph-name="acute.cap" horiz-adv-x="608" 
d="M245 769l91 103h103l-108 -103h-86z" />
    <glyph glyph-name="circumflex.cap" horiz-adv-x="608" 
d="M168 769l96 103h97l97 -103h-80l-65 62l-66 -62h-79z" />
    <glyph glyph-name="caron.cap" horiz-adv-x="608" 
d="M458 872l-97 -103h-97l-96 103h79l66 -62l65 62h80z" />
    <glyph glyph-name="tilde.cap" horiz-adv-x="472" 
d="M315 872h57q0 -49 -21 -76t-54 -27q-13 0 -24 3.5t-18 6.5l-30 12q-11 4 -19 7t-19 3q-15 0 -22 -9.5t-8 -22.5h-57q0 49 20.5 76t54.5 27q13 0 24 -3t18 -6l30 -13q11 -4 18.5 -7t18.5 -3q16 0 23 9.5t8 22.5z" />
    <glyph glyph-name="dieresis.cap" horiz-adv-x="556" 
d="M132 820q0 22 14.5 37t36.5 15t37 -15t15 -37t-15 -36.5t-37 -14.5t-36.5 14.5t-14.5 36.5zM313 820q0 22 14.5 37t36.5 15t37 -15t15 -37t-15 -36.5t-37 -14.5t-36.5 14.5t-14.5 36.5z" />
    <glyph glyph-name="macron.cap" horiz-adv-x="528" 
d="M150 787v68h228v-68h-228z" />
    <glyph glyph-name="breve.cap" horiz-adv-x="556" 
d="M280 759q-55 0 -87.5 32t-36.5 81h66q3 -23 18 -36.5t40 -13.5t40 13.5t18 36.5h67q-4 -49 -36.5 -81t-88.5 -32z" />
    <glyph glyph-name="ring.cap" horiz-adv-x="690" 
d="M255 777q0 40 26.5 64.5t60.5 24.5q37 0 63.5 -24.5t26.5 -64.5q0 -35 -26 -61t-64 -26q-35 0 -61 26t-26 61zM310 777q0 -14 10 -23.5t24 -9.5t23.5 9.5t9.5 23.5q0 15 -9.5 24.5t-23.5 9.5t-24 -9.5t-10 -24.5z" />
    <glyph glyph-name="hungarumlaut.cap" horiz-adv-x="556" 
d="M140 769l81 103h97l-104 -103h-74zM305 769l81 103h97l-104 -103h-74z" />
    <glyph glyph-name="dotaccent.cap" horiz-adv-x="249" 
d="M124 764q-23 0 -39.5 16.5t-16.5 39.5t16.5 39.5t39.5 16.5t39.5 -16.5t16.5 -39.5t-16.5 -39.5t-39.5 -16.5z" />
    <glyph glyph-name="cedilla.cap" horiz-adv-x="500" 
d="M313 11l5 -10l-60 -138h-80l71 148h64z" />
    <glyph glyph-name="ogonek.cap" horiz-adv-x="500" 
d="M317 -125v-55q-6 -1 -15.5 -2.5t-20.5 -1.5q-47 0 -73 21.5t-26 59.5q0 33 20 61.5t49 46.5l66 -5q-39 -30 -52 -48.5t-13 -35.5q0 -18 13 -29.5t47 -11.5h5z" />
    <glyph glyph-name="commaaccent.cap" horiz-adv-x="500" 
d="M244 -194h-59l47 137h83z" />
    <glyph glyph-name="hyphen.cap" horiz-adv-x="308" 
d="M278 316h-248v68h248v-68z" />
    <glyph glyph-name="exclamdown.cap" horiz-adv-x="291" 
d="M107 491h76v-491h-76v491zM91 659q0 22 16 37.5t38 15.5q23 0 38.5 -15.5t15.5 -37.5q0 -23 -15.5 -39t-38.5 -16q-22 0 -38 16t-16 39z" />
    <glyph glyph-name="questiondown.cap" horiz-adv-x="546" 
d="M268 393v97h77v-161l-25 -1q-88 -4 -131.5 -46t-43.5 -96q0 -55 39.5 -90.5t99.5 -35.5t104.5 30t72.5 79l51 -56q-37 -54 -95 -89t-133 -35q-46 0 -85.5 14t-68.5 39t-45.5 61t-16.5 80q0 77 52 135.5t148 74.5zM366 653q0 -25 -17 -42.5t-42 -17.5q-26 0 -43.5 17.5
t-17.5 42.5t17.5 42t43.5 17q25 0 42 -17t17 -42z" />
    <glyph glyph-name="guilsinglleft.cap" horiz-adv-x="321" 
d="M171 105l-137 245l137 245h82l-139 -245l139 -245h-82z" />
    <glyph glyph-name="guilsinglright.cap" horiz-adv-x="321" 
d="M150 595l137 -245l-137 -245h-82l139 245l-139 245h82z" />
    <glyph glyph-name="guillemotleft.cap" horiz-adv-x="543" 
d="M171 105l-137 245l137 245h82l-139 -245l139 -245h-82zM393 105l-137 245l137 245h82l-139 -245l139 -245h-82z" />
    <glyph glyph-name="guillemotright.cap" horiz-adv-x="544" 
d="M68 595h82l137 -245l-137 -245h-82l139 245zM291 595h82l137 -245l-137 -245h-82l139 245z" />
    <glyph glyph-name="slash.cap" horiz-adv-x="394" 
d="M89 0h-79l295 700h79z" />
    <glyph glyph-name="backslash.cap" horiz-adv-x="394" 
d="M384 0h-79l-295 700h79z" />
    <glyph glyph-name="endash.cap" horiz-adv-x="576" 
d="M502 317h-422v68h422v-68z" />
    <glyph glyph-name="emdash.cap" horiz-adv-x="855" 
d="M781 316h-701v68h701v-68z" />
    <glyph glyph-name="periodcentered.cap" horiz-adv-x="372" 
d="M123 350q0 25 17 43t42 18q26 0 43.5 -18t17.5 -43t-17.5 -41.5t-43.5 -16.5q-25 0 -42 16.5t-17 41.5z" />
    <glyph glyph-name="parenleft.cap" horiz-adv-x="360" 
d="M157 351q0 -119 43.5 -220.5t136.5 -195.5l-53 -49q-39 38 -76 86t-65.5 105t-45.5 126t-17 148t17 147.5t45.5 126t65.5 105.5t76 86l53 -49q-93 -95 -136.5 -196t-43.5 -220z" />
    <glyph glyph-name="parenright.cap" horiz-adv-x="360" 
d="M203 350q0 119 -43.5 220.5t-136.5 195.5l53 49q39 -38 76 -86t65.5 -105t45.5 -126t17 -148t-17 -147.5t-45.5 -126t-65.5 -105.5t-76 -86l-53 49q93 95 136.5 196t43.5 220z" />
    <glyph glyph-name="bracketleft.cap" horiz-adv-x="361" 
d="M327 -97h-236v894h236v-72h-159v-750h159v-72z" />
    <glyph glyph-name="bracketright.cap" horiz-adv-x="361" 
d="M34 797h236v-894h-236v72h159v750h-159v72z" />
    <glyph glyph-name="braceleft.cap" horiz-adv-x="417" 
d="M225 634v-567q0 -53 26.5 -72.5t60.5 -19.5h71v-72h-84q-41 0 -70 13t-47 35t-26 51t-8 61v252h-114v72h114v250q0 32 8 61t26 51t47 35t70 13h84v-71h-71q-34 0 -60.5 -19t-26.5 -73z" />
    <glyph glyph-name="braceright.cap" horiz-adv-x="417" 
d="M192 67v567q0 54 -26.5 73t-60.5 19h-71v71h84q41 0 70 -13t47 -35t26 -51t8 -61v-250h114v-72h-114v-252q0 -32 -8 -61t-26 -51t-47 -35t-70 -13h-84v72h71q34 0 60.5 19.5t26.5 72.5z" />
    <glyph glyph-name="numero_s" horiz-adv-x="1528" 
d="M554 0h79v700h-77v-569l-398 569h-78v-700h76v567zM732 522q0 39 14.5 73.5t40 60t60.5 40.5t76 15t76.5 -15t61 -40.5t40.5 -60t15 -73.5t-15 -73.5t-40.5 -59.5t-61 -40t-76.5 -15t-76 15t-60.5 40t-40 59.5t-14.5 73.5zM797 522q0 -55 35.5 -93t90.5 -38q56 0 91.5 38
t35.5 93q0 56 -35.5 94t-91.5 38q-55 0 -90.5 -38t-35.5 -94zM1370 488l-56 13q-54 12 -81.5 38.5t-27.5 66.5q0 25 11.5 45t29.5 33t42.5 20t49.5 7q41 0 75.5 -15.5t62.5 -42.5l-42 -42q-14 13 -38.5 29t-61.5 16q-29 0 -47 -13.5t-18 -33.5q0 -18 12.5 -30.5t39.5 -18.5
l59 -13q50 -11 79 -36t29 -68q0 -48 -39 -78.5t-105 -30.5q-52 0 -92.5 21t-61.5 47l41 41q22 -25 52 -39.5t62 -14.5q37 0 58 13.5t21 37.5q0 16 -13 29t-41 19z" />
    <glyph glyph-name="numeroLC" horiz-adv-x="978" 
d="M552 522q0 39 14.5 73.5t40 60t60.5 40.5t76 15t76.5 -15t61 -40.5t40.5 -60t15 -73.5t-15 -73.5t-40.5 -59.5t-61 -40t-76.5 -15t-76 15t-60.5 40t-40 59.5t-14.5 73.5zM617 522q0 -55 35.5 -93t90.5 -38q56 0 91.5 38t35.5 93q0 56 -35.5 94t-91.5 38q-55 0 -90.5 -38
t-35.5 -94zM152 490h-72v-490h74v243q0 86 37.5 138t110.5 52q58 0 91.5 -36.5t33.5 -105.5v-291h75v285q0 104 -51 160.5t-144 56.5q-47 0 -88.5 -20.5t-66.5 -51.5v60z" />
    <glyph glyph-name="numeroLC_s" horiz-adv-x="1348" 
d="M152 490h-72v-490h74v243q0 86 37.5 138t110.5 52q58 0 91.5 -36.5t33.5 -105.5v-291h75v285q0 104 -51 160.5t-144 56.5q-47 0 -88.5 -20.5t-66.5 -51.5v60zM552 522q0 39 14.5 73.5t40 60t60.5 40.5t76 15t76.5 -15t61 -40.5t40.5 -60t15 -73.5t-15 -73.5t-40.5 -59.5
t-61 -40t-76.5 -15t-76 15t-60.5 40t-40 59.5t-14.5 73.5zM617 522q0 -55 35.5 -93t90.5 -38q56 0 91.5 38t35.5 93q0 56 -35.5 94t-91.5 38q-55 0 -90.5 -38t-35.5 -94zM1190 488l-56 13q-54 12 -81.5 38.5t-27.5 66.5q0 25 11.5 45t29.5 33t42.5 20t49.5 7
q41 0 75.5 -15.5t62.5 -42.5l-42 -42q-14 13 -38.5 29t-61.5 16q-29 0 -47 -13.5t-18 -33.5q0 -18 12.5 -30.5t39.5 -18.5l59 -13q50 -11 79 -36t29 -68q0 -48 -39 -78.5t-105 -30.5q-52 0 -92.5 21t-61.5 47l41 41q22 -25 52 -39.5t62 -14.5q37 0 58 13.5t21 37.5
q0 16 -13 29t-41 19z" />
    <glyph glyph-name="zero.osf" horiz-adv-x="690" 
d="M621 274q0 -62 -22 -114.5t-60 -90t-89 -59t-108 -21.5t-107.5 21.5t-87 59t-58 90t-21.5 114.5q0 61 21.5 113.5t58 90.5t87 59.5t107.5 21.5t108 -21.5t89 -59.5t60 -90.5t22 -113.5zM545 274q0 46 -16.5 85t-44 67.5t-64.5 44.5t-78 16q-42 0 -78.5 -16t-62.5 -44.5
t-41 -67.5t-15 -85t15 -85t41 -67.5t62.5 -45t78.5 -16.5q41 0 78 16.5t64.5 45t44 67.5t16.5 85z" />
    <glyph glyph-name="one.osf" horiz-adv-x="510" 
d="M63 0v72h166v361q-29 -23 -72 -36.5t-94 -13.5v68q52 2 102.5 23.5t75.5 72.5h65v-475h158v-72h-401z" />
    <glyph glyph-name="two.osf" horiz-adv-x="560" 
d="M149 72h339v-72h-420v23q0 102 46.5 156.5t154.5 92.5l35 13q55 19 82.5 43.5t27.5 67.5q0 39 -32 65t-90 26q-63 0 -103.5 -33.5t-62.5 -82.5l-52 52q28 61 83 98.5t130 37.5q43 0 80.5 -11t64.5 -32.5t43 -53t16 -72.5q0 -69 -43 -107.5t-103 -60.5l-55 -20
q-69 -25 -103 -52t-38 -78z" />
    <glyph glyph-name="three.osf" horiz-adv-x="569" 
d="M384 213q44 -18 80 -61t36 -110q0 -51 -19 -90t-50.5 -64.5t-73.5 -38.5t-88 -13q-62 0 -125.5 26t-103.5 75l52 52q34 -38 78 -60t104 -22q29 0 56.5 8t48 24t33 41.5t12.5 60.5q0 34 -14 58t-37.5 39t-55 22t-65.5 7h-53v73h42q73 0 119.5 34t46.5 97q0 32 -13.5 54.5
t-33.5 36.5t-44.5 20t-45.5 6q-50 0 -90.5 -20.5t-71.5 -55.5l-51 52q40 44 94.5 69.5t114.5 25.5q40 0 79 -11.5t69.5 -35t49.5 -59.5t19 -83q0 -31 -10.5 -57.5t-25.5 -46.5t-32 -33.5t-31 -19.5z" />
    <glyph glyph-name="four.osf" horiz-adv-x="583" 
d="M537 72v-72h-97v-153h-76v153h-324v66l329 481h71v-475h97zM364 417l-237 -345h237v345z" />
    <glyph glyph-name="five.osf" horiz-adv-x="552" 
d="M447 65q0 75 -46.5 115t-112.5 40q-46 0 -84.5 -23.5t-54.5 -53.5h-69l17 404h374v-72h-305l-11 -236q19 21 56.5 37t86.5 16q44 0 84.5 -14.5t71.5 -43t50 -71t19 -98.5q0 -45 -17 -86.5t-48.5 -73t-78 -50.5t-104.5 -19q-68 0 -123 29t-95 78l54 53q31 -39 72 -64
t96 -25q34 0 64.5 11t53.5 31.5t36.5 49.5t13.5 66z" />
    <glyph glyph-name="six.osf" horiz-adv-x="616" 
d="M329 -11q-59 0 -106 26.5t-80 74.5t-51 116t-18 151q0 79 18 145t52 112.5t83 72t109 25.5q66 0 114.5 -26.5t78.5 -63.5l-52 -55q-22 31 -58 52.5t-83 21.5q-43 0 -79 -21.5t-61.5 -60t-39 -92.5t-10.5 -119q29 54 81 80t102 26q44 0 85.5 -16t73.5 -46t51.5 -73
t19.5 -97q0 -56 -20.5 -99.5t-52.5 -73t-73.5 -45t-83.5 -15.5zM329 382q-29 0 -56.5 -11t-48.5 -31.5t-33.5 -50t-12.5 -66.5q0 -68 45 -115.5t111 -47.5q26 0 53 10t48 29.5t34 50.5t13 72q0 38 -12.5 68t-34 50.5t-49 31t-57.5 10.5z" />
    <glyph glyph-name="seven.osf" horiz-adv-x="535" 
d="M117 333h-71v214h454v-66q-111 -133 -172 -280.5t-75 -313.5l-3 -40h-77l4 39q7 83 25.5 165t47.5 158t68.5 144t88.5 122h-290v-142z" />
    <glyph glyph-name="eight.osf" horiz-adv-x="554" 
d="M277 -11q-46 0 -87 14t-72 40t-49 63.5t-18 83.5q0 35 13 64.5t31.5 51.5t39.5 36.5t38 18.5q-13 6 -31.5 18.5t-34.5 31.5t-27.5 45.5t-11.5 60.5q0 46 18 82.5t47 61.5t66.5 38t77.5 13t77.5 -13t66.5 -38t47 -61.5t18 -82.5q0 -34 -11.5 -60.5t-27.5 -45.5
t-34.5 -31.5t-31.5 -18.5q17 -4 38 -18.5t39.5 -36.5t31.5 -51.5t13 -64.5q0 -46 -18 -83.5t-49 -63.5t-72 -40t-87 -14zM277 322q-63 0 -106 -34.5t-43 -96.5q0 -63 44.5 -97t104.5 -34t104.5 34t44.5 97q0 62 -44 96.5t-105 34.5zM277 641q-21 0 -44.5 -7t-43 -22t-32 -39
t-12.5 -57q0 -58 38.5 -90t93.5 -32q54 0 93 32t39 90q0 33 -12.5 57t-32 39t-43 22t-44.5 7z" />
    <glyph glyph-name="nine.osf" horiz-adv-x="598" 
d="M286 559q57 0 104 -26.5t80.5 -74t52 -116t18.5 -151.5q0 -79 -16.5 -145t-49 -112.5t-82 -72t-114.5 -25.5t-113.5 26.5t-78.5 63.5l52 56q22 -32 58 -53.5t82 -21.5q47 0 84 21.5t61.5 60t36.5 92.5t9 119q-30 -56 -82 -81t-102 -25q-44 0 -85.5 16t-73 46t-51 73
t-19.5 97q0 56 20 99.5t52.5 73t73.5 45t83 15.5zM286 166q64 0 108 44t44 109q0 72 -45 120.5t-111 48.5q-28 0 -55 -9.5t-48 -29.5t-33.5 -50.5t-12.5 -72.5q0 -38 13.5 -68t35 -50.5t49 -31t55.5 -10.5z" />
    <glyph glyph-name="Euro.osf" horiz-adv-x="700" 
d="M135 239h-78v69h68q-1 10 -1 21v21v18.5t1 19.5h-68v68h78q11 53 34 99.5t57.5 81t82 55t106.5 20.5q80 0 130 -33t81 -76l-50 -52q-30 46 -70.5 68t-90.5 22q-43 0 -76.5 -15t-57.5 -40t-40.5 -58.5t-25.5 -71.5h241v-68h-251q-1 -10 -1 -19.5v-18.5v-21t1 -21h251v-69
h-240q17 -75 64.5 -127t133.5 -52q50 0 93.5 21t79.5 65l49 -56q-48 -50 -102 -75.5t-120 -25.5q-61 0 -108.5 20t-81.5 54t-56 79.5t-33 96.5z" />
    <glyph glyph-name="dollar.osf" horiz-adv-x="650" 
d="M363 815v-106q63 -8 111 -37t83 -67l-51 -56q-24 28 -58.5 52.5t-84.5 34.5v-249l5 -1q98 -17 155.5 -66.5t57.5 -133.5q0 -76 -58.5 -131t-159.5 -64v-105h-71v105q-78 7 -139 42t-96 84l52 54q28 -39 72.5 -70t110.5 -39v260l-20 4q-38 7 -74 21.5t-63.5 38t-44 56.5
t-16.5 76t18 77.5t48 59t69.5 39t82.5 17.5v104h71zM505 185q0 54 -40 84t-102 41v-249q60 6 101 38t41 86zM150 521q0 -55 40 -83.5t102 -38.5v241q-61 -4 -101.5 -37t-40.5 -82z" />
    <glyph glyph-name="cent.osf" horiz-adv-x="545" 
d="M448 130l51 -47q-29 -35 -70.5 -60.5t-96.5 -31.5v-105h-74v107q-44 8 -81 30.5t-63.5 56t-41.5 76t-15 89.5q0 46 15 88.5t42 75.5t64 56t80 32v107h74v-104q48 -4 87 -26t70 -59l-50 -49q-22 26 -49 42.5t-58 21.5v-371q35 4 64 22.5t52 48.5zM133 245
q0 -66 32.5 -115.5t92.5 -65.5v361q-56 -16 -90.5 -65t-34.5 -115z" />
    <glyph glyph-name="sterling.osf" horiz-adv-x="620" 
d="M146 325h-83v68h68q-6 28 -9 54.5t-3 50.5q0 60 21 101t53 66t70 36t72 11q75 0 123 -32t79 -75l-53 -54q-23 34 -61 62t-88 28q-66 0 -103 -41t-37 -101q0 -25 3.5 -52.5t9.5 -53.5h199v-68h-184l55 -253h194v142h68v-214h-477v72h138z" />
    <glyph glyph-name="florin.osf" horiz-adv-x="365" 
d="M125 -31v453h-91v68h91v48q0 93 45 133.5t128 40.5q13 0 25.5 -0.5l12.5 -0.5v-68l-14.5 0.5t-22.5 0.5q-57 0 -78.5 -26.5t-21.5 -79.5v-48h126v-68h-126v-453q0 -93 -44.5 -133.5t-127.5 -40.5q-13 0 -25.5 0.5l-12.5 0.5v69l14.5 -1t22.5 -1q56 0 77.5 26.5t21.5 79.5
z" />
    <glyph glyph-name="yen.osf" horiz-adv-x="578" 
d="M356 363h161v-69h-190v-80h191v-68h-191v-146h-76v146h-189v68h189v80h-189v69h159l-198 337h84l183 -312l181 312h84z" />
    <glyph glyph-name="zero.to" 
d="M536 274q0 -62 -16 -114.5t-46 -90t-75 -59t-102 -21.5t-101 21.5t-73.5 59t-44.5 90t-15 114.5q0 61 15 113.5t44.5 90.5t73.5 59.5t101 21.5t102 -21.5t75 -59.5t46 -90.5t16 -113.5zM460 274q0 46 -10 85t-30.5 67.5t-51 44.5t-71.5 16q-42 0 -72 -16t-49 -44.5
t-27.5 -67.5t-8.5 -85t8.5 -85t27.5 -67.5t49 -45t72 -16.5q41 0 71.5 16.5t51 45t30.5 67.5t10 85z" />
    <glyph glyph-name="one.to" 
d="M99 0v72h166v361q-29 -23 -72 -36.5t-94 -13.5v68q52 2 102.5 23.5t75.5 72.5h65v-475h158v-72h-401z" />
    <glyph glyph-name="two.to" 
d="M169 72h339v-72h-420v23q0 102 46.5 156.5t154.5 92.5l35 13q55 19 82.5 43.5t27.5 67.5q0 39 -32 65t-90 26q-63 0 -103.5 -33.5t-62.5 -82.5l-52 52q28 61 83 98.5t130 37.5q43 0 80.5 -11t64.5 -32.5t43 -53t16 -72.5q0 -69 -43 -107.5t-103 -60.5l-55 -20
q-69 -25 -103 -52t-38 -78z" />
    <glyph glyph-name="three.to" 
d="M414 213q44 -18 80 -61t36 -110q0 -51 -19 -90t-50.5 -64.5t-73.5 -38.5t-88 -13q-62 0 -125.5 26t-103.5 75l52 52q34 -38 78 -60t104 -22q29 0 56.5 8t48 24t33 41.5t12.5 60.5q0 34 -14 58t-37.5 39t-55 22t-65.5 7h-53v73h42q73 0 119.5 34t46.5 97q0 32 -13.5 54.5
t-33.5 36.5t-44.5 20t-45.5 6q-50 0 -90.5 -20.5t-71.5 -55.5l-51 52q40 44 94.5 69.5t114.5 25.5q40 0 79 -11.5t69.5 -35t49.5 -59.5t19 -83q0 -31 -10.5 -57.5t-25.5 -46.5t-32 -33.5t-31 -19.5z" />
    <glyph glyph-name="four.to" 
d="M548 72v-72h-97v-153h-76v153h-324v66l329 481h71v-475h97zM375 417l-237 -345h237v345z" />
    <glyph glyph-name="five.to" 
d="M457 65q0 75 -46.5 115t-112.5 40q-46 0 -84.5 -23.5t-54.5 -53.5h-69l17 404h374v-72h-305l-11 -236q19 21 56.5 37t86.5 16q44 0 84.5 -14.5t71.5 -43t50 -71t19 -98.5q0 -45 -17 -86.5t-48.5 -73t-78 -50.5t-104.5 -19q-68 0 -123 29t-95 78l54 53q31 -39 72 -64
t96 -25q34 0 64.5 11t53.5 31.5t36.5 49.5t13.5 66z" />
    <glyph glyph-name="six.to" 
d="M312 -11q-59 0 -106 26.5t-80 74.5t-51 116t-18 151q0 79 18 145t52 112.5t83 72t109 25.5q66 0 114.5 -26.5t78.5 -63.5l-52 -55q-22 31 -58 52.5t-83 21.5q-43 0 -79 -21.5t-61.5 -60t-39 -92.5t-10.5 -119q29 54 81 80t102 26q44 0 85.5 -16t73.5 -46t51.5 -73
t19.5 -97q0 -56 -20.5 -99.5t-52.5 -73t-73.5 -45t-83.5 -15.5zM312 382q-29 0 -56.5 -11t-48.5 -31.5t-33.5 -50t-12.5 -66.5q0 -68 45 -115.5t111 -47.5q26 0 53 10t48 29.5t34 50.5t13 72q0 38 -12.5 68t-34 50.5t-49 31t-57.5 10.5z" />
    <glyph glyph-name="seven.to" 
d="M144 333h-71v214h454v-66q-111 -133 -172 -280.5t-75 -313.5l-3 -40h-77l4 39q7 83 25.5 165t47.5 158t68.5 144t88.5 122h-290v-142z" />
    <glyph glyph-name="eight.to" 
d="M300 -11q-46 0 -87 14t-72 40t-49 63.5t-18 83.5q0 35 13 64.5t31.5 51.5t39.5 36.5t38 18.5q-13 6 -31.5 18.5t-34.5 31.5t-27.5 45.5t-11.5 60.5q0 46 18 82.5t47 61.5t66.5 38t77.5 13t77.5 -13t66.5 -38t47 -61.5t18 -82.5q0 -34 -11.5 -60.5t-27.5 -45.5
t-34.5 -31.5t-31.5 -18.5q17 -4 38 -18.5t39.5 -36.5t31.5 -51.5t13 -64.5q0 -46 -18 -83.5t-49 -63.5t-72 -40t-87 -14zM300 322q-63 0 -106 -34.5t-43 -96.5q0 -63 44.5 -97t104.5 -34t104.5 34t44.5 97q0 62 -44 96.5t-105 34.5zM300 641q-21 0 -44.5 -7t-43 -22t-32 -39
t-12.5 -57q0 -58 38.5 -90t93.5 -32q54 0 93 32t39 90q0 33 -12.5 57t-32 39t-43 22t-44.5 7z" />
    <glyph glyph-name="nine.to" 
d="M287 559q57 0 104 -26.5t80.5 -74t52 -116t18.5 -151.5q0 -79 -16.5 -145t-49 -112.5t-82 -72t-114.5 -25.5t-113.5 26.5t-78.5 63.5l52 56q22 -32 58 -53.5t82 -21.5q47 0 84 21.5t61.5 60t36.5 92.5t9 119q-30 -56 -82 -81t-102 -25q-44 0 -85.5 16t-73 46t-51 73
t-19.5 97q0 56 20 99.5t52.5 73t73.5 45t83 15.5zM287 166q64 0 108 44t44 109q0 72 -45 120.5t-111 48.5q-28 0 -55 -9.5t-48 -29.5t-33.5 -50.5t-12.5 -72.5q0 -38 13.5 -68t35 -50.5t49 -31t55.5 -10.5z" />
    <glyph glyph-name="Euro.to" 
d="M35 239v69h60q-1 10 -1 21v21v18t1 19h-60v69h69q10 51 31 98t54.5 82t79.5 55.5t105 20.5q72 0 116 -33t75 -76l-50 -52q-30 46 -66 68t-83 22q-41 0 -72 -15.5t-53 -41.5t-36.5 -59.5t-22.5 -68.5h213v-69h-223q-1 -10 -1 -19v-18v-21t1 -21h223v-69h-214
q7 -36 20.5 -68.5t35.5 -57t53.5 -39t73.5 -14.5q47 0 84 22t67 68l50 -52q-13 -18 -30.5 -37.5t-42 -35.5t-56.5 -26t-75 -10q-60 0 -104.5 20.5t-75.5 54.5t-50 79.5t-28 95.5h-68z" />
    <glyph glyph-name="dollar.to" 
d="M268 -114v105q-78 7 -128 44.5t-81 81.5l52 54q23 -33 58.5 -66t98.5 -42v260l-14 3q-77 13 -126.5 62.5t-49.5 129.5q0 72 48.5 127t141.5 65v105h71v-105q67 -7 106.5 -38t70.5 -69l-50 -52q-21 25 -48.5 51.5t-78.5 35.5v-250l11 -2q90 -16 140.5 -65t50.5 -135
q0 -33 -12 -66t-36.5 -60t-62.5 -46t-91 -23v-105h-71zM340 311h-1v-249q63 7 94.5 41.5t31.5 81.5q0 55 -33.5 85.5t-91.5 40.5zM154 521q0 -50 28.5 -79.5t85.5 -41.5v239q-61 -7 -87.5 -40.5t-26.5 -77.5z" />
    <glyph glyph-name="cent.to" 
d="M470 130l51 -47q-29 -35 -70.5 -60.5t-96.5 -31.5v-105h-74v107q-44 8 -81 30.5t-63.5 56t-41.5 76t-15 89.5q0 46 15 88.5t42 75.5t64 56t80 32v107h74v-104q48 -4 87 -26t70 -59l-50 -49q-22 26 -49 42.5t-58 21.5v-371q35 4 64 22.5t52 48.5zM155 245
q0 -66 32.5 -115.5t92.5 -65.5v361q-56 -16 -90.5 -65t-34.5 -115z" />
    <glyph glyph-name="sterling.to" 
d="M61 325v68h68q-6 28 -9 54.5t-3 50.5q0 60 21 101t53 66t70 36t72 11q75 0 123 -32t79 -75l-53 -54q-23 34 -61 62t-88 28q-66 0 -103 -41t-37 -101q0 -25 3.5 -52.5t9.5 -53.5h199v-68h-184l55 -253h194v142h68v-214h-477v72h138l-55 253h-83z" />
    <glyph glyph-name="florin.to" 
d="M262 -31v453h-91v68h91v48q0 93 45 133.5t128 40.5q13 0 25.5 -0.5l12.5 -0.5v-68l-14.5 0.5t-22.5 0.5q-57 0 -78.5 -26.5t-21.5 -79.5v-48h126v-68h-126v-453q0 -93 -44.5 -133.5t-127.5 -40.5q-13 0 -25.5 0.5l-12.5 0.5v69l14.5 -1t22.5 -1q56 0 77.5 26.5t21.5 79.5
z" />
    <glyph glyph-name="yen.to" 
d="M73 145v69h189v79h-189v69h159l-198 338h84l183 -314l181 314h84l-198 -338h160v-69h-190v-79h190v-69h-190v-145h-76v145h-189z" />
    <glyph glyph-name="zero.tf" 
d="M449 350q0 65 -8.5 118.5t-26.5 92t-46.5 59.5t-67.5 21t-67.5 -21t-47 -59.5t-27 -92t-8.5 -118.5t8.5 -118.5t27 -91.5t47 -59t67.5 -21t67.5 21t46.5 59t26.5 91.5t8.5 118.5zM74 350q0 69 12 134.5t38.5 115.5t70 81t105.5 31t105.5 -30.5t70 -81t38.5 -116
t12 -134.5t-12 -134t-38.5 -115.5t-70 -81t-105.5 -30.5t-105.5 30.5t-70 81t-38.5 115.5t-12 134z" />
    <glyph glyph-name="one.tf" 
d="M88 0v72h178v514q-29 -23 -78 -36.5t-100 -13.5v68q26 1 55 6.5t54.5 17t47 29.5t33.5 43h65v-628h169v-72h-424z" />
    <glyph glyph-name="two.tf" 
d="M155 72h367v-72h-448v23q0 51 10 95.5t35 83.5t68.5 73.5t109.5 65.5l19 9q53 25 92.5 61t39.5 104q0 58 -42.5 92t-105.5 34q-34 0 -61.5 -11.5t-48.5 -30t-37 -42.5t-27 -50l-52 53q29 66 85 109t140 43q43 0 84 -12.5t72.5 -38t50.5 -65t19 -92.5q0 -73 -43.5 -124
t-124.5 -93l-56 -28q-66 -34 -104.5 -81.5t-41.5 -105.5z" />
    <glyph glyph-name="three.tf" 
d="M414 366q44 -18 80 -61t36 -110q0 -51 -19 -90t-50.5 -64.5t-73.5 -38.5t-88 -13q-62 0 -125.5 26t-103.5 75l52 52q34 -38 78 -60t104 -22q29 0 56.5 8t48 24t33 41.5t12.5 60.5q0 34 -14 58t-37.5 39t-55 22t-65.5 7h-53v73h42q73 0 119.5 34t46.5 97q0 32 -13.5 54.5
t-33.5 36.5t-44.5 20t-45.5 6q-50 0 -90.5 -20.5t-71.5 -55.5l-51 52q40 44 94.5 69.5t114.5 25.5q40 0 79 -11.5t69.5 -35t49.5 -59.5t19 -83q0 -31 -10.5 -57.5t-25.5 -46.5t-32 -33.5t-31 -19.5z" />
    <glyph glyph-name="four.tf" 
d="M548 249v-72h-97v-177h-76v177h-324v66l329 457h71v-451h97zM375 583l-243 -334h243v334z" />
    <glyph glyph-name="five.tf" 
d="M457 218q0 75 -46.5 115t-112.5 40q-46 0 -84.5 -23.5t-54.5 -53.5h-69l17 404h374v-72h-305l-11 -236q19 21 56.5 37t86.5 16q44 0 84.5 -14.5t71.5 -43t50 -71t19 -98.5q0 -45 -17 -86.5t-48.5 -73t-78 -50.5t-104.5 -19q-68 0 -123 29t-95 78l54 53q31 -39 72 -64
t96 -25q34 0 64.5 11t53.5 31.5t36.5 49.5t13.5 66z" />
    <glyph glyph-name="six.tf" 
d="M312 -11q-59 0 -106 26.5t-80 74.5t-51 116t-18 151q0 79 18 145t52 112.5t83 72t109 25.5q66 0 114.5 -26.5t78.5 -63.5l-52 -55q-22 31 -58 52.5t-83 21.5q-43 0 -79 -21.5t-61.5 -60t-39 -92.5t-10.5 -119q29 54 81 80t102 26q44 0 85.5 -16t73.5 -46t51.5 -73
t19.5 -97q0 -56 -20.5 -99.5t-52.5 -73t-73.5 -45t-83.5 -15.5zM312 382q-29 0 -56.5 -11t-48.5 -31.5t-33.5 -50t-12.5 -66.5q0 -68 45 -115.5t111 -47.5q26 0 53 10t48 29.5t34 50.5t13 72q0 38 -12.5 68t-34 50.5t-49 31t-57.5 10.5z" />
    <glyph glyph-name="seven.tf" 
d="M144 486h-71v214h454v-66q-111 -133 -172 -280.5t-75 -313.5l-3 -40h-77l4 39q7 83 25.5 165t47.5 158t68.5 144t88.5 122h-290v-142z" />
    <glyph glyph-name="eight.tf" 
d="M300 -11q-46 0 -87 14t-72 40t-49 63.5t-18 83.5q0 35 13 64.5t31.5 51.5t39.5 36.5t38 18.5q-13 6 -31.5 18.5t-34.5 31.5t-27.5 45.5t-11.5 60.5q0 46 18 82.5t47 61.5t66.5 38t77.5 13t77.5 -13t66.5 -38t47 -61.5t18 -82.5q0 -34 -11.5 -60.5t-27.5 -45.5
t-34.5 -31.5t-31.5 -18.5q17 -4 38 -18.5t39.5 -36.5t31.5 -51.5t13 -64.5q0 -46 -18 -83.5t-49 -63.5t-72 -40t-87 -14zM300 322q-63 0 -106 -34.5t-43 -96.5q0 -63 44.5 -97t104.5 -34t104.5 34t44.5 97q0 62 -44 96.5t-105 34.5zM300 641q-21 0 -44.5 -7t-43 -22t-32 -39
t-12.5 -57q0 -58 38.5 -90t93.5 -32q54 0 93 32t39 90q0 33 -12.5 57t-32 39t-43 22t-44.5 7z" />
    <glyph glyph-name="nine.tf" 
d="M287 712q57 0 104 -26.5t80.5 -74t52 -116t18.5 -151.5q0 -79 -16.5 -145t-49 -112.5t-82 -72t-114.5 -25.5t-113.5 26.5t-78.5 63.5l52 56q22 -32 58 -53.5t82 -21.5q47 0 84 21.5t61.5 60t36.5 92.5t9 119q-30 -56 -82 -81t-102 -25q-44 0 -85.5 16t-73 46t-51 73
t-19.5 97q0 56 20 99.5t52.5 73t73.5 45t83 15.5zM287 319q64 0 108 44t44 109q0 72 -45 120.5t-111 48.5q-28 0 -55 -9.5t-48 -29.5t-33.5 -50.5t-12.5 -72.5q0 -38 13.5 -68t35 -50.5t49 -31t55.5 -10.5z" />
    <glyph glyph-name="Euro.tf" 
d="M35 239v69h60q-1 10 -1 21v21v18t1 19h-60v69h69q10 51 31 98t54.5 82t79.5 55.5t105 20.5q72 0 116 -33t75 -76l-50 -52q-30 46 -66 68t-83 22q-41 0 -72 -15.5t-53 -41.5t-36.5 -59.5t-22.5 -68.5h213v-69h-223q-1 -10 -1 -19v-18v-21t1 -21h223v-69h-214
q7 -36 20.5 -68.5t35.5 -57t53.5 -39t73.5 -14.5q47 0 84 22t67 68l50 -52q-13 -18 -30.5 -37.5t-42 -35.5t-56.5 -26t-75 -10q-60 0 -104.5 20.5t-75.5 54.5t-50 79.5t-28 95.5h-68z" />
    <glyph glyph-name="dollar.tf" 
d="M268 -114v105q-78 7 -128 44.5t-81 81.5l52 54q23 -33 58.5 -66t98.5 -42v260l-14 3q-77 13 -126.5 62.5t-49.5 129.5q0 72 48.5 127t141.5 65v105h71v-105q67 -7 106.5 -38t70.5 -69l-50 -52q-21 25 -48.5 51.5t-78.5 35.5v-250l11 -2q90 -16 140.5 -65t50.5 -135
q0 -33 -12 -66t-36.5 -60t-62.5 -46t-91 -23v-105h-71zM340 311h-1v-249q63 7 94.5 41.5t31.5 81.5q0 55 -33.5 85.5t-91.5 40.5zM154 521q0 -50 28.5 -79.5t85.5 -41.5v239q-61 -7 -87.5 -40.5t-26.5 -77.5z" />
    <glyph glyph-name="cent.tf" 
d="M470 130l51 -47q-29 -35 -70.5 -60.5t-96.5 -31.5v-105h-74v107q-44 8 -81 30.5t-63.5 56t-41.5 76t-15 89.5q0 46 15 88.5t42 75.5t64 56t80 32v107h74v-104q48 -4 87 -26t70 -59l-50 -49q-22 26 -49 42.5t-58 21.5v-371q35 4 64 22.5t52 48.5zM155 245
q0 -66 32.5 -115.5t92.5 -65.5v361q-56 -16 -90.5 -65t-34.5 -115z" />
    <glyph glyph-name="sterling.tf" 
d="M61 325v68h68q-6 28 -9 54.5t-3 50.5q0 60 21 101t53 66t70 36t72 11q75 0 123 -32t79 -75l-53 -54q-23 34 -61 62t-88 28q-66 0 -103 -41t-37 -101q0 -25 3.5 -52.5t9.5 -53.5h199v-68h-184l55 -253h194v142h68v-214h-477v72h138l-55 253h-83z" />
    <glyph glyph-name="florin.tf" 
d="M262 -31v453h-91v68h91v48q0 93 45 133.5t128 40.5q13 0 25.5 -0.5l12.5 -0.5v-68l-14.5 0.5t-22.5 0.5q-57 0 -78.5 -26.5t-21.5 -79.5v-48h126v-68h-126v-453q0 -93 -44.5 -133.5t-127.5 -40.5q-13 0 -25.5 0.5l-12.5 0.5v69l14.5 -1t22.5 -1q56 0 77.5 26.5t21.5 79.5
z" />
    <glyph glyph-name="yen.tf" 
d="M73 145v69h189v79h-189v69h159l-198 338h84l183 -314l181 314h84l-198 -338h160v-69h-190v-79h190v-69h-190v-145h-76v145h-189z" />
    <glyph glyph-name="A.ss01" horiz-adv-x="664" 
d="M234 700h196l189 -700h-81l-44 161h-324l-44 -161h-81zM373 630h-82l-103 -396h288z" />
    <glyph glyph-name="G.ss01" horiz-adv-x="728" 
d="M398 277v72h268v-349h-74v45q-42 -28 -92.5 -42t-101.5 -14q-76 0 -141 28.5t-111.5 77.5t-73 114.5t-26.5 139.5q0 75 26.5 141t72.5 115.5t110 78t138 28.5q80 0 147 -30.5t115 -89.5l-51 -54q-37 48 -90 75.5t-121 27.5q-58 0 -108 -22.5t-86 -62t-56.5 -93
t-20.5 -114.5q0 -60 20.5 -113t57.5 -92t87.5 -61.5t110.5 -22.5q56 0 106.5 18.5t87.5 55.5v143h-194z" />
    <glyph glyph-name="I.ss01" horiz-adv-x="473" 
d="M198 632h-135v68h347v-68h-135v-564h135v-68h-347v68h135v564z" />
    <glyph glyph-name="J.ss01" horiz-adv-x="526" 
d="M382 628h-228v72h304v-482q0 -101 -53 -165t-159 -64q-50 0 -90 17.5t-67 47t-41 69t-14 83.5v32h77v-32q0 -72 40 -109t95 -37q72 0 104 43t32 115v410z" />
    <glyph glyph-name="K.ss01" horiz-adv-x="592" 
d="M135 0h-77v700h77v-300h122l204 300h87l-225 -330l232 -370h-90l-207 330h-123v-330z" />
    <glyph glyph-name="M.ss01" horiz-adv-x="821" 
d="M280 700l128 -610l131 610h202v-700h-76v631h-63l-139 -631h-110l-136 631h-61v-631h-76v700h200z" />
    <glyph glyph-name="Q.ss01" horiz-adv-x="810" 
d="M46 351q0 74 26.5 140t72.5 115t110 77.5t139 28.5t139.5 -28.5t111.5 -77.5t74 -115t27 -140q0 -75 -27 -141.5t-74 -115t-111.5 -77t-139.5 -28.5t-139 28.5t-110 77t-72.5 115t-26.5 141.5zM565 116l-169 169l50 51l169 -168q27 37 41.5 84t14.5 99q0 60 -20 113.5
t-56 92.5t-86.5 61.5t-110.5 22.5q-61 0 -112 -22.5t-87.5 -61.5t-56.5 -92.5t-20 -113.5q0 -61 20 -114.5t56.5 -92.5t87.5 -61.5t112 -22.5q49 0 91 14.5t76 41.5z" />
    <glyph glyph-name="V.ss01" horiz-adv-x="644" 
d="M278 70h88l175 630h83l-199 -700h-206l-199 700h83z" />
    <glyph glyph-name="W.ss01" horiz-adv-x="926" 
d="M583 70h75l175 630h83l-199 -700h-191l-63 225l-63 -225h-191l-199 700h83l175 -630h75l78 278l-100 352h79l63 -231l63 231h79l-100 -352z" />
    <glyph glyph-name="X.ss01" horiz-adv-x="651" 
d="M520 0l-143 325h-110l-143 -325h-81l159 359l-146 341h81l130 -305h110l130 305h81l-146 -341l159 -359h-81z" />
    <glyph glyph-name="a.ss01" horiz-adv-x="530" 
d="M371 422h-253v68h327v-490h-212q-74 0 -121 45t-47 108t49 108t119 45h138v116zM238 67h133v172h-133q-46 0 -73.5 -25.5t-27.5 -60.5t27.5 -60.5t73.5 -25.5z" />
    <glyph glyph-name="e.ss01" horiz-adv-x="511" 
d="M263 157q-35 0 -62 10t-47 27v-127h278v-67h-352v315q0 44 14.5 79t39.5 59t58.5 36.5t70.5 12.5q78 0 130.5 -49t52.5 -124q0 -37 -14.5 -68.5t-39.5 -54.5t-58.5 -36t-70.5 -13zM263 226q49 0 79 31t30 72t-30 72.5t-79 31.5t-79 -31.5t-30 -72.5t30 -72t79 -31z" />
    <glyph glyph-name="f.ss01" horiz-adv-x="418" 
d="M103 422h-80v68h80v72q0 61 43.5 105.5t108.5 44.5t109 -44.5t44 -105.5v-11h-74v10q0 37 -24.5 59.5t-54.5 22.5t-54 -22.5t-24 -59.5v-71h231v-68h-231v-422h-74v422z" />
    <glyph glyph-name="g.ss01" horiz-adv-x="573" 
d="M282 490h231v-70h-66q27 -28 42.5 -65.5t15.5 -80.5q0 -44 -16 -83t-44 -67.5t-66 -45.5t-81 -17q-4 0 -10 0.5t-10 1.5l235 -191v-66h-443v67h332l-234 194q-51 43 -79.5 93t-28.5 114q0 46 17.5 85.5t47.5 68.5t70.5 45.5t86.5 16.5zM432 274q0 60 -42 102t-102 44h-6
q-62 0 -105.5 -42t-43.5 -104t43.5 -104t106.5 -42q62 0 105.5 42t43.5 104z" />
    <glyph glyph-name="h.ss01" horiz-adv-x="547" 
d="M80 700h74v-210h313v-490h-74v422h-239v-422h-74v700z" />
    <glyph glyph-name="j.ss01" horiz-adv-x="293" 
d="M195 490v-684h-195v68h120v616h75zM101 657q0 22 17 38.5t39 16.5q23 0 39.5 -16.5t16.5 -38.5q0 -23 -16.5 -39.5t-39.5 -16.5q-22 0 -39 16.5t-17 39.5z" />
    <glyph glyph-name="k.ss01" horiz-adv-x="518" 
d="M154 0h-74v700h74v-422h122l112 212h81l-129 -245l138 -245h-81l-121 209h-122v-209z" />
    <glyph glyph-name="l.ss01" horiz-adv-x="233" 
d="M153 700v-700h-73v700h73z" />
    <glyph glyph-name="m.ss01" horiz-adv-x="827" 
d="M80 490h667v-490h-74v422h-223v-422h-74v422h-222v-422h-74v490z" />
    <glyph glyph-name="n.ss01" horiz-adv-x="547" 
d="M80 0v490h387v-490h-74v422h-239v-422h-74z" />
    <glyph glyph-name="r.ss01" horiz-adv-x="363" 
d="M328 422h-174v-422h-74v490h248v-68z" />
    <glyph glyph-name="s.ss01" horiz-adv-x="484" 
d="M233 502q53 0 96.5 -21.5t77.5 -57.5l-50 -53q-17 18 -48.5 40.5t-80.5 22.5q-40 0 -61.5 -18.5t-21.5 -41.5t16.5 -40.5t49.5 -37.5l218 -133q-7 -79 -57.5 -126t-137.5 -47q-67 0 -113.5 28t-74.5 64l49 51q25 -33 60 -54t78 -21q51 0 79.5 22t35.5 51l-183 109
q-36 21 -65 53t-29 78q0 31 13.5 55.5t35.5 41.5t51.5 26t61.5 9z" />
    <glyph glyph-name="t.ss01" horiz-adv-x="382" 
d="M331 68v-68h-203v422h-105v68h105v137h74v-137h134v-68h-134v-354h129z" />
    <glyph glyph-name="u.ss01" horiz-adv-x="536" 
d="M456 490v-490h-376v490h74v-422h228v422h74z" />
    <glyph glyph-name="y.ss01" horiz-adv-x="540" 
d="M308 -9v-185h-78v185l-202 499h82l160 -407l160 407h82z" />
    <glyph glyph-name="a.ordn.ss01" horiz-adv-x="410" 
d="M88 647v56h258v-361h-167q-57 0 -93.5 33t-36.5 80t38 80t92 33h103v79h-194zM282 513h-100q-33 0 -52.5 -17t-19.5 -41t19.5 -41t52.5 -17h100v116z" />
    <glyph glyph-name="e.ordn.ss01" horiz-adv-x="391" 
d="M201 458q-25 0 -44 6.5t-33 17.5v-85h208v-55h-272v232q0 66 42 101.5t99 35.5q60 0 101 -36t41 -91q0 -54 -42 -90t-100 -36zM201 514q35 0 56.5 21t21.5 49t-21.5 49.5t-56.5 21.5t-56.5 -21.5t-21.5 -49.5t21.5 -49t56.5 -21z" />
    <glyph glyph-name="g.ordn.ss01" horiz-adv-x="442" 
d="M399 703v-58h-50q19 -19 30.5 -45.5t11.5 -56.5q0 -64 -46 -109t-112 -46q-3 0 -7 1t-6 2l176 -137v-55h-342v56h248l-174 137q-40 31 -61.5 68t-21.5 84q0 34 13.5 63t37 50.5t55 33.5t66.5 12h182zM327 544q0 42 -31 71.5t-79 29.5q-45 0 -77 -29t-32 -72t32 -72.5
t78 -29.5t77.5 29.5t31.5 72.5z" />
    <glyph glyph-name="m.ordn.ss01" horiz-adv-x="643" 
d="M583 703v-361h-64v304h-166v-304h-64v304h-165v-304h-64v361h523z" />
    <glyph glyph-name="r.ordn.ss01" horiz-adv-x="282" 
d="M124 646v-304h-64v361h195v-57h-131z" />
    <glyph glyph-name="s.ordn.ss01" horiz-adv-x="374" 
d="M181 711q41 0 74.5 -15.5t61.5 -41.5l-42 -45q-18 16 -40.5 31t-56.5 15q-28 0 -43 -12t-15 -28t11.5 -28t34.5 -25l167 -97q-4 -57 -43 -94t-108 -37q-52 0 -88.5 20.5t-58.5 46.5l40 43q22 -25 48.5 -39.5t57.5 -14.5q36 0 56.5 14.5t24.5 34.5l-136 77q-28 15 -50 39
t-22 58q0 46 38.5 72t88.5 26z" />
    <glyph glyph-name="t.ordn.ss01" horiz-adv-x="300" 
d="M261 342h-165v304h-79v57h79v100h62v-100h107v-57h-108v-248h104v-56z" />
    <glyph glyph-name="Agrave.ss01" horiz-adv-x="664" 
d="M234 700h196l189 -700h-81l-44 161h-324l-44 -161h-81zM373 630h-82l-103 -396h288zM316 769l-109 103h103l91 -103h-85z" />
    <glyph glyph-name="Aacute.ss01" horiz-adv-x="664" 
d="M234 700h196l189 -700h-81l-44 161h-324l-44 -161h-81zM373 630h-82l-103 -396h288zM264 769l91 103h103l-108 -103h-86z" />
    <glyph glyph-name="Acircumflex.ss01" horiz-adv-x="664" 
d="M234 700h196l189 -700h-81l-44 161h-324l-44 -161h-81zM373 630h-82l-103 -396h288zM186 769l96 103h97l97 -103h-80l-65 62l-66 -62h-79z" />
    <glyph glyph-name="Atilde.ss01" horiz-adv-x="664" 
d="M234 700h196l189 -700h-81l-44 161h-324l-44 -161h-81zM373 630h-82l-103 -396h288zM406 872h57q0 -49 -21 -76t-54 -27q-13 0 -24 3.5t-18 6.5l-30 12q-11 4 -19 7t-19 3q-15 0 -22 -9.5t-8 -22.5h-57q0 49 20.5 76t54.5 27q13 0 24 -3t18 -6l30 -13q11 -4 18.5 -7
t18.5 -3q16 0 23 9.5t8 22.5z" />
    <glyph glyph-name="Adieresis.ss01" horiz-adv-x="664" 
d="M234 700h196l189 -700h-81l-44 161h-324l-44 -161h-81zM373 630h-82l-103 -396h288zM190 820q0 22 14.5 37t36.5 15t37 -15t15 -37t-15 -36.5t-37 -14.5t-36.5 14.5t-14.5 36.5zM371 820q0 22 14.5 37t36.5 15t37 -15t15 -37t-15 -36.5t-37 -14.5t-36.5 14.5t-14.5 36.5z
" />
    <glyph glyph-name="Amacron.ss01" horiz-adv-x="664" 
d="M234 700h196l189 -700h-81l-44 161h-324l-44 -161h-81zM373 630h-82l-103 -396h288zM218 787v68h228v-68h-228z" />
    <glyph glyph-name="Abreve.ss01" horiz-adv-x="664" 
d="M234 700h196l189 -700h-81l-44 161h-324l-44 -161h-81zM373 630h-82l-103 -396h288zM332 759q-55 0 -87.5 32t-36.5 81h66q3 -23 18 -36.5t40 -13.5t40 13.5t18 36.5h67q-4 -49 -36.5 -81t-88.5 -32z" />
    <glyph glyph-name="Aring.ss01" horiz-adv-x="664" 
d="M244 777q0 40 26.5 64.5t60.5 24.5q37 0 63.5 -24.5t26.5 -64.5q0 -25 -13 -46t-35 -31h57l189 -700h-81l-44 161h-324l-44 -161h-81l189 700h57q-21 10 -34 31t-13 46zM373 630h-82l-103 -396h288zM299 777q0 -14 10 -23.5t24 -9.5t23.5 9.5t9.5 23.5q0 15 -9.5 24.5
t-23.5 9.5t-24 -9.5t-10 -24.5z" />
    <glyph glyph-name="Aringacute.ss01" horiz-adv-x="664" 
d="M244 777q0 40 26.5 64.5t60.5 24.5q37 0 63.5 -24.5t26.5 -64.5q0 -25 -13 -46t-35 -31h57l189 -700h-81l-44 161h-324l-44 -161h-81l189 700h57q-21 10 -34 31t-13 46zM373 630h-82l-103 -396h288zM265 893l91 103h103l-108 -103h-86zM299 777q0 -14 10 -23.5t24 -9.5
t23.5 9.5t9.5 23.5q0 15 -9.5 24.5t-23.5 9.5t-24 -9.5t-10 -24.5z" />
    <glyph glyph-name="Aogonek.ss01" horiz-adv-x="664" 
d="M619 -125v-55q-6 -1 -15.5 -2.5t-20.5 -1.5q-47 0 -73 21.5t-26 59.5q0 31 17.5 58t43.5 45h-7l-44 161h-324l-44 -161h-81l189 700h196l189 -700q-39 -30 -52 -48.5t-13 -35.5q0 -18 13 -29.5t47 -11.5h5zM373 630h-82l-103 -396h288z" />
    <glyph glyph-name="AE.ss01" horiz-adv-x="889" 
d="M45 0l189 700h580v-72h-365l64 -235h290v-72h-271l67 -249h215v-72h-276l-44 161h-324l-44 -161h-81zM373 630h-82l-103 -396h288z" />
    <glyph glyph-name="AEacute.ss01" horiz-adv-x="889" 
d="M45 0l189 700h580v-72h-365l64 -235h290v-72h-271l67 -249h215v-72h-276l-44 161h-324l-44 -161h-81zM373 630h-82l-103 -396h288zM435 769l91 103h103l-108 -103h-86z" />
    <glyph glyph-name="Ccedilla.ss01" horiz-adv-x="700" 
d="M617 165l49 -56q-43 -49 -102.5 -80t-127.5 -38v-128h-74v128q-69 6 -127.5 37t-100 79t-65 110.5t-23.5 131.5q0 75 26.5 141t72.5 115.5t110 78t138 28.5q80 0 147 -30.5t115 -89.5l-51 -54q-37 48 -90 75.5t-121 27.5q-58 0 -108 -22.5t-86 -62t-56.5 -93
t-20.5 -114.5q0 -60 20.5 -113t57.5 -92t87.5 -61.5t110.5 -22.5q67 0 123 26.5t96 78.5z" />
    <glyph glyph-name="Gcircumflex.ss01" horiz-adv-x="728" 
d="M398 277v72h268v-349h-74v45q-42 -28 -92.5 -42t-101.5 -14q-76 0 -141 28.5t-111.5 77.5t-73 114.5t-26.5 139.5q0 75 26.5 141t72.5 115.5t110 78t138 28.5q80 0 147 -30.5t115 -89.5l-51 -54q-37 48 -90 75.5t-121 27.5q-58 0 -108 -22.5t-86 -62t-56.5 -93
t-20.5 -114.5q0 -60 20.5 -113t57.5 -92t87.5 -61.5t110.5 -22.5q56 0 106.5 18.5t87.5 55.5v143h-194zM251 769l96 103h97l97 -103h-80l-65 62l-66 -62h-79z" />
    <glyph glyph-name="Gbreve.ss01" horiz-adv-x="728" 
d="M398 277v72h268v-349h-74v45q-42 -28 -92.5 -42t-101.5 -14q-76 0 -141 28.5t-111.5 77.5t-73 114.5t-26.5 139.5q0 75 26.5 141t72.5 115.5t110 78t138 28.5q80 0 147 -30.5t115 -89.5l-51 -54q-37 48 -90 75.5t-121 27.5q-58 0 -108 -22.5t-86 -62t-56.5 -93
t-20.5 -114.5q0 -60 20.5 -113t57.5 -92t87.5 -61.5t110.5 -22.5q56 0 106.5 18.5t87.5 55.5v143h-194zM400 759q-55 0 -87.5 32t-36.5 81h66q3 -23 18 -36.5t40 -13.5t40 13.5t18 36.5h67q-4 -49 -36.5 -81t-88.5 -32z" />
    <glyph glyph-name="Gdotaccent.ss01" horiz-adv-x="728" 
d="M398 277v72h268v-349h-74v45q-42 -28 -92.5 -42t-101.5 -14q-76 0 -141 28.5t-111.5 77.5t-73 114.5t-26.5 139.5q0 75 26.5 141t72.5 115.5t110 78t138 28.5q80 0 147 -30.5t115 -89.5l-51 -54q-37 48 -90 75.5t-121 27.5q-58 0 -108 -22.5t-86 -62t-56.5 -93
t-20.5 -114.5q0 -60 20.5 -113t57.5 -92t87.5 -61.5t110.5 -22.5q56 0 106.5 18.5t87.5 55.5v143h-194zM394 764q-23 0 -39.5 16.5t-16.5 39.5t16.5 39.5t39.5 16.5t39.5 -16.5t16.5 -39.5t-16.5 -39.5t-39.5 -16.5z" />
    <glyph glyph-name="Gcommaaccent.ss01" horiz-adv-x="728" 
d="M398 277v72h268v-349h-74v45q-42 -28 -92.5 -42t-101.5 -14q-76 0 -141 28.5t-111.5 77.5t-73 114.5t-26.5 139.5q0 75 26.5 141t72.5 115.5t110 78t138 28.5q80 0 147 -30.5t115 -89.5l-51 -54q-37 48 -90 75.5t-121 27.5q-58 0 -108 -22.5t-86 -62t-56.5 -93
t-20.5 -114.5q0 -60 20.5 -113t57.5 -92t87.5 -61.5t110.5 -22.5q56 0 106.5 18.5t87.5 55.5v143h-194zM305 -194h59l71 137h-83z" />
    <glyph glyph-name="Igrave.ss01" horiz-adv-x="473" 
d="M198 632h-135v68h347v-68h-135v-564h135v-68h-347v68h135v564zM211 769l-109 103h103l91 -103h-85z" />
    <glyph glyph-name="Iacute.ss01" horiz-adv-x="473" 
d="M198 632h-135v68h347v-68h-135v-564h135v-68h-347v68h135v564zM175 769l91 103h103l-108 -103h-86z" />
    <glyph glyph-name="Icircumflex.ss01" horiz-adv-x="473" 
d="M198 632h-135v68h347v-68h-135v-564h135v-68h-347v68h135v564zM92 769l96 103h97l97 -103h-80l-65 62l-66 -62h-79z" />
    <glyph glyph-name="Itilde.ss01" horiz-adv-x="473" 
d="M198 632h-135v68h347v-68h-135v-564h135v-68h-347v68h135v564zM315 872h57q0 -49 -21 -76t-54 -27q-13 0 -24 3.5t-18 6.5l-30 12q-11 4 -19 7t-19 3q-15 0 -22 -9.5t-8 -22.5h-57q0 49 20.5 76t54.5 27q13 0 24 -3t18 -6l30 -13q11 -4 18.5 -7t18.5 -3q16 0 23 9.5
t8 22.5z" />
    <glyph glyph-name="Idieresis.ss01" horiz-adv-x="473" 
d="M198 632h-135v68h347v-68h-135v-564h135v-68h-347v68h135v564zM94 820q0 22 14.5 37t36.5 15t37 -15t15 -37t-15 -36.5t-37 -14.5t-36.5 14.5t-14.5 36.5zM275 820q0 22 14.5 37t36.5 15t37 -15t15 -37t-15 -36.5t-37 -14.5t-36.5 14.5t-14.5 36.5z" />
    <glyph glyph-name="Imacron.ss01" horiz-adv-x="473" 
d="M198 632h-135v68h347v-68h-135v-564h135v-68h-347v68h135v564zM122 787v68h228v-68h-228z" />
    <glyph glyph-name="Ibreve.ss01" horiz-adv-x="473" 
d="M198 632h-135v68h347v-68h-135v-564h135v-68h-347v68h135v564zM236 759q-55 0 -87.5 32t-36.5 81h66q3 -23 18 -36.5t40 -13.5t40 13.5t18 36.5h67q-4 -49 -36.5 -81t-88.5 -32z" />
    <glyph glyph-name="Idotaccent.ss01" horiz-adv-x="473" 
d="M198 632h-135v68h347v-68h-135v-564h135v-68h-347v68h135v564zM236 764q-23 0 -39.5 16.5t-16.5 39.5t16.5 39.5t39.5 16.5t39.5 -16.5t16.5 -39.5t-16.5 -39.5t-39.5 -16.5z" />
    <glyph glyph-name="Iogonek.ss01" horiz-adv-x="473" 
d="M290 -125v-55q-6 -1 -15.5 -2.5t-20.5 -1.5q-47 0 -73 21.5t-26 59.5q0 31 17.5 58t43.5 45h-153v68h135v564h-135v68h347v-68h-135v-564h135v-68h-120q-39 -30 -52 -48.5t-13 -35.5q0 -18 13 -29.5t47 -11.5h5z" />
    <glyph glyph-name="IJ.ss01" horiz-adv-x="999" 
d="M198 632h-135v68h347v-68h-135v-564h135v-68h-347v68h135v564zM855 628h-228v72h304v-482q0 -101 -53 -165t-159 -64q-50 0 -90 17.5t-67 47t-41 69t-14 83.5v32h77v-32q0 -72 40 -109t95 -37q72 0 104 43t32 115v410z" />
    <glyph glyph-name="Jcircumflex.ss01" horiz-adv-x="526" 
d="M382 628h-228v72h304v-482q0 -101 -53 -165t-159 -64q-50 0 -90 17.5t-67 47t-41 69t-14 83.5v32h77v-32q0 -72 40 -109t95 -37q72 0 104 43t32 115v410zM168 769l96 103h97l97 -103h-80l-65 62l-66 -62h-79z" />
    <glyph glyph-name="Kcommaaccent.ss01" horiz-adv-x="592" 
d="M135 0h-77v700h77v-300h122l204 300h87l-225 -330l232 -370h-90l-207 330h-123v-330zM274 -194h-59l47 137h83z" />
    <glyph glyph-name="Scedilla.ss01" horiz-adv-x="638" 
d="M360 311l-88 15q-38 7 -74 21.5t-63.5 38t-44 56.5t-16.5 76q0 46 20.5 82.5t54.5 61t77.5 37.5t89.5 13q83 0 141.5 -31t99.5 -76l-51 -56q-29 35 -76 63.5t-120 28.5q-68 0 -114 -33.5t-46 -86.5q0 -57 42.5 -85t106.5 -38l69 -12q98 -17 155.5 -66.5t57.5 -133.5
q0 -78 -60.5 -133.5t-164.5 -62.5v-127h-74v129q-74 8 -132.5 42.5t-92.5 82.5l52 54q32 -44 86.5 -77.5t138.5 -33.5q71 0 121 32.5t50 92.5q0 55 -41 85t-104 41z" />
    <glyph glyph-name="uni0162.ss01" horiz-adv-x="586" 
d="M33 628v72h520v-72h-222v-628h-1v-137h-74v137h-1v628h-222z" />
    <glyph glyph-name="Wgrave.ss01" horiz-adv-x="926" 
d="M583 70h75l175 630h83l-199 -700h-191l-63 225l-63 -225h-191l-199 700h83l175 -630h75l78 278l-100 352h79l63 -231l63 231h79l-100 -352zM426 769l-109 103h103l91 -103h-85z" />
    <glyph glyph-name="Wacute.ss01" horiz-adv-x="926" 
d="M583 70h75l175 630h83l-199 -700h-191l-63 225l-63 -225h-191l-199 700h83l175 -630h75l78 278l-100 352h79l63 -231l63 231h79l-100 -352zM415 769l91 103h103l-108 -103h-86z" />
    <glyph glyph-name="Wcircumflex.ss01" horiz-adv-x="926" 
d="M583 70h75l175 630h83l-199 -700h-191l-63 225l-63 -225h-191l-199 700h83l175 -630h75l78 278l-100 352h79l63 -231l63 231h79l-100 -352zM318 769l96 103h97l97 -103h-80l-65 62l-66 -62h-79z" />
    <glyph glyph-name="Wdieresis.ss01" horiz-adv-x="926" 
d="M583 70h75l175 630h83l-199 -700h-191l-63 225l-63 -225h-191l-199 700h83l175 -630h75l78 278l-100 352h79l63 -231l63 231h79l-100 -352zM322 820q0 22 14.5 37t36.5 15t37 -15t15 -37t-15 -36.5t-37 -14.5t-36.5 14.5t-14.5 36.5zM503 820q0 22 14.5 37t36.5 15
t37 -15t15 -37t-15 -36.5t-37 -14.5t-36.5 14.5t-14.5 36.5z" />
    <glyph glyph-name="agrave.ss01" horiz-adv-x="530" 
d="M371 422h-253v68h327v-490h-212q-74 0 -121 45t-47 108t49 108t119 45h138v116zM238 67h133v172h-133q-46 0 -73.5 -25.5t-27.5 -60.5t27.5 -60.5t73.5 -25.5zM272 569l-114 131h97l91 -131h-74z" />
    <glyph glyph-name="aacute.ss01" horiz-adv-x="530" 
d="M371 422h-253v68h327v-490h-212q-74 0 -121 45t-47 108t49 108t119 45h138v116zM238 67h133v172h-133q-46 0 -73.5 -25.5t-27.5 -60.5t27.5 -60.5t73.5 -25.5zM237 569l91 131h97l-114 -131h-74z" />
    <glyph glyph-name="acircumflex.ss01" horiz-adv-x="530" 
d="M371 422h-253v68h327v-490h-212q-74 0 -121 45t-47 108t49 108t119 45h138v116zM238 67h133v172h-133q-46 0 -73.5 -25.5t-27.5 -60.5t27.5 -60.5t73.5 -25.5zM152 569l97 131h97l97 -131h-74l-72 82l-71 -82h-74z" />
    <glyph glyph-name="atilde.ss01" horiz-adv-x="530" 
d="M371 422h-253v68h327v-490h-212q-74 0 -121 45t-47 108t49 108t119 45h138v116zM238 67h133v172h-133q-46 0 -73.5 -25.5t-27.5 -60.5t27.5 -60.5t73.5 -25.5zM378 700h57q0 -49 -21 -76t-54 -27q-13 0 -24 3.5t-18 6.5l-30 12q-11 4 -19 7t-19 3q-15 0 -22 -9.5
t-8 -22.5h-57q0 49 20.5 76t54.5 27q13 0 24 -3t18 -6l30 -13q11 -4 18.5 -7t18.5 -3q16 0 23 9.5t8 22.5z" />
    <glyph glyph-name="adieresis.ss01" horiz-adv-x="530" 
d="M371 422h-253v68h327v-490h-212q-74 0 -121 45t-47 108t49 108t119 45h138v116zM238 67h133v172h-133q-46 0 -73.5 -25.5t-27.5 -60.5t27.5 -60.5t73.5 -25.5zM152 655q0 22 14.5 37t36.5 15t37 -15t15 -37t-15 -36.5t-37 -14.5t-36.5 14.5t-14.5 36.5zM333 655
q0 22 14.5 37t36.5 15t37 -15t15 -37t-15 -36.5t-37 -14.5t-36.5 14.5t-14.5 36.5z" />
    <glyph glyph-name="amacron.ss01" horiz-adv-x="530" 
d="M371 422h-253v68h327v-490h-212q-74 0 -121 45t-47 108t49 108t119 45h138v116zM238 67h133v172h-133q-46 0 -73.5 -25.5t-27.5 -60.5t27.5 -60.5t73.5 -25.5zM170 632v68h228v-68h-228z" />
    <glyph glyph-name="abreve.ss01" horiz-adv-x="530" 
d="M371 422h-253v68h327v-490h-212q-74 0 -121 45t-47 108t49 108t119 45h138v116zM238 67h133v172h-133q-46 0 -73.5 -25.5t-27.5 -60.5t27.5 -60.5t73.5 -25.5zM284 558q-62 0 -98.5 40.5t-40.5 101.5h66q4 -34 23 -54t50 -20q32 0 50.5 20t22.5 54h67
q-4 -61 -40.5 -101.5t-99.5 -40.5z" />
    <glyph glyph-name="aring.ss01" horiz-adv-x="530" 
d="M371 422h-253v68h327v-490h-212q-74 0 -121 45t-47 108t49 108t119 45h138v116zM238 67h133v172h-133q-46 0 -73.5 -25.5t-27.5 -60.5t27.5 -60.5t73.5 -25.5zM217 635q0 34 22.5 55.5t52.5 21.5q33 0 56 -21.5t23 -55.5q0 -31 -22.5 -53.5t-56.5 -22.5q-31 0 -53 22.5
t-22 53.5zM265 635q0 -13 8.5 -21t21.5 -8q12 0 20 8t8 21t-8 20.5t-20 7.5q-13 0 -21.5 -7.5t-8.5 -20.5z" />
    <glyph glyph-name="aringacute.ss01" horiz-adv-x="530" 
d="M371 422h-253v68h327v-490h-212q-74 0 -121 45t-47 108t49 108t119 45h138v116zM238 67h133v172h-133q-46 0 -73.5 -25.5t-27.5 -60.5t27.5 -60.5t73.5 -25.5zM217 635q0 34 22.5 55.5t52.5 21.5q33 0 56 -21.5t23 -55.5q0 -31 -22.5 -53.5t-56.5 -22.5q-31 0 -53 22.5
t-22 53.5zM265 635q0 -13 8.5 -21t21.5 -8q12 0 20 8t8 21t-8 20.5t-20 7.5q-13 0 -21.5 -7.5t-8.5 -20.5zM250 769l91 103h103l-108 -103h-86z" />
    <glyph glyph-name="aogonek.ss01" horiz-adv-x="530" 
d="M445 -125v-55q-6 -1 -15.5 -2.5t-20.5 -1.5q-47 0 -73 21.5t-26 59.5q0 31 17.5 58t43.5 45h-138q-74 0 -121 45t-47 108t49 108t119 45h138v116h-253v68h327v-490q-39 -30 -52 -48.5t-13 -35.5q0 -18 13 -29.5t47 -11.5h5zM238 67h133v172h-133q-46 0 -73.5 -25.5
t-27.5 -60.5t27.5 -60.5t73.5 -25.5z" />
    <glyph glyph-name="ae.ss01" horiz-adv-x="801" 
d="M228 280h143v142h-253v68h455q74 0 118.5 -37t44.5 -103q0 -33 -13 -59.5t-35 -44t-52 -27t-63 -9.5h-128v-143h278v-67h-495q-70 0 -116.5 37t-46.5 103t46.5 103t116.5 37zM233 67h138v146h-138q-46 0 -71 -19t-25 -54t25 -54t71 -19zM568 423h-123v-146h123
q46 0 71 19t25 54t-25 54t-71 19z" />
    <glyph glyph-name="aeacute.ss01" horiz-adv-x="801" 
d="M228 280h143v142h-253v68h455q74 0 118.5 -37t44.5 -103q0 -33 -13 -59.5t-35 -44t-52 -27t-63 -9.5h-128v-143h278v-67h-495q-70 0 -116.5 37t-46.5 103t46.5 103t116.5 37zM233 67h138v146h-138q-46 0 -71 -19t-25 -54t25 -54t71 -19zM568 423h-123v-146h123
q46 0 71 19t25 54t-25 54t-71 19zM367 569l91 131h97l-114 -131h-74z" />
    <glyph glyph-name="ccedilla.ss01" horiz-adv-x="545" 
d="M448 130l51 -47q-29 -34 -69 -59.5t-94 -32.5v-128h-74v130q-45 7 -82.5 29.5t-65 56t-42.5 76.5t-15 90q0 53 19.5 100t52.5 81.5t79 55t98 20.5q57 0 102.5 -22t80.5 -65l-50 -49q-26 31 -59.5 48.5t-73.5 17.5q-75 0 -124 -54t-49 -133t46 -133t130 -54q43 0 77.5 19
t61.5 53z" />
    <glyph glyph-name="egrave.ss01" horiz-adv-x="511" 
d="M263 157q-35 0 -62 10t-47 27v-127h278v-67h-352v315q0 44 14.5 79t39.5 59t58.5 36.5t70.5 12.5q78 0 130.5 -49t52.5 -124q0 -37 -14.5 -68.5t-39.5 -54.5t-58.5 -36t-70.5 -13zM263 226q49 0 79 31t30 72t-30 72.5t-79 31.5t-79 -31.5t-30 -72.5t30 -72t79 -31z
M263 569l-114 131h97l91 -131h-74z" />
    <glyph glyph-name="eacute.ss01" horiz-adv-x="511" 
d="M263 157q-35 0 -62 10t-47 27v-127h278v-67h-352v315q0 44 14.5 79t39.5 59t58.5 36.5t70.5 12.5q78 0 130.5 -49t52.5 -124q0 -37 -14.5 -68.5t-39.5 -54.5t-58.5 -36t-70.5 -13zM263 226q49 0 79 31t30 72t-30 72.5t-79 31.5t-79 -31.5t-30 -72.5t30 -72t79 -31z
M204 569l91 131h97l-114 -131h-74z" />
    <glyph glyph-name="ecircumflex.ss01" horiz-adv-x="511" 
d="M263 157q-35 0 -62 10t-47 27v-127h278v-67h-352v315q0 44 14.5 79t39.5 59t58.5 36.5t70.5 12.5q78 0 130.5 -49t52.5 -124q0 -37 -14.5 -68.5t-39.5 -54.5t-58.5 -36t-70.5 -13zM263 226q49 0 79 31t30 72t-30 72.5t-79 31.5t-79 -31.5t-30 -72.5t30 -72t79 -31z
M120 569l97 131h97l97 -131h-74l-72 82l-71 -82h-74z" />
    <glyph glyph-name="ecaron.ss01" horiz-adv-x="511" 
d="M263 157q-35 0 -62 10t-47 27v-127h278v-67h-352v315q0 44 14.5 79t39.5 59t58.5 36.5t70.5 12.5q78 0 130.5 -49t52.5 -124q0 -37 -14.5 -68.5t-39.5 -54.5t-58.5 -36t-70.5 -13zM263 226q49 0 79 31t30 72t-30 72.5t-79 31.5t-79 -31.5t-30 -72.5t30 -72t79 -31z
M410 700l-97 -131h-97l-97 131h74l71 -82l72 82h74z" />
    <glyph glyph-name="edieresis.ss01" horiz-adv-x="511" 
d="M263 157q-35 0 -62 10t-47 27v-127h278v-67h-352v315q0 44 14.5 79t39.5 59t58.5 36.5t70.5 12.5q78 0 130.5 -49t52.5 -124q0 -37 -14.5 -68.5t-39.5 -54.5t-58.5 -36t-70.5 -13zM263 226q49 0 79 31t30 72t-30 72.5t-79 31.5t-79 -31.5t-30 -72.5t30 -72t79 -31z
M122 655q0 22 14.5 37t36.5 15t37 -15t15 -37t-15 -36.5t-37 -14.5t-36.5 14.5t-14.5 36.5zM303 655q0 22 14.5 37t36.5 15t37 -15t15 -37t-15 -36.5t-37 -14.5t-36.5 14.5t-14.5 36.5z" />
    <glyph glyph-name="emacron.ss01" horiz-adv-x="511" 
d="M263 157q-35 0 -62 10t-47 27v-127h278v-67h-352v315q0 44 14.5 79t39.5 59t58.5 36.5t70.5 12.5q78 0 130.5 -49t52.5 -124q0 -37 -14.5 -68.5t-39.5 -54.5t-58.5 -36t-70.5 -13zM263 226q49 0 79 31t30 72t-30 72.5t-79 31.5t-79 -31.5t-30 -72.5t30 -72t79 -31z
M149 632v68h228v-68h-228z" />
    <glyph glyph-name="ebreve.ss01" horiz-adv-x="511" 
d="M263 157q-35 0 -62 10t-47 27v-127h278v-67h-352v315q0 44 14.5 79t39.5 59t58.5 36.5t70.5 12.5q78 0 130.5 -49t52.5 -124q0 -37 -14.5 -68.5t-39.5 -54.5t-58.5 -36t-70.5 -13zM263 226q49 0 79 31t30 72t-30 72.5t-79 31.5t-79 -31.5t-30 -72.5t30 -72t79 -31z
M260 558q-62 0 -98.5 40.5t-40.5 101.5h66q4 -34 23 -54t50 -20q32 0 50.5 20t22.5 54h67q-4 -61 -40.5 -101.5t-99.5 -40.5z" />
    <glyph glyph-name="edotaccent.ss01" horiz-adv-x="511" 
d="M263 157q-35 0 -62 10t-47 27v-127h278v-67h-352v315q0 44 14.5 79t39.5 59t58.5 36.5t70.5 12.5q78 0 130.5 -49t52.5 -124q0 -37 -14.5 -68.5t-39.5 -54.5t-58.5 -36t-70.5 -13zM263 226q49 0 79 31t30 72t-30 72.5t-79 31.5t-79 -31.5t-30 -72.5t30 -72t79 -31z
M264 600q-23 0 -39.5 16.5t-16.5 39.5t16.5 39.5t39.5 16.5t39.5 -16.5t16.5 -39.5t-16.5 -39.5t-39.5 -16.5z" />
    <glyph glyph-name="eogonek.ss01" horiz-adv-x="511" 
d="M433 -125v-55q-6 -1 -15.5 -2.5t-20.5 -1.5q-47 0 -73 21.5t-26 59.5q0 31 17.5 58t43.5 45h-279v315q0 44 14.5 79t39.5 59t58.5 36.5t70.5 12.5q78 0 130.5 -49t52.5 -124q0 -37 -14.5 -68.5t-39.5 -54.5t-58.5 -36t-70.5 -13q-35 0 -62 10t-47 27v-127h278v-67h1
q-39 -30 -52 -48.5t-13 -35.5q0 -18 13 -29.5t47 -11.5h5zM263 226q49 0 79 31t30 72t-30 72.5t-79 31.5t-79 -31.5t-30 -72.5t30 -72t79 -31z" />
    <glyph glyph-name="gcircumflex.ss01" horiz-adv-x="573" 
d="M282 490h231v-70h-66q27 -28 42.5 -65.5t15.5 -80.5q0 -44 -16 -83t-44 -67.5t-66 -45.5t-81 -17q-4 0 -10 0.5t-10 1.5l235 -191v-66h-443v67h332l-234 194q-51 43 -79.5 93t-28.5 114q0 46 17.5 85.5t47.5 68.5t70.5 45.5t86.5 16.5zM432 274q0 60 -42 102t-102 44h-6
q-62 0 -105.5 -42t-43.5 -104t43.5 -104t106.5 -42q62 0 105.5 42t43.5 104zM151 569l97 131h97l97 -131h-74l-72 82l-71 -82h-74z" />
    <glyph glyph-name="gbreve.ss01" horiz-adv-x="573" 
d="M282 490h231v-70h-66q27 -28 42.5 -65.5t15.5 -80.5q0 -44 -16 -83t-44 -67.5t-66 -45.5t-81 -17q-4 0 -10 0.5t-10 1.5l235 -191v-66h-443v67h332l-234 194q-51 43 -79.5 93t-28.5 114q0 46 17.5 85.5t47.5 68.5t70.5 45.5t86.5 16.5zM432 274q0 60 -42 102t-102 44h-6
q-62 0 -105.5 -42t-43.5 -104t43.5 -104t106.5 -42q62 0 105.5 42t43.5 104zM302 558q-62 0 -98.5 40.5t-40.5 101.5h66q4 -34 23 -54t50 -20q32 0 50.5 20t22.5 54h67q-4 -61 -40.5 -101.5t-99.5 -40.5z" />
    <glyph glyph-name="gdotaccent.ss01" horiz-adv-x="573" 
d="M282 490h231v-70h-66q27 -28 42.5 -65.5t15.5 -80.5q0 -44 -16 -83t-44 -67.5t-66 -45.5t-81 -17q-4 0 -10 0.5t-10 1.5l235 -191v-66h-443v67h332l-234 194q-51 43 -79.5 93t-28.5 114q0 46 17.5 85.5t47.5 68.5t70.5 45.5t86.5 16.5zM432 274q0 60 -42 102t-102 44h-6
q-62 0 -105.5 -42t-43.5 -104t43.5 -104t106.5 -42q62 0 105.5 42t43.5 104zM304 600q-23 0 -39.5 16.5t-16.5 39.5t16.5 39.5t39.5 16.5t39.5 -16.5t16.5 -39.5t-16.5 -39.5t-39.5 -16.5z" />
    <glyph glyph-name="gcommaaccent.ss01" horiz-adv-x="573" 
d="M282 490h231v-70h-66q27 -28 42.5 -65.5t15.5 -80.5q0 -44 -16 -83t-44 -67.5t-66 -45.5t-81 -17q-4 0 -10 0.5t-10 1.5l235 -191v-66h-443v67h332l-234 194q-51 43 -79.5 93t-28.5 114q0 46 17.5 85.5t47.5 68.5t70.5 45.5t86.5 16.5zM432 274q0 60 -42 102t-102 44h-6
q-62 0 -105.5 -42t-43.5 -104t43.5 -104t106.5 -42q62 0 105.5 42t43.5 104zM334 700h59l-47 -137h-83z" />
    <glyph glyph-name="hcircumflex.ss01" horiz-adv-x="547" 
d="M80 700h74v-210h313v-490h-74v422h-239v-422h-74v700zM-26 769l96 103h97l97 -103h-80l-65 62l-66 -62h-79z" />
    <glyph glyph-name="hbar.ss01" horiz-adv-x="547" 
d="M80 700h74v-76h179v-68h-179v-66h313v-490h-74v422h-239v-422h-74v556h-71v68h71v76z" />
    <glyph glyph-name="ij.ss01" horiz-adv-x="543" 
d="M162 0h-74v490h74v-490zM69 657q0 22 16.5 38.5t39.5 16.5t39.5 -16.5t16.5 -38.5q0 -23 -16.5 -39.5t-39.5 -16.5t-39.5 16.5t-16.5 39.5zM445 490v-684h-195v68h120v616h75zM351 657q0 22 17 38.5t39 16.5q23 0 39.5 -16.5t16.5 -38.5q0 -23 -16.5 -39.5t-39.5 -16.5
q-22 0 -39 16.5t-17 39.5z" />
    <glyph glyph-name="dotlessj.ss01" horiz-adv-x="293" 
d="M195 490v-684h-195v68h120v616h75z" />
    <glyph glyph-name="jcircumflex.ss01" horiz-adv-x="293" 
d="M195 490v-684h-195v68h120v616h75zM13 569l97 131h97l97 -131h-74l-72 82l-71 -82h-74z" />
    <glyph glyph-name="kcommaaccent.ss01" horiz-adv-x="518" 
d="M154 0h-74v700h74v-422h122l112 212h81l-129 -245l138 -245h-81l-121 209h-122v-209zM240 -194h-59l47 137h83z" />
    <glyph glyph-name="kgreenlandic.ss01" horiz-adv-x="518" 
d="M154 0h-74v490h74v-212h122l112 212h81l-129 -245l138 -245h-81l-121 209h-122v-209z" />
    <glyph glyph-name="lacute.ss01" horiz-adv-x="233" 
d="M153 700v-700h-73v700h73zM84 769l91 103h103l-108 -103h-86z" />
    <glyph glyph-name="lcaron.ss01" horiz-adv-x="233" 
d="M153 700v-700h-73v700h73zM329 700l-59 -189h-55l27 189h87z" />
    <glyph glyph-name="lcommaaccent.ss01" horiz-adv-x="233" 
d="M153 700v-700h-73v700h73zM84 -194h-59l47 137h83z" />
    <glyph glyph-name="lslash.ss01" horiz-adv-x="233" 
d="M153 345v-345h-73v308l-82 -41v77l82 41v315h73v-278l83 42v-77z" />
    <glyph glyph-name="ldot.ss01" horiz-adv-x="308" 
d="M154 0h-74v700h74v-700zM211 345q0 25 17 42.5t42 17.5q26 0 43.5 -17.5t17.5 -42.5t-17.5 -42t-43.5 -17q-25 0 -42 17t-17 42z" />
    <glyph glyph-name="nacute.ss01" horiz-adv-x="547" 
d="M80 0v490h387v-490h-74v422h-239v-422h-74zM217 569l91 131h97l-114 -131h-74z" />
    <glyph glyph-name="ncaron.ss01" horiz-adv-x="547" 
d="M80 0v490h387v-490h-74v422h-239v-422h-74zM419 700l-97 -131h-97l-97 131h74l71 -82l72 82h74z" />
    <glyph glyph-name="ntilde.ss01" horiz-adv-x="547" 
d="M80 0v490h387v-490h-74v422h-239v-422h-74zM352 700h57q0 -49 -21 -76t-54 -27q-13 0 -24 3.5t-18 6.5l-30 12q-11 4 -19 7t-19 3q-15 0 -22 -9.5t-8 -22.5h-57q0 49 20.5 76t54.5 27q13 0 24 -3t18 -6l30 -13q11 -4 18.5 -7t18.5 -3q16 0 23 9.5t8 22.5z" />
    <glyph glyph-name="ncommaaccent.ss01" horiz-adv-x="547" 
d="M80 0v490h387v-490h-74v422h-239v-422h-74zM246 -194h-59l47 137h83z" />
    <glyph glyph-name="oe.ss01" horiz-adv-x="908" 
d="M660 157q-40 0 -70.5 13.5t-51.5 36.5q-6 -41 -23 -77t-43 -63h357v-67h-526q-53 0 -98 19.5t-78 53t-51.5 79t-18.5 98.5t18.5 99t51.5 80t78 53.5t98 19.5q65 0 114 -26t79 -70q23 46 67 71t97 25q78 0 130.5 -49t52.5 -124q0 -37 -14.5 -68.5t-39.5 -54.5t-58.5 -36
t-70.5 -13zM133 250q0 -79 47.5 -130.5t122.5 -51.5t123 51.5t48 130.5t-48 130.5t-123 51.5t-122.5 -51.5t-47.5 -130.5zM660 226q49 0 79 31t30 72t-30 72.5t-79 31.5t-79 -31.5t-30 -72.5t30 -72t79 -31z" />
    <glyph glyph-name="eng.ss01" horiz-adv-x="547" 
d="M80 0v490h387v-684h-195v68h121v548h-239v-422h-74z" />
    <glyph glyph-name="racute.ss01" horiz-adv-x="363" 
d="M328 422h-174v-422h-74v490h248v-68zM157 569l91 131h97l-114 -131h-74z" />
    <glyph glyph-name="rcaron.ss01" horiz-adv-x="363" 
d="M328 422h-174v-422h-74v490h248v-68zM356 700l-97 -131h-97l-97 131h74l71 -82l72 82h74z" />
    <glyph glyph-name="rcommaaccent.ss01" horiz-adv-x="363" 
d="M328 422h-174v-422h-74v490h248v-68zM87 -194h-59l47 137h83z" />
    <glyph glyph-name="sacute.ss01" horiz-adv-x="484" 
d="M233 502q53 0 96.5 -21.5t77.5 -57.5l-50 -53q-17 18 -48.5 40.5t-80.5 22.5q-40 0 -61.5 -18.5t-21.5 -41.5t16.5 -40.5t49.5 -37.5l218 -133q-7 -79 -57.5 -126t-137.5 -47q-67 0 -113.5 28t-74.5 64l49 51q25 -33 60 -54t78 -21q51 0 79.5 22t35.5 51l-183 109
q-36 21 -65 53t-29 78q0 31 13.5 55.5t35.5 41.5t51.5 26t61.5 9zM197 569l91 131h97l-114 -131h-74z" />
    <glyph glyph-name="scircumflex.ss01" horiz-adv-x="484" 
d="M233 502q53 0 96.5 -21.5t77.5 -57.5l-50 -53q-17 18 -48.5 40.5t-80.5 22.5q-40 0 -61.5 -18.5t-21.5 -41.5t16.5 -40.5t49.5 -37.5l218 -133q-7 -79 -57.5 -126t-137.5 -47q-67 0 -113.5 28t-74.5 64l49 51q25 -33 60 -54t78 -21q51 0 79.5 22t35.5 51l-183 109
q-36 21 -65 53t-29 78q0 31 13.5 55.5t35.5 41.5t51.5 26t61.5 9zM90 569l97 131h97l97 -131h-74l-72 82l-71 -82h-74z" />
    <glyph glyph-name="scaron.ss01" horiz-adv-x="484" 
d="M233 502q53 0 96.5 -21.5t77.5 -57.5l-50 -53q-17 18 -48.5 40.5t-80.5 22.5q-40 0 -61.5 -18.5t-21.5 -41.5t16.5 -40.5t49.5 -37.5l218 -133q-7 -79 -57.5 -126t-137.5 -47q-67 0 -113.5 28t-74.5 64l49 51q25 -33 60 -54t78 -21q51 0 79.5 22t35.5 51l-183 109
q-36 21 -65 53t-29 78q0 31 13.5 55.5t35.5 41.5t51.5 26t61.5 9zM399 700l-97 -131h-97l-97 131h74l71 -82l72 82h74z" />
    <glyph glyph-name="scedilla.ss01" horiz-adv-x="484" 
d="M233 502q53 0 96.5 -21.5t77.5 -57.5l-50 -53q-17 18 -48.5 40.5t-80.5 22.5q-40 0 -61.5 -18.5t-21.5 -41.5t16.5 -40.5t49.5 -37.5l218 -133q-6 -69 -45.5 -114t-106.5 -55v-130h-74v128q-55 7 -94 32.5t-63 57.5l49 51q25 -33 60 -54t78 -21q51 0 79.5 22t35.5 51
l-183 109q-36 21 -65 53t-29 78q0 31 13.5 55.5t35.5 41.5t51.5 26t61.5 9z" />
    <glyph glyph-name="scommaaccent.ss01" horiz-adv-x="484" 
d="M150 -194h59l71 137h-83zM233 502q53 0 96.5 -21.5t77.5 -57.5l-50 -53q-17 18 -48.5 40.5t-80.5 22.5q-40 0 -61.5 -18.5t-21.5 -41.5t16.5 -40.5t49.5 -37.5l218 -133q-7 -79 -57.5 -126t-137.5 -47q-67 0 -113.5 28t-74.5 64l49 51q25 -33 60 -54t78 -21q51 0 79.5 22
t35.5 51l-183 109q-36 21 -65 53t-29 78q0 31 13.5 55.5t35.5 41.5t51.5 26t61.5 9z" />
    <glyph glyph-name="germandbls.ss01" horiz-adv-x="594" 
d="M319 327h-72v71l163 230h-260v-628h-76v700h423v-72l-165 -230q44 -1 83.5 -16t69 -40.5t46.5 -62t17 -80.5t-18 -81t-48 -63t-70.5 -40.5t-86.5 -14.5h-78v71h72q66 0 109.5 34t43.5 94t-43.5 94t-109.5 34z" />
    <glyph glyph-name="tcaron.ss01" horiz-adv-x="382" 
d="M331 68v-68h-203v422h-105v68h105v137h74v-137h134v-68h-134v-354h129zM373 750l-59 -189h-55l27 189h87z" />
    <glyph glyph-name="tcommaaccent.ss01" horiz-adv-x="382" 
d="M331 68v-68h-203v422h-105v68h105v137h74v-137h134v-68h-134v-354h129zM199 -194h-59l47 137h83z" />
    <glyph glyph-name="tbar.ss01" horiz-adv-x="382" 
d="M331 68v-68h-203v229h-105v68h105v125h-105v68h105v137h74v-137h134v-68h-134v-125h134v-68h-134v-161h129z" />
    <glyph glyph-name="uni0163.ss01" horiz-adv-x="382" 
d="M265 8h-74v-8h-63v422h-105v68h105v137h74v-137h134v-68h-134v-354h129v-68h-66v8zM265 -137h-74v137h74v-137z" />
    <glyph glyph-name="ugrave.ss01" horiz-adv-x="536" 
d="M456 490v-490h-376v490h74v-422h228v422h74zM252 569l-114 131h97l91 -131h-74z" />
    <glyph glyph-name="uacute.ss01" horiz-adv-x="536" 
d="M456 490v-490h-376v490h74v-422h228v422h74zM217 569l91 131h97l-114 -131h-74z" />
    <glyph glyph-name="ucircumflex.ss01" horiz-adv-x="536" 
d="M456 490v-490h-376v490h74v-422h228v422h74zM123 569l97 131h97l97 -131h-74l-72 82l-71 -82h-74z" />
    <glyph glyph-name="utilde.ss01" horiz-adv-x="536" 
d="M456 490v-490h-376v490h74v-422h228v422h74zM359 700h57q0 -49 -21 -76t-54 -27q-13 0 -24 3.5t-18 6.5l-30 12q-11 4 -19 7t-19 3q-15 0 -22 -9.5t-8 -22.5h-57q0 49 20.5 76t54.5 27q13 0 24 -3t18 -6l30 -13q11 -4 18.5 -7t18.5 -3q16 0 23 9.5t8 22.5z" />
    <glyph glyph-name="udieresis.ss01" horiz-adv-x="536" 
d="M456 490v-490h-376v490h74v-422h228v422h74zM126 655q0 22 14.5 37t36.5 15t37 -15t15 -37t-15 -36.5t-37 -14.5t-36.5 14.5t-14.5 36.5zM307 655q0 22 14.5 37t36.5 15t37 -15t15 -37t-15 -36.5t-37 -14.5t-36.5 14.5t-14.5 36.5z" />
    <glyph glyph-name="umacron.ss01" horiz-adv-x="536" 
d="M456 490v-490h-376v490h74v-422h228v422h74zM154 632v68h228v-68h-228z" />
    <glyph glyph-name="ubreve.ss01" horiz-adv-x="536" 
d="M456 490v-490h-376v490h74v-422h228v422h74zM268 558q-62 0 -98.5 40.5t-40.5 101.5h66q4 -34 23 -54t50 -20q32 0 50.5 20t22.5 54h67q-4 -61 -40.5 -101.5t-99.5 -40.5z" />
    <glyph glyph-name="uring.ss01" horiz-adv-x="536" 
d="M456 490v-490h-376v490h74v-422h228v422h74zM191 635q0 34 22.5 55.5t52.5 21.5q33 0 56 -21.5t23 -55.5q0 -31 -22.5 -53.5t-56.5 -22.5q-31 0 -53 22.5t-22 53.5zM239 635q0 -13 8.5 -21t21.5 -8q12 0 20 8t8 21t-8 20.5t-20 7.5q-13 0 -21.5 -7.5t-8.5 -20.5z" />
    <glyph glyph-name="uhungarumlaut.ss01" horiz-adv-x="536" 
d="M456 490v-490h-376v490h74v-422h228v422h74zM140 569l91 131h97l-114 -131h-74zM305 569l91 131h97l-114 -131h-74z" />
    <glyph glyph-name="uogonek.ss01" horiz-adv-x="536" 
d="M324 -125v-55q-6 -1 -15.5 -2.5t-20.5 -1.5q-47 0 -73 21.5t-26 59.5q0 31 17.5 58t43.5 45h-170v490h74v-422h228v422h74v-490h-132q-39 -30 -52 -48.5t-13 -35.5q0 -18 13 -29.5t47 -11.5h5z" />
    <glyph glyph-name="ygrave.ss01" horiz-adv-x="540" 
d="M308 -9v-185h-78v185l-202 499h82l160 -407l160 407h82zM239 569l-114 131h97l91 -131h-74z" />
    <glyph glyph-name="yacute.ss01" horiz-adv-x="540" 
d="M308 -9v-185h-78v185l-202 499h82l160 -407l160 407h82zM227 569l91 131h97l-114 -131h-74z" />
    <glyph glyph-name="ycircumflex.ss01" horiz-adv-x="540" 
d="M308 -9v-185h-78v185l-202 499h82l160 -407l160 407h82zM125 569l97 131h97l97 -131h-74l-72 82l-71 -82h-74z" />
    <glyph glyph-name="ydieresis.ss01" horiz-adv-x="540" 
d="M308 -9v-185h-78v185l-202 499h82l160 -407l160 407h82zM132 655q0 22 14.5 37t36.5 15t37 -15t15 -37t-15 -36.5t-37 -14.5t-36.5 14.5t-14.5 36.5zM313 655q0 22 14.5 37t36.5 15t37 -15t15 -37t-15 -36.5t-37 -14.5t-36.5 14.5t-14.5 36.5z" />
    <glyph glyph-name="f_b.ss01" horiz-adv-x="922" 
d="M865 245q0 -53 -16.5 -99.5t-46.5 -81t-72 -55t-93 -20.5t-93.5 20.5t-73.5 57.5v-67h-72v422h-221v-422h-74v422h-80v68h80v72q0 61 43.5 105.5t108.5 44.5q50 0 88.5 -27t54.5 -69v84h74v-275q31 36 72.5 56.5t92.5 20.5t93 -20.5t72 -55t46.5 -81.5t16.5 -100z
M789 245q0 39 -11 73.5t-31 59.5t-50 39.5t-67 14.5t-67 -14.5t-50.5 -39.5t-31.5 -59.5t-11 -73.5t11 -73.5t31.5 -59.5t50.5 -39.5t67 -14.5t67 14.5t50 39.5t31 59.5t11 73.5zM334 551v10q0 37 -24.5 59.5t-54.5 22.5t-54 -22.5t-24 -59.5v-71h221v61h-64z" />
    <glyph glyph-name="f_f_b.ss01" horiz-adv-x="1217" 
d="M103 422h-80v68h80v72q0 61 43.5 105.5t108.5 44.5q54 0 94 -32t53 -80q13 48 53.5 80t94.5 32q50 0 88.5 -27t54.5 -69v84h74v-275q31 36 72.5 56.5t92.5 20.5t93 -20.5t72 -55t46.5 -81.5t16.5 -100t-16.5 -99.5t-46.5 -81t-72 -55t-93 -20.5t-93.5 20.5t-73.5 57.5
v-67h-72v422h-221v-422h-74v422h-221v-422h-74v422zM1084 245q0 39 -11 73.5t-31 59.5t-50 39.5t-67 14.5t-67 -14.5t-50.5 -39.5t-31.5 -59.5t-11 -73.5t11 -73.5t31.5 -59.5t50.5 -39.5t67 -14.5t67 14.5t50 39.5t31 59.5t11 73.5zM334 551v10q0 37 -24.5 59.5t-54.5 22.5
t-54 -22.5t-24 -59.5v-71h221v61h-64zM629 551v10q0 37 -24.5 59.5t-54.5 22.5t-54 -22.5t-24 -59.5v-71h221v61h-64z" />
    <glyph glyph-name="f_f.ss01" horiz-adv-x="713" 
d="M103 422h-80v68h80v72q0 61 43.5 105.5t108.5 44.5q54 0 94 -32t53 -80q13 48 53.5 80t94.5 32q65 0 109 -44.5t44 -105.5v-11h-74v10q0 37 -24.5 59.5t-54.5 22.5t-54 -22.5t-24 -59.5v-71h231v-68h-231v-422h-74v422h-221v-422h-74v422zM334 551v10q0 37 -24.5 59.5
t-54.5 22.5t-54 -22.5t-24 -59.5v-71h221v61h-64z" />
    <glyph glyph-name="f_h.ss01" horiz-adv-x="865" 
d="M398 700h74v-210h313v-490h-74v422h-239v-422h-74v422h-221v-422h-74v422h-80v68h80v72q0 61 43.5 105.5t108.5 44.5q50 0 88.5 -27t54.5 -69v84zM334 551v10q0 37 -24.5 59.5t-54.5 22.5t-54 -22.5t-24 -59.5v-71h221v61h-64z" />
    <glyph glyph-name="f_f_h.ss01" horiz-adv-x="1160" 
d="M693 700h74v-210h313v-490h-74v422h-239v-422h-74v422h-221v-422h-74v422h-221v-422h-74v422h-80v68h80v72q0 61 43.5 105.5t108.5 44.5q54 0 94 -32t53 -80q13 48 53.5 80t94.5 32q50 0 88.5 -27t54.5 -69v84zM334 551v10q0 37 -24.5 59.5t-54.5 22.5t-54 -22.5
t-24 -59.5v-71h221v61h-64zM629 551v10q0 37 -24.5 59.5t-54.5 22.5t-54 -22.5t-24 -59.5v-71h221v61h-64z" />
    <glyph glyph-name="fi.ss01" horiz-adv-x="550" 
d="M462 0h-74v422h-211v-422h-74v422h-80v68h80v72q0 61 43.5 105.5t108.5 44.5t109 -44.5t44 -105.5v-11h-74v10q0 37 -24.5 59.5t-54.5 22.5t-54 -22.5t-24 -59.5v-71h285v-490z" />
    <glyph glyph-name="f_f_i.ss01" horiz-adv-x="845" 
d="M103 422h-80v68h80v72q0 61 43.5 105.5t108.5 44.5q54 0 94 -32t53 -80q13 48 53.5 80t94.5 32q65 0 109 -44.5t44 -105.5v-11h-74v10q0 37 -24.5 59.5t-54.5 22.5t-54 -22.5t-24 -59.5v-71h285v-490h-74v422h-211v-422h-74v422h-221v-422h-74v422zM334 551v10
q0 37 -24.5 59.5t-54.5 22.5t-54 -22.5t-24 -59.5v-71h221v61h-64z" />
    <glyph glyph-name="f_j.ss01" horiz-adv-x="560" 
d="M462 490v-684h-195v68h120v548h-210v-422h-74v422h-80v68h80v72q0 61 43.5 105.5t108.5 44.5t109 -44.5t44 -105.5v-11h-74v10q0 37 -24.5 59.5t-54.5 22.5t-54 -22.5t-24 -59.5v-71h285z" />
    <glyph glyph-name="f_f_j.ss01" horiz-adv-x="855" 
d="M103 422h-80v68h80v72q0 61 43.5 105.5t108.5 44.5q54 0 94 -32t53 -80q13 48 53.5 80t94.5 32q65 0 109 -44.5t44 -105.5v-11h-74v10q0 37 -24.5 59.5t-54.5 22.5t-54 -22.5t-24 -59.5v-71h285v-684h-195v68h120v548h-210v-422h-74v422h-221v-422h-74v422zM334 551v10
q0 37 -24.5 59.5t-54.5 22.5t-54 -22.5t-24 -59.5v-71h221v61h-64z" />
    <glyph glyph-name="f_k.ss01" horiz-adv-x="836" 
d="M472 0h-74v422h-221v-422h-74v422h-80v68h80v72q0 61 43.5 105.5t108.5 44.5q50 0 88.5 -27t54.5 -69v84h74v-422h122l112 212h81l-129 -245l138 -245h-81l-121 209h-122v-209zM334 551v10q0 37 -24.5 59.5t-54.5 22.5t-54 -22.5t-24 -59.5v-71h221v61h-64z" />
    <glyph glyph-name="f_f_k.ss01" horiz-adv-x="1131" 
d="M103 422h-80v68h80v72q0 61 43.5 105.5t108.5 44.5q54 0 94 -32t53 -80q13 48 53.5 80t94.5 32q50 0 88.5 -27t54.5 -69v84h74v-422h122l112 212h81l-129 -245l138 -245h-81l-121 209h-122v-209h-74v422h-221v-422h-74v422h-221v-422h-74v422zM334 551v10
q0 37 -24.5 59.5t-54.5 22.5t-54 -22.5t-24 -59.5v-71h221v61h-64zM629 551v10q0 37 -24.5 59.5t-54.5 22.5t-54 -22.5t-24 -59.5v-71h221v61h-64z" />
    <glyph glyph-name="fl.ss01" horiz-adv-x="552" 
d="M472 0h-74v422h-221v-422h-74v422h-80v68h80v72q0 61 43.5 105.5t108.5 44.5q50 0 88.5 -27t54.5 -69v84h74v-700zM334 551v10q0 37 -24.5 59.5t-54.5 22.5t-54 -22.5t-24 -59.5v-71h221v61h-64z" />
    <glyph glyph-name="f_f_l.ss01" horiz-adv-x="846" 
d="M103 422h-80v68h80v72q0 61 43.5 105.5t108.5 44.5q54 0 94 -32t53 -80q13 48 53.5 80t94.5 32q50 0 88.5 -27t54.5 -69v84h73v-700h-73v422h-221v-422h-74v422h-221v-422h-74v422zM334 551v10q0 37 -24.5 59.5t-54.5 22.5t-54 -22.5t-24 -59.5v-71h221v61h-64zM472 490
h221v61h-64v10q0 37 -24.5 59.5t-54.5 22.5t-54 -22.5t-24 -59.5v-71z" />
    <glyph glyph-name="f_t.ss01" horiz-adv-x="652" 
d="M601 68v-68h-203v422h-221v-422h-74v422h-80v68h80v72q0 61 43.5 105.5t108.5 44.5q50 0 88.5 -27t54.5 -69v11h74v-137h134v-68h-134v-354h129zM334 551v10q0 37 -24.5 59.5t-54.5 22.5t-54 -22.5t-24 -59.5v-71h221v61h-64z" />
    <glyph glyph-name="f_f_t.ss01" horiz-adv-x="947" 
d="M103 422h-80v68h80v72q0 61 43.5 105.5t108.5 44.5q54 0 94 -32t53 -80q13 48 53.5 80t94.5 32q50 0 88.5 -27t54.5 -69v11h74v-137h134v-68h-134v-354h129v-68h-203v422h-221v-422h-74v422h-221v-422h-74v422zM334 551v10q0 37 -24.5 59.5t-54.5 22.5t-54 -22.5
t-24 -59.5v-71h221v61h-64zM472 490h221v61h-64v10q0 37 -24.5 59.5t-54.5 22.5t-54 -22.5t-24 -59.5v-71z" />
    <glyph glyph-name="t_t.ss01" horiz-adv-x="676" 
d="M625 68v-68h-203v422h-220v-354h129v-68h-203v422h-105v68h105v137h74v-137h220v137h74v-137h134v-68h-134v-354h129z" />
    <glyph glyph-name="t_f.ss01" horiz-adv-x="737" 
d="M331 68v-68h-203v422h-105v68h105v137h74v-137h220v72q0 61 43.5 105.5t108.5 44.5t109 -44.5t44 -105.5v-11h-74v10q0 37 -24.5 59.5t-54.5 22.5t-54 -22.5t-24 -59.5v-71h231v-68h-231v-422h-74v422h-220v-354h129z" />
    <glyph glyph-name="cedilla.ss01" horiz-adv-x="500" 
d="M213 8h74v-145h-74v145z" />
    <glyph glyph-name="cedilla.ss01.cap" horiz-adv-x="500" 
d="M213 8h74v-145h-74v145z" />
    <glyph glyph-name="comma.ss01" horiz-adv-x="307" 
d="M204 85l-103 -233l-78 34l102 234z" />
    <glyph glyph-name="semicolon.ss01" horiz-adv-x="308" 
d="M91 439q0 27 18.5 45t44.5 18t44.5 -18t18.5 -45q0 -26 -18.5 -44t-44.5 -18t-44.5 18t-18.5 44zM204 85l-103 -233l-78 34l102 234z" />
    <glyph glyph-name="colon.ss01" horiz-adv-x="326" 
d="M91 51q0 27 18.5 45t44.5 18t44.5 -18t18.5 -45q0 -26 -18.5 -44t-44.5 -18t-44.5 18t-18.5 44zM91 439q0 27 18.5 45t44.5 18t44.5 -18t18.5 -45q0 -26 -18.5 -44t-44.5 -18t-44.5 18t-18.5 44z" />
    <glyph glyph-name="period.ss01" horiz-adv-x="308" 
d="M91 51q0 27 18.5 45t44.5 18t44.5 -18t18.5 -45q0 -26 -18.5 -44t-44.5 -18t-44.5 18t-18.5 44z" />
    <glyph glyph-name="ellipsis.ss01" horiz-adv-x="769" 
d="M91 51q0 27 18.5 45t44.5 18t44.5 -18t18.5 -45q0 -26 -18.5 -44t-44.5 -18t-44.5 18t-18.5 44zM346 51q0 27 18.5 45t44.5 18t44.5 -18t18.5 -45q0 -26 -18.5 -44t-44.5 -18t-44.5 18t-18.5 44zM602 51q0 27 18.5 45t44.5 18t44.5 -18t18.5 -45q0 -26 -18.5 -44
t-44.5 -18t-44.5 18t-18.5 44z" />
    <glyph glyph-name="exclam.ss01" horiz-adv-x="308" 
d="M192 228h-77v472h77v-472zM91 51q0 27 18.5 45t44.5 18t44.5 -18t18.5 -45q0 -26 -18.5 -44t-44.5 -18t-44.5 18t-18.5 44z" />
    <glyph glyph-name="exclamdown.ss01" horiz-adv-x="308" 
d="M116 262h77v-456h-77v456zM217 439q0 -26 -18.5 -44.5t-44.5 -18.5t-44.5 18.5t-18.5 44.5t18.5 44.5t44.5 18.5t44.5 -18.5t18.5 -44.5z" />
    <glyph glyph-name="exclamdown.cap.ss01" horiz-adv-x="308" 
d="M115 472h77v-472h-77v472zM91 649q0 26 18.5 44t44.5 18t44.5 -18t18.5 -44q0 -27 -18.5 -45t-44.5 -18t-44.5 18t-18.5 45z" />
    <glyph glyph-name="question.ss01" horiz-adv-x="534" 
d="M221 272h-24v70h22q46 0 80.5 14t57 36t34 50t11.5 55q0 59 -42.5 101.5t-102.5 42.5t-104 -29.5t-74 -76.5l-49 53q37 54 94.5 89t132.5 35q46 0 86.5 -16.5t70.5 -45t47.5 -67.5t17.5 -83q0 -40 -16.5 -81t-49 -73.5t-81 -53t-111.5 -20.5zM298 52q0 -26 -18 -44.5
t-45 -18.5q-26 0 -44.5 18.5t-18.5 44.5t18.5 44.5t44.5 18.5q27 0 45 -18.5t18 -44.5z" />
    <glyph glyph-name="questiondown.ss01" horiz-adv-x="534" 
d="M288 225h24v-70h-22q-92 0 -137.5 -45.5t-45.5 -108.5q0 -54 42.5 -94.5t102.5 -40.5t104 29.5t74 76.5l49 -53q-37 -54 -94.5 -89t-132.5 -35q-47 0 -88 16t-70.5 43.5t-46.5 65t-17 81.5t16.5 84.5t49 71.5t81 49.5t111.5 18.5zM211 439q0 26 18 44.5t45 18.5
q26 0 44.5 -18.5t18.5 -44.5t-18.5 -44.5t-44.5 -18.5q-27 0 -45 18.5t-18 44.5z" />
    <glyph glyph-name="questiondown.cap.ss01" horiz-adv-x="534" 
d="M313 429h24v-70h-22q-46 0 -80.5 -14t-57 -36t-34 -50t-11.5 -55q0 -59 42.5 -101.5t102.5 -42.5t104 29.5t74 76.5l49 -53q-37 -54 -94.5 -89t-132.5 -35q-46 0 -86.5 16.5t-70.5 45t-47.5 67.5t-17.5 83q0 40 16.5 81t49 73.5t81 53t111.5 20.5zM236 649q0 26 18 44.5
t45 18.5q26 0 44.5 -18.5t18.5 -44.5t-18.5 -44.5t-44.5 -18.5q-27 0 -45 18.5t-18 44.5z" />
    <glyph glyph-name="quoteleft.ss01" horiz-adv-x="259" 
d="M213 685l-93 -229l-74 32l104 224z" />
    <glyph glyph-name="quoteright.ss01" horiz-adv-x="259" 
d="M46 483l93 229l74 -32l-104 -224z" />
    <glyph glyph-name="quotedblleft.ss01" horiz-adv-x="421" 
d="M213 685l-93 -229l-74 32l104 224zM375 679l-93 -229l-75 32l105 225z" />
    <glyph glyph-name="quotedblright.ss01" horiz-adv-x="421" 
d="M208 478l93 229l74 -32l-104 -224zM46 484l93 229l75 -32l-105 -225z" />
    <glyph glyph-name="quotesinglbase.ss01" horiz-adv-x="259" 
d="M46 -109l93 229l74 -32l-105 -225z" />
    <glyph glyph-name="quotedblbase.ss01" horiz-adv-x="421" 
d="M208 -115l93 229l74 -32l-104 -224zM46 -109l93 229l75 -32l-105 -225z" />
    <glyph glyph-name="periodcentered.ss01" horiz-adv-x="308" 
d="M91 261q0 27 18.5 45t44.5 18t44.5 -18t18.5 -45q0 -26 -18.5 -44t-44.5 -18t-44.5 18t-18.5 44z" />
    <glyph glyph-name="periodcentered.cap.ss01" horiz-adv-x="308" 
d="M91 350q0 27 18.5 45t44.5 18t44.5 -18t18.5 -45q0 -26 -18.5 -44t-44.5 -18t-44.5 18t-18.5 44z" />
    </font>
</defs>
</svg>
