<svg xmlns="http://www.w3.org/2000/svg">
<defs>
<font id="Maax-BoldItalic" horiz-adv-x="600" >
  <font-face 
    font-family="Maax Regular"
    font-weight="700"
    font-style="italic"
    font-stretch="normal"
    units-per-em="1000"
    panose-1="2 0 0 0 0 0 0 0 0 0"
    ascent="750"
    descent="-250"
    x-height="490"
    cap-height="700"
    bbox="-86 -211 1569 1008"
    underline-thickness="0"
    underline-position="0"
    unicode-range="U+000D-FB05"
  />
<missing-glyph horiz-adv-x="649" 
d="M323 202q13 0 21.5 -9t8.5 -22t-8.5 -22.5t-21.5 -9.5t-22 9.5t-9 22.5t9 22t22 9zM332 153h8l-9 13q4 1 6 4.5t2 7.5q0 5 -3.5 8.5t-9.5 3.5h-17v-37h8v12h7zM175 400q7 -12 3 -25.5t-16 -20.5q-13 -7 -26.5 -4t-20.5 16t-3 26t16 20q13 7 26.5 4t20.5 -16zM324 184
q4 0 6 -2t2 -4q0 -4 -2 -5.5t-6 -1.5h-7v13h7zM290 412q10 6 21 4t21 -10l-29 -92q-4 4 -7.5 9t-7.5 11q-14 25 -14.5 46.5t16.5 31.5zM344 394q4 -4 7.5 -9t6.5 -11q14 -25 14.5 -46.5t-15.5 -31.5q-10 -5 -20.5 -3.5t-20.5 9.5zM324 684l285 -164v-328l-285 -164l-284 164
v328zM338 561v-75h8v34h36v8h-36v25h39v8h-47zM260 561v-8h23v-67h8v67h24v8h-55zM157 259l89 51l-8 15l-68 -40l20 69q4 15 5 28.5t-6 26.5q-10 18 -30 22.5t-39 -5.5q-18 -10 -23.5 -30t4.5 -38t29.5 -23.5t35.5 4.5l4 3l-20 -70zM323 130q16 0 28 12t12 29q0 16 -12 28
t-28 12q-17 0 -28.5 -12t-11.5 -28q0 -17 11.5 -29t28.5 -12zM365 282q26 16 25 45t-17 56q-16 28 -40.5 43t-50.5 0t-25.5 -44t16.5 -56q16 -28 40.5 -43.5t51.5 -0.5zM523 281q24 13 28.5 35t-6.5 40q-12 22 -33 25.5t-37 -6.5q-9 -5 -14.5 -12t-8.5 -15l-26 46l63 37
l-8 14l-78 -45l47 -82l14 8q-1 9 3 18.5t15 15.5q13 7 27 4t22 -16q7 -15 3 -29.5t-18 -22.5q-12 -7 -22.5 -6.5t-20.5 5.5l-5 -17q11 -4 25.5 -5t29.5 8z" />
    <glyph glyph-name="f_f" unicode="ff" horiz-adv-x="687" 
d="M362 712q17 0 27 -0.5l10 -0.5l-19 -134h-24q-48 0 -70.5 -17t-26.5 -54l-2 -16h182l4 25q16 101 82 149t161 48q17 0 27 -0.5l10 -0.5l-19 -134h-24q-48 0 -70.5 -17t-26.5 -54l-2 -16h106l-18 -131h-106l-52 -359h-141l50 359h-181l-52 -359h-141l50 359h-64l18 131h65
l4 25q16 101 82 149t161 48z" />
    <glyph glyph-name="fi" unicode="fi" horiz-adv-x="616" 
d="M370 0l50 359h-181l-52 -359h-141l50 359h-64l18 131h65l4 25q16 101 82 149t161 48q17 0 27 -0.5l10 -0.5l-19 -134h-24q-48 0 -70.5 -17t-26.5 -54l-2 -16h325l-69 -490h-143zM447 629q0 34 24 58.5t58 24.5t58.5 -24.5t24.5 -58.5t-24.5 -58t-58.5 -24t-58 24t-24 58z
" />
    <glyph glyph-name="fl" unicode="fl" horiz-adv-x="633" 
d="M362 700h270l-98 -700h-142l78 566h-114q-48 0 -70.5 -11.5t-26.5 -48.5l-2 -16h106l-18 -131h-106l-52 -359h-141l50 359h-64l18 131h65l4 25q16 101 82 143t161 42z" />
    <glyph glyph-name="f_f_i" unicode="ffi" horiz-adv-x="940" 
d="M362 712q17 0 27 -0.5l10 -0.5l-19 -134h-24q-48 0 -70.5 -17t-26.5 -54l-2 -16h182l4 25q16 101 82 149t161 48q17 0 27 -0.5l10 -0.5l-19 -134h-24q-48 0 -70.5 -17t-26.5 -54l-2 -16h325l-69 -490h-143l50 359h-181l-52 -359h-141l50 359h-181l-52 -359h-141l50 359
h-64l18 131h65l4 25q16 101 82 149t161 48zM771 629q0 34 24 58.5t58 24.5t58.5 -24.5t24.5 -58.5t-24.5 -58t-58.5 -24t-58 24t-24 58z" />
    <glyph glyph-name="f_f_l" unicode="ffl" horiz-adv-x="936" 
d="M694 0l80 566h-94q-48 0 -70.5 -11.5t-26.5 -48.5l-2 -16h106l-18 -131h-106l-52 -359h-141l50 359h-181l-52 -359h-141l50 359h-64l18 131h65l4 25q16 101 82 149t161 48q17 0 27 -0.5l10 -0.5l-19 -134h-24q-48 0 -70.5 -17t-26.5 -54l-2 -16h182l4 25q16 101 82 143
t161 42h249l-99 -700h-142z" />
    <glyph glyph-name="f_t" unicode="ft" horiz-adv-x="692" 
d="M362 712q17 0 27 -0.5l10 -0.5l-19 -134h-24q-48 0 -70.5 -17t-26.5 -54l-2 -16h181l20 137h141l-20 -137h109l-18 -131h-109l-24 -172q-5 -37 10.5 -47t46.5 -10h42l-18 -130l-24.5 -1t-53.5 -1q-87 0 -122 50.5t-23 134.5l25 176h-181l-52 -359h-141l50 359h-64l18 131
h65l4 25q16 101 82 149t161 48z" />
    <glyph glyph-name="f_b" unicode="fb" horiz-adv-x="953" 
d="M921 268q0 -63 -22.5 -114.5t-60.5 -88t-88.5 -56.5t-106.5 -20q-41 0 -74.5 13.5t-52.5 35.5l-6 -38h-140l80 566h-94q-48 0 -70.5 -11.5t-26.5 -48.5l-2 -16h106l-18 -131h-106l-52 -359h-141l50 359h-64l18 131h65l4 25q16 101 82 143t161 42h249l-34 -241
q21 16 53 29.5t74 13.5q46 0 85.5 -18t68.5 -49t46 -74t17 -93zM543 226q0 -49 27.5 -79t70.5 -30q54 0 93.5 41.5t39.5 105.5q0 49 -27.5 79t-71.5 30q-54 0 -93 -41.5t-39 -105.5z" />
    <glyph glyph-name="f_f_b" unicode="ffb" horiz-adv-x="1277" 
d="M1245 268q0 -63 -22.5 -114.5t-60.5 -88t-88.5 -56.5t-106.5 -20q-41 0 -74.5 13.5t-52.5 35.5l-6 -38h-140l80 566h-94q-48 0 -70.5 -11.5t-26.5 -48.5l-2 -16h106l-18 -131h-106l-52 -359h-141l50 359h-181l-52 -359h-141l50 359h-64l18 131h65l4 25q16 101 82 149
t161 48q17 0 27 -0.5l10 -0.5l-19 -134h-24q-48 0 -70.5 -17t-26.5 -54l-2 -16h182l4 25q16 101 82 143t161 42h249l-34 -241q21 16 53 29.5t74 13.5q46 0 85.5 -18t68.5 -49t46 -74t17 -93zM867 226q0 -49 27.5 -79t70.5 -30q54 0 93.5 41.5t39.5 105.5q0 49 -27.5 79
t-71.5 30q-54 0 -93 -41.5t-39 -105.5z" />
    <glyph glyph-name="f_h" unicode="fh" horiz-adv-x="914" 
d="M546 245l-34 -245h-142l80 566h-94q-48 0 -70.5 -11.5t-26.5 -48.5l-2 -16h106l-18 -131h-106l-52 -359h-141l50 359h-64l18 131h65l4 25q16 101 82 143t161 42h249l-35 -242q23 19 55 31.5t67 12.5q79 0 124 -52t45 -137q0 -11 -1.5 -23.5t-2.5 -24.5l-37 -265h-143
l39 274q1 5 1 10.5v10.5q0 32 -16 53.5t-53 21.5q-50 0 -75 -34.5t-33 -90.5z" />
    <glyph glyph-name="f_f_h" unicode="ffh" horiz-adv-x="1238" 
d="M362 712q17 0 27 -0.5l10 -0.5l-19 -134h-24q-48 0 -70.5 -17t-26.5 -54l-2 -16h182l4 25q16 101 82 143t161 42h249l-35 -242q23 19 55 31.5t67 12.5q79 0 124 -52t45 -137q0 -11 -1.5 -23.5t-2.5 -24.5l-37 -265h-143l39 274q1 5 1 10.5v10.5q0 32 -16 53.5t-53 21.5
q-50 0 -75 -34.5t-33 -90.5l-34 -245h-142l80 566h-94q-48 0 -70.5 -11.5t-26.5 -48.5l-2 -16h106l-18 -131h-106l-52 -359h-141l50 359h-181l-52 -359h-141l50 359h-64l18 131h65l4 25q16 101 82 149t161 48z" />
    <glyph glyph-name="f_j" unicode="fj" horiz-adv-x="607" 
d="M368 -13l52 372h-181l-52 -359h-141l50 359h-64l18 131h65l4 25q16 101 82 149t161 48q17 0 27 -0.5l10 -0.5l-19 -134h-24q-48 0 -70.5 -17t-26.5 -54l-2 -16h324l-74 -520q-12 -84 -60.5 -129.5t-135.5 -45.5q-28 0 -47 1l-19 1l18 130h31q31 0 50 11.5t24 48.5z
M446 629q0 34 24 58.5t58 24.5t58.5 -24.5t24.5 -58.5t-24.5 -58t-58.5 -24t-58 24t-24 58z" />
    <glyph glyph-name="f_f_j" unicode="ffj" horiz-adv-x="931" 
d="M362 712q17 0 27 -0.5l10 -0.5l-19 -134h-24q-48 0 -70.5 -17t-26.5 -54l-2 -16h182l4 25q16 101 82 149t161 48q17 0 27 -0.5l10 -0.5l-19 -134h-24q-48 0 -70.5 -17t-26.5 -54l-2 -16h324l-74 -520q-12 -84 -60.5 -129.5t-135.5 -45.5q-28 0 -47 1l-19 1l18 130h31
q31 0 50 11.5t24 48.5l52 372h-181l-52 -359h-141l50 359h-181l-52 -359h-141l50 359h-64l18 131h65l4 25q16 101 82 149t161 48zM770 629q0 34 24 58.5t58 24.5t58.5 -24.5t24.5 -58.5t-24.5 -58t-58.5 -24t-58 24t-24 58z" />
    <glyph glyph-name="f_k" unicode="fk" horiz-adv-x="889" 
d="M370 0l80 566h-94q-48 0 -70.5 -11.5t-26.5 -48.5l-2 -16h106l-18 -131h-106l-52 -359h-141l50 359h-64l18 131h65l4 25q16 101 82 143t161 42h249l-51 -356l148 146h188l-210 -202l149 -288h-162l-94 194l-46 -44l-21 -150h-142z" />
    <glyph glyph-name="f_f_k" unicode="ffk" horiz-adv-x="1213" 
d="M694 0l80 566h-94q-48 0 -70.5 -11.5t-26.5 -48.5l-2 -16h106l-18 -131h-106l-52 -359h-141l50 359h-181l-52 -359h-141l50 359h-64l18 131h65l4 25q16 101 82 149t161 48q17 0 27 -0.5l10 -0.5l-19 -134h-24q-48 0 -70.5 -17t-26.5 -54l-2 -16h182l4 25q16 101 82 143
t161 42h249l-51 -356l148 146h188l-210 -202l149 -288h-162l-94 194l-46 -44l-21 -150h-142z" />
    <glyph glyph-name="f_f_t" unicode="fft" horiz-adv-x="1017" 
d="M865 -2q-87 0 -122 50.5t-23 134.5l25 176h-182l-52 -359h-141l50 359h-181l-52 -359h-141l50 359h-64l18 131h65l4 25q16 101 82 149t161 48q17 0 27 -0.5l10 -0.5l-19 -134h-24q-48 0 -70.5 -17t-26.5 -54l-2 -16h182l4 25q16 101 82 149t161 48q17 0 27 -0.5l10 -0.5
l-19 -134h-24q-48 0 -70.5 -17t-26.5 -54l-2 -16h182l20 137h141l-20 -137h109l-18 -131h-109l-24 -172q-5 -37 10.5 -47t46.5 -10h42l-18 -130l-24.5 -1t-53.5 -1z" />
    <glyph glyph-name="t_t" unicode="tt" horiz-adv-x="700" 
d="M224 -2q-87 0 -122 50.5t-23 134.5l25 176h-64l18 131h64l20 137h141l-20 -137h183l20 137h141l-20 -137h109l-18 -131h-109l-24 -172q-5 -37 10.5 -47t46.5 -10h42l-18 -130l-24.5 -1t-53.5 -1q-87 0 -122 50.5t-23 134.5l25 176h-183l-24 -172q-5 -37 10.5 -47
t46.5 -10h42l-18 -130l-24.5 -1t-53.5 -1z" />
    <glyph glyph-name="t_f" unicode="tf" horiz-adv-x="694" 
d="M224 -2q-87 0 -122 50.5t-23 134.5l25 176h-64l18 131h64l20 137h141l-20 -137h183l4 25q16 101 82 149t161 48q17 0 27 -0.5l10 -0.5l-19 -134h-24q-48 0 -70.5 -17t-26.5 -54l-2 -16h106l-18 -131h-106l-52 -359h-141l50 359h-182l-24 -172q-5 -37 10.5 -47t46.5 -10
h42l-18 -130l-24.5 -1t-53.5 -1z" />
    <glyph glyph-name=".notdef" horiz-adv-x="649" 
d="M323 202q13 0 21.5 -9t8.5 -22t-8.5 -22.5t-21.5 -9.5t-22 9.5t-9 22.5t9 22t22 9zM332 153h8l-9 13q4 1 6 4.5t2 7.5q0 5 -3.5 8.5t-9.5 3.5h-17v-37h8v12h7zM175 400q7 -12 3 -25.5t-16 -20.5q-13 -7 -26.5 -4t-20.5 16t-3 26t16 20q13 7 26.5 4t20.5 -16zM324 184
q4 0 6 -2t2 -4q0 -4 -2 -5.5t-6 -1.5h-7v13h7zM290 412q10 6 21 4t21 -10l-29 -92q-4 4 -7.5 9t-7.5 11q-14 25 -14.5 46.5t16.5 31.5zM344 394q4 -4 7.5 -9t6.5 -11q14 -25 14.5 -46.5t-15.5 -31.5q-10 -5 -20.5 -3.5t-20.5 9.5zM324 684l285 -164v-328l-285 -164l-284 164
v328zM338 561v-75h8v34h36v8h-36v25h39v8h-47zM260 561v-8h23v-67h8v67h24v8h-55zM157 259l89 51l-8 15l-68 -40l20 69q4 15 5 28.5t-6 26.5q-10 18 -30 22.5t-39 -5.5q-18 -10 -23.5 -30t4.5 -38t29.5 -23.5t35.5 4.5l4 3l-20 -70zM323 130q16 0 28 12t12 29q0 16 -12 28
t-28 12q-17 0 -28.5 -12t-11.5 -28q0 -17 11.5 -29t28.5 -12zM365 282q26 16 25 45t-17 56q-16 28 -40.5 43t-50.5 0t-25.5 -44t16.5 -56q16 -28 40.5 -43.5t51.5 -0.5zM523 281q24 13 28.5 35t-6.5 40q-12 22 -33 25.5t-37 -6.5q-9 -5 -14.5 -12t-8.5 -15l-26 46l63 37
l-8 14l-78 -45l47 -82l14 8q-1 9 3 18.5t15 15.5q13 7 27 4t22 -16q7 -15 3 -29.5t-18 -22.5q-12 -7 -22.5 -6.5t-20.5 5.5l-5 -17q11 -4 25.5 -5t29.5 8z" />
    <glyph glyph-name=".null" horiz-adv-x="0" 
 />
    <glyph glyph-name="nonmarkingreturn" horiz-adv-x="333" 
 />
    <glyph glyph-name="CR" unicode="&#xd;" horiz-adv-x="280" 
 />
    <glyph glyph-name="space" unicode=" " horiz-adv-x="280" 
 />
    <glyph glyph-name="exclam" unicode="!" horiz-adv-x="332" 
d="M84 226l67 474h147l-67 -474h-147zM49 75q0 36 24.5 61t60.5 25t61.5 -25t25.5 -61t-25.5 -61t-61.5 -25t-60.5 25t-24.5 61z" />
    <glyph glyph-name="quotedbl" unicode="&#x22;" horiz-adv-x="478" 
d="M110 700h142l-39 -279h-142zM332 700h142l-39 -279h-142z" />
    <glyph glyph-name="numbersign" unicode="#" horiz-adv-x="852" 
d="M54 291h138l53 121h-122l18 132h158l68 156h151l-67 -156h132l66 156h153l-68 -156h101l-18 -132h-137l-52 -121h120l-19 -134h-157l-66 -157h-153l68 157h-133l-67 -157h-152l68 157h-102zM396 412l-52 -121h132l53 121h-133z" />
    <glyph glyph-name="dollar" unicode="$" horiz-adv-x="644" 
d="M457 815l-16 -112q62 -13 108.5 -42.5t74.5 -63.5l-109 -99q-17 21 -41 37.5t-52 26.5l-21 -145q100 -19 148.5 -70.5t48.5 -129.5q0 -93 -69 -155t-188 -71l-14 -105h-111l15 109q-72 13 -128.5 48t-88.5 80l108 97q25 -31 57 -54t72 -33l22 160l-8 2q-86 19 -134.5 68
t-48.5 127q0 50 20.5 89.5t54.5 67.5t79 44t95 20l15 104h111zM448 208q0 20 -16 35.5t-52 25.5l-19 -140q41 8 64 29.5t23 49.5zM232 500q0 -19 14 -34.5t48 -25.5l18 133q-37 -6 -58.5 -25.5t-21.5 -47.5z" />
    <glyph glyph-name="percent" unicode="%" horiz-adv-x="823" 
d="M80 551q0 69 50 115t120 46q62 0 98.5 -41t36.5 -98q0 -69 -49 -116t-118 -47q-63 0 -100.5 41t-37.5 100zM190 555q0 -17 10.5 -28t26.5 -11q19 0 33.5 14.5t14.5 36.5q0 18 -11.5 28.5t-24.5 10.5q-19 0 -34 -14t-15 -37zM81 0l530 700h152l-529 -700h-153zM458 131
q0 69 50 115t120 46q62 0 98.5 -41t36.5 -98q0 -69 -49 -116t-118 -47q-63 0 -100.5 41t-37.5 100zM568 135q0 -17 10.5 -28t26.5 -11q19 0 33.5 14.5t14.5 36.5q0 18 -11.5 28.5t-24.5 10.5q-19 0 -34 -14t-15 -37z" />
    <glyph glyph-name="ampersand" unicode="&#x26;" horiz-adv-x="714" 
d="M465 0l-31 45q-43 -31 -89.5 -43.5t-98.5 -12.5t-92.5 16.5t-67.5 44t-41 62t-14 70.5q0 73 44 125t110 89l20 11q-21 34 -33 65.5t-12 65.5q0 76 57 125t152 49q38 0 70 -12.5t55 -33.5t35.5 -49t12.5 -59q0 -61 -32.5 -100.5t-99.5 -82.5l-11 -7l69 -102q14 23 24.5 44
t23.5 55h147q-19 -54 -49 -113t-73 -108l91 -144h-167zM262 121q28 0 55 9.5t46 24.5l-89 143l-17 -10q-31 -18 -53.5 -39t-22.5 -55q0 -31 21 -52t60 -21zM358 579q-20 0 -34 -13t-14 -34q0 -13 5 -27t15 -29l4 -6l8 5q27 17 42 32t15 35q0 16 -10.5 26.5t-30.5 10.5z" />
    <glyph glyph-name="quotesingle" unicode="'" horiz-adv-x="256" 
d="M110 700h142l-39 -279h-142z" />
    <glyph glyph-name="parenleft" unicode="(" horiz-adv-x="390" 
d="M210 183q0 -86 26 -163.5t83 -140.5l-99 -84q-31 32 -58.5 74t-48.5 91t-33.5 105.5t-12.5 116.5q0 82 21.5 159.5t59 146t90 128.5t113.5 109l85 -94q-103 -91 -164.5 -204.5t-61.5 -243.5z" />
    <glyph glyph-name="parenright" unicode=")" horiz-adv-x="390" 
d="M180 337q0 86 -26 163.5t-83 140.5l99 84q31 -32 58.5 -74t48.5 -91t33.5 -105.5t12.5 -116.5q0 -82 -21.5 -159.5t-59 -146t-90 -128.5t-113.5 -109l-85 94q103 91 164.5 204.5t61.5 243.5z" />
    <glyph glyph-name="asterisk" unicode="*" horiz-adv-x="481" 
d="M355 560l66 -88l-98 -70l-57 98l-73 -98l-88 74l85 89l-103 28l34 106l109 -36l10 112h118l-20 -112l109 30l25 -107z" />
    <glyph glyph-name="plus" unicode="+" horiz-adv-x="609" 
d="M45 180l19 132h178l25 178h132l-25 -178h180l-19 -132h-180l-25 -180h-132l25 180h-178z" />
    <glyph glyph-name="comma" unicode="," horiz-adv-x="280" 
d="M71 -138h-142l133 258h166z" />
    <glyph glyph-name="hyphen" unicode="-" horiz-adv-x="280" 
d="M15 198l18 128h242l-18 -128h-242z" />
    <glyph glyph-name="period" unicode="." horiz-adv-x="280" 
d="M25 76q0 36 24.5 61t60.5 25t61.5 -25t25.5 -61t-25.5 -61t-61.5 -25t-60.5 25t-24.5 61z" />
    <glyph glyph-name="slash" unicode="/" horiz-adv-x="567" 
d="M124 -93h-154l473 843h154z" />
    <glyph glyph-name="zero" unicode="0" horiz-adv-x="648" 
d="M460 423q0 71 -26.5 112t-77.5 41q-50 0 -82.5 -32t-51 -77.5t-26 -97t-7.5 -89.5q0 -72 26 -113.5t78 -41.5q49 0 81 33.5t51 80.5t27 98t8 86zM370 712q57 0 101.5 -22t74.5 -60t46 -91t16 -115q0 -76 -19.5 -153.5t-60 -140t-103 -102t-146.5 -39.5q-57 0 -102 21.5
t-75 59t-46 90.5t-16 115q0 77 20 155.5t60.5 140.5t103 101.5t146.5 39.5z" />
    <glyph glyph-name="one" unicode="1" horiz-adv-x="550" 
d="M27 137h171l54 378q-32 -19 -79.5 -31.5t-98.5 -12.5l19 133q53 2 110 23.5t89 72.5h134l-80 -563h165l-19 -137h-484z" />
    <glyph glyph-name="two" unicode="2" horiz-adv-x="598" 
d="M191 137h331l-19 -137h-501l3 23q16 123 77.5 213t201.5 154l42 19q60 28 81 51.5t21 52.5q0 26 -22.5 44.5t-64.5 18.5q-52 0 -98 -30t-80 -82l-84 98q44 66 117 108t157 42q45 0 86 -13.5t72 -39t49.5 -62t18.5 -81.5q0 -91 -55.5 -142t-145.5 -94l-65 -31
q-48 -23 -78.5 -47t-43.5 -65z" />
    <glyph glyph-name="three" unicode="3" horiz-adv-x="567" 
d="M432 357q30 -19 54.5 -57t24.5 -89q0 -54 -22 -95.5t-60.5 -69.5t-90.5 -42.5t-111 -14.5q-75 0 -137.5 30t-102.5 86l105 93q31 -40 68 -56.5t80 -16.5q51 0 86.5 23.5t35.5 66.5q0 33 -29 52.5t-93 19.5h-58l20 138h47q75 0 106 25t31 62q0 28 -21.5 46t-60.5 18
q-44 0 -81 -16.5t-70 -51.5l-83 97q46 45 109.5 76t138.5 31q43 0 83 -12t70.5 -35.5t49 -58.5t18.5 -79q0 -68 -33.5 -106.5t-73.5 -63.5z" />
    <glyph glyph-name="four" unicode="4" horiz-adv-x="628" 
d="M576 148h-97l-21 -148h-148l21 148h-315l17 122l361 430h163l-60 -421h97zM195 279h154l32 224z" />
    <glyph glyph-name="five" unicode="5" horiz-adv-x="611" 
d="M414 241q0 41 -27.5 68.5t-73.5 27.5q-35 0 -65.5 -16.5t-49.5 -50.5h-137l77 430h433l-19 -137h-294l-24 -128q25 15 49 23.5t63 8.5q44 0 83.5 -16t69.5 -45t48 -69t18 -87q0 -61 -23.5 -109.5t-64 -82t-97 -51.5t-122.5 -18q-77 0 -134 32t-94 84l112 97
q22 -32 56 -54.5t83 -22.5q54 0 93.5 32.5t39.5 83.5z" />
    <glyph glyph-name="six" unicode="6" horiz-adv-x="620" 
d="M289 -11q-113 0 -181 79.5t-68 215.5q0 95 26 174t72.5 135t112.5 87.5t144 31.5q66 0 118.5 -29t81.5 -69l-106 -96q-17 25 -47.5 41.5t-71.5 16.5q-61 0 -112 -48t-64 -127q29 29 70 46.5t91 17.5q44 0 83 -16.5t67.5 -45t45 -68.5t16.5 -87q0 -60 -23 -108.5
t-61 -81.5t-89 -51t-105 -18zM418 243q0 40 -25.5 65t-66.5 25q-49 0 -85 -33t-36 -84q0 -40 25.5 -65.5t66.5 -25.5q49 0 85 33.5t36 84.5z" />
    <glyph glyph-name="seven" unicode="7" horiz-adv-x="575" 
d="M58 457l34 243h512l-18 -129q-118 -107 -197 -240.5t-114 -290.5l-9 -40h-150l9 39q38 166 106.5 293t169.5 231h-184l-15 -106h-144z" />
    <glyph glyph-name="eight" unicode="8" horiz-adv-x="622" 
d="M262 -11q-100 0 -163 55t-63 141q0 35 10.5 64t27 52t38 39t42.5 26q-25 19 -41.5 51.5t-16.5 71.5q0 50 20.5 91.5t55.5 70.5t83 45t102 16q49 0 89 -15.5t68.5 -42t44 -63t15.5 -77.5q0 -61 -31 -99.5t-65 -60.5q27 -18 48.5 -54t21.5 -81q0 -54 -21 -97t-58.5 -72
t-90.5 -45t-116 -16zM424 509q0 32 -24 49.5t-55 17.5q-37 0 -69 -22t-32 -63q0 -32 24.5 -49.5t55.5 -17.5q37 0 68.5 22.5t31.5 62.5zM186 199q0 -35 26.5 -54.5t69.5 -19.5q51 0 84.5 25t33.5 69q0 34 -26 54.5t-69 20.5q-50 0 -84.5 -26t-34.5 -69z" />
    <glyph glyph-name="nine" unicode="9" horiz-adv-x="620" 
d="M331 712q113 0 181 -79.5t68 -215.5q0 -95 -26 -174t-72.5 -135t-112.5 -87.5t-144 -31.5q-66 0 -118.5 29t-81.5 69l106 96q17 -25 47.5 -41.5t71.5 -16.5q61 0 112 48t64 127q-29 -29 -70 -46.5t-91 -17.5q-44 0 -83 16.5t-67.5 45t-45 68.5t-16.5 87q0 60 23 108.5
t61 81.5t89 51t105 18zM202 458q0 -40 25.5 -65t66.5 -25q49 0 85 33t36 84q0 40 -25.5 65.5t-66.5 25.5q-49 0 -85 -33.5t-36 -84.5z" />
    <glyph glyph-name="colon" unicode=":" horiz-adv-x="280" 
d="M25 75q0 36 24.5 61t60.5 25t61.5 -25t25.5 -61t-25.5 -61t-61.5 -25t-60.5 25t-24.5 61zM73 416q0 36 24.5 61t60.5 25t61.5 -25t25.5 -61t-25.5 -61t-61.5 -25t-60.5 25t-24.5 61z" />
    <glyph glyph-name="semicolon" unicode=";" horiz-adv-x="280" 
d="M73 416q0 36 24.5 61t60.5 25t61.5 -25t25.5 -61t-25.5 -61t-61.5 -25t-60.5 25t-24.5 61zM61 -138h-142l133 258h166z" />
    <glyph glyph-name="less" unicode="&#x3c;" horiz-adv-x="630" 
d="M45 171l21 148l529 183l-22 -150l-346 -110l315 -111l-20 -142z" />
    <glyph glyph-name="equal" unicode="=" horiz-adv-x="639" 
d="M75 297l19 132h490l-19 -132h-490zM45 82l19 132h490l-19 -132h-490z" />
    <glyph glyph-name="greater" unicode="&#x3e;" horiz-adv-x="630" 
d="M585 320l-21 -148l-529 -183l22 150l346 110l-315 111l20 142z" />
    <glyph glyph-name="question" unicode="?" horiz-adv-x="552" 
d="M312 226h-146l26 180h47q60 0 104.5 28t44.5 74q0 30 -24 48.5t-61 18.5q-48 0 -85.5 -22t-67.5 -59l-80 100q44 54 110.5 86t141.5 32q46 0 85.5 -15.5t68 -42.5t45 -64t16.5 -80q0 -87 -61 -147.5t-155 -73.5zM135 76q0 36 24.5 61t60.5 25t61.5 -25t25.5 -61
t-25.5 -61t-61.5 -25t-60.5 25t-24.5 61z" />
    <glyph glyph-name="at" unicode="@" horiz-adv-x="1065" 
d="M644 53q-23 -19 -63.5 -41.5t-103.5 -22.5q-47 0 -86.5 17.5t-67 48t-43 73t-15.5 91.5q0 61 22 113.5t59 90t87.5 58.5t106.5 21q43 0 74 -13t49 -32l5 33h136l-45 -321q-4 -28 1 -47t32 -19q19 0 39.5 15.5t37.5 43.5t27.5 67t10.5 85q0 63 -19.5 116.5t-58.5 92
t-98 60t-137 21.5q-85 0 -163.5 -28t-137.5 -80t-94 -127t-35 -169q0 -70 25 -125.5t70.5 -93.5t110 -58t142.5 -20q60 0 103 6.5t94 19.5l-15 -106q-46 -13 -94.5 -20.5t-108.5 -7.5q-101 0 -184 29t-141 81t-89.5 126.5t-31.5 165.5q0 122 45 218.5t121 162t178.5 100
t215.5 34.5q97 0 175.5 -29t133.5 -80t84.5 -123t29.5 -157q0 -74 -22 -136t-59.5 -105.5t-87 -68t-104.5 -24.5q-43 0 -70 18t-41 46zM411 224q0 -43 23 -76t69 -33q30 0 53.5 13t40 33.5t25 47t8.5 53.5q0 43 -22.5 75t-68.5 32q-30 0 -54 -12.5t-40 -33t-25 -46.5t-9 -53
z" />
    <glyph glyph-name="A" unicode="A" horiz-adv-x="712" 
d="M481 700l175 -700h-149l-37 138h-271l-74 -138h-159l373 700h142zM386 498l-119 -228h174z" />
    <glyph glyph-name="B" unicode="B" horiz-adv-x="687" 
d="M24 0l99 700h315q97 0 157 -50t60 -132q0 -51 -27 -92.5t-73 -67.5q38 -27 56 -61.5t18 -73.5q0 -101 -75 -162t-198 -61h-332zM191 137h150q63 0 101 21t38 65q0 37 -30.5 54.5t-80.5 17.5h-156zM391 563h-140l-20 -143h143q67 0 97 22.5t30 56.5t-26.5 49t-83.5 15z
" />
    <glyph glyph-name="C" unicode="C" horiz-adv-x="731" 
d="M583 224l86 -107q-55 -57 -131.5 -92.5t-175.5 -35.5q-73 0 -133.5 24t-103 67t-66 103.5t-23.5 131.5q0 93 33 167t89 125t132 78t160 27q90 0 157.5 -38t111.5 -94l-112 -99q-30 40 -73.5 66t-101.5 26q-41 0 -84.5 -16.5t-78 -48.5t-56.5 -79.5t-22 -109.5
q0 -90 54 -140.5t132 -50.5q59 0 111.5 24t94.5 72z" />
    <glyph glyph-name="D" unicode="D" horiz-adv-x="733" 
d="M24 0l99 700h231q65 0 127 -18.5t110.5 -56t78.5 -96.5t30 -140q0 -108 -40.5 -182.5t-104.5 -120t-143.5 -66t-156.5 -20.5h-231zM321 563h-70l-60 -426h61q62 0 116.5 13.5t94 43t62.5 76.5t23 112q0 49 -17.5 84t-48 56t-72.5 31t-89 10z" />
    <glyph glyph-name="E" unicode="E" horiz-adv-x="648" 
d="M24 0l99 700h517l-20 -137h-369l-19 -138h352l-19 -135h-352l-22 -153h369l-19 -137h-517z" />
    <glyph glyph-name="F" unicode="F" horiz-adv-x="591" 
d="M172 0h-148l99 700h483l-20 -137h-335l-21 -151h312l-19 -136h-312z" />
    <glyph glyph-name="G" unicode="G" horiz-adv-x="754" 
d="M399 253l19 137h285l-41 -288q-54 -49 -130 -81t-170 -32q-72 0 -132.5 25t-103 69t-66.5 104.5t-24 130.5q0 92 33.5 165.5t90 124t132 77.5t157.5 27q94 0 160 -36t113 -92l-109 -98q-33 43 -78 65t-103 22q-41 0 -84.5 -16.5t-78 -48.5t-56.5 -79t-22 -108
q0 -89 53.5 -141t132.5 -52q40 0 78.5 11.5t71.5 33.5l11 80h-139z" />
    <glyph glyph-name="H" unicode="H" horiz-adv-x="727" 
d="M467 0l41 290h-295l-41 -290h-148l99 700h148l-39 -274h295l39 274h148l-99 -700h-148z" />
    <glyph glyph-name="I" unicode="I" horiz-adv-x="284" 
d="M24 0l99 700h148l-99 -700h-148z" />
    <glyph glyph-name="J" unicode="J" horiz-adv-x="506" 
d="M-28 96l108 93q19 -32 43 -48t58 -16q42 0 71 28t36 77l66 470h149l-67 -473q-16 -112 -83 -175t-183 -63q-66 0 -116.5 28.5t-81.5 78.5z" />
    <glyph glyph-name="K" unicode="K" horiz-adv-x="652" 
d="M24 0l99 700h148l-41 -285l265 285h182l-284 -300l206 -400h-162l-150 290l-87 -91l-28 -199h-148z" />
    <glyph glyph-name="L" unicode="L" horiz-adv-x="565" 
d="M24 0l99 700h148l-80 -563h321l-19 -137h-469z" />
    <glyph glyph-name="M" unicode="M" horiz-adv-x="832" 
d="M326 142l-98 255l-56 -397h-148l99 700h144l143 -393l256 393h153l-99 -700h-148l56 397l-170 -255h-132z" />
    <glyph glyph-name="N" unicode="N" horiz-adv-x="747" 
d="M456 0l-216 486l-68 -486h-148l99 700h179l214 -488l69 488h148l-99 -700h-178z" />
    <glyph glyph-name="O" unicode="O" horiz-adv-x="803" 
d="M36 315q0 87 34 160.5t90.5 125.5t132 81.5t157.5 29.5q68 0 126.5 -25t100.5 -68.5t66 -103.5t24 -129q0 -88 -33.5 -161t-89.5 -125.5t-131 -81.5t-157 -29q-68 0 -127 25t-101.5 68.5t-67 103.5t-24.5 129zM191 320q0 -39 12 -74t34.5 -61t57 -41t78.5 -15
q54 0 98.5 20.5t76.5 55t49.5 80t17.5 94.5q0 40 -12.5 75t-35.5 61t-56.5 41.5t-75.5 15.5q-55 0 -100 -21t-77 -55.5t-49.5 -80.5t-17.5 -95z" />
    <glyph glyph-name="P" unicode="P" horiz-adv-x="654" 
d="M339 222h-136l-31 -222h-148l99 700h284q110 0 176.5 -61.5t66.5 -156.5q0 -60 -23.5 -108.5t-65 -82t-98.5 -51.5t-124 -18zM371 563h-119l-29 -204h109q82 0 125 30.5t43 86.5q0 42 -36 64.5t-93 22.5z" />
    <glyph glyph-name="Q" unicode="Q" horiz-adv-x="803" 
d="M36 315q0 87 34 160.5t90.5 125.5t132 81.5t157.5 29.5q68 0 126.5 -25t100.5 -68.5t66 -103.5t24 -129q0 -75 -25 -140t-68 -115l57 -67l-103 -89l-60 69q-46 -27 -100.5 -41t-111.5 -14q-68 0 -127 25t-101.5 68.5t-67 103.5t-24.5 129zM191 320q0 -39 12 -74t34.5 -61
t57 -41t78.5 -15q28 0 54 6t49 16l-75 88l104 90l72 -85q18 30 28 64t10 71q0 40 -12.5 75t-35.5 61t-56.5 41.5t-75.5 15.5q-55 0 -100 -21t-77 -55.5t-49.5 -80.5t-17.5 -95z" />
    <glyph glyph-name="R" unicode="R" horiz-adv-x="677" 
d="M430 0l-106 225h-120l-32 -225h-148l99 700h285q52 0 96.5 -15t77 -43t51 -68.5t18.5 -91.5q0 -84 -46.5 -144t-123.5 -89l118 -249h-169zM377 563h-125l-29 -202h116q83 0 122.5 32t39.5 81q0 43 -33.5 66t-90.5 23z" />
    <glyph glyph-name="S" unicode="S" horiz-adv-x="644" 
d="M359 275l-94 20q-86 19 -134.5 68t-48.5 127q0 53 23 94.5t61.5 69.5t88.5 43t104 15q92 0 160.5 -35.5t104.5 -79.5l-109 -99q-28 34 -73.5 56t-97.5 22q-51 0 -81.5 -21t-30.5 -55q0 -22 20.5 -39.5t69.5 -27.5l78 -15q101 -19 149.5 -71t48.5 -130
q0 -101 -80.5 -164.5t-217.5 -63.5q-97 0 -171.5 40t-114.5 94l108 97q34 -42 81.5 -68.5t110.5 -26.5t98.5 24.5t35.5 58.5q0 23 -20.5 40t-68.5 27z" />
    <glyph glyph-name="T" unicode="T" horiz-adv-x="606" 
d="M79 700h550l-19 -137h-201l-79 -563h-148l79 563h-201z" />
    <glyph glyph-name="U" unicode="U" horiz-adv-x="704" 
d="M503 306l56 394h148l-55 -389q-22 -160 -108.5 -241t-220.5 -81q-67 0 -120 22.5t-87 65.5t-47.5 106t-2.5 143l53 374h148l-56 -396q-10 -75 18 -127t103 -52q76 0 117.5 48.5t53.5 132.5z" />
    <glyph glyph-name="V" unicode="V" horiz-adv-x="645" 
d="M304 193l235 507h157l-339 -700h-154l-141 700h146z" />
    <glyph glyph-name="W" unicode="W" horiz-adv-x="953" 
d="M226 700l45 -448l176 448h159l50 -448l171 448h163l-286 -700h-152l-54 463l-187 -463h-152l-88 700h155z" />
    <glyph glyph-name="X" unicode="X" horiz-adv-x="685" 
d="M258 700l100 -221l165 221h180l-267 -341l181 -359h-167l-114 236l-179 -236h-179l281 359l-169 341h168z" />
    <glyph glyph-name="Y" unicode="Y" horiz-adv-x="625" 
d="M217 700l103 -294l186 294h167l-298 -455l-35 -245h-147l35 245l-168 455h157z" />
    <glyph glyph-name="Z" unicode="Z" horiz-adv-x="655" 
d="M115 700h539l-19 -131l-408 -432h358l-19 -137h-553l18 131l408 432h-344z" />
    <glyph glyph-name="bracketleft" unicode="[" horiz-adv-x="375" 
d="M21 -194l126 894h279l-18 -130h-137l-90 -634h137l-18 -130h-279z" />
    <glyph glyph-name="backslash" unicode="\" horiz-adv-x="429" 
d="M172 750l237 -843h-152l-237 843h152z" />
    <glyph glyph-name="bracketright" unicode="]" horiz-adv-x="375" 
d="M343 700l-126 -894h-279l18 130h137l90 634h-137l18 130h279z" />
    <glyph glyph-name="asciicircum" unicode="^" horiz-adv-x="635" 
d="M419 428l166 -365h-147l-100 221l-162 -221h-156l267 365h132z" />
    <glyph glyph-name="underscore" unicode="_" horiz-adv-x="500" 
d="M15 -194l18 128h456l-18 -128h-456z" />
    <glyph glyph-name="grave" unicode="`" horiz-adv-x="500" 
d="M135 700h175l54 -142h-135z" />
    <glyph glyph-name="a" unicode="a" horiz-adv-x="601" 
d="M35 216q0 58 19 110.5t52.5 91t80.5 61.5t101 23q41 0 77 -14t61 -51l8 53h140l-69 -490h-140l6 43q-22 -24 -57.5 -39t-84.5 -15q-42 0 -77.5 17t-61.5 47t-40.5 72t-14.5 91zM404 269q0 46 -26.5 76.5t-66.5 30.5q-32 0 -57 -14t-42 -35.5t-25.5 -48.5t-8.5 -53
q0 -46 25 -76.5t68 -30.5q32 0 57 14t42 35.5t25.5 48.5t8.5 53z" />
    <glyph glyph-name="b" unicode="b" horiz-adv-x="609" 
d="M577 268q0 -63 -22.5 -114.5t-60.5 -88t-88.5 -56.5t-106.5 -20q-41 0 -74.5 13.5t-52.5 35.5l-6 -38h-140l99 700h142l-34 -241q21 16 53 29.5t74 13.5q46 0 85.5 -18t68.5 -49t46 -74t17 -93zM199 226q0 -49 27.5 -79t70.5 -30q54 0 93.5 41.5t39.5 105.5
q0 49 -27.5 79t-71.5 30q-54 0 -93 -41.5t-39 -105.5z" />
    <glyph glyph-name="c" unicode="c" horiz-adv-x="537" 
d="M407 184l86 -96q-48 -49 -103 -74t-126 -25q-52 0 -94.5 18.5t-73 50t-47 75t-16.5 93.5q0 61 22.5 112t61 87t91.5 56.5t113 20.5q68 0 119.5 -26t84.5 -69l-108 -93q-17 25 -43.5 39.5t-58.5 14.5q-55 0 -95.5 -39.5t-40.5 -99.5q0 -47 29 -77t76 -30q37 0 66.5 16
t56.5 46z" />
    <glyph glyph-name="d" unicode="d" horiz-adv-x="611" 
d="M33 223q0 65 23 117t62 88t90 55t107 19q44 0 75.5 -13.5t47.5 -29.5l34 241h142l-99 -700h-140l5 35q-22 -19 -58 -32.5t-77 -13.5q-46 0 -85 17.5t-67 48.5t-44 74t-16 94zM411 264q0 49 -27 79t-71 30q-54 0 -93.5 -41.5t-39.5 -105.5q0 -49 27 -79t70 -30
q54 0 94 41.5t40 105.5z" />
    <glyph glyph-name="e" unicode="e" horiz-adv-x="547" 
d="M510 209h-333q2 -35 26 -62.5t71 -27.5q37 0 69 15.5t59 41.5l83 -90q-37 -40 -92.5 -68.5t-133.5 -28.5q-50 0 -91.5 17.5t-71 48t-46 73t-16.5 92.5q0 61 21.5 113t58.5 89.5t87.5 58.5t109.5 21q53 0 92 -19t64 -50t37.5 -71t12.5 -81q0 -26 -3.5 -49zM298 377
q-40 0 -67 -21.5t-37 -51.5h179q1 31 -19.5 52t-55.5 21z" />
    <glyph glyph-name="f" unicode="f" horiz-adv-x="363" 
d="M362 712q17 0 27 -0.5l10 -0.5l-19 -134h-24q-48 0 -70.5 -17t-26.5 -54l-2 -16h106l-18 -131h-106l-52 -359h-141l50 359h-64l18 131h65l4 25q16 101 82 149t161 48z" />
    <glyph glyph-name="g" unicode="g" horiz-adv-x="602" 
d="M368 35l2 13q-21 -16 -52.5 -26.5t-72.5 -10.5q-91 0 -149.5 62.5t-58.5 161.5q0 68 25 118t64 83t87 49.5t92 16.5q37 0 71 -14t53 -35l6 37h140l-64 -454q-16 -110 -92.5 -175.5t-202.5 -65.5q-45 0 -80.5 10.5t-61.5 26t-43.5 32.5t-27.5 30l107 91q16 -25 46 -42
t73 -17q56 0 94 30t45 79zM403 273q0 46 -27 73t-67 27q-49 0 -87.5 -37t-38.5 -96q0 -45 27 -72.5t67 -27.5q49 0 87.5 37t38.5 96z" />
    <glyph glyph-name="h" unicode="h" horiz-adv-x="570" 
d="M202 245l-34 -245h-142l99 700h142l-35 -242q23 19 55 31.5t67 12.5q79 0 124 -52t45 -137q0 -11 -1.5 -23.5t-2.5 -24.5l-37 -265h-143l39 274q1 5 1 10.5v10.5q0 32 -16 53.5t-53 21.5q-50 0 -75 -34.5t-33 -90.5z" />
    <glyph glyph-name="i" unicode="i" horiz-adv-x="279" 
d="M33 0l69 490h143l-69 -490h-143zM110 629q0 34 24 58.5t58 24.5t58.5 -24.5t24.5 -58.5t-24.5 -58t-58.5 -24t-58 24t-24 58z" />
    <glyph glyph-name="j" unicode="j" horiz-adv-x="284" 
d="M45 -13l71 503h142l-74 -520q-12 -84 -60.5 -129.5t-135.5 -45.5q-28 0 -47 1l-19 1l18 130h31q31 0 50 11.5t24 48.5zM123 629q0 34 24 58.5t58 24.5t58.5 -24.5t24.5 -58.5t-24.5 -58t-58.5 -24t-58 24t-24 58z" />
    <glyph glyph-name="k" unicode="k" horiz-adv-x="545" 
d="M26 0l99 700h142l-51 -356l148 146h188l-210 -202l149 -288h-162l-94 194l-46 -44l-21 -150h-142z" />
    <glyph glyph-name="l" unicode="l" horiz-adv-x="268" 
d="M26 0l99 700h142l-99 -700h-142z" />
    <glyph glyph-name="m" unicode="m" horiz-adv-x="861" 
d="M203 251l-35 -251h-142l69 490h140l-5 -34q23 19 54 32.5t68 13.5q41 0 72 -19t49 -47q29 29 69.5 47.5t85.5 18.5q98 0 147.5 -64t34.5 -168l-38 -270h-142l39 279q5 40 -9.5 65.5t-52.5 25.5q-40 0 -66.5 -29t-33.5 -80l-37 -261h-142l39 279q5 40 -9.5 65.5
t-52.5 25.5q-42 0 -68 -31.5t-34 -87.5z" />
    <glyph glyph-name="n" unicode="n" horiz-adv-x="570" 
d="M202 245l-34 -245h-142l69 490h140l-5 -34q23 19 56 32.5t68 13.5q79 0 124 -52t45 -137q0 -11 -1.5 -23.5t-2.5 -24.5l-37 -265h-143l39 274q1 5 1 10.5v10.5q0 32 -16 53.5t-53 21.5q-50 0 -75 -34.5t-33 -90.5z" />
    <glyph glyph-name="o" unicode="o" horiz-adv-x="588" 
d="M33 220q0 61 23.5 113t63 89.5t93.5 58.5t114 21q50 0 92.5 -18.5t72.5 -50t47 -74.5t17 -91q0 -61 -23.5 -112.5t-63 -88t-93.5 -57.5t-114 -21q-50 0 -92 18t-72.5 49t-47.5 73.5t-17 90.5zM179 227q0 -46 27 -76t71 -30q54 0 93.5 41t39.5 101q0 46 -27 76t-71 30
q-54 0 -93.5 -41t-39.5 -101z" />
    <glyph glyph-name="p" unicode="p" horiz-adv-x="610" 
d="M577 272q0 -64 -22.5 -116.5t-60.5 -89t-88.5 -57t-105.5 -20.5q-42 0 -73.5 12t-52.5 33l-33 -228h-142l96 684h140l-5 -35q22 19 58 33t77 14q46 0 85 -17t67 -47t44 -72.5t16 -93.5zM199 226q0 -49 27.5 -79t70.5 -30q54 0 93.5 41.5t39.5 105.5q0 49 -27 79t-70 30
q-54 0 -94 -41.5t-40 -105.5z" />
    <glyph glyph-name="q" unicode="q" horiz-adv-x="610" 
d="M32 220q0 68 24.5 121t63.5 88.5t88.5 54t99.5 18.5q32 0 56.5 -8t40.5 -17.5t24.5 -17.5l8.5 -8l5 39h140l-96 -684h-142l32 227q-21 -16 -56 -30t-77 -14q-46 0 -85 16.5t-67 47t-44 73t-16 94.5zM410 264q0 49 -27 79t-71 30q-54 0 -93.5 -41.5t-39.5 -105.5
q0 -49 27 -79t70 -30q54 0 94 41.5t40 105.5z" />
    <glyph glyph-name="r" unicode="r" horiz-adv-x="385" 
d="M396 496l-20 -137h-22q-59 0 -102.5 -38t-54.5 -116l-29 -205h-142l69 490h140l-6 -44q23 24 57.5 37.5t71.5 13.5q16 0 27 -0.5z" />
    <glyph glyph-name="s" unicode="s" horiz-adv-x="471" 
d="M259 173l-49 13q-71 18 -112.5 54.5t-41.5 102.5q0 37 16 66.5t43 50t64 31.5t78 11q54 0 106 -18.5t90 -57.5l-94 -90q-19 19 -48.5 32t-63.5 13q-22 0 -36.5 -7.5t-14.5 -20.5q0 -10 8.5 -17.5t23.5 -11.5l56 -14q29 -7 57 -19.5t49.5 -31.5t35 -45.5t13.5 -61.5
q0 -73 -57 -118t-159 -45q-79 0 -135.5 29.5t-79.5 65.5l95 85q31 -36 66.5 -48.5t68.5 -12.5q23 0 41.5 8.5t18.5 24.5q0 11 -9.5 19t-29.5 13z" />
    <glyph glyph-name="t" unicode="t" horiz-adv-x="376" 
d="M224 -2q-87 0 -122 50.5t-23 134.5l25 176h-64l18 131h64l20 137h141l-20 -137h109l-18 -131h-109l-24 -172q-5 -37 10.5 -47t46.5 -10h42l-18 -130l-24.5 -1t-53.5 -1z" />
    <glyph glyph-name="u" unicode="u" horiz-adv-x="560" 
d="M365 239l35 251h144l-69 -490h-140l5 34q-26 -23 -60 -34t-69 -11q-85 0 -125.5 61t-25.5 165l39 275h142l-39 -279q-5 -40 10 -65.5t53 -25.5q46 0 69 31.5t31 87.5z" />
    <glyph glyph-name="v" unicode="v" horiz-adv-x="506" 
d="M533 490l-243 -490h-146l-105 490h146l53 -303l139 303h156z" />
    <glyph glyph-name="w" unicode="w" horiz-adv-x="784" 
d="M500 490l40 -293l110 293h157l-207 -490h-155l-45 302l-131 -302h-155l-69 490h147l29 -293l121 293h158z" />
    <glyph glyph-name="x" unicode="x" horiz-adv-x="524" 
d="M230 490l56 -125l92 125h167l-188 -238l130 -252h-156l-66 139l-105 -139h-167l200 252l-120 238h157z" />
    <glyph glyph-name="y" unicode="y" horiz-adv-x="546" 
d="M210 -194h-155l110 197l-120 487h153l67 -303l157 303h157z" />
    <glyph glyph-name="z" unicode="z" horiz-adv-x="515" 
d="M101 490h396l-16 -114l-243 -248h219l-18 -128h-413l16 114l240 249h-199z" />
    <glyph glyph-name="braceleft" unicode="{" horiz-adv-x="434" 
d="M343 497l-70 -494q-6 -40 13 -57t58 -17h32l-18 -128h-48q-91 0 -143 51t-37 157l24 177h-108l19 135h108l25 176q16 113 77.5 158t156.5 45h52l-18 -129h-37q-39 0 -59.5 -16.5t-26.5 -57.5z" />
    <glyph glyph-name="bar" unicode="|" horiz-adv-x="378" 
d="M53 -194l126 894h139l-126 -894h-139z" />
    <glyph glyph-name="braceright" unicode="}" horiz-adv-x="434" 
d="M100 4l70 494q6 40 -13 57t-58 17h-32l18 128h48q91 0 143 -51t37 -157l-24 -176h108l-19 -135h-108l-25 -177q-16 -113 -77.5 -158t-156.5 -45h-52l18 129h37q39 0 59.5 16.5t26.5 57.5z" />
    <glyph glyph-name="asciitilde" unicode="~" horiz-adv-x="535" 
d="M377 348h113q-10 -77 -48 -124t-101 -47q-18 0 -32 3t-21 5l-66 21q-10 4 -19.5 6t-18.5 2q-16 0 -25 -10.5t-11 -26.5h-113q10 77 48.5 124t101.5 47q18 0 31.5 -3t21.5 -5l66 -22q10 -4 19 -6t18 -2q16 0 25 10.5t11 27.5z" />
    <glyph glyph-name="nbspace" unicode="&#xa0;" horiz-adv-x="280" 
 />
    <glyph glyph-name="exclamdown" unicode="&#xa1;" horiz-adv-x="332" 
d="M242 266l-65 -460h-147l65 460h147zM276 416q0 -36 -24.5 -61t-60.5 -25t-61.5 25t-25.5 61t25.5 61t61.5 25t60.5 -25t24.5 -61z" />
    <glyph glyph-name="cent" unicode="&#xa2;" horiz-adv-x="537" 
d="M407 184l86 -96q-39 -40 -82.5 -64t-94.5 -31l-15 -107h-110l15 110q-79 18 -126 81.5t-47 148.5q0 55 18.5 102.5t51 82.5t77.5 58t97 30l15 105h110l-15 -109q44 -10 78.5 -33t59.5 -55l-108 -93q-10 14 -22.5 25t-27.5 18l-32 -226q19 7 37 20.5t35 32.5zM179 229
q0 -31 12.5 -55t34.5 -37l31 218q-34 -16 -56 -49.5t-22 -76.5z" />
    <glyph glyph-name="sterling" unicode="&#xa3;" horiz-adv-x="654" 
d="M461 301h-147l13 -162h123l15 110h133l-35 -249h-534l20 139h128l-13 162h-93l17 122h68v4q0 76 25.5 130t64.5 88.5t87 50.5t92 16q87 0 138 -34t76 -77l-111 -98q-18 28 -45.5 50.5t-67.5 22.5q-52 0 -81 -38.5t-29 -92.5v-22h173z" />
    <glyph glyph-name="currency" unicode="&#xa4;" horiz-adv-x="590" 
d="M55 405l114 96l53 -65q22 10 45.5 15.5t48.5 5.5q24 0 46.5 -5.5t41.5 -15.5l73 65l88 -96l-76 -69q4 -14 7 -32.5t3 -34.5q0 -32 -10 -59.5t-26 -54.5l57 -67l-116 -98l-53 66q-22 -10 -46 -15.5t-48 -5.5t-46.5 5t-41.5 15l-71 -65l-88 98l73 66q-5 14 -7.5 32t-2.5 35
q0 31 9.5 60t26.5 56zM214 238q0 -25 17 -44t45 -19q34 0 58 24.5t24 55.5q0 27 -16.5 46t-44.5 19q-34 0 -58.5 -25t-24.5 -57z" />
    <glyph glyph-name="yen" unicode="&#xa5;" horiz-adv-x="670" 
d="M222 110h-162l17 122h162l7 47h-162l17 122h103l-131 299h162l103 -294l186 294h162l-208 -299h100l-17 -122h-168l-7 -47h168l-17 -122h-168l-15 -110h-147z" />
    <glyph glyph-name="brokenbar" unicode="&#xa6;" horiz-adv-x="378" 
d="M127 335l52 365h139l-52 -365h-139zM53 -194l51 365h139l-51 -365h-139z" />
    <glyph glyph-name="section" unicode="&#xa7;" horiz-adv-x="633" 
d="M569 245q0 -51 -21.5 -92t-57.5 -75q13 -19 18 -41t5 -44q0 -41 -18 -77t-50.5 -63t-78 -42.5t-100.5 -15.5q-77 0 -135 32.5t-101 91.5l109 92q29 -45 64.5 -64t75.5 -19q37 0 61 15.5t24 36.5q0 23 -17.5 37.5t-56.5 28.5l-78 28q-71 25 -114 69t-43 116q0 57 26 101.5
t69 72.5q-10 17 -15.5 39.5t-5.5 44.5q0 42 17.5 78t48 61.5t73 40.5t92.5 15q77 0 130.5 -30t85.5 -73l-103 -90q-23 27 -52.5 43.5t-75.5 16.5q-32 0 -52 -16t-20 -37q0 -22 15.5 -37.5t51.5 -30.5l58 -24q76 -31 123.5 -73t47.5 -116zM276 201l119 -47q14 15 21 31.5
t7 33.5q0 24 -16 45t-57 38l-116 48q-13 -10 -22 -27.5t-9 -39.5q0 -21 14.5 -43t58.5 -39z" />
    <glyph glyph-name="dieresis" unicode="&#xa8;" horiz-adv-x="500" 
d="M70 638q0 30 21 52t52 22q30 0 52 -22t22 -52q0 -31 -22 -52.5t-52 -21.5q-31 0 -52 21.5t-21 52.5zM283 638q0 30 21 52t52 22q30 0 52 -22t22 -52q0 -31 -22 -52.5t-52 -21.5q-31 0 -52 21.5t-21 52.5z" />
    <glyph glyph-name="copyright" unicode="&#xa9;" horiz-adv-x="804" 
d="M36 316q0 84 34 157t90.5 126t131.5 83t157 30q68 0 127 -24t101.5 -66.5t66.5 -103.5t24 -134q0 -85 -33.5 -158t-90 -125t-131.5 -82t-157 -30q-68 0 -127 23.5t-101.5 66t-67 103t-24.5 134.5zM125 316q0 -51 17 -95t48 -76.5t75.5 -51t98.5 -18.5q65 0 122.5 24.5
t100 66.5t67.5 98.5t25 120.5q0 50 -17 94t-48 76.5t-75 51.5t-98 19q-65 0 -123 -25t-100.5 -67t-67.5 -98.5t-25 -119.5zM491 298l43 -93q-16 -17 -57 -36t-92 -19q-81 0 -130.5 52.5t-49.5 130.5q0 50 19 90t50.5 68t73.5 43t89 15q44 0 83 -19t62 -52l-85 -75
q-13 18 -31.5 28t-42.5 10q-37 0 -68.5 -29t-31.5 -73q0 -34 22 -57.5t56 -23.5q28 0 49 10.5t41 29.5z" />
    <glyph glyph-name="ordfeminine" unicode="&#xaa;" horiz-adv-x="469" 
d="M30 499q0 48 16.5 87.5t45 67t67 43t81.5 15.5q36 0 57.5 -10.5t34.5 -22.5l3 25h114l-51 -361h-114l4 25q-13 -10 -38.5 -22t-62.5 -12q-72 0 -114.5 48t-42.5 117zM146 511q0 -33 17.5 -55.5t51.5 -22.5q47 0 71 30.5t24 71.5q0 34 -16 56.5t-54 22.5q-41 0 -67.5 -30
t-26.5 -73z" />
    <glyph glyph-name="guillemotleft" unicode="&#xab;" horiz-adv-x="660" 
d="M34 245l171 245h154l-181 -254l103 -236h-144zM324 245l171 245h154l-181 -254l103 -236h-144z" />
    <glyph glyph-name="logicalnot" unicode="&#xac;" horiz-adv-x="609" 
d="M41 164l19 132h490l-37 -264h-137l19 132h-354z" />
    <glyph glyph-name="uni00AD" unicode="&#xad;" horiz-adv-x="280" 
d="M15 198l18 128h242l-18 -128h-242z" />
    <glyph glyph-name="registered" unicode="&#xae;" horiz-adv-x="648" 
d="M48 411q0 63 24.5 118t66.5 95.5t98 64t118 23.5q52 0 97 -18.5t77.5 -52t51 -80.5t18.5 -103q0 -63 -25 -117.5t-67 -94.5t-98 -63t-118 -23q-52 0 -96.5 18t-77 51t-51 79.5t-18.5 102.5zM127 410q0 -72 48 -123t127 -51q45 0 85 18t69.5 48.5t46.5 71t17 86.5
q0 73 -48.5 124.5t-127.5 51.5q-46 0 -86 -18t-69 -49t-45.5 -72t-16.5 -87zM348 316l-26 64h-29l-9 -64h-86l36 251h125q40 0 67 -23.5t27 -65.5q0 -25 -15 -47t-37 -35l36 -80h-89zM335 497h-25l-7 -46h25q20 0 29.5 7.5t9.5 18.5q0 10 -8 15t-24 5z" />
    <glyph glyph-name="macron" unicode="&#xaf;" horiz-adv-x="500" 
d="M133 700h250l-17 -117h-250z" />
    <glyph glyph-name="degree" unicode="&#xb0;" horiz-adv-x="446" 
d="M70 526q0 39 15.5 73t42 59t62 39.5t75.5 14.5q66 0 108.5 -42t42.5 -113q0 -39 -15.5 -73.5t-41.5 -59.5t-62 -39.5t-76 -14.5q-65 0 -108 42.5t-43 113.5zM301 550q0 22 -14.5 37t-36.5 15q-25 0 -45.5 -18t-20.5 -49q0 -22 14.5 -37.5t36.5 -15.5q25 0 45.5 18.5
t20.5 49.5z" />
    <glyph glyph-name="plusminus" unicode="&#xb1;" horiz-adv-x="625" 
d="M0 -139l18 128h502l-18 -128h-502zM61 252l19 132h178l25 177h132l-25 -177h180l-19 -132h-180l-25 -180h-132l25 180h-178z" />
    <glyph glyph-name="twosuperior" unicode="&#xb2;" horiz-adv-x="393" 
d="M228 707q26 0 51.5 -6.5t45 -19.5t31.5 -33t12 -46q0 -53 -30 -83.5t-88 -56.5l-20 -9q-42 -19 -54.5 -26.5t-17.5 -17.5h181l-14 -101h-315l2 13q11 73 48 123t114 83l26 11q30 13 39.5 21.5t9.5 21.5q0 10 -10 17.5t-28 7.5q-26 0 -51 -14.5t-43 -39.5l-63 70
q23 34 71.5 59.5t102.5 25.5z" />
    <glyph glyph-name="threesuperior" unicode="&#xb3;" horiz-adv-x="375" 
d="M292 513q20 -11 32 -29.5t12 -46.5q0 -32 -15 -57.5t-40 -42.5t-59 -26t-72 -9q-49 0 -87.5 19.5t-57.5 47.5l87 74q16 -23 36.5 -32t39.5 -9q24 0 38.5 10.5t14.5 22.5q0 10 -11 19t-48 9h-36l13 88h33q34 0 46.5 8.5t12.5 21.5q0 10 -10.5 17.5t-29.5 7.5
q-22 0 -38.5 -7.5t-34.5 -27.5l-65 71q27 25 67.5 45t93.5 20q26 0 50.5 -5.5t43.5 -17t30.5 -30.5t11.5 -45q0 -32 -13.5 -55t-44.5 -41z" />
    <glyph glyph-name="acute" unicode="&#xb4;" horiz-adv-x="500" 
d="M212 700h177l-140 -142h-139z" />
    <glyph glyph-name="mu" unicode="&#xb5;" horiz-adv-x="567" 
d="M170 5l-28 -199h-143l96 684h143l-39 -279q-5 -40 8.5 -65.5t51.5 -25.5q45 0 70 31.5t33 87.5l35 251h143l-69 -490h-140l5 34q-24 -22 -48 -33.5t-59 -11.5q-12 0 -28 3.5t-31 12.5z" />
    <glyph glyph-name="paragraph" unicode="&#xb6;" horiz-adv-x="779" 
d="M360 700h406l-126 -894h-145l107 761h-93l-107 -761h-144l64 452h-24q-107 0 -168 57.5t-61 144.5q0 56 21 100.5t59 75.5t92 47.5t119 16.5z" />
    <glyph glyph-name="periodcentered" unicode="&#xb7;" horiz-adv-x="280" 
d="M52 257q0 36 24.5 61t60.5 25t61.5 -25t25.5 -61t-25.5 -61t-61.5 -25t-60.5 25t-24.5 61z" />
    <glyph glyph-name="cedilla" unicode="&#xb8;" horiz-adv-x="500" 
d="M281 -137h-143l97 148h126z" />
    <glyph glyph-name="onesuperior" unicode="&#xb9;" horiz-adv-x="352" 
d="M24 409h98l23 161q-19 -10 -45 -16t-56 -6l14 98q31 1 63.5 13.5t50.5 40.5h106l-41 -291h95l-14 -101h-308z" />
    <glyph glyph-name="ordmasculine" unicode="&#xba;" horiz-adv-x="466" 
d="M30 506q0 44 17.5 82t47 65t69.5 42.5t85 15.5q86 0 136.5 -47t50.5 -119q0 -45 -14 -83.5t-41.5 -67t-69 -44.5t-94.5 -16q-81 0 -134 48t-53 124zM149 510q0 -32 20 -53t52 -21q40 0 68.5 28t28.5 70q0 33 -19.5 54t-52.5 21q-40 0 -68.5 -28t-28.5 -71z" />
    <glyph glyph-name="guillemotright" unicode="&#xbb;" horiz-adv-x="660" 
d="M335 245l-171 -245h-154l181 254l-103 236h144zM625 245l-171 -245h-154l181 254l-103 236h144z" />
    <glyph glyph-name="onequarter" unicode="&#xbc;" horiz-adv-x="909" 
d="M24 409h98l23 161q-19 -10 -45 -16t-56 -6l14 98q31 1 63.5 13.5t50.5 40.5h106l-41 -291h95l-14 -101h-308zM148 0l530 700h138l-530 -700h-138zM881 72h-58l-10 -72h-115l10 72h-181l13 89l197 231h131l-32 -225h58zM659 167h62l14 94z" />
    <glyph glyph-name="onehalf" unicode="&#xbd;" horiz-adv-x="975" 
d="M24 409h98l23 161q-19 -10 -45 -16t-56 -6l14 98q31 1 63.5 13.5t50.5 40.5h106l-41 -291h95l-14 -101h-308zM148 0l530 700h138l-530 -700h-138zM810 399q26 0 51.5 -6.5t45 -19.5t31.5 -33t12 -46q0 -53 -30 -83.5t-88 -56.5l-20 -9q-42 -19 -54.5 -26.5t-17.5 -17.5
h181l-14 -101h-315l2 13q11 73 48 123t114 83l26 11q30 13 39.5 21.5t9.5 21.5q0 10 -10 17.5t-28 7.5q-26 0 -51 -14.5t-43 -39.5l-63 70q23 34 71.5 59.5t102.5 25.5z" />
    <glyph glyph-name="threequarters" unicode="&#xbe;" horiz-adv-x="907" 
d="M146 0l530 700h138l-530 -700h-138zM879 72h-58l-10 -72h-115l10 72h-181l13 89l197 231h131l-32 -225h58zM657 167h62l14 94zM292 513q20 -11 32 -29.5t12 -46.5q0 -32 -15 -57.5t-40 -42.5t-59 -26t-72 -9q-49 0 -87.5 19.5t-57.5 47.5l87 74q16 -23 36.5 -32t39.5 -9
q24 0 38.5 10.5t14.5 22.5q0 10 -11 19t-48 9h-36l13 88h33q34 0 46.5 8.5t12.5 21.5q0 10 -10.5 17.5t-29.5 7.5q-22 0 -38.5 -7.5t-34.5 -27.5l-65 71q27 25 67.5 45t93.5 20q26 0 50.5 -5.5t43.5 -17t30.5 -30.5t11.5 -45q0 -32 -13.5 -55t-44.5 -41z" />
    <glyph glyph-name="questiondown" unicode="&#xbf;" horiz-adv-x="552" 
d="M391 266h-146l-8 -58q-94 -13 -155 -71t-61 -145q0 -86 61.5 -141.5t158.5 -55.5q75 0 139 29.5t108 83.5l-80 100q-30 -37 -68.5 -56.5t-84.5 -19.5q-42 0 -63.5 19.5t-21.5 46.5q0 43 44.5 68t104.5 25h47zM422 416q0 -36 -24.5 -61t-60.5 -25t-61.5 25t-25.5 61
t25.5 61t61.5 25t60.5 -25t24.5 -61z" />
    <glyph glyph-name="Agrave" unicode="&#xc0;" horiz-adv-x="712" 
d="M481 700l175 -700h-149l-37 138h-271l-74 -138h-159l373 700h142zM386 498l-119 -228h174zM272 872h163l60 -103h-144z" />
    <glyph glyph-name="Aacute" unicode="&#xc1;" horiz-adv-x="712" 
d="M481 700l175 -700h-149l-37 138h-271l-74 -138h-159l373 700h142zM386 498l-119 -228h174zM405 872h170l-107 -103h-151z" />
    <glyph glyph-name="Acircumflex" unicode="&#xc2;" horiz-adv-x="712" 
d="M481 700l175 -700h-149l-37 138h-271l-74 -138h-159l373 700h142zM386 498l-119 -228h174zM355 872h174l71 -103h-138l-32 40l-44 -40h-131z" />
    <glyph glyph-name="Atilde" unicode="&#xc3;" horiz-adv-x="712" 
d="M481 700l175 -700h-149l-37 138h-271l-74 -138h-159l373 700h142zM386 498l-119 -228h174zM513 894h96q-7 -48 -39 -86.5t-78 -38.5q-13 0 -28 4t-31 9l-25 8q-7 2 -14.5 3.5t-14.5 1.5q-8 0 -18 -5t-13 -21h-96q7 49 39 87t78 38q13 0 28 -3.5t31 -8.5l25 -8
q7 -2 14.5 -4t14.5 -2q8 0 18 5.5t13 20.5z" />
    <glyph glyph-name="Adieresis" unicode="&#xc4;" horiz-adv-x="712" 
d="M481 700l175 -700h-149l-37 138h-271l-74 -138h-159l373 700h142zM386 498l-119 -228h174zM253 833q0 30 21 52t52 22q30 0 52 -22t22 -52q0 -31 -22 -52.5t-52 -21.5q-31 0 -52 21.5t-21 52.5zM466 833q0 30 21 52t52 22q30 0 52 -22t22 -52q0 -31 -22 -52.5t-52 -21.5
q-31 0 -52 21.5t-21 52.5z" />
    <glyph glyph-name="Aring" unicode="&#xc5;" horiz-adv-x="712" 
d="M321 764q0 43 33 75t79 32q37 0 61.5 -25t24.5 -61q0 -27 -12.5 -49t-32.5 -36h7l175 -700h-149l-37 138h-271l-74 -138h-159l373 700h10q-13 11 -20.5 28t-7.5 36zM386 498l-119 -228h174zM444 777q0 9 -6 15t-15 6q-10 0 -18.5 -7.5t-8.5 -19.5q0 -9 5.5 -15t14.5 -6
q10 0 19 7.5t9 19.5z" />
    <glyph glyph-name="AE" unicode="&#xc6;" horiz-adv-x="938" 
d="M930 700l-20 -137h-396l36 -138h324l-19 -135h-272l38 -153h229l-19 -137h-324l-37 138h-271l-74 -138h-159l373 700h591zM386 498l-119 -228h174z" />
    <glyph glyph-name="Ccedilla" unicode="&#xc7;" horiz-adv-x="731" 
d="M367 -137h-143l85 130q-62 8 -112.5 35t-86 69t-55 97.5t-19.5 120.5q0 93 33 167t89 125t132 78t160 27q90 0 157.5 -38t111.5 -94l-112 -99q-30 40 -73.5 66t-101.5 26q-41 0 -84.5 -16.5t-78 -48.5t-56.5 -79.5t-22 -109.5q0 -90 54 -140.5t132 -50.5q59 0 111.5 24
t94.5 72l86 -107q-44 -46 -101.5 -78.5t-129.5 -43.5z" />
    <glyph glyph-name="Egrave" unicode="&#xc8;" horiz-adv-x="648" 
d="M24 0l99 700h517l-20 -137h-369l-19 -138h352l-19 -135h-352l-22 -153h369l-19 -137h-517zM228 872h163l60 -103h-144z" />
    <glyph glyph-name="Eacute" unicode="&#xc9;" horiz-adv-x="648" 
d="M24 0l99 700h517l-20 -137h-369l-19 -138h352l-19 -135h-352l-22 -153h369l-19 -137h-517zM361 872h170l-107 -103h-151z" />
    <glyph glyph-name="Ecircumflex" unicode="&#xca;" horiz-adv-x="648" 
d="M24 0l99 700h517l-20 -137h-369l-19 -138h352l-19 -135h-352l-22 -153h369l-19 -137h-517zM311 872h174l71 -103h-138l-32 40l-44 -40h-131z" />
    <glyph glyph-name="Edieresis" unicode="&#xcb;" horiz-adv-x="648" 
d="M24 0l99 700h517l-20 -137h-369l-19 -138h352l-19 -135h-352l-22 -153h369l-19 -137h-517zM209 833q0 30 21 52t52 22q30 0 52 -22t22 -52q0 -31 -22 -52.5t-52 -21.5q-31 0 -52 21.5t-21 52.5zM422 833q0 30 21 52t52 22q30 0 52 -22t22 -52q0 -31 -22 -52.5t-52 -21.5
q-31 0 -52 21.5t-21 52.5z" />
    <glyph glyph-name="Igrave" unicode="&#xcc;" horiz-adv-x="284" 
d="M24 0l99 700h148l-99 -700h-148zM55 872h163l60 -103h-144z" />
    <glyph glyph-name="Iacute" unicode="&#xcd;" horiz-adv-x="284" 
d="M24 0l99 700h148l-99 -700h-148zM188 872h170l-107 -103h-151z" />
    <glyph glyph-name="Icircumflex" unicode="&#xce;" horiz-adv-x="284" 
d="M24 0l99 700h148l-99 -700h-148zM138 872h174l71 -103h-138l-32 40l-44 -40h-131z" />
    <glyph glyph-name="Idieresis" unicode="&#xcf;" horiz-adv-x="284" 
d="M24 0l99 700h148l-99 -700h-148zM36 833q0 30 21 52t52 22q30 0 52 -22t22 -52q0 -31 -22 -52.5t-52 -21.5q-31 0 -52 21.5t-21 52.5zM249 833q0 30 21 52t52 22q30 0 52 -22t22 -52q0 -31 -22 -52.5t-52 -21.5q-31 0 -52 21.5t-21 52.5z" />
    <glyph glyph-name="Eth" unicode="&#xd0;" horiz-adv-x="733" 
d="M24 0l41 292h-73l18 131h74l39 277h231q65 0 127 -18.5t110.5 -56t78.5 -96.5t30 -140q0 -108 -40.5 -182.5t-104.5 -120t-143.5 -66t-156.5 -20.5h-231zM329 292h-115l-22 -155h60q62 0 116.5 13.5t94 43t62.5 76.5t23 112q0 49 -17.5 84t-48 56t-72.5 31t-89 10h-69
l-20 -140h115z" />
    <glyph glyph-name="Ntilde" unicode="&#xd1;" horiz-adv-x="747" 
d="M456 0l-216 486l-68 -486h-148l99 700h179l214 -488l69 488h148l-99 -700h-178zM520 894h96q-7 -48 -39 -86.5t-78 -38.5q-13 0 -28 4t-31 9l-25 8q-7 2 -14.5 3.5t-14.5 1.5q-8 0 -18 -5t-13 -21h-96q7 49 39 87t78 38q13 0 28 -3.5t31 -8.5l25 -8q7 -2 14.5 -4t14.5 -2
q8 0 18 5.5t13 20.5z" />
    <glyph glyph-name="Ograve" unicode="&#xd2;" horiz-adv-x="803" 
d="M36 315q0 87 34 160.5t90.5 125.5t132 81.5t157.5 29.5q68 0 126.5 -25t100.5 -68.5t66 -103.5t24 -129q0 -88 -33.5 -161t-89.5 -125.5t-131 -81.5t-157 -29q-68 0 -127 25t-101.5 68.5t-67 103.5t-24.5 129zM191 320q0 -39 12 -74t34.5 -61t57 -41t78.5 -15
q54 0 98.5 20.5t76.5 55t49.5 80t17.5 94.5q0 40 -12.5 75t-35.5 61t-56.5 41.5t-75.5 15.5q-55 0 -100 -21t-77 -55.5t-49.5 -80.5t-17.5 -95zM310 872h163l60 -103h-144z" />
    <glyph glyph-name="Oacute" unicode="&#xd3;" horiz-adv-x="803" 
d="M36 315q0 87 34 160.5t90.5 125.5t132 81.5t157.5 29.5q68 0 126.5 -25t100.5 -68.5t66 -103.5t24 -129q0 -88 -33.5 -161t-89.5 -125.5t-131 -81.5t-157 -29q-68 0 -127 25t-101.5 68.5t-67 103.5t-24.5 129zM191 320q0 -39 12 -74t34.5 -61t57 -41t78.5 -15
q54 0 98.5 20.5t76.5 55t49.5 80t17.5 94.5q0 40 -12.5 75t-35.5 61t-56.5 41.5t-75.5 15.5q-55 0 -100 -21t-77 -55.5t-49.5 -80.5t-17.5 -95zM443 872h170l-107 -103h-151z" />
    <glyph glyph-name="Ocircumflex" unicode="&#xd4;" horiz-adv-x="803" 
d="M36 315q0 87 34 160.5t90.5 125.5t132 81.5t157.5 29.5q68 0 126.5 -25t100.5 -68.5t66 -103.5t24 -129q0 -88 -33.5 -161t-89.5 -125.5t-131 -81.5t-157 -29q-68 0 -127 25t-101.5 68.5t-67 103.5t-24.5 129zM191 320q0 -39 12 -74t34.5 -61t57 -41t78.5 -15
q54 0 98.5 20.5t76.5 55t49.5 80t17.5 94.5q0 40 -12.5 75t-35.5 61t-56.5 41.5t-75.5 15.5q-55 0 -100 -21t-77 -55.5t-49.5 -80.5t-17.5 -95zM393 872h174l71 -103h-138l-32 40l-44 -40h-131z" />
    <glyph glyph-name="Otilde" unicode="&#xd5;" horiz-adv-x="803" 
d="M36 315q0 87 34 160.5t90.5 125.5t132 81.5t157.5 29.5q68 0 126.5 -25t100.5 -68.5t66 -103.5t24 -129q0 -88 -33.5 -161t-89.5 -125.5t-131 -81.5t-157 -29q-68 0 -127 25t-101.5 68.5t-67 103.5t-24.5 129zM191 320q0 -39 12 -74t34.5 -61t57 -41t78.5 -15
q54 0 98.5 20.5t76.5 55t49.5 80t17.5 94.5q0 40 -12.5 75t-35.5 61t-56.5 41.5t-75.5 15.5q-55 0 -100 -21t-77 -55.5t-49.5 -80.5t-17.5 -95zM551 894h96q-7 -48 -39 -86.5t-78 -38.5q-13 0 -28 4t-31 9l-25 8q-7 2 -14.5 3.5t-14.5 1.5q-8 0 -18 -5t-13 -21h-96
q7 49 39 87t78 38q13 0 28 -3.5t31 -8.5l25 -8q7 -2 14.5 -4t14.5 -2q8 0 18 5.5t13 20.5z" />
    <glyph glyph-name="Odieresis" unicode="&#xd6;" horiz-adv-x="803" 
d="M36 315q0 87 34 160.5t90.5 125.5t132 81.5t157.5 29.5q68 0 126.5 -25t100.5 -68.5t66 -103.5t24 -129q0 -88 -33.5 -161t-89.5 -125.5t-131 -81.5t-157 -29q-68 0 -127 25t-101.5 68.5t-67 103.5t-24.5 129zM191 320q0 -39 12 -74t34.5 -61t57 -41t78.5 -15
q54 0 98.5 20.5t76.5 55t49.5 80t17.5 94.5q0 40 -12.5 75t-35.5 61t-56.5 41.5t-75.5 15.5q-55 0 -100 -21t-77 -55.5t-49.5 -80.5t-17.5 -95zM291 833q0 30 21 52t52 22q30 0 52 -22t22 -52q0 -31 -22 -52.5t-52 -21.5q-31 0 -52 21.5t-21 52.5zM504 833q0 30 21 52t52 22
q30 0 52 -22t22 -52q0 -31 -22 -52.5t-52 -21.5q-31 0 -52 21.5t-21 52.5z" />
    <glyph glyph-name="multiply" unicode="&#xd7;" horiz-adv-x="605" 
d="M78 396l100 87l124 -144l164 144l84 -96l-164 -145l125 -145l-99 -88l-126 146l-168 -147l-83 97l167 146z" />
    <glyph glyph-name="Oslash" unicode="&#xd8;" horiz-adv-x="803" 
d="M36 315q0 87 34 160.5t90.5 125.5t132 81.5t157.5 29.5q40 0 77.5 -9.5t69.5 -25.5l53 63l87 -70l-51 -61q38 -43 59.5 -100.5t21.5 -122.5q0 -88 -33.5 -161t-89.5 -125.5t-131 -81.5t-157 -29q-43 0 -83 10t-74 29l-55 -65l-87 70l55 66q-36 42 -56 97.5t-20 118.5z
M615 379q0 31 -8 59t-22 51l-290 -346q17 -7 36.5 -10.5t41.5 -3.5q54 0 98.5 20.5t76.5 55t49.5 80t17.5 94.5zM191 320q0 -28 6 -53.5t17 -47.5l286 342q-15 5 -31 8t-34 3q-55 0 -100 -21t-77 -55.5t-49.5 -80.5t-17.5 -95z" />
    <glyph glyph-name="Ugrave" unicode="&#xd9;" horiz-adv-x="704" 
d="M503 306l56 394h148l-55 -389q-22 -160 -108.5 -241t-220.5 -81q-67 0 -120 22.5t-87 65.5t-47.5 106t-2.5 143l53 374h148l-56 -396q-10 -75 18 -127t103 -52q76 0 117.5 48.5t53.5 132.5zM272 872h163l60 -103h-144z" />
    <glyph glyph-name="Uacute" unicode="&#xda;" horiz-adv-x="704" 
d="M503 306l56 394h148l-55 -389q-22 -160 -108.5 -241t-220.5 -81q-67 0 -120 22.5t-87 65.5t-47.5 106t-2.5 143l53 374h148l-56 -396q-10 -75 18 -127t103 -52q76 0 117.5 48.5t53.5 132.5zM405 872h170l-107 -103h-151z" />
    <glyph glyph-name="Ucircumflex" unicode="&#xdb;" horiz-adv-x="704" 
d="M503 306l56 394h148l-55 -389q-22 -160 -108.5 -241t-220.5 -81q-67 0 -120 22.5t-87 65.5t-47.5 106t-2.5 143l53 374h148l-56 -396q-10 -75 18 -127t103 -52q76 0 117.5 48.5t53.5 132.5zM355 872h174l71 -103h-138l-32 40l-44 -40h-131z" />
    <glyph glyph-name="Udieresis" unicode="&#xdc;" horiz-adv-x="704" 
d="M503 306l56 394h148l-55 -389q-22 -160 -108.5 -241t-220.5 -81q-67 0 -120 22.5t-87 65.5t-47.5 106t-2.5 143l53 374h148l-56 -396q-10 -75 18 -127t103 -52q76 0 117.5 48.5t53.5 132.5zM253 833q0 30 21 52t52 22q30 0 52 -22t22 -52q0 -31 -22 -52.5t-52 -21.5
q-31 0 -52 21.5t-21 52.5zM466 833q0 30 21 52t52 22q30 0 52 -22t22 -52q0 -31 -22 -52.5t-52 -21.5q-31 0 -52 21.5t-21 52.5z" />
    <glyph glyph-name="Yacute" unicode="&#xdd;" horiz-adv-x="625" 
d="M217 700l103 -294l186 294h167l-298 -455l-35 -245h-147l35 245l-168 455h157zM352 872h170l-107 -103h-151z" />
    <glyph glyph-name="Thorn" unicode="&#xde;" horiz-adv-x="620" 
d="M305 120h-115l-17 -120h-149l99 700h149l-14 -101h115q55 0 100 -16.5t77 -45.5t49 -69.5t17 -87.5q0 -60 -23.5 -108.5t-65 -82t-98.5 -51.5t-124 -18zM337 462h-99l-29 -205h89q82 0 125 30.5t43 86.5q0 42 -36 65t-93 23z" />
    <glyph glyph-name="germandbls" unicode="&#xdf;" horiz-adv-x="620" 
d="M259 129h68q54 0 86 20.5t32 62.5q0 34 -25.5 53.5t-70.5 19.5h-68l18 131h48q51 0 79 26.5t28 63.5q0 31 -24.5 53t-64.5 22q-56 0 -93 -36t-48 -115l-60 -430h-142l61 435q19 131 97 204t199 73q45 0 85.5 -16t70.5 -42.5t47.5 -63t17.5 -76.5q0 -51 -25 -92.5
t-63 -64.5q37 -22 56.5 -61t19.5 -82q0 -96 -70.5 -155t-190.5 -59h-86z" />
    <glyph glyph-name="agrave" unicode="&#xe0;" horiz-adv-x="601" 
d="M35 216q0 58 19 110.5t52.5 91t80.5 61.5t101 23q41 0 77 -14t61 -51l8 53h140l-69 -490h-140l6 43q-22 -24 -57.5 -39t-84.5 -15q-42 0 -77.5 17t-61.5 47t-40.5 72t-14.5 91zM404 269q0 46 -26.5 76.5t-66.5 30.5q-32 0 -57 -14t-42 -35.5t-25.5 -48.5t-8.5 -53
q0 -46 25 -76.5t68 -30.5q32 0 57 14t42 35.5t25.5 48.5t8.5 53zM204 700h175l54 -142h-135z" />
    <glyph glyph-name="aacute" unicode="&#xe1;" horiz-adv-x="601" 
d="M35 216q0 58 19 110.5t52.5 91t80.5 61.5t101 23q41 0 77 -14t61 -51l8 53h140l-69 -490h-140l6 43q-22 -24 -57.5 -39t-84.5 -15q-42 0 -77.5 17t-61.5 47t-40.5 72t-14.5 91zM404 269q0 46 -26.5 76.5t-66.5 30.5q-32 0 -57 -14t-42 -35.5t-25.5 -48.5t-8.5 -53
q0 -46 25 -76.5t68 -30.5q32 0 57 14t42 35.5t25.5 48.5t8.5 53zM358 700h177l-140 -142h-139z" />
    <glyph glyph-name="acircumflex" unicode="&#xe2;" horiz-adv-x="601" 
d="M35 216q0 58 19 110.5t52.5 91t80.5 61.5t101 23q41 0 77 -14t61 -51l8 53h140l-69 -490h-140l6 43q-22 -24 -57.5 -39t-84.5 -15q-42 0 -77.5 17t-61.5 47t-40.5 72t-14.5 91zM404 269q0 46 -26.5 76.5t-66.5 30.5q-32 0 -57 -14t-42 -35.5t-25.5 -48.5t-8.5 -53
q0 -46 25 -76.5t68 -30.5q32 0 57 14t42 35.5t25.5 48.5t8.5 53zM291 700h163l71 -142h-118l-42 59l-57 -59h-128z" />
    <glyph glyph-name="atilde" unicode="&#xe3;" horiz-adv-x="601" 
d="M35 216q0 58 19 110.5t52.5 91t80.5 61.5t101 23q41 0 77 -14t61 -51l8 53h140l-69 -490h-140l6 43q-22 -24 -57.5 -39t-84.5 -15q-42 0 -77.5 17t-61.5 47t-40.5 72t-14.5 91zM404 269q0 46 -26.5 76.5t-66.5 30.5q-32 0 -57 -14t-42 -35.5t-25.5 -48.5t-8.5 -53
q0 -46 25 -76.5t68 -30.5q32 0 57 14t42 35.5t25.5 48.5t8.5 53zM447 700h96q-7 -48 -39 -86.5t-78 -38.5q-13 0 -28 4t-31 9l-25 8q-7 2 -14.5 3.5t-14.5 1.5q-8 0 -18 -5t-13 -21h-96q7 49 39 87t78 38q13 0 28 -3.5t31 -8.5l25 -8q7 -2 14.5 -4t14.5 -2q8 0 18 5.5
t13 20.5z" />
    <glyph glyph-name="adieresis" unicode="&#xe4;" horiz-adv-x="601" 
d="M35 216q0 58 19 110.5t52.5 91t80.5 61.5t101 23q41 0 77 -14t61 -51l8 53h140l-69 -490h-140l6 43q-22 -24 -57.5 -39t-84.5 -15q-42 0 -77.5 17t-61.5 47t-40.5 72t-14.5 91zM404 269q0 46 -26.5 76.5t-66.5 30.5q-32 0 -57 -14t-42 -35.5t-25.5 -48.5t-8.5 -53
q0 -46 25 -76.5t68 -30.5q32 0 57 14t42 35.5t25.5 48.5t8.5 53zM188 638q0 30 21 52t52 22q30 0 52 -22t22 -52q0 -31 -22 -52.5t-52 -21.5q-31 0 -52 21.5t-21 52.5zM401 638q0 30 21 52t52 22q30 0 52 -22t22 -52q0 -31 -22 -52.5t-52 -21.5q-31 0 -52 21.5t-21 52.5z
" />
    <glyph glyph-name="aring" unicode="&#xe5;" horiz-adv-x="601" 
d="M35 216q0 58 19 110.5t52.5 91t80.5 61.5t101 23q41 0 77 -14t61 -51l8 53h140l-69 -490h-140l6 43q-22 -24 -57.5 -39t-84.5 -15q-42 0 -77.5 17t-61.5 47t-40.5 72t-14.5 91zM404 269q0 46 -26.5 76.5t-66.5 30.5q-32 0 -57 -14t-42 -35.5t-25.5 -48.5t-8.5 -53
q0 -46 25 -76.5t68 -30.5q32 0 57 14t42 35.5t25.5 48.5t8.5 53zM239 621q0 43 34.5 75t77.5 32q37 0 61.5 -25t24.5 -61q0 -46 -33 -76t-80 -30q-37 0 -61 25t-24 60zM362 634q0 9 -6 15t-15 6q-10 0 -19 -7.5t-9 -19.5q0 -9 6 -15t15 -6q10 0 19 7.5t9 19.5z" />
    <glyph glyph-name="ae" unicode="&#xe6;" horiz-adv-x="912" 
d="M875 209h-334q4 -40 29 -65t69 -25q37 0 69 15.5t59 41.5l83 -90q-37 -40 -92.5 -68.5t-133.5 -28.5q-36 0 -68 9.5t-57 30.5l-4 -29h-130l6 43q-22 -24 -57.5 -39t-84.5 -15q-42 0 -77.5 17t-61.5 47t-40.5 72t-14.5 91q0 58 19 110.5t52.5 91t80.5 61.5t101 23
q41 0 77 -14t61 -51l8 53h130l-4 -24q26 16 55.5 26t60.5 10q53 0 92 -19t64 -50t37.5 -71t12.5 -81q0 -26 -3.5 -49zM404 269q0 46 -26.5 76.5t-66.5 30.5q-32 0 -57 -14t-42 -35.5t-25.5 -48.5t-8.5 -53q0 -46 25 -76.5t68 -30.5q32 0 57 14t42 35.5t25.5 48.5t8.5 53z
M663 377q-40 0 -67 -21.5t-37 -51.5h179q1 31 -19.5 52t-55.5 21z" />
    <glyph glyph-name="ccedilla" unicode="&#xe7;" horiz-adv-x="537" 
d="M273 -137h-143l85 131q-83 15 -132.5 80t-49.5 152q0 61 22.5 112t61 87t91.5 56.5t113 20.5q68 0 119.5 -26t84.5 -69l-108 -93q-17 25 -43.5 39.5t-58.5 14.5q-55 0 -95.5 -39.5t-40.5 -99.5q0 -47 29 -77t76 -30q37 0 66.5 16t56.5 46l86 -96q-33 -34 -69 -56.5
t-78 -32.5z" />
    <glyph glyph-name="egrave" unicode="&#xe8;" horiz-adv-x="547" 
d="M510 209h-333q2 -35 26 -62.5t71 -27.5q37 0 69 15.5t59 41.5l83 -90q-37 -40 -92.5 -68.5t-133.5 -28.5q-50 0 -91.5 17.5t-71 48t-46 73t-16.5 92.5q0 61 21.5 113t58.5 89.5t87.5 58.5t109.5 21q53 0 92 -19t64 -50t37.5 -71t12.5 -81q0 -26 -3.5 -49zM298 377
q-40 0 -67 -21.5t-37 -51.5h179q1 31 -19.5 52t-55.5 21zM177 700h175l54 -142h-135z" />
    <glyph glyph-name="eacute" unicode="&#xe9;" horiz-adv-x="547" 
d="M510 209h-333q2 -35 26 -62.5t71 -27.5q37 0 69 15.5t59 41.5l83 -90q-37 -40 -92.5 -68.5t-133.5 -28.5q-50 0 -91.5 17.5t-71 48t-46 73t-16.5 92.5q0 61 21.5 113t58.5 89.5t87.5 58.5t109.5 21q53 0 92 -19t64 -50t37.5 -71t12.5 -81q0 -26 -3.5 -49zM298 377
q-40 0 -67 -21.5t-37 -51.5h179q1 31 -19.5 52t-55.5 21zM331 700h177l-140 -142h-139z" />
    <glyph glyph-name="ecircumflex" unicode="&#xea;" horiz-adv-x="547" 
d="M510 209h-333q2 -35 26 -62.5t71 -27.5q37 0 69 15.5t59 41.5l83 -90q-37 -40 -92.5 -68.5t-133.5 -28.5q-50 0 -91.5 17.5t-71 48t-46 73t-16.5 92.5q0 61 21.5 113t58.5 89.5t87.5 58.5t109.5 21q53 0 92 -19t64 -50t37.5 -71t12.5 -81q0 -26 -3.5 -49zM298 377
q-40 0 -67 -21.5t-37 -51.5h179q1 31 -19.5 52t-55.5 21zM264 700h163l71 -142h-118l-42 59l-57 -59h-128z" />
    <glyph glyph-name="edieresis" unicode="&#xeb;" horiz-adv-x="547" 
d="M510 209h-333q2 -35 26 -62.5t71 -27.5q37 0 69 15.5t59 41.5l83 -90q-37 -40 -92.5 -68.5t-133.5 -28.5q-50 0 -91.5 17.5t-71 48t-46 73t-16.5 92.5q0 61 21.5 113t58.5 89.5t87.5 58.5t109.5 21q53 0 92 -19t64 -50t37.5 -71t12.5 -81q0 -26 -3.5 -49zM298 377
q-40 0 -67 -21.5t-37 -51.5h179q1 31 -19.5 52t-55.5 21zM161 638q0 30 21 52t52 22q30 0 52 -22t22 -52q0 -31 -22 -52.5t-52 -21.5q-31 0 -52 21.5t-21 52.5zM374 638q0 30 21 52t52 22q30 0 52 -22t22 -52q0 -31 -22 -52.5t-52 -21.5q-31 0 -52 21.5t-21 52.5z" />
    <glyph glyph-name="igrave" unicode="&#xec;" horiz-adv-x="279" 
d="M33 0l69 490h143l-69 -490h-143zM33 700h175l54 -142h-135z" />
    <glyph glyph-name="iacute" unicode="&#xed;" horiz-adv-x="279" 
d="M33 0l69 490h143l-69 -490h-143zM187 700h177l-140 -142h-139z" />
    <glyph glyph-name="icircumflex" unicode="&#xee;" horiz-adv-x="279" 
d="M33 0l69 490h143l-69 -490h-143zM120 700h163l71 -142h-118l-42 59l-57 -59h-128z" />
    <glyph glyph-name="idieresis" unicode="&#xef;" horiz-adv-x="279" 
d="M33 0l69 490h143l-69 -490h-143zM17 638q0 30 21 52t52 22q30 0 52 -22t22 -52q0 -31 -22 -52.5t-52 -21.5q-31 0 -52 21.5t-21 52.5zM230 638q0 30 21 52t52 22q30 0 52 -22t22 -52q0 -31 -22 -52.5t-52 -21.5q-31 0 -52 21.5t-21 52.5z" />
    <glyph glyph-name="eth" unicode="&#xf0;" horiz-adv-x="561" 
d="M296 529l-117 -53l15 107l54 24l-56 93h156l22 -38l109 50l-15 -108l-47 -21l53 -91q28 -49 43.5 -103.5t15.5 -105.5q0 -55 -19 -108t-54.5 -94t-87.5 -66.5t-117 -25.5q-50 0 -90.5 16t-68.5 43.5t-43.5 65.5t-15.5 81q0 61 21 110t56 82.5t80 51.5t93 18
q11 0 30.5 -1.5t31.5 -6.5zM179 209q0 -36 21 -61.5t61 -25.5q49 0 80 34.5t31 79.5q0 36 -21.5 61.5t-61.5 25.5q-49 0 -79.5 -34.5t-30.5 -79.5z" />
    <glyph glyph-name="ntilde" unicode="&#xf1;" horiz-adv-x="570" 
d="M202 245l-34 -245h-142l69 490h140l-5 -34q23 19 56 32.5t68 13.5q79 0 124 -52t45 -137q0 -11 -1.5 -23.5t-2.5 -24.5l-37 -265h-143l39 274q1 5 1 10.5v10.5q0 32 -16 53.5t-53 21.5q-50 0 -75 -34.5t-33 -90.5zM426 700h96q-7 -48 -39 -86.5t-78 -38.5q-13 0 -28 4
t-31 9l-25 8q-7 2 -14.5 3.5t-14.5 1.5q-8 0 -18 -5t-13 -21h-96q7 49 39 87t78 38q13 0 28 -3.5t31 -8.5l25 -8q7 -2 14.5 -4t14.5 -2q8 0 18 5.5t13 20.5z" />
    <glyph glyph-name="ograve" unicode="&#xf2;" horiz-adv-x="588" 
d="M33 220q0 61 23.5 113t63 89.5t93.5 58.5t114 21q50 0 92.5 -18.5t72.5 -50t47 -74.5t17 -91q0 -61 -23.5 -112.5t-63 -88t-93.5 -57.5t-114 -21q-50 0 -92 18t-72.5 49t-47.5 73.5t-17 90.5zM179 227q0 -46 27 -76t71 -30q54 0 93.5 41t39.5 101q0 46 -27 76t-71 30
q-54 0 -93.5 -41t-39.5 -101zM185 700h175l54 -142h-135z" />
    <glyph glyph-name="oacute" unicode="&#xf3;" horiz-adv-x="588" 
d="M33 220q0 61 23.5 113t63 89.5t93.5 58.5t114 21q50 0 92.5 -18.5t72.5 -50t47 -74.5t17 -91q0 -61 -23.5 -112.5t-63 -88t-93.5 -57.5t-114 -21q-50 0 -92 18t-72.5 49t-47.5 73.5t-17 90.5zM179 227q0 -46 27 -76t71 -30q54 0 93.5 41t39.5 101q0 46 -27 76t-71 30
q-54 0 -93.5 -41t-39.5 -101zM339 700h177l-140 -142h-139z" />
    <glyph glyph-name="ocircumflex" unicode="&#xf4;" horiz-adv-x="588" 
d="M33 220q0 61 23.5 113t63 89.5t93.5 58.5t114 21q50 0 92.5 -18.5t72.5 -50t47 -74.5t17 -91q0 -61 -23.5 -112.5t-63 -88t-93.5 -57.5t-114 -21q-50 0 -92 18t-72.5 49t-47.5 73.5t-17 90.5zM179 227q0 -46 27 -76t71 -30q54 0 93.5 41t39.5 101q0 46 -27 76t-71 30
q-54 0 -93.5 -41t-39.5 -101zM272 700h163l71 -142h-118l-42 59l-57 -59h-128z" />
    <glyph glyph-name="otilde" unicode="&#xf5;" horiz-adv-x="588" 
d="M33 220q0 61 23.5 113t63 89.5t93.5 58.5t114 21q50 0 92.5 -18.5t72.5 -50t47 -74.5t17 -91q0 -61 -23.5 -112.5t-63 -88t-93.5 -57.5t-114 -21q-50 0 -92 18t-72.5 49t-47.5 73.5t-17 90.5zM179 227q0 -46 27 -76t71 -30q54 0 93.5 41t39.5 101q0 46 -27 76t-71 30
q-54 0 -93.5 -41t-39.5 -101zM428 700h96q-7 -48 -39 -86.5t-78 -38.5q-13 0 -28 4t-31 9l-25 8q-7 2 -14.5 3.5t-14.5 1.5q-8 0 -18 -5t-13 -21h-96q7 49 39 87t78 38q13 0 28 -3.5t31 -8.5l25 -8q7 -2 14.5 -4t14.5 -2q8 0 18 5.5t13 20.5z" />
    <glyph glyph-name="odieresis" unicode="&#xf6;" horiz-adv-x="588" 
d="M33 220q0 61 23.5 113t63 89.5t93.5 58.5t114 21q50 0 92.5 -18.5t72.5 -50t47 -74.5t17 -91q0 -61 -23.5 -112.5t-63 -88t-93.5 -57.5t-114 -21q-50 0 -92 18t-72.5 49t-47.5 73.5t-17 90.5zM179 227q0 -46 27 -76t71 -30q54 0 93.5 41t39.5 101q0 46 -27 76t-71 30
q-54 0 -93.5 -41t-39.5 -101zM169 638q0 30 21 52t52 22q30 0 52 -22t22 -52q0 -31 -22 -52.5t-52 -21.5q-31 0 -52 21.5t-21 52.5zM382 638q0 30 21 52t52 22q30 0 52 -22t22 -52q0 -31 -22 -52.5t-52 -21.5q-31 0 -52 21.5t-21 52.5z" />
    <glyph glyph-name="divide" unicode="&#xf7;" horiz-adv-x="619" 
d="M199 69q0 33 22.5 56t56.5 23q33 0 56.5 -23t23.5 -56q0 -34 -23.5 -57t-56.5 -23q-34 0 -56.5 23t-22.5 57zM251 453q0 34 22.5 57t56.5 23t57.5 -23t23.5 -57t-23.5 -57t-57.5 -23t-56.5 23t-22.5 57zM45 194l19 132h500l-19 -132h-500z" />
    <glyph glyph-name="oslash" unicode="&#xf8;" horiz-adv-x="588" 
d="M33 220q0 61 23.5 113t63 89.5t93.5 58.5t114 21q24 0 47 -5t43 -13l44 53l90 -73l-42 -51q22 -30 34.5 -67t12.5 -78q0 -61 -23.5 -112.5t-63 -88t-93.5 -57.5t-114 -21q-26 0 -50 5t-45 14l-43 -51l-90 72l43 51q-21 29 -32.5 64.5t-11.5 75.5zM410 263q0 7 -1 14.5
t-2 14.5l-144 -171h14q54 0 93.5 41t39.5 101zM179 227q0 -6 0.5 -12t1.5 -12l139 166h-8q-54 0 -93.5 -41t-39.5 -101z" />
    <glyph glyph-name="ugrave" unicode="&#xf9;" horiz-adv-x="560" 
d="M365 239l35 251h144l-69 -490h-140l5 34q-26 -23 -60 -34t-69 -11q-85 0 -125.5 61t-25.5 165l39 275h142l-39 -279q-5 -40 10 -65.5t53 -25.5q46 0 69 31.5t31 87.5zM179 700h175l54 -142h-135z" />
    <glyph glyph-name="uacute" unicode="&#xfa;" horiz-adv-x="560" 
d="M365 239l35 251h144l-69 -490h-140l5 34q-26 -23 -60 -34t-69 -11q-85 0 -125.5 61t-25.5 165l39 275h142l-39 -279q-5 -40 10 -65.5t53 -25.5q46 0 69 31.5t31 87.5zM333 700h177l-140 -142h-139z" />
    <glyph glyph-name="ucircumflex" unicode="&#xfb;" horiz-adv-x="560" 
d="M365 239l35 251h144l-69 -490h-140l5 34q-26 -23 -60 -34t-69 -11q-85 0 -125.5 61t-25.5 165l39 275h142l-39 -279q-5 -40 10 -65.5t53 -25.5q46 0 69 31.5t31 87.5zM266 700h163l71 -142h-118l-42 59l-57 -59h-128z" />
    <glyph glyph-name="udieresis" unicode="&#xfc;" horiz-adv-x="560" 
d="M365 239l35 251h144l-69 -490h-140l5 34q-26 -23 -60 -34t-69 -11q-85 0 -125.5 61t-25.5 165l39 275h142l-39 -279q-5 -40 10 -65.5t53 -25.5q46 0 69 31.5t31 87.5zM163 638q0 30 21 52t52 22q30 0 52 -22t22 -52q0 -31 -22 -52.5t-52 -21.5q-31 0 -52 21.5t-21 52.5z
M376 638q0 30 21 52t52 22q30 0 52 -22t22 -52q0 -31 -22 -52.5t-52 -21.5q-31 0 -52 21.5t-21 52.5z" />
    <glyph glyph-name="yacute" unicode="&#xfd;" horiz-adv-x="546" 
d="M210 -194h-155l110 197l-120 487h153l67 -303l157 303h157zM320 700h177l-140 -142h-139z" />
    <glyph glyph-name="thorn" unicode="&#xfe;" horiz-adv-x="610" 
d="M577 272q0 -64 -22.5 -116.5t-60.5 -89t-88.5 -57t-105.5 -20.5q-42 0 -73.5 12t-52.5 33l-33 -228h-142l126 894h140l-35 -245q22 19 58 33t77 14q46 0 85 -17t67 -47t44 -72.5t16 -93.5zM199 226q0 -49 27.5 -79t70.5 -30q54 0 93.5 41.5t39.5 105.5q0 49 -27 79
t-70 30q-54 0 -94 -41.5t-40 -105.5z" />
    <glyph glyph-name="ydieresis" unicode="&#xff;" horiz-adv-x="546" 
d="M210 -194h-155l110 197l-120 487h153l67 -303l157 303h157zM150 638q0 30 21 52t52 22q30 0 52 -22t22 -52q0 -31 -22 -52.5t-52 -21.5q-31 0 -52 21.5t-21 52.5zM363 638q0 30 21 52t52 22q30 0 52 -22t22 -52q0 -31 -22 -52.5t-52 -21.5q-31 0 -52 21.5t-21 52.5z" />
    <glyph glyph-name="Amacron" unicode="&#x100;" horiz-adv-x="712" 
d="M481 700l175 -700h-149l-37 138h-271l-74 -138h-159l373 700h142zM386 498l-119 -228h174zM313 886h250l-17 -117h-250z" />
    <glyph glyph-name="amacron" unicode="&#x101;" horiz-adv-x="601" 
d="M35 216q0 58 19 110.5t52.5 91t80.5 61.5t101 23q41 0 77 -14t61 -51l8 53h140l-69 -490h-140l6 43q-22 -24 -57.5 -39t-84.5 -15q-42 0 -77.5 17t-61.5 47t-40.5 72t-14.5 91zM404 269q0 46 -26.5 76.5t-66.5 30.5q-32 0 -57 -14t-42 -35.5t-25.5 -48.5t-8.5 -53
q0 -46 25 -76.5t68 -30.5q32 0 57 14t42 35.5t25.5 48.5t8.5 53zM251 700h250l-17 -117h-250z" />
    <glyph glyph-name="Abreve" unicode="&#x102;" horiz-adv-x="712" 
d="M481 700l175 -700h-149l-37 138h-271l-74 -138h-159l373 700h142zM386 498l-119 -228h174zM415 740q-62 0 -98 39.5t-31 108.5h106q-1 -15 6.5 -27.5t31.5 -12.5t35.5 12.5t15.5 27.5h106q-14 -69 -61.5 -108.5t-110.5 -39.5z" />
    <glyph glyph-name="abreve" unicode="&#x103;" horiz-adv-x="601" 
d="M35 216q0 58 19 110.5t52.5 91t80.5 61.5t101 23q41 0 77 -14t61 -51l8 53h140l-69 -490h-140l6 43q-22 -24 -57.5 -39t-84.5 -15q-42 0 -77.5 17t-61.5 47t-40.5 72t-14.5 91zM404 269q0 46 -26.5 76.5t-66.5 30.5q-32 0 -57 -14t-42 -35.5t-25.5 -48.5t-8.5 -53
q0 -46 25 -76.5t68 -30.5q32 0 57 14t42 35.5t25.5 48.5t8.5 53zM361 552q-62 0 -97.5 40.5t-31.5 107.5h102q-1 -15 6.5 -27.5t31.5 -12.5t35.5 12.5t15.5 27.5h110q-14 -69 -61.5 -108.5t-110.5 -39.5z" />
    <glyph glyph-name="Aogonek" unicode="&#x104;" horiz-adv-x="712" 
d="M481 700l175 -700q-36 -19 -53.5 -38t-17.5 -37q0 -15 13.5 -23t39.5 -8h4l-12 -83q-8 -1 -23 -3t-34 -2q-49 0 -75 21t-26 59t23.5 67t51.5 47h-40l-37 138h-271l-74 -138h-159l373 700h142zM386 498l-119 -228h174z" />
    <glyph glyph-name="aogonek" unicode="&#x105;" horiz-adv-x="601" 
d="M35 216q0 58 19 110.5t52.5 91t80.5 61.5t101 23q41 0 77 -14t61 -51l8 53h140l-69 -490q-36 -19 -53.5 -38t-17.5 -37q0 -15 13.5 -23t39.5 -8h4l-12 -83q-8 -1 -23 -3t-34 -2q-49 0 -75 21t-26 59t23.5 67t51.5 47h-31l6 43q-22 -24 -57.5 -39t-84.5 -15
q-42 0 -77.5 17t-61.5 47t-40.5 72t-14.5 91zM404 269q0 46 -26.5 76.5t-66.5 30.5q-32 0 -57 -14t-42 -35.5t-25.5 -48.5t-8.5 -53q0 -46 25 -76.5t68 -30.5q32 0 57 14t42 35.5t25.5 48.5t8.5 53z" />
    <glyph glyph-name="Cacute" unicode="&#x106;" horiz-adv-x="731" 
d="M583 224l86 -107q-55 -57 -131.5 -92.5t-175.5 -35.5q-73 0 -133.5 24t-103 67t-66 103.5t-23.5 131.5q0 93 33 167t89 125t132 78t160 27q90 0 157.5 -38t111.5 -94l-112 -99q-30 40 -73.5 66t-101.5 26q-41 0 -84.5 -16.5t-78 -48.5t-56.5 -79.5t-22 -109.5
q0 -90 54 -140.5t132 -50.5q59 0 111.5 24t94.5 72zM441 872h170l-107 -103h-151z" />
    <glyph glyph-name="cacute" unicode="&#x107;" horiz-adv-x="537" 
d="M407 184l86 -96q-48 -49 -103 -74t-126 -25q-52 0 -94.5 18.5t-73 50t-47 75t-16.5 93.5q0 61 22.5 112t61 87t91.5 56.5t113 20.5q68 0 119.5 -26t84.5 -69l-108 -93q-17 25 -43.5 39.5t-58.5 14.5q-55 0 -95.5 -39.5t-40.5 -99.5q0 -47 29 -77t76 -30q37 0 66.5 16
t56.5 46zM335 700h177l-140 -142h-139z" />
    <glyph glyph-name="Ccircumflex" unicode="&#x108;" horiz-adv-x="731" 
d="M583 224l86 -107q-55 -57 -131.5 -92.5t-175.5 -35.5q-73 0 -133.5 24t-103 67t-66 103.5t-23.5 131.5q0 93 33 167t89 125t132 78t160 27q90 0 157.5 -38t111.5 -94l-112 -99q-30 40 -73.5 66t-101.5 26q-41 0 -84.5 -16.5t-78 -48.5t-56.5 -79.5t-22 -109.5
q0 -90 54 -140.5t132 -50.5q59 0 111.5 24t94.5 72zM391 872h174l71 -103h-138l-32 40l-44 -40h-131z" />
    <glyph glyph-name="ccircumflex" unicode="&#x109;" horiz-adv-x="537" 
d="M407 184l86 -96q-48 -49 -103 -74t-126 -25q-52 0 -94.5 18.5t-73 50t-47 75t-16.5 93.5q0 61 22.5 112t61 87t91.5 56.5t113 20.5q68 0 119.5 -26t84.5 -69l-108 -93q-17 25 -43.5 39.5t-58.5 14.5q-55 0 -95.5 -39.5t-40.5 -99.5q0 -47 29 -77t76 -30q37 0 66.5 16
t56.5 46zM268 700h163l71 -142h-118l-42 59l-57 -59h-128z" />
    <glyph glyph-name="Cdotaccent" unicode="&#x10a;" horiz-adv-x="731" 
d="M583 224l86 -107q-55 -57 -131.5 -92.5t-175.5 -35.5q-73 0 -133.5 24t-103 67t-66 103.5t-23.5 131.5q0 93 33 167t89 125t132 78t160 27q90 0 157.5 -38t111.5 -94l-112 -99q-30 40 -73.5 66t-101.5 26q-41 0 -84.5 -16.5t-78 -48.5t-56.5 -79.5t-22 -109.5
q0 -90 54 -140.5t132 -50.5q59 0 111.5 24t94.5 72zM368 831q0 34 24 58.5t58 24.5t58.5 -24.5t24.5 -58.5t-24.5 -58t-58.5 -24t-58 24t-24 58z" />
    <glyph glyph-name="cdotaccent" unicode="&#x10b;" horiz-adv-x="537" 
d="M407 184l86 -96q-48 -49 -103 -74t-126 -25q-52 0 -94.5 18.5t-73 50t-47 75t-16.5 93.5q0 61 22.5 112t61 87t91.5 56.5t113 20.5q68 0 119.5 -26t84.5 -69l-108 -93q-17 25 -43.5 39.5t-58.5 14.5q-55 0 -95.5 -39.5t-40.5 -99.5q0 -47 29 -77t76 -30q37 0 66.5 16
t56.5 46zM261 629q0 34 24 58.5t58 24.5t58.5 -24.5t24.5 -58.5t-24.5 -58t-58.5 -24t-58 24t-24 58z" />
    <glyph glyph-name="Ccaron" unicode="&#x10c;" horiz-adv-x="731" 
d="M583 224l86 -107q-55 -57 -131.5 -92.5t-175.5 -35.5q-73 0 -133.5 24t-103 67t-66 103.5t-23.5 131.5q0 93 33 167t89 125t132 78t160 27q90 0 157.5 -38t111.5 -94l-112 -99q-30 40 -73.5 66t-101.5 26q-41 0 -84.5 -16.5t-78 -48.5t-56.5 -79.5t-22 -109.5
q0 -90 54 -140.5t132 -50.5q59 0 111.5 24t94.5 72zM552 769h-174l-72 103h130l32 -41l44 41h139z" />
    <glyph glyph-name="ccaron" unicode="&#x10d;" horiz-adv-x="537" 
d="M407 184l86 -96q-48 -49 -103 -74t-126 -25q-52 0 -94.5 18.5t-73 50t-47 75t-16.5 93.5q0 61 22.5 112t61 87t91.5 56.5t113 20.5q68 0 119.5 -26t84.5 -69l-108 -93q-17 25 -43.5 39.5t-58.5 14.5q-55 0 -95.5 -39.5t-40.5 -99.5q0 -47 29 -77t76 -30q37 0 66.5 16
t56.5 46zM421 558h-163l-71 142h117l41 -59l58 59h129z" />
    <glyph glyph-name="Dcaron" unicode="&#x10e;" horiz-adv-x="733" 
d="M24 0l99 700h231q65 0 127 -18.5t110.5 -56t78.5 -96.5t30 -140q0 -108 -40.5 -182.5t-104.5 -120t-143.5 -66t-156.5 -20.5h-231zM321 563h-70l-60 -426h61q62 0 116.5 13.5t94 43t62.5 76.5t23 112q0 49 -17.5 84t-48 56t-72.5 31t-89 10zM541 769h-174l-72 103h130
l32 -41l44 41h139z" />
    <glyph glyph-name="dcaron" unicode="&#x10f;" horiz-adv-x="611" 
d="M33 223q0 65 23 117t62 88t90 55t107 19q44 0 75.5 -13.5t47.5 -29.5l34 241h142l-99 -700h-140l5 35q-22 -19 -58 -32.5t-77 -13.5q-46 0 -85 17.5t-67 48.5t-44 74t-16 94zM411 264q0 49 -27 79t-71 30q-54 0 -93.5 -41.5t-39.5 -105.5q0 -49 27 -79t70 -30
q54 0 94 41.5t40 105.5zM740 511l86 189h-137l-54 -189h105z" />
    <glyph glyph-name="Dcroat" unicode="&#x110;" horiz-adv-x="733" 
d="M24 0l41 292h-73l18 131h74l39 277h231q65 0 127 -18.5t110.5 -56t78.5 -96.5t30 -140q0 -108 -40.5 -182.5t-104.5 -120t-143.5 -66t-156.5 -20.5h-231zM329 292h-115l-22 -155h60q62 0 116.5 13.5t94 43t62.5 76.5t23 112q0 49 -17.5 84t-48 56t-72.5 31t-89 10h-69
l-20 -140h115z" />
    <glyph glyph-name="dcroat" unicode="&#x111;" horiz-adv-x="611" 
d="M284 530l18 128h164l6 42h142l-6 -42h52l-18 -128h-52l-75 -530h-140l5 35q-22 -19 -58 -32.5t-77 -13.5q-46 0 -85 17.5t-67 48.5t-44 74t-16 94q0 65 23 117t62 88t90 55t107 19q44 0 75.5 -13.5t47.5 -29.5l10 71h-164zM411 264q0 49 -27 79t-71 30q-54 0 -93.5 -41.5
t-39.5 -105.5q0 -49 27 -79t70 -30q54 0 94 41.5t40 105.5z" />
    <glyph glyph-name="Emacron" unicode="&#x112;" horiz-adv-x="648" 
d="M24 0l99 700h517l-20 -137h-369l-19 -138h352l-19 -135h-352l-22 -153h369l-19 -137h-517zM290 886h250l-17 -117h-250z" />
    <glyph glyph-name="emacron" unicode="&#x113;" horiz-adv-x="547" 
d="M510 209h-333q2 -35 26 -62.5t71 -27.5q37 0 69 15.5t59 41.5l83 -90q-37 -40 -92.5 -68.5t-133.5 -28.5q-50 0 -91.5 17.5t-71 48t-46 73t-16.5 92.5q0 61 21.5 113t58.5 89.5t87.5 58.5t109.5 21q53 0 92 -19t64 -50t37.5 -71t12.5 -81q0 -26 -3.5 -49zM298 377
q-40 0 -67 -21.5t-37 -51.5h179q1 31 -19.5 52t-55.5 21zM224 700h250l-17 -117h-250z" />
    <glyph glyph-name="Ebreve" unicode="&#x114;" horiz-adv-x="648" 
d="M24 0l99 700h517l-20 -137h-369l-19 -138h352l-19 -135h-352l-22 -153h369l-19 -137h-517zM390 740q-62 0 -98 39.5t-31 108.5h106q-1 -15 6.5 -27.5t31.5 -12.5t35.5 12.5t15.5 27.5h106q-14 -69 -61.5 -108.5t-110.5 -39.5z" />
    <glyph glyph-name="ebreve" unicode="&#x115;" horiz-adv-x="547" 
d="M510 209h-333q2 -35 26 -62.5t71 -27.5q37 0 69 15.5t59 41.5l83 -90q-37 -40 -92.5 -68.5t-133.5 -28.5q-50 0 -91.5 17.5t-71 48t-46 73t-16.5 92.5q0 61 21.5 113t58.5 89.5t87.5 58.5t109.5 21q53 0 92 -19t64 -50t37.5 -71t12.5 -81q0 -26 -3.5 -49zM298 377
q-40 0 -67 -21.5t-37 -51.5h179q1 31 -19.5 52t-55.5 21zM334 552q-62 0 -97.5 40.5t-31.5 107.5h102q-1 -15 6.5 -27.5t31.5 -12.5t35.5 12.5t15.5 27.5h110q-14 -69 -61.5 -108.5t-110.5 -39.5z" />
    <glyph glyph-name="Edotaccent" unicode="&#x116;" horiz-adv-x="648" 
d="M24 0l99 700h517l-20 -137h-369l-19 -138h352l-19 -135h-352l-22 -153h369l-19 -137h-517zM322 831q0 34 24 58.5t58 24.5t58.5 -24.5t24.5 -58.5t-24.5 -58t-58.5 -24t-58 24t-24 58z" />
    <glyph glyph-name="edotaccent" unicode="&#x117;" horiz-adv-x="547" 
d="M510 209h-333q2 -35 26 -62.5t71 -27.5q37 0 69 15.5t59 41.5l83 -90q-37 -40 -92.5 -68.5t-133.5 -28.5q-50 0 -91.5 17.5t-71 48t-46 73t-16.5 92.5q0 61 21.5 113t58.5 89.5t87.5 58.5t109.5 21q53 0 92 -19t64 -50t37.5 -71t12.5 -81q0 -26 -3.5 -49zM298 377
q-40 0 -67 -21.5t-37 -51.5h179q1 31 -19.5 52t-55.5 21zM257 629q0 34 24 58.5t58 24.5t58.5 -24.5t24.5 -58.5t-24.5 -58t-58.5 -24t-58 24t-24 58z" />
    <glyph glyph-name="Eogonek" unicode="&#x118;" horiz-adv-x="648" 
d="M24 0l99 700h517l-20 -137h-369l-19 -138h352l-19 -135h-352l-22 -153h369l-19 -137q-36 -19 -53.5 -38t-17.5 -37q0 -15 13.5 -23t39.5 -8h4l-12 -83q-8 -1 -23 -3t-34 -2q-49 0 -75 21t-26 59t23.5 67t51.5 47h-408z" />
    <glyph glyph-name="eogonek" unicode="&#x119;" horiz-adv-x="547" 
d="M510 209h-333q2 -35 26 -62.5t71 -27.5q37 0 69 15.5t59 41.5l83 -90q-27 -29 -62 -52t-81 -35q-35 -18 -52 -37t-17 -37q0 -15 13.5 -23t39.5 -8h4l-12 -83q-8 -1 -23 -3t-34 -2q-49 0 -75 21t-26 59q0 34 19 60.5t44 45.5q-84 11 -136.5 74t-52.5 154q0 61 21.5 113
t58.5 89.5t87.5 58.5t109.5 21q53 0 92 -19t64 -50t37.5 -71t12.5 -81q0 -26 -3.5 -49zM298 377q-40 0 -67 -21.5t-37 -51.5h179q1 31 -19.5 52t-55.5 21z" />
    <glyph glyph-name="Ecaron" unicode="&#x11a;" horiz-adv-x="648" 
d="M24 0l99 700h517l-20 -137h-369l-19 -138h352l-19 -135h-352l-22 -153h369l-19 -137h-517zM472 769h-174l-72 103h130l32 -41l44 41h139z" />
    <glyph glyph-name="ecaron" unicode="&#x11b;" horiz-adv-x="547" 
d="M510 209h-333q2 -35 26 -62.5t71 -27.5q37 0 69 15.5t59 41.5l83 -90q-37 -40 -92.5 -68.5t-133.5 -28.5q-50 0 -91.5 17.5t-71 48t-46 73t-16.5 92.5q0 61 21.5 113t58.5 89.5t87.5 58.5t109.5 21q53 0 92 -19t64 -50t37.5 -71t12.5 -81q0 -26 -3.5 -49zM298 377
q-40 0 -67 -21.5t-37 -51.5h179q1 31 -19.5 52t-55.5 21zM417 558h-163l-71 142h117l41 -59l58 59h129z" />
    <glyph glyph-name="Gcircumflex" unicode="&#x11c;" horiz-adv-x="754" 
d="M399 253l19 137h285l-41 -288q-54 -49 -130 -81t-170 -32q-72 0 -132.5 25t-103 69t-66.5 104.5t-24 130.5q0 92 33.5 165.5t90 124t132 77.5t157.5 27q94 0 160 -36t113 -92l-109 -98q-33 43 -78 65t-103 22q-41 0 -84.5 -16.5t-78 -48.5t-56.5 -79t-22 -108
q0 -89 53.5 -141t132.5 -52q40 0 78.5 11.5t71.5 33.5l11 80h-139zM381 872h174l71 -103h-138l-32 40l-44 -40h-131z" />
    <glyph glyph-name="gcircumflex" unicode="&#x11d;" horiz-adv-x="602" 
d="M368 35l2 13q-21 -16 -52.5 -26.5t-72.5 -10.5q-91 0 -149.5 62.5t-58.5 161.5q0 68 25 118t64 83t87 49.5t92 16.5q37 0 71 -14t53 -35l6 37h140l-64 -454q-16 -110 -92.5 -175.5t-202.5 -65.5q-45 0 -80.5 10.5t-61.5 26t-43.5 32.5t-27.5 30l107 91q16 -25 46 -42
t73 -17q56 0 94 30t45 79zM403 273q0 46 -27 73t-67 27q-49 0 -87.5 -37t-38.5 -96q0 -45 27 -72.5t67 -27.5q49 0 87.5 37t38.5 96zM279 700h163l71 -142h-118l-42 59l-57 -59h-128z" />
    <glyph glyph-name="Gbreve" unicode="&#x11e;" horiz-adv-x="754" 
d="M399 253l19 137h285l-41 -288q-54 -49 -130 -81t-170 -32q-72 0 -132.5 25t-103 69t-66.5 104.5t-24 130.5q0 92 33.5 165.5t90 124t132 77.5t157.5 27q94 0 160 -36t113 -92l-109 -98q-33 43 -78 65t-103 22q-41 0 -84.5 -16.5t-78 -48.5t-56.5 -79t-22 -108
q0 -89 53.5 -141t132.5 -52q40 0 78.5 11.5t71.5 33.5l11 80h-139zM441 740q-62 0 -98 39.5t-31 108.5h106q-1 -15 6.5 -27.5t31.5 -12.5t35.5 12.5t15.5 27.5h106q-14 -69 -61.5 -108.5t-110.5 -39.5z" />
    <glyph glyph-name="gbreve" unicode="&#x11f;" horiz-adv-x="602" 
d="M368 35l2 13q-21 -16 -52.5 -26.5t-72.5 -10.5q-91 0 -149.5 62.5t-58.5 161.5q0 68 25 118t64 83t87 49.5t92 16.5q37 0 71 -14t53 -35l6 37h140l-64 -454q-16 -110 -92.5 -175.5t-202.5 -65.5q-45 0 -80.5 10.5t-61.5 26t-43.5 32.5t-27.5 30l107 91q16 -25 46 -42
t73 -17q56 0 94 30t45 79zM403 273q0 46 -27 73t-67 27q-49 0 -87.5 -37t-38.5 -96q0 -45 27 -72.5t67 -27.5q49 0 87.5 37t38.5 96zM349 552q-62 0 -97.5 40.5t-31.5 107.5h102q-1 -15 6.5 -27.5t31.5 -12.5t35.5 12.5t15.5 27.5h110q-14 -69 -61.5 -108.5t-110.5 -39.5z
" />
    <glyph glyph-name="Gdotaccent" unicode="&#x120;" horiz-adv-x="754" 
d="M399 253l19 137h285l-41 -288q-54 -49 -130 -81t-170 -32q-72 0 -132.5 25t-103 69t-66.5 104.5t-24 130.5q0 92 33.5 165.5t90 124t132 77.5t157.5 27q94 0 160 -36t113 -92l-109 -98q-33 43 -78 65t-103 22q-41 0 -84.5 -16.5t-78 -48.5t-56.5 -79t-22 -108
q0 -89 53.5 -141t132.5 -52q40 0 78.5 11.5t71.5 33.5l11 80h-139zM358 831q0 34 24 58.5t58 24.5t58.5 -24.5t24.5 -58.5t-24.5 -58t-58.5 -24t-58 24t-24 58z" />
    <glyph glyph-name="gdotaccent" unicode="&#x121;" horiz-adv-x="602" 
d="M368 35l2 13q-21 -16 -52.5 -26.5t-72.5 -10.5q-91 0 -149.5 62.5t-58.5 161.5q0 68 25 118t64 83t87 49.5t92 16.5q37 0 71 -14t53 -35l6 37h140l-64 -454q-16 -110 -92.5 -175.5t-202.5 -65.5q-45 0 -80.5 10.5t-61.5 26t-43.5 32.5t-27.5 30l107 91q16 -25 46 -42
t73 -17q56 0 94 30t45 79zM403 273q0 46 -27 73t-67 27q-49 0 -87.5 -37t-38.5 -96q0 -45 27 -72.5t67 -27.5q49 0 87.5 37t38.5 96zM257 629q0 34 24 58.5t58 24.5t58.5 -24.5t24.5 -58.5t-24.5 -58t-58.5 -24t-58 24t-24 58z" />
    <glyph glyph-name="Gcommaaccent" unicode="&#x122;" horiz-adv-x="754" 
d="M399 253l19 137h285l-41 -288q-54 -49 -130 -81t-170 -32q-72 0 -132.5 25t-103 69t-66.5 104.5t-24 130.5q0 92 33.5 165.5t90 124t132 77.5t157.5 27q94 0 160 -36t113 -92l-109 -98q-33 43 -78 65t-103 22q-41 0 -84.5 -16.5t-78 -48.5t-56.5 -79t-22 -108
q0 -89 53.5 -141t132.5 -52q40 0 78.5 11.5t71.5 33.5l11 80h-139zM289 -57h141l-91 -137h-115z" />
    <glyph glyph-name="gcommaaccent" unicode="&#x123;" horiz-adv-x="602" 
d="M368 35l2 13q-21 -16 -52.5 -26.5t-72.5 -10.5q-91 0 -149.5 62.5t-58.5 161.5q0 68 25 118t64 83t87 49.5t92 16.5q37 0 71 -14t53 -35l6 37h140l-64 -454q-16 -110 -92.5 -175.5t-202.5 -65.5q-45 0 -80.5 10.5t-61.5 26t-43.5 32.5t-27.5 30l107 91q16 -25 46 -42
t73 -17q56 0 94 30t45 79zM403 273q0 46 -27 73t-67 27q-49 0 -87.5 -37t-38.5 -96q0 -45 27 -72.5t67 -27.5q49 0 87.5 37t38.5 96zM392 563h-141l91 137h115z" />
    <glyph glyph-name="Hcircumflex" unicode="&#x124;" horiz-adv-x="727" 
d="M467 0l41 290h-295l-41 -290h-148l99 700h148l-39 -274h295l39 274h148l-99 -700h-148zM360 872h174l71 -103h-138l-32 40l-44 -40h-131z" />
    <glyph glyph-name="hcircumflex" unicode="&#x125;" horiz-adv-x="570" 
d="M202 245l-34 -245h-142l99 700h142l-35 -242q23 19 55 31.5t67 12.5q79 0 124 -52t45 -137q0 -11 -1.5 -23.5t-2.5 -24.5l-37 -265h-143l39 274q1 5 1 10.5v10.5q0 32 -16 53.5t-53 21.5q-50 0 -75 -34.5t-33 -90.5zM142 872h174l71 -103h-138l-32 40l-44 -40h-131z" />
    <glyph glyph-name="Hbar" unicode="&#x126;" horiz-adv-x="727" 
d="M41 619h70l12 81h148l-12 -81h295l12 81h148l-12 -81h70l-16 -117h-70l-71 -502h-148l41 290h-295l-41 -290h-148l71 502h-70zM232 426h295l11 76h-295z" />
    <glyph glyph-name="hbar" unicode="&#x127;" horiz-adv-x="570" 
d="M47 530l18 128h54l6 42h142l-6 -42h162l-18 -128h-163l-10 -72q23 19 55 31.5t67 12.5q79 0 124 -52t45 -137q0 -11 -1.5 -23.5t-2.5 -24.5l-37 -265h-143l39 274q1 5 1 10.5v10.5q0 32 -16 53.5t-53 21.5q-50 0 -75 -34.5t-33 -90.5l-34 -245h-142l75 530h-54z" />
    <glyph glyph-name="Itilde" unicode="&#x128;" horiz-adv-x="284" 
d="M24 0l99 700h148l-99 -700h-148zM296 894h96q-7 -48 -39 -86.5t-78 -38.5q-13 0 -28 4t-31 9l-25 8q-7 2 -14.5 3.5t-14.5 1.5q-8 0 -18 -5t-13 -21h-96q7 49 39 87t78 38q13 0 28 -3.5t31 -8.5l25 -8q7 -2 14.5 -4t14.5 -2q8 0 18 5.5t13 20.5z" />
    <glyph glyph-name="itilde" unicode="&#x129;" horiz-adv-x="279" 
d="M33 0l69 490h143l-69 -490h-143zM276 700h96q-7 -48 -39 -86.5t-78 -38.5q-13 0 -28 4t-31 9l-25 8q-7 2 -14.5 3.5t-14.5 1.5q-8 0 -18 -5t-13 -21h-96q7 49 39 87t78 38q13 0 28 -3.5t31 -8.5l25 -8q7 -2 14.5 -4t14.5 -2q8 0 18 5.5t13 20.5z" />
    <glyph glyph-name="Imacron" unicode="&#x12a;" horiz-adv-x="284" 
d="M24 0l99 700h148l-99 -700h-148zM96 886h250l-17 -117h-250z" />
    <glyph glyph-name="imacron" unicode="&#x12b;" horiz-adv-x="279" 
d="M33 0l69 490h143l-69 -490h-143zM80 700h250l-17 -117h-250z" />
    <glyph glyph-name="Ibreve" unicode="&#x12c;" horiz-adv-x="284" 
d="M24 0l99 700h148l-99 -700h-148zM198 740q-62 0 -98 39.5t-31 108.5h106q-1 -15 6.5 -27.5t31.5 -12.5t35.5 12.5t15.5 27.5h106q-14 -69 -61.5 -108.5t-110.5 -39.5z" />
    <glyph glyph-name="ibreve" unicode="&#x12d;" horiz-adv-x="279" 
d="M33 0l69 490h143l-69 -490h-143zM190 552q-62 0 -97.5 40.5t-31.5 107.5h102q-1 -15 6.5 -27.5t31.5 -12.5t35.5 12.5t15.5 27.5h110q-14 -69 -61.5 -108.5t-110.5 -39.5z" />
    <glyph glyph-name="Iogonek" unicode="&#x12e;" horiz-adv-x="284" 
d="M24 0l99 700h148l-99 -700q-36 -19 -53.5 -38t-17.5 -37q0 -15 13.5 -23t39.5 -8h4l-12 -83q-8 -1 -23 -3t-34 -2q-49 0 -75 21t-26 59t23.5 67t51.5 47h-39z" />
    <glyph glyph-name="iogonek" unicode="&#x12f;" horiz-adv-x="279" 
d="M33 0l69 490h143l-69 -490q-36 -19 -53.5 -38t-17.5 -37q0 -15 13.5 -23t39.5 -8h4l-12 -83q-8 -1 -23 -3t-34 -2q-49 0 -75 21t-26 59t23.5 67t51.5 47h-34zM110 629q0 34 24 58.5t58 24.5t58.5 -24.5t24.5 -58.5t-24.5 -58t-58.5 -24t-58 24t-24 58z" />
    <glyph glyph-name="Idotaccent" unicode="&#x130;" horiz-adv-x="284" 
d="M24 0l99 700h148l-99 -700h-148zM130 831q0 34 24 58.5t58 24.5t58.5 -24.5t24.5 -58.5t-24.5 -58t-58.5 -24t-58 24t-24 58z" />
    <glyph glyph-name="dotlessi" unicode="&#x131;" horiz-adv-x="279" 
d="M33 0l69 490h143l-69 -490h-143z" />
    <glyph glyph-name="IJ" unicode="&#x132;" horiz-adv-x="790" 
d="M24 0l99 700h148l-99 -700h-148zM256 96l108 93q19 -32 43 -48t58 -16q42 0 71 28t36 77l66 470h149l-67 -473q-16 -112 -83 -175t-183 -63q-66 0 -116.5 28.5t-81.5 78.5z" />
    <glyph glyph-name="ij" unicode="&#x133;" horiz-adv-x="563" 
d="M33 0l69 490h143l-69 -490h-143zM110 629q0 34 24 58.5t58 24.5t58.5 -24.5t24.5 -58.5t-24.5 -58t-58.5 -24t-58 24t-24 58zM324 -13l71 503h142l-74 -520q-12 -84 -60.5 -129.5t-135.5 -45.5q-28 0 -47 1l-19 1l18 130h31q31 0 50 11.5t24 48.5zM402 629q0 34 24 58.5
t58 24.5t58.5 -24.5t24.5 -58.5t-24.5 -58t-58.5 -24t-58 24t-24 58z" />
    <glyph glyph-name="Jcircumflex" unicode="&#x134;" horiz-adv-x="506" 
d="M-28 96l108 93q19 -32 43 -48t58 -16q42 0 71 28t36 77l66 470h149l-67 -473q-16 -112 -83 -175t-183 -63q-66 0 -116.5 28.5t-81.5 78.5zM371 872h174l71 -103h-138l-32 40l-44 -40h-131z" />
    <glyph glyph-name="jcircumflex" unicode="&#x135;" horiz-adv-x="284" 
d="M45 -13l71 503h142l-74 -520q-12 -84 -60.5 -129.5t-135.5 -45.5q-28 0 -47 1l-19 1l18 130h31q31 0 50 11.5t24 48.5zM134 700h163l71 -142h-118l-42 59l-57 -59h-128z" />
    <glyph glyph-name="Kcommaaccent" unicode="&#x136;" horiz-adv-x="652" 
d="M24 0l99 700h148l-41 -285l265 285h182l-284 -300l206 -400h-162l-150 290l-87 -91l-28 -199h-148zM222 -57h141l-91 -137h-115z" />
    <glyph glyph-name="kcommaaccent" unicode="&#x137;" horiz-adv-x="545" 
d="M26 0l99 700h142l-51 -356l148 146h188l-210 -202l149 -288h-162l-94 194l-46 -44l-21 -150h-142zM177 -57h141l-91 -137h-115z" />
    <glyph glyph-name="kgreenlandic" unicode="&#x138;" horiz-adv-x="545" 
d="M26 0l69 490h142l-21 -146l148 146h188l-210 -202l149 -288h-162l-94 194l-46 -44l-21 -150h-142z" />
    <glyph glyph-name="Lacute" unicode="&#x139;" horiz-adv-x="565" 
d="M24 0l99 700h148l-80 -563h321l-19 -137h-469zM222 872h170l-107 -103h-151z" />
    <glyph glyph-name="lacute" unicode="&#x13a;" horiz-adv-x="268" 
d="M26 0l99 700h142l-99 -700h-142zM219 872h170l-107 -103h-151z" />
    <glyph glyph-name="Lcommaaccent" unicode="&#x13b;" horiz-adv-x="565" 
d="M24 0l99 700h148l-80 -563h321l-19 -137h-469zM200 -57h141l-91 -137h-115z" />
    <glyph glyph-name="lcommaaccent" unicode="&#x13c;" horiz-adv-x="268" 
d="M26 0l99 700h142l-99 -700h-142zM29 -57h141l-91 -137h-115z" />
    <glyph glyph-name="Lcaron" unicode="&#x13d;" horiz-adv-x="565" 
d="M24 0l99 700h148l-80 -563h321l-19 -137h-469zM411 511l86 189h-137l-54 -189h105z" />
    <glyph glyph-name="lcaron" unicode="&#x13e;" horiz-adv-x="268" 
d="M26 0l99 700h142l-99 -700h-142zM393 511l86 189h-137l-54 -189h105z" />
    <glyph glyph-name="Ldot" unicode="&#x13f;" horiz-adv-x="565" 
d="M24 0l99 700h148l-80 -563h321l-19 -137h-469zM339 346q0 34 24 58.5t58 24.5t58.5 -24.5t24.5 -58.5t-24.5 -58t-58.5 -24t-58 24t-24 58z" />
    <glyph glyph-name="ldot" unicode="&#x140;" horiz-adv-x="419" 
d="M26 0l99 700h142l-99 -700h-142zM274 345q0 34 24 58.5t58 24.5t58.5 -24.5t24.5 -58.5t-24.5 -58t-58.5 -24t-58 24t-24 58z" />
    <glyph glyph-name="Lslash" unicode="&#x141;" horiz-adv-x="565" 
d="M380 367l-165 -68l-23 -162h320l-19 -137h-469l33 233l-84 -34l20 145l84 35l46 321h149l-37 -256l164 68z" />
    <glyph glyph-name="lslash" unicode="&#x142;" horiz-adv-x="268" 
d="M13 363l69 31l43 306h142l-34 -236l75 34l-19 -132l-74 -34l-47 -332h-142l37 262l-69 -32z" />
    <glyph glyph-name="Nacute" unicode="&#x143;" horiz-adv-x="747" 
d="M456 0l-216 486l-68 -486h-148l99 700h179l214 -488l69 488h148l-99 -700h-178zM412 872h170l-107 -103h-151z" />
    <glyph glyph-name="nacute" unicode="&#x144;" horiz-adv-x="570" 
d="M202 245l-34 -245h-142l69 490h140l-5 -34q23 19 56 32.5t68 13.5q79 0 124 -52t45 -137q0 -11 -1.5 -23.5t-2.5 -24.5l-37 -265h-143l39 274q1 5 1 10.5v10.5q0 32 -16 53.5t-53 21.5q-50 0 -75 -34.5t-33 -90.5zM337 700h177l-140 -142h-139z" />
    <glyph glyph-name="Ncommaaccent" unicode="&#x145;" horiz-adv-x="747" 
d="M456 0l-216 486l-68 -486h-148l99 700h179l214 -488l69 488h148l-99 -700h-178zM254 -57h141l-91 -137h-115z" />
    <glyph glyph-name="ncommaaccent" unicode="&#x146;" horiz-adv-x="570" 
d="M202 245l-34 -245h-142l69 490h140l-5 -34q23 19 56 32.5t68 13.5q79 0 124 -52t45 -137q0 -11 -1.5 -23.5t-2.5 -24.5l-37 -265h-143l39 274q1 5 1 10.5v10.5q0 32 -16 53.5t-53 21.5q-50 0 -75 -34.5t-33 -90.5zM189 -57h141l-91 -137h-115z" />
    <glyph glyph-name="Ncaron" unicode="&#x147;" horiz-adv-x="747" 
d="M456 0l-216 486l-68 -486h-148l99 700h179l214 -488l69 488h148l-99 -700h-178zM523 769h-174l-72 103h130l32 -41l44 41h139z" />
    <glyph glyph-name="ncaron" unicode="&#x148;" horiz-adv-x="570" 
d="M202 245l-34 -245h-142l69 490h140l-5 -34q23 19 56 32.5t68 13.5q79 0 124 -52t45 -137q0 -11 -1.5 -23.5t-2.5 -24.5l-37 -265h-143l39 274q1 5 1 10.5v10.5q0 32 -16 53.5t-53 21.5q-50 0 -75 -34.5t-33 -90.5zM423 558h-163l-71 142h117l41 -59l58 59h129z" />
    <glyph glyph-name="Eng" unicode="&#x14a;" horiz-adv-x="747" 
d="M377 -68h32q32 0 52.5 12.5t25.5 51.5v4l-251 456l-64 -456h-148l99 700h157l240 -458l65 458h148l-102 -722q-13 -88 -63 -135.5t-141 -47.5q-29 0 -49 1l-20 1z" />
    <glyph glyph-name="eng" unicode="&#x14b;" horiz-adv-x="570" 
d="M202 245l-34 -245h-142l69 490h140l-5 -34q23 19 56 32.5t68 13.5q79 0 124 -52t45 -137q0 -11 -1.5 -23.5t-2.5 -24.5l-41 -295q-12 -84 -61 -129.5t-136 -45.5q-28 0 -47 1l-19 1l18 130h31q31 0 49.5 11.5t23.5 48.5l41 287q1 5 1 10.5v10.5q0 32 -16 53.5t-53 21.5
q-50 0 -75 -34.5t-33 -90.5z" />
    <glyph glyph-name="Omacron" unicode="&#x14c;" horiz-adv-x="803" 
d="M36 315q0 87 34 160.5t90.5 125.5t132 81.5t157.5 29.5q68 0 126.5 -25t100.5 -68.5t66 -103.5t24 -129q0 -88 -33.5 -161t-89.5 -125.5t-131 -81.5t-157 -29q-68 0 -127 25t-101.5 68.5t-67 103.5t-24.5 129zM191 320q0 -39 12 -74t34.5 -61t57 -41t78.5 -15
q54 0 98.5 20.5t76.5 55t49.5 80t17.5 94.5q0 40 -12.5 75t-35.5 61t-56.5 41.5t-75.5 15.5q-55 0 -100 -21t-77 -55.5t-49.5 -80.5t-17.5 -95zM351 886h250l-17 -117h-250z" />
    <glyph glyph-name="omacron" unicode="&#x14d;" horiz-adv-x="588" 
d="M33 220q0 61 23.5 113t63 89.5t93.5 58.5t114 21q50 0 92.5 -18.5t72.5 -50t47 -74.5t17 -91q0 -61 -23.5 -112.5t-63 -88t-93.5 -57.5t-114 -21q-50 0 -92 18t-72.5 49t-47.5 73.5t-17 90.5zM179 227q0 -46 27 -76t71 -30q54 0 93.5 41t39.5 101q0 46 -27 76t-71 30
q-54 0 -93.5 -41t-39.5 -101zM232 700h250l-17 -117h-250z" />
    <glyph glyph-name="Obreve" unicode="&#x14e;" horiz-adv-x="803" 
d="M36 315q0 87 34 160.5t90.5 125.5t132 81.5t157.5 29.5q68 0 126.5 -25t100.5 -68.5t66 -103.5t24 -129q0 -88 -33.5 -161t-89.5 -125.5t-131 -81.5t-157 -29q-68 0 -127 25t-101.5 68.5t-67 103.5t-24.5 129zM191 320q0 -39 12 -74t34.5 -61t57 -41t78.5 -15
q54 0 98.5 20.5t76.5 55t49.5 80t17.5 94.5q0 40 -12.5 75t-35.5 61t-56.5 41.5t-75.5 15.5q-55 0 -100 -21t-77 -55.5t-49.5 -80.5t-17.5 -95zM453 740q-62 0 -98 39.5t-31 108.5h106q-1 -15 6.5 -27.5t31.5 -12.5t35.5 12.5t15.5 27.5h106q-14 -69 -61.5 -108.5
t-110.5 -39.5z" />
    <glyph glyph-name="obreve" unicode="&#x14f;" horiz-adv-x="588" 
d="M33 220q0 61 23.5 113t63 89.5t93.5 58.5t114 21q50 0 92.5 -18.5t72.5 -50t47 -74.5t17 -91q0 -61 -23.5 -112.5t-63 -88t-93.5 -57.5t-114 -21q-50 0 -92 18t-72.5 49t-47.5 73.5t-17 90.5zM179 227q0 -46 27 -76t71 -30q54 0 93.5 41t39.5 101q0 46 -27 76t-71 30
q-54 0 -93.5 -41t-39.5 -101zM342 552q-62 0 -97.5 40.5t-31.5 107.5h102q-1 -15 6.5 -27.5t31.5 -12.5t35.5 12.5t15.5 27.5h110q-14 -69 -61.5 -108.5t-110.5 -39.5z" />
    <glyph glyph-name="Ohungarumlaut" unicode="&#x150;" horiz-adv-x="803" 
d="M36 315q0 87 34 160.5t90.5 125.5t132 81.5t157.5 29.5q68 0 126.5 -25t100.5 -68.5t66 -103.5t24 -129q0 -88 -33.5 -161t-89.5 -125.5t-131 -81.5t-157 -29q-68 0 -127 25t-101.5 68.5t-67 103.5t-24.5 129zM191 320q0 -39 12 -74t34.5 -61t57 -41t78.5 -15
q54 0 98.5 20.5t76.5 55t49.5 80t17.5 94.5q0 40 -12.5 75t-35.5 61t-56.5 41.5t-75.5 15.5q-55 0 -100 -21t-77 -55.5t-49.5 -80.5t-17.5 -95zM367 872h138l-82 -103h-128zM552 872h139l-82 -103h-129z" />
    <glyph glyph-name="ohungarumlaut" unicode="&#x151;" horiz-adv-x="588" 
d="M33 220q0 61 23.5 113t63 89.5t93.5 58.5t114 21q50 0 92.5 -18.5t72.5 -50t47 -74.5t17 -91q0 -61 -23.5 -112.5t-63 -88t-93.5 -57.5t-114 -21q-50 0 -92 18t-72.5 49t-47.5 73.5t-17 90.5zM179 227q0 -46 27 -76t71 -30q54 0 93.5 41t39.5 101q0 46 -27 76t-71 30
q-54 0 -93.5 -41t-39.5 -101zM256 700h140l-104 -131h-128zM441 700h141l-104 -131h-129z" />
    <glyph glyph-name="OE" unicode="&#x152;" horiz-adv-x="960" 
d="M854 0h-483q-68 0 -129.5 20t-107 60t-72 99.5t-26.5 137.5q0 88 33.5 159t90.5 120.5t132 76.5t157 27h503l-19 -137h-311l-20 -138h294l-19 -135h-294l-21 -153h311zM190 321q0 -78 47.5 -131t136.5 -53h39l60 426h-39q-55 0 -100.5 -19.5t-77 -52t-49 -77t-17.5 -93.5
z" />
    <glyph glyph-name="oe" unicode="&#x153;" horiz-adv-x="919" 
d="M879 209h-331q-2 -39 25 -64.5t74 -25.5q38 0 67.5 15.5t53.5 46.5l86 -93q-37 -40 -91 -69.5t-132 -29.5q-57 0 -100 21.5t-72 61.5q-40 -40 -90.5 -61.5t-109.5 -21.5q-100 0 -163 66t-63 170q0 61 23 112t62 87.5t92 57t113 20.5q55 0 99 -23.5t73 -63.5
q36 41 83.5 64t104.5 23q52 0 91 -18.5t64.5 -48.5t38 -69.5t12.5 -80.5q0 -26 -5 -51zM179 227q0 -46 27 -76t71 -30q28 0 52.5 12t42.5 32t28 47t10 56q0 44 -27.5 72.5t-70.5 28.5q-54 0 -93.5 -41t-39.5 -101zM671 377q-40 0 -66 -21.5t-38 -51.5h177q2 31 -18 52
t-55 21z" />
    <glyph glyph-name="Racute" unicode="&#x154;" horiz-adv-x="677" 
d="M430 0l-106 225h-120l-32 -225h-148l99 700h285q52 0 96.5 -15t77 -43t51 -68.5t18.5 -91.5q0 -84 -46.5 -144t-123.5 -89l118 -249h-169zM377 563h-125l-29 -202h116q83 0 122.5 32t39.5 81q0 43 -33.5 66t-90.5 23zM393 872h170l-107 -103h-151z" />
    <glyph glyph-name="racute" unicode="&#x155;" horiz-adv-x="385" 
d="M396 496l-20 -137h-22q-59 0 -102.5 -38t-54.5 -116l-29 -205h-142l69 490h140l-6 -44q23 24 57.5 37.5t71.5 13.5q16 0 27 -0.5zM258 700h177l-140 -142h-139z" />
    <glyph glyph-name="Rcommaaccent" unicode="&#x156;" horiz-adv-x="677" 
d="M430 0l-106 225h-120l-32 -225h-148l99 700h285q52 0 96.5 -15t77 -43t51 -68.5t18.5 -91.5q0 -84 -46.5 -144t-123.5 -89l118 -249h-169zM377 563h-125l-29 -202h116q83 0 122.5 32t39.5 81q0 43 -33.5 66t-90.5 23zM234 -57h141l-91 -137h-115z" />
    <glyph glyph-name="rcommaaccent" unicode="&#x157;" horiz-adv-x="385" 
d="M396 496l-20 -137h-22q-59 0 -102.5 -38t-54.5 -116l-29 -205h-142l69 490h140l-6 -44q23 24 57.5 37.5t71.5 13.5q16 0 27 -0.5zM17 -57h141l-91 -137h-115z" />
    <glyph glyph-name="Rcaron" unicode="&#x158;" horiz-adv-x="677" 
d="M430 0l-106 225h-120l-32 -225h-148l99 700h285q52 0 96.5 -15t77 -43t51 -68.5t18.5 -91.5q0 -84 -46.5 -144t-123.5 -89l118 -249h-169zM377 563h-125l-29 -202h116q83 0 122.5 32t39.5 81q0 43 -33.5 66t-90.5 23zM504 769h-174l-72 103h130l32 -41l44 41h139z" />
    <glyph glyph-name="rcaron" unicode="&#x159;" horiz-adv-x="385" 
d="M396 496l-20 -137h-22q-59 0 -102.5 -38t-54.5 -116l-29 -205h-142l69 490h140l-6 -44q23 24 57.5 37.5t71.5 13.5q16 0 27 -0.5zM344 558h-163l-71 142h117l41 -59l58 59h129z" />
    <glyph glyph-name="Sacute" unicode="&#x15a;" horiz-adv-x="644" 
d="M359 275l-94 20q-86 19 -134.5 68t-48.5 127q0 53 23 94.5t61.5 69.5t88.5 43t104 15q92 0 160.5 -35.5t104.5 -79.5l-109 -99q-28 34 -73.5 56t-97.5 22q-51 0 -81.5 -21t-30.5 -55q0 -22 20.5 -39.5t69.5 -27.5l78 -15q101 -19 149.5 -71t48.5 -130
q0 -101 -80.5 -164.5t-217.5 -63.5q-97 0 -171.5 40t-114.5 94l108 97q34 -42 81.5 -68.5t110.5 -26.5t98.5 24.5t35.5 58.5q0 23 -20.5 40t-68.5 27zM369 872h170l-107 -103h-151z" />
    <glyph glyph-name="sacute" unicode="&#x15b;" horiz-adv-x="476" 
d="M259 173l-49 13q-71 18 -112.5 54.5t-41.5 102.5q0 37 16 66.5t43 50t64 31.5t78 11q54 0 106 -18.5t90 -57.5l-94 -90q-19 19 -48.5 32t-63.5 13q-22 0 -36.5 -7.5t-14.5 -20.5q0 -10 8.5 -17.5t23.5 -11.5l56 -14q29 -7 57 -19.5t49.5 -31.5t35 -45.5t13.5 -61.5
q0 -73 -57 -118t-159 -45q-79 0 -135.5 29.5t-79.5 65.5l95 85q31 -36 66.5 -48.5t68.5 -12.5q23 0 41.5 8.5t18.5 24.5q0 11 -9.5 19t-29.5 13zM281 700h177l-140 -142h-139z" />
    <glyph glyph-name="Scircumflex" unicode="&#x15c;" horiz-adv-x="644" 
d="M359 275l-94 20q-86 19 -134.5 68t-48.5 127q0 53 23 94.5t61.5 69.5t88.5 43t104 15q92 0 160.5 -35.5t104.5 -79.5l-109 -99q-28 34 -73.5 56t-97.5 22q-51 0 -81.5 -21t-30.5 -55q0 -22 20.5 -39.5t69.5 -27.5l78 -15q101 -19 149.5 -71t48.5 -130
q0 -101 -80.5 -164.5t-217.5 -63.5q-97 0 -171.5 40t-114.5 94l108 97q34 -42 81.5 -68.5t110.5 -26.5t98.5 24.5t35.5 58.5q0 23 -20.5 40t-68.5 27zM319 872h174l71 -103h-138l-32 40l-44 -40h-131z" />
    <glyph glyph-name="scircumflex" unicode="&#x15d;" horiz-adv-x="471" 
d="M259 173l-49 13q-71 18 -112.5 54.5t-41.5 102.5q0 37 16 66.5t43 50t64 31.5t78 11q54 0 106 -18.5t90 -57.5l-94 -90q-19 19 -48.5 32t-63.5 13q-22 0 -36.5 -7.5t-14.5 -20.5q0 -10 8.5 -17.5t23.5 -11.5l56 -14q29 -7 57 -19.5t49.5 -31.5t35 -45.5t13.5 -61.5
q0 -73 -57 -118t-159 -45q-79 0 -135.5 29.5t-79.5 65.5l95 85q31 -36 66.5 -48.5t68.5 -12.5q23 0 41.5 8.5t18.5 24.5q0 11 -9.5 19t-29.5 13zM214 700h163l71 -142h-118l-42 59l-57 -59h-128z" />
    <glyph glyph-name="Scedilla" unicode="&#x15e;" horiz-adv-x="644" 
d="M309 -137h-143l84 129q-79 10 -140.5 46.5t-95.5 84.5l108 97q34 -42 81.5 -68.5t110.5 -26.5t98.5 24.5t35.5 58.5q0 23 -20.5 40t-68.5 27l-94 20q-86 19 -134.5 68t-48.5 127q0 53 23 94.5t61.5 69.5t88.5 43t104 15q92 0 160.5 -35.5t104.5 -79.5l-109 -99
q-28 34 -73.5 56t-97.5 22q-51 0 -81.5 -21t-30.5 -55q0 -22 20.5 -39.5t69.5 -27.5l78 -15q101 -19 149.5 -71t48.5 -130q0 -85 -58.5 -144.5t-159.5 -76.5z" />
    <glyph glyph-name="scedilla" unicode="&#x15f;" horiz-adv-x="471" 
d="M202 -137h-143l88 135q-50 11 -86 35t-53 51l95 85q31 -36 66.5 -48.5t68.5 -12.5q23 0 41.5 8.5t18.5 24.5q0 11 -9.5 19t-29.5 13l-49 13q-71 18 -112.5 54.5t-41.5 102.5q0 37 16 66.5t43 50t64 31.5t78 11q54 0 106 -18.5t90 -57.5l-94 -90q-19 19 -48.5 32t-63.5 13
q-22 0 -36.5 -7.5t-14.5 -20.5q0 -10 8.5 -17.5t23.5 -11.5l56 -14q29 -7 57 -19.5t49.5 -31.5t35 -45.5t13.5 -61.5q0 -64 -44 -107t-124 -53z" />
    <glyph glyph-name="Scaron" unicode="&#x160;" horiz-adv-x="644" 
d="M359 275l-94 20q-86 19 -134.5 68t-48.5 127q0 53 23 94.5t61.5 69.5t88.5 43t104 15q92 0 160.5 -35.5t104.5 -79.5l-109 -99q-28 34 -73.5 56t-97.5 22q-51 0 -81.5 -21t-30.5 -55q0 -22 20.5 -39.5t69.5 -27.5l78 -15q101 -19 149.5 -71t48.5 -130
q0 -101 -80.5 -164.5t-217.5 -63.5q-97 0 -171.5 40t-114.5 94l108 97q34 -42 81.5 -68.5t110.5 -26.5t98.5 24.5t35.5 58.5q0 23 -20.5 40t-68.5 27zM480 769h-174l-72 103h130l32 -41l44 41h139z" />
    <glyph glyph-name="scaron" unicode="&#x161;" horiz-adv-x="471" 
d="M259 173l-49 13q-71 18 -112.5 54.5t-41.5 102.5q0 37 16 66.5t43 50t64 31.5t78 11q54 0 106 -18.5t90 -57.5l-94 -90q-19 19 -48.5 32t-63.5 13q-22 0 -36.5 -7.5t-14.5 -20.5q0 -10 8.5 -17.5t23.5 -11.5l56 -14q29 -7 57 -19.5t49.5 -31.5t35 -45.5t13.5 -61.5
q0 -73 -57 -118t-159 -45q-79 0 -135.5 29.5t-79.5 65.5l95 85q31 -36 66.5 -48.5t68.5 -12.5q23 0 41.5 8.5t18.5 24.5q0 11 -9.5 19t-29.5 13zM367 558h-163l-71 142h117l41 -59l58 59h129z" />
    <glyph glyph-name="uni0162" unicode="&#x162;" horiz-adv-x="606" 
d="M247 -137h-143l90 137h-12l79 563h-201l19 137h550l-19 -137h-201l-79 -563h-9z" />
    <glyph glyph-name="uni0163" unicode="&#x163;" horiz-adv-x="376" 
d="M198 -137h-143l96 147q-46 19 -63.5 64t-8.5 109l25 176h-64l18 131h64l20 137h141l-20 -137h109l-18 -131h-109l-24 -172q-5 -37 10.5 -47t46.5 -10h42l-18 -130l-9 -0.5t-22 -0.5z" />
    <glyph glyph-name="Tcaron" unicode="&#x164;" horiz-adv-x="606" 
d="M79 700h550l-19 -137h-201l-79 -563h-148l79 563h-201zM457 769h-174l-72 103h130l32 -41l44 41h139z" />
    <glyph glyph-name="tcaron" unicode="&#x165;" horiz-adv-x="376" 
d="M224 -2q-87 0 -122 50.5t-23 134.5l25 176h-64l18 131h64l20 137h141l-20 -137h109l-18 -131h-109l-24 -172q-5 -37 10.5 -47t46.5 -10h42l-18 -130l-24.5 -1t-53.5 -1zM515 749l-86 -189h-105l54 189h137z" />
    <glyph glyph-name="Tbar" unicode="&#x166;" horiz-adv-x="606" 
d="M79 700h550l-19 -137h-201l-27 -190h127l-17 -117h-126l-36 -256h-148l36 256h-126l17 117h125l27 190h-201z" />
    <glyph glyph-name="tbar" unicode="&#x167;" horiz-adv-x="376" 
d="M15 186l18 128h64l7 45h-64l18 131h64l20 137h141l-20 -137h109l-18 -131h-109l-7 -45h108l-18 -128h-107q-5 -36 10.5 -46t46.5 -10h42l-18 -130l-24.5 -1t-53.5 -1q-87 0 -122 50.5t-23 134.5v3h-64z" />
    <glyph glyph-name="Utilde" unicode="&#x168;" horiz-adv-x="704" 
d="M503 306l56 394h148l-55 -389q-22 -160 -108.5 -241t-220.5 -81q-67 0 -120 22.5t-87 65.5t-47.5 106t-2.5 143l53 374h148l-56 -396q-10 -75 18 -127t103 -52q76 0 117.5 48.5t53.5 132.5zM513 894h96q-7 -48 -39 -86.5t-78 -38.5q-13 0 -28 4t-31 9l-25 8
q-7 2 -14.5 3.5t-14.5 1.5q-8 0 -18 -5t-13 -21h-96q7 49 39 87t78 38q13 0 28 -3.5t31 -8.5l25 -8q7 -2 14.5 -4t14.5 -2q8 0 18 5.5t13 20.5z" />
    <glyph glyph-name="utilde" unicode="&#x169;" horiz-adv-x="560" 
d="M365 239l35 251h144l-69 -490h-140l5 34q-26 -23 -60 -34t-69 -11q-85 0 -125.5 61t-25.5 165l39 275h142l-39 -279q-5 -40 10 -65.5t53 -25.5q46 0 69 31.5t31 87.5zM422 700h96q-7 -48 -39 -86.5t-78 -38.5q-13 0 -28 4t-31 9l-25 8q-7 2 -14.5 3.5t-14.5 1.5
q-8 0 -18 -5t-13 -21h-96q7 49 39 87t78 38q13 0 28 -3.5t31 -8.5l25 -8q7 -2 14.5 -4t14.5 -2q8 0 18 5.5t13 20.5z" />
    <glyph glyph-name="Umacron" unicode="&#x16a;" horiz-adv-x="704" 
d="M503 306l56 394h148l-55 -389q-22 -160 -108.5 -241t-220.5 -81q-67 0 -120 22.5t-87 65.5t-47.5 106t-2.5 143l53 374h148l-56 -396q-10 -75 18 -127t103 -52q76 0 117.5 48.5t53.5 132.5zM313 886h250l-17 -117h-250z" />
    <glyph glyph-name="umacron" unicode="&#x16b;" horiz-adv-x="560" 
d="M365 239l35 251h144l-69 -490h-140l5 34q-26 -23 -60 -34t-69 -11q-85 0 -125.5 61t-25.5 165l39 275h142l-39 -279q-5 -40 10 -65.5t53 -25.5q46 0 69 31.5t31 87.5zM226 700h250l-17 -117h-250z" />
    <glyph glyph-name="Ubreve" unicode="&#x16c;" horiz-adv-x="704" 
d="M503 306l56 394h148l-55 -389q-22 -160 -108.5 -241t-220.5 -81q-67 0 -120 22.5t-87 65.5t-47.5 106t-2.5 143l53 374h148l-56 -396q-10 -75 18 -127t103 -52q76 0 117.5 48.5t53.5 132.5zM415 740q-62 0 -98 39.5t-31 108.5h106q-1 -15 6.5 -27.5t31.5 -12.5t35.5 12.5
t15.5 27.5h106q-14 -69 -61.5 -108.5t-110.5 -39.5z" />
    <glyph glyph-name="ubreve" unicode="&#x16d;" horiz-adv-x="560" 
d="M365 239l35 251h144l-69 -490h-140l5 34q-26 -23 -60 -34t-69 -11q-85 0 -125.5 61t-25.5 165l39 275h142l-39 -279q-5 -40 10 -65.5t53 -25.5q46 0 69 31.5t31 87.5zM336 552q-62 0 -97.5 40.5t-31.5 107.5h102q-1 -15 6.5 -27.5t31.5 -12.5t35.5 12.5t15.5 27.5h110
q-14 -69 -61.5 -108.5t-110.5 -39.5z" />
    <glyph glyph-name="Uring" unicode="&#x16e;" horiz-adv-x="704" 
d="M503 306l56 394h148l-55 -389q-22 -160 -108.5 -241t-220.5 -81q-67 0 -120 22.5t-87 65.5t-47.5 106t-2.5 143l53 374h148l-56 -396q-10 -75 18 -127t103 -52q76 0 117.5 48.5t53.5 132.5zM326 764q0 43 33 75t79 32q37 0 61.5 -25t24.5 -61q0 -46 -33.5 -76t-79.5 -30
q-37 0 -61 25t-24 60zM449 777q0 9 -6 15t-15 6q-10 0 -18.5 -7.5t-8.5 -19.5q0 -9 5.5 -15t14.5 -6q10 0 19 7.5t9 19.5z" />
    <glyph glyph-name="uring" unicode="&#x16f;" horiz-adv-x="560" 
d="M365 239l35 251h144l-69 -490h-140l5 34q-26 -23 -60 -34t-69 -11q-85 0 -125.5 61t-25.5 165l39 275h142l-39 -279q-5 -40 10 -65.5t53 -25.5q46 0 69 31.5t31 87.5zM246 621q0 43 34.5 75t77.5 32q37 0 61.5 -25t24.5 -61q0 -46 -33 -76t-80 -30q-37 0 -61 25t-24 60z
M369 634q0 9 -6 15t-15 6q-10 0 -19 -7.5t-9 -19.5q0 -9 6 -15t15 -6q10 0 19 7.5t9 19.5z" />
    <glyph glyph-name="Uhungarumlaut" unicode="&#x170;" horiz-adv-x="704" 
d="M503 306l56 394h148l-55 -389q-22 -160 -108.5 -241t-220.5 -81q-67 0 -120 22.5t-87 65.5t-47.5 106t-2.5 143l53 374h148l-56 -396q-10 -75 18 -127t103 -52q76 0 117.5 48.5t53.5 132.5zM329 872h138l-82 -103h-128zM514 872h139l-82 -103h-129z" />
    <glyph glyph-name="uhungarumlaut" unicode="&#x171;" horiz-adv-x="560" 
d="M365 239l35 251h144l-69 -490h-140l5 34q-26 -23 -60 -34t-69 -11q-85 0 -125.5 61t-25.5 165l39 275h142l-39 -279q-5 -40 10 -65.5t53 -25.5q46 0 69 31.5t31 87.5zM250 700h140l-104 -131h-128zM435 700h141l-104 -131h-129z" />
    <glyph glyph-name="Uogonek" unicode="&#x172;" horiz-adv-x="704" 
d="M512 306l56 394h148l-55 -389q-20 -143 -91 -223t-182 -95q-29 -17 -43 -34.5t-14 -33.5q0 -15 13.5 -23t39.5 -8h4l-12 -83q-8 -1 -23 -3t-34 -2q-49 0 -75 21t-26 59q0 34 19.5 61t44.5 45q-111 16 -169 102.5t-38 231.5l53 374h148l-56 -396q-10 -75 18 -127t103 -52
q76 0 117.5 48.5t53.5 132.5z" />
    <glyph glyph-name="uogonek" unicode="&#x173;" horiz-adv-x="560" 
d="M365 239l35 251h144l-69 -490q-36 -19 -53.5 -38t-17.5 -37q0 -15 13.5 -23t39.5 -8h4l-12 -83q-8 -1 -23 -3t-34 -2q-49 0 -75 21t-26 59t23.5 67t51.5 47h-31l5 34q-26 -23 -60 -34t-69 -11q-85 0 -125.5 61t-25.5 165l39 275h142l-39 -279q-5 -40 10 -65.5t53 -25.5
q46 0 69 31.5t31 87.5z" />
    <glyph glyph-name="Wcircumflex" unicode="&#x174;" horiz-adv-x="953" 
d="M226 700l45 -448l176 448h159l50 -448l171 448h163l-286 -700h-152l-54 463l-187 -463h-152l-88 700h155zM471 872h174l71 -103h-138l-32 40l-44 -40h-131z" />
    <glyph glyph-name="wcircumflex" unicode="&#x175;" horiz-adv-x="784" 
d="M500 490l40 -293l110 293h157l-207 -490h-155l-45 302l-131 -302h-155l-69 490h147l29 -293l121 293h158zM370 700h163l71 -142h-118l-42 59l-57 -59h-128z" />
    <glyph glyph-name="Ycircumflex" unicode="&#x176;" horiz-adv-x="625" 
d="M217 700l103 -294l186 294h167l-298 -455l-35 -245h-147l35 245l-168 455h157zM302 872h174l71 -103h-138l-32 40l-44 -40h-131z" />
    <glyph glyph-name="ycircumflex" unicode="&#x177;" horiz-adv-x="546" 
d="M210 -194h-155l110 197l-120 487h153l67 -303l157 303h157zM253 700h163l71 -142h-118l-42 59l-57 -59h-128z" />
    <glyph glyph-name="Ydieresis" unicode="&#x178;" horiz-adv-x="625" 
d="M217 700l103 -294l186 294h167l-298 -455l-35 -245h-147l35 245l-168 455h157zM200 833q0 30 21 52t52 22q30 0 52 -22t22 -52q0 -31 -22 -52.5t-52 -21.5q-31 0 -52 21.5t-21 52.5zM413 833q0 30 21 52t52 22q30 0 52 -22t22 -52q0 -31 -22 -52.5t-52 -21.5
q-31 0 -52 21.5t-21 52.5z" />
    <glyph glyph-name="Zacute" unicode="&#x179;" horiz-adv-x="655" 
d="M115 700h539l-19 -131l-408 -432h358l-19 -137h-553l18 131l408 432h-344zM366 872h170l-107 -103h-151z" />
    <glyph glyph-name="zacute" unicode="&#x17a;" horiz-adv-x="515" 
d="M101 490h396l-16 -114l-243 -248h219l-18 -128h-413l16 114l240 249h-199zM310 700h177l-140 -142h-139z" />
    <glyph glyph-name="Zdotaccent" unicode="&#x17b;" horiz-adv-x="655" 
d="M115 700h539l-19 -131l-408 -432h358l-19 -137h-553l18 131l408 432h-344zM313 831q0 34 24 58.5t58 24.5t58.5 -24.5t24.5 -58.5t-24.5 -58t-58.5 -24t-58 24t-24 58z" />
    <glyph glyph-name="zdotaccent" unicode="&#x17c;" horiz-adv-x="515" 
d="M101 490h396l-16 -114l-243 -248h219l-18 -128h-413l16 114l240 249h-199zM236 629q0 34 24 58.5t58 24.5t58.5 -24.5t24.5 -58.5t-24.5 -58t-58.5 -24t-58 24t-24 58z" />
    <glyph glyph-name="Zcaron" unicode="&#x17d;" horiz-adv-x="655" 
d="M115 700h539l-19 -131l-408 -432h358l-19 -137h-553l18 131l408 432h-344zM477 769h-174l-72 103h130l32 -41l44 41h139z" />
    <glyph glyph-name="zcaron" unicode="&#x17e;" horiz-adv-x="515" 
d="M101 490h396l-16 -114l-243 -248h219l-18 -128h-413l16 114l240 249h-199zM396 558h-163l-71 142h117l41 -59l58 59h129z" />
    <glyph glyph-name="florin" unicode="&#x192;" horiz-adv-x="427" 
d="M-24 -205q-17 0 -27 0.5l-10 0.5l19 135h24q48 0 70.5 16.5t27.5 53.5l50 358h-64l18 131h64l4 26q16 101 82 148.5t161 47.5q17 0 27 -0.5l10 -0.5l-19 -134h-24q-48 0 -71 -17t-27 -54l-2 -16h108l-18 -131h-109l-51 -369q-14 -99 -81.5 -147t-161.5 -48z" />
    <glyph glyph-name="Aringacute" unicode="&#x1fa;" horiz-adv-x="712" 
d="M321 764q0 43 33 75t79 32q37 0 61.5 -25t24.5 -61q0 -27 -12.5 -49t-32.5 -36h7l175 -700h-149l-37 138h-271l-74 -138h-159l373 700h10q-13 11 -20.5 28t-7.5 36zM386 498l-119 -228h174zM445 1008h170l-107 -103h-151zM444 777q0 9 -6 15t-15 6q-10 0 -18.5 -7.5
t-8.5 -19.5q0 -9 5.5 -15t14.5 -6q10 0 19 7.5t9 19.5z" />
    <glyph glyph-name="aringacute" unicode="&#x1fb;" horiz-adv-x="601" 
d="M35 216q0 58 19 110.5t52.5 91t80.5 61.5t101 23q41 0 77 -14t61 -51l8 53h140l-69 -490h-140l6 43q-22 -24 -57.5 -39t-84.5 -15q-42 0 -77.5 17t-61.5 47t-40.5 72t-14.5 91zM404 269q0 46 -26.5 76.5t-66.5 30.5q-32 0 -57 -14t-42 -35.5t-25.5 -48.5t-8.5 -53
q0 -46 25 -76.5t68 -30.5q32 0 57 14t42 35.5t25.5 48.5t8.5 53zM239 621q0 43 34.5 75t77.5 32q37 0 61.5 -25t24.5 -61q0 -46 -33 -76t-80 -30q-37 0 -61 25t-24 60zM362 634q0 9 -6 15t-15 6q-10 0 -19 -7.5t-9 -19.5q0 -9 6 -15t15 -6q10 0 19 7.5t9 19.5zM382 911h177
l-140 -142h-139z" />
    <glyph glyph-name="AEacute" unicode="&#x1fc;" horiz-adv-x="938" 
d="M930 700l-20 -137h-396l36 -138h324l-19 -135h-272l38 -153h229l-19 -137h-324l-37 138h-271l-74 -138h-159l373 700h591zM386 498l-119 -228h174zM637 872h170l-107 -103h-151z" />
    <glyph glyph-name="aeacute" unicode="&#x1fd;" horiz-adv-x="912" 
d="M875 209h-334q4 -40 29 -65t69 -25q37 0 69 15.5t59 41.5l83 -90q-37 -40 -92.5 -68.5t-133.5 -28.5q-36 0 -68 9.5t-57 30.5l-4 -29h-130l6 43q-22 -24 -57.5 -39t-84.5 -15q-42 0 -77.5 17t-61.5 47t-40.5 72t-14.5 91q0 58 19 110.5t52.5 91t80.5 61.5t101 23
q41 0 77 -14t61 -51l8 53h130l-4 -24q26 16 55.5 26t60.5 10q53 0 92 -19t64 -50t37.5 -71t12.5 -81q0 -26 -3.5 -49zM404 269q0 46 -26.5 76.5t-66.5 30.5q-32 0 -57 -14t-42 -35.5t-25.5 -48.5t-8.5 -53q0 -46 25 -76.5t68 -30.5q32 0 57 14t42 35.5t25.5 48.5t8.5 53z
M533 700h177l-140 -142h-139zM663 377q-40 0 -67 -21.5t-37 -51.5h179q1 31 -19.5 52t-55.5 21z" />
    <glyph glyph-name="Oslashacute" unicode="&#x1fe;" horiz-adv-x="803" 
d="M36 315q0 87 34 160.5t90.5 125.5t132 81.5t157.5 29.5q40 0 77.5 -9.5t69.5 -25.5l53 63l87 -70l-51 -61q38 -43 59.5 -100.5t21.5 -122.5q0 -88 -33.5 -161t-89.5 -125.5t-131 -81.5t-157 -29q-43 0 -83 10t-74 29l-55 -65l-87 70l55 66q-36 42 -56 97.5t-20 118.5z
M615 379q0 31 -8 59t-22 51l-290 -346q17 -7 36.5 -10.5t41.5 -3.5q54 0 98.5 20.5t76.5 55t49.5 80t17.5 94.5zM191 320q0 -28 6 -53.5t17 -47.5l286 342q-15 5 -31 8t-34 3q-55 0 -100 -21t-77 -55.5t-49.5 -80.5t-17.5 -95zM444 872h170l-107 -103h-151z" />
    <glyph glyph-name="oslashacute" unicode="&#x1ff;" horiz-adv-x="588" 
d="M33 220q0 61 23.5 113t63 89.5t93.5 58.5t114 21q24 0 47 -5t43 -13l44 53l90 -73l-42 -51q22 -30 34.5 -67t12.5 -78q0 -61 -23.5 -112.5t-63 -88t-93.5 -57.5t-114 -21q-26 0 -50 5t-45 14l-43 -51l-90 72l43 51q-21 29 -32.5 64.5t-11.5 75.5zM340 700h177l-140 -142
h-139zM410 263q0 7 -1 14.5t-2 14.5l-144 -171h14q54 0 93.5 41t39.5 101zM179 227q0 -6 0.5 -12t1.5 -12l139 166h-8q-54 0 -93.5 -41t-39.5 -101z" />
    <glyph glyph-name="Scommaaccent" unicode="&#x218;" horiz-adv-x="644" 
d="M359 275l-94 20q-86 19 -134.5 68t-48.5 127q0 53 23 94.5t61.5 69.5t88.5 43t104 15q92 0 160.5 -35.5t104.5 -79.5l-109 -99q-28 34 -73.5 56t-97.5 22q-51 0 -81.5 -21t-30.5 -55q0 -22 20.5 -39.5t69.5 -27.5l78 -15q101 -19 149.5 -71t48.5 -130
q0 -101 -80.5 -164.5t-217.5 -63.5q-97 0 -171.5 40t-114.5 94l108 97q34 -42 81.5 -68.5t110.5 -26.5t98.5 24.5t35.5 58.5q0 23 -20.5 40t-68.5 27zM210 -57h141l-91 -137h-115z" />
    <glyph glyph-name="scommaaccent" unicode="&#x219;" horiz-adv-x="471" 
d="M259 173l-49 13q-71 18 -112.5 54.5t-41.5 102.5q0 37 16 66.5t43 50t64 31.5t78 11q54 0 106 -18.5t90 -57.5l-94 -90q-19 19 -48.5 32t-63.5 13q-22 0 -36.5 -7.5t-14.5 -20.5q0 -10 8.5 -17.5t23.5 -11.5l56 -14q29 -7 57 -19.5t49.5 -31.5t35 -45.5t13.5 -61.5
q0 -73 -57 -118t-159 -45q-79 0 -135.5 29.5t-79.5 65.5l95 85q31 -36 66.5 -48.5t68.5 -12.5q23 0 41.5 8.5t18.5 24.5q0 11 -9.5 19t-29.5 13zM133 -57h141l-91 -137h-115z" />
    <glyph glyph-name="Tcommaaccent" unicode="&#x21a;" horiz-adv-x="606" 
d="M79 700h550l-19 -137h-201l-79 -563h-148l79 563h-201zM189 -57h141l-91 -137h-115z" />
    <glyph glyph-name="tcommaaccent" unicode="&#x21b;" horiz-adv-x="376" 
d="M224 -2q-87 0 -122 50.5t-23 134.5l25 176h-64l18 131h64l20 137h141l-20 -137h109l-18 -131h-109l-24 -172q-5 -37 10.5 -47t46.5 -10h42l-18 -130l-24.5 -1t-53.5 -1zM129 -57h141l-91 -137h-115z" />
    <glyph glyph-name="dotlessj" unicode="&#x237;" horiz-adv-x="284" 
d="M45 -13l71 503h142l-74 -520q-12 -84 -60.5 -129.5t-135.5 -45.5q-28 0 -47 1l-19 1l18 130h31q31 0 50 11.5t24 48.5z" />
    <glyph glyph-name="circumflex" unicode="&#x2c6;" horiz-adv-x="500" 
d="M188 700h163l71 -142h-118l-42 59l-57 -59h-128z" />
    <glyph glyph-name="caron" unicode="&#x2c7;" horiz-adv-x="500" 
d="M311 558h-163l-71 142h117l41 -59l58 59h129z" />
    <glyph glyph-name="uni02C9" unicode="&#x2c9;" horiz-adv-x="500" 
d="M133 700h250l-17 -117h-250z" />
    <glyph glyph-name="breve" unicode="&#x2d8;" horiz-adv-x="500" 
d="M233 552q-62 0 -97.5 40.5t-31.5 107.5h102q-1 -15 6.5 -27.5t31.5 -12.5t35.5 12.5t15.5 27.5h110q-14 -69 -61.5 -108.5t-110.5 -39.5z" />
    <glyph glyph-name="dotaccent" unicode="&#x2d9;" horiz-adv-x="500" 
d="M167 629q0 34 24 58.5t58 24.5t58.5 -24.5t24.5 -58.5t-24.5 -58t-58.5 -24t-58 24t-24 58z" />
    <glyph glyph-name="ring" unicode="&#x2da;" horiz-adv-x="500" 
d="M153 621q0 43 34.5 75t77.5 32q37 0 61.5 -25t24.5 -61q0 -46 -33 -76t-80 -30q-37 0 -61 25t-24 60zM276 634q0 9 -6 15t-15 6q-10 0 -19 -7.5t-9 -19.5q0 -9 6 -15t15 -6q10 0 19 7.5t9 19.5z" />
    <glyph glyph-name="ogonek" unicode="&#x2db;" horiz-adv-x="500" 
d="M242 5l100 -5q-36 -19 -53.5 -38t-17.5 -37q0 -15 13.5 -23t39.5 -8h4l-12 -83q-8 -1 -23 -3t-34 -2q-49 0 -75 21t-26 59q0 41 27 71t57 48z" />
    <glyph glyph-name="tilde" unicode="&#x2dc;" horiz-adv-x="500" 
d="M332 700h96q-7 -48 -39 -86.5t-78 -38.5q-13 0 -28 4t-31 9l-25 8q-7 2 -14.5 3.5t-14.5 1.5q-8 0 -18 -5t-13 -21h-96q7 49 39 87t78 38q13 0 28 -3.5t31 -8.5l25 -8q7 -2 14.5 -4t14.5 -2q8 0 18 5.5t13 20.5z" />
    <glyph glyph-name="hungarumlaut" unicode="&#x2dd;" horiz-adv-x="500" 
d="M133 700h140l-104 -131h-128zM318 700h141l-104 -131h-129z" />
    <glyph glyph-name="commaaccent" unicode="&#x326;" horiz-adv-x="500" 
d="M212 -57h141l-91 -137h-115z" />
    <glyph glyph-name="Deltagreek" unicode="&#x394;" horiz-adv-x="689" 
d="M335 700h144l140 -572l-18 -128h-586l18 128zM387 531l-206 -398h301z" />
    <glyph glyph-name="Omegagreek" unicode="&#x3a9;" horiz-adv-x="784" 
d="M665 129l-18 -129h-248l35 246q69 14 117.5 64t48.5 124q0 34 -14 61.5t-37 45.5t-54 28t-65 10q-40 0 -77.5 -12.5t-66.5 -36.5t-46 -59t-17 -79q0 -57 33.5 -96t87.5 -50l-35 -246h-249l18 129h120l7 41q-53 28 -89.5 84.5t-36.5 134.5q0 79 31.5 140t82.5 101.5
t116.5 61t133.5 20.5q57 0 111.5 -19t96 -54.5t67.5 -86t26 -112.5q0 -53 -16.5 -97t-43 -78.5t-61.5 -59.5t-72 -40l-5 -36h119z" />
    <glyph glyph-name="mugreek" unicode="&#x3bc;" horiz-adv-x="567" 
d="M170 5l-28 -199h-143l96 684h143l-39 -279q-5 -40 8.5 -65.5t51.5 -25.5q45 0 70 31.5t33 87.5l35 251h143l-69 -490h-140l5 34q-24 -22 -48 -33.5t-59 -11.5q-12 0 -28 3.5t-31 12.5z" />
    <glyph glyph-name="pi" unicode="&#x3c0;" horiz-adv-x="648" 
d="M340 0l50 359h-147l-50 -359h-139l50 359h-74l18 131h573l-18 -131h-74l-50 -359h-139z" />
    <glyph glyph-name="Wgrave" unicode="&#x1e80;" horiz-adv-x="953" 
d="M226 700l45 -448l176 448h159l50 -448l171 448h163l-286 -700h-152l-54 463l-187 -463h-152l-88 700h155zM388 872h163l60 -103h-144z" />
    <glyph glyph-name="wgrave" unicode="&#x1e81;" horiz-adv-x="784" 
d="M500 490l40 -293l110 293h157l-207 -490h-155l-45 302l-131 -302h-155l-69 490h147l29 -293l121 293h158zM283 700h175l54 -142h-135z" />
    <glyph glyph-name="Wacute" unicode="&#x1e82;" horiz-adv-x="953" 
d="M226 700l45 -448l176 448h159l50 -448l171 448h163l-286 -700h-152l-54 463l-187 -463h-152l-88 700h155zM521 872h170l-107 -103h-151z" />
    <glyph glyph-name="wacute" unicode="&#x1e83;" horiz-adv-x="784" 
d="M500 490l40 -293l110 293h157l-207 -490h-155l-45 302l-131 -302h-155l-69 490h147l29 -293l121 293h158zM437 700h177l-140 -142h-139z" />
    <glyph glyph-name="Wdieresis" unicode="&#x1e84;" horiz-adv-x="953" 
d="M226 700l45 -448l176 448h159l50 -448l171 448h163l-286 -700h-152l-54 463l-187 -463h-152l-88 700h155zM369 833q0 30 21 52t52 22q30 0 52 -22t22 -52q0 -31 -22 -52.5t-52 -21.5q-31 0 -52 21.5t-21 52.5zM582 833q0 30 21 52t52 22q30 0 52 -22t22 -52
q0 -31 -22 -52.5t-52 -21.5q-31 0 -52 21.5t-21 52.5z" />
    <glyph glyph-name="wdieresis" unicode="&#x1e85;" horiz-adv-x="784" 
d="M500 490l40 -293l110 293h157l-207 -490h-155l-45 302l-131 -302h-155l-69 490h147l29 -293l121 293h158zM267 638q0 30 21 52t52 22q30 0 52 -22t22 -52q0 -31 -22 -52.5t-52 -21.5q-31 0 -52 21.5t-21 52.5zM480 638q0 30 21 52t52 22q30 0 52 -22t22 -52
q0 -31 -22 -52.5t-52 -21.5q-31 0 -52 21.5t-21 52.5z" />
    <glyph glyph-name="Ygrave" unicode="&#x1ef2;" horiz-adv-x="625" 
d="M217 700l103 -294l186 294h167l-298 -455l-35 -245h-147l35 245l-168 455h157zM219 872h163l60 -103h-144z" />
    <glyph glyph-name="ygrave" unicode="&#x1ef3;" horiz-adv-x="546" 
d="M210 -194h-155l110 197l-120 487h153l67 -303l157 303h157zM166 700h175l54 -142h-135z" />
    <glyph glyph-name="thinspace" unicode="&#x2009;" horiz-adv-x="105" 
 />
    <glyph glyph-name="endash" unicode="&#x2013;" horiz-adv-x="500" 
d="M15 198l18 128h456l-18 -128h-456z" />
    <glyph glyph-name="emdash" unicode="&#x2014;" horiz-adv-x="1000" 
d="M15 198l18 128h956l-18 -128h-956z" />
    <glyph glyph-name="quoteleft" unicode="&#x2018;" horiz-adv-x="280" 
d="M66 700h152l62 -234h-138z" />
    <glyph glyph-name="quoteright" unicode="&#x2019;" horiz-adv-x="280" 
d="M133 700h152l-76 -234h-138z" />
    <glyph glyph-name="quotesinglbase" unicode="&#x201a;" horiz-adv-x="280" 
d="M67 114h160l-142 -237h-146z" />
    <glyph glyph-name="quotedblleft" unicode="&#x201c;" horiz-adv-x="501" 
d="M66 700h152l62 -234h-138zM288 700h151l62 -234h-138z" />
    <glyph glyph-name="quotedblright" unicode="&#x201d;" horiz-adv-x="501" 
d="M354 700h152l-76 -234h-138zM133 700h151l-75 -234h-138z" />
    <glyph glyph-name="quotedblbase" unicode="&#x201e;" horiz-adv-x="510" 
d="M67 114h160l-142 -237h-146zM297 114h160l-142 -237h-146z" />
    <glyph glyph-name="dagger" unicode="&#x2020;" horiz-adv-x="594" 
d="M80 490h174l29 210h139l-29 -210h179l-19 -134h-179l-77 -550h-139l77 550h-174z" />
    <glyph glyph-name="daggerdbl" unicode="&#x2021;" horiz-adv-x="622" 
d="M521 51h-173l-34 -245h-139l34 245h-179l19 135h179l24 170h-174l19 134h174l29 210h139l-29 -210h179l-19 -134h-179l-24 -170h173z" />
    <glyph glyph-name="bullet" unicode="&#x2022;" horiz-adv-x="438" 
d="M67 262q0 60 42.5 102.5t102.5 42.5t102.5 -42.5t42.5 -102.5t-42.5 -102.5t-102.5 -42.5t-102.5 42.5t-42.5 102.5z" />
    <glyph glyph-name="ellipsis" unicode="&#x2026;" horiz-adv-x="806" 
d="M25 76q0 36 24.5 61t60.5 25t61.5 -25t25.5 -61t-25.5 -61t-61.5 -25t-60.5 25t-24.5 61zM288 76q0 36 24.5 61t60.5 25t61.5 -25t25.5 -61t-25.5 -61t-61.5 -25t-60.5 25t-24.5 61zM551 76q0 36 24.5 61t60.5 25t61.5 -25t25.5 -61t-25.5 -61t-61.5 -25t-60.5 25
t-24.5 61z" />
    <glyph glyph-name="perthousand" unicode="&#x2030;" horiz-adv-x="1182" 
d="M817 131q0 69 50 115t120 46q62 0 98.5 -41t36.5 -98q0 -69 -49 -116t-118 -47q-63 0 -100.5 41t-37.5 100zM927 135q0 -17 10.5 -28t26.5 -11q19 0 33.5 14.5t14.5 36.5q0 18 -11.5 28.5t-24.5 10.5q-19 0 -34 -14t-15 -37zM80 551q0 69 50 115t120 46q62 0 98.5 -41
t36.5 -98q0 -69 -49 -116t-118 -47q-63 0 -100.5 41t-37.5 100zM190 555q0 -17 10.5 -28t26.5 -11q19 0 33.5 14.5t14.5 36.5q0 18 -11.5 28.5t-24.5 10.5q-19 0 -34 -14t-15 -37zM81 0l530 700h152l-529 -700h-153zM458 131q0 69 50 115t120 46q62 0 98.5 -41t36.5 -98
q0 -69 -49 -116t-118 -47q-63 0 -100.5 41t-37.5 100zM568 135q0 -17 10.5 -28t26.5 -11q19 0 33.5 14.5t14.5 36.5q0 18 -11.5 28.5t-24.5 10.5q-19 0 -34 -14t-15 -37z" />
    <glyph glyph-name="guilsinglleft" unicode="&#x2039;" horiz-adv-x="370" 
d="M34 245l171 245h154l-181 -254l103 -236h-144z" />
    <glyph glyph-name="guilsinglright" unicode="&#x203a;" horiz-adv-x="370" 
d="M335 245l-171 -245h-154l181 254l-103 236h144z" />
    <glyph glyph-name="fraction" unicode="&#x2044;" horiz-adv-x="638" 
d="M-15 0l530 700h138l-530 -700h-138z" />
    <glyph glyph-name="zerosuperior" unicode="&#x2070;" horiz-adv-x="405" 
d="M193 406q34 0 50.5 29.5t16.5 95.5q0 36 -13.5 54t-36.5 18q-31 0 -48 -29.5t-17 -87.5q0 -36 12 -58t36 -22zM187 302q-78 0 -120 46t-42 123q0 113 55.5 174.5t139.5 61.5q76 0 118 -46t42 -123q0 -110 -50 -173t-143 -63z" />
    <glyph glyph-name="foursuperior" unicode="&#x2074;" horiz-adv-x="387" 
d="M359 380h-58l-10 -72h-115l10 72h-181l13 89l197 231h131l-32 -225h58zM137 475h62l14 94z" />
    <glyph glyph-name="zeroinferior" unicode="&#x2080;" horiz-adv-x="405" 
d="M193 97q34 0 50.5 29.5t16.5 95.5q0 36 -13.5 54t-36.5 18q-31 0 -48 -29.5t-17 -87.5q0 -36 12 -58t36 -22zM187 -7q-78 0 -120 46t-42 123q0 113 55.5 174.5t139.5 61.5q76 0 118 -46t42 -123q0 -110 -50 -173t-143 -63z" />
    <glyph glyph-name="oneinferior" unicode="&#x2081;" horiz-adv-x="352" 
d="M24 101h98l23 161q-19 -10 -45 -16t-56 -6l14 98q31 1 63.5 13.5t50.5 40.5h106l-41 -291h95l-14 -101h-308z" />
    <glyph glyph-name="twoinferior" unicode="&#x2082;" horiz-adv-x="393" 
d="M228 399q26 0 51.5 -6.5t45 -19.5t31.5 -33t12 -46q0 -53 -30 -83.5t-88 -56.5l-20 -9q-42 -19 -54.5 -26.5t-17.5 -17.5h181l-14 -101h-315l2 13q11 73 48 123t114 83l26 11q30 13 39.5 21.5t9.5 21.5q0 10 -10 17.5t-28 7.5q-26 0 -51 -14.5t-43 -39.5l-63 70
q23 34 71.5 59.5t102.5 25.5z" />
    <glyph glyph-name="threeinferior" unicode="&#x2083;" horiz-adv-x="375" 
d="M292 204q20 -11 32 -29.5t12 -46.5q0 -32 -15 -57.5t-40 -42.5t-59 -26t-72 -9q-49 0 -87.5 19.5t-57.5 47.5l87 74q16 -23 36.5 -32t39.5 -9q24 0 38.5 10.5t14.5 22.5q0 10 -11 19t-48 9h-36l13 88h33q34 0 46.5 8.5t12.5 21.5q0 10 -10.5 17.5t-29.5 7.5
q-22 0 -38.5 -7.5t-34.5 -27.5l-65 71q27 25 67.5 45t93.5 20q26 0 50.5 -5.5t43.5 -17t30.5 -30.5t11.5 -45q0 -32 -13.5 -55t-44.5 -41z" />
    <glyph glyph-name="fourinferior" unicode="&#x2084;" horiz-adv-x="387" 
d="M359 72h-58l-10 -72h-115l10 72h-181l13 89l197 231h131l-32 -225h58zM137 167h62l14 94z" />
    <glyph glyph-name="Euro" unicode="&#x20ac;" horiz-adv-x="710" 
d="M513 376h-224l-4 -25l-3 -22h223l-17 -122h-193q15 -38 45.5 -60t79.5 -22q50 0 84 17t65 48l83 -106q-54 -50 -115 -72.5t-127 -22.5q-116 0 -183 60.5t-85 157.5h-87l17 122h64q1 7 2 15t2 15q0 4 0.5 8.5t1.5 8.5h-62l17 122h80q43 99 124 156.5t191 57.5
q80 0 135.5 -30t88.5 -73l-105 -94q-24 31 -55 46t-76 15q-47 0 -83 -21t-61 -57h194z" />
    <glyph glyph-name="numero" unicode="&#x2116;" horiz-adv-x="1221" 
d="M456 0l-216 486l-68 -486h-148l99 700h179l214 -488l69 488h148l-99 -700h-178zM785 506q0 44 17.5 82t47 65t69.5 42.5t85 15.5q86 0 136.5 -47t50.5 -119q0 -45 -14 -83.5t-41.5 -67t-69 -44.5t-94.5 -16q-81 0 -134 48t-53 124zM904 510q0 -32 20 -53t52 -21
q40 0 68.5 28t28.5 70q0 33 -19.5 54t-52.5 21q-40 0 -68.5 -28t-28.5 -71z" />
    <glyph glyph-name="published" unicode="&#x2117;" horiz-adv-x="804" 
d="M437 282h-73l-17 -120h-111l53 375h184q57 0 92.5 -29.5t35.5 -80.5q0 -62 -48 -103.5t-116 -41.5zM449 441h-63l-9 -64h63q22 0 35.5 10t13.5 26q0 14 -10.5 21t-29.5 7zM36 316q0 84 34 157t90.5 126t131.5 83t157 30q68 0 127 -24t101.5 -66.5t66.5 -103.5t24 -134
q0 -85 -33.5 -158t-90 -125t-131.5 -82t-157 -30q-68 0 -127 23.5t-101.5 66t-67 103t-24.5 134.5zM125 316q0 -51 17 -95t48 -76.5t75.5 -51t98.5 -18.5q65 0 122.5 24.5t100 66.5t67.5 98.5t25 120.5q0 50 -17 94t-48 76.5t-75 51.5t-98 19q-65 0 -123 -25t-100.5 -67
t-67.5 -98.5t-25 -119.5z" />
    <glyph glyph-name="trademark" unicode="&#x2122;" horiz-adv-x="874" 
d="M79 700h312l-14 -101h-102l-41 -292h-110l41 292h-100zM560 365l-35 150l-29 -208h-109l55 393h131l49 -211l107 211h140l-55 -393h-108l29 208l-76 -150h-99z" />
    <glyph glyph-name="Omega" unicode="&#x2126;" horiz-adv-x="784" 
d="M665 129l-18 -129h-248l35 246q69 14 117.5 64t48.5 124q0 34 -14 61.5t-37 45.5t-54 28t-65 10q-40 0 -77.5 -12.5t-66.5 -36.5t-46 -59t-17 -79q0 -57 33.5 -96t87.5 -50l-35 -246h-249l18 129h120l7 41q-53 28 -89.5 84.5t-36.5 134.5q0 79 31.5 140t82.5 101.5
t116.5 61t133.5 20.5q57 0 111.5 -19t96 -54.5t67.5 -86t26 -112.5q0 -53 -16.5 -97t-43 -78.5t-61.5 -59.5t-72 -40l-5 -36h119z" />
    <glyph glyph-name="LeftArrow" unicode="&#x2190;" horiz-adv-x="815" 
d="M501 506l-171 -148h455l-20 -137h-472l137 -151l-99 -93l-269 313l357 312z" />
    <glyph glyph-name="UpArrow" unicode="&#x2191;" horiz-adv-x="727" 
d="M598 310l-131 153l-65 -463h-137l65 461l-168 -151l-90 95l352 307l274 -317z" />
    <glyph glyph-name="RightArrow" unicode="&#x2192;" horiz-adv-x="815" 
d="M335 73l171 148h-455l20 137h472l-137 151l99 93l269 -313l-357 -312z" />
    <glyph glyph-name="DownwArrow" unicode="&#x2193;" horiz-adv-x="727" 
d="M175 391l131 -153l65 463h137l-65 -461l168 151l90 -95l-352 -307l-274 317z" />
    <glyph glyph-name="NorthWestArrow" unicode="&#x2196;" horiz-adv-x="681" 
d="M552 390h-214l274 -318l-106 -92l-276 325l-32 -225h-132l62 441h442z" />
    <glyph glyph-name="NorthEastArrow" unicode="&#x2197;" horiz-adv-x="681" 
d="M421 390h-222l16 131h436l-64 -441h-136l28 190l-359 -289l-84 110z" />
    <glyph glyph-name="SouthEastArrow" unicode="&#x2198;" horiz-adv-x="681" 
d="M154 131h214l-274 318l106 92l276 -325l32 225h132l-62 -441h-442z" />
    <glyph glyph-name="SouthWestArrow" unicode="&#x2199;" horiz-adv-x="681" 
d="M286 131h222l-16 -131h-436l64 441h136l-28 -190l359 289l84 -110z" />
    <glyph glyph-name="partialdiff" unicode="&#x2202;" horiz-adv-x="612" 
d="M254 -11q-46 0 -88 15.5t-73 44t-49.5 68.5t-18.5 89q0 60 23 108.5t60.5 81.5t87 51t102.5 18q34 0 74.5 -12t65.5 -40q10 79 -27 121t-98 42q-40 0 -72 -16.5t-56 -41.5l-84 102q41 44 100.5 68t125.5 24q57 0 105.5 -21.5t82.5 -60.5t53 -94t19 -122q0 -93 -23.5 -171
t-67 -134.5t-105.5 -88t-137 -31.5zM174 213q0 -40 25 -64t65 -24q51 0 85 32.5t34 83.5q0 40 -24.5 63.5t-65.5 23.5q-49 0 -84 -32t-35 -83z" />
    <glyph glyph-name="Delta" unicode="&#x2206;" horiz-adv-x="689" 
d="M335 700h144l140 -572l-18 -128h-586l18 128zM387 531l-206 -398h301z" />
    <glyph glyph-name="product" unicode="&#x220f;" horiz-adv-x="656" 
d="M376 -194l107 763h-238l-107 -763h-139l126 894h516l-126 -894h-139z" />
    <glyph glyph-name="summation" unicode="&#x2211;" horiz-adv-x="532" 
d="M253 566l139 -319l-220 -306h277l-19 -135h-445l18 129l232 319l-142 317l18 129h445l-19 -134h-284z" />
    <glyph glyph-name="minus" unicode="&#x2212;" horiz-adv-x="609" 
d="M45 194l19 132h490l-19 -132h-490z" />
    <glyph glyph-name="radical" unicode="&#x221a;" horiz-adv-x="707" 
d="M48 490h209l68 -298l258 508h154l-361 -700h-144l-86 359h-116z" />
    <glyph glyph-name="infinity" unicode="&#x221e;" horiz-adv-x="1102" 
d="M830 502q52 0 96 -18.5t76 -50.5t49.5 -75t17.5 -92q0 -60 -22.5 -111.5t-62.5 -88t-94 -57t-117 -20.5q-46 0 -81 11.5t-62 30.5t-47 42.5t-35 47.5l-8 13l-11 -12q-22 -24 -48 -48t-57 -42.5t-68.5 -30.5t-82.5 -12q-52 0 -96.5 18.5t-76 50t-49.5 74.5t-18 92
q0 60 23 111.5t63 88.5t94.5 57.5t116.5 20.5q45 0 80.5 -11.5t62 -30t47 -41.5t35.5 -47l9 -14l12 13q23 24 49.5 47.5t58 42t68 30t78.5 11.5zM321 368q-28 0 -54.5 -10.5t-46.5 -29t-32 -43.5t-12 -54q0 -46 31.5 -77.5t78.5 -31.5q43 0 78.5 25t73.5 67l32 35l-20 32
q-26 42 -56 64.5t-73 22.5zM634 241l19 -32q25 -42 55 -64.5t73 -22.5q28 0 54.5 11t46.5 29t32 43.5t12 53.5q0 47 -31.5 78t-78.5 31q-43 0 -78.5 -24t-72.5 -67z" />
    <glyph glyph-name="integral" unicode="&#x222b;" horiz-adv-x="393" 
d="M299 496l-70 -496q-15 -107 -82.5 -156t-162.5 -49q-17 0 -26.5 0.5l-9.5 0.5l19 135h24q47 0 70 21.5t28 58.5l69 493q16 109 83 158.5t163 49.5q17 0 26.5 -0.5l9.5 -0.5l-19 -134h-23q-48 0 -71 -22t-28 -59z" />
    <glyph glyph-name="approxequal" unicode="&#x2248;" horiz-adv-x="657" 
d="M492 463h120q-5 -70 -44 -115t-106 -45q-19 0 -37 3t-35 7l-114 27q-11 2 -21.5 4.5t-23.5 2.5q-19 0 -31.5 -10.5t-14.5 -27.5h-119q5 69 43.5 114.5t105.5 45.5q19 0 37 -3.5t36 -7.5l115 -26q12 -2 21.5 -4.5t22.5 -2.5q20 0 31.5 10.5t13.5 27.5zM461 241h120
q-6 -70 -44.5 -115t-105.5 -45q-19 0 -37 3t-35 7l-115 26q-11 3 -21.5 5t-23.5 2q-19 0 -31 -10.5t-14 -26.5h-119q5 69 43 114t105 45q19 0 37.5 -3t34.5 -7l116 -26q12 -3 21.5 -5t22.5 -2q20 0 31.5 10.5t14.5 27.5z" />
    <glyph glyph-name="notequal" unicode="&#x2260;" horiz-adv-x="650" 
d="M75 297l19 132h278l47 73h144l-47 -73h68l-19 -132h-134l-53 -83h176l-19 -132h-242l-59 -93h-145l60 93h-104l19 132h170l53 83h-212z" />
    <glyph glyph-name="lessequal" unicode="&#x2264;" horiz-adv-x="662" 
d="M51 222l21 148l528 143l-21 -150l-346 -70l326 -74l-20 -143zM2 -132l19 132h508l-19 -132h-508z" />
    <glyph glyph-name="greaterequal" unicode="&#x2265;" horiz-adv-x="662" 
d="M590 368l-21 -148l-529 -143l22 150l346 70l-326 74l20 142zM12 -132l19 132h508l-19 -132h-508z" />
    <glyph glyph-name="BlackSquare" unicode="&#x25a0;" horiz-adv-x="651" 
d="M80 137v491h491v-491h-491z" />
    <glyph glyph-name="UpTriangle" unicode="&#x25b2;" horiz-adv-x="760" 
d="M40 80l340 540l340 -540h-680z" />
    <glyph glyph-name="RightTriangle" unicode="&#x25ba;" horiz-adv-x="660" 
d="M620 350l-540 -340v680z" />
    <glyph glyph-name="DownTriangle" unicode="&#x25bc;" horiz-adv-x="760" 
d="M380 80l-340 540h680z" />
    <glyph glyph-name="LeftTriangle" unicode="&#x25c0;" horiz-adv-x="660" 
d="M580 10l-540 340l540 340v-680z" />
    <glyph glyph-name="Diamond" unicode="&#x25c6;" horiz-adv-x="718" 
d="M40 385l319 319l319 -319l-319 -319z" />
    <glyph glyph-name="lozenge" unicode="&#x25ca;" horiz-adv-x="659" 
d="M332 700h133l149 -453l-277 -452h-133l-149 452zM202 235l88 -273l178 296l-88 275z" />
    <glyph glyph-name="BlackCircle" unicode="&#x25cf;" horiz-adv-x="630" 
d="M315 75q-57 0 -107 21.5t-87.5 59t-59 87.5t-21.5 107q0 56 21.5 106.5t59 87.5t87.5 59t107 22q56 0 106.5 -22t87.5 -59t59 -87.5t22 -106.5q0 -57 -22 -107t-59 -87.5t-87.5 -59t-106.5 -21.5z" />
    <glyph glyph-name="HeavyBlackHeart" unicode="&#x2764;" horiz-adv-x="646" 
d="M461 626q25 0 52.5 -7.5t50.5 -25t37.5 -48t14.5 -75.5q0 -58 -36 -98t-84.5 -80.5t-97.5 -90.5t-75 -127h-1q-25 77 -74 127t-97.5 90.5t-84.5 80.5t-36 98q0 45 14.5 75.5t37 48t50 25t53.5 7.5q32 0 55 -10t38 -25t24 -33.5t13 -35.5h15q4 17 13 35.5t24.5 33.5
t38.5 25t55 10z" />
    <glyph glyph-name="NULL" horiz-adv-x="0" 
 />
    <glyph glyph-name="A.ss01" horiz-adv-x="704" 
d="M371 563l-119 -300h203l-37 300h-47zM543 700l91 -700h-147l-17 128h-272l-53 -128h-155l287 700h266z" />
    <glyph glyph-name="G.ss01" horiz-adv-x="754" 
d="M450 712q88 0 160 -36t111 -96l-109 -98q-20 30 -64 60t-110 30q-51 0 -96.5 -19.5t-80 -53t-54.5 -79.5t-20 -97q0 -84 53 -139.5t136 -55.5q48 0 86.5 12.5t66.5 34.5l11 78h-139l20 137h285l-55 -390h-146l3 24q-36 -21 -75 -28t-79 -7q-68 0 -126.5 24.5t-101 68
t-66.5 103.5t-24 131q0 89 34 162.5t90.5 125t132 80t157.5 28.5z" />
    <glyph glyph-name="I.ss01" horiz-adv-x="484" 
d="M103 564l20 136h348l-20 -136h-101l-60 -428h101l-19 -136h-348l19 136h100l60 428h-100z" />
    <glyph glyph-name="J.ss01" horiz-adv-x="572" 
d="M216 564l19 136h338l-66 -465q-16 -119 -89.5 -182.5t-178.5 -63.5q-49 0 -89 17t-67 48t-39.5 74.5t-6.5 95.5l3 26h145l-3 -25q-6 -50 14.5 -75t58.5 -25q45 0 71.5 30.5t34.5 86.5l45 322h-190z" />
    <glyph glyph-name="K.ss01" horiz-adv-x="643" 
d="M24 0l99 700h147l-38 -267h46l209 267h171l-272 -340l175 -360h-155l-143 295h-51l-41 -295h-147z" />
    <glyph glyph-name="M.ss01" horiz-adv-x="907" 
d="M439 265l148 435h307l-99 -700h-150l79 561h-30l-202 -561h-170l-41 561h-29l-79 -561h-149l99 700h295z" />
    <glyph glyph-name="Q.ss01" horiz-adv-x="801" 
d="M36 316q0 84 33 157t88.5 126t130 83t157.5 30q68 0 127 -25t101.5 -69t67 -104t24.5 -129q0 -85 -33 -157.5t-89 -125.5t-131.5 -83t-158.5 -30q-68 0 -126.5 25t-100.5 69t-66 104t-24 129zM358 266l114 101l103 -120q18 28 28 61.5t10 69.5q0 40 -13.5 75.5t-37 61.5
t-56.5 41.5t-72 15.5q-48 0 -92 -20t-77.5 -54t-53.5 -79.5t-20 -95.5q0 -41 13.5 -76.5t37 -62t57 -41.5t73.5 -15q22 0 44.5 5t43.5 14z" />
    <glyph glyph-name="V.ss01" horiz-adv-x="704" 
d="M219 700l79 -563h47l236 563h156l-297 -700h-266l-101 700h146z" />
    <glyph glyph-name="W.ss01" horiz-adv-x="984" 
d="M481 183l-80 -183h-228l-106 700h151l73 -563h35l101 231l-53 332h138l16 -128l52 128h154l-157 -332l37 -231h30l231 563h156l-304 -700h-220z" />
    <glyph glyph-name="X.ss01" horiz-adv-x="668" 
d="M364 292h-51l-168 -292h-161l209 359l-97 341h151l75 -272h51l155 272h160l-195 -341l109 -359h-150z" />
    <glyph glyph-name="a.ss01" horiz-adv-x="532" 
d="M98 360l18 130h389l-69 -490h-239q-70 0 -116 40.5t-46 107.5q0 40 15.5 70.5t42.5 51t64 31.5t79 11h102l7 48h-247zM169 156q0 -13 10 -20.5t26 -7.5h107l9 62h-107q-19 0 -32 -9t-13 -25z" />
    <glyph glyph-name="e.ss01" horiz-adv-x="462" 
d="M244 158q-12 0 -27.5 3t-24.5 7l-6 -40h218l-18 -128h-360l44 314q13 95 69 141.5t140 46.5q75 0 121 -48t46 -117q0 -42 -17.5 -75.5t-46 -56.5t-65 -35t-73.5 -12zM253 287q23 0 38 15t15 34q0 16 -10.5 27.5t-29.5 11.5q-23 0 -38 -15t-15 -34q0 -16 10.5 -27.5
t29.5 -11.5z" />
    <glyph glyph-name="f.ss01" horiz-adv-x="433" 
d="M34 359l18 131h53l8 57q10 76 65.5 120.5t127.5 44.5q36 0 68 -12.5t54.5 -34.5t34 -53t7.5 -67l-1 -10h-142l1 8q2 16 -6 26t-24 10t-27 -11.5t-13 -29.5l-7 -48h211l-18 -131h-212l-50 -359h-146l50 359h-52z" />
    <glyph glyph-name="g.ss01" horiz-adv-x="573" 
d="M576 490l-18 -128h-57q8 -16 13 -34.5t5 -37.5q0 -84 -52.5 -144t-139.5 -70l146 -144l-18 -126h-448l18 130h255l-143 136q-39 37 -62.5 83.5t-23.5 102.5q0 53 21 96t57 73t84.5 46.5t101.5 16.5h261zM376 286q0 33 -23 53t-57 20q-40 0 -70.5 -26t-30.5 -67
q0 -33 23 -53.5t57 -20.5q40 0 70.5 26.5t30.5 67.5z" />
    <glyph glyph-name="h.ss01" horiz-adv-x="578" 
d="M26 0l98 700h142l-29 -210h314l-69 -490h-143l50 359h-171l-50 -359h-142z" />
    <glyph glyph-name="j.ss01" horiz-adv-x="286" 
d="M163 -194h-249l18 130h106l78 554h143zM124 629q0 34 24 58.5t58 24.5t58.5 -24.5t24.5 -58.5t-24.5 -58t-58.5 -24t-58 24t-24 58z" />
    <glyph glyph-name="k.ss01" horiz-adv-x="528" 
d="M26 0l99 700h144l-56 -391h43l111 181h161l-164 -253l100 -237h-146l-74 178h-49l-25 -178h-144z" />
    <glyph glyph-name="l.ss01" horiz-adv-x="268" 
d="M267 700l-99 -700h-142l99 700h142z" />
    <glyph glyph-name="m.ss01" horiz-adv-x="868" 
d="M841 490l-69 -490h-142l50 359h-160l-50 -359h-142l50 359h-160l-50 -359h-142l69 490h746z" />
    <glyph glyph-name="n.ss01" horiz-adv-x="578" 
d="M95 490h456l-69 -490h-143l50 359h-171l-50 -359h-142z" />
    <glyph glyph-name="r.ss01" horiz-adv-x="367" 
d="M218 359l-50 -359h-142l69 490h282l-19 -131h-140z" />
    <glyph glyph-name="s.ss01" horiz-adv-x="465" 
d="M254 502q53 0 106 -19t87 -55l-90 -108q-29 20 -47 31.5t-28.5 17.5t-16 8t-10.5 2q-12 0 -20 -8.5t-8 -18.5q0 -7 4.5 -13.5t14.5 -13.5l187 -123q-3 -43 -19 -82t-44 -68t-68.5 -46t-93.5 -17q-67 0 -116.5 25.5t-83.5 61.5l86 106q57 -40 81.5 -50.5t45.5 -10.5
q10 0 21.5 5.5t16.5 18.5l-113 68q-35 21 -55.5 55.5t-20.5 75.5q0 37 15 66.5t40 49.5t58.5 31t70.5 11z" />
    <glyph glyph-name="t.ss01" horiz-adv-x="428" 
d="M346 0h-282l50 359h-84l18 131h84l20 137h154l-20 -137h128l-18 -131h-140l-32 -228h140z" />
    <glyph glyph-name="u.ss01" horiz-adv-x="578" 
d="M482 0h-456l69 490h142l-51 -359h171l51 359h143z" />
    <glyph glyph-name="y.ss01" horiz-adv-x="570" 
d="M302 -194h-148l27 194l-126 490h152l70 -307l156 307h162l-266 -490z" />
    <glyph glyph-name="Agrave.ss01" horiz-adv-x="704" 
d="M371 563l-119 -300h203l-37 300h-47zM543 700l91 -700h-147l-17 128h-272l-53 -128h-155l287 700h266zM268 872h163l60 -103h-144z" />
    <glyph glyph-name="Aacute.ss01" horiz-adv-x="704" 
d="M371 563l-119 -300h203l-37 300h-47zM543 700l91 -700h-147l-17 128h-272l-53 -128h-155l287 700h266zM401 872h170l-107 -103h-151z" />
    <glyph glyph-name="Acircumflex.ss01" horiz-adv-x="704" 
d="M371 563l-119 -300h203l-37 300h-47zM543 700l91 -700h-147l-17 128h-272l-53 -128h-155l287 700h266zM351 872h174l71 -103h-138l-32 40l-44 -40h-131z" />
    <glyph glyph-name="Atilde.ss01" horiz-adv-x="704" 
d="M371 563l-119 -300h203l-37 300h-47zM543 700l91 -700h-147l-17 128h-272l-53 -128h-155l287 700h266zM509 894h96q-7 -48 -39 -86.5t-78 -38.5q-13 0 -28 4t-31 9l-25 8q-7 2 -14.5 3.5t-14.5 1.5q-8 0 -18 -5t-13 -21h-96q7 49 39 87t78 38q13 0 28 -3.5t31 -8.5l25 -8
q7 -2 14.5 -4t14.5 -2q8 0 18 5.5t13 20.5z" />
    <glyph glyph-name="Adieresis.ss01" horiz-adv-x="704" 
d="M371 563l-119 -300h203l-37 300h-47zM543 700l91 -700h-147l-17 128h-272l-53 -128h-155l287 700h266zM249 833q0 30 21 52t52 22q30 0 52 -22t22 -52q0 -31 -22 -52.5t-52 -21.5q-31 0 -52 21.5t-21 52.5zM462 833q0 30 21 52t52 22q30 0 52 -22t22 -52q0 -31 -22 -52.5
t-52 -21.5q-31 0 -52 21.5t-21 52.5z" />
    <glyph glyph-name="Aring.ss01" horiz-adv-x="704" 
d="M322 764q0 43 33 75t79 32q37 0 61.5 -25t24.5 -61q0 -27 -12.5 -49t-32.5 -36h68l91 -700h-147l-17 128h-272l-53 -128h-155l287 700h73q-13 11 -20.5 28t-7.5 36zM371 563l-119 -300h203l-37 300h-47zM445 777q0 9 -6 15t-15 6q-10 0 -18.5 -7.5t-8.5 -19.5
q0 -9 5.5 -15t14.5 -6q10 0 19 7.5t9 19.5z" />
    <glyph glyph-name="AE.ss01" horiz-adv-x="906" 
d="M898 700l-20 -137h-317l18 -138h263l-19 -135h-227l20 -153h202l-19 -137h-312l-17 128h-272l-53 -128h-155l287 700h621zM371 563l-119 -300h203l-37 300h-47z" />
    <glyph glyph-name="Ccedilla.ss01" horiz-adv-x="731" 
d="M583 224l86 -107q-43 -45 -99 -77t-125 -44l-19 -133h-140l17 130q-61 9 -110.5 36.5t-84 69t-53.5 97t-19 119.5q0 93 33 167t89 125t132 78t160 27q90 0 157.5 -38t111.5 -94l-112 -99q-30 40 -73.5 66t-101.5 26q-41 0 -84.5 -16.5t-78 -48.5t-56.5 -79.5t-22 -109.5
q0 -90 54 -140.5t132 -50.5q59 0 111.5 24t94.5 72z" />
    <glyph glyph-name="Igrave.ss01" horiz-adv-x="484" 
d="M103 564l20 136h348l-20 -136h-101l-60 -428h101l-19 -136h-348l19 136h100l60 428h-100zM153 872h163l60 -103h-144z" />
    <glyph glyph-name="Iacute.ss01" horiz-adv-x="484" 
d="M103 564l20 136h348l-20 -136h-101l-60 -428h101l-19 -136h-348l19 136h100l60 428h-100zM286 872h170l-107 -103h-151z" />
    <glyph glyph-name="Icircumflex.ss01" horiz-adv-x="484" 
d="M103 564l20 136h348l-20 -136h-101l-60 -428h101l-19 -136h-348l19 136h100l60 428h-100zM236 872h174l71 -103h-138l-32 40l-44 -40h-131z" />
    <glyph glyph-name="Idieresis.ss01" horiz-adv-x="484" 
d="M103 564l20 136h348l-20 -136h-101l-60 -428h101l-19 -136h-348l19 136h100l60 428h-100zM134 833q0 30 21 52t52 22q30 0 52 -22t22 -52q0 -31 -22 -52.5t-52 -21.5q-31 0 -52 21.5t-21 52.5zM347 833q0 30 21 52t52 22q30 0 52 -22t22 -52q0 -31 -22 -52.5t-52 -21.5
q-31 0 -52 21.5t-21 52.5z" />
    <glyph glyph-name="agrave.ss01" horiz-adv-x="532" 
d="M98 360l18 130h389l-69 -490h-239q-70 0 -116 40.5t-46 107.5q0 40 15.5 70.5t42.5 51t64 31.5t79 11h102l7 48h-247zM169 156q0 -13 10 -20.5t26 -7.5h107l9 62h-107q-19 0 -32 -9t-13 -25zM177 700h175l54 -142h-135z" />
    <glyph glyph-name="aacute.ss01" horiz-adv-x="532" 
d="M98 360l18 130h389l-69 -490h-239q-70 0 -116 40.5t-46 107.5q0 40 15.5 70.5t42.5 51t64 31.5t79 11h102l7 48h-247zM169 156q0 -13 10 -20.5t26 -7.5h107l9 62h-107q-19 0 -32 -9t-13 -25zM331 700h177l-140 -142h-139z" />
    <glyph glyph-name="acircumflex.ss01" horiz-adv-x="532" 
d="M98 360l18 130h389l-69 -490h-239q-70 0 -116 40.5t-46 107.5q0 40 15.5 70.5t42.5 51t64 31.5t79 11h102l7 48h-247zM169 156q0 -13 10 -20.5t26 -7.5h107l9 62h-107q-19 0 -32 -9t-13 -25zM264 700h163l71 -142h-118l-42 59l-57 -59h-128z" />
    <glyph glyph-name="atilde.ss01" horiz-adv-x="532" 
d="M98 360l18 130h389l-69 -490h-239q-70 0 -116 40.5t-46 107.5q0 40 15.5 70.5t42.5 51t64 31.5t79 11h102l7 48h-247zM169 156q0 -13 10 -20.5t26 -7.5h107l9 62h-107q-19 0 -32 -9t-13 -25zM420 700h96q-7 -48 -39 -86.5t-78 -38.5q-13 0 -28 4t-31 9l-25 8
q-7 2 -14.5 3.5t-14.5 1.5q-8 0 -18 -5t-13 -21h-96q7 49 39 87t78 38q13 0 28 -3.5t31 -8.5l25 -8q7 -2 14.5 -4t14.5 -2q8 0 18 5.5t13 20.5z" />
    <glyph glyph-name="adieresis.ss01" horiz-adv-x="532" 
d="M98 360l18 130h389l-69 -490h-239q-70 0 -116 40.5t-46 107.5q0 40 15.5 70.5t42.5 51t64 31.5t79 11h102l7 48h-247zM169 156q0 -13 10 -20.5t26 -7.5h107l9 62h-107q-19 0 -32 -9t-13 -25zM161 638q0 30 21 52t52 22q30 0 52 -22t22 -52q0 -31 -22 -52.5t-52 -21.5
q-31 0 -52 21.5t-21 52.5zM374 638q0 30 21 52t52 22q30 0 52 -22t22 -52q0 -31 -22 -52.5t-52 -21.5q-31 0 -52 21.5t-21 52.5z" />
    <glyph glyph-name="aring.ss01" horiz-adv-x="532" 
d="M98 360l18 130h389l-69 -490h-239q-70 0 -116 40.5t-46 107.5q0 40 15.5 70.5t42.5 51t64 31.5t79 11h102l7 48h-247zM169 156q0 -13 10 -20.5t26 -7.5h107l9 62h-107q-19 0 -32 -9t-13 -25zM244 621q0 43 34.5 75t77.5 32q37 0 61.5 -25t24.5 -61q0 -46 -33 -76t-80 -30
q-37 0 -61 25t-24 60zM367 634q0 9 -6 15t-15 6q-10 0 -19 -7.5t-9 -19.5q0 -9 6 -15t15 -6q10 0 19 7.5t9 19.5z" />
    <glyph glyph-name="ae.ss01" horiz-adv-x="746" 
d="M673 128l-18 -128h-457q-74 0 -118.5 39t-44.5 108q0 40 15.5 70t42.5 50t63.5 30t79.5 10h101l8 53h-247l19 130h451q78 0 120 -42.5t42 -103.5q0 -40 -15.5 -69.5t-42 -49.5t-63 -30t-79.5 -10h-67l-8 -57h218zM201 128h112l8 57h-112q-16 0 -28 -7.5t-12 -23.5
q0 -13 9.5 -19.5t22.5 -6.5zM565 362h-77l-8 -55h77q16 0 27.5 7t11.5 24q0 13 -9 18.5t-22 5.5z" />
    <glyph glyph-name="ccedilla.ss01" horiz-adv-x="537" 
d="M407 184l86 -96q-32 -33 -67 -55.5t-75 -32.5l-19 -137h-140l18 132q-81 16 -129 80.5t-48 150.5q0 61 22.5 112t61 87t91.5 56.5t113 20.5q68 0 119.5 -26t84.5 -69l-108 -93q-17 25 -43.5 39.5t-58.5 14.5q-55 0 -95.5 -39.5t-40.5 -99.5q0 -47 29 -77t76 -30
q37 0 66.5 16t56.5 46z" />
    <glyph glyph-name="egrave.ss01" horiz-adv-x="462" 
d="M244 158q-12 0 -27.5 3t-24.5 7l-6 -40h218l-18 -128h-360l44 314q13 95 69 141.5t140 46.5q75 0 121 -48t46 -117q0 -42 -17.5 -75.5t-46 -56.5t-65 -35t-73.5 -12zM253 287q23 0 38 15t15 34q0 16 -10.5 27.5t-29.5 11.5q-23 0 -38 -15t-15 -34q0 -16 10.5 -27.5
t29.5 -11.5zM140 700h175l54 -142h-135z" />
    <glyph glyph-name="eacute.ss01" horiz-adv-x="462" 
d="M244 158q-12 0 -27.5 3t-24.5 7l-6 -40h218l-18 -128h-360l44 314q13 95 69 141.5t140 46.5q75 0 121 -48t46 -117q0 -42 -17.5 -75.5t-46 -56.5t-65 -35t-73.5 -12zM253 287q23 0 38 15t15 34q0 16 -10.5 27.5t-29.5 11.5q-23 0 -38 -15t-15 -34q0 -16 10.5 -27.5
t29.5 -11.5zM294 700h177l-140 -142h-139z" />
    <glyph glyph-name="ecircumflex.ss01" horiz-adv-x="462" 
d="M244 158q-12 0 -27.5 3t-24.5 7l-6 -40h218l-18 -128h-360l44 314q13 95 69 141.5t140 46.5q75 0 121 -48t46 -117q0 -42 -17.5 -75.5t-46 -56.5t-65 -35t-73.5 -12zM253 287q23 0 38 15t15 34q0 16 -10.5 27.5t-29.5 11.5q-23 0 -38 -15t-15 -34q0 -16 10.5 -27.5
t29.5 -11.5zM227 700h163l71 -142h-118l-42 59l-57 -59h-128z" />
    <glyph glyph-name="edieresis.ss01" horiz-adv-x="462" 
d="M244 158q-12 0 -27.5 3t-24.5 7l-6 -40h218l-18 -128h-360l44 314q13 95 69 141.5t140 46.5q75 0 121 -48t46 -117q0 -42 -17.5 -75.5t-46 -56.5t-65 -35t-73.5 -12zM253 287q23 0 38 15t15 34q0 16 -10.5 27.5t-29.5 11.5q-23 0 -38 -15t-15 -34q0 -16 10.5 -27.5
t29.5 -11.5zM124 638q0 30 21 52t52 22q30 0 52 -22t22 -52q0 -31 -22 -52.5t-52 -21.5q-31 0 -52 21.5t-21 52.5zM337 638q0 30 21 52t52 22q30 0 52 -22t22 -52q0 -31 -22 -52.5t-52 -21.5q-31 0 -52 21.5t-21 52.5z" />
    <glyph glyph-name="ntilde.ss01" horiz-adv-x="578" 
d="M95 490h456l-69 -490h-143l50 359h-171l-50 -359h-142zM423 700h96q-7 -48 -39 -86.5t-78 -38.5q-13 0 -28 4t-31 9l-25 8q-7 2 -14.5 3.5t-14.5 1.5q-8 0 -18 -5t-13 -21h-96q7 49 39 87t78 38q13 0 28 -3.5t31 -8.5l25 -8q7 -2 14.5 -4t14.5 -2q8 0 18 5.5t13 20.5z
" />
    <glyph glyph-name="oe.ss01" horiz-adv-x="817" 
d="M596 161q-19 0 -36 4.5t-32 11.5q-5 -13 -11 -25t-13 -22h259l-18 -130h-476q-54 0 -97.5 17.5t-74.5 48t-47.5 72.5t-16.5 90q0 61 23.5 111.5t62.5 86.5t92 56t111 20q49 0 92 -19t72 -51q26 31 65.5 50.5t86.5 19.5q72 0 117.5 -45t45.5 -111q0 -42 -16.5 -76.5
t-44.5 -58.5t-65.5 -37t-78.5 -13zM180 234q0 -44 26 -72.5t68 -28.5q51 0 88 38t37 95q0 44 -26.5 72.5t-67.5 28.5q-51 0 -88 -38t-37 -95zM607 287q23 0 38 15t15 34q0 16 -10.5 27.5t-29.5 11.5q-23 0 -38 -15t-15 -34q0 -16 10.5 -27.5t29.5 -11.5z" />
    <glyph glyph-name="germandbls.ss01" horiz-adv-x="648" 
d="M296 292l19 136l121 135h-180l-79 -563h-151l98 700h504l-18 -132l-141 -150q63 -19 99.5 -68.5t36.5 -112.5q0 -111 -74.5 -174t-202.5 -63h-73l21 146h62q51 0 82.5 19t31.5 62q0 31 -21 48t-63 17h-72z" />
    <glyph glyph-name="ugrave.ss01" horiz-adv-x="578" 
d="M482 0h-456l69 490h142l-51 -359h171l51 359h143zM179 700h175l54 -142h-135z" />
    <glyph glyph-name="uacute.ss01" horiz-adv-x="578" 
d="M482 0h-456l69 490h142l-51 -359h171l51 359h143zM333 700h177l-140 -142h-139z" />
    <glyph glyph-name="ucircumflex.ss01" horiz-adv-x="578" 
d="M482 0h-456l69 490h142l-51 -359h171l51 359h143zM266 700h163l71 -142h-118l-42 59l-57 -59h-128z" />
    <glyph glyph-name="udieresis.ss01" horiz-adv-x="578" 
d="M482 0h-456l69 490h142l-51 -359h171l51 359h143zM163 638q0 30 21 52t52 22q30 0 52 -22t22 -52q0 -31 -22 -52.5t-52 -21.5q-31 0 -52 21.5t-21 52.5zM376 638q0 30 21 52t52 22q30 0 52 -22t22 -52q0 -31 -22 -52.5t-52 -21.5q-31 0 -52 21.5t-21 52.5z" />
    <glyph glyph-name="yacute.ss01" horiz-adv-x="570" 
d="M302 -194h-148l27 194l-126 490h152l70 -307l156 307h162l-266 -490zM331 700h177l-140 -142h-139z" />
    <glyph glyph-name="ydieresis.ss01" horiz-adv-x="570" 
d="M302 -194h-148l27 194l-126 490h152l70 -307l156 307h162l-266 -490zM161 638q0 30 21 52t52 22q30 0 52 -22t22 -52q0 -31 -22 -52.5t-52 -21.5q-31 0 -52 21.5t-21 52.5zM374 638q0 30 21 52t52 22q30 0 52 -22t22 -52q0 -31 -22 -52.5t-52 -21.5q-31 0 -52 21.5
t-21 52.5z" />
    <glyph glyph-name="comma.ss01" horiz-adv-x="280" 
d="M82 -164l-117 64l125 229l127 -69z" />
    <glyph glyph-name="semicolon.ss01" horiz-adv-x="280" 
d="M56 403q0 42 29 70.5t71 28.5q40 0 69 -28.5t29 -70.5q0 -41 -29 -69.5t-69 -28.5q-42 0 -71 28.5t-29 69.5zM57 -164l-117 64l125 229l127 -69z" />
    <glyph glyph-name="colon.ss01" horiz-adv-x="280" 
d="M12 87q0 42 29 70.5t71 28.5q40 0 69 -28.5t29 -70.5q0 -41 -29 -69.5t-69 -28.5q-42 0 -71 28.5t-29 69.5zM56 403q0 42 29 70.5t71 28.5q40 0 69 -28.5t29 -70.5q0 -41 -29 -69.5t-69 -28.5q-42 0 -71 28.5t-29 69.5z" />
    <glyph glyph-name="period.ss01" horiz-adv-x="280" 
d="M12 87q0 42 29 70.5t71 28.5q40 0 69 -28.5t29 -70.5q0 -41 -29 -69.5t-69 -28.5q-42 0 -71 28.5t-29 69.5z" />
    <glyph glyph-name="ellipsis.ss01" horiz-adv-x="791" 
d="M12 87q0 42 29 70.5t71 28.5q40 0 69 -28.5t29 -70.5q0 -41 -29 -69.5t-69 -28.5q-42 0 -71 28.5t-29 69.5zM267 87q0 42 29 70.5t71 28.5q40 0 69 -28.5t29 -70.5q0 -41 -29 -69.5t-69 -28.5q-42 0 -71 28.5t-29 69.5zM523 87q0 42 29 70.5t71 28.5q40 0 69 -28.5
t29 -70.5q0 -41 -29 -69.5t-69 -28.5q-42 0 -71 28.5t-29 69.5z" />
    <glyph glyph-name="exclam.ss01" horiz-adv-x="337" 
d="M88 226l67 474h147l-67 -474h-147zM46 87q0 42 29 70.5t71 28.5q40 0 69 -28.5t29 -70.5q0 -41 -29 -69.5t-69 -28.5q-42 0 -71 28.5t-29 69.5z" />
    <glyph glyph-name="exclamdown.ss01" horiz-adv-x="337" 
d="M240 266l-65 -460h-147l65 460h147zM84 403q0 42 29 70.5t71 28.5q40 0 69 -28.5t29 -70.5q0 -41 -29 -69.5t-69 -28.5q-42 0 -71 28.5t-29 69.5z" />
    <glyph glyph-name="question.ss01" horiz-adv-x="546" 
d="M213 265h-33l18 131h17q81 0 124 30.5t43 74.5q0 35 -24 54.5t-61 19.5q-48 0 -85.5 -22t-67.5 -59l-80 100q44 54 107.5 86t138.5 32q46 0 86 -14t70 -41t47.5 -66t17.5 -88q0 -43 -16 -85.5t-52.5 -76.5t-98 -55t-151.5 -21zM118 87q0 42 29 70.5t71 28.5
q40 0 69 -28.5t29 -70.5q0 -41 -29 -69.5t-69 -28.5q-42 0 -71 28.5t-29 69.5z" />
    <glyph glyph-name="questiondown.ss01" horiz-adv-x="506" 
d="M328 224h33l-18 -131h-17q-81 0 -124 -24.5t-43 -65.5q0 -33 24 -52t61 -19q48 0 85.5 22t67.5 59l80 -100q-44 -54 -107.5 -86t-138.5 -32q-46 0 -86 14t-70 39.5t-47.5 62.5t-17.5 83t17 87.5t55 73t98.5 50.5t147.5 19zM423 404q0 -42 -29 -70.5t-71 -28.5
q-40 0 -69 28.5t-29 70.5q0 41 29 69.5t69 28.5q42 0 71 -28.5t29 -69.5z" />
    <glyph glyph-name="quoteleft.ss01" horiz-adv-x="280" 
d="M193 710l113 -64l-125 -229l-122 69z" />
    <glyph glyph-name="quoteright.ss01" horiz-adv-x="280" 
d="M170 443l-113 64l125 229l122 -69z" />
    <glyph glyph-name="quotedblleft.ss01" horiz-adv-x="479" 
d="M193 710l113 -64l-125 -229l-122 69zM392 710l113 -64l-125 -229l-122 69z" />
    <glyph glyph-name="quotedblright.ss01" horiz-adv-x="479" 
d="M369 425l-113 64l125 229l122 -69zM170 425l-113 64l125 229l122 -69z" />
    <glyph glyph-name="quotesinglbase.ss01" horiz-adv-x="280" 
d="M83 -154l-113 64l125 229l122 -69z" />
    <glyph glyph-name="quotedblbase.ss01" horiz-adv-x="479" 
d="M282 -148l-113 64l125 229l122 -69zM83 -148l-113 64l125 229l122 -69z" />
    <glyph glyph-name="ampersand.ss01" horiz-adv-x="699" 
d="M400 564h-45q-10 0 -25.5 -2.5t-30.5 -10t-25.5 -21.5t-10.5 -38q0 -33 20.5 -46t48.5 -13h102l38 267h147l-38 -267h96l-19 -136h-96l-42 -297h-263q-45 0 -84 14t-67.5 39t-45 61t-16.5 80q0 63 36.5 112.5t94.5 77.5q-22 17 -40.5 48.5t-18.5 70.5q0 90 69.5 143.5
t184.5 53.5h49zM195 206q0 -33 24.5 -51.5t58.5 -18.5h114l23 161h-113q-42 0 -74.5 -23t-32.5 -68z" />
    <glyph glyph-name="zero.ss01" horiz-adv-x="650" 
d="M606 412q0 -93 -23.5 -171t-66 -134t-103 -87t-134.5 -31q-55 0 -98.5 23t-74 63.5t-46.5 96t-16 118.5q0 93 23.5 171t66 133.5t103 86.5t134.5 31q55 0 98.5 -23t74 -63t46.5 -95.5t16 -118.5zM356 572q-43 0 -73.5 -23.5t-49.5 -61t-28.5 -84.5t-10.5 -94l243 208
q-12 25 -32 40t-49 15zM294 129q43 0 73 23t49 60t28.5 83.5t10.5 92.5l-241 -206q12 -25 32 -39t48 -14z" />
    <glyph glyph-name="one.ss01" horiz-adv-x="534" 
d="M36 136h149l60 428h-138l20 136h285l-80 -564h152l-19 -136h-448z" />
    <glyph glyph-name="two.ss01" horiz-adv-x="578" 
d="M34 117l185 172q-38 9 -65 28.5t-44 45t-25 55t-8 58.5q0 48 20 91t54.5 75t82 51t102.5 19q91 0 150 -57.5t59 -143.5q0 -60 -36 -108.5t-101 -109.5l-165 -156h248l-19 -137h-454zM396 502q0 32 -21 53t-55 21q-37 0 -67 -28.5t-30 -70.5q0 -31 21 -51.5t55 -20.5
q37 0 67 27t30 70z" />
    <glyph glyph-name="three.ss01" horiz-adv-x="564" 
d="M529 573l-175 -155q70 -16 112.5 -67.5t42.5 -122.5q0 -52 -20.5 -96t-57.5 -75.5t-90.5 -49.5t-118.5 -18q-76 0 -134.5 31.5t-92.5 80.5l110 98q24 -40 60 -58t70 -18q49 0 81.5 25.5t32.5 68.5q0 42 -32 63t-82 21h-74l19 131l153 136h-249l18 132h445z" />
    <glyph glyph-name="four.ss01" horiz-adv-x="623" 
d="M487 413l-19 -134h119l-18 -131h-119l-21 -148h-148l21 148h-276l29 215l291 337h181l-318 -368l-7 -53h118l19 134h148z" />
    <glyph glyph-name="five.ss01" 
d="M397 249q0 43 -26.5 68t-66.5 25t-67 -18t-43 -48h-135l59 424h445l-19 -136h-298l-18 -127q21 16 50 25.5t62 9.5q40 0 79.5 -13.5t70 -40.5t49.5 -67.5t19 -93.5q0 -58 -22.5 -107.5t-62.5 -85t-96.5 -55.5t-123.5 -20q-81 0 -138.5 30.5t-94.5 76.5l110 97
q22 -32 54.5 -50t75.5 -18q57 0 97 34.5t40 89.5z" />
    <glyph glyph-name="six.ss01" 
d="M268 -10q-103 0 -166.5 64.5t-63.5 168.5q0 82 38 147t91 121l200 209h177l-208 -213l6 0.5t9 0.5q43 0 81 -15.5t66.5 -44t45 -70t16.5 -92.5q0 -63 -22.5 -114t-61.5 -87t-92.5 -55.5t-115.5 -19.5zM183 224q0 -45 27.5 -73.5t72.5 -28.5q54 0 92.5 38t38.5 97
q0 45 -27 74t-71 29q-55 0 -94 -38.5t-39 -97.5z" />
    <glyph glyph-name="seven.ss01" horiz-adv-x="546" 
d="M50 463l32 231h493l-18 -134l-324 -566h-166l330 566h-186l-14 -97h-147z" />
    <glyph glyph-name="eight.ss01" horiz-adv-x="602" 
d="M265 -10q-43 0 -84 12.5t-73 37t-51 62t-19 86.5q0 37 10.5 67.5t27.5 53.5t38 39.5t41 27.5q-21 15 -39 47.5t-18 72.5q0 51 21.5 91.5t57 68t81.5 42t95 14.5q43 0 81.5 -13.5t67.5 -38.5t45.5 -60t16.5 -78q0 -29 -9 -55t-23 -46.5t-31.5 -36t-33.5 -23.5
q29 -19 50 -55.5t21 -83.5q0 -59 -23.5 -103t-62 -72.5t-87.5 -42.5t-100 -14zM303 307q-49 0 -80.5 -30.5t-31.5 -73.5q0 -36 24.5 -57t61.5 -21q45 0 78.5 27.5t33.5 73.5q0 34 -23 57.5t-63 23.5zM343 592q-37 0 -66.5 -25.5t-29.5 -67.5q0 -30 18.5 -50t54.5 -20
q46 0 70.5 27.5t24.5 64.5q0 32 -20.5 51.5t-51.5 19.5z" />
    <glyph glyph-name="nine.ss01" horiz-adv-x="596" 
d="M329 712q103 0 166.5 -65t63.5 -169q0 -82 -38 -147t-91 -121l-200 -210h-177l208 214l-6 -0.5t-9 -0.5q-43 0 -81 15.5t-66.5 44t-45 70t-16.5 92.5q0 63 22.5 114t61.5 87.5t92.5 56t115.5 19.5zM414 477q0 45 -27.5 74t-72.5 29q-54 0 -92.5 -38.5t-38.5 -97.5
q0 -45 27 -74t71 -29q55 0 94 38.5t39 97.5z" />
    <glyph glyph-name="dollar.ss01" horiz-adv-x="644" 
d="M358 275l-89 19q-83 18 -135.5 65t-52.5 133q0 46 19 82.5t51 63.5t74.5 44.5t88.5 24.5l15 108h147l-16 -113q57 -13 98 -41.5t68 -60.5l-115 -105q-28 34 -69 57.5t-97 23.5q-51 0 -82 -21t-31 -55q0 -22 20 -39.5t69 -27.5l70 -13q99 -19 153 -68t54 -135
q0 -93 -65.5 -148.5t-171.5 -73.5l-15 -109h-147l15 110q-69 13 -120.5 48t-80.5 79l116 103q27 -42 72.5 -71.5t111.5 -29.5q63 0 99 24.5t36 58.5q0 23 -21 40.5t-69 26.5z" />
    <glyph glyph-name="A.ss02" horiz-adv-x="708" 
d="M424 718l237 -718h-148l-44 133h-257l-81 -133h-156l435 718h14zM381 430l-96 -165h147z" />
    <glyph glyph-name="K.ss02" horiz-adv-x="622" 
d="M214 287l-41 -287h-149l99 700h149l-38 -275l224 275h175l-289 -350l206 -350h-171z" />
    <glyph glyph-name="M.ss02" horiz-adv-x="868" 
d="M398 98l-176 254l-49 -352h-149l101 718h14l285 -420l417 420h14l-101 -718h-148l48 347l-242 -249h-14z" />
    <glyph glyph-name="N.ss02" horiz-adv-x="746" 
d="M618 -17l-388 427l-57 -410h-149l101 718h14l387 -430l59 412h148l-101 -717h-14z" />
    <glyph glyph-name="Q.ss02" horiz-adv-x="803" 
d="M36 315q0 87 34 160.5t90.5 125.5t132 81.5t157.5 29.5q68 0 126.5 -25t100.5 -68.5t66 -103.5t24 -129q0 -75 -24 -139t-67 -114l68 -77l-109 -94l-70 80q-46 -25 -99.5 -39t-109.5 -14q-68 0 -127 25t-101.5 68.5t-67 103.5t-24.5 129zM191 320q0 -39 12 -74t34.5 -61
t57 -41t78.5 -15q54 0 98.5 20.5t76.5 55t49.5 80t17.5 94.5q0 40 -12.5 75t-35.5 61t-56.5 41.5t-75.5 15.5q-55 0 -100 -21t-77 -55.5t-49.5 -80.5t-17.5 -95z" />
    <glyph glyph-name="R.ss02" horiz-adv-x="660" 
d="M435 0l-142 225h-88l-32 -225h-149l99 700h274q55 0 102 -15t80.5 -43t52.5 -68.5t19 -91.5q0 -94 -57 -158t-150 -84l159 -240h-168zM387 563h-135l-28 -202h120q78 0 117.5 30.5t39.5 84.5q0 35 -28 61t-86 26z" />
    <glyph glyph-name="S.ss02" horiz-adv-x="602" 
d="M352 271l-97 41q-61 26 -99.5 74t-38.5 118q0 48 19 87t51.5 65.5t76.5 41t94 14.5q72 0 131.5 -29t94.5 -74l-104 -92q-28 31 -63.5 45.5t-68.5 14.5q-41 0 -62 -20.5t-21 -45.5q0 -22 15 -39t51 -33l93 -41q60 -26 99 -69t39 -118q0 -100 -74 -161t-202 -61
q-84 0 -149.5 39.5t-104.5 93.5l106 94q33 -47 78.5 -70t91.5 -23q57 0 81.5 23.5t24.5 54.5q0 19 -14.5 38t-47.5 32z" />
    <glyph glyph-name="V.ss02" horiz-adv-x="643" 
d="M209 700l107 -412l223 412h157l-410 -717h-14l-208 717h145z" />
    <glyph glyph-name="W.ss02" horiz-adv-x="951" 
d="M634 -17l-143 436l-270 -436h-14l-141 717h151l66 -368l233 386h14l135 -386l170 368h151l-338 -717h-14z" />
    <glyph glyph-name="Z.ss02" horiz-adv-x="664" 
d="M130 700h549l-2 -14l-412 -549h327l-19 -137h-578l2 14l413 549h-300z" />
    <glyph glyph-name="a.ss02" horiz-adv-x="633" 
d="M33 224q0 62 24 113.5t63.5 88t92.5 56.5t111 20q41 0 78.5 -13t55.5 -32l5 33h143l-69 -490h-143l5 36q-23 -21 -59 -34t-84 -13q-52 0 -93.5 18.5t-70 50t-44 74.5t-15.5 92zM182 234q0 -44 26.5 -78t77.5 -34q34 0 60.5 12t45 32t28.5 45.5t10 51.5q0 44 -28.5 75.5
t-80.5 31.5q-57 0 -98 -41t-41 -95z" />
    <glyph glyph-name="k.ss02" horiz-adv-x="519" 
d="M26 0l99 700h142l-53 -376l132 166h173l-207 -240l158 -250h-165l-111 186l-26 -186h-142z" />
    <glyph glyph-name="v.ss02" horiz-adv-x="494" 
d="M528 490l-309 -500h-14l-171 500h146l66 -222l126 222h156z" />
    <glyph glyph-name="w.ss02" horiz-adv-x="740" 
d="M237 279l156 221h14l94 -221l116 211h158l-278 -500h-13l-111 271l-187 -271h-13l-138 500h146z" />
    <glyph glyph-name="z.ss02" horiz-adv-x="521" 
d="M98 490h416l-2 -13l-264 -349h212l-18 -128h-439l2 14l261 349h-186z" />
    <glyph glyph-name="Agrave.ss02" horiz-adv-x="708" 
d="M424 718l237 -718h-148l-44 133h-257l-81 -133h-156l435 718h14zM381 430l-96 -165h147zM276 872h163l60 -103h-144z" />
    <glyph glyph-name="Aacute.ss02" horiz-adv-x="708" 
d="M424 718l237 -718h-148l-44 133h-257l-81 -133h-156l435 718h14zM381 430l-96 -165h147zM409 872h170l-107 -103h-151z" />
    <glyph glyph-name="Acircumflex.ss02" horiz-adv-x="708" 
d="M424 718l237 -718h-148l-44 133h-257l-81 -133h-156l435 718h14zM381 430l-96 -165h147zM359 872h174l71 -103h-138l-32 40l-44 -40h-131z" />
    <glyph glyph-name="Atilde.ss02" horiz-adv-x="708" 
d="M424 718l237 -718h-148l-44 133h-257l-81 -133h-156l435 718h14zM381 430l-96 -165h147zM517 894h96q-7 -48 -39 -86.5t-78 -38.5q-13 0 -28 4t-31 9l-25 8q-7 2 -14.5 3.5t-14.5 1.5q-8 0 -18 -5t-13 -21h-96q7 49 39 87t78 38q13 0 28 -3.5t31 -8.5l25 -8q7 -2 14.5 -4
t14.5 -2q8 0 18 5.5t13 20.5z" />
    <glyph glyph-name="Adieresis.ss02" horiz-adv-x="708" 
d="M424 718l237 -718h-148l-44 133h-257l-81 -133h-156l435 718h14zM381 430l-96 -165h147zM257 833q0 30 21 52t52 22q30 0 52 -22t22 -52q0 -31 -22 -52.5t-52 -21.5q-31 0 -52 21.5t-21 52.5zM470 833q0 30 21 52t52 22q30 0 52 -22t22 -52q0 -31 -22 -52.5t-52 -21.5
q-31 0 -52 21.5t-21 52.5z" />
    <glyph glyph-name="Aring.ss02" horiz-adv-x="708" 
d="M330 764q0 43 33 75t79 32q37 0 61.5 -25t24.5 -61q0 -40 -26.5 -68.5t-65.5 -35.5l225 -681h-148l-44 133h-257l-81 -133h-156l413 683q-26 7 -42 30t-16 51zM381 430l-96 -165h147zM453 777q0 9 -6 15t-15 6q-10 0 -18.5 -7.5t-8.5 -19.5q0 -9 5.5 -15t14.5 -6
q10 0 19 7.5t9 19.5z" />
    <glyph glyph-name="AE.ss02" horiz-adv-x="930" 
d="M922 700l-20 -136h-419l46 -144h336l-19 -136h-274l46 -148h224l-19 -136h-308l-44 138h-255l-83 -138h-158l433 700h514zM385 440l-98 -170h149z" />
    <glyph glyph-name="Ntilde.ss02" horiz-adv-x="746" 
d="M618 -17l-388 427l-57 -410h-149l101 718h14l387 -430l59 412h148l-101 -717h-14zM517 894h96q-7 -48 -39 -86.5t-78 -38.5q-13 0 -28 4t-31 9l-25 8q-7 2 -14.5 3.5t-14.5 1.5q-8 0 -18 -5t-13 -21h-96q7 49 39 87t78 38q13 0 28 -3.5t31 -8.5l25 -8q7 -2 14.5 -4
t14.5 -2q8 0 18 5.5t13 20.5z" />
    <glyph glyph-name="Scaron.ss02" horiz-adv-x="602" 
d="M352 271l-97 41q-61 26 -99.5 74t-38.5 118q0 48 19 87t51.5 65.5t76.5 41t94 14.5q72 0 131.5 -29t94.5 -74l-104 -92q-28 31 -63.5 45.5t-68.5 14.5q-41 0 -62 -20.5t-21 -45.5q0 -22 15 -39t51 -33l93 -41q60 -26 99 -69t39 -118q0 -100 -74 -161t-202 -61
q-84 0 -149.5 39.5t-104.5 93.5l106 94q33 -47 78.5 -70t91.5 -23q57 0 81.5 23.5t24.5 54.5q0 19 -14.5 38t-47.5 32zM469 769h-174l-72 103h130l32 -41l44 41h139z" />
    <glyph glyph-name="Zcaron.ss02" horiz-adv-x="664" 
d="M130 700h549l-2 -14l-412 -549h327l-19 -137h-578l2 14l413 549h-300zM483 769h-174l-72 103h130l32 -41l44 41h139z" />
    <glyph glyph-name="agrave.ss02" horiz-adv-x="633" 
d="M33 224q0 62 24 113.5t63.5 88t92.5 56.5t111 20q41 0 78.5 -13t55.5 -32l5 33h143l-69 -490h-143l5 36q-23 -21 -59 -34t-84 -13q-52 0 -93.5 18.5t-70 50t-44 74.5t-15.5 92zM182 234q0 -44 26.5 -78t77.5 -34q34 0 60.5 12t45 32t28.5 45.5t10 51.5q0 44 -28.5 75.5
t-80.5 31.5q-57 0 -98 -41t-41 -95zM217 700h175l54 -142h-135z" />
    <glyph glyph-name="aacute.ss02" horiz-adv-x="633" 
d="M33 224q0 62 24 113.5t63.5 88t92.5 56.5t111 20q41 0 78.5 -13t55.5 -32l5 33h143l-69 -490h-143l5 36q-23 -21 -59 -34t-84 -13q-52 0 -93.5 18.5t-70 50t-44 74.5t-15.5 92zM182 234q0 -44 26.5 -78t77.5 -34q34 0 60.5 12t45 32t28.5 45.5t10 51.5q0 44 -28.5 75.5
t-80.5 31.5q-57 0 -98 -41t-41 -95zM371 700h177l-140 -142h-139z" />
    <glyph glyph-name="acircumflex.ss02" horiz-adv-x="633" 
d="M33 224q0 62 24 113.5t63.5 88t92.5 56.5t111 20q41 0 78.5 -13t55.5 -32l5 33h143l-69 -490h-143l5 36q-23 -21 -59 -34t-84 -13q-52 0 -93.5 18.5t-70 50t-44 74.5t-15.5 92zM182 234q0 -44 26.5 -78t77.5 -34q34 0 60.5 12t45 32t28.5 45.5t10 51.5q0 44 -28.5 75.5
t-80.5 31.5q-57 0 -98 -41t-41 -95zM304 700h163l71 -142h-118l-42 59l-57 -59h-128z" />
    <glyph glyph-name="atilde.ss02" horiz-adv-x="633" 
d="M33 224q0 62 24 113.5t63.5 88t92.5 56.5t111 20q41 0 78.5 -13t55.5 -32l5 33h143l-69 -490h-143l5 36q-23 -21 -59 -34t-84 -13q-52 0 -93.5 18.5t-70 50t-44 74.5t-15.5 92zM182 234q0 -44 26.5 -78t77.5 -34q34 0 60.5 12t45 32t28.5 45.5t10 51.5q0 44 -28.5 75.5
t-80.5 31.5q-57 0 -98 -41t-41 -95zM460 700h96q-7 -48 -39 -86.5t-78 -38.5q-13 0 -28 4t-31 9l-25 8q-7 2 -14.5 3.5t-14.5 1.5q-8 0 -18 -5t-13 -21h-96q7 49 39 87t78 38q13 0 28 -3.5t31 -8.5l25 -8q7 -2 14.5 -4t14.5 -2q8 0 18 5.5t13 20.5z" />
    <glyph glyph-name="adieresis.ss02" horiz-adv-x="633" 
d="M33 224q0 62 24 113.5t63.5 88t92.5 56.5t111 20q41 0 78.5 -13t55.5 -32l5 33h143l-69 -490h-143l5 36q-23 -21 -59 -34t-84 -13q-52 0 -93.5 18.5t-70 50t-44 74.5t-15.5 92zM182 234q0 -44 26.5 -78t77.5 -34q34 0 60.5 12t45 32t28.5 45.5t10 51.5q0 44 -28.5 75.5
t-80.5 31.5q-57 0 -98 -41t-41 -95zM201 638q0 30 21 52t52 22q30 0 52 -22t22 -52q0 -31 -22 -52.5t-52 -21.5q-31 0 -52 21.5t-21 52.5zM414 638q0 30 21 52t52 22q30 0 52 -22t22 -52q0 -31 -22 -52.5t-52 -21.5q-31 0 -52 21.5t-21 52.5z" />
    <glyph glyph-name="aring.ss02" horiz-adv-x="633" 
d="M33 224q0 62 24 113.5t63.5 88t92.5 56.5t111 20q41 0 78.5 -13t55.5 -32l5 33h143l-69 -490h-143l5 36q-23 -21 -59 -34t-84 -13q-52 0 -93.5 18.5t-70 50t-44 74.5t-15.5 92zM182 234q0 -44 26.5 -78t77.5 -34q34 0 60.5 12t45 32t28.5 45.5t10 51.5q0 44 -28.5 75.5
t-80.5 31.5q-57 0 -98 -41t-41 -95zM284 621q0 43 34.5 75t77.5 32q37 0 61.5 -25t24.5 -61q0 -46 -33 -76t-80 -30q-37 0 -61 25t-24 60zM407 634q0 9 -6 15t-15 6q-10 0 -19 -7.5t-9 -19.5q0 -9 6 -15t15 -6q10 0 19 7.5t9 19.5z" />
    <glyph glyph-name="germandbls.ss02" horiz-adv-x="620" 
d="M259 131h68q54 0 86.5 26t32.5 68q0 34 -25.5 49.5t-70.5 15.5h-68l18 131h48q50 0 78 26.5t28 63.5q0 31 -23 50.5t-64 19.5q-56 0 -94 -36t-49 -115l-60 -430h-142l61 436q19 131 98.5 203.5t200.5 72.5q43 0 83 -15t69.5 -40.5t47.5 -61t18 -75.5q0 -51 -25.5 -91.5
t-62.5 -63.5q40 -25 58.5 -60.5t18.5 -78.5q0 -47 -18 -88.5t-52 -72t-83.5 -48t-111.5 -17.5h-83z" />
    <glyph glyph-name="zcaron.ss02" horiz-adv-x="521" 
d="M98 490h416l-2 -13l-264 -349h212l-18 -128h-439l2 14l261 349h-186zM402 558h-163l-71 142h117l41 -59l58 59h129z" />
    <glyph glyph-name="question.ss02" horiz-adv-x="490" 
d="M243 485l48 20q31 13 41.5 23t10.5 23q0 12 -11.5 20t-34.5 8q-40 0 -75.5 -22.5t-63.5 -54.5l-78 98q37 48 99.5 80t128.5 32q80 0 130.5 -44t50.5 -108q0 -37 -10.5 -63t-31.5 -46.5t-53.5 -37t-76.5 -34.5l-50 -20q-15 -6 -24 -15t-9 -22q0 -9 7 -15.5t18 -6.5
q13 0 23.5 5.5t22.5 15.5l60 -79q-32 -32 -66.5 -46t-71.5 -14q-51 0 -90.5 35.5t-39.5 92.5q0 51 31.5 96t114.5 79zM132 76q0 36 24.5 61t60.5 25t61.5 -25t25.5 -61t-25.5 -61t-61.5 -25t-60.5 25t-24.5 61z" />
    <glyph glyph-name="questiondown.ss02" horiz-adv-x="490" 
d="M247 17l-48 -20q-31 -13 -41.5 -22.5t-10.5 -20.5q0 -12 11 -19t30 -7q40 0 78 22.5t66 54.5l78 -98q-37 -48 -99.5 -80t-128.5 -32q-80 0 -130.5 41.5t-50.5 105.5q0 61 42.5 103.5t129.5 77.5l50 20q15 6 24 12.5t9 19.5q0 7 -6 12t-17 5q-13 0 -24.5 -5.5t-23.5 -15.5
l-60 79q32 32 66.5 46t71.5 14q51 0 90.5 -33t39.5 -90q0 -51 -31.5 -93.5t-114.5 -76.5zM358 416q0 -36 -24.5 -61t-60.5 -25t-61.5 25t-25.5 61t25.5 61t61.5 25t60.5 -25t24.5 -61z" />
    <glyph glyph-name="ampersand.ss02" horiz-adv-x="699" 
d="M465 0l-31 45l-7 -5q-42 -28 -86.5 -39.5t-94.5 -11.5q-52 0 -92.5 16.5t-67.5 44t-41 62t-14 70.5q0 73 44 125t110 89l20 11q-21 34 -33 65.5t-12 65.5q0 76 57 125t152 49q38 0 70 -12.5t55 -33.5t35.5 -49t12.5 -59q0 -61 -32.5 -100.5t-99.5 -82.5l-11 -7l86 -129
l94 71l69 -111l-98 -69l82 -130h-167zM262 121q25 0 49 7.5t43 20.5l9 6l-89 143l-17 -10q-31 -18 -53.5 -39t-22.5 -55q0 -31 21 -52t60 -21zM358 579q-20 0 -34 -13t-14 -34q0 -13 5 -27t15 -29l4 -6l8 5q27 17 42 32t15 35q0 16 -10.5 26.5t-30.5 10.5z" />
    <glyph glyph-name="zero.ss02" horiz-adv-x="659" 
d="M297 129q79 0 121 76.5t42 204.5q0 78 -25 120t-76 42q-80 0 -122 -76t-42 -204q0 -78 25.5 -120.5t76.5 -42.5zM282 -11q-57 0 -102 22.5t-75 62t-46 94.5t-16 118q0 93 23.5 171.5t66 134.5t104 88t136.5 32q57 0 102 -22.5t75 -62t46 -94.5t16 -118q0 -94 -23.5 -173
t-66 -134.5t-104 -87t-136.5 -31.5z" />
    <glyph glyph-name="one.ss02" horiz-adv-x="385" 
d="M109 0l62 441l-130 -85l22 156l284 206h10l-101 -718h-147z" />
    <glyph glyph-name="two.ss02" horiz-adv-x="594" 
d="M-3 14l345 379q31 34 45 56.5t14 53.5q0 28 -20.5 50.5t-60.5 22.5q-41 0 -80.5 -20.5t-90.5 -79.5l-84 97q46 62 116.5 100.5t146.5 38.5q43 0 83.5 -13.5t72 -38t50.5 -60t19 -78.5q0 -57 -26 -109t-98 -130l-134 -146h224l-19 -137h-505z" />
    <glyph glyph-name="three.ss02" horiz-adv-x="562" 
d="M557 700l-2 -14l-185 -253q59 -14 99.5 -63.5t40.5 -130.5q0 -59 -24.5 -106t-64.5 -78.5t-93 -48.5t-110 -17q-75 0 -133 28t-95 84l109 95q27 -40 60 -55.5t69 -15.5q55 0 91.5 29t36.5 77q0 37 -29 63.5t-84 26.5h-115l1 10l176 237h-221l18 132h455z" />
    <glyph glyph-name="four.ss02" horiz-adv-x="641" 
d="M524 712h50l-61 -433h97l-18 -131h-97l-21 -148h-148l21 148h-356l2 14zM269 279h96l18 124z" />
    <glyph glyph-name="five.ss02" horiz-adv-x="594" 
d="M400 247q0 43 -30 69t-70 26q-36 0 -65 -17.5t-48 -45.5l-127 42l139 379h365l-19 -136h-253l-45 -111q19 9 39 14t45 5q44 0 85 -14.5t72.5 -42.5t51 -68.5t19.5 -91.5q0 -57 -23 -106t-64 -84.5t-98 -55.5t-124 -20q-84 0 -140 31t-89 77l111 96q26 -35 56 -51.5
t73 -16.5q57 0 98 36t41 86z" />
    <glyph glyph-name="six.ss02" horiz-adv-x="592" 
d="M257 -10q-103 0 -166.5 64.5t-63.5 168.5q0 82 38 147t91 121l200 209h177l-208 -213l6 0.5t9 0.5q43 0 81 -15.5t66.5 -44t45 -70t16.5 -92.5q0 -63 -22.5 -114t-61.5 -87t-92.5 -55.5t-115.5 -19.5zM172 224q0 -45 27.5 -73.5t72.5 -28.5q54 0 92.5 38t38.5 97
q0 45 -27 74t-71 29q-55 0 -94 -38.5t-39 -97.5z" />
    <glyph glyph-name="seven.ss02" horiz-adv-x="507" 
d="M40 566l19 134h495l-2 -14l-341 -686h-168l290 566h-293z" />
    <glyph glyph-name="eight.ss02" 
d="M264 -10q-48 0 -90 14.5t-73 41.5t-49 66.5t-18 88.5q0 38 12 69.5t30.5 55.5t41 41.5t42.5 28.5q-16 15 -32.5 45.5t-16.5 67.5q0 46 20 83.5t53.5 64t78 41t93.5 14.5q90 0 145 -52.5t55 -128.5q0 -52 -28 -89t-56 -56q26 -17 51 -56.5t25 -92.5q0 -63 -24 -109.5
t-63.5 -77t-91 -45.5t-105.5 -15zM307 327q-49 0 -85 -33.5t-36 -80.5q0 -40 27.5 -64t64.5 -24q45 0 82.5 30.5t37.5 81.5q0 38 -25.5 64t-65.5 26zM344 592q-33 0 -58.5 -23t-25.5 -58q0 -25 15.5 -43.5t48.5 -18.5q42 0 63 25.5t21 54.5q0 28 -18.5 45.5t-45.5 17.5z" />
    <glyph glyph-name="nine.ss02" horiz-adv-x="592" 
d="M335 712q103 0 166.5 -65t63.5 -169q0 -82 -38 -147t-91 -121l-200 -210h-177l208 214l-6 -0.5t-9 -0.5q-43 0 -81 15.5t-66.5 44t-45 70t-16.5 92.5q0 63 22.5 114t61.5 87.5t92.5 56t115.5 19.5zM420 477q0 45 -27.5 74t-72.5 29q-54 0 -92.5 -38.5t-38.5 -97.5
q0 -45 27 -74t71 -29q55 0 94 38.5t39 97.5z" />
    <glyph glyph-name="dollar.ss02" horiz-adv-x="602" 
d="M352 271l-97 41q-61 26 -99.5 74t-38.5 118q0 44 16 80t43 62t65 42.5t81 21.5l15 105h121l-17 -114q45 -13 81.5 -37t61.5 -55l-104 -92q-28 31 -63.5 45.5t-68.5 14.5q-41 0 -62 -20.5t-21 -45.5q0 -22 15 -39t51 -33l93 -41q60 -26 99 -69t39 -118q0 -89 -58.5 -147
t-161.5 -71l-15 -107h-121l15 110q-61 13 -109.5 47.5t-79.5 78.5l106 94q33 -47 78.5 -70t91.5 -23q57 0 81.5 23.5t24.5 54.5q0 19 -14.5 38t-47.5 32z" />
    <glyph glyph-name="A.ss03" horiz-adv-x="701" 
d="M482 700l175 -700h-149l-49 178h-239l-94 -178h-159l373 700h142zM387 498l-99 -188h144z" />
    <glyph glyph-name="C.ss03" horiz-adv-x="664" 
d="M415 577q-50 0 -91 -22.5t-70 -59.5t-45 -84.5t-16 -96.5q0 -38 9.5 -72.5t29 -60.5t49 -41.5t69.5 -15.5q46 0 87.5 19.5t78.5 60.5l81 -104q-52 -55 -116.5 -83t-143.5 -28q-69 0 -123.5 25.5t-91.5 69t-57 102.5t-20 124q0 82 28.5 155.5t79 128t119.5 86.5t150 32
q80 0 136 -29.5t97 -82.5l-101 -94q-26 31 -59 51t-80 20z" />
    <glyph glyph-name="D.ss03" horiz-adv-x="680" 
d="M324 564h-73l-60 -429h73q110 0 168.5 69t58.5 187q0 83 -42 128t-125 45zM122 700h223q62 0 116 -19.5t93 -58t61.5 -96t22.5 -132.5q0 -98 -29.5 -172t-81 -123t-122.5 -74t-153 -25h-228z" />
    <glyph glyph-name="G.ss03" horiz-adv-x="765" 
d="M403 253l19 137h291l-54 -390h-131l9 70q-37 -40 -91 -60.5t-111 -20.5q-61 0 -114.5 23t-92 64t-61 99t-22.5 127q0 90 33 166t89 130t131.5 84t160.5 30q89 0 154 -33t112 -93l-108 -97q-36 44 -76 64t-90 20q-49 0 -94.5 -20t-80 -55t-55.5 -83.5t-21 -105.5
q0 -78 44.5 -129.5t116.5 -51.5q61 0 111.5 31t72.5 94h-142z" />
    <glyph glyph-name="J.ss03" horiz-adv-x="562" 
d="M359 242l65 458h147l-65 -459q-16 -119 -87.5 -185.5t-176.5 -66.5q-107 0 -164.5 67t-42.5 173l3 21h147l-3 -21q-7 -52 13 -78t58 -26q45 0 71.5 30.5t34.5 86.5z" />
    <glyph glyph-name="M.ss03" horiz-adv-x="907" 
d="M432 205l211 495h251l-99 -700h-150l73 521l-226 -521h-170l-76 521l-73 -521h-149l99 700h241z" />
    <glyph glyph-name="O.ss03" horiz-adv-x="754" 
d="M45 309q0 90 28.5 164.5t78.5 127t119 82t150 29.5q65 0 118.5 -25t91 -68.5t58 -102.5t20.5 -125q0 -90 -29 -164.5t-79.5 -127t-120.5 -81.5t-151 -29q-65 0 -117.5 25t-89.5 67.5t-57 101.5t-20 126zM195 310q0 -80 39.5 -132.5t116.5 -52.5q50 0 89.5 21.5t66 57.5
t40.5 85t14 103q0 78 -39 131t-114 53q-51 0 -91 -21.5t-67 -57.5t-41 -84.5t-14 -102.5z" />
    <glyph glyph-name="Q.ss03" horiz-adv-x="754" 
d="M45 315q0 88 28.5 161t78.5 125.5t119 81.5t150 29q65 0 118.5 -25t91 -67.5t58 -100t20.5 -122.5q0 -81 -30 -151.5t-76 -116.5l92 7l-19 -136h-347q-65 0 -117.5 24.5t-89.5 67t-57 100.5t-20 123zM195 316q0 -76 39.5 -128t116.5 -52q50 0 89.5 21.5t66 57t40.5 83.5
t14 100q0 75 -39 126.5t-114 51.5q-51 0 -91 -21t-67 -56.5t-41 -83t-14 -99.5z" />
    <glyph glyph-name="R.ss03" horiz-adv-x="683" 
d="M599 0h-153l-11 113q-3 33 -9.5 58.5t-21 43t-41.5 26.5t-72 9h-83l-35 -250h-149l99 700h284q111 0 178 -56.5t67 -147.5q0 -70 -42.5 -120.5t-111.5 -78.5q46 -31 61.5 -67t21.5 -84zM389 563h-137l-25 -177h127q72 0 110 25.5t38 76.5q0 38 -30.5 56.5t-82.5 18.5z
" />
    <glyph glyph-name="a.ss03" horiz-adv-x="529" 
d="M179 -11q-73 0 -114.5 42.5t-41.5 98.5q0 70 46.5 110.5t141.5 52.5l108 13l2 14q4 24 -10 37.5t-39 13.5q-19 0 -37.5 -10t-24.5 -35h-143q14 81 73.5 128.5t143.5 47.5q41 0 76.5 -13.5t60 -38t36.5 -58.5t6 -75l-21 -157q-2 -17 2 -28.5t25 -11.5h17l-17 -119
l-20 -1.5t-37 -1.5q-39 0 -58.5 13.5t-26.5 38.5q-31 -31 -65 -46t-83 -15zM165 149q0 -16 12.5 -25.5t32.5 -9.5q40 0 63.5 22t30.5 65l1 6l-86 -13q-25 -4 -39.5 -14.5t-14.5 -30.5z" />
    <glyph glyph-name="i.ss03" horiz-adv-x="279" 
d="M33 0l69 490h143l-69 -490h-143zM113 565l19 135h143l-19 -135h-143z" />
    <glyph glyph-name="j.ss03" horiz-adv-x="278" 
d="M120 565l19 135h142l-19 -135h-142zM39 -13l71 503h141l-73 -520q-12 -84 -60.5 -129.5t-135.5 -45.5q-28 0 -47 1l-19 1l18 130h31q31 0 50 11.5t24 48.5z" />
    <glyph glyph-name="y.ss03" horiz-adv-x="553" 
d="M152 -22l15 27l-121 485h153l67 -304l157 304h157l-300 -555q-18 -32 -37 -58t-45 -44t-60.5 -28t-82.5 -10q-17 0 -31 0.5l-14 0.5l18 131l9 -0.5t18 -0.5q44 0 62 10.5t35 41.5z" />
    <glyph glyph-name="Agrave.ss03" horiz-adv-x="701" 
d="M482 700l175 -700h-149l-49 178h-239l-94 -178h-159l373 700h142zM387 498l-99 -188h144zM273 872h163l60 -103h-144z" />
    <glyph glyph-name="Aacute.ss03" horiz-adv-x="701" 
d="M482 700l175 -700h-149l-49 178h-239l-94 -178h-159l373 700h142zM387 498l-99 -188h144zM406 872h170l-107 -103h-151z" />
    <glyph glyph-name="Acircumflex.ss03" horiz-adv-x="701" 
d="M482 700l175 -700h-149l-49 178h-239l-94 -178h-159l373 700h142zM387 498l-99 -188h144zM356 872h174l71 -103h-138l-32 40l-44 -40h-131z" />
    <glyph glyph-name="Atilde.ss03" horiz-adv-x="701" 
d="M482 700l175 -700h-149l-49 178h-239l-94 -178h-159l373 700h142zM387 498l-99 -188h144zM514 894h96q-7 -48 -39 -86.5t-78 -38.5q-13 0 -28 4t-31 9l-25 8q-7 2 -14.5 3.5t-14.5 1.5q-8 0 -18 -5t-13 -21h-96q7 49 39 87t78 38q13 0 28 -3.5t31 -8.5l25 -8
q7 -2 14.5 -4t14.5 -2q8 0 18 5.5t13 20.5z" />
    <glyph glyph-name="Adieresis.ss03" horiz-adv-x="701" 
d="M482 700l175 -700h-149l-49 178h-239l-94 -178h-159l373 700h142zM387 498l-99 -188h144zM446 742l21 149h158l-21 -149h-158zM236 742l21 149h158l-21 -149h-158z" />
    <glyph glyph-name="Aring.ss03" horiz-adv-x="701" 
d="M320 753q0 43 33 75t79 32q37 0 61.5 -25t24.5 -61q0 -24 -9.5 -44t-25.5 -34l174 -696h-149l-49 178h-239l-94 -178h-159l372 698q-9 11 -14 25t-5 30zM387 498l-99 -188h144zM443 766q0 9 -6 15t-15 6q-10 0 -18.5 -7.5t-8.5 -19.5q0 -9 5.5 -15t14.5 -6q10 0 19 7.5
t9 19.5z" />
    <glyph glyph-name="AE.ss03" horiz-adv-x="921" 
d="M814 0h-307l-45 178h-241l-94 -178h-160l373 700h573l-20 -136h-378l37 -144h304l-19 -136h-251l37 -148h210zM388 498l-99 -188h145z" />
    <glyph glyph-name="Ccedilla.ss03" horiz-adv-x="664" 
d="M332 -137h-143l86 132q-54 11 -97 40t-72.5 70.5t-45 94t-15.5 110.5q0 82 28.5 155.5t79 128t119.5 86.5t150 32q80 0 136 -29.5t97 -82.5l-101 -94q-26 31 -59 51t-80 20q-50 0 -91 -22.5t-70 -59.5t-45 -84.5t-16 -96.5q0 -38 9.5 -72.5t29 -60.5t49 -41.5t69.5 -15.5
q46 0 87.5 19.5t78.5 60.5l81 -104q-41 -43 -89 -70t-105 -36z" />
    <glyph glyph-name="Edieresis.ss03" horiz-adv-x="648" 
d="M24 0l99 700h517l-20 -137h-369l-19 -138h352l-19 -135h-352l-22 -153h369l-19 -137h-517zM416 742l21 149h158l-21 -149h-158zM206 742l21 149h158l-21 -149h-158z" />
    <glyph glyph-name="Idieresis.ss03" horiz-adv-x="284" 
d="M24 0l99 700h148l-99 -700h-148zM228 742l21 149h158l-21 -149h-158zM18 742l21 149h158l-21 -149h-158z" />
    <glyph glyph-name="Ograve.ss03" horiz-adv-x="754" 
d="M45 309q0 90 28.5 164.5t78.5 127t119 82t150 29.5q65 0 118.5 -25t91 -68.5t58 -102.5t20.5 -125q0 -90 -29 -164.5t-79.5 -127t-120.5 -81.5t-151 -29q-65 0 -117.5 25t-89.5 67.5t-57 101.5t-20 126zM195 310q0 -80 39.5 -132.5t116.5 -52.5q50 0 89.5 21.5t66 57.5
t40.5 85t14 103q0 78 -39 131t-114 53q-51 0 -91 -21.5t-67 -57.5t-41 -84.5t-14 -102.5zM285 872h163l60 -103h-144z" />
    <glyph glyph-name="Oacute.ss03" horiz-adv-x="754" 
d="M45 309q0 90 28.5 164.5t78.5 127t119 82t150 29.5q65 0 118.5 -25t91 -68.5t58 -102.5t20.5 -125q0 -90 -29 -164.5t-79.5 -127t-120.5 -81.5t-151 -29q-65 0 -117.5 25t-89.5 67.5t-57 101.5t-20 126zM195 310q0 -80 39.5 -132.5t116.5 -52.5q50 0 89.5 21.5t66 57.5
t40.5 85t14 103q0 78 -39 131t-114 53q-51 0 -91 -21.5t-67 -57.5t-41 -84.5t-14 -102.5zM418 872h170l-107 -103h-151z" />
    <glyph glyph-name="Ocircumflex.ss03" horiz-adv-x="754" 
d="M45 309q0 90 28.5 164.5t78.5 127t119 82t150 29.5q65 0 118.5 -25t91 -68.5t58 -102.5t20.5 -125q0 -90 -29 -164.5t-79.5 -127t-120.5 -81.5t-151 -29q-65 0 -117.5 25t-89.5 67.5t-57 101.5t-20 126zM195 310q0 -80 39.5 -132.5t116.5 -52.5q50 0 89.5 21.5t66 57.5
t40.5 85t14 103q0 78 -39 131t-114 53q-51 0 -91 -21.5t-67 -57.5t-41 -84.5t-14 -102.5zM368 872h174l71 -103h-138l-32 40l-44 -40h-131z" />
    <glyph glyph-name="Otilde.ss03" horiz-adv-x="754" 
d="M45 309q0 90 28.5 164.5t78.5 127t119 82t150 29.5q65 0 118.5 -25t91 -68.5t58 -102.5t20.5 -125q0 -90 -29 -164.5t-79.5 -127t-120.5 -81.5t-151 -29q-65 0 -117.5 25t-89.5 67.5t-57 101.5t-20 126zM195 310q0 -80 39.5 -132.5t116.5 -52.5q50 0 89.5 21.5t66 57.5
t40.5 85t14 103q0 78 -39 131t-114 53q-51 0 -91 -21.5t-67 -57.5t-41 -84.5t-14 -102.5zM526 894h96q-7 -48 -39 -86.5t-78 -38.5q-13 0 -28 4t-31 9l-25 8q-7 2 -14.5 3.5t-14.5 1.5q-8 0 -18 -5t-13 -21h-96q7 49 39 87t78 38q13 0 28 -3.5t31 -8.5l25 -8q7 -2 14.5 -4
t14.5 -2q8 0 18 5.5t13 20.5z" />
    <glyph glyph-name="Odieresis.ss03" horiz-adv-x="754" 
d="M45 309q0 90 28.5 164.5t78.5 127t119 82t150 29.5q65 0 118.5 -25t91 -68.5t58 -102.5t20.5 -125q0 -90 -29 -164.5t-79.5 -127t-120.5 -81.5t-151 -29q-65 0 -117.5 25t-89.5 67.5t-57 101.5t-20 126zM195 310q0 -80 39.5 -132.5t116.5 -52.5q50 0 89.5 21.5t66 57.5
t40.5 85t14 103q0 78 -39 131t-114 53q-51 0 -91 -21.5t-67 -57.5t-41 -84.5t-14 -102.5zM453 742l21 149h158l-21 -149h-158zM243 742l21 149h158l-21 -149h-158z" />
    <glyph glyph-name="Udieresis.ss03" horiz-adv-x="704" 
d="M503 306l56 394h148l-55 -389q-22 -160 -108.5 -241t-220.5 -81q-67 0 -120 22.5t-87 65.5t-47.5 106t-2.5 143l53 374h148l-56 -396q-10 -75 18 -127t103 -52q76 0 117.5 48.5t53.5 132.5zM430 742l21 149h158l-21 -149h-158zM220 742l21 149h158l-21 -149h-158z" />
    <glyph glyph-name="Ydieresis.ss03" horiz-adv-x="625" 
d="M217 700l103 -294l186 294h167l-298 -455l-35 -245h-147l35 245l-168 455h157zM377 742l21 149h158l-21 -149h-158zM167 742l21 149h158l-21 -149h-158z" />
    <glyph glyph-name="agrave.ss03" horiz-adv-x="529" 
d="M179 -11q-73 0 -114.5 42.5t-41.5 98.5q0 70 46.5 110.5t141.5 52.5l108 13l2 14q4 24 -10 37.5t-39 13.5q-19 0 -37.5 -10t-24.5 -35h-143q14 81 73.5 128.5t143.5 47.5q41 0 76.5 -13.5t60 -38t36.5 -58.5t6 -75l-21 -157q-2 -17 2 -28.5t25 -11.5h17l-17 -119
l-20 -1.5t-37 -1.5q-39 0 -58.5 13.5t-26.5 38.5q-31 -31 -65 -46t-83 -15zM165 149q0 -16 12.5 -25.5t32.5 -9.5q40 0 63.5 22t30.5 65l1 6l-86 -13q-25 -4 -39.5 -14.5t-14.5 -30.5zM160 700h175l54 -142h-135z" />
    <glyph glyph-name="aacute.ss03" horiz-adv-x="529" 
d="M179 -11q-73 0 -114.5 42.5t-41.5 98.5q0 70 46.5 110.5t141.5 52.5l108 13l2 14q4 24 -10 37.5t-39 13.5q-19 0 -37.5 -10t-24.5 -35h-143q14 81 73.5 128.5t143.5 47.5q41 0 76.5 -13.5t60 -38t36.5 -58.5t6 -75l-21 -157q-2 -17 2 -28.5t25 -11.5h17l-17 -119
l-20 -1.5t-37 -1.5q-39 0 -58.5 13.5t-26.5 38.5q-31 -31 -65 -46t-83 -15zM165 149q0 -16 12.5 -25.5t32.5 -9.5q40 0 63.5 22t30.5 65l1 6l-86 -13q-25 -4 -39.5 -14.5t-14.5 -30.5zM314 700h177l-140 -142h-139z" />
    <glyph glyph-name="acircumflex.ss03" horiz-adv-x="529" 
d="M179 -11q-73 0 -114.5 42.5t-41.5 98.5q0 70 46.5 110.5t141.5 52.5l108 13l2 14q4 24 -10 37.5t-39 13.5q-19 0 -37.5 -10t-24.5 -35h-143q14 81 73.5 128.5t143.5 47.5q41 0 76.5 -13.5t60 -38t36.5 -58.5t6 -75l-21 -157q-2 -17 2 -28.5t25 -11.5h17l-17 -119
l-20 -1.5t-37 -1.5q-39 0 -58.5 13.5t-26.5 38.5q-31 -31 -65 -46t-83 -15zM165 149q0 -16 12.5 -25.5t32.5 -9.5q40 0 63.5 22t30.5 65l1 6l-86 -13q-25 -4 -39.5 -14.5t-14.5 -30.5zM247 700h163l71 -142h-118l-42 59l-57 -59h-128z" />
    <glyph glyph-name="atilde.ss03" horiz-adv-x="529" 
d="M179 -11q-73 0 -114.5 42.5t-41.5 98.5q0 70 46.5 110.5t141.5 52.5l108 13l2 14q4 24 -10 37.5t-39 13.5q-19 0 -37.5 -10t-24.5 -35h-143q14 81 73.5 128.5t143.5 47.5q41 0 76.5 -13.5t60 -38t36.5 -58.5t6 -75l-21 -157q-2 -17 2 -28.5t25 -11.5h17l-17 -119
l-20 -1.5t-37 -1.5q-39 0 -58.5 13.5t-26.5 38.5q-31 -31 -65 -46t-83 -15zM165 149q0 -16 12.5 -25.5t32.5 -9.5q40 0 63.5 22t30.5 65l1 6l-86 -13q-25 -4 -39.5 -14.5t-14.5 -30.5zM403 700h96q-7 -48 -39 -86.5t-78 -38.5q-13 0 -28 4t-31 9l-25 8q-7 2 -14.5 3.5
t-14.5 1.5q-8 0 -18 -5t-13 -21h-96q7 49 39 87t78 38q13 0 28 -3.5t31 -8.5l25 -8q7 -2 14.5 -4t14.5 -2q8 0 18 5.5t13 20.5z" />
    <glyph glyph-name="adieresis.ss03" horiz-adv-x="529" 
d="M179 -11q-73 0 -114.5 42.5t-41.5 98.5q0 70 46.5 110.5t141.5 52.5l108 13l2 14q4 24 -10 37.5t-39 13.5q-19 0 -37.5 -10t-24.5 -35h-143q14 81 73.5 128.5t143.5 47.5q41 0 76.5 -13.5t60 -38t36.5 -58.5t6 -75l-21 -157q-2 -17 2 -28.5t25 -11.5h17l-17 -119
l-20 -1.5t-37 -1.5q-39 0 -58.5 13.5t-26.5 38.5q-31 -31 -65 -46t-83 -15zM165 149q0 -16 12.5 -25.5t32.5 -9.5q40 0 63.5 22t30.5 65l1 6l-86 -13q-25 -4 -39.5 -14.5t-14.5 -30.5zM319 551l21 149h158l-21 -149h-158zM109 551l21 149h158l-21 -149h-158z" />
    <glyph glyph-name="aring.ss03" horiz-adv-x="529" 
d="M179 -11q-73 0 -114.5 42.5t-41.5 98.5q0 70 46.5 110.5t141.5 52.5l108 13l2 14q4 24 -10 37.5t-39 13.5q-19 0 -37.5 -10t-24.5 -35h-143q14 81 73.5 128.5t143.5 47.5q41 0 76.5 -13.5t60 -38t36.5 -58.5t6 -75l-21 -157q-2 -17 2 -28.5t25 -11.5h17l-17 -119
l-20 -1.5t-37 -1.5q-39 0 -58.5 13.5t-26.5 38.5q-31 -31 -65 -46t-83 -15zM165 149q0 -16 12.5 -25.5t32.5 -9.5q40 0 63.5 22t30.5 65l1 6l-86 -13q-25 -4 -39.5 -14.5t-14.5 -30.5zM227 621q0 43 34.5 75t77.5 32q37 0 61.5 -25t24.5 -61q0 -46 -33 -76t-80 -30
q-37 0 -61 25t-24 60zM350 634q0 9 -6 15t-15 6q-10 0 -19 -7.5t-9 -19.5q0 -9 6 -15t15 -6q10 0 19 7.5t9 19.5z" />
    <glyph glyph-name="ae.ss03" horiz-adv-x="821" 
d="M573 377q-38 0 -65 -21t-38 -52h176q2 31 -18 52t-55 21zM431 440q33 31 74 46.5t83 15.5q52 0 90.5 -18.5t63.5 -48.5t37 -69.5t12 -80.5q0 -26 -5 -51l-5 -25h-332q1 -38 26 -64t72 -26q38 0 70 14.5t58 42.5l81 -88q-37 -40 -91 -69.5t-132 -29.5q-56 0 -100.5 19.5
t-72.5 55.5q-31 -38 -76.5 -56.5t-94.5 -18.5q-81 0 -123.5 42.5t-42.5 98.5q0 70 46.5 110.5t141.5 52.5l108 13l2 14q4 24 -10 37.5t-39 13.5q-19 0 -37.5 -10t-24.5 -35h-143q14 81 73.5 128.5t143.5 47.5q46 0 84.5 -16.5t62.5 -45.5zM165 149q0 -16 12.5 -25.5
t32.5 -9.5q40 0 63.5 22t30.5 65l1 6l-86 -13q-25 -4 -39.5 -14.5t-14.5 -30.5z" />
    <glyph glyph-name="edieresis.ss03" horiz-adv-x="547" 
d="M510 209h-333q2 -35 26 -62.5t71 -27.5q37 0 69 15.5t59 41.5l83 -90q-37 -40 -92.5 -68.5t-133.5 -28.5q-50 0 -91.5 17.5t-71 48t-46 73t-16.5 92.5q0 61 21.5 113t58.5 89.5t87.5 58.5t109.5 21q53 0 92 -19t64 -50t37.5 -71t12.5 -81q0 -26 -3.5 -49zM298 377
q-40 0 -67 -21.5t-37 -51.5h179q1 31 -19.5 52t-55.5 21zM336 551l21 149h158l-21 -149h-158zM126 551l21 149h158l-21 -149h-158z" />
    <glyph glyph-name="idieresis.ss03" horiz-adv-x="279" 
d="M33 0l69 490h143l-69 -490h-143zM201 551l21 149h158l-21 -149h-158zM-9 551l21 149h158l-21 -149h-158z" />
    <glyph glyph-name="odieresis.ss03" horiz-adv-x="588" 
d="M33 220q0 61 23.5 113t63 89.5t93.5 58.5t114 21q50 0 92.5 -18.5t72.5 -50t47 -74.5t17 -91q0 -61 -23.5 -112.5t-63 -88t-93.5 -57.5t-114 -21q-50 0 -92 18t-72.5 49t-47.5 73.5t-17 90.5zM179 227q0 -46 27 -76t71 -30q54 0 93.5 41t39.5 101q0 46 -27 76t-71 30
q-54 0 -93.5 -41t-39.5 -101zM364 551l21 149h158l-21 -149h-158zM154 551l21 149h158l-21 -149h-158z" />
    <glyph glyph-name="udieresis.ss03" horiz-adv-x="560" 
d="M365 239l35 251h144l-69 -490h-140l5 34q-26 -23 -60 -34t-69 -11q-85 0 -125.5 61t-25.5 165l39 275h142l-39 -279q-5 -40 10 -65.5t53 -25.5q46 0 69 31.5t31 87.5zM358 551l21 149h158l-21 -149h-158zM148 551l21 149h158l-21 -149h-158z" />
    <glyph glyph-name="yacute.ss03" horiz-adv-x="557" 
d="M156 -22l15 27l-121 485h153l67 -304l157 304h157l-300 -555q-18 -32 -37 -58t-45 -44t-60.5 -28t-82.5 -10q-17 0 -31 0.5l-14 0.5l18 131l9 -0.5t18 -0.5q44 0 62 10.5t35 41.5zM325 700h177l-140 -142h-139z" />
    <glyph glyph-name="ydieresis.ss03" horiz-adv-x="557" 
d="M156 -22l15 27l-121 485h153l67 -304l157 304h157l-300 -555q-18 -32 -37 -58t-45 -44t-60.5 -28t-82.5 -10q-17 0 -31 0.5l-14 0.5l18 131l9 -0.5t18 -0.5q44 0 62 10.5t35 41.5zM350 551l21 149h158l-21 -149h-158zM140 551l21 149h158l-21 -149h-158z" />
    <glyph glyph-name="dieresis.ss03" horiz-adv-x="500" 
d="M265 551l21 149h158l-21 -149h-158zM55 551l21 149h158l-21 -149h-158z" />
    <glyph glyph-name="comma.ss03" horiz-adv-x="281" 
d="M22 0l21 146h151l-19 -126q-12 -81 -53 -119t-120 -45l10 69q29 4 53.5 22.5t29.5 52.5h-73z" />
    <glyph glyph-name="semicolon.ss03" horiz-adv-x="280" 
d="M22 0l21 146h151l-19 -126q-12 -81 -53 -119t-120 -45l10 69q29 4 53.5 22.5t29.5 52.5h-73zM75 334l22 156h151l-22 -156h-151z" />
    <glyph glyph-name="colon.ss03" horiz-adv-x="280" 
d="M28 0l22 156h151l-22 -156h-151zM75 334l22 156h151l-22 -156h-151z" />
    <glyph glyph-name="period.ss03" horiz-adv-x="280" 
d="M19 0l22 156h151l-22 -156h-151z" />
    <glyph glyph-name="ellipsis.ss03" horiz-adv-x="796" 
d="M19 0l22 156h151l-22 -156h-151zM277 0l22 156h151l-22 -156h-151zM535 0l22 156h151l-22 -156h-151z" />
    <glyph glyph-name="exclam.ss03" horiz-adv-x="335" 
d="M85 211l69 489h145l-69 -489h-145zM55 0l18 131h145l-18 -131h-145z" />
    <glyph glyph-name="exclamdown.ss03" horiz-adv-x="335" 
d="M239 279l-69 -490h-145l69 490h145zM269 490l-19 -131h-145l19 131h145z" />
    <glyph glyph-name="question.ss03" horiz-adv-x="551" 
d="M322 211h-145l3 18q9 58 31 98t71 73l34 23q37 25 60 44t23 51q0 29 -23 43t-51 14q-48 0 -77.5 -23t-38.5 -67h-146q7 50 30.5 92t59.5 72t83.5 46.5t100.5 16.5q46 0 85 -13t67.5 -37t44.5 -56.5t16 -71.5q0 -70 -38 -113.5t-95 -85.5l-26 -19q-37 -27 -50.5 -46
t-17.5 -52zM149 0l18 131h145l-18 -131h-145z" />
    <glyph glyph-name="questiondown.ss03" horiz-adv-x="551" 
d="M363 279h-145l-1 -7q-4 -33 -17.5 -49.5t-50.5 -43.5l-26 -19q-57 -42 -95 -83t-38 -111q0 -39 16 -71t44.5 -54t67.5 -34.5t85 -12.5q53 0 100.5 16.5t83.5 46.5t59.5 72t30.5 92h-146q-9 -44 -38.5 -67t-77.5 -23q-28 0 -51 11t-23 40q0 28 23 46.5t60 43.5l34 23
q49 33 71 70.5t31 95.5zM391 490l-18 -131h-145l18 131h145z" />
    <glyph glyph-name="quoteleft.ss03" horiz-adv-x="281" 
d="M250 561l-21 -146h-151l19 126q12 81 53 119t120 45l-10 -69q-30 -4 -54.5 -22.5t-28.5 -52.5h73z" />
    <glyph glyph-name="quoteright.ss03" horiz-adv-x="281" 
d="M102 554l21 146h151l-19 -126q-12 -81 -53 -119t-120 -45l10 69q29 3 53.5 21.5t29.5 53.5h-73z" />
    <glyph glyph-name="quotedblleft.ss03" horiz-adv-x="493" 
d="M250 561l-21 -146h-151l19 126q12 81 53 119t120 45l-10 -69q-30 -4 -54.5 -22.5t-28.5 -52.5h73zM462 561l-21 -146h-151l19 126q12 81 53 119t120 45l-10 -69q-30 -4 -54.5 -22.5t-28.5 -52.5h73z" />
    <glyph glyph-name="quotedblright.ss03" horiz-adv-x="493" 
d="M314 554l21 146h151l-19 -126q-12 -81 -53 -119t-120 -45l10 69q29 3 53.5 21.5t29.5 53.5h-73zM102 554l21 146h151l-19 -126q-12 -81 -53 -119t-120 -45l10 69q29 3 53.5 21.5t29.5 53.5h-73z" />
    <glyph glyph-name="quotesinglbase.ss03" horiz-adv-x="280" 
d="M32 0l21 146h151l-19 -126q-12 -81 -53 -119t-120 -45l10 69q29 4 53.5 22.5t29.5 52.5h-73z" />
    <glyph glyph-name="quotedblbase.ss03" horiz-adv-x="492" 
d="M32 0l21 146h151l-19 -126q-12 -81 -53 -119t-120 -45l10 69q29 4 53.5 22.5t29.5 52.5h-73zM244 0l21 146h151l-19 -126q-12 -81 -53 -119t-120 -45l10 69q29 4 53.5 22.5t29.5 52.5h-73z" />
    <glyph glyph-name="zero.ss03" horiz-adv-x="659" 
d="M465 423q0 71 -26.5 112t-77.5 41q-50 0 -82.5 -32t-51 -77.5t-26 -97t-7.5 -89.5q0 -72 26 -113.5t78 -41.5q49 0 81 33.5t51 80.5t27 98t8 86zM375 712q57 0 101.5 -22t74.5 -60t46 -91t16 -115q0 -76 -19.5 -153.5t-60 -140t-103 -102t-146.5 -39.5q-57 0 -102 21.5
t-75 59t-46 90.5t-16 115q0 77 20 155.5t60.5 140.5t103 101.5t146.5 39.5z" />
    <glyph glyph-name="one.ss03" horiz-adv-x="453" 
d="M155 0l67 479h-165l16 115q76 4 118.5 29t71.5 77h138l-98 -700h-148z" />
    <glyph glyph-name="two.ss03" horiz-adv-x="539" 
d="M315 576q-40 0 -67 -25.5t-36 -71.5h-149q8 56 32.5 99.5t60 73t79 45t89.5 15.5t84.5 -14.5t65.5 -39t42 -58.5t15 -72q0 -69 -42 -125t-129 -111l-89 -57q-28 -18 -52.5 -40.5t-36.5 -57.5h291l-19 -137h-466l3 23q7 54 23.5 102.5t46 92t76 85.5t113.5 83l40 25
q47 29 68.5 52t21.5 54q0 25 -18.5 42t-46.5 17z" />
    <glyph glyph-name="three.ss03" horiz-adv-x="593" 
d="M450 365q31 -16 55 -52.5t24 -89.5q0 -49 -19 -92t-54 -74.5t-85 -49.5t-110 -18q-54 0 -97.5 16.5t-72.5 45t-43.5 67t-13.5 81.5h149q1 -37 26.5 -55.5t63.5 -18.5q43 0 74.5 27.5t31.5 66.5q0 26 -20 47t-68 21h-77l19 138h46q67 0 92 27t25 63q0 30 -19.5 45.5
t-46.5 15.5q-25 0 -50 -14t-38 -53h-149q10 50 35.5 88t60 63.5t75.5 38.5t81 13t77.5 -12t65 -34.5t44.5 -55.5t17 -74q0 -60 -32 -106t-67 -65z" />
    <glyph glyph-name="four.ss03" horiz-adv-x="634" 
d="M580 148h-97l-21 -148h-148l21 148h-315l17 122l361 430h163l-60 -421h97zM199 279h154l32 224z" />
    <glyph glyph-name="five.ss03" horiz-adv-x="586" 
d="M405 243q0 41 -26 67.5t-75 26.5q-34 0 -66 -18t-49 -49h-137l78 430h433l-19 -137h-292l-28 -129q22 16 52.5 24.5t64.5 8.5q43 0 82 -15t68 -43t46.5 -68t17.5 -90q0 -59 -22.5 -107.5t-61.5 -82.5t-92.5 -53t-115.5 -19q-53 0 -96 16.5t-72.5 44.5t-45.5 66t-16 81
h147q5 -41 35.5 -57.5t61.5 -16.5q23 0 46 8t41 23.5t29.5 38t11.5 50.5z" />
    <glyph glyph-name="six.ss03" horiz-adv-x="627" 
d="M375 589q-24 0 -49 -10t-46 -31t-37.5 -54t-22.5 -80q24 22 59 36.5t78 14.5q45 0 84.5 -15.5t68.5 -43.5t45.5 -67t16.5 -86q0 -62 -23 -111t-61 -83t-89.5 -52t-108.5 -18q-110 0 -174.5 72.5t-64.5 198.5q0 88 20 170.5t61 144.5t105.5 99.5t151.5 37.5
q46 0 84.5 -14.5t66.5 -40t43 -60.5t13 -76h-141q0 32 -23.5 50t-56.5 18zM330 334q-45 0 -82.5 -31.5t-37.5 -85.5q0 -37 25 -65t70 -28q49 0 83 33t34 87q0 40 -24.5 65t-67.5 25z" />
    <glyph glyph-name="seven.ss03" horiz-adv-x="570" 
d="M58 563l20 137h512l-18 -129q-118 -107 -197 -240.5t-114 -290.5l-9 -40h-150l9 39q38 166 106 293t169 231h-328z" />
    <glyph glyph-name="eight.ss03" horiz-adv-x="622" 
d="M269 -11q-100 0 -163 55t-63 141q0 35 10.5 64t27 52t38 39t42.5 26q-25 19 -41.5 51.5t-16.5 71.5q0 50 20.5 91.5t55.5 70.5t83 45t102 16q49 0 89 -15.5t68.5 -42t44 -63t15.5 -77.5q0 -61 -31 -99.5t-65 -60.5q27 -18 48.5 -54t21.5 -81q0 -54 -21 -97t-58.5 -72
t-90.5 -45t-116 -16zM431 509q0 32 -24 49.5t-55 17.5q-37 0 -69 -22t-32 -63q0 -32 24.5 -49.5t55.5 -17.5q37 0 68.5 22.5t31.5 62.5zM193 199q0 -35 26.5 -54.5t69.5 -19.5q51 0 84.5 25t33.5 69q0 34 -26 54.5t-69 20.5q-50 0 -84.5 -26t-34.5 -69z" />
    <glyph glyph-name="nine.ss03" horiz-adv-x="614" 
d="M258 112q24 0 49 10t46 31t37.5 54t22.5 80q-24 -22 -59 -36.5t-78 -14.5q-45 0 -84.5 15.5t-68.5 43.5t-45.5 67t-16.5 86q0 62 23 111t61 83t89.5 52t108.5 18q110 0 174.5 -72.5t64.5 -198.5q0 -88 -20 -170.5t-61 -144.5t-105.5 -99.5t-151.5 -37.5q-46 0 -84.5 14.5
t-66.5 40t-43 60.5t-13 76h141q0 -32 23.5 -50t56.5 -18zM303 367q45 0 82.5 31.5t37.5 85.5q0 37 -25 65t-70 28q-49 0 -83 -33t-34 -87q0 -40 24.5 -65t67.5 -25z" />
    <glyph glyph-name="acute.cap" horiz-adv-x="500" 
d="M209 872h170l-107 -103h-151z" />
    <glyph glyph-name="caron.cap" horiz-adv-x="500" 
d="M323 769h-174l-72 103h130l32 -41l44 41h139z" />
    <glyph glyph-name="ring.cap" horiz-adv-x="500" 
d="M151 764q0 43 33 75t79 32q37 0 61.5 -25t24.5 -61q0 -46 -33.5 -76t-79.5 -30q-37 0 -61 25t-24 60zM274 777q0 9 -6 15t-15 6q-10 0 -18.5 -7.5t-8.5 -19.5q0 -9 5.5 -15t14.5 -6q10 0 19 7.5t9 19.5z" />
    <glyph glyph-name="grave.cap" horiz-adv-x="500" 
d="M138 872h163l60 -103h-144z" />
    <glyph glyph-name="circumflex.cap" horiz-adv-x="500" 
d="M177 872h174l71 -103h-138l-32 40l-44 -40h-131z" />
    <glyph glyph-name="zero.osf" horiz-adv-x="678" 
d="M304 -11q-52 0 -100 18t-84.5 51t-58 81t-21.5 107q0 73 29 131t76 98.5t107 62t122 21.5q52 0 100 -18.5t84.5 -52.5t58 -82.5t21.5 -108.5q0 -67 -26 -124t-71 -97.5t-106.5 -63.5t-130.5 -23zM360 422q-34 0 -65.5 -12.5t-54.5 -34.5t-37 -53t-14 -68q0 -57 36 -93
t93 -36q34 0 65.5 12.5t54.5 35t37 53.5t14 67q0 57 -36 93t-93 36z" />
    <glyph glyph-name="one.osf" horiz-adv-x="516" 
d="M27 137h160l32 226q-32 -20 -73.5 -32.5t-92.5 -12.5l18 133q54 2 104.5 23.5t82.5 72.5h135l-58 -410h151l-19 -137h-459z" />
    <glyph glyph-name="two.osf" horiz-adv-x="582" 
d="M205 137h317l-19 -137h-501l7 49q14 98 88.5 168t186.5 101l60 17q40 11 53.5 23.5t13.5 28.5q0 15 -15.5 25t-50.5 10q-24 0 -52.5 -7t-55.5 -18.5t-50.5 -27t-38.5 -33.5l-80 93q23 29 56 53t72 41t81.5 26.5t83.5 9.5q42 0 79 -11t64 -32t43 -51t16 -67
q0 -73 -50 -118.5t-147 -71.5l-63 -17q-34 -10 -63 -22.5t-35 -31.5z" />
    <glyph glyph-name="three.osf" horiz-adv-x="545" 
d="M399 204q30 -19 54.5 -57t24.5 -89q0 -54 -22 -95.5t-60.5 -69.5t-90.5 -42.5t-111 -14.5q-75 0 -137.5 30t-102.5 86l105 93q31 -40 68 -56.5t80 -16.5q51 0 86.5 23.5t35.5 66.5q0 33 -29 52.5t-93 19.5h-58l20 138h47q75 0 106 25t31 62q0 28 -21.5 46t-60.5 18
q-44 0 -81 -16.5t-70 -51.5l-83 97q46 45 109.5 76t138.5 31q43 0 83 -12t70.5 -35.5t49 -58.5t18.5 -79q0 -68 -33.5 -106.5t-73.5 -63.5z" />
    <glyph glyph-name="four.osf" horiz-adv-x="628" 
d="M558 0h-91l-21 -153h-148l21 153h-309l17 122l354 425h163l-59 -416h91zM185 131h152l32 219z" />
    <glyph glyph-name="five.osf" horiz-adv-x="611" 
d="M414 88q0 41 -27.5 68.5t-73.5 27.5q-35 0 -65.5 -16.5t-49.5 -50.5h-137l77 430h433l-19 -137h-294l-24 -128q25 15 49 23.5t63 8.5q44 0 83.5 -16t69.5 -45t48 -69t18 -87q0 -61 -23.5 -109.5t-64 -82t-97 -51.5t-122.5 -18q-77 0 -134 32t-94 84l112 97
q22 -32 56 -54.5t83 -22.5q54 0 93.5 32.5t39.5 83.5z" />
    <glyph glyph-name="six.osf" horiz-adv-x="620" 
d="M299 -11q-113 0 -181 79.5t-68 215.5q0 95 26 174t72.5 135t112.5 87.5t144 31.5q66 0 118.5 -29t81.5 -69l-106 -96q-17 25 -47.5 41.5t-71.5 16.5q-61 0 -112 -48t-64 -127q29 29 70 46.5t91 17.5q44 0 83 -16.5t67.5 -45t45 -68.5t16.5 -87q0 -60 -23 -108.5
t-61 -81.5t-89 -51t-105 -18zM428 243q0 40 -25.5 65t-66.5 25q-49 0 -85 -33t-36 -84q0 -40 25.5 -65.5t66.5 -25.5q49 0 85 33.5t36 84.5z" />
    <glyph glyph-name="seven.osf" horiz-adv-x="575" 
d="M68 304l34 243h512l-18 -129q-118 -107 -197 -240.5t-114 -290.5l-9 -40h-150l9 39q38 166 106.5 293t169.5 231h-184l-15 -106h-144z" />
    <glyph glyph-name="eight.osf" horiz-adv-x="622" 
d="M280 -11q-100 0 -163 55t-63 141q0 35 10.5 64t27 52t38 39t42.5 26q-25 19 -41.5 51.5t-16.5 71.5q0 50 20.5 91.5t55.5 70.5t83 45t102 16q49 0 89 -15.5t68.5 -42t44 -63t15.5 -77.5q0 -61 -31 -99.5t-65 -60.5q27 -18 48.5 -54t21.5 -81q0 -54 -21 -97t-58.5 -72
t-90.5 -45t-116 -16zM442 509q0 32 -24 49.5t-55 17.5q-37 0 -69 -22t-32 -63q0 -32 24.5 -49.5t55.5 -17.5q37 0 68.5 22.5t31.5 62.5zM204 199q0 -35 26.5 -54.5t69.5 -19.5q51 0 84.5 25t33.5 69q0 34 -26 54.5t-69 20.5q-50 0 -84.5 -26t-34.5 -69z" />
    <glyph glyph-name="nine.osf" horiz-adv-x="620" 
d="M331 559q113 0 181 -79.5t68 -215.5q0 -95 -26 -174t-72.5 -135t-112.5 -87.5t-144 -31.5q-66 0 -118.5 29t-81.5 69l106 96q17 -25 47.5 -41.5t71.5 -16.5q61 0 112 48t64 127q-29 -29 -70 -46.5t-91 -17.5q-44 0 -83 16.5t-67.5 45t-45 68.5t-16.5 87q0 60 23 108.5
t61 81.5t89 51t105 18zM202 305q0 -40 25.5 -65t66.5 -25q49 0 85 33t36 84q0 40 -25.5 65.5t-66.5 25.5q-49 0 -85 -33.5t-36 -84.5z" />
    <glyph glyph-name="caron.alt" horiz-adv-x="500" 
d="M345 700l-86 -189h-105l54 189h137z" />
    <glyph glyph-name="revcommaaccent" horiz-adv-x="500" 
d="M288 563h-141l91 137h115z" />
    <glyph glyph-name="tilde.cap" horiz-adv-x="500" 
d="M332 894h96q-7 -48 -39 -86.5t-78 -38.5q-13 0 -28 4t-31 9l-25 8q-7 2 -14.5 3.5t-14.5 1.5q-8 0 -18 -5t-13 -21h-96q7 49 39 87t78 38q13 0 28 -3.5t31 -8.5l25 -8q7 -2 14.5 -4t14.5 -2q8 0 18 5.5t13 20.5z" />
    <glyph glyph-name="dieresis.cap" horiz-adv-x="500" 
d="M70 833q0 30 21 52t52 22q30 0 52 -22t22 -52q0 -31 -22 -52.5t-52 -21.5q-31 0 -52 21.5t-21 52.5zM283 833q0 30 21 52t52 22q30 0 52 -22t22 -52q0 -31 -22 -52.5t-52 -21.5q-31 0 -52 21.5t-21 52.5z" />
    <glyph glyph-name="macron.cap" horiz-adv-x="500" 
d="M133 886h250l-17 -117h-250z" />
    <glyph glyph-name="breve.cap" horiz-adv-x="500" 
d="M233 740q-62 0 -98 39.5t-31 108.5h106q-1 -15 6.5 -27.5t31.5 -12.5t35.5 12.5t15.5 27.5h106q-14 -69 -61.5 -108.5t-110.5 -39.5z" />
    <glyph glyph-name="hungarumlaut.cap" horiz-adv-x="500" 
d="M124 872h138l-82 -103h-128zM309 872h139l-82 -103h-129z" />
    <glyph glyph-name="dotaccent.cap" horiz-adv-x="500" 
d="M167 831q0 34 24 58.5t58 24.5t58.5 -24.5t24.5 -58.5t-24.5 -58t-58.5 -24t-58 24t-24 58z" />
    <glyph glyph-name="cedilla.cap" horiz-adv-x="500" 
d="M281 -137h-143l97 148h116l4 -11z" />
    <glyph glyph-name="ogonek.cap" horiz-adv-x="500" 
d="M242 5l100 -5q-36 -19 -53.5 -38t-17.5 -37q0 -15 13.5 -23t39.5 -8h4l-12 -83q-8 -1 -23 -3t-34 -2q-49 0 -75 21t-26 59q0 41 27 71t57 48z" />
    <glyph glyph-name="commaaccent.cap" horiz-adv-x="500" 
d="M212 -57h141l-91 -137h-115z" />
    <glyph glyph-name="cedilla.ss01" horiz-adv-x="500" 
d="M189 11h141l-21 -148h-140z" />
    <glyph glyph-name="cedilla.ss01.cap" horiz-adv-x="500" 
d="M189 11h141l-21 -148h-140z" />
    <glyph glyph-name="dotaccent.ss03" horiz-adv-x="500" 
d="M160 551l21 149h158l-21 -149h-158z" />
    <glyph glyph-name="dieresis.ss03.cap" horiz-adv-x="500" 
d="M265 742l21 149h158l-21 -149h-158zM55 742l21 149h158l-21 -149h-158z" />
    <glyph glyph-name="dotaccent.ss03.cap" horiz-adv-x="500" 
d="M160 742l21 149h158l-21 -149h-158z" />
    <glyph glyph-name="Eth.ss03" horiz-adv-x="680" 
d="M122 700h223q62 0 116 -19.5t93 -58t61.5 -96t22.5 -132.5q0 -98 -29.5 -172t-81 -123t-122.5 -74t-153 -25h-228l41 292h-73l18 131h73zM324 564h-73l-20 -141h116l-18 -131h-116l-22 -157h73q110 0 168.5 69t58.5 187q0 83 -42 128t-125 45z" />
    <glyph glyph-name="Dcroat.ss03" horiz-adv-x="680" 
d="M122 700h223q62 0 116 -19.5t93 -58t61.5 -96t22.5 -132.5q0 -98 -29.5 -172t-81 -123t-122.5 -74t-153 -25h-228l41 292h-73l18 131h73zM324 564h-73l-20 -141h116l-18 -131h-116l-22 -157h73q110 0 168.5 69t58.5 187q0 83 -42 128t-125 45z" />
    <glyph glyph-name="IJ.ss01" horiz-adv-x="1056" 
d="M103 564l20 136h348l-20 -136h-101l-60 -428h101l-19 -136h-348l19 136h100l60 428h-100zM696 564l19 136h338l-66 -465q-16 -119 -89.5 -182.5t-178.5 -63.5q-49 0 -89 17t-67 48t-39.5 74.5t-6.5 95.5l3 26h145l-3 -25q-6 -50 14.5 -75t58.5 -25q45 0 71.5 30.5
t34.5 86.5l45 322h-190z" />
    <glyph glyph-name="IJ.ss03" horiz-adv-x="846" 
d="M24 0l99 700h148l-99 -700h-148zM631 242l65 458h147l-65 -459q-16 -119 -87.5 -185.5t-176.5 -66.5q-107 0 -164.5 67t-42.5 173l3 21h147l-3 -21q-7 -52 13 -78t58 -26q45 0 71.5 30.5t34.5 86.5z" />
    <glyph glyph-name="Eng.ss02" horiz-adv-x="746" 
d="M378 -68h32q32 0 52.5 12.5t25.5 51.5l15 113l-273 301l-57 -410h-149l101 718h14l387 -430l59 412h148l-101 -722q-12 -88 -62.5 -135.5t-141.5 -47.5q-29 0 -49 1l-20 1z" />
    <glyph glyph-name="Oslash.ss03" horiz-adv-x="754" 
d="M45 309q0 90 28.5 164.5t78.5 127t119 82t150 29.5q42 0 79.5 -11t68.5 -30l58 69l87 -70l-65 -77q28 -41 44 -93t16 -109q0 -90 -29 -164.5t-79.5 -127t-120.5 -81.5t-151 -29q-44 0 -82.5 11.5t-69.5 31.5l-57 -68l-86 69l65 78q-26 40 -40 90.5t-14 107.5zM561 392
q0 22 -3 42.5t-10 38.5l-276 -329q16 -9 36 -14t43 -5q50 0 89.5 21.5t66 57.5t40.5 85t14 103zM195 310q0 -20 2.5 -39t7.5 -35l272 325q-15 7 -32.5 11t-36.5 4q-51 0 -91 -21.5t-67 -57.5t-41 -84.5t-14 -102.5z" />
    <glyph glyph-name="OE.ss03" horiz-adv-x="969" 
d="M863 0h-483q-68 0 -129.5 20t-107 60t-72 99.5t-26.5 137.5q0 88 33.5 159t90.5 120.5t132 76.5t157 27h503l-19 -137h-311l-20 -138h294l-19 -135h-294l-21 -153h311zM199 321q0 -78 47.5 -131t136.5 -53h39l60 426h-39q-55 0 -100.5 -19.5t-77 -52t-49 -77t-17.5 -93.5
z" />
    <glyph glyph-name="ae.ss02" horiz-adv-x="938" 
d="M901 209h-333q2 -35 26 -62.5t71 -27.5q37 0 69 15.5t59 41.5l83 -90q-37 -40 -89.5 -68.5t-126.5 -28.5q-38 0 -70.5 9t-58.5 30l-4 -28h-133l5 36q-23 -21 -59 -34t-84 -13q-52 0 -93.5 18.5t-70 50t-44 74.5t-15.5 92q0 62 24 113.5t63.5 88t92.5 56.5t111 20
q41 0 78.5 -13t55.5 -32l5 33h133l-4 -25q26 17 54 27t56 10q53 0 92 -19t64 -50t37.5 -71t12.5 -81q0 -26 -3.5 -49zM182 234q0 -44 26.5 -78t77.5 -34q34 0 60.5 12t45 32t28.5 45.5t10 51.5q0 44 -28.5 75.5t-80.5 31.5q-57 0 -98 -41t-41 -95zM689 377q-40 0 -67 -21.5
t-37 -51.5h179q1 31 -19.5 52t-55.5 21z" />
    <glyph glyph-name="hbar.ss01" horiz-adv-x="578" 
d="M47 530l18 128h53l6 42h142l-6 -42h163l-18 -128h-163l-5 -40h314l-69 -490h-143l50 359h-171l-50 -359h-142l74 530h-53z" />
    <glyph glyph-name="dotlessi.ss03" horiz-adv-x="279" 
d="M33 0l69 490h143l-69 -490h-143z" />
    <glyph glyph-name="dotlessj.ss01" horiz-adv-x="286" 
d="M163 -194h-249l18 130h106l78 554h143z" />
    <glyph glyph-name="dotlessj.ss03" horiz-adv-x="278" 
d="M40 -7l70 497h141l-72 -514q-12 -84 -60.5 -129.5t-135.5 -45.5q-28 0 -47 1l-19 1l18 130h31q31 0 50 11.5t24 48.5z" />
    <glyph glyph-name="i.TRK.ss03" horiz-adv-x="279" 
d="M33 0l69 490h143l-69 -490h-143zM113 565l19 135h143l-19 -135h-143z" />
    <glyph glyph-name="i.TRK" horiz-adv-x="279" 
d="M33 0l69 490h143l-69 -490h-143zM110 629q0 34 24 58.5t58 24.5t58.5 -24.5t24.5 -58.5t-24.5 -58t-58.5 -24t-58 24t-24 58z" />
    <glyph glyph-name="ij.ss01" horiz-adv-x="565" 
d="M33 0l69 490h143l-69 -490h-143zM110 629q0 34 24 58.5t58 24.5t58.5 -24.5t24.5 -58.5t-24.5 -58t-58.5 -24t-58 24t-24 58zM442 -194h-249l18 130h106l78 554h143zM403 629q0 34 24 58.5t58 24.5t58.5 -24.5t24.5 -58.5t-24.5 -58t-58.5 -24t-58 24t-24 58z" />
    <glyph glyph-name="kgreenlandic.ss01" horiz-adv-x="528" 
d="M26 0l69 490h144l-26 -181h43l111 181h161l-164 -253l100 -237h-146l-74 178h-49l-25 -178h-144z" />
    <glyph glyph-name="kgreenlandic.ss02" horiz-adv-x="519" 
d="M26 0l69 490h142l-23 -166l132 166h173l-207 -240l158 -250h-165l-111 186l-26 -186h-142z" />
    <glyph glyph-name="eng.ss01" horiz-adv-x="578" 
d="M95 490h456l-96 -684h-249l18 130h106l59 423h-171l-50 -359h-142z" />
    <glyph glyph-name="tbar.ss01" horiz-adv-x="428" 
d="M5 186l18 128h85l6 45h-84l18 131h84l20 137h154l-20 -137h128l-18 -131h-140l-7 -45h141l-18 -128h-141l-7 -55h140l-18 -131h-282l26 186h-85z" />
    <glyph glyph-name="Euro.osf" horiz-adv-x="710" 
d="M513 376h-224l-4 -25l-3 -22h223l-17 -122h-193q15 -38 45.5 -60t79.5 -22q50 0 84 17t65 48l83 -106q-54 -50 -115 -72.5t-127 -22.5q-116 0 -183 60.5t-85 157.5h-87l17 122h64q1 7 2 15t2 15q0 4 0.5 8.5t1.5 8.5h-62l17 122h80q43 99 124 156.5t191 57.5
q80 0 135.5 -30t88.5 -73l-105 -94q-24 31 -55 46t-76 15q-47 0 -83 -21t-61 -57h194z" />
    <glyph glyph-name="dollar.osf" horiz-adv-x="644" 
d="M457 815l-16 -112q62 -13 108.5 -42.5t74.5 -63.5l-109 -99q-17 21 -41 37.5t-52 26.5l-21 -145q100 -19 148.5 -70.5t48.5 -129.5q0 -93 -69 -155t-188 -71l-14 -105h-111l15 109q-72 13 -128.5 48t-88.5 80l108 97q25 -31 57 -54t72 -33l22 160l-8 2q-86 19 -134.5 68
t-48.5 127q0 50 20.5 89.5t54.5 67.5t79 44t95 20l15 104h111zM448 208q0 20 -16 35.5t-52 25.5l-19 -140q41 8 64 29.5t23 49.5zM232 500q0 -19 14 -34.5t48 -25.5l18 133q-37 -6 -58.5 -25.5t-21.5 -47.5z" />
    <glyph glyph-name="cent.osf" horiz-adv-x="537" 
d="M407 184l86 -96q-39 -40 -82.5 -64t-94.5 -31l-15 -107h-110l15 110q-79 18 -126 81.5t-47 148.5q0 55 18.5 102.5t51 82.5t77.5 58t97 30l15 105h110l-15 -109q44 -10 78.5 -33t59.5 -55l-108 -93q-10 14 -22.5 25t-27.5 18l-32 -226q19 7 37 20.5t35 32.5zM179 229
q0 -31 12.5 -55t34.5 -37l31 218q-34 -16 -56 -49.5t-22 -76.5z" />
    <glyph glyph-name="sterling.osf" horiz-adv-x="654" 
d="M461 301h-147l13 -162h123l15 110h133l-35 -249h-534l20 139h128l-13 162h-93l17 122h68v4q0 76 25.5 130t64.5 88.5t87 50.5t92 16q87 0 138 -34t76 -77l-111 -98q-18 28 -45.5 50.5t-67.5 22.5q-52 0 -81 -38.5t-29 -92.5v-22h173z" />
    <glyph glyph-name="florin.osf" horiz-adv-x="427" 
d="M-24 -205q-17 0 -27 0.5l-10 0.5l19 135h24q48 0 70.5 16.5t27.5 53.5l50 358h-64l18 131h64l4 26q16 101 82 148.5t161 47.5q17 0 27 -0.5l10 -0.5l-19 -134h-24q-48 0 -71 -17t-27 -54l-2 -16h108l-18 -131h-109l-51 -369q-14 -99 -81.5 -147t-161.5 -48z" />
    <glyph glyph-name="yen.osf" horiz-adv-x="670" 
d="M222 110h-162l17 122h162l7 47h-162l17 122h103l-131 299h162l103 -294l186 294h162l-208 -299h100l-17 -122h-168l-7 -47h168l-17 -122h-168l-15 -110h-147z" />
    <glyph glyph-name="zero.to" 
d="M260 -11q-102 0 -166 65.5t-64 176.5q0 74 24.5 135t66.5 103.5t99 66t120 23.5q102 0 166 -66t64 -176q0 -74 -24.5 -135t-66.5 -103.5t-99 -66t-120 -23.5zM321 422q-63 0 -102.5 -50.5t-39.5 -124.5q0 -54 26 -88t74 -34q63 0 102 50.5t39 125.5q0 53 -25.5 87
t-73.5 34z" />
    <glyph glyph-name="one.to" 
d="M59 137h160l32 226q-32 -20 -73.5 -32.5t-92.5 -12.5l18 133q54 2 104.5 23.5t82.5 72.5h135l-58 -410h151l-19 -137h-459z" />
    <glyph glyph-name="two.to" 
d="M202 137h317l-19 -137h-501l7 49q14 98 88.5 168t186.5 101l60 17q40 11 53.5 23.5t13.5 28.5q0 15 -15.5 25t-50.5 10q-24 0 -52.5 -7t-55.5 -18.5t-50.5 -27t-38.5 -33.5l-80 93q23 29 56 53t72 41t81.5 26.5t83.5 9.5q42 0 79 -11t64 -32t43 -51t16 -67
q0 -73 -50 -118.5t-147 -71.5l-63 -17q-34 -10 -63 -22.5t-35 -31.5z" />
    <glyph glyph-name="three.to" 
d="M459 204q30 -19 54.5 -57t24.5 -89q0 -54 -22 -95.5t-60.5 -69.5t-90.5 -42.5t-111 -14.5q-75 0 -137.5 30t-102.5 86l105 93q31 -40 68 -56.5t80 -16.5q51 0 86.5 23.5t35.5 66.5q0 33 -29 52.5t-93 19.5h-58l20 138h47q75 0 106 25t31 62q0 28 -21.5 46t-60.5 18
q-44 0 -81 -16.5t-70 -51.5l-83 97q46 45 109.5 76t138.5 31q43 0 83 -12t70.5 -35.5t49 -58.5t18.5 -79q0 -68 -33.5 -106.5t-73.5 -63.5z" />
    <glyph glyph-name="four.to" 
d="M548 0h-91l-21 -153h-148l21 153h-309l17 122l354 425h163l-59 -416h91zM175 131h152l32 219z" />
    <glyph glyph-name="five.to" 
d="M413 88q0 41 -27.5 68.5t-73.5 27.5q-35 0 -65.5 -16.5t-49.5 -50.5h-137l77 430h433l-19 -137h-294l-24 -128q25 15 49 23.5t63 8.5q44 0 83.5 -16t69.5 -45t48 -69t18 -87q0 -61 -23.5 -109.5t-64 -82t-97 -51.5t-122.5 -18q-77 0 -134 32t-94 84l112 97
q22 -32 56 -54.5t83 -22.5q54 0 93.5 32.5t39.5 83.5z" />
    <glyph glyph-name="six.to" 
d="M271 -11q-113 0 -181 79.5t-68 215.5q0 95 26 174t72.5 135t112.5 87.5t144 31.5q66 0 118.5 -29t81.5 -69l-106 -96q-17 25 -47.5 41.5t-71.5 16.5q-61 0 -112 -48t-64 -127q29 29 70 46.5t91 17.5q44 0 83 -16.5t67.5 -45t45 -68.5t16.5 -87q0 -60 -23 -108.5
t-61 -81.5t-89 -51t-105 -18zM400 243q0 40 -25.5 65t-66.5 25q-49 0 -85 -33t-36 -84q0 -40 25.5 -65.5t66.5 -25.5q49 0 85 33.5t36 84.5z" />
    <glyph glyph-name="seven.to" 
d="M47 304l34 243h512l-18 -129q-118 -107 -197 -240.5t-114 -290.5l-9 -40h-150l9 39q38 166 106.5 293t169.5 231h-184l-15 -106h-144z" />
    <glyph glyph-name="eight.to" 
d="M257 -11q-100 0 -163 55t-63 141q0 35 10.5 64t27 52t38 39t42.5 26q-25 19 -41.5 51.5t-16.5 71.5q0 50 20.5 91.5t55.5 70.5t83 45t102 16q49 0 89 -15.5t68.5 -42t44 -63t15.5 -77.5q0 -61 -31 -99.5t-65 -60.5q27 -18 48.5 -54t21.5 -81q0 -54 -21 -97t-58.5 -72
t-90.5 -45t-116 -16zM419 509q0 32 -24 49.5t-55 17.5q-37 0 -69 -22t-32 -63q0 -32 24.5 -49.5t55.5 -17.5q37 0 68.5 22.5t31.5 62.5zM181 199q0 -35 26.5 -54.5t69.5 -19.5q51 0 84.5 25t33.5 69q0 34 -26 54.5t-69 20.5q-50 0 -84.5 -26t-34.5 -69z" />
    </font>
</defs>
</svg>
