<svg xmlns="http://www.w3.org/2000/svg" xmlns:xlink="http://www.w3.org/1999/xlink" width="669.492" height="310.101" viewBox="0 0 669.492 310.101">
  <defs>
    <clipPath id="clip-path">
      <path id="Path_28" data-name="Path 28" d="M0,208.713H669.492v-310.1H0Z" transform="translate(69.531 101.388)" fill="none"/>
    </clipPath>
  </defs>
  <g id="Group_64" data-name="Group 64" transform="translate(-69.531)">
    <g id="Group_27" data-name="Group 27" transform="translate(0 0)" clip-path="url(#clip-path)">
      <g id="Group_23" data-name="Group 23" transform="translate(69.651 -0.001)">
        <path id="Path_24" data-name="Path 24" d="M10.76,1.5H-5.227V128.786h72.65V114.824H10.76Zm81.957,0V82.85q0,23.88,13.051,36.021t35.213,12.142q22.159,0,35.311-12.142T189.447,82.85V1.5H173.46V82.85q0,17.81-8.9,25.7t-23.474,7.891q-14.571,0-23.474-7.891t-8.9-25.7V1.5Zm140.843,0V128.786h16.189V25.175L313.9,128.786h17.81V1.5H315.722v102.2L252.585,1.5ZM383.717,16.372q-15.177,17.1-15.18,47.658T383.209,112.8q14.672,18.214,38.452,18.214T459.1,119.274q13.658-11.731,13.66-31.769h-17.2q0,13.158-8.8,21.147t-23.982,7.992q-18.209,0-27.622-14.366t-9.411-38.146q0-23.779,10.524-37.134t26.508-13.357a31,31,0,0,1,20.138,6.983q8.6,6.978,12.647,18.92l17.2-3.441a51.817,51.817,0,0,0-17.1-26.612Q443.21-.722,422.772-.728q-23.88,0-39.055,17.1M508.778,1.5V128.786h15.987V71.316h62.529v57.47h15.987V1.5H587.294V57.553H524.765V1.5Z" transform="translate(5.227 0.728)" fill="#fff"/>
      </g>
      <g id="Group_24" data-name="Group 24" transform="translate(168.184 167.388)">
        <path id="Path_25" data-name="Path 25" d="M10.76,0H-5.227V127.288h72.65V113.326H10.76ZM95.347,127.288h78.314V113.326H111.334V70.019h58.684V56.461H111.334V13.76h62.327V0H95.347Zm104.823,0h16.8L227.9,94.91h50.592l10.928,32.378h16.593L263.311,0H243.883ZM253.4,19.63l21.046,62.734h-42.3Zm161.586-9.31Q403.549,0,382.1,0H337.781V127.288h15.987V75.28h22.26l32.986,52.008h20.639L393.229,74.47q16.392-2.831,24.79-12.546t8.4-25.5q0-15.787-11.436-26.108M353.768,64.15V13.76H382.1q13.552,0,20.743,6.781t7.181,18.211q0,11.437-7.386,18.416T380.885,64.15ZM467.494,0V127.288h16.189V23.676l64.15,103.612h17.81V0H549.656V102.2L486.518,0Z" transform="translate(5.227)" fill="#fff"/>
      </g>
      <g id="Group_26" data-name="Group 26" transform="translate(69.561 168.549)">
        <path id="Path_27" data-name="Path 27" d="M24.213,0s-6.194,0-6.194,6.411v23.37H-5.364s-6.4,0-6.4,6.194c0,0,0,6.194,6.4,6.194H18.019V65.551s0,6.42,6.194,6.42c0,0,6.2,0,6.2-6.42V42.168h23.38s6.4,0,6.4-6.194c0,0,0-6.194-6.4-6.194H30.409V6.411S30.409,0,24.213,0" transform="translate(11.762)" fill="#ffa35b"/>
      </g>
    </g>
  </g>
</svg>
