<svg id="Group_25" data-name="Group 25" xmlns="http://www.w3.org/2000/svg" width="211.074" height="211.117" viewBox="0 0 211.074 211.117">
  <path id="Path_26" data-name="Path 26" d="M79.936,3.7a.933.933,0,0,0,1.037-.789.885.885,0,0,0-.184-.679.882.882,0,0,0-.606-.355.928.928,0,0,0-1.037.786A.928.928,0,0,0,79.936,3.7M65.343,4.67l.174,0a.221.221,0,0,0,.153-.058.2.2,0,0,0,.058-.147L65.7,2.208l2.205-3.7a.286.286,0,0,0,.037-.119.174.174,0,0,0-.058-.128A.176.176,0,0,0,67.76-1.8l-.183,0a.243.243,0,0,0-.211.141L65.4,1.611,63.374-1.612a.245.245,0,0,0-.214-.138l-.184,0a.183.183,0,0,0-.132.055.186.186,0,0,0-.052.128.267.267,0,0,0,.04.122l2.282,3.655.024,2.254a.2.2,0,0,0,.055.147.211.211,0,0,0,.15.055m-10.277.765a2.794,2.794,0,0,0,1.318-.456,2.01,2.01,0,0,0,.713-.841,2.088,2.088,0,0,0,.177-.963.14.14,0,0,0-.064-.125.2.2,0,0,0-.147-.034l-.184.018a.2.2,0,0,0-.18.217,1.728,1.728,0,0,1-.5,1.171,2.163,2.163,0,0,1-1.2.465,1.817,1.817,0,0,1-1.392-.33,2.172,2.172,0,0,1-.685-1.431c-.028-.174-.061-.431-.1-.774s-.067-.593-.08-.762a2.2,2.2,0,0,1,.34-1.548A1.789,1.789,0,0,1,54.363-.6a2.12,2.12,0,0,1,1.269.174A1.737,1.737,0,0,1,56.391.6a.2.2,0,0,0,.226.168L56.8.749a.23.23,0,0,0,.132-.061.138.138,0,0,0,.04-.125V.541a2.084,2.084,0,0,0-.4-.893,1.993,1.993,0,0,0-.887-.655A2.814,2.814,0,0,0,54.3-1.148a2.271,2.271,0,0,0-1.7.881,2.819,2.819,0,0,0-.431,1.881c.015.168.043.443.089.823s.076.639.1.8A2.833,2.833,0,0,0,53.2,4.97a2.272,2.272,0,0,0,1.863.465M42.285,7.689l.162-.037a.2.2,0,0,0,.138-.086.215.215,0,0,0,.024-.159L41.465,2.462l4.465,4.276a.214.214,0,0,0,.211.064l.2-.046a.2.2,0,0,0,.147-.251L45.135.639A.215.215,0,0,0,45.047.5a.2.2,0,0,0-.165-.018l-.162.034a.189.189,0,0,0-.128.095A.214.214,0,0,0,44.57.77l1.144,4.958L41.239,1.437a.222.222,0,0,0-.214-.064l-.187.043a.183.183,0,0,0-.132.092.214.214,0,0,0-.018.159l1.355,5.872a.2.2,0,0,0,.089.132.186.186,0,0,0,.153.018m-9.7,3.031,3.459-1.208a.218.218,0,0,0,.122-.1.184.184,0,0,0,.009-.156l-.046-.132a.21.21,0,0,0-.1-.132.219.219,0,0,0-.165,0l-3.1,1.083-.8-2.3,2.841-.994a.209.209,0,0,0,.125-.1.191.191,0,0,0,.006-.159l-.046-.128a.21.21,0,0,0-.1-.132.219.219,0,0,0-.165,0l-2.838.994L31,5.034l3.028-1.058a.211.211,0,0,0,.125-.1.18.18,0,0,0,.009-.159l-.046-.132a.2.2,0,0,0-.1-.128.194.194,0,0,0-.165,0L30.457,4.636a.2.2,0,0,0-.119.107.212.212,0,0,0,0,.162l1.988,5.689a.19.19,0,0,0,.1.119.2.2,0,0,0,.156.006m-8.09,3.505a2.693,2.693,0,0,0,1.07-.856,2.087,2.087,0,0,0,.395-1.156,2.7,2.7,0,0,0-.291-1.3l-.346-.731a.21.21,0,0,0-.119-.116.2.2,0,0,0-.165.018l-1.777.844a.2.2,0,0,0-.092.278l.055.116a.2.2,0,0,0,.113.113.2.2,0,0,0,.162-.006l1.444-.688.2.422a1.866,1.866,0,0,1,.147,1.529,1.939,1.939,0,0,1-1.034,1.034,1.887,1.887,0,0,1-1.422.156,2.032,2.032,0,0,1-1.1-1.095c-.086-.162-.208-.41-.364-.74s-.275-.584-.349-.752a2.036,2.036,0,0,1-.15-1.551,1.851,1.851,0,0,1,1.012-1,1.959,1.959,0,0,1,1.226-.22,1.64,1.64,0,0,1,.9.483.389.389,0,0,0,.128.1.168.168,0,0,0,.125-.021L24.441,9a.2.2,0,0,0,.107-.1.164.164,0,0,0,0-.132l-.009-.018a1.545,1.545,0,0,0-.557-.523,2.216,2.216,0,0,0-1.018-.284,2.7,2.7,0,0,0-1.315.3,2.355,2.355,0,0,0-1.327,1.367,2.583,2.583,0,0,0,.156,1.89c.076.168.2.434.367.8s.3.621.385.786a2.587,2.587,0,0,0,1.37,1.312,2.338,2.338,0,0,0,1.9-.168m-12.433.04,3.086,2.364-2.4,1.465Zm.8,6.288.159-.095a.209.209,0,0,0,.092-.11.25.25,0,0,0,.009-.113l-.275-1.557,2.783-1.691,1.251.963a.313.313,0,0,0,.107.043.191.191,0,0,0,.138-.031l.159-.095a.181.181,0,0,0,.08-.113.186.186,0,0,0-.018-.141l-.067-.076L12.18,13.644a.267.267,0,0,0-.324-.018l-.266.162a.271.271,0,0,0-.135.294l1.113,6.313.037.095a.173.173,0,0,0,.116.083.17.17,0,0,0,.135-.018M2.184,26.168a.89.89,0,0,0,.324-.624.912.912,0,0,0-.832-1,.912.912,0,0,0-1,.832.912.912,0,0,0,.832,1,.9.9,0,0,0,.673-.208M-7.141,37.837a2.727,2.727,0,0,0,.658-1.205,2.1,2.1,0,0,0-.08-1.22,2.785,2.785,0,0,0-.768-1.086l-.6-.541a.214.214,0,0,0-.153-.061.21.21,0,0,0-.147.08l-1.315,1.465a.176.176,0,0,0-.052.147.2.2,0,0,0,.073.144l.1.086a.2.2,0,0,0,.147.061.178.178,0,0,0,.144-.07l1.07-1.193.349.318a1.881,1.881,0,0,1,.725,1.355,1.942,1.942,0,0,1-.56,1.352,1.866,1.866,0,0,1-1.248.688,2.053,2.053,0,0,1-1.444-.581c-.141-.119-.349-.3-.621-.547s-.477-.434-.612-.56a2.04,2.04,0,0,1-.734-1.37,1.873,1.873,0,0,1,.551-1.318,1.957,1.957,0,0,1,1.049-.673,1.643,1.643,0,0,1,1.012.1.34.34,0,0,0,.159.043.151.151,0,0,0,.107-.064l.135-.15a.192.192,0,0,0,.058-.132.146.146,0,0,0-.052-.122l-.012-.012a1.551,1.551,0,0,0-.719-.269,2.236,2.236,0,0,0-1.049.128,2.7,2.7,0,0,0-1.1.783,2.355,2.355,0,0,0-.7,1.771,2.6,2.6,0,0,0,.875,1.688c.132.125.346.324.642.59s.517.459.658.575a2.564,2.564,0,0,0,1.771.688,2.372,2.372,0,0,0,1.685-.884m-8.1,10.173.095-.135a.2.2,0,0,0,.043-.156.184.184,0,0,0-.086-.132l-4.144-2.936,6.178.226a.231.231,0,0,0,.2-.095l.116-.165a.184.184,0,0,0,.037-.156.228.228,0,0,0-.092-.132L-17.8,40.853a.205.205,0,0,0-.159-.046.222.222,0,0,0-.135.095l-.1.135a.213.213,0,0,0-.037.156.21.21,0,0,0,.092.132l4.154,2.942-6.2-.229a.231.231,0,0,0-.2.095l-.11.156a.188.188,0,0,0-.037.156.19.19,0,0,0,.092.132l4.918,3.484a.191.191,0,0,0,.15.04.177.177,0,0,0,.132-.089m-3.731,5.958.089-.153a.206.206,0,0,0,.028-.156.2.2,0,0,0-.1-.119l-5.209-3.052a.2.2,0,0,0-.153-.028.188.188,0,0,0-.122.1l-.089.15a.2.2,0,0,0-.028.153.214.214,0,0,0,.1.122l5.209,3.052a.208.208,0,0,0,.156.028.192.192,0,0,0,.122-.1M-24.3,63.134l-4.836-2.257.651-1.392a2.092,2.092,0,0,1,1.08-1.2,2.149,2.149,0,0,1,1.569.2c.168.073.376.168.621.281s.456.217.621.3a3.131,3.131,0,0,1,.966.682,1.21,1.21,0,0,1,.309.82,2.769,2.769,0,0,1-.312,1.132Zm.343.575.847-1.817a3.455,3.455,0,0,0,.385-1.456,1.588,1.588,0,0,0-.4-1.043,3.789,3.789,0,0,0-1.181-.832c-.165-.086-.385-.19-.664-.318s-.492-.229-.661-.3a3.786,3.786,0,0,0-1.361-.358,1.644,1.644,0,0,0-1.08.37,3.393,3.393,0,0,0-.893,1.254l-.829,1.774a.183.183,0,0,0-.009.159.221.221,0,0,0,.113.116l5.463,2.548a.188.188,0,0,0,.156.012.2.2,0,0,0,.113-.11m-3.869,10.31.052-.159a.2.2,0,0,0,0-.159.185.185,0,0,0-.119-.1l-4.817-1.618,5.983-1.563a.223.223,0,0,0,.165-.15l.064-.19a.189.189,0,0,0-.012-.159.2.2,0,0,0-.125-.1l-5.7-1.918a.233.233,0,0,0-.165,0,.221.221,0,0,0-.1.132l-.052.156a.191.191,0,0,0,.012.159.2.2,0,0,0,.125.1l4.823,1.621-6,1.566a.225.225,0,0,0-.165.147l-.061.184a.18.18,0,0,0,.009.159.22.22,0,0,0,.125.1l5.713,1.918a.2.2,0,0,0,.156-.006.19.19,0,0,0,.1-.119m-7.885,7.243,3.842-.6-.606,2.75Zm5.1,3.768.04-.18a.2.2,0,0,0-.018-.141.23.23,0,0,0-.073-.086l-1.315-.875.7-3.181,1.56-.239a.392.392,0,0,0,.1-.049.2.2,0,0,0,.073-.122l.04-.177a.192.192,0,0,0-.024-.141.192.192,0,0,0-.116-.08l-.1-.006-6.334.994a.26.26,0,0,0-.236.22l-.067.3a.269.269,0,0,0,.122.3l5.331,3.557.095.04a.184.184,0,0,0,.138-.028.169.169,0,0,0,.083-.113m-4.594,9.118-2.6-.284.187-1.713A1.828,1.828,0,0,1-37.161,91a1.2,1.2,0,0,1,1.015-.281,1.192,1.192,0,0,1,.93.5,1.812,1.812,0,0,1,.2,1.217Zm3.215.731.018-.165a.221.221,0,0,0-.037-.156.2.2,0,0,0-.141-.076l-2.5-.272.2-1.887,2.618-1.184a.721.721,0,0,0,.2-.122.292.292,0,0,0,.08-.2l.015-.11a.187.187,0,0,0-.043-.135.172.172,0,0,0-.122-.067.268.268,0,0,0-.1.015l-2.667,1.2a1.792,1.792,0,0,0-.486-1.089,1.816,1.816,0,0,0-1.126-.486,1.722,1.722,0,0,0-1.444.407,2.362,2.362,0,0,0-.636,1.5l-.232,2.132a.187.187,0,0,0,.043.153.217.217,0,0,0,.147.07l5.989.655a.185.185,0,0,0,.153-.037.2.2,0,0,0,.07-.141m-.948,10.338-2.539-.006,0-1.994a1.47,1.47,0,0,1,.352-1.049,1.2,1.2,0,0,1,.921-.376,1.2,1.2,0,0,1,.915.379,1.462,1.462,0,0,1,.352,1.049Zm-3.092-.006-2.245-.006,0-1.9A1.679,1.679,0,0,1-38,102.268a.97.97,0,0,1,.82-.355,1.063,1.063,0,0,1,.85.355,1.564,1.564,0,0,1,.3,1.037Zm3.643.385.006-2.465a2.031,2.031,0,0,0-.254-1.034,1.668,1.668,0,0,0-.67-.658,1.857,1.857,0,0,0-.9-.226,1.717,1.717,0,0,0-.957.269,1.757,1.757,0,0,0-.618.667,1.421,1.421,0,0,0-.5-.572,1.524,1.524,0,0,0-.893-.242,1.588,1.588,0,0,0-1.178.468,1.868,1.868,0,0,0-.474,1.376l0,2.4a.191.191,0,0,0,.061.147.211.211,0,0,0,.15.055l6.028.012a.2.2,0,0,0,.147-.055.2.2,0,0,0,.055-.147m-.759,12.947a.888.888,0,0,0-.361-.6.876.876,0,0,0-.682-.171.864.864,0,0,0-.6.364.879.879,0,0,0-.174.679.885.885,0,0,0,.364.6.9.9,0,0,0,.682.174.9.9,0,0,0,.6-.364.9.9,0,0,0,.171-.682m5.435,15.342-1.058-3.505a.222.222,0,0,0-.1-.128.19.19,0,0,0-.159-.015l-.132.04a.221.221,0,0,0-.135.1.2.2,0,0,0-.006.165l.951,3.144-2.334.707-.872-2.878a.2.2,0,0,0-.1-.128.173.173,0,0,0-.156-.015l-.135.04a.217.217,0,0,0-.135.095.224.224,0,0,0-.006.168l.872,2.881-2.245.679-.93-3.074a.229.229,0,0,0-.1-.132.2.2,0,0,0-.159-.012l-.132.037a.224.224,0,0,0-.135.1.216.216,0,0,0-.006.165l1.037,3.435a.209.209,0,0,0,.1.125.227.227,0,0,0,.162.006l5.768-1.746a.2.2,0,0,0,.125-.095.2.2,0,0,0,.009-.156m3.08,8.295-.1-.239a.309.309,0,0,0-.324-.2l-6.3.321-.1.024a.172.172,0,0,0-.095.1.173.173,0,0,0,0,.141l.076.174a.2.2,0,0,0,.092.107.29.29,0,0,0,.113.028l5.973-.315-4.417,4.034a.231.231,0,0,0-.058.1.189.189,0,0,0,.009.141l.073.177a.168.168,0,0,0,.1.1.173.173,0,0,0,.141,0l.086-.055,4.652-4.261a.311.311,0,0,0,.08-.376m3.759,7.919-.083-.153a.208.208,0,0,0-.116-.107.221.221,0,0,0-.156.021l-5.337,2.82a.206.206,0,0,0-.1.119.2.2,0,0,0,.018.156l.083.153a.206.206,0,0,0,.119.1.191.191,0,0,0,.156-.018l5.337-2.823a.194.194,0,0,0,.1-.116.221.221,0,0,0-.021-.156m4.261,7.282-.092-.141a.2.2,0,0,0-.128-.1.182.182,0,0,0-.156.028l-4.787,3.068-.979-1.526a.223.223,0,0,0-.128-.1.2.2,0,0,0-.156.031l-.116.073a.214.214,0,0,0-.1.132.226.226,0,0,0,.04.162l2.273,3.548a.19.19,0,0,0,.132.092.213.213,0,0,0,.156-.037l.116-.073a.206.206,0,0,0,.095-.128.2.2,0,0,0-.031-.153l-.985-1.532,4.787-3.068a.208.208,0,0,0,.095-.125.2.2,0,0,0-.031-.153m.954,11.3,1.985-3.343,1.737,2.214Zm6.151-1.538L-9.622,167a.2.2,0,0,0-.122-.076.273.273,0,0,0-.113,0l-1.511.459-2.009-2.56.807-1.361a.264.264,0,0,0,.028-.11.163.163,0,0,0-.046-.132l-.113-.147a.182.182,0,0,0-.122-.067.172.172,0,0,0-.135.037l-.07.076-3.26,5.518a.266.266,0,0,0,.018.324l.2.248a.269.269,0,0,0,.309.095l6.135-1.857.089-.046a.177.177,0,0,0,.067-.122.181.181,0,0,0-.034-.138m6.429,7-2.557-2.621a.2.2,0,0,0-.144-.07.207.207,0,0,0-.15.058l-.1.1a.226.226,0,0,0-.073.147.221.221,0,0,0,.07.153l2.294,2.352-1.743,1.7-2.1-2.153a.229.229,0,0,0-.147-.07.188.188,0,0,0-.147.061l-.1.095a.24.24,0,0,0-.073.15.22.22,0,0,0,.07.15l2.1,2.156-1.679,1.636-2.242-2.3a.226.226,0,0,0-.147-.073.2.2,0,0,0-.147.061l-.1.1a.2.2,0,0,0-.073.147.222.222,0,0,0,.067.153l2.508,2.566a.179.179,0,0,0,.144.064.205.205,0,0,0,.15-.067l4.313-4.206a.2.2,0,0,0,.067-.144.194.194,0,0,0-.064-.144m5.518,9.341L.765,185.485l-1.321-1.1a1.808,1.808,0,0,1-.7-1.015,1.186,1.186,0,0,1,.324-1,1.217,1.217,0,0,1,.93-.5,1.826,1.826,0,0,1,1.122.514Zm2.389-2.273-.125-.1a.24.24,0,0,0-.153-.058.2.2,0,0,0-.141.076l-1.615,1.936-1.456-1.214L1.8,179a.721.721,0,0,0,.012-.235.289.289,0,0,0-.119-.177l-.086-.073a.177.177,0,0,0-.135-.04.164.164,0,0,0-.125.064.2.2,0,0,0-.043.095l-.477,2.884a1.8,1.8,0,0,0-1.181-.2,1.793,1.793,0,0,0-1.025.67,1.707,1.707,0,0,0-.459,1.428,2.359,2.359,0,0,0,.893,1.355L.7,186.152a.2.2,0,0,0,.153.049.212.212,0,0,0,.138-.083l3.86-4.628a.185.185,0,0,0-.024-.284m7.114,5.059a2.8,2.8,0,0,0-1.3-.508,2.069,2.069,0,0,0-1.089.187,2.1,2.1,0,0,0-.755.618.146.146,0,0,0-.034.138.216.216,0,0,0,.092.122l.153.1a.2.2,0,0,0,.275-.049,1.749,1.749,0,0,1,1.141-.569,2.129,2.129,0,0,1,1.214.419,1.8,1.8,0,0,1,.85,1.147,2.212,2.212,0,0,1-.4,1.535c-.092.153-.236.37-.425.658s-.333.5-.431.633a2.191,2.191,0,0,1-1.257.963,1.8,1.8,0,0,1-1.389-.336,2.109,2.109,0,0,1-.856-.954,1.751,1.751,0,0,1,.08-1.272.2.2,0,0,0-.061-.272l-.153-.1a.221.221,0,0,0-.141-.04.147.147,0,0,0-.113.07l-.009.015a2.035,2.035,0,0,0-.021,2.013,2.829,2.829,0,0,0,.97,1,2.283,2.283,0,0,0,1.872.425,2.816,2.816,0,0,0,1.538-1.156c.1-.141.257-.37.465-.685s.355-.538.44-.682a2.821,2.821,0,0,0,.468-1.869,2.258,2.258,0,0,0-1.119-1.554m11.977,8.94a.925.925,0,1,0,.474.52.867.867,0,0,0-.474-.52m15.167,3.747-3.4-1.046a.218.218,0,0,0-.159.009.194.194,0,0,0-.1.122l-.04.135a.2.2,0,0,0,.006.165.212.212,0,0,0,.135.1l3.034.936L36.89,204.8a.2.2,0,0,0,.009.159.214.214,0,0,0,.125.095l.165.052a.189.189,0,0,0,.254-.135l1.777-5.768a.2.2,0,0,0-.009-.156.206.206,0,0,0-.125-.1m7.432,7.735-.691-3.826,2.762.535Zm3.64-5.19-.18-.037a.2.2,0,0,0-.141.021.241.241,0,0,0-.086.079l-.838,1.337-3.2-.621-.281-1.554a.226.226,0,0,0-.049-.1.2.2,0,0,0-.122-.07l-.18-.034a.162.162,0,0,0-.138.031.155.155,0,0,0-.076.113l0,.1,1.15,6.307a.266.266,0,0,0,.226.229l.309.061a.269.269,0,0,0,.3-.132l3.419-5.42.04-.095a.2.2,0,0,0-.031-.138.188.188,0,0,0-.116-.079m7.025.918-.165-.018a.208.208,0,0,0-.159.043.2.2,0,0,0-.073.141l-.544,5.658-1.808-.174a.231.231,0,0,0-.156.04.194.194,0,0,0-.073.141l-.012.138a.217.217,0,0,0,.04.162.212.212,0,0,0,.15.07l4.2.4a.185.185,0,0,0,.15-.046.2.2,0,0,0,.07-.144l.015-.138a.212.212,0,0,0-.043-.153.208.208,0,0,0-.141-.07l-1.814-.174.547-5.658a.211.211,0,0,0-.04-.153.179.179,0,0,0-.141-.067m8.42.462-.174,0a.194.194,0,0,0-.208.2l-.086,6.035a.209.209,0,0,0,.052.15.2.2,0,0,0,.147.055l.174,0a.2.2,0,0,0,.15-.055.187.187,0,0,0,.055-.144l.089-6.035a.192.192,0,0,0-.052-.15.213.213,0,0,0-.147-.058m8.809-.376a2.674,2.674,0,0,0-1.306.419,2.106,2.106,0,0,0-.786.936,2.8,2.8,0,0,0-.19,1.318l.064.807a.237.237,0,0,0,.067.153.222.222,0,0,0,.159.04l1.967-.156a.181.181,0,0,0,.141-.07.2.2,0,0,0,.043-.153l-.012-.132a.211.211,0,0,0-.064-.147.189.189,0,0,0-.153-.046l-1.594.125-.04-.468a1.86,1.86,0,0,1,.41-1.48,1.944,1.944,0,0,1,1.337-.6,1.872,1.872,0,0,1,1.379.361,2.04,2.04,0,0,1,.645,1.416c.018.184.046.459.076.826s.046.642.055.826a2.045,2.045,0,0,1-.413,1.5,1.871,1.871,0,0,1-1.306.578,2,2,0,0,1-1.223-.235A1.634,1.634,0,0,1,73,207.55a.441.441,0,0,0-.083-.141.183.183,0,0,0-.122-.027l-.2.015a.218.218,0,0,0-.135.058.142.142,0,0,0-.046.122v.018a1.517,1.517,0,0,0,.336.688,2.2,2.2,0,0,0,.847.633,2.709,2.709,0,0,0,1.337.187,2.337,2.337,0,0,0,1.725-.8,2.584,2.584,0,0,0,.532-1.823c-.009-.183-.031-.474-.061-.872s-.058-.688-.08-.872a2.589,2.589,0,0,0-.807-1.716,2.353,2.353,0,0,0-1.832-.52m8.971-1.018-.174.031a.192.192,0,0,0-.165.232l.994,5.955a.223.223,0,0,0,.08.135.206.206,0,0,0,.156.031l.171-.031a.184.184,0,0,0,.165-.232l-.994-5.952a.2.2,0,0,0-.08-.138.2.2,0,0,0-.153-.031M93.834,199.7l1.358,5.16-1.486.395a2.11,2.11,0,0,1-1.612-.067,2.141,2.141,0,0,1-.85-1.33c-.052-.177-.113-.4-.18-.658s-.128-.489-.168-.67a3.132,3.132,0,0,1-.095-1.178,1.213,1.213,0,0,1,.431-.762A2.8,2.8,0,0,1,92.3,200.1Zm.223-.627-1.939.508a3.433,3.433,0,0,0-1.367.636,1.574,1.574,0,0,0-.544.976,3.791,3.791,0,0,0,.116,1.441c.04.18.1.416.18.716s.141.523.193.7a3.689,3.689,0,0,0,.6,1.269,1.623,1.623,0,0,0,.976.593A3.373,3.373,0,0,0,93.8,205.8l1.893-.5a.185.185,0,0,0,.125-.095.224.224,0,0,0,.018-.162L94.3,199.215a.2.2,0,0,0-.092-.128.183.183,0,0,0-.156-.015m12.7-2.633a.893.893,0,0,0-.486.508.879.879,0,0,0,.009.7.9.9,0,0,0,.5.486.912.912,0,0,0,1.193-.517.872.872,0,0,0-.009-.7.888.888,0,0,0-.508-.489.905.905,0,0,0-.7.009m14.137-9.659-.141.086a.2.2,0,0,0-.1.128.182.182,0,0,0,.028.156l2.688,4.31-5.612-2.6a.217.217,0,0,0-.22.009l-.171.107a.2.2,0,0,0-.061.288l3.187,5.1a.19.19,0,0,0,.291.067l.141-.089a.179.179,0,0,0,.092-.125.2.2,0,0,0-.034-.159l-2.692-4.319,5.625,2.606a.229.229,0,0,0,.226-.009l.162-.1a.206.206,0,0,0,.095-.128.23.23,0,0,0-.034-.159l-3.193-5.111a.19.19,0,0,0-.122-.1.21.21,0,0,0-.156.034m8.212-5.992-2.881,2.26a.217.217,0,0,0-.086.138.2.2,0,0,0,.043.153l.086.11a.231.231,0,0,0,.141.089.205.205,0,0,0,.156-.055l2.584-2.028,1.5,1.921-2.364,1.857a.2.2,0,0,0-.089.135.214.214,0,0,0,.046.156l.086.107a.205.205,0,0,0,.138.089.194.194,0,0,0,.159-.052l2.367-1.857,1.447,1.844-2.526,1.985a.211.211,0,0,0-.083.135.181.181,0,0,0,.043.153l.086.11a.212.212,0,0,0,.138.089.216.216,0,0,0,.159-.055l2.823-2.214a.191.191,0,0,0,.08-.138.212.212,0,0,0-.052-.153l-3.719-4.744a.194.194,0,0,0-.284-.034m6.619-5.872-.187.177a.308.308,0,0,0-.07.376l2.578,5.756.058.086a.185.185,0,0,0,.26,0l.141-.135a.2.2,0,0,0,.064-.122.268.268,0,0,0-.015-.116l-2.456-5.453,5.359,2.658a.3.3,0,0,0,.113.018.206.206,0,0,0,.128-.058l.138-.138a.167.167,0,0,0,.055-.128.185.185,0,0,0-.049-.132l-.083-.058-5.658-2.792a.306.306,0,0,0-.376.058m6.022-6.368-.116.132a.2.2,0,0,0-.055.147.211.211,0,0,0,.076.138l4.563,3.952a.206.206,0,0,0,.147.055.211.211,0,0,0,.138-.076l.116-.132a.2.2,0,0,0,.055-.147.217.217,0,0,0-.076-.141l-4.563-3.949a.2.2,0,0,0-.147-.055.188.188,0,0,0-.138.076m8.949-6.157,2.123,1.523-1,1.4a1.834,1.834,0,0,1-.96.78,1.425,1.425,0,0,1-1.594-1.144,1.833,1.833,0,0,1,.431-1.159Zm-2.444-2.217-.095.135a.215.215,0,0,0-.043.156.18.18,0,0,0,.083.135l2.049,1.468-1.1,1.542-2.863-.254a.658.658,0,0,0-.239.006.3.3,0,0,0-.168.132l-.064.092a.168.168,0,0,0-.031.138.171.171,0,0,0,.073.119.219.219,0,0,0,.1.037l2.912.266a1.789,1.789,0,0,0-.113,1.187,1.813,1.813,0,0,0,.746.976,1.706,1.706,0,0,0,1.456.355,2.36,2.36,0,0,0,1.288-.991l1.248-1.74a.2.2,0,0,0,.04-.153.231.231,0,0,0-.092-.138l-4.9-3.511a.208.208,0,0,0-.153-.04.194.194,0,0,0-.132.086m6.025-8.723,4.64,2.643-.762,1.334a2.09,2.09,0,0,1-1.174,1.107,2.155,2.155,0,0,1-1.548-.324c-.162-.089-.361-.2-.593-.33s-.44-.254-.6-.349a3.128,3.128,0,0,1-.908-.759,1.2,1.2,0,0,1-.242-.841,2.79,2.79,0,0,1,.4-1.1Zm-.291-.6-.994,1.743a3.4,3.4,0,0,0-.5,1.419,1.572,1.572,0,0,0,.315,1.074,3.824,3.824,0,0,0,1.11.924c.156.095.367.22.636.373s.471.266.636.352a3.677,3.677,0,0,0,1.324.462,1.63,1.63,0,0,0,1.107-.278,3.441,3.441,0,0,0,.994-1.178l.97-1.7a.2.2,0,0,0,.021-.156.237.237,0,0,0-.107-.125l-5.236-2.982a.189.189,0,0,0-.275.076m6.992-10.913a.886.886,0,0,0,.021.7.912.912,0,0,0,1.208.468.92.92,0,0,0-.04-1.7.868.868,0,0,0-.7.021.883.883,0,0,0-.486.508m8.081-13.164-3.848.572.621-2.747Zm-5.074-3.8-.04.18a.182.182,0,0,0,.012.141.3.3,0,0,0,.076.086l1.309.884-.719,3.175-1.563.232a.221.221,0,0,0-.18.165l-.04.18a.186.186,0,0,0,.141.22l.1.006,6.337-.951a.273.273,0,0,0,.242-.22l.067-.306a.259.259,0,0,0-.119-.3l-5.31-3.591-.095-.04a.169.169,0,0,0-.138.024.172.172,0,0,0-.083.113m1.089-7-.021.165a.234.234,0,0,0,.037.159.184.184,0,0,0,.138.076l5.64.728-.232,1.8a.233.233,0,0,0,.037.159.19.19,0,0,0,.138.076l.138.018a.2.2,0,0,0,.162-.037.2.2,0,0,0,.073-.147l.538-4.181a.173.173,0,0,0-.04-.15.2.2,0,0,0-.144-.076l-.138-.018a.214.214,0,0,0-.153.037.21.21,0,0,0-.073.141l-.232,1.8-5.64-.725a.2.2,0,0,0-.153.037.21.21,0,0,0-.073.138m6.515-9.307-3.664,1.309.076-2.814Zm-5.716-2.74-.006.184a.188.188,0,0,0,.043.135.3.3,0,0,0,.089.073l1.459.609-.089,3.257-1.489.529a.251.251,0,0,0-.092.067.185.185,0,0,0-.052.132l0,.187a.17.17,0,0,0,.052.128.179.179,0,0,0,.125.058l.1-.015,6.031-2.165a.268.268,0,0,0,.193-.26l.009-.315a.27.27,0,0,0-.18-.272l-5.906-2.49-.1-.018a.162.162,0,0,0-.128.052.158.158,0,0,0-.058.125m.073-9.836,5.319-.422.122,1.529a1.726,1.726,0,0,1-1.811,2.175q-.275.032-.679.064t-.688.046a3.234,3.234,0,0,1-1.178-.113,1.211,1.211,0,0,1-.673-.563,2.827,2.827,0,0,1-.288-1.141Zm-.581-.336.159,2a3.42,3.42,0,0,0,.382,1.456,1.587,1.587,0,0,0,.863.71,3.814,3.814,0,0,0,1.441.141c.184-.009.428-.024.734-.049s.541-.046.722-.067a3.71,3.71,0,0,0,1.358-.361,1.639,1.639,0,0,0,.759-.853,3.446,3.446,0,0,0,.159-1.532l-.153-1.951a.2.2,0,0,0-.073-.144.224.224,0,0,0-.156-.043l-6.007.474a.213.213,0,0,0-.144.067.2.2,0,0,0-.043.15m-.33-12.965a.923.923,0,0,0,1.11.679.855.855,0,0,0,.566-.413.9.9,0,0,0-.3-1.26.9.9,0,0,0-.694-.116.882.882,0,0,0-.569.416.9.9,0,0,0-.113.694m-.71-15.452-2.848,2.649-1.04-2.615Zm-6.331-.263.067.171a.179.179,0,0,0,.092.107.231.231,0,0,0,.11.031l1.578-.015,1.205,3.028-1.156,1.074a.247.247,0,0,0-.061.1.181.181,0,0,0,.006.138l.067.174a.186.186,0,0,0,.1.1.173.173,0,0,0,.141,0l.086-.055,4.689-4.371a.264.264,0,0,0,.073-.315l-.116-.291a.266.266,0,0,0-.269-.18l-6.408.046-.1.018a.186.186,0,0,0-.1.1.166.166,0,0,0,0,.138M154.3,53.588a.888.888,0,0,0,.56.425.863.863,0,0,0,.694-.089.922.922,0,0,0,.339-1.254.919.919,0,0,0-1.594.918m-10.65-12.308,2.26,2.884a.225.225,0,0,0,.138.083.181.181,0,0,0,.153-.043l.107-.086a.212.212,0,0,0,.092-.141.227.227,0,0,0-.055-.156l-2.025-2.584,1.915-1.5L148.1,42.1a.21.21,0,0,0,.138.086.186.186,0,0,0,.153-.046l.107-.083a.218.218,0,0,0,.089-.141.215.215,0,0,0-.052-.156l-1.857-2.367,1.844-1.45L150.5,40.47a.217.217,0,0,0,.138.086.192.192,0,0,0,.153-.043l.107-.086a.212.212,0,0,0,.092-.141.218.218,0,0,0-.055-.156l-2.214-2.823a.181.181,0,0,0-.138-.08.205.205,0,0,0-.153.049L143.688,41a.189.189,0,0,0-.083.132.2.2,0,0,0,.046.15m-4.484-9.873,1.881-1.814,1.2,1.239a1.834,1.834,0,0,1,.59,1.086,1.422,1.422,0,0,1-1.413,1.358,1.848,1.848,0,0,1-1.061-.63Zm-2.621,2,.116.119a.208.208,0,0,0,.144.07.2.2,0,0,0,.15-.058l1.814-1.749,1.315,1.367-.768,2.768a.75.75,0,0,0-.037.236.306.306,0,0,0,.1.19l.08.08a.168.168,0,0,0,.125.052.166.166,0,0,0,.132-.046.292.292,0,0,0,.055-.092l.789-2.817a1.782,1.782,0,0,0,1.147.324,1.818,1.818,0,0,0,1.095-.557,1.7,1.7,0,0,0,.609-1.367,2.356,2.356,0,0,0-.74-1.447l-1.486-1.542a.181.181,0,0,0-.147-.064.2.2,0,0,0-.147.064l-4.34,4.184a.193.193,0,0,0-.067.141.2.2,0,0,0,.061.144m-2.8-10.332-1.242,3.686-2.162-1.8Zm-5.692,2.786.141.119a.191.191,0,0,0,.132.049.366.366,0,0,0,.113-.024l1.379-.768,2.5,2.089-.5,1.493a.243.243,0,0,0-.006.116.194.194,0,0,0,.073.122l.141.116a.163.163,0,0,0,.135.04.177.177,0,0,0,.125-.061l.049-.092,2.037-6.074a.26.26,0,0,0-.086-.312l-.239-.2a.271.271,0,0,0-.324-.031l-5.612,3.1-.08.067a.186.186,0,0,0,.024.257m-8.763-8.286a.929.929,0,0,0,1.266-.3.9.9,0,0,0,.107-.7.873.873,0,0,0-.413-.569.888.888,0,0,0-.694-.107.921.921,0,0,0-.266,1.676m-15.268-5.64,3.374,1.422a.214.214,0,0,0,.162.009.177.177,0,0,0,.11-.113l.055-.125a.2.2,0,0,0,.009-.168.21.21,0,0,0-.122-.11l-3.025-1.275.948-2.248,2.771,1.171a.249.249,0,0,0,.162.009.215.215,0,0,0,.113-.113l.052-.128a.2.2,0,0,0,.009-.165.193.193,0,0,0-.122-.11L105.75,8.82l.911-2.162,2.961,1.248a.207.207,0,0,0,.159.009.188.188,0,0,0,.113-.113l.055-.125a.217.217,0,0,0,.009-.168.219.219,0,0,0-.122-.11L106.53,6a.193.193,0,0,0-.159,0,.234.234,0,0,0-.11.119l-2.343,5.551a.187.187,0,0,0-.006.156.191.191,0,0,0,.113.11M93.565,8.358,93.7,8.4a.278.278,0,0,0,.336-.132l2.294-3.364.052,4.071a.28.28,0,0,0,.208.294l.135.04a.243.243,0,0,0,.174,0,.306.306,0,0,0,.135-.138l2.915-5.313.049-.1a.175.175,0,0,0-.015-.141.17.17,0,0,0-.107-.089l-.184-.055a.179.179,0,0,0-.236.073l-2.542,4.71L96.9,4.346a.285.285,0,0,0-.214-.284L96.492,4a.286.286,0,0,0-.336.122L93.984,7.38l.48-5.331c.012-.095-.043-.156-.153-.19L94.127,1.8a.189.189,0,0,0-.141.018.163.163,0,0,0-.089.107l-.015.11-.5,6.038a.324.324,0,0,0,.034.187.259.259,0,0,0,.15.1" transform="translate(38.831 1.799)" fill="#ffa35b"/>
</svg>
