<svg id="Group_25" data-name="Group 25" xmlns="http://www.w3.org/2000/svg" width="195.217" height="195.256" viewBox="0 0 195.217 195.256">
  <path id="Path_26" data-name="Path 26" d="M71.013,3.29a.863.863,0,0,0,.959-.73.819.819,0,0,0-.17-.628.816.816,0,0,0-.56-.328.858.858,0,0,0-.959.727.822.822,0,0,0,.17.631.82.82,0,0,0,.56.328m-13.5.894.161,0a.2.2,0,0,0,.141-.054.185.185,0,0,0,.054-.136l-.023-2.085,2.04-3.426a.264.264,0,0,0,.034-.11.161.161,0,0,0-.054-.119.163.163,0,0,0-.119-.051l-.17,0a.224.224,0,0,0-.2.13L57.574,1.355,55.7-1.626a.226.226,0,0,0-.2-.127l-.17,0a.169.169,0,0,0-.122.051.172.172,0,0,0-.048.119.247.247,0,0,0,.037.113l2.11,3.38L57.327,4a.184.184,0,0,0,.051.136.2.2,0,0,0,.139.051m-9.5.707a2.584,2.584,0,0,0,1.219-.421,1.859,1.859,0,0,0,.659-.778,1.931,1.931,0,0,0,.164-.891A.13.13,0,0,0,50,2.685a.188.188,0,0,0-.136-.031l-.17.017a.188.188,0,0,0-.167.2,1.6,1.6,0,0,1-.464,1.083,2,2,0,0,1-1.106.43,1.68,1.68,0,0,1-1.287-.306,2.009,2.009,0,0,1-.634-1.324c-.025-.161-.057-.4-.093-.716s-.062-.549-.074-.7A2.032,2.032,0,0,1,46.179-.1a1.655,1.655,0,0,1,1.182-.591,1.961,1.961,0,0,1,1.174.161,1.606,1.606,0,0,1,.7.948.187.187,0,0,0,.209.156l.167-.02A.213.213,0,0,0,49.735.5a.128.128,0,0,0,.037-.116V.365A1.927,1.927,0,0,0,49.4-.461a1.843,1.843,0,0,0-.82-.605A2.6,2.6,0,0,0,47.3-1.2a2.1,2.1,0,0,0-1.576.815,2.607,2.607,0,0,0-.4,1.74c.014.156.04.41.082.761s.071.591.1.741a2.62,2.62,0,0,0,.784,1.6,2.1,2.1,0,0,0,1.723.43M36.191,6.976l.15-.034a.189.189,0,0,0,.127-.079.2.2,0,0,0,.023-.147L35.433,2.141,39.563,6.1a.2.2,0,0,0,.2.059l.184-.042a.181.181,0,0,0,.136-.232L38.827.456a.2.2,0,0,0-.082-.127.186.186,0,0,0-.153-.017l-.15.031a.175.175,0,0,0-.119.088.2.2,0,0,0-.02.147l1.058,4.585L35.223,1.194a.205.205,0,0,0-.2-.059l-.173.04a.169.169,0,0,0-.122.085.2.2,0,0,0-.017.147l1.253,5.431a.183.183,0,0,0,.082.122.172.172,0,0,0,.141.017m-8.973,2.8,3.2-1.117a.2.2,0,0,0,.113-.1.17.17,0,0,0,.008-.144L30.5,8.3a.2.2,0,0,0-.1-.122.2.2,0,0,0-.153,0l-2.868,1-.744-2.127,2.628-.919a.193.193,0,0,0,.116-.093.177.177,0,0,0,.006-.147l-.042-.119a.2.2,0,0,0-.1-.122.2.2,0,0,0-.153,0l-2.625.919L25.753,4.52l2.8-.979a.2.2,0,0,0,.116-.093.167.167,0,0,0,.008-.147l-.042-.122a.182.182,0,0,0-.1-.119.179.179,0,0,0-.153,0L25.252,4.153a.183.183,0,0,0-.11.1.2.2,0,0,0,0,.15L26.98,9.663a.176.176,0,0,0,.093.11.181.181,0,0,0,.144.006m-7.482,3.242a2.491,2.491,0,0,0,.99-.792,1.93,1.93,0,0,0,.365-1.069,2.5,2.5,0,0,0-.269-1.2l-.32-.676a.194.194,0,0,0-.11-.107.187.187,0,0,0-.153.017L18.6,9.972a.184.184,0,0,0-.085.257l.051.107a.189.189,0,0,0,.1.1.186.186,0,0,0,.15-.006L20.152,9.8l.187.39a1.726,1.726,0,0,1,.136,1.414,1.793,1.793,0,0,1-.956.956A1.745,1.745,0,0,1,18.2,12.7a1.879,1.879,0,0,1-1.021-1.013c-.079-.15-.192-.379-.337-.685s-.255-.54-.322-.7a1.883,1.883,0,0,1-.139-1.434,1.712,1.712,0,0,1,.936-.925,1.812,1.812,0,0,1,1.134-.2,1.517,1.517,0,0,1,.832.447.36.36,0,0,0,.119.093.155.155,0,0,0,.116-.02l.167-.079a.189.189,0,0,0,.1-.093.152.152,0,0,0,0-.122l-.008-.017a1.429,1.429,0,0,0-.515-.484,2.049,2.049,0,0,0-.942-.263,2.5,2.5,0,0,0-1.216.277,2.178,2.178,0,0,0-1.228,1.264,2.389,2.389,0,0,0,.144,1.748c.071.156.184.4.339.735s.277.574.356.727a2.393,2.393,0,0,0,1.267,1.214,2.162,2.162,0,0,0,1.754-.156m-11.5.037,2.854,2.187L8.868,16.6Zm.735,5.816.147-.088a.193.193,0,0,0,.085-.1.231.231,0,0,0,.008-.1l-.255-1.44,2.574-1.564,1.157.891a.29.29,0,0,0,.1.04.177.177,0,0,0,.127-.028l.147-.088a.167.167,0,0,0,.074-.1.172.172,0,0,0-.017-.13l-.062-.071-4.71-3.6a.247.247,0,0,0-.3-.017l-.246.15a.251.251,0,0,0-.124.272l1.03,5.839.034.088a.16.16,0,0,0,.107.076.158.158,0,0,0,.124-.017M-.9,24.067a.823.823,0,0,0,.3-.577.836.836,0,0,0-.192-.622.829.829,0,0,0-.577-.3.824.824,0,0,0-.622.192.823.823,0,0,0-.3.577.824.824,0,0,0,.192.622.823.823,0,0,0,.577.3A.828.828,0,0,0-.9,24.067M-9.522,34.859a2.522,2.522,0,0,0,.608-1.115,1.945,1.945,0,0,0-.074-1.129,2.576,2.576,0,0,0-.71-1l-.557-.5a.2.2,0,0,0-.141-.057.194.194,0,0,0-.136.074l-1.216,1.355a.163.163,0,0,0-.048.136.181.181,0,0,0,.068.133l.091.079a.182.182,0,0,0,.136.057.164.164,0,0,0,.133-.065l.99-1.1.322.294a1.74,1.74,0,0,1,.67,1.253,1.8,1.8,0,0,1-.518,1.25,1.726,1.726,0,0,1-1.154.636,1.9,1.9,0,0,1-1.335-.537c-.13-.11-.322-.28-.574-.506s-.441-.4-.566-.518a1.887,1.887,0,0,1-.679-1.267,1.733,1.733,0,0,1,.509-1.219,1.81,1.81,0,0,1,.97-.622,1.519,1.519,0,0,1,.936.091.314.314,0,0,0,.147.04.14.14,0,0,0,.1-.059l.124-.139a.177.177,0,0,0,.054-.122.135.135,0,0,0-.048-.113l-.011-.011a1.435,1.435,0,0,0-.665-.249,2.068,2.068,0,0,0-.97.119,2.5,2.5,0,0,0-1.016.724A2.178,2.178,0,0,0-14.73,32.4a2.408,2.408,0,0,0,.809,1.561c.122.116.32.3.594.546s.478.424.608.532a2.371,2.371,0,0,0,1.638.636,2.194,2.194,0,0,0,1.559-.818m-7.491,9.409.088-.124a.184.184,0,0,0,.04-.144.17.17,0,0,0-.079-.122L-20.8,41.162l5.714.209a.214.214,0,0,0,.187-.088l.107-.153a.17.17,0,0,0,.034-.144.21.21,0,0,0-.085-.122l-4.543-3.216a.19.19,0,0,0-.147-.042.205.205,0,0,0-.124.088l-.091.124a.2.2,0,0,0-.034.144.2.2,0,0,0,.085.122l3.841,2.721-5.731-.212a.214.214,0,0,0-.187.088l-.1.144a.174.174,0,0,0-.034.144.175.175,0,0,0,.085.122l4.549,3.222a.177.177,0,0,0,.139.037.164.164,0,0,0,.122-.082m-3.451,5.51.082-.141a.191.191,0,0,0,.025-.144.185.185,0,0,0-.093-.11l-4.817-2.823a.186.186,0,0,0-.141-.025.174.174,0,0,0-.113.093l-.082.139a.186.186,0,0,0-.025.141.2.2,0,0,0,.091.113l4.817,2.823a.193.193,0,0,0,.144.025.178.178,0,0,0,.113-.091m-4.925,8.478-4.472-2.088.6-1.287a1.935,1.935,0,0,1,1-1.106,1.987,1.987,0,0,1,1.451.181c.156.068.348.156.574.26s.421.2.574.277a2.9,2.9,0,0,1,.894.631,1.119,1.119,0,0,1,.286.758,2.561,2.561,0,0,1-.289,1.047Zm.317.532.784-1.68a3.2,3.2,0,0,0,.356-1.346A1.468,1.468,0,0,0-24.3,54.8a3.5,3.5,0,0,0-1.092-.769c-.153-.079-.356-.175-.614-.294s-.455-.212-.611-.277a3.5,3.5,0,0,0-1.259-.331,1.52,1.52,0,0,0-1,.342,3.139,3.139,0,0,0-.826,1.16l-.767,1.641a.169.169,0,0,0-.008.147.2.2,0,0,0,.1.107l5.052,2.356a.174.174,0,0,0,.144.011.184.184,0,0,0,.1-.1m-3.578,9.536.048-.147a.189.189,0,0,0,0-.147.171.171,0,0,0-.11-.1l-4.455-1.5,5.533-1.446a.206.206,0,0,0,.153-.139l.059-.175a.175.175,0,0,0-.011-.147.185.185,0,0,0-.116-.093l-5.276-1.774a.215.215,0,0,0-.153,0,.2.2,0,0,0-.1.122l-.048.144a.177.177,0,0,0,.011.147.186.186,0,0,0,.116.093l4.461,1.5-5.55,1.448a.208.208,0,0,0-.153.136l-.057.17a.167.167,0,0,0,.008.147.2.2,0,0,0,.116.093l5.284,1.774a.181.181,0,0,0,.144-.006.176.176,0,0,0,.093-.11m-7.293,6.7,3.553-.552-.56,2.543Zm4.713,3.485.037-.167a.183.183,0,0,0-.017-.13.213.213,0,0,0-.068-.079l-1.216-.809.648-2.942,1.443-.221a.363.363,0,0,0,.1-.045A.184.184,0,0,0-30.24,74l.037-.164a.178.178,0,0,0-.023-.13.178.178,0,0,0-.107-.074l-.093-.006-5.858.919a.241.241,0,0,0-.218.2l-.062.28a.249.249,0,0,0,.113.28l4.931,3.29.088.037a.17.17,0,0,0,.127-.025.156.156,0,0,0,.076-.1m-4.249,8.433-2.4-.263.173-1.584a1.691,1.691,0,0,1,.421-1.061,1.114,1.114,0,0,1,.939-.26,1.1,1.1,0,0,1,.86.458,1.676,1.676,0,0,1,.181,1.126Zm2.973.676.017-.153a.2.2,0,0,0-.034-.144.182.182,0,0,0-.13-.071L-34.97,87l.19-1.745,2.421-1.095a.667.667,0,0,0,.19-.113.27.27,0,0,0,.074-.184l.014-.1a.173.173,0,0,0-.04-.124.159.159,0,0,0-.113-.062.248.248,0,0,0-.1.014L-34.8,84.694a1.657,1.657,0,0,0-.45-1.007,1.68,1.68,0,0,0-1.041-.45,1.593,1.593,0,0,0-1.335.376A2.184,2.184,0,0,0-38.211,85l-.215,1.972a.173.173,0,0,0,.04.141.2.2,0,0,0,.136.065l5.539.605a.171.171,0,0,0,.141-.034.187.187,0,0,0,.065-.13m-.877,9.561-2.348-.006,0-1.844a1.36,1.36,0,0,1,.325-.97,1.109,1.109,0,0,1,.851-.348,1.107,1.107,0,0,1,.846.351,1.352,1.352,0,0,1,.325.97Zm-2.86-.006-2.076-.006,0-1.76a1.553,1.553,0,0,1,.257-.956.9.9,0,0,1,.758-.328.983.983,0,0,1,.786.328,1.447,1.447,0,0,1,.274.959Zm3.369.356.006-2.28a1.878,1.878,0,0,0-.235-.956,1.543,1.543,0,0,0-.62-.608,1.718,1.718,0,0,0-.829-.209,1.588,1.588,0,0,0-.885.249,1.625,1.625,0,0,0-.571.617,1.314,1.314,0,0,0-.467-.529,1.41,1.41,0,0,0-.826-.223,1.469,1.469,0,0,0-1.089.433,1.728,1.728,0,0,0-.438,1.273l0,2.223a.177.177,0,0,0,.057.136.2.2,0,0,0,.139.051l5.576.011a.183.183,0,0,0,.136-.051.184.184,0,0,0,.051-.136m-.7,11.974a.821.821,0,0,0-.334-.557.81.81,0,0,0-.631-.158.8.8,0,0,0-.557.337.813.813,0,0,0-.161.628.819.819,0,0,0,.337.557.829.829,0,0,0,.631.161.835.835,0,0,0,.557-.337.83.83,0,0,0,.158-.631m5.027,14.189-.979-3.242a.206.206,0,0,0-.091-.119.176.176,0,0,0-.147-.014l-.122.037a.2.2,0,0,0-.124.09.188.188,0,0,0-.006.153l.88,2.908-2.158.653L-32.1,121.5a.187.187,0,0,0-.091-.119.16.16,0,0,0-.144-.014l-.124.037a.2.2,0,0,0-.124.088.207.207,0,0,0-.006.156l.806,2.665-2.076.628-.86-2.843a.212.212,0,0,0-.091-.122.186.186,0,0,0-.147-.011l-.122.034a.207.207,0,0,0-.124.093.2.2,0,0,0-.006.153l.959,3.177a.193.193,0,0,0,.093.116.21.21,0,0,0,.15.006l5.335-1.615a.18.18,0,0,0,.116-.088.18.18,0,0,0,.008-.144m2.849,7.672-.091-.221a.286.286,0,0,0-.3-.187l-5.827.3-.093.023a.159.159,0,0,0-.088.093.16.16,0,0,0,0,.13l.071.161a.186.186,0,0,0,.085.1.268.268,0,0,0,.1.025l5.525-.291-4.085,3.731a.214.214,0,0,0-.054.09.175.175,0,0,0,.008.13l.068.164a.155.155,0,0,0,.093.09.16.16,0,0,0,.13,0l.079-.051,4.3-3.94a.288.288,0,0,0,.074-.348m3.477,7.324-.076-.141a.193.193,0,0,0-.107-.1.2.2,0,0,0-.144.02l-4.936,2.608a.19.19,0,0,0-.1.11.189.189,0,0,0,.017.144l.076.141a.19.19,0,0,0,.11.1.177.177,0,0,0,.144-.017l4.936-2.611a.179.179,0,0,0,.1-.107.2.2,0,0,0-.02-.144m3.94,6.735-.085-.13a.188.188,0,0,0-.119-.091.169.169,0,0,0-.144.025l-4.427,2.837-.905-1.412a.206.206,0,0,0-.119-.091.18.18,0,0,0-.144.028l-.108.068a.2.2,0,0,0-.1.122.209.209,0,0,0,.037.15l2.1,3.281a.176.176,0,0,0,.122.085.2.2,0,0,0,.144-.034l.107-.068a.19.19,0,0,0,.088-.119.188.188,0,0,0-.028-.141l-.911-1.417,4.427-2.837a.193.193,0,0,0,.088-.116.183.183,0,0,0-.028-.141m.883,10.449,1.836-3.092,1.607,2.048Zm5.689-1.423-.1-.133a.184.184,0,0,0-.113-.071.253.253,0,0,0-.1,0l-1.4.424L-15.29,152.3l.747-1.259a.244.244,0,0,0,.025-.1.151.151,0,0,0-.042-.122l-.1-.136a.168.168,0,0,0-.113-.062.159.159,0,0,0-.124.034l-.065.071-3.015,5.1a.246.246,0,0,0,.017.3l.181.229a.249.249,0,0,0,.286.088l5.675-1.717.082-.042a.163.163,0,0,0,.062-.113.167.167,0,0,0-.031-.127m5.946,6.472L-8.13,158.5a.187.187,0,0,0-.133-.065.191.191,0,0,0-.139.054l-.091.091a.209.209,0,0,0-.068.136.2.2,0,0,0,.065.141l2.122,2.175L-7.986,162.6l-1.943-1.991a.212.212,0,0,0-.136-.065.174.174,0,0,0-.136.057l-.093.088a.222.222,0,0,0-.068.139.2.2,0,0,0,.065.139l1.943,1.994-1.553,1.513-2.073-2.124a.209.209,0,0,0-.136-.068.182.182,0,0,0-.136.057l-.091.091a.186.186,0,0,0-.068.136.206.206,0,0,0,.062.141l2.32,2.373a.166.166,0,0,0,.133.059.19.19,0,0,0,.139-.062l3.989-3.89a.183.183,0,0,0,.062-.133.179.179,0,0,0-.059-.133m5.1,8.639-1.547,1.856L-3.432,170.4a1.672,1.672,0,0,1-.651-.939,1.1,1.1,0,0,1,.3-.925,1.126,1.126,0,0,1,.86-.467,1.689,1.689,0,0,1,1.038.475Zm2.209-2.1-.116-.1a.222.222,0,0,0-.141-.054.184.184,0,0,0-.13.071l-1.494,1.791-1.346-1.123.427-2.625a.667.667,0,0,0,.011-.218.267.267,0,0,0-.11-.164l-.079-.068a.164.164,0,0,0-.124-.037.152.152,0,0,0-.116.059.18.18,0,0,0-.04.088l-.441,2.668a1.666,1.666,0,0,0-1.092-.181,1.658,1.658,0,0,0-.948.619,1.579,1.579,0,0,0-.424,1.321,2.182,2.182,0,0,0,.826,1.253l1.522,1.27a.182.182,0,0,0,.141.045A.2.2,0,0,0-2,172l3.57-4.28a.171.171,0,0,0-.023-.263m6.58,4.679a2.589,2.589,0,0,0-1.205-.47,1.913,1.913,0,0,0-1.007.173,1.942,1.942,0,0,0-.7.571.135.135,0,0,0-.031.127.2.2,0,0,0,.085.113l.141.093a.183.183,0,0,0,.255-.045,1.618,1.618,0,0,1,1.055-.526,1.969,1.969,0,0,1,1.123.388,1.668,1.668,0,0,1,.786,1.061,2.046,2.046,0,0,1-.371,1.42c-.085.141-.218.342-.393.608s-.308.458-.4.586a2.027,2.027,0,0,1-1.163.891,1.664,1.664,0,0,1-1.284-.311,1.951,1.951,0,0,1-.792-.883,1.62,1.62,0,0,1,.074-1.177.183.183,0,0,0-.057-.252l-.141-.093a.2.2,0,0,0-.13-.037.136.136,0,0,0-.1.065l-.008.014a1.882,1.882,0,0,0-.02,1.861,2.616,2.616,0,0,0,.9.928,2.112,2.112,0,0,0,1.731.393,2.6,2.6,0,0,0,1.423-1.069c.093-.13.238-.342.43-.634s.328-.5.407-.631a2.609,2.609,0,0,0,.433-1.728,2.088,2.088,0,0,0-1.035-1.437M19.2,180.405a.856.856,0,1,0,.438.481.8.8,0,0,0-.438-.481m14.028,3.465-3.14-.967a.2.2,0,0,0-.147.009.18.18,0,0,0-.093.113l-.037.124a.188.188,0,0,0,.006.153.2.2,0,0,0,.124.09l2.806.866-1.55,5.024a.187.187,0,0,0,.008.147.2.2,0,0,0,.116.088l.153.048a.174.174,0,0,0,.235-.124l1.644-5.335a.18.18,0,0,0-.008-.144.191.191,0,0,0-.116-.091m6.874,7.154-.639-3.539,2.554.5Zm3.366-4.8-.167-.034a.181.181,0,0,0-.13.02.223.223,0,0,0-.079.074l-.775,1.236-2.959-.574-.26-1.437a.209.209,0,0,0-.045-.1.181.181,0,0,0-.113-.065l-.167-.031a.15.15,0,0,0-.127.028.143.143,0,0,0-.071.1l0,.1,1.064,5.833a.246.246,0,0,0,.209.212l.286.057a.249.249,0,0,0,.274-.122l3.163-5.013.037-.088a.185.185,0,0,0-.028-.127.174.174,0,0,0-.107-.074m6.5.849-.153-.017a.192.192,0,0,0-.147.04.189.189,0,0,0-.068.13l-.5,5.233-1.672-.161a.214.214,0,0,0-.144.037.179.179,0,0,0-.068.13l-.011.127a.2.2,0,0,0,.037.15.2.2,0,0,0,.139.065l3.881.373a.171.171,0,0,0,.139-.042.188.188,0,0,0,.065-.133l.014-.127a.2.2,0,0,0-.04-.141.192.192,0,0,0-.13-.065l-1.677-.161.506-5.233a.2.2,0,0,0-.037-.141.165.165,0,0,0-.13-.062m7.788.427-.161,0a.18.18,0,0,0-.192.187l-.079,5.581a.193.193,0,0,0,.048.139.183.183,0,0,0,.136.051l.161,0a.183.183,0,0,0,.139-.051.173.173,0,0,0,.051-.133l.082-5.581a.178.178,0,0,0-.048-.139.2.2,0,0,0-.136-.054m8.147-.348a2.473,2.473,0,0,0-1.208.388,1.948,1.948,0,0,0-.727.866,2.586,2.586,0,0,0-.175,1.219l.059.747a.22.22,0,0,0,.062.141.206.206,0,0,0,.147.037l1.819-.144a.167.167,0,0,0,.13-.065.187.187,0,0,0,.04-.141l-.011-.122a.2.2,0,0,0-.059-.136.174.174,0,0,0-.141-.042l-1.474.116-.037-.433a1.721,1.721,0,0,1,.379-1.369,1.8,1.8,0,0,1,1.236-.552,1.732,1.732,0,0,1,1.276.334,1.887,1.887,0,0,1,.6,1.31c.017.17.042.424.071.764s.042.594.051.764a1.892,1.892,0,0,1-.382,1.386,1.73,1.73,0,0,1-1.208.535,1.845,1.845,0,0,1-1.132-.218,1.512,1.512,0,0,1-.617-.713.408.408,0,0,0-.076-.13.169.169,0,0,0-.113-.025l-.187.014a.2.2,0,0,0-.124.054.131.131,0,0,0-.042.113v.017a1.4,1.4,0,0,0,.311.637,2.038,2.038,0,0,0,.784.586,2.505,2.505,0,0,0,1.236.173,2.161,2.161,0,0,0,1.6-.741,2.39,2.39,0,0,0,.492-1.686c-.008-.17-.028-.438-.057-.806s-.054-.637-.074-.806a2.394,2.394,0,0,0-.747-1.587,2.176,2.176,0,0,0-1.694-.481m8.3-.942-.161.028a.177.177,0,0,0-.153.215l.919,5.508a.206.206,0,0,0,.074.124.19.19,0,0,0,.144.028l.158-.028a.17.17,0,0,0,.153-.215l-.919-5.5a.183.183,0,0,0-.074-.127.18.18,0,0,0-.141-.028m9.666-1.649,1.256,4.772-1.375.365a1.951,1.951,0,0,1-1.491-.062,1.98,1.98,0,0,1-.786-1.23c-.048-.164-.1-.368-.167-.608s-.119-.453-.156-.62a2.9,2.9,0,0,1-.088-1.089,1.122,1.122,0,0,1,.4-.7,2.588,2.588,0,0,1,.99-.45Zm.207-.58-1.793.47a3.174,3.174,0,0,0-1.264.588,1.455,1.455,0,0,0-.5.9,3.507,3.507,0,0,0,.107,1.332c.037.167.093.385.167.662s.13.484.178.648a3.412,3.412,0,0,0,.552,1.174,1.5,1.5,0,0,0,.9.549,3.119,3.119,0,0,0,1.42-.1l1.751-.461a.171.171,0,0,0,.116-.088.208.208,0,0,0,.017-.15l-1.42-5.389a.183.183,0,0,0-.085-.119.17.17,0,0,0-.144-.014m11.742-2.436a.825.825,0,0,0-.45.47.813.813,0,0,0,.008.651.829.829,0,0,0,.467.45.843.843,0,0,0,1.1-.478.806.806,0,0,0-.008-.648.822.822,0,0,0-.47-.453.837.837,0,0,0-.651.009m13.075-8.933-.13.079a.188.188,0,0,0-.091.119.169.169,0,0,0,.025.144l2.486,3.986-5.191-2.4a.2.2,0,0,0-.2.008l-.158.1a.182.182,0,0,0-.057.266l2.948,4.721a.176.176,0,0,0,.269.062l.13-.082A.166.166,0,0,0,109,179.5a.187.187,0,0,0-.031-.147l-2.489-3.994,5.2,2.41a.212.212,0,0,0,.209-.008l.15-.093a.19.19,0,0,0,.088-.119.213.213,0,0,0-.031-.147l-2.953-4.727a.176.176,0,0,0-.113-.09.194.194,0,0,0-.144.031m7.6-5.542-2.665,2.091a.2.2,0,0,0-.079.127.189.189,0,0,0,.04.141l.079.1a.214.214,0,0,0,.13.082.19.19,0,0,0,.144-.051l2.39-1.875,1.392,1.776-2.187,1.717a.189.189,0,0,0-.082.124.2.2,0,0,0,.042.144l.079.1a.19.19,0,0,0,.127.082.18.18,0,0,0,.147-.048l2.189-1.717,1.338,1.706-2.337,1.836a.2.2,0,0,0-.076.124.168.168,0,0,0,.04.141l.079.1a.2.2,0,0,0,.127.082.2.2,0,0,0,.147-.051l2.611-2.048a.176.176,0,0,0,.074-.127.2.2,0,0,0-.048-.141l-3.44-4.387a.179.179,0,0,0-.263-.031m6.121-5.431-.173.164a.284.284,0,0,0-.065.348l2.385,5.324.054.079a.171.171,0,0,0,.24,0l.13-.124a.185.185,0,0,0,.059-.113.248.248,0,0,0-.014-.108l-2.272-5.044,4.956,2.458a.279.279,0,0,0,.1.017.19.19,0,0,0,.119-.054l.127-.127a.154.154,0,0,0,.051-.119.171.171,0,0,0-.045-.122l-.076-.054-5.233-2.583a.283.283,0,0,0-.348.054m5.57-5.89-.107.122a.186.186,0,0,0-.051.136.2.2,0,0,0,.071.127l4.221,3.655a.191.191,0,0,0,.136.051.2.2,0,0,0,.127-.071l.107-.122a.186.186,0,0,0,.051-.136.2.2,0,0,0-.071-.13l-4.221-3.652a.186.186,0,0,0-.136-.051.174.174,0,0,0-.127.071m8.277-5.694,1.963,1.409-.928,1.293a1.7,1.7,0,0,1-.888.721,1.318,1.318,0,0,1-1.474-1.058,1.7,1.7,0,0,1,.4-1.072ZM134.194,148l-.088.124a.2.2,0,0,0-.04.144.166.166,0,0,0,.076.124l1.9,1.358-1.021,1.426-2.648-.235a.608.608,0,0,0-.221.006.28.28,0,0,0-.156.122l-.059.085a.155.155,0,0,0-.028.127.159.159,0,0,0,.068.11.2.2,0,0,0,.09.034l2.693.246a1.655,1.655,0,0,0-.1,1.1,1.677,1.677,0,0,0,.69.9,1.578,1.578,0,0,0,1.347.328,2.183,2.183,0,0,0,1.191-.917l1.154-1.61a.181.181,0,0,0,.037-.141.214.214,0,0,0-.085-.127l-4.529-3.247a.192.192,0,0,0-.141-.037.179.179,0,0,0-.122.079m5.573-8.068,4.291,2.444-.7,1.233a1.933,1.933,0,0,1-1.086,1.024,1.993,1.993,0,0,1-1.431-.3c-.15-.082-.334-.181-.549-.306s-.407-.235-.552-.322a2.893,2.893,0,0,1-.84-.7,1.109,1.109,0,0,1-.223-.778,2.58,2.58,0,0,1,.371-1.021Zm-.269-.554-.919,1.612a3.142,3.142,0,0,0-.464,1.313,1.454,1.454,0,0,0,.291.993,3.536,3.536,0,0,0,1.027.854c.144.088.339.2.588.345s.436.246.588.325a3.4,3.4,0,0,0,1.225.427,1.508,1.508,0,0,0,1.024-.257,3.182,3.182,0,0,0,.919-1.089l.9-1.576a.189.189,0,0,0,.02-.144.219.219,0,0,0-.1-.116l-4.843-2.758a.189.189,0,0,0-.144-.023.187.187,0,0,0-.11.093m6.467-10.093a.82.82,0,0,0,.02.648.843.843,0,0,0,1.117.433.851.851,0,0,0-.037-1.57.8.8,0,0,0-.651.02.816.816,0,0,0-.45.47m7.474-12.175-3.559.529.574-2.54Zm-4.693-3.516-.037.167a.168.168,0,0,0,.011.13.281.281,0,0,0,.071.079l1.211.818-.665,2.936-1.446.215a.2.2,0,0,0-.167.153l-.037.167a.172.172,0,0,0,.13.2l.093.006,5.861-.88a.253.253,0,0,0,.223-.2l.062-.283a.24.24,0,0,0-.11-.277l-4.911-3.321-.088-.037a.157.157,0,0,0-.127.023.159.159,0,0,0-.076.1m1.007-6.475-.02.153a.216.216,0,0,0,.034.147.171.171,0,0,0,.127.071l5.216.673-.215,1.66a.216.216,0,0,0,.034.147.176.176,0,0,0,.127.071l.127.017a.188.188,0,0,0,.15-.034.185.185,0,0,0,.068-.136l.5-3.867a.16.16,0,0,0-.037-.139.188.188,0,0,0-.133-.071l-.127-.017a.2.2,0,0,0-.141.034.2.2,0,0,0-.068.13l-.215,1.669-5.216-.67a.185.185,0,0,0-.141.034.194.194,0,0,0-.068.127m6.025-8.608-3.389,1.211.071-2.6ZM150.49,95.98l-.006.17a.174.174,0,0,0,.04.124.282.282,0,0,0,.082.068l1.349.563-.082,3.013-1.378.489a.233.233,0,0,0-.085.062.171.171,0,0,0-.048.122l0,.173a.158.158,0,0,0,.048.119.166.166,0,0,0,.116.054l.1-.014,5.578-2a.248.248,0,0,0,.178-.24l.008-.291a.25.25,0,0,0-.167-.252l-5.462-2.3-.093-.017a.15.15,0,0,0-.119.048.146.146,0,0,0-.054.116m.068-9.1,4.919-.39.113,1.414a1.6,1.6,0,0,1-1.675,2.011q-.255.03-.628.059t-.636.042a2.991,2.991,0,0,1-1.089-.1,1.12,1.12,0,0,1-.622-.521,2.615,2.615,0,0,1-.266-1.055Zm-.537-.311.147,1.853a3.163,3.163,0,0,0,.354,1.347,1.468,1.468,0,0,0,.8.656,3.527,3.527,0,0,0,1.332.13c.17-.008.4-.023.679-.045s.5-.042.668-.062a3.431,3.431,0,0,0,1.256-.334,1.516,1.516,0,0,0,.7-.789,3.187,3.187,0,0,0,.147-1.417l-.141-1.8a.18.18,0,0,0-.068-.133.207.207,0,0,0-.144-.04l-5.556.438a.2.2,0,0,0-.133.062.181.181,0,0,0-.04.139m-.306-11.991a.854.854,0,0,0,1.027.628.791.791,0,0,0,.523-.382.837.837,0,0,0-.277-1.165.831.831,0,0,0-.642-.107.816.816,0,0,0-.526.385.827.827,0,0,0-.1.642m-.656-14.291-2.634,2.45-.962-2.419Zm-5.856-.243.062.158a.166.166,0,0,0,.085.1.214.214,0,0,0,.1.028l1.46-.014,1.115,2.8-1.069.993a.229.229,0,0,0-.057.093.167.167,0,0,0,.006.127l.062.161a.172.172,0,0,0,.093.091.16.16,0,0,0,.13,0l.079-.051,4.337-4.042a.244.244,0,0,0,.068-.291l-.107-.269a.246.246,0,0,0-.249-.167l-5.926.042-.1.017a.172.172,0,0,0-.091.093.154.154,0,0,0,0,.127m-3.411-10.619a.821.821,0,0,0,.518.393.8.8,0,0,0,.642-.082.852.852,0,0,0,.314-1.16.85.85,0,0,0-1.474.849m-9.85-11.383,2.09,2.668a.209.209,0,0,0,.127.076.168.168,0,0,0,.141-.04l.1-.079a.2.2,0,0,0,.085-.13.21.21,0,0,0-.051-.144L130.562,38l1.771-1.392,1.72,2.189a.194.194,0,0,0,.127.079.172.172,0,0,0,.141-.042l.1-.076a.2.2,0,0,0,.082-.13.2.2,0,0,0-.048-.144L132.737,36.3l1.706-1.341,1.833,2.337a.2.2,0,0,0,.127.079.178.178,0,0,0,.141-.04l.1-.079a.2.2,0,0,0,.085-.13.2.2,0,0,0-.051-.144l-2.048-2.611a.168.168,0,0,0-.127-.074.19.19,0,0,0-.141.045l-4.385,3.443a.175.175,0,0,0-.076.122.184.184,0,0,0,.042.139M125.8,28.913l1.74-1.677,1.106,1.146a1.7,1.7,0,0,1,.546,1,1.315,1.315,0,0,1-1.307,1.256,1.71,1.71,0,0,1-.982-.583Zm-2.424,1.85.108.11a.193.193,0,0,0,.133.065.181.181,0,0,0,.139-.054l1.677-1.618,1.216,1.264-.71,2.56a.693.693,0,0,0-.034.218.283.283,0,0,0,.093.175l.074.074a.156.156,0,0,0,.116.048.154.154,0,0,0,.122-.042.27.27,0,0,0,.051-.085l.73-2.605a1.648,1.648,0,0,0,1.061.3,1.681,1.681,0,0,0,1.013-.515,1.572,1.572,0,0,0,.563-1.264,2.179,2.179,0,0,0-.685-1.338l-1.375-1.426a.168.168,0,0,0-.136-.059.187.187,0,0,0-.136.059l-4.014,3.87a.178.178,0,0,0-.062.13.182.182,0,0,0,.057.133m-2.588-9.556-1.148,3.409-2-1.669Zm-5.264,2.577.13.11a.177.177,0,0,0,.122.045.338.338,0,0,0,.1-.023l1.276-.71,2.314,1.932L119,26.52a.224.224,0,0,0-.006.107.179.179,0,0,0,.068.113l.13.107a.15.15,0,0,0,.124.037.163.163,0,0,0,.116-.057l.045-.085,1.884-5.618a.24.24,0,0,0-.079-.289l-.221-.187a.251.251,0,0,0-.3-.028l-5.191,2.863-.074.062a.172.172,0,0,0,.023.238m-8.1-7.663a.859.859,0,0,0,1.171-.28.83.83,0,0,0,.1-.645.807.807,0,0,0-.382-.526.822.822,0,0,0-.642-.1.851.851,0,0,0-.246,1.55M93.293,10.905l3.12,1.315a.2.2,0,0,0,.15.008.163.163,0,0,0,.1-.1l.051-.116a.189.189,0,0,0,.008-.156.194.194,0,0,0-.113-.1l-2.8-1.18.877-2.079,2.563,1.083a.23.23,0,0,0,.15.008.2.2,0,0,0,.1-.1l.048-.119a.183.183,0,0,0,.008-.153.178.178,0,0,0-.113-.1L94.888,8.023l.843-2,2.738,1.154a.192.192,0,0,0,.147.008.174.174,0,0,0,.1-.1l.051-.116a.2.2,0,0,0,.008-.156.2.2,0,0,0-.113-.1l-3.058-1.29a.178.178,0,0,0-.147,0,.216.216,0,0,0-.1.11l-2.167,5.134a.173.173,0,0,0-.006.144.177.177,0,0,0,.1.1M83.618,7.6l.122.04a.257.257,0,0,0,.311-.122L86.173,4.4l.048,3.765a.259.259,0,0,0,.192.272l.124.037a.224.224,0,0,0,.161,0,.283.283,0,0,0,.124-.127l2.7-4.914.045-.091a.162.162,0,0,0-.014-.13.157.157,0,0,0-.1-.082l-.17-.051a.165.165,0,0,0-.218.068L86.713,7.5,86.7,3.884a.264.264,0,0,0-.2-.263l-.178-.054a.264.264,0,0,0-.311.113L84.006,6.69,84.45,1.76c.011-.088-.04-.144-.141-.175l-.17-.054a.175.175,0,0,0-.13.017.151.151,0,0,0-.082.1l-.014.1-.464,5.584a.3.3,0,0,0,.031.173.24.24,0,0,0,.139.091" transform="translate(38.831 1.799)" fill="#ffa35b"/>
</svg>
