<svg id="Group_24" data-name="Group 24" xmlns="http://www.w3.org/2000/svg" width="527.982" height="117.725" viewBox="0 0 527.982 117.725">
  <path id="Path_25" data-name="Path 25" d="M9.559,0H-5.227V117.725H61.965V104.812H9.559ZM87.792,117.725h72.431V104.812H102.578V64.759h54.276V52.219H102.578V12.727h57.645V0H87.792Zm96.948,0h15.536L210.382,87.78h46.791l10.107,29.945h15.346L243.136,0H225.168Zm49.226-99.57L253.43,76.176H214.311ZM383.412,9.544Q372.839,0,353,0H312.011V117.725H326.8v-48.1h20.588l30.508,48.1h19.089l-33.688-48.85q15.161-2.618,22.927-11.6t7.768-23.581A31.127,31.127,0,0,0,383.412,9.544M326.8,59.331v-46.6H353q12.534,0,19.185,6.271t6.642,16.843q0,10.578-6.831,17.032t-20.118,6.458ZM431.98,0V117.725h14.973V21.9l59.331,95.828h16.472V0H507.969V94.518L449.575,0Z" transform="translate(5.227)" fill="#fff"/>
</svg>
