<svg id="Group_23" data-name="Group 23" xmlns="http://www.w3.org/2000/svg" width="562.793" height="121.844" viewBox="0 0 562.793 121.844">
  <path id="Path_24" data-name="Path 24" d="M9.559,1.331H-5.227V119.056H61.965V106.143H9.559Zm75.8,0v75.24q0,22.086,12.07,33.314T130,121.116q20.494,0,32.658-11.23t12.167-33.314V1.331H160.036v75.24q0,16.472-8.235,23.77t-21.711,7.3q-13.476,0-21.711-7.3t-8.235-23.77V1.331Zm130.262,0V119.056h14.973V23.229l59.331,95.828H306.4V1.331H291.61V95.849L233.216,1.331ZM354.5,15.088Q340.46,30.906,340.458,59.166t13.57,45.1q13.57,16.845,35.563,16.845t34.624-10.857q12.632-10.85,12.633-29.382H420.939q0,12.169-8.141,19.558t-22.18,7.392q-16.841,0-25.547-13.287t-8.7-35.28q0-21.992,9.734-34.344t24.517-12.353a28.667,28.667,0,0,1,18.625,6.458,37.358,37.358,0,0,1,11.7,17.5l15.909-3.182A47.924,47.924,0,0,0,421.032,8.723Q409.521-.722,390.617-.728q-22.086,0-36.121,15.816M470.163,1.331V119.056h14.786V65.9H542.78v53.153h14.786V1.331H542.78V53.174H484.949V1.331Z" transform="translate(5.227 0.728)" fill="#fff"/>
</svg>
