<svg xmlns="http://www.w3.org/2000/svg" width="41.125" height="41.134" viewBox="0 0 41.125 41.134">
  <g id="Group_2384" data-name="Group 2384" transform="translate(13.045 -855.421)">
    <g id="Group_2382" data-name="Group 2382" transform="translate(-13.045 855.421)">
      <path id="Path_26" data-name="Path 26" d="M-15.691-.727a.171.171,0,0,0,.132-.036.17.17,0,0,0,.07-.118.173.173,0,0,0-.036-.132.172.172,0,0,0-.118-.069.174.174,0,0,0-.132.035.173.173,0,0,0-.07.118.173.173,0,0,0,.036.133.173.173,0,0,0,.118.069m-2.843.188h.034a.043.043,0,0,0,.03-.011.039.039,0,0,0,.011-.029l0-.439.43-.722a.056.056,0,0,0,.007-.023.034.034,0,0,0-.011-.025.034.034,0,0,0-.025-.011H-18.1a.047.047,0,0,0-.041.027l-.382.636-.4-.628a.048.048,0,0,0-.042-.027H-19a.036.036,0,0,0-.026.011.036.036,0,0,0-.01.025.052.052,0,0,0,.008.024l.445.712,0,.439a.039.039,0,0,0,.011.029.041.041,0,0,0,.029.011m-2,.149a.544.544,0,0,0,.257-.089.392.392,0,0,0,.139-.164.407.407,0,0,0,.035-.188.027.027,0,0,0-.013-.024.04.04,0,0,0-.029-.007l-.036,0a.04.04,0,0,0-.035.042.337.337,0,0,1-.1.228.421.421,0,0,1-.233.091.354.354,0,0,1-.271-.064.423.423,0,0,1-.133-.279c-.005-.034-.012-.084-.02-.151s-.013-.116-.015-.148a.428.428,0,0,1,.066-.3.349.349,0,0,1,.249-.125.413.413,0,0,1,.247.034.338.338,0,0,1,.148.2.039.039,0,0,0,.044.033l.035,0a.045.045,0,0,0,.026-.012.027.027,0,0,0,.008-.024v0a.406.406,0,0,0-.077-.174.388.388,0,0,0-.173-.128.548.548,0,0,0-.27-.027.443.443,0,0,0-.332.172.549.549,0,0,0-.084.366c0,.033.008.086.017.16s.015.125.02.156A.552.552,0,0,0-20.9-.48a.443.443,0,0,0,.363.091m-2.49.439.032-.007a.04.04,0,0,0,.027-.017.042.042,0,0,0,0-.031l-.223-.964.87.833a.042.042,0,0,0,.041.013l.039-.009a.039.039,0,0,0,.025-.018.04.04,0,0,0,0-.031l-.263-1.143a.042.042,0,0,0-.017-.027.039.039,0,0,0-.032,0l-.032.007a.037.037,0,0,0-.025.018.042.042,0,0,0,0,.031l.223.966-.872-.836a.043.043,0,0,0-.042-.013l-.036.008a.036.036,0,0,0-.026.018.042.042,0,0,0,0,.031L-23.074.02a.039.039,0,0,0,.017.026.036.036,0,0,0,.03,0m-1.89.591L-24.243.4a.043.043,0,0,0,.024-.02.036.036,0,0,0,0-.03l-.009-.026A.041.041,0,0,0-24.246.3a.043.043,0,0,0-.032,0l-.6.211L-25.04.066l.554-.194a.041.041,0,0,0,.024-.02.037.037,0,0,0,0-.031L-24.469-.2a.041.041,0,0,0-.02-.026.043.043,0,0,0-.032,0l-.553.194-.151-.432.59-.206a.041.041,0,0,0,.024-.02.035.035,0,0,0,0-.031l-.009-.026a.038.038,0,0,0-.02-.025.038.038,0,0,0-.032,0l-.66.23a.039.039,0,0,0-.023.021.041.041,0,0,0,0,.032l.387,1.108a.037.037,0,0,0,.02.023.038.038,0,0,0,.03,0m-1.576.683a.525.525,0,0,0,.209-.167.407.407,0,0,0,.077-.225.526.526,0,0,0-.057-.253l-.067-.142a.041.041,0,0,0-.023-.023.039.039,0,0,0-.032,0l-.346.164A.038.038,0,0,0-26.754.7a.038.038,0,0,0,0,.031l.011.023a.04.04,0,0,0,.022.022.039.039,0,0,0,.032,0l.281-.134.039.082a.364.364,0,0,1,.029.3.378.378,0,0,1-.2.2.368.368,0,0,1-.277.03.4.4,0,0,1-.215-.213c-.017-.032-.041-.08-.071-.144s-.054-.114-.068-.147A.4.4,0,0,1-27.2.45.361.361,0,0,1-27,.255a.382.382,0,0,1,.239-.043.32.32,0,0,1,.175.094.076.076,0,0,0,.025.02.033.033,0,0,0,.024,0L-26.5.305a.04.04,0,0,0,.021-.02.032.032,0,0,0,0-.026l0,0a.3.3,0,0,0-.108-.1.432.432,0,0,0-.2-.055.526.526,0,0,0-.256.058.459.459,0,0,0-.259.266.5.5,0,0,0,.03.368l.072.155c.033.07.058.121.075.153a.5.5,0,0,0,.267.256.456.456,0,0,0,.369-.033m-2.422.008.6.461-.468.285Zm.155,1.225.031-.018a.041.041,0,0,0,.018-.021.049.049,0,0,0,0-.022l-.054-.3.542-.33.244.188a.061.061,0,0,0,.021.008.037.037,0,0,0,.027-.006l.031-.018a.035.035,0,0,0,.015-.022.036.036,0,0,0,0-.027l-.013-.015-.992-.759a.052.052,0,0,0-.063,0l-.052.032a.053.053,0,0,0-.026.057l.217,1.23.007.018a.034.034,0,0,0,.023.016.033.033,0,0,0,.026,0M-30.84,3.65a.173.173,0,0,0,.063-.122.176.176,0,0,0-.041-.131.175.175,0,0,0-.122-.063.174.174,0,0,0-.131.041.173.173,0,0,0-.063.122.174.174,0,0,0,.041.131.173.173,0,0,0,.122.063.174.174,0,0,0,.131-.041m-1.817,2.273a.531.531,0,0,0,.128-.235.41.41,0,0,0-.015-.238.543.543,0,0,0-.15-.212l-.117-.105a.042.042,0,0,0-.03-.012.041.041,0,0,0-.029.015l-.256.285a.034.034,0,0,0-.01.029.038.038,0,0,0,.014.028l.019.017a.038.038,0,0,0,.029.012.035.035,0,0,0,.028-.014l.209-.232.068.062a.367.367,0,0,1,.141.264.378.378,0,0,1-.109.263.364.364,0,0,1-.243.134.4.4,0,0,1-.281-.113l-.121-.107-.119-.109a.4.4,0,0,1-.143-.267.365.365,0,0,1,.107-.257.381.381,0,0,1,.2-.131.32.32,0,0,1,.2.019.066.066,0,0,0,.031.008.03.03,0,0,0,.021-.013l.026-.029a.037.037,0,0,0,.011-.026.029.029,0,0,0-.01-.024l0,0a.3.3,0,0,0-.14-.052.436.436,0,0,0-.2.025.526.526,0,0,0-.214.153.459.459,0,0,0-.136.345.507.507,0,0,0,.17.329c.026.024.067.063.125.115s.1.089.128.112a.5.5,0,0,0,.345.134.462.462,0,0,0,.328-.172m-1.578,1.982.018-.026a.039.039,0,0,0,.008-.03.036.036,0,0,0-.017-.026l-.807-.572,1.2.044a.045.045,0,0,0,.039-.018l.023-.032a.036.036,0,0,0,.007-.03.044.044,0,0,0-.018-.026l-.957-.678a.04.04,0,0,0-.031-.009.043.043,0,0,0-.026.018l-.019.026a.041.041,0,0,0-.007.03A.041.041,0,0,0-34.8,6.6l.809.573L-35.2,7.132a.045.045,0,0,0-.039.018l-.021.03a.037.037,0,0,0-.007.03.037.037,0,0,0,.018.026l.958.679a.037.037,0,0,0,.029.008.034.034,0,0,0,.026-.017m-.727,1.161.017-.03a.04.04,0,0,0,.005-.03.039.039,0,0,0-.02-.023l-1.015-.595A.039.039,0,0,0-36,8.383a.037.037,0,0,0-.024.02l-.017.029a.039.039,0,0,0-.005.03.042.042,0,0,0,.019.024l1.015.595a.041.041,0,0,0,.03.005.037.037,0,0,0,.024-.019M-36,10.852l-.942-.44.127-.271a.408.408,0,0,1,.21-.233.419.419,0,0,1,.306.038l.121.055.121.058a.61.61,0,0,1,.188.133.236.236,0,0,1,.06.16.54.54,0,0,1-.061.22Zm.067.112.165-.354a.673.673,0,0,0,.075-.284.309.309,0,0,0-.078-.2A.738.738,0,0,0-36,9.962c-.032-.017-.075-.037-.129-.062s-.1-.045-.129-.058a.738.738,0,0,0-.265-.07.32.32,0,0,0-.21.072.661.661,0,0,0-.174.244l-.161.346a.036.036,0,0,0,0,.031.043.043,0,0,0,.022.023l1.064.5a.037.037,0,0,0,.03,0,.039.039,0,0,0,.022-.021m-.754,2.009.01-.031a.04.04,0,0,0,0-.031.036.036,0,0,0-.023-.02l-.939-.315,1.166-.3a.043.043,0,0,0,.032-.029l.013-.037a.037.037,0,0,0,0-.031.039.039,0,0,0-.024-.02l-1.111-.374a.045.045,0,0,0-.032,0,.043.043,0,0,0-.02.026l-.01.03a.037.037,0,0,0,0,.031.039.039,0,0,0,.024.02l.94.316-1.169.305a.044.044,0,0,0-.032.029l-.012.036a.035.035,0,0,0,0,.031.043.043,0,0,0,.024.02l1.113.374a.038.038,0,0,0,.03,0,.037.037,0,0,0,.02-.023m-1.536,1.411.748-.116-.118.536Zm.993.734.008-.035a.039.039,0,0,0,0-.027.045.045,0,0,0-.014-.017l-.256-.17.136-.62.3-.046a.076.076,0,0,0,.02-.01.039.039,0,0,0,.014-.024l.008-.035a.037.037,0,0,0,0-.027.037.037,0,0,0-.023-.015h-.02l-1.234.194a.051.051,0,0,0-.046.043l-.013.059a.052.052,0,0,0,.024.059l1.039.693.018.008a.036.036,0,0,0,.027-.005.033.033,0,0,0,.016-.022m-.9,1.776-.506-.055.036-.334a.356.356,0,0,1,.089-.223.235.235,0,0,1,.2-.055.232.232,0,0,1,.181.1.353.353,0,0,1,.038.237Zm.626.142,0-.032a.043.043,0,0,0-.007-.03.038.038,0,0,0-.027-.015l-.488-.053.04-.368.51-.231a.14.14,0,0,0,.04-.024.057.057,0,0,0,.015-.039l0-.021a.037.037,0,0,0-.008-.026.033.033,0,0,0-.024-.013.052.052,0,0,0-.02,0l-.52.234a.349.349,0,0,0-.095-.212.354.354,0,0,0-.219-.095.335.335,0,0,0-.281.079.46.46,0,0,0-.124.291l-.045.415a.037.037,0,0,0,.008.03.042.042,0,0,0,.029.014l1.167.128a.036.036,0,0,0,.03-.007.039.039,0,0,0,.014-.027m-.185,2.014h-.495v-.389a.286.286,0,0,1,.069-.2.234.234,0,0,1,.179-.073.233.233,0,0,1,.178.074.285.285,0,0,1,.069.2Zm-.6,0h-.437v-.371a.327.327,0,0,1,.054-.2.189.189,0,0,1,.16-.069.207.207,0,0,1,.166.069.3.3,0,0,1,.058.2Zm.71.075v-.48a.4.4,0,0,0-.049-.2.325.325,0,0,0-.131-.128.362.362,0,0,0-.175-.044.335.335,0,0,0-.187.052.342.342,0,0,0-.12.13.277.277,0,0,0-.1-.111.3.3,0,0,0-.174-.047.309.309,0,0,0-.229.091.364.364,0,0,0-.092.268v.468a.037.037,0,0,0,.012.029.041.041,0,0,0,.029.011l1.175,0a.039.039,0,0,0,.029-.011.039.039,0,0,0,.011-.029m-.148,2.523a.173.173,0,0,0-.07-.117.171.171,0,0,0-.133-.033.168.168,0,0,0-.117.071.171.171,0,0,0-.034.132.172.172,0,0,0,.071.117.175.175,0,0,0,.133.034.176.176,0,0,0,.117-.071.175.175,0,0,0,.033-.133m1.059,2.989-.206-.683a.043.043,0,0,0-.019-.025.037.037,0,0,0-.031,0l-.026.008a.043.043,0,0,0-.026.019.04.04,0,0,0,0,.032l.185.613-.455.138-.17-.561a.039.039,0,0,0-.019-.025.034.034,0,0,0-.03,0l-.026.008a.042.042,0,0,0-.026.018.044.044,0,0,0,0,.033l.17.561-.437.132-.181-.6a.045.045,0,0,0-.019-.026.039.039,0,0,0-.031,0l-.026.007a.044.044,0,0,0-.026.02.042.042,0,0,0,0,.032l.2.669a.041.041,0,0,0,.02.024.044.044,0,0,0,.032,0l1.124-.34a.038.038,0,0,0,.024-.018.038.038,0,0,0,0-.03m.6,1.616-.019-.046a.06.06,0,0,0-.063-.039l-1.228.063-.02,0a.034.034,0,0,0-.018.02.034.034,0,0,0,0,.027l.015.034a.039.039,0,0,0,.018.021.056.056,0,0,0,.022.005l1.164-.061-.861.786a.045.045,0,0,0-.011.019.037.037,0,0,0,0,.027l.014.035a.033.033,0,0,0,.02.019.034.034,0,0,0,.027,0l.017-.011.906-.83a.061.061,0,0,0,.015-.073m.732,1.543-.016-.03a.041.041,0,0,0-.023-.021.043.043,0,0,0-.03,0l-1.04.549a.04.04,0,0,0-.02.023.04.04,0,0,0,0,.03l.016.03a.04.04,0,0,0,.023.02.037.037,0,0,0,.03,0l1.04-.55a.038.038,0,0,0,.02-.023.043.043,0,0,0,0-.03m.83,1.419-.018-.027a.04.04,0,0,0-.025-.019.036.036,0,0,0-.03.005l-.933.6-.191-.3a.043.043,0,0,0-.025-.019.038.038,0,0,0-.03.006l-.023.014a.042.042,0,0,0-.02.026.044.044,0,0,0,.008.032l.443.691a.037.037,0,0,0,.026.018.042.042,0,0,0,.03-.007l.023-.014a.04.04,0,0,0,.018-.025.04.04,0,0,0-.006-.03l-.192-.3.933-.6a.041.041,0,0,0,.018-.024.039.039,0,0,0-.006-.03m.186,2.2.387-.651.338.431Zm1.2-.3-.022-.028a.039.039,0,0,0-.024-.015.053.053,0,0,0-.022,0l-.294.089-.392-.5.157-.265a.051.051,0,0,0,.005-.021.032.032,0,0,0-.009-.026l-.022-.029a.035.035,0,0,0-.024-.013.033.033,0,0,0-.026.007l-.014.015-.635,1.075a.052.052,0,0,0,0,.063l.038.048a.052.052,0,0,0,.06.018l1.2-.362.017-.009a.034.034,0,0,0,.013-.024.035.035,0,0,0-.007-.027m1.253,1.363-.5-.511a.039.039,0,0,0-.028-.014.04.04,0,0,0-.029.011l-.019.019a.044.044,0,0,0-.014.029.043.043,0,0,0,.014.03l.447.458-.34.331-.409-.42a.045.045,0,0,0-.029-.014.037.037,0,0,0-.029.012l-.02.018a.047.047,0,0,0-.014.029.043.043,0,0,0,.014.029l.409.42-.327.319-.437-.448a.044.044,0,0,0-.029-.014.038.038,0,0,0-.029.012l-.019.019a.039.039,0,0,0-.014.029.043.043,0,0,0,.013.03l.489.5a.035.035,0,0,0,.028.013.04.04,0,0,0,.029-.013l.84-.819a.039.039,0,0,0,.013-.028.038.038,0,0,0-.013-.028m1.075,1.82-.326.391-.257-.215a.352.352,0,0,1-.137-.2.231.231,0,0,1,.063-.195.237.237,0,0,1,.181-.1.356.356,0,0,1,.219.1Zm.465-.443-.024-.02a.047.047,0,0,0-.03-.011.039.039,0,0,0-.027.015l-.315.377L-31,33.982l.09-.553a.141.141,0,0,0,0-.046.056.056,0,0,0-.023-.035l-.017-.014a.035.035,0,0,0-.026-.008.032.032,0,0,0-.024.013.038.038,0,0,0-.008.018l-.093.562a.351.351,0,0,0-.23-.038.349.349,0,0,0-.2.131.333.333,0,0,0-.089.278.46.46,0,0,0,.174.264l.321.268a.038.038,0,0,0,.03.01.041.041,0,0,0,.027-.016l.752-.9a.039.039,0,0,0,.011-.029.039.039,0,0,0-.015-.027m1.386.986a.545.545,0,0,0-.254-.1.4.4,0,0,0-.212.036.409.409,0,0,0-.147.12.028.028,0,0,0-.007.027.042.042,0,0,0,.018.024l.03.02a.038.038,0,0,0,.054-.01.341.341,0,0,1,.222-.111.415.415,0,0,1,.237.082.351.351,0,0,1,.166.223.431.431,0,0,1-.078.3c-.018.03-.046.072-.083.128s-.065.1-.084.123a.427.427,0,0,1-.245.188.351.351,0,0,1-.271-.066.411.411,0,0,1-.167-.186.341.341,0,0,1,.015-.248.039.039,0,0,0-.012-.053l-.03-.02a.043.043,0,0,0-.027-.008.029.029,0,0,0-.022.014l0,0a.4.4,0,0,0-.054.183.4.4,0,0,0,.049.209.551.551,0,0,0,.189.2.445.445,0,0,0,.365.083.549.549,0,0,0,.3-.225c.02-.027.05-.072.091-.133s.069-.1.086-.133a.55.55,0,0,0,.091-.364.44.44,0,0,0-.218-.3m2.334,1.742a.172.172,0,0,0-.136-.006.171.171,0,0,0-.1.092.172.172,0,0,0-.006.136.173.173,0,0,0,.092.1.172.172,0,0,0,.136.005.173.173,0,0,0,.1-.092.172.172,0,0,0,.005-.136.169.169,0,0,0-.092-.1m2.955.73-.661-.2a.042.042,0,0,0-.031,0,.038.038,0,0,0-.02.024l-.008.026a.04.04,0,0,0,0,.032.041.041,0,0,0,.026.019l.591.182-.327,1.058a.039.039,0,0,0,0,.031.042.042,0,0,0,.024.018l.032.01a.039.039,0,0,0,.031,0,.039.039,0,0,0,.018-.024l.346-1.124a.038.038,0,0,0,0-.03.04.04,0,0,0-.024-.019m1.448,1.507-.135-.745.538.1Zm.709-1.011-.035-.007a.038.038,0,0,0-.027,0,.047.047,0,0,0-.017.015l-.163.26-.623-.121-.055-.3a.044.044,0,0,0-.01-.02.038.038,0,0,0-.024-.014l-.035-.007a.032.032,0,0,0-.027.006.03.03,0,0,0-.015.022v.02L-22.3,38.9a.052.052,0,0,0,.044.045l.06.012a.052.052,0,0,0,.058-.026l.666-1.056.008-.018a.039.039,0,0,0-.006-.027.037.037,0,0,0-.023-.015m1.369.179-.032,0a.041.041,0,0,0-.031.008.04.04,0,0,0-.014.027l-.106,1.1-.352-.034a.045.045,0,0,0-.03.008.038.038,0,0,0-.014.027l0,.027a.042.042,0,0,0,.008.032.041.041,0,0,0,.029.014l.818.079a.036.036,0,0,0,.029-.009.04.04,0,0,0,.014-.028l0-.027a.041.041,0,0,0-.008-.03.04.04,0,0,0-.027-.014l-.353-.034.107-1.1A.041.041,0,0,0-20.1,38a.035.035,0,0,0-.027-.013m1.641.09h-.034a.04.04,0,0,0-.029.011.04.04,0,0,0-.011.029l-.017,1.176a.041.041,0,0,0,.01.029.039.039,0,0,0,.029.011h.034a.039.039,0,0,0,.029-.011.036.036,0,0,0,.011-.028l.017-1.176a.037.037,0,0,0-.01-.029.042.042,0,0,0-.029-.011m1.716-.073a.521.521,0,0,0-.254.082.41.41,0,0,0-.153.182.545.545,0,0,0-.037.257l.013.157a.046.046,0,0,0,.013.03.043.043,0,0,0,.031.008l.383-.03a.035.035,0,0,0,.027-.014.039.039,0,0,0,.008-.03l0-.026a.041.041,0,0,0-.013-.029.037.037,0,0,0-.03-.009l-.31.024-.008-.091a.362.362,0,0,1,.08-.288.379.379,0,0,1,.26-.116.365.365,0,0,1,.269.07.4.4,0,0,1,.126.276c0,.036.009.089.015.161s.009.125.011.161a.4.4,0,0,1-.08.292.364.364,0,0,1-.254.113.389.389,0,0,1-.238-.046.318.318,0,0,1-.13-.15.086.086,0,0,0-.016-.027.036.036,0,0,0-.024-.005l-.039,0a.042.042,0,0,0-.026.011.028.028,0,0,0-.009.024v0a.3.3,0,0,0,.066.134.429.429,0,0,0,.165.123.528.528,0,0,0,.26.036.455.455,0,0,0,.336-.156.5.5,0,0,0,.1-.355c0-.036-.006-.092-.012-.17s-.011-.134-.015-.17a.5.5,0,0,0-.157-.334.458.458,0,0,0-.357-.1m1.748-.2-.034.006a.038.038,0,0,0-.026.015.039.039,0,0,0-.006.03l.194,1.16a.043.043,0,0,0,.015.026.04.04,0,0,0,.03.006l.033-.006a.04.04,0,0,0,.027-.015A.04.04,0,0,0-14.78,39l-.194-1.16a.038.038,0,0,0-.015-.027.038.038,0,0,0-.03-.006m2.036-.347.265,1.005-.29.077a.411.411,0,0,1-.314-.013.417.417,0,0,1-.166-.259c-.01-.035-.022-.077-.035-.128s-.025-.1-.033-.131a.61.61,0,0,1-.018-.229.236.236,0,0,1,.084-.148.545.545,0,0,1,.209-.095Zm.044-.122-.378.1a.669.669,0,0,0-.266.124.307.307,0,0,0-.106.19.739.739,0,0,0,.023.281c.008.035.02.081.035.139s.027.1.038.136a.719.719,0,0,0,.116.247.316.316,0,0,0,.19.116.657.657,0,0,0,.3-.022l.369-.1a.036.036,0,0,0,.024-.018.044.044,0,0,0,0-.032l-.3-1.135a.038.038,0,0,0-.018-.025.036.036,0,0,0-.03,0m2.474-.513a.174.174,0,0,0-.095.1.171.171,0,0,0,0,.137.175.175,0,0,0,.1.095.173.173,0,0,0,.138,0,.172.172,0,0,0,.095-.1.17.17,0,0,0,0-.136.173.173,0,0,0-.1-.1.176.176,0,0,0-.137,0m2.754-1.882-.027.017a.04.04,0,0,0-.019.025.036.036,0,0,0,.005.03l.524.84-1.094-.506a.042.042,0,0,0-.043,0l-.033.021a.04.04,0,0,0-.018.025.04.04,0,0,0,.007.031l.621.995a.041.041,0,0,0,.025.02.041.041,0,0,0,.032-.007l.027-.017a.035.035,0,0,0,.018-.024.039.039,0,0,0-.007-.031l-.524-.841,1.1.508a.045.045,0,0,0,.044,0l.032-.02a.04.04,0,0,0,.018-.025.045.045,0,0,0-.007-.031l-.622-1a.037.037,0,0,0-.024-.019.041.041,0,0,0-.03.007m1.6-1.167-.561.44a.042.042,0,0,0-.017.027.04.04,0,0,0,.008.03l.017.021a.045.045,0,0,0,.027.017.04.04,0,0,0,.03-.011l.5-.4.293.374-.461.362a.04.04,0,0,0-.017.026.042.042,0,0,0,.009.03l.017.021a.04.04,0,0,0,.027.017.038.038,0,0,0,.031-.01l.461-.362.282.359-.492.387a.041.041,0,0,0-.016.026.035.035,0,0,0,.008.03l.017.021a.041.041,0,0,0,.027.017.042.042,0,0,0,.031-.011l.55-.431a.037.037,0,0,0,.015-.027.041.041,0,0,0-.01-.03l-.725-.924a.037.037,0,0,0-.026-.015.037.037,0,0,0-.029.009m1.29-1.144-.036.035a.06.06,0,0,0-.014.073l.5,1.122.011.017a.033.033,0,0,0,.025.011.033.033,0,0,0,.026-.01l.027-.026a.039.039,0,0,0,.013-.024.052.052,0,0,0,0-.023l-.479-1.063,1.044.518a.059.059,0,0,0,.022,0,.04.04,0,0,0,.025-.011l.027-.027A.032.032,0,0,0-3.62,33.2a.036.036,0,0,0-.01-.026l-.016-.011-1.1-.544a.06.06,0,0,0-.073.011m1.173-1.241-.023.026a.039.039,0,0,0-.011.029.041.041,0,0,0,.015.027l.889.77a.04.04,0,0,0,.029.011.041.041,0,0,0,.027-.015l.023-.026a.039.039,0,0,0,.011-.029.042.042,0,0,0-.015-.027l-.889-.769a.039.039,0,0,0-.029-.011.037.037,0,0,0-.027.015m1.744-1.2.414.3-.2.272a.357.357,0,0,1-.187.152.239.239,0,0,1-.2-.049.239.239,0,0,1-.111-.173.357.357,0,0,1,.084-.226Zm-.476-.432-.018.026a.042.042,0,0,0-.008.03.035.035,0,0,0,.016.026l.4.286-.215.3-.558-.049a.128.128,0,0,0-.046,0,.059.059,0,0,0-.033.026l-.013.018a.033.033,0,0,0-.006.027.033.033,0,0,0,.014.023.043.043,0,0,0,.019.007l.567.052a.349.349,0,0,0-.022.231.353.353,0,0,0,.145.19.332.332,0,0,0,.284.069A.46.46,0,0,0-1.6,30.83l.243-.339a.038.038,0,0,0,.008-.03.045.045,0,0,0-.018-.027l-.954-.684a.041.041,0,0,0-.03-.008.038.038,0,0,0-.026.017m1.174-1.7.9.515-.148.26a.407.407,0,0,1-.229.216.42.42,0,0,1-.3-.063c-.032-.017-.07-.038-.116-.064l-.116-.068a.61.61,0,0,1-.177-.148.234.234,0,0,1-.047-.164.544.544,0,0,1,.078-.215Zm-.057-.117-.194.34a.662.662,0,0,0-.1.277.306.306,0,0,0,.061.209.745.745,0,0,0,.216.18l.124.073c.051.029.092.052.124.069a.716.716,0,0,0,.258.09.318.318,0,0,0,.216-.054A.67.67,0,0,0-.362,28.9l.189-.332a.04.04,0,0,0,0-.03.046.046,0,0,0-.021-.024l-1.02-.581a.04.04,0,0,0-.03,0,.039.039,0,0,0-.023.02M.1,25.817a.173.173,0,0,0,0,.136.17.17,0,0,0,.1.095.17.17,0,0,0,.136,0,.179.179,0,0,0-.008-.331.169.169,0,0,0-.137,0,.172.172,0,0,0-.095.1m1.574-2.565-.75.111.121-.535Zm-.989-.741-.008.035a.035.035,0,0,0,0,.027.059.059,0,0,0,.015.017l.255.172-.14.619-.3.045a.043.043,0,0,0-.035.032l-.008.035a.036.036,0,0,0,.027.043h.02l1.235-.185a.053.053,0,0,0,.047-.043l.013-.06a.051.051,0,0,0-.023-.058l-1.035-.7-.018-.008a.033.033,0,0,0-.027,0,.033.033,0,0,0-.016.022M.9,21.147l0,.032A.046.046,0,0,0,.9,21.21a.036.036,0,0,0,.027.015l1.1.142-.045.35a.045.045,0,0,0,.007.031.037.037,0,0,0,.027.015l.027,0a.04.04,0,0,0,.032-.007.039.039,0,0,0,.014-.029l.1-.815a.034.034,0,0,0-.008-.029.04.04,0,0,0-.028-.015l-.027,0a.042.042,0,0,0-.03.007.041.041,0,0,0-.014.027l-.045.352-1.1-.141a.039.039,0,0,0-.03.007.041.041,0,0,0-.014.027m1.269-1.813-.714.255.015-.548ZM1.052,18.8v.036a.037.037,0,0,0,.008.026.059.059,0,0,0,.017.014l.284.119-.017.635-.29.1a.049.049,0,0,0-.018.013.036.036,0,0,0-.01.026v.036a.033.033,0,0,0,.01.025.035.035,0,0,0,.024.011l.02,0,1.175-.422a.052.052,0,0,0,.038-.051l0-.061a.053.053,0,0,0-.035-.053l-1.151-.485-.02,0a.032.032,0,0,0-.025.01.031.031,0,0,0-.011.024m.014-1.916L2.1,16.8l.024.3a.41.41,0,0,1-.069.307.414.414,0,0,1-.284.117l-.132.013-.134.009a.63.63,0,0,1-.229-.022.236.236,0,0,1-.131-.11.551.551,0,0,1-.056-.222Zm-.113-.066.031.39a.666.666,0,0,0,.074.284.309.309,0,0,0,.168.138.743.743,0,0,0,.281.027l.143-.01.141-.013a.723.723,0,0,0,.265-.07A.319.319,0,0,0,2.2,17.4a.671.671,0,0,0,.031-.3l-.03-.38a.038.038,0,0,0-.014-.028.044.044,0,0,0-.03-.008l-1.17.092a.042.042,0,0,0-.028.013.038.038,0,0,0-.008.029M.889,14.292a.18.18,0,0,0,.216.132.167.167,0,0,0,.11-.08.176.176,0,0,0-.058-.246.175.175,0,0,0-.135-.023.172.172,0,0,0-.111.081.174.174,0,0,0-.022.135M.751,11.281.2,11.8l-.2-.51ZM-.483,11.23l.013.033a.035.035,0,0,0,.018.021.045.045,0,0,0,.021.006l.307,0,.235.59-.225.209a.048.048,0,0,0-.012.02.035.035,0,0,0,0,.027l.013.034a.036.036,0,0,0,.02.019.034.034,0,0,0,.027,0l.017-.011.914-.852a.051.051,0,0,0,.014-.061l-.023-.057a.052.052,0,0,0-.052-.035l-1.248.009-.02,0a.036.036,0,0,0-.019.02.032.032,0,0,0,0,.027M-1.2,8.993a.173.173,0,0,0,.109.083.168.168,0,0,0,.135-.017A.17.17,0,0,0-.874,8.95a.172.172,0,0,0-.017-.136A.172.172,0,0,0-1,8.73a.173.173,0,0,0-.136.017.173.173,0,0,0-.083.108.171.171,0,0,0,.017.136m-2.075-2.4.44.562a.044.044,0,0,0,.027.016.035.035,0,0,0,.03-.008l.021-.017a.041.041,0,0,0,.018-.027.044.044,0,0,0-.011-.03l-.394-.5.373-.293.362.461a.041.041,0,0,0,.027.017.036.036,0,0,0,.03-.009l.021-.016a.043.043,0,0,0,.017-.027.042.042,0,0,0-.01-.03l-.362-.461.359-.282.386.492a.042.042,0,0,0,.027.017.037.037,0,0,0,.03-.008l.021-.017A.041.041,0,0,0-1.847,6.4a.042.042,0,0,0-.011-.03l-.431-.55a.035.035,0,0,0-.027-.015.04.04,0,0,0-.03.01l-.924.725a.037.037,0,0,0-.016.026.039.039,0,0,0,.009.029M-4.15,4.671l.366-.353.233.241a.357.357,0,0,1,.115.212.234.234,0,0,1-.085.187.235.235,0,0,1-.191.077.36.36,0,0,1-.207-.123Zm-.511.39.023.023A.041.041,0,0,0-4.61,5.1a.038.038,0,0,0,.029-.011l.353-.341.256.266-.15.539a.146.146,0,0,0-.007.046.06.06,0,0,0,.02.037l.015.015a.033.033,0,0,0,.024.01.032.032,0,0,0,.026-.009.057.057,0,0,0,.011-.018l.154-.549a.347.347,0,0,0,.223.063.354.354,0,0,0,.213-.108.331.331,0,0,0,.119-.266.459.459,0,0,0-.144-.282l-.29-.3a.035.035,0,0,0-.029-.013.039.039,0,0,0-.029.013l-.846.815a.038.038,0,0,0-.013.027.038.038,0,0,0,.012.028m-.545-2.013-.242.718-.421-.352Zm-1.109.543.027.023a.037.037,0,0,0,.026.01.071.071,0,0,0,.022,0l.269-.15.487.407-.1.291a.047.047,0,0,0,0,.023.038.038,0,0,0,.014.024l.027.023a.032.032,0,0,0,.026.008.034.034,0,0,0,.024-.012l.01-.018.4-1.184A.051.051,0,0,0-5.1,2.97l-.046-.039a.053.053,0,0,0-.063-.006l-1.094.6-.015.013a.035.035,0,0,0-.008.026.035.035,0,0,0,.013.024M-8.022,1.976A.172.172,0,0,0-7.886,2a.171.171,0,0,0,.111-.08.175.175,0,0,0,.021-.136.17.17,0,0,0-.08-.111A.173.173,0,0,0-7.97,1.65a.171.171,0,0,0-.111.08.171.171,0,0,0-.021.135.17.17,0,0,0,.08.111M-11,.877l.657.277a.042.042,0,0,0,.032,0,.034.034,0,0,0,.021-.022l.011-.024a.04.04,0,0,0,0-.033.041.041,0,0,0-.024-.021l-.589-.249L-10.7.369l.54.228a.048.048,0,0,0,.032,0,.042.042,0,0,0,.022-.022l.01-.025a.039.039,0,0,0,0-.032A.038.038,0,0,0-10.121.5l-.54-.228.178-.421.577.243a.04.04,0,0,0,.031,0A.037.037,0,0,0-9.854.072l.011-.024a.042.042,0,0,0,0-.033.043.043,0,0,0-.024-.021l-.644-.272a.038.038,0,0,0-.031,0,.046.046,0,0,0-.021.023L-11.018.825a.036.036,0,0,0,0,.03A.037.037,0,0,0-11,.877m-2.038-.7.026.008a.054.054,0,0,0,.066-.026l.447-.656.01.793a.055.055,0,0,0,.041.057l.026.008a.047.047,0,0,0,.034,0A.06.06,0,0,0-12.36.339L-11.792-.7l.01-.019a.034.034,0,0,0,0-.027.033.033,0,0,0-.021-.017l-.036-.011a.035.035,0,0,0-.046.014l-.5.918,0-.763a.056.056,0,0,0-.042-.055l-.038-.011a.056.056,0,0,0-.066.024l-.423.634.094-1.039c0-.018-.008-.03-.03-.037l-.036-.011a.037.037,0,0,0-.027,0,.032.032,0,0,0-.017.021l0,.021-.1,1.176a.063.063,0,0,0,.007.036.05.05,0,0,0,.029.019" transform="translate(38.831 1.799)" fill="#242424"/>
    </g>
    <g id="Group_2383" data-name="Group 2383" transform="translate(-3.418 865.047)">
      <path id="Path_27" data-name="Path 27" d="M-.827,0A1.865,1.865,0,0,0-2.709,1.949v7.1H-9.817a1.887,1.887,0,0,0-1.945,1.883,1.864,1.864,0,0,0,1.945,1.883h7.108v7.108A1.891,1.891,0,0,0-.827,21.878a1.866,1.866,0,0,0,1.884-1.952V12.818H8.164a1.887,1.887,0,0,0,1.945-1.883A1.864,1.864,0,0,0,8.164,9.053H1.057v-7.1A1.889,1.889,0,0,0-.827,0" transform="translate(11.762)" fill="#242424"/>
    </g>
  </g>
</svg>
