<svg xmlns="http://www.w3.org/2000/svg" xmlns:xlink="http://www.w3.org/1999/xlink" width="696.348" height="696.496" viewBox="0 0 696.348 696.496">
  <defs>
    <clipPath id="clip-path">
      <path id="Path_52" data-name="Path 52" d="M0-235.312H696.348v-696.5H0Z" transform="translate(0 931.808)" fill="none"/>
    </clipPath>
  </defs>
  <g id="Group_56" data-name="Group 56" clip-path="url(#clip-path)">
    <g id="Group_55" data-name="Group 55" transform="translate(0 0.001)">
      <path id="Path_51" data-name="Path 51" d="M-132.378-6.133a2.9,2.9,0,0,0,2.242-.6,2.905,2.905,0,0,0,1.174-2,2.937,2.937,0,0,0-.6-2.24,2.928,2.928,0,0,0-2-1.176,2.924,2.924,0,0,0-2.242.6,2.906,2.906,0,0,0-1.175,2,2.9,2.9,0,0,0,.6,2.242,2.9,2.9,0,0,0,2,1.174m-48.141,3.185.578-.007a.721.721,0,0,0,.5-.19.626.626,0,0,0,.192-.487l-.079-7.439,7.281-12.216a1.049,1.049,0,0,0,.117-.4.6.6,0,0,0-.186-.422.615.615,0,0,0-.428-.179l-.608.006a.813.813,0,0,0-.7.466l-6.469,10.784-6.7-10.644a.8.8,0,0,0-.709-.448l-.6.007a.57.57,0,0,0-.428.185.568.568,0,0,0-.173.424.886.886,0,0,0,.124.4l7.532,12.064.08,7.432a.638.638,0,0,0,.187.484.645.645,0,0,0,.49.181M-214.426-.424a9.278,9.278,0,0,0,4.351-1.5,6.7,6.7,0,0,0,2.35-2.781,6.889,6.889,0,0,0,.59-3.175.471.471,0,0,0-.219-.416.7.7,0,0,0-.486-.111l-.6.07c-.362.044-.559.283-.59.71a5.737,5.737,0,0,1-1.653,3.864,7.052,7.052,0,0,1-3.948,1.532,5.96,5.96,0,0,1-4.588-1.082,7.219,7.219,0,0,1-2.266-4.723c-.087-.576-.2-1.428-.329-2.558s-.22-1.959-.264-2.507a7.26,7.26,0,0,1,1.114-5.113,5.963,5.963,0,0,1,4.221-2.109,7.021,7.021,0,0,1,4.187.58,5.736,5.736,0,0,1,2.5,3.378c.134.411.38.6.743.553l.6-.07a.713.713,0,0,0,.431-.2.474.474,0,0,0,.134-.413l-.006-.063a6.883,6.883,0,0,0-1.308-2.949,6.641,6.641,0,0,0-2.924-2.162,9.231,9.231,0,0,0-4.577-.46q-3.922.456-5.621,2.9a9.348,9.348,0,0,0-1.417,6.2c.047.561.141,1.466.29,2.716.141,1.225.258,2.109.341,2.647a9.35,9.35,0,0,0,2.8,5.713q2.226,1.986,6.138,1.527m-42.162,7.443.533-.121a.7.7,0,0,0,.448-.286.646.646,0,0,0,.082-.522l-3.767-16.322,14.724,14.11a.737.737,0,0,0,.7.211l.651-.153a.63.63,0,0,0,.427-.3.676.676,0,0,0,.064-.525L-247.19-16.24a.709.709,0,0,0-.29-.462.706.706,0,0,0-.545-.061l-.533.121a.634.634,0,0,0-.427.3.718.718,0,0,0-.071.531L-245.277.548-260.04-13.614a.747.747,0,0,0-.706-.212l-.617.141a.645.645,0,0,0-.434.3.746.746,0,0,0-.064.531l4.477,19.374a.667.667,0,0,0,.285.429.643.643,0,0,0,.513.067m-32.006,9.993,11.4-3.986a.719.719,0,0,0,.41-.339.632.632,0,0,0,.025-.521l-.147-.433a.717.717,0,0,0-.346-.43.714.714,0,0,0-.546,0l-10.231,3.574-2.656-7.591,9.372-3.278a.689.689,0,0,0,.416-.337.638.638,0,0,0,.025-.522l-.149-.426a.693.693,0,0,0-.346-.43.685.685,0,0,0-.546,0l-9.37,3.273-2.552-7.309,10-3.492a.724.724,0,0,0,.415-.336.645.645,0,0,0,.027-.528l-.155-.428a.667.667,0,0,0-.34-.429.687.687,0,0,0-.545,0l-11.178,3.9A.62.62,0,0,0-296-2.7a.7.7,0,0,0-.008.531l6.564,18.776a.66.66,0,0,0,.328.395.666.666,0,0,0,.524.014m-26.7,11.569a8.892,8.892,0,0,0,3.53-2.825,6.9,6.9,0,0,0,1.31-3.817,9.034,9.034,0,0,0-.962-4.284l-1.144-2.414a.687.687,0,0,0-.393-.383.7.7,0,0,0-.544.056l-5.865,2.791a.638.638,0,0,0-.351.386.7.7,0,0,0,.053.531l.182.384a.69.69,0,0,0,.377.374.643.643,0,0,0,.526-.029l4.767-2.27.664,1.393a6.208,6.208,0,0,1,.49,5.05,6.448,6.448,0,0,1-3.42,3.411,6.214,6.214,0,0,1-4.684.516A6.764,6.764,0,0,1-324.4,23.84q-.42-.811-1.2-2.449c-.526-1.1-.9-1.925-1.15-2.483a6.733,6.733,0,0,1-.5-5.107,6.16,6.16,0,0,1,3.349-3.308,6.457,6.457,0,0,1,4.044-.721,5.391,5.391,0,0,1,2.96,1.588,1.316,1.316,0,0,0,.428.335.548.548,0,0,0,.41-.066l.6-.286a.675.675,0,0,0,.346-.333.5.5,0,0,0-.01-.436l-.026-.055a4.989,4.989,0,0,0-1.842-1.725,7.275,7.275,0,0,0-3.359-.938,8.923,8.923,0,0,0-4.34.989,7.746,7.746,0,0,0-4.373,4.506,8.51,8.51,0,0,0,.515,6.238q.369.836,1.214,2.62c.564,1.186.988,2.053,1.269,2.594a8.512,8.512,0,0,0,4.521,4.333,7.76,7.76,0,0,0,6.253-.555m-41.014.125,10.182,7.808-7.94,4.828Zm2.624,20.749.522-.315a.632.632,0,0,0,.3-.361.817.817,0,0,0,.034-.377l-.908-5.128,9.183-5.578,4.131,3.175a.938.938,0,0,0,.35.14.628.628,0,0,0,.454-.1l.523-.315a.585.585,0,0,0,.268-.373.554.554,0,0,0-.067-.46l-.22-.256-16.8-12.847a.871.871,0,0,0-1.065-.061l-.883.533a.891.891,0,0,0-.44.975l3.668,20.825.122.316a.57.57,0,0,0,.379.269.573.573,0,0,0,.453-.063m-35.211,18.528a2.945,2.945,0,0,0,1.07-2.062,2.943,2.943,0,0,0-.683-2.214,2.95,2.95,0,0,0-2.062-1.07,2.9,2.9,0,0,0-2.214.683,2.886,2.886,0,0,0-1.069,2.056,2.912,2.912,0,0,0,.682,2.221,2.929,2.929,0,0,0,2.056,1.069,2.923,2.923,0,0,0,2.221-.682m-30.766,38.489a8.952,8.952,0,0,0,2.17-3.969,6.948,6.948,0,0,0-.259-4.024,9.065,9.065,0,0,0-2.536-3.583l-1.991-1.786a.7.7,0,0,0-.5-.208.7.7,0,0,0-.481.262L-427.6,98a.611.611,0,0,0-.174.491.689.689,0,0,0,.25.472l.315.28a.688.688,0,0,0,.493.2.62.62,0,0,0,.473-.226l3.527-3.935,1.152,1.04a6.19,6.19,0,0,1,2.393,4.471,6.426,6.426,0,0,1-1.844,4.463,6.163,6.163,0,0,1-4.123,2.271,6.736,6.736,0,0,1-4.758-1.922c-.465-.392-1.149-.99-2.055-1.806s-1.576-1.423-2.01-1.846a6.742,6.742,0,0,1-2.425-4.52,6.161,6.161,0,0,1,1.819-4.345,6.5,6.5,0,0,1,3.457-2.221,5.424,5.424,0,0,1,3.34.327,1.258,1.258,0,0,0,.522.144.548.548,0,0,0,.353-.213l.448-.5a.66.66,0,0,0,.188-.439.478.478,0,0,0-.173-.4l-.041-.039a5.071,5.071,0,0,0-2.372-.886,7.3,7.3,0,0,0-3.457.425,8.888,8.888,0,0,0-3.623,2.583,7.787,7.787,0,0,0-2.311,5.843,8.567,8.567,0,0,0,2.883,5.562c.434.422,1.146,1.069,2.125,1.95s1.7,1.511,2.165,1.9a8.528,8.528,0,0,0,5.84,2.266,7.79,7.79,0,0,0,5.563-2.92m-26.717,33.57.313-.444a.69.69,0,0,0,.143-.517.617.617,0,0,0-.282-.442l-13.673-9.683,20.38.745a.761.761,0,0,0,.665-.311l.384-.548a.609.609,0,0,0,.122-.508.726.726,0,0,0-.307-.44l-16.2-11.474a.686.686,0,0,0-.521-.149.722.722,0,0,0-.448.318l-.319.443a.641.641,0,0,0-.117.515.7.7,0,0,0,.3.434l13.7,9.7-20.446-.753a.75.75,0,0,0-.664.311l-.366.52a.619.619,0,0,0-.123.513.706.706,0,0,0,.3.434L-447.3,140.2a.641.641,0,0,0,.5.132.624.624,0,0,0,.431-.29m-12.312,19.649.293-.5a.67.67,0,0,0,.087-.515.649.649,0,0,0-.327-.4l-17.182-10.069a.63.63,0,0,0-.509-.084.616.616,0,0,0-.4.327l-.292.492a.676.676,0,0,0-.092.514.687.687,0,0,0,.327.4l17.182,10.069a.673.673,0,0,0,.513.092.687.687,0,0,0,.4-.327m-17.565,30.246-15.955-7.452,2.149-4.594q1.5-3.216,3.565-3.945c1.381-.481,3.1-.268,5.17.655.558.238,1.245.551,2.048.925.827.384,1.509.715,2.055.987a10.265,10.265,0,0,1,3.186,2.247,3.987,3.987,0,0,1,1.017,2.7,9.09,9.09,0,0,1-1.027,3.737Zm1.126,1.9,2.8-6a11.264,11.264,0,0,0,1.268-4.8,5.215,5.215,0,0,0-1.319-3.447,12.6,12.6,0,0,0-3.9-2.745c-.544-.278-1.273-.624-2.189-1.052-.9-.425-1.625-.752-2.184-.99a12.4,12.4,0,0,0-4.483-1.172,5.352,5.352,0,0,0-3.562,1.221,11.15,11.15,0,0,0-2.953,4.132l-2.734,5.856a.607.607,0,0,0-.025.522.688.688,0,0,0,.375.38l18.015,8.411a.651.651,0,0,0,.517.043.662.662,0,0,0,.372-.365m-12.761,34.012.174-.522a.712.712,0,0,0-.016-.529.62.62,0,0,0-.4-.341l-15.889-5.339,19.733-5.155a.735.735,0,0,0,.546-.49l.215-.632a.64.64,0,0,0-.035-.528.72.72,0,0,0-.416-.333l-18.818-6.319a.719.719,0,0,0-.546.007.713.713,0,0,0-.341.433l-.174.516a.648.648,0,0,0,.035.528.722.722,0,0,0,.416.333l15.913,5.344-19.8,5.166a.733.733,0,0,0-.546.49l-.2.6a.623.623,0,0,0,.031.52.723.723,0,0,0,.422.334l18.847,6.331a.641.641,0,0,0,.518-.019.654.654,0,0,0,.329-.4M-513.9,249.739l12.679-1.968-1.995,9.073Zm16.811,12.434.133-.592a.645.645,0,0,0-.055-.463.848.848,0,0,0-.244-.292l-4.34-2.878,2.308-10.5,5.143-.794a.9.9,0,0,0,.348-.158.612.612,0,0,0,.242-.4l.133-.593a.6.6,0,0,0-.087-.457.612.612,0,0,0-.379-.27l-.338-.013-20.893,3.27a.879.879,0,0,0-.78.727l-.224,1.008a.89.89,0,0,0,.405.993l17.593,11.732.314.132a.583.583,0,0,0,.451-.088.56.56,0,0,0,.268-.373m-15.151,30.075-8.57-.938.615-5.643a6.057,6.057,0,0,1,1.5-3.79,3.973,3.973,0,0,1,3.349-.93,3.977,3.977,0,0,1,3.075,1.635,6,6,0,0,1,.643,4.022Zm10.605,2.411.06-.539a.715.715,0,0,0-.123-.521.654.654,0,0,0-.463-.249l-8.267-.9.676-6.219,8.645-3.91a2.359,2.359,0,0,0,.669-.4,1.02,1.02,0,0,0,.271-.658l.043-.363a.59.59,0,0,0-.139-.444.6.6,0,0,0-.4-.229.875.875,0,0,0-.345.053l-8.8,3.96a5.942,5.942,0,0,0-1.609-3.6,5.973,5.973,0,0,0-3.714-1.6,5.64,5.64,0,0,0-4.759,1.342,7.755,7.755,0,0,0-2.1,4.932l-.768,7.031a.625.625,0,0,0,.145.506.7.7,0,0,0,.479.234l19.763,2.162a.651.651,0,0,0,.5-.127.662.662,0,0,0,.232-.467m-3.13,34.113-8.378-.019.013-6.583a4.913,4.913,0,0,1,1.157-3.463,3.945,3.945,0,0,1,3.039-1.234,3.941,3.941,0,0,1,3.018,1.245,4.874,4.874,0,0,1,1.166,3.465Zm-10.2-.019-7.405-.019.007-6.281a5.534,5.534,0,0,1,.917-3.413,3.225,3.225,0,0,1,2.71-1.165,3.479,3.479,0,0,1,2.8,1.171,5.145,5.145,0,0,1,.977,3.42Zm12.016,1.268.019-8.137a6.657,6.657,0,0,0-.831-3.4,5.618,5.618,0,0,0-2.21-2.171,6.164,6.164,0,0,0-2.957-.75,5.64,5.64,0,0,0-3.16.887,5.838,5.838,0,0,0-2.04,2.2,4.717,4.717,0,0,0-1.661-1.887,5.114,5.114,0,0,0-2.948-.8,5.267,5.267,0,0,0-3.888,1.544,6.17,6.17,0,0,0-1.557,4.546l-.015,7.928a.66.66,0,0,0,.2.486.725.725,0,0,0,.5.182l19.886.037a.64.64,0,0,0,.489-.179.661.661,0,0,0,.179-.484m-2.5,42.71a2.907,2.907,0,0,0-1.2-1.984,2.911,2.911,0,0,0-2.251-.57,2.9,2.9,0,0,0-1.985,1.2,2.928,2.928,0,0,0-.574,2.244,2.921,2.921,0,0,0,1.2,1.985,2.939,2.939,0,0,0,2.25.576,2.938,2.938,0,0,0,1.985-1.2,2.911,2.911,0,0,0,.57-2.251m17.934,50.616-3.5-11.56a.718.718,0,0,0-.321-.431.643.643,0,0,0-.524-.045l-.434.129a.741.741,0,0,0-.444.324.707.707,0,0,0-.025.546l3.143,10.373-7.7,2.331-2.881-9.5a.678.678,0,0,0-.317-.424.616.616,0,0,0-.522-.051l-.436.135a.7.7,0,0,0-.443.319.713.713,0,0,0-.025.546l2.874,9.506-7.407,2.242-3.066-10.14a.744.744,0,0,0-.321-.431.646.646,0,0,0-.524-.045l-.435.129a.709.709,0,0,0-.438.326.689.689,0,0,0-.025.547l3.425,11.334a.649.649,0,0,0,.332.408.712.712,0,0,0,.534.028l19.033-5.761a.664.664,0,0,0,.411-.313.664.664,0,0,0,.031-.52m10.162,27.369-.324-.785a1.025,1.025,0,0,0-1.072-.671l-20.785,1.062-.331.076a.6.6,0,0,0-.321.331.6.6,0,0,0,0,.464l.247.583a.628.628,0,0,0,.307.348.836.836,0,0,0,.371.094l19.7-1.04-14.571,13.3a.917.917,0,0,0-.19.327.627.627,0,0,0,.03.464l.245.589a.573.573,0,0,0,.331.321.564.564,0,0,0,.464.008l.285-.183,15.344-14.058a1.022,1.022,0,0,0,.27-1.233m12.4,26.126-.268-.513a.657.657,0,0,0-.388-.345.684.684,0,0,0-.516.068l-17.6,9.3a.659.659,0,0,0-.345.389.656.656,0,0,0,.063.514l.274.508a.657.657,0,0,0,.388.345.657.657,0,0,0,.515-.063l17.605-9.31a.643.643,0,0,0,.345-.388.661.661,0,0,0-.069-.51m14.053,24.016-.3-.463a.719.719,0,0,0-.425-.321.626.626,0,0,0-.514.093l-15.795,10.125-3.231-5.038a.717.717,0,0,0-.423-.327.656.656,0,0,0-.516.1l-.378.245a.719.719,0,0,0-.342.433.739.739,0,0,0,.127.534l7.5,11.7a.627.627,0,0,0,.427.3.719.719,0,0,0,.52-.117l.384-.244a.683.683,0,0,0,.315-.419.672.672,0,0,0-.108-.505l-3.246-5.059,15.795-10.125a.669.669,0,0,0,.313-.413.672.672,0,0,0-.108-.505m3.151,37.28,6.545-11.034,5.731,7.306Zm20.287-5.072-.373-.479a.644.644,0,0,0-.395-.253.92.92,0,0,0-.38.01l-4.98,1.52-6.632-8.455,2.659-4.483a.835.835,0,0,0,.1-.364.606.606,0,0,0-.152-.44l-.374-.479a.583.583,0,0,0-.407-.219.557.557,0,0,0-.446.12l-.224.251-10.765,18.2a.9.9,0,0,0,.067,1.073l.64.812a.885.885,0,0,0,1.02.318l20.241-6.122.3-.156a.577.577,0,0,0,.225-.407.578.578,0,0,0-.12-.446m21.219,23.083-8.437-8.649a.708.708,0,0,0-.479-.234.663.663,0,0,0-.487.2l-.325.318a.72.72,0,0,0-.242.49.712.712,0,0,0,.233.5l7.566,7.759-5.758,5.613-6.93-7.1a.717.717,0,0,0-.479-.234.634.634,0,0,0-.487.2l-.331.317a.731.731,0,0,0-.242.49.734.734,0,0,0,.233.5l6.93,7.11-5.541,5.4-7.4-7.583a.717.717,0,0,0-.479-.233.62.62,0,0,0-.486.2l-.325.318a.689.689,0,0,0-.242.49.7.7,0,0,0,.227.5l8.269,8.472a.615.615,0,0,0,.478.209.694.694,0,0,0,.49-.216l14.23-13.882a.638.638,0,0,0,.22-.47.642.642,0,0,0-.207-.475m18.2,30.82-5.523,6.62-4.358-3.638a6.016,6.016,0,0,1-2.324-3.347,3.961,3.961,0,0,1,1.076-3.306,3.972,3.972,0,0,1,3.063-1.657,6.016,6.016,0,0,1,3.707,1.69Zm7.883-7.5-.419-.345a.723.723,0,0,0-.5-.183.632.632,0,0,0-.466.247l-5.327,6.388-4.8-4.007,1.526-9.361a2.259,2.259,0,0,0,.035-.78.977.977,0,0,0-.395-.588l-.28-.236a.577.577,0,0,0-.443-.134.589.589,0,0,0-.416.213.746.746,0,0,0-.144.311l-1.571,9.519a5.928,5.928,0,0,0-3.889-.649,5.962,5.962,0,0,0-3.386,2.21,5.653,5.653,0,0,0-1.516,4.71,7.759,7.759,0,0,0,2.95,4.472l5.429,4.531a.621.621,0,0,0,.5.157.708.708,0,0,0,.463-.265l12.735-15.271a.646.646,0,0,0,.173-.485.671.671,0,0,0-.254-.454m23.462,16.687a9.227,9.227,0,0,0-4.289-1.665,6.717,6.717,0,0,0-3.593.607,6.931,6.931,0,0,0-2.5,2.044.461.461,0,0,0-.105.455.738.738,0,0,0,.3.4l.508.333a.65.65,0,0,0,.907-.162,5.783,5.783,0,0,1,3.765-1.88,7.03,7.03,0,0,1,4,1.384,5.921,5.921,0,0,1,2.8,3.785,7.238,7.238,0,0,1-1.316,5.067q-.46.751-1.4,2.168c-.626.945-1.1,1.635-1.421,2.084a7.234,7.234,0,0,1-4.148,3.183,5.906,5.906,0,0,1-4.582-1.112A6.972,6.972,0,0,1-370.6,609.7a5.772,5.772,0,0,1,.265-4.2.652.652,0,0,0-.2-.9l-.508-.339a.7.7,0,0,0-.463-.126.482.482,0,0,0-.369.229l-.034.049a6.858,6.858,0,0,0-.9,3.1,6.707,6.707,0,0,0,.835,3.54,9.3,9.3,0,0,0,3.2,3.309q3.293,2.175,6.169,1.41a9.329,9.329,0,0,0,5.084-3.823c.329-.46.842-1.216,1.532-2.26s1.167-1.776,1.454-2.244a9.307,9.307,0,0,0,1.541-6.173q-.414-2.946-3.7-5.126m39.522,29.5a2.908,2.908,0,0,0-2.316-.093,2.9,2.9,0,0,0-1.718,1.558,2.91,2.91,0,0,0-.093,2.317,2.917,2.917,0,0,0,1.559,1.717,2.9,2.9,0,0,0,2.316.093,2.918,2.918,0,0,0,1.718-1.558,2.924,2.924,0,0,0,.1-2.316,2.926,2.926,0,0,0-1.564-1.718m50.039,12.368-11.2-3.45a.719.719,0,0,0-.532.028.635.635,0,0,0-.33.4l-.132.437a.691.691,0,0,0,.018.549.7.7,0,0,0,.442.326l10.01,3.083-5.525,17.927a.672.672,0,0,0,.031.521.676.676,0,0,0,.413.313l.547.173a.665.665,0,0,0,.52-.03.681.681,0,0,0,.319-.413l5.862-19.035a.658.658,0,0,0-.031-.514.658.658,0,0,0-.412-.319m24.52,25.52-2.288-12.627,9.119,1.769Zm12-17.123-.595-.121a.666.666,0,0,0-.466.067.9.9,0,0,0-.282.259l-2.769,4.411-10.55-2.047-.927-5.126a.766.766,0,0,0-.167-.338.609.609,0,0,0-.4-.236l-.6-.115a.585.585,0,0,0-.454.1.55.55,0,0,0-.256.381l-.007.339,3.8,20.8a.88.88,0,0,0,.748.765l1.014.194a.88.88,0,0,0,.978-.427l11.284-17.883.126-.315a.609.609,0,0,0-.1-.454.559.559,0,0,0-.381-.257m23.176,3.018-.546-.055a.716.716,0,0,0-.517.136.645.645,0,0,0-.243.465l-1.8,18.671-5.954-.573a.707.707,0,0,0-.516.13.653.653,0,0,0-.243.465l-.043.456a.7.7,0,0,0,.134.528.689.689,0,0,0,.5.232l13.835,1.334a.621.621,0,0,0,.5-.147.715.715,0,0,0,.234-.478l.043-.456a.683.683,0,0,0-.133-.5.7.7,0,0,0-.469-.225l-5.984-.579,1.8-18.672a.654.654,0,0,0-.132-.5.631.631,0,0,0-.463-.224m27.778,1.531-.574-.011a.661.661,0,0,0-.489.179.654.654,0,0,0-.191.481l-.29,19.909a.676.676,0,0,0,.178.495.653.653,0,0,0,.483.185l.574.011a.663.663,0,0,0,.489-.179.659.659,0,0,0,.191-.482l.29-19.908a.656.656,0,0,0-.173-.488.676.676,0,0,0-.487-.192m29.061-1.243a8.841,8.841,0,0,0-4.308,1.379,6.962,6.962,0,0,0-2.586,3.092,9.151,9.151,0,0,0-.63,4.345l.214,2.664a.726.726,0,0,0,.22.5.721.721,0,0,0,.529.139l6.48-.516a.641.641,0,0,0,.469-.232.713.713,0,0,0,.141-.511l-.037-.429a.716.716,0,0,0-.217-.484.645.645,0,0,0-.5-.158l-5.264.416-.126-1.543a6.182,6.182,0,0,1,1.348-4.886,6.442,6.442,0,0,1,4.414-1.964,6.191,6.191,0,0,1,4.553,1.193,6.729,6.729,0,0,1,2.122,4.675c.069.6.15,1.511.251,2.721s.158,2.12.183,2.726a6.725,6.725,0,0,1-1.36,4.946,6.168,6.168,0,0,1-4.308,1.9,6.507,6.507,0,0,1-4.036-.778,5.361,5.361,0,0,1-2.2-2.535,1.337,1.337,0,0,0-.277-.465.529.529,0,0,0-.4-.089l-.667.05a.655.655,0,0,0-.441.189.462.462,0,0,0-.15.4v.062a5.023,5.023,0,0,0,1.111,2.27,7.209,7.209,0,0,0,2.8,2.081,8.906,8.906,0,0,0,4.4.623,7.757,7.757,0,0,0,5.7-2.644,8.551,8.551,0,0,0,1.75-6.013c-.031-.608-.1-1.569-.2-2.878s-.189-2.269-.259-2.872a8.545,8.545,0,0,0-2.67-5.667,7.777,7.777,0,0,0-6.045-1.713m29.6-3.358-.57.094a.671.671,0,0,0-.45.262.665.665,0,0,0-.1.507l3.284,19.644a.668.668,0,0,0,.262.45.657.657,0,0,0,.507.1l.57-.094a.681.681,0,0,0,.448-.256.677.677,0,0,0,.1-.513l-3.284-19.638a.637.637,0,0,0-.262-.45.634.634,0,0,0-.506-.1m34.478-5.884L-82.05,657.5l-4.9,1.295c-2.284.6-4.06.531-5.314-.22s-2.189-2.212-2.805-4.394q-.259-.871-.6-2.166c-.23-.878-.415-1.615-.549-2.206a10.325,10.325,0,0,1-.318-3.888,3.985,3.985,0,0,1,1.428-2.509,9.205,9.205,0,0,1,3.53-1.605Zm.738-2.074-6.4,1.684a11.2,11.2,0,0,0-4.5,2.094,5.22,5.22,0,0,0-1.8,3.221,12.612,12.612,0,0,0,.384,4.749c.134.591.333,1.375.593,2.357.251.956.466,1.73.638,2.311a12.264,12.264,0,0,0,1.967,4.191,5.391,5.391,0,0,0,3.219,1.962,11.249,11.249,0,0,0,5.064-.376l6.251-1.646a.63.63,0,0,0,.418-.318.707.707,0,0,0,.052-.528l-5.066-19.226a.652.652,0,0,0-.3-.426.654.654,0,0,0-.516-.049m41.887-8.683a2.911,2.911,0,0,0-1.6,1.675,2.9,2.9,0,0,0,.025,2.316,2.952,2.952,0,0,0,1.673,1.611,2.944,2.944,0,0,0,2.323-.029,2.91,2.91,0,0,0,1.6-1.675,2.9,2.9,0,0,0-.025-2.316,2.931,2.931,0,0,0-1.674-1.611,2.954,2.954,0,0,0-2.323.029M2.733,597.848l-.46.284a.724.724,0,0,0-.327.423.619.619,0,0,0,.087.514L10.9,613.289l-18.511-8.562a.723.723,0,0,0-.731.031l-.567.35a.645.645,0,0,0-.31.426.693.693,0,0,0,.111.518L1.409,622.9a.688.688,0,0,0,.426.341.669.669,0,0,0,.533-.12l.462-.291a.6.6,0,0,0,.308-.42.7.7,0,0,0-.11-.524l-8.886-14.242,18.566,8.6a.738.738,0,0,0,.737-.03l.539-.336a.646.646,0,0,0,.31-.427.721.721,0,0,0-.111-.518L3.656,598.06a.654.654,0,0,0-.412-.319.686.686,0,0,0-.511.107m27.091-19.759-9.5,7.453a.717.717,0,0,0-.285.457.646.646,0,0,0,.146.5l.28.361a.7.7,0,0,0,.461.291.67.67,0,0,0,.519-.173l8.529-6.69,4.963,6.331-7.807,6.125a.715.715,0,0,0-.283.451.655.655,0,0,0,.145.506l.28.361a.723.723,0,0,0,.461.292.67.67,0,0,0,.518-.173l7.815-6.13,4.776,6.089L32.5,600.682a.716.716,0,0,0-.278.452.606.606,0,0,0,.147.5l.28.36a.67.67,0,0,0,.461.292.689.689,0,0,0,.518-.173l9.311-7.306a.643.643,0,0,0,.266-.454.712.712,0,0,0-.169-.511L30.763,578.2a.625.625,0,0,0-.938-.111M51.659,558.71l-.609.588a1.013,1.013,0,0,0-.24,1.24l8.515,18.986.19.286a.584.584,0,0,0,.422.179.6.6,0,0,0,.437-.165l.457-.446a.627.627,0,0,0,.213-.409.831.831,0,0,0-.046-.381L52.891,560.6l17.677,8.763a.823.823,0,0,0,.378.059.659.659,0,0,0,.423-.193l.457-.446a.592.592,0,0,0,.179-.428.6.6,0,0,0-.16-.429l-.276-.2-18.664-9.212a1.012,1.012,0,0,0-1.247.192M71.528,537.7l-.38.437a.676.676,0,0,0-.179.484.66.66,0,0,0,.248.454L86.271,552.11a.692.692,0,0,0,.49.18.66.66,0,0,0,.454-.249l.38-.437a.649.649,0,0,0,.179-.484.671.671,0,0,0-.247-.459L72.471,537.63a.664.664,0,0,0-.49-.18.641.641,0,0,0-.453.248m29.526-20.31,7,5.024-3.3,4.612a6.057,6.057,0,0,1-3.169,2.571,4.7,4.7,0,0,1-5.255-3.77A6.029,6.029,0,0,1,97.744,522Zm-8.06-7.308-.319.442a.733.733,0,0,0-.141.511.629.629,0,0,0,.281.448l6.759,4.844-3.648,5.081-9.445-.838a2.293,2.293,0,0,0-.779.022,1,1,0,0,0-.56.437l-.215.3a.584.584,0,0,0-.1.451.563.563,0,0,0,.241.4.725.725,0,0,0,.323.122l9.6.876a5.493,5.493,0,0,0,2.091,7.141,5.647,5.647,0,0,0,4.8,1.169,7.782,7.782,0,0,0,4.246-3.268l4.124-5.747a.607.607,0,0,0,.122-.508.725.725,0,0,0-.3-.445L93.931,509.923a.687.687,0,0,0-.505-.134.663.663,0,0,0-.431.291M112.876,481.3l15.3,8.714-2.512,4.4c-1.169,2.061-2.464,3.278-3.871,3.648s-3.113.017-5.1-1.069c-.536-.289-1.194-.646-1.965-1.088-.794-.453-1.448-.834-1.964-1.156a10.367,10.367,0,0,1-3-2.494,3.966,3.966,0,0,1-.792-2.776,9.13,9.13,0,0,1,1.324-3.646Zm-.966-1.981-3.275,5.746a11.167,11.167,0,0,0-1.653,4.682,5.171,5.171,0,0,0,1.038,3.544,12.5,12.5,0,0,0,3.66,3.05c.518.316,1.215.724,2.1,1.227.86.49,1.555.88,2.1,1.164a12.306,12.306,0,0,0,4.367,1.527,5.378,5.378,0,0,0,3.651-.924,11.193,11.193,0,0,0,3.28-3.88l3.2-5.619a.641.641,0,0,0,.069-.519.748.748,0,0,0-.344-.411l-17.278-9.84a.67.67,0,0,0-.517-.08.65.65,0,0,0-.4.334m23.074-36.009a3.048,3.048,0,0,0,1.736,3.922,3.069,3.069,0,0,0,3.929-1.742,3.06,3.06,0,0,0-1.742-3.923,3.058,3.058,0,0,0-3.923,1.742m26.653-43.427-12.693,1.884L151,392.714ZM144.9,387.347l-.133.592a.632.632,0,0,0,.049.462.911.911,0,0,0,.252.287l4.32,2.911L147,402.081l-5.149.762a.8.8,0,0,0-.347.152.644.644,0,0,0-.248.4l-.133.593a.592.592,0,0,0,.081.456.583.583,0,0,0,.379.269l.337.019,20.909-3.137a.884.884,0,0,0,.792-.725l.224-1.008a.871.871,0,0,0-.393-.99l-17.52-11.848-.314-.132a.577.577,0,0,0-.451.081.6.6,0,0,0-.275.378m3.6-23.1-.073.543a.756.756,0,0,0,.117.519.624.624,0,0,0,.463.255l18.606,2.4-.766,5.927a.736.736,0,0,0,.117.519.648.648,0,0,0,.455.26l.454.055a.676.676,0,0,0,.537-.114.69.69,0,0,0,.242-.49l1.777-13.789a.634.634,0,0,0-.133-.5.687.687,0,0,0-.477-.246l-.452-.061a.671.671,0,0,0-.5.121.632.632,0,0,0-.242.459l-.766,5.959-18.607-2.392a.662.662,0,0,0-.508.12.681.681,0,0,0-.242.459m21.488-30.706-12.086,4.319.253-9.285ZM151.121,324.5l-.017.6a.637.637,0,0,0,.144.445.9.9,0,0,0,.292.239l4.807,2.012-.289,10.74-4.91,1.752a.873.873,0,0,0-.309.215.648.648,0,0,0-.164.438l-.013.611a.561.561,0,0,0,.167.425.58.58,0,0,0,.419.2l.339-.055,19.9-7.139a.882.882,0,0,0,.629-.864l.031-1.034a.876.876,0,0,0-.587-.893l-19.486-8.215-.333-.068a.635.635,0,0,0-.622.592m.241-32.457,17.556-1.391.4,5.05q.283,3.542-1.156,5.192t-4.82,1.981c-.6.07-1.348.141-2.235.208-.908.076-1.668.126-2.274.151a10.389,10.389,0,0,1-3.882-.374,3.977,3.977,0,0,1-2.219-1.852,9.29,9.29,0,0,1-.951-3.761Zm-1.913-1.1.528,6.6a11.2,11.2,0,0,0,1.259,4.8,5.224,5.224,0,0,0,2.849,2.346,12.545,12.545,0,0,0,4.745.463c.607-.031,1.417-.083,2.424-.163q1.483-.117,2.387-.221a12.209,12.209,0,0,0,4.473-1.19,5.378,5.378,0,0,0,2.5-2.818,11.271,11.271,0,0,0,.532-5.052l-.51-6.442a.634.634,0,0,0-.239-.47.709.709,0,0,0-.51-.141l-19.822,1.568a.678.678,0,0,0-.472.22.651.651,0,0,0-.144.5m-1.085-42.782a3.051,3.051,0,0,0,3.656,2.249,3.025,3.025,0,0,0,.883-5.527,3.031,3.031,0,0,0-4.539,3.278m-2.343-50.969-9.4,8.738-3.429-8.634Zm-20.893-.868.227.56a.592.592,0,0,0,.3.353.769.769,0,0,0,.37.1l5.207-.043,3.971,9.99-3.818,3.541a.808.808,0,0,0-.2.326.629.629,0,0,0,.017.462l.226.567a.63.63,0,0,0,.792.341l.286-.184,15.472-14.416a.883.883,0,0,0,.237-1.042l-.381-.958a.88.88,0,0,0-.889-.6l-21.144.146-.335.062a.606.606,0,0,0-.327.33.572.572,0,0,0-.013.462m-12.167-37.888a3.055,3.055,0,1,0-.294-2.3,2.915,2.915,0,0,0,.294,2.3m-35.132-40.6,7.457,9.509a.725.725,0,0,0,.451.277.614.614,0,0,0,.506-.145l.355-.28a.7.7,0,0,0,.3-.46.724.724,0,0,0-.179-.52L80.033,117.7l6.325-4.964,6.13,7.814a.714.714,0,0,0,.451.278.625.625,0,0,0,.506-.145l.355-.281a.672.672,0,0,0,.292-.461.689.689,0,0,0-.173-.518l-6.125-7.807,6.09-4.783,6.537,8.337a.7.7,0,0,0,.45.284.663.663,0,0,0,.507-.145l.354-.281a.708.708,0,0,0,.3-.46.7.7,0,0,0-.179-.519l-7.3-9.317a.61.61,0,0,0-.455-.26.7.7,0,0,0-.5.164L77.944,116.905a.623.623,0,0,0-.269.441.652.652,0,0,0,.153.5m-14.8-32.581,6.21-5.978,3.939,4.085a6.06,6.06,0,0,1,1.954,3.581,4.693,4.693,0,0,1-4.66,4.486,6.066,6.066,0,0,1-3.5-2.082Zm-8.641,6.605.378.393a.711.711,0,0,0,.479.234.634.634,0,0,0,.485-.193l5.989-5.776,4.343,4.508-2.534,9.136a2.575,2.575,0,0,0-.12.775,1,1,0,0,0,.331.625l.256.262a.627.627,0,0,0,.857.02.906.906,0,0,0,.178-.3l2.6-9.292a5.943,5.943,0,0,0,3.791,1.069,6.016,6.016,0,0,0,3.607-1.837,5.626,5.626,0,0,0,2.014-4.509A7.763,7.763,0,0,0,74.6,82.213L69.69,77.118a.608.608,0,0,0-.478-.209.692.692,0,0,0-.49.216l-14.312,13.8a.662.662,0,0,0-.225.469.636.636,0,0,0,.207.475M45.157,57.779l-4.1,12.158-7.135-5.949ZM26.373,66.974l.466.392a.64.64,0,0,0,.437.164.916.916,0,0,0,.371-.086L32.2,64.919,40.451,71.8l-1.667,4.933a.8.8,0,0,0-.015.381.62.62,0,0,0,.24.4l.466.386a.563.563,0,0,0,.438.132.582.582,0,0,0,.414-.207l.166-.3,6.723-20.043a.868.868,0,0,0-.286-1.031l-.789-.662a.892.892,0,0,0-1.07-.1L26.56,65.9l-.262.219a.566.566,0,0,0-.132.438.582.582,0,0,0,.207.414M-2.53,39.639a2.91,2.91,0,0,0,2.294.355,2.936,2.936,0,0,0,1.881-1.358A2.936,2.936,0,0,0,2,36.342,2.93,2.93,0,0,0,.636,34.46a2.921,2.921,0,0,0-2.289-.348A2.905,2.905,0,0,0-3.535,35.47a2.9,2.9,0,0,0-.354,2.289A2.918,2.918,0,0,0-2.53,39.639M-52.9,21.032l11.132,4.694a.693.693,0,0,0,.534.028.609.609,0,0,0,.366-.371l.178-.416a.706.706,0,0,0,.031-.551.712.712,0,0,0-.4-.367l-9.985-4.212,3.131-7.411,9.139,3.861a.735.735,0,0,0,.534.028.66.66,0,0,0,.372-.371l.179-.422a.687.687,0,0,0,.03-.546.676.676,0,0,0-.4-.366l-9.145-3.862,3.006-7.132,9.762,4.117a.706.706,0,0,0,.534.028.637.637,0,0,0,.373-.37l.177-.416a.708.708,0,0,0,.031-.552.716.716,0,0,0-.408-.368l-10.9-4.6a.653.653,0,0,0-.525-.007.74.74,0,0,0-.364.39l-7.73,18.321a.653.653,0,0,0-.025.515.667.667,0,0,0,.379.362m-34.511-11.8.438.133a.911.911,0,0,0,1.108-.425L-78.306-2.17l.173,13.43a.93.93,0,0,0,.688.97l.438.132a.837.837,0,0,0,.582,0,1,1,0,0,0,.439-.456l9.618-17.521.165-.326a.6.6,0,0,0-.055-.463.559.559,0,0,0-.355-.3l-.606-.185a.587.587,0,0,0-.775.245L-76.377,8.9-76.42-4.01a.934.934,0,0,0-.7-.942l-.642-.193a.936.936,0,0,0-1.1.4L-86.032,6l1.589-17.587c.032-.309-.142-.518-.51-.63l-.606-.185a.6.6,0,0,0-.463.055.555.555,0,0,0-.3.355l-.049.362-1.65,19.923a1,1,0,0,0,.11.617.87.87,0,0,0,.492.323" transform="translate(524.2 24.286)" fill="#ffa25b"/>
    </g>
  </g>
</svg>
