<svg xmlns="http://www.w3.org/2000/svg" xmlns:xlink="http://www.w3.org/1999/xlink" width="123.607" height="781" viewBox="0 0 123.607 781">
  <defs>
    <clipPath id="clip-path">
      <path id="Path_668" data-name="Path 668" d="M0,378.2H123.607v-781H0Z" transform="translate(0 402.8)" fill="#e78578"/>
    </clipPath>
  </defs>
  <g id="Group_2403" data-name="Group 2403" transform="translate(0 402.8)">
    <g id="Group_2399" data-name="Group 2399" transform="translate(0 -402.8)" clip-path="url(#clip-path)">
      <g id="Group_2395" data-name="Group 2395" transform="translate(21.377 678.625)">
        <path id="Path_664" data-name="Path 664" d="M0,49.575H80.853V18.892H78.09c0,14.251-9.743,27.921-32.429,27.921H38.972V-50.037h9.307V-52.8H0v2.763H9.307V46.812H0Z" transform="translate(0 52.8)" fill="#e78578"/>
      </g>
      <g id="Group_2396" data-name="Group 2396" transform="translate(17.305 542.9)">
        <path id="Path_665" data-name="Path 665" d="M0,49.575H86.088V18.892H83.325c-2.763,16.432-8.871,27.921-33.592,27.921H38.972V-2.194H51.188c12.361,0,15.705,8.58,15.705,18.614h2.763v-39.7H66.893c0,10.034-3.635,18.323-15.124,18.323h-12.8v-45.08h12.8c21.813,0,27.048,10.906,28.357,23.7h2.763V-52.8H0v2.763H9.307V46.812H0Z" transform="translate(0 52.8)" fill="#e78578"/>
      </g>
      <g id="Group_2397" data-name="Group 2397" transform="translate(13.306 407.175)">
        <path id="Path_666" data-name="Path 666" d="M0,1.338H9.307V71.43c0,25.885,22.249,32.138,43.48,32.138,19.777,0,36.5-6.108,36.5-31.12V11.372c0-7.707,2.763-10.034,9.889-10.034V-1.425H74.891V1.338c5.671,0,10.761.582,10.761,10.325V71.576c0,19.922-10.616,26.612-25.158,26.612-10.47,0-21.522-6.253-21.522-22.249V1.338h9.307V-1.425H0Z" transform="translate(0 1.425)" fill="#e78578"/>
      </g>
      <g id="Group_2398" data-name="Group 2398" transform="translate(11.269 268.832)">
        <path id="Path_667" data-name="Path 667" d="M30.14,33.872h8.434v16c0,10.616-5.09,18.9-16.869,18.9C.474,68.773.183,45.651.183,19.912c0-33.3.291-53.224,23.7-53.224C45.845-33.312,53.843-8.3,53.843.571h2.763V-33.457H53.843c0,3.2-1.745,4.8-4.508,4.8-4.508,0-11.052-7.416-29.084-7.416-31.12,0-52.351,24.721-52.351,54.823,0,29.956,18.614,52.787,53.224,52.787,24.285,0,37.227-10.47,44.5-14.978V33.872h7.562V31.109H30.14Z" transform="translate(32.1 36.075)" fill="#e78578"/>
      </g>
    </g>
    <g id="Group_2400" data-name="Group 2400" transform="translate(38.464 -267.075)">
      <path id="Path_669" data-name="Path 669" d="M0,49.575H48.279V46.812H38.972V-50.037h9.307V-52.8H0v2.763H9.307V46.812H0Z" transform="translate(0 52.8)" fill="#e78578"/>
    </g>
    <g id="Group_2402" data-name="Group 2402" transform="translate(0 -402.8)" clip-path="url(#clip-path)">
      <g id="Group_2401" data-name="Group 2401" transform="translate(0 0)">
        <path id="Path_670" data-name="Path 670" d="M0,49.575H23.413V46.812c-6.835,0-9.889-1.89-9.889-9.161V-43.2h.291L46.389,49.575h5.962L85.216-44.366h.291V46.812H76.2v2.763h47.407V46.812H114.3V-50.037h9.307V-52.8H84.78l-22.1,63.112h-.291L39.845-52.8H.582v2.763H9.889V37.651c0,7.271-3.054,9.161-9.889,9.161Z" transform="translate(0 52.8)" fill="#e78578"/>
      </g>
    </g>
  </g>
</svg>
