<svg xmlns="http://www.w3.org/2000/svg" xmlns:xlink="http://www.w3.org/1999/xlink" width="128.197" height="781.393" viewBox="0 0 128.197 781.393">
  <defs>
    <clipPath id="clip-path">
      <path id="Path_663" data-name="Path 663" d="M0,448.593H128.2V-332.8H0Z" transform="translate(0 332.8)" fill="#e78578"/>
    </clipPath>
  </defs>
  <g id="Group_2394" data-name="Group 2394" transform="translate(0 332.8)">
    <g id="Group_2393" data-name="Group 2393" transform="translate(0 -332.8)" clip-path="url(#clip-path)">
      <g id="Group_2388" data-name="Group 2388" transform="translate(0 657.422)">
        <path id="Path_658" data-name="Path 658" d="M.2,71.171H32.78V67.825c-10.037,0-13.559-1.233-13.559-12.5V-28.5h.352L88.25,71.171h22.188v-109c0-4.578,1.233-11.622,11.622-11.622V-52.8H93.18v3.346c11.622,0,12.855,7.044,12.855,11.622V36.3h-.352L44.4-52.8H-.15v3.346H4.428l10.39,14.968V55.322c0,11.094-5.459,12.5-14.616,12.5Z" transform="translate(0.15 52.8)" fill="#e78578"/>
      </g>
      <g id="Group_2389" data-name="Group 2389" transform="translate(0.352 493.066)">
        <path id="Path_659" data-name="Path 659" d="M30.935,45.9h-28L16.5,5.4h.352ZM-22.95,89.921H3.816V86.575H1.351c-4.755,0-8.453-1.233-8.453-5.987A26.457,26.457,0,0,1-5.869,72.84l7.748-23.6H32.168L45.375,86.575H37.451v3.346H88.87V86.575H82.179L39.564-34.05H25.476L-10.976,75.305c-2.113,6.339-4.931,11.27-10.39,11.27H-22.95Z" transform="translate(22.95 34.05)" fill="#e78578"/>
      </g>
      <g id="Group_2390" data-name="Group 2390" transform="translate(1.409 328.711)">
        <path id="Path_660" data-name="Path 660" d="M0,71.171H97.909V34.015H94.563c0,17.257-11.8,33.81-39.269,33.81h-8.1V-49.454h11.27V-52.8H0v3.346H11.27V67.825H0Z" transform="translate(0 52.8)" fill="#e78578"/>
      </g>
      <g id="Group_2391" data-name="Group 2391" transform="translate(1.409 164.355)">
        <path id="Path_661" data-name="Path 661" d="M14.861,71.171H73.325V67.825H62.054V12L85.3-38.008c3.522-7.572,6.339-11.446,11.974-11.446h1.409V-52.8H70.155v3.346h2.113c4.755,0,8.453,1.409,8.453,6.163a32.037,32.037,0,0,1-2.641,11.622L60.294,6.72,33.879-49.454h7.572V-52.8H-11.025v3.346h6.516L26.131,15.877V67.825H14.861Z" transform="translate(11.025 52.8)" fill="#e78578"/>
      </g>
      <g id="Group_2392" data-name="Group 2392" transform="translate(1.409 0)">
        <path id="Path_662" data-name="Path 662" d="M27.093,1.921h7.044c29.936,0,34.515,23.068,34.515,58.816,0,25.886-1.409,58.464-35.571,58.464H27.093ZM-20.1,122.546H40.3c35.219,0,66.388-20.427,66.388-62.514,0-36.628-25.358-61.457-63.923-61.457H-20.1V1.921H-8.83V119.2H-20.1Z" transform="translate(20.1 1.425)" fill="#e78578"/>
      </g>
    </g>
  </g>
</svg>
