<svg xmlns="http://www.w3.org/2000/svg" xmlns:xlink="http://www.w3.org/1999/xlink" width="106.738" height="781" viewBox="0 0 106.738 781">
  <defs>
    <clipPath id="clip-path">
      <path id="Path_674" data-name="Path 674" d="M0,378.2H106.738v-781H0Z" transform="translate(0 402.8)" fill="#e78578"/>
    </clipPath>
  </defs>
  <g id="Group_2412" data-name="Group 2412" transform="translate(0 402.8)">
    <g id="Group_2406" data-name="Group 2406" transform="translate(0 -402.8)" clip-path="url(#clip-path)">
      <g id="Group_2404" data-name="Group 2404" transform="translate(2.91 678.625)">
        <path id="Path_672" data-name="Path 672" d="M.141,49.575h26.9V46.812c-8.289,0-11.2-1.018-11.2-10.325v-69.22h.291L72.851,49.575H91.173V-40.439c0-3.781,1.018-9.6,9.6-9.6V-52.8H76.922v2.763c9.6,0,10.616,5.817,10.616,9.6V20.782h-.291L36.641-52.8H-.15v2.763H3.631l8.58,12.361V36.488c0,9.161-4.508,10.325-12.07,10.325Z" transform="translate(0.15 52.8)" fill="#e78578"/>
      </g>
      <g id="Group_2405" data-name="Group 2405" transform="translate(7.199 542.9)">
        <path id="Path_673" data-name="Path 673" d="M21.548,31.97H-1.573L9.624-1.476h.291Zm-44.5,36.355h22.1V65.562H-2.882c-3.926,0-6.98-1.018-6.98-4.944a21.848,21.848,0,0,1,1.018-6.4l6.4-19.486H22.566L33.473,65.562H26.929v2.763H69.391V65.562H63.865L28.674-34.05H17.04l-30.1,90.306c-1.745,5.235-4.072,9.307-8.58,9.307H-22.95Z" transform="translate(22.95 34.05)" fill="#e78578"/>
      </g>
    </g>
    <g id="Group_2407" data-name="Group 2407" transform="translate(0 4.375)">
      <path id="Path_675" data-name="Path 675" d="M28.309,0V2.763h9.307V47.841H8.822V2.763h9.307V0H-30.15V2.763h9.307V99.612H-30.15v2.761H18.129V99.612H8.822V50.606H37.616V99.612H28.309v2.761H76.588V99.612H67.281V2.763h9.307V0Z" transform="translate(30.15)" fill="#e78578"/>
    </g>
    <g id="Group_2411" data-name="Group 2411" transform="translate(0 -402.8)" clip-path="url(#clip-path)">
      <g id="Group_2408" data-name="Group 2408" transform="translate(8.145 271.45)">
        <path id="Path_676" data-name="Path 676" d="M10.211,49.575H58.49V46.812H49.183V-50.037c23.413,0,27.63,21.231,27.63,28.793h2.763V-52.8H-10.875v31.556h2.763c0-7.562,4.217-28.793,27.63-28.793V46.812H10.211Z" transform="translate(10.875 52.8)" fill="#e78578"/>
      </g>
      <g id="Group_2409" data-name="Group 2409" transform="translate(7.199 135.725)">
        <path id="Path_677" data-name="Path 677" d="M21.548,31.97H-1.573L9.624-1.476h.291Zm-44.5,36.355h22.1V65.562H-2.882c-3.926,0-6.98-1.018-6.98-4.944a21.848,21.848,0,0,1,1.018-6.4l6.4-19.486H22.566L33.473,65.562H26.929v2.763H69.391V65.562H63.865L28.674-34.05H17.04l-30.1,90.306c-1.745,5.235-4.072,9.307-8.58,9.307H-22.95Z" transform="translate(22.95 34.05)" fill="#e78578"/>
      </g>
      <g id="Group_2410" data-name="Group 2410" transform="translate(2.91 0)">
        <path id="Path_678" data-name="Path 678" d="M.141,49.575h26.9V46.812c-8.289,0-11.2-1.018-11.2-10.325v-69.22h.291L72.851,49.575H91.173V-40.439c0-3.781,1.018-9.6,9.6-9.6V-52.8H76.922v2.763c9.6,0,10.616,5.817,10.616,9.6V20.782h-.291L36.641-52.8H-.15v2.763H3.631l8.58,12.361V36.488c0,9.161-4.508,10.325-12.07,10.325Z" transform="translate(0.15 52.8)" fill="#e78578"/>
      </g>
    </g>
  </g>
</svg>
