<svg xmlns="http://www.w3.org/2000/svg" xmlns:xlink="http://www.w3.org/1999/xlink" width="323.725" height="323.794" viewBox="0 0 323.725 323.794">
  <defs>
    <clipPath id="clip-path">
      <path id="Path_52" data-name="Path 52" d="M0-608.014H323.725V-931.808H0Z" transform="translate(0 931.808)" fill="none"/>
    </clipPath>
  </defs>
  <g id="Group_76" data-name="Group 76" transform="translate(0 931.808)">
    <g id="Group_56" data-name="Group 56" transform="translate(0 -931.808)" clip-path="url(#clip-path)">
      <g id="Group_55" data-name="Group 55" transform="translate(0 0)">
        <path id="Path_51" data-name="Path 51" d="M-342.046-15.847a1.349,1.349,0,0,0,1.042-.28,1.35,1.35,0,0,0,.546-.929,1.365,1.365,0,0,0-.278-1.041,1.361,1.361,0,0,0-.931-.547,1.359,1.359,0,0,0-1.042.28,1.351,1.351,0,0,0-.546.929,1.349,1.349,0,0,0,.281,1.042,1.351,1.351,0,0,0,.928.546m-22.38,1.481.269,0a.335.335,0,0,0,.231-.088.291.291,0,0,0,.089-.227l-.037-3.458,3.385-5.679a.489.489,0,0,0,.055-.185.281.281,0,0,0-.087-.2.286.286,0,0,0-.2-.083l-.283,0a.378.378,0,0,0-.324.216l-3.007,5.013L-367.448-24a.373.373,0,0,0-.329-.208l-.28,0a.265.265,0,0,0-.2.086.264.264,0,0,0-.081.2.412.412,0,0,0,.058.185l3.5,5.608.037,3.455a.3.3,0,0,0,.087.225.3.3,0,0,0,.228.084m-15.763,1.173a4.313,4.313,0,0,0,2.023-.7,3.115,3.115,0,0,0,1.093-1.293,3.2,3.2,0,0,0,.274-1.476.219.219,0,0,0-.1-.194.327.327,0,0,0-.226-.052l-.28.032c-.168.021-.26.131-.275.33a2.667,2.667,0,0,1-.769,1.8,3.278,3.278,0,0,1-1.835.712,2.771,2.771,0,0,1-2.133-.5,3.356,3.356,0,0,1-1.054-2.2c-.041-.268-.092-.664-.153-1.189s-.1-.911-.123-1.165a3.375,3.375,0,0,1,.518-2.377,2.772,2.772,0,0,1,1.962-.981,3.264,3.264,0,0,1,1.947.27,2.667,2.667,0,0,1,1.164,1.57c.062.191.177.278.345.257l.28-.032a.332.332,0,0,0,.2-.094.22.22,0,0,0,.062-.192l0-.029a3.2,3.2,0,0,0-.608-1.371,3.087,3.087,0,0,0-1.359-1.005,4.291,4.291,0,0,0-2.128-.214,3.485,3.485,0,0,0-2.613,1.349,4.346,4.346,0,0,0-.659,2.885c.022.261.066.681.135,1.263s.12.981.158,1.23a4.347,4.347,0,0,0,1.3,2.656,3.487,3.487,0,0,0,2.854.71m-19.6,3.46.248-.056a.323.323,0,0,0,.208-.133.3.3,0,0,0,.038-.243l-1.751-7.588,6.845,6.56a.343.343,0,0,0,.326.1l.3-.071a.293.293,0,0,0,.2-.141.314.314,0,0,0,.03-.244l-2.076-8.994a.329.329,0,0,0-.135-.215.328.328,0,0,0-.253-.028l-.248.056a.3.3,0,0,0-.2.141.334.334,0,0,0-.033.247l1.757,7.6-6.863-6.584a.347.347,0,0,0-.328-.1l-.287.065a.3.3,0,0,0-.2.141.347.347,0,0,0-.03.247l2.081,9.007a.31.31,0,0,0,.132.2.3.3,0,0,0,.238.031m-14.879,4.646,5.3-1.853a.334.334,0,0,0,.19-.157.294.294,0,0,0,.012-.242l-.068-.2a.333.333,0,0,0-.161-.2.332.332,0,0,0-.254,0L-414.4-6.079l-1.235-3.529,4.357-1.524a.32.32,0,0,0,.193-.157.3.3,0,0,0,.012-.243l-.069-.2a.322.322,0,0,0-.161-.2.319.319,0,0,0-.254,0l-4.356,1.522-1.186-3.4,4.648-1.623a.336.336,0,0,0,.193-.156.3.3,0,0,0,.012-.245l-.072-.2a.31.31,0,0,0-.158-.2.319.319,0,0,0-.253,0l-5.2,1.814a.288.288,0,0,0-.183.162.327.327,0,0,0,0,.247l3.051,8.729a.307.307,0,0,0,.153.183.31.31,0,0,0,.244.007M-427.079.291a4.134,4.134,0,0,0,1.641-1.314,3.206,3.206,0,0,0,.609-1.774,4.2,4.2,0,0,0-.447-1.992l-.532-1.122a.319.319,0,0,0-.183-.178.327.327,0,0,0-.253.026l-2.726,1.3a.3.3,0,0,0-.163.18.326.326,0,0,0,.025.247l.084.179a.321.321,0,0,0,.175.174A.3.3,0,0,0-428.605-4l2.216-1.055.309.647a2.886,2.886,0,0,1,.228,2.348,3,3,0,0,1-1.59,1.586,2.889,2.889,0,0,1-2.177.24,3.145,3.145,0,0,1-1.7-1.679c-.13-.251-.315-.632-.557-1.139s-.42-.895-.534-1.154a3.13,3.13,0,0,1-.231-2.374,2.864,2.864,0,0,1,1.557-1.538,3,3,0,0,1,1.88-.335,2.506,2.506,0,0,1,1.376.738.612.612,0,0,0,.2.156.255.255,0,0,0,.191-.031l.28-.133A.314.314,0,0,0-427-7.877a.231.231,0,0,0,0-.2l-.012-.025a2.319,2.319,0,0,0-.856-.8,3.382,3.382,0,0,0-1.562-.436,4.148,4.148,0,0,0-2.017.46,3.6,3.6,0,0,0-2.033,2.095,3.956,3.956,0,0,0,.239,2.9q.171.389.564,1.218c.262.551.459.955.59,1.206a3.957,3.957,0,0,0,2.1,2.014,3.608,3.608,0,0,0,2.907-.258m-19.067.058,4.734,3.63L-445.1,6.224Zm1.22,9.646.243-.146a.294.294,0,0,0,.138-.168.38.38,0,0,0,.016-.175l-.422-2.384,4.269-2.593L-438.763,6a.436.436,0,0,0,.163.065.292.292,0,0,0,.211-.047l.243-.146a.272.272,0,0,0,.124-.173.258.258,0,0,0-.031-.214l-.1-.119L-445.964-.6a.4.4,0,0,0-.5-.028l-.41.248a.414.414,0,0,0-.2.453l1.705,9.681.057.147a.265.265,0,0,0,.176.125.266.266,0,0,0,.211-.029m-16.369,8.614a1.369,1.369,0,0,0,.5-.959,1.368,1.368,0,0,0-.318-1.029,1.371,1.371,0,0,0-.959-.5,1.347,1.347,0,0,0-1.029.318,1.342,1.342,0,0,0-.5.956,1.354,1.354,0,0,0,.317,1.032,1.362,1.362,0,0,0,.956.5,1.359,1.359,0,0,0,1.032-.317M-475.6,36.5a4.161,4.161,0,0,0,1.009-1.845,3.23,3.23,0,0,0-.12-1.871,4.214,4.214,0,0,0-1.179-1.666l-.926-.83a.327.327,0,0,0-.234-.1.326.326,0,0,0-.223.122l-2.018,2.248a.284.284,0,0,0-.081.228.32.32,0,0,0,.116.22l.146.13a.32.32,0,0,0,.229.093.288.288,0,0,0,.22-.1l1.639-1.83.536.483a2.878,2.878,0,0,1,1.112,2.078,2.987,2.987,0,0,1-.857,2.075,2.865,2.865,0,0,1-1.917,1.056,3.131,3.131,0,0,1-2.212-.893c-.216-.182-.534-.46-.955-.84s-.733-.662-.934-.858a3.134,3.134,0,0,1-1.128-2.1,2.864,2.864,0,0,1,.846-2.02,3.022,3.022,0,0,1,1.607-1.032,2.522,2.522,0,0,1,1.553.152.585.585,0,0,0,.243.067.255.255,0,0,0,.164-.1l.208-.231a.307.307,0,0,0,.088-.2.222.222,0,0,0-.08-.186l-.019-.018a2.357,2.357,0,0,0-1.1-.412,3.392,3.392,0,0,0-1.607.2,4.132,4.132,0,0,0-1.684,1.2,3.62,3.62,0,0,0-1.074,2.716,3.983,3.983,0,0,0,1.34,2.586c.2.2.533.5.988.907s.79.7,1.007.884a3.965,3.965,0,0,0,2.715,1.054A3.622,3.622,0,0,0-475.6,36.5m-12.421,15.606.146-.206a.321.321,0,0,0,.066-.24.287.287,0,0,0-.131-.205l-6.357-4.5,9.474.346a.353.353,0,0,0,.309-.145l.179-.255a.283.283,0,0,0,.057-.236.337.337,0,0,0-.143-.2l-7.532-5.334a.319.319,0,0,0-.242-.069.336.336,0,0,0-.208.148l-.148.206a.3.3,0,0,0-.055.239.328.328,0,0,0,.14.2l6.369,4.51-9.505-.35a.349.349,0,0,0-.309.145l-.17.242a.288.288,0,0,0-.057.239.328.328,0,0,0,.14.2l7.545,5.343a.3.3,0,0,0,.232.062.29.29,0,0,0,.2-.135m-5.723,9.135.136-.231a.311.311,0,0,0,.04-.239.3.3,0,0,0-.152-.187l-7.988-4.681a.293.293,0,0,0-.237-.039.287.287,0,0,0-.187.152l-.136.229a.314.314,0,0,0-.043.239.32.32,0,0,0,.152.187l7.988,4.681a.313.313,0,0,0,.239.043.319.319,0,0,0,.187-.152M-501.908,75.3l-7.417-3.464,1-2.136a3.222,3.222,0,0,1,1.657-1.834,3.29,3.29,0,0,1,2.4.3c.26.11.578.256.952.43s.7.333.955.459a4.773,4.773,0,0,1,1.481,1.045,1.853,1.853,0,0,1,.473,1.257,4.225,4.225,0,0,1-.477,1.737Zm.523.881,1.3-2.788a5.237,5.237,0,0,0,.589-2.23,2.424,2.424,0,0,0-.613-1.6,5.855,5.855,0,0,0-1.811-1.276c-.253-.129-.592-.29-1.018-.489s-.755-.35-1.015-.46a5.766,5.766,0,0,0-2.084-.545,2.488,2.488,0,0,0-1.656.567,5.183,5.183,0,0,0-1.373,1.921l-1.271,2.722a.282.282,0,0,0-.012.243.32.32,0,0,0,.174.177l8.375,3.91a.3.3,0,0,0,.24.02.307.307,0,0,0,.173-.17M-507.317,92l.081-.243a.331.331,0,0,0-.007-.246.289.289,0,0,0-.184-.158l-7.387-2.482,9.174-2.4a.342.342,0,0,0,.254-.228l.1-.294a.3.3,0,0,0-.016-.245.334.334,0,0,0-.193-.155l-8.748-2.938a.334.334,0,0,0-.254,0,.332.332,0,0,0-.159.2l-.081.24a.3.3,0,0,0,.016.245.336.336,0,0,0,.193.155l7.4,2.484-9.2,2.4a.341.341,0,0,0-.254.228l-.094.28a.29.29,0,0,0,.014.242.336.336,0,0,0,.2.155l8.762,2.943a.3.3,0,0,0,.241-.009.3.3,0,0,0,.153-.185m-12.1,11.108,5.894-.915-.927,4.218Zm7.815,5.781.062-.275a.3.3,0,0,0-.025-.215.394.394,0,0,0-.113-.136l-2.018-1.338,1.073-4.879,2.391-.369a.419.419,0,0,0,.162-.074.285.285,0,0,0,.113-.184l.062-.276a.278.278,0,0,0-.04-.212.284.284,0,0,0-.176-.125l-.157-.006-9.713,1.52a.409.409,0,0,0-.363.338l-.1.468a.414.414,0,0,0,.188.462l8.179,5.454.146.062a.271.271,0,0,0,.21-.041.26.26,0,0,0,.124-.173m-7.044,13.982-3.984-.436.286-2.623a2.816,2.816,0,0,1,.7-1.762,1.847,1.847,0,0,1,1.557-.432,1.849,1.849,0,0,1,1.43.76,2.788,2.788,0,0,1,.3,1.87Zm4.93,1.121.028-.251a.332.332,0,0,0-.057-.242.3.3,0,0,0-.215-.116l-3.843-.419.314-2.891,4.019-1.818a1.1,1.1,0,0,0,.311-.184.474.474,0,0,0,.126-.306l.02-.169a.274.274,0,0,0-.065-.206.277.277,0,0,0-.185-.107.407.407,0,0,0-.161.025l-4.09,1.841a2.762,2.762,0,0,0-.748-1.673,2.777,2.777,0,0,0-1.727-.743,2.622,2.622,0,0,0-2.212.624,3.605,3.605,0,0,0-.976,2.293l-.357,3.268a.291.291,0,0,0,.067.235.325.325,0,0,0,.223.109l9.188,1.005a.3.3,0,0,0,.233-.059.308.308,0,0,0,.108-.217m-1.455,15.859-3.895-.009.006-3.06a2.284,2.284,0,0,1,.538-1.61,1.834,1.834,0,0,1,1.413-.574,1.832,1.832,0,0,1,1.4.579,2.266,2.266,0,0,1,.542,1.611Zm-4.742-.009-3.443-.009,0-2.92a2.573,2.573,0,0,1,.426-1.587,1.5,1.5,0,0,1,1.26-.541,1.618,1.618,0,0,1,1.3.544,2.392,2.392,0,0,1,.454,1.59Zm5.586.589.009-3.783a3.1,3.1,0,0,0-.386-1.582,2.612,2.612,0,0,0-1.028-1.009,2.866,2.866,0,0,0-1.375-.349,2.622,2.622,0,0,0-1.469.413,2.714,2.714,0,0,0-.948,1.022,2.193,2.193,0,0,0-.772-.877,2.378,2.378,0,0,0-1.37-.371,2.449,2.449,0,0,0-1.808.718,2.868,2.868,0,0,0-.724,2.113l-.007,3.685a.307.307,0,0,0,.092.226.337.337,0,0,0,.23.084l9.245.017a.3.3,0,0,0,.227-.083.307.307,0,0,0,.083-.225m-1.162,19.855a1.352,1.352,0,0,0-.556-.922,1.353,1.353,0,0,0-1.046-.265,1.35,1.35,0,0,0-.923.558,1.361,1.361,0,0,0-.267,1.043,1.358,1.358,0,0,0,.558.923,1.366,1.366,0,0,0,1.046.268,1.366,1.366,0,0,0,.923-.558,1.354,1.354,0,0,0,.265-1.046m8.337,23.531-1.626-5.374a.334.334,0,0,0-.149-.2.3.3,0,0,0-.244-.021l-.2.06a.345.345,0,0,0-.206.151.329.329,0,0,0-.011.254l1.461,4.822-3.578,1.083-1.339-4.417a.315.315,0,0,0-.147-.2.286.286,0,0,0-.243-.024l-.2.063a.324.324,0,0,0-.206.148.332.332,0,0,0-.011.254l1.336,4.419-3.444,1.042-1.425-4.714a.346.346,0,0,0-.149-.2.3.3,0,0,0-.244-.021l-.2.06a.33.33,0,0,0-.2.152.32.32,0,0,0-.011.254l1.592,5.269a.3.3,0,0,0,.154.19.331.331,0,0,0,.248.013l8.848-2.678a.308.308,0,0,0,.191-.146.309.309,0,0,0,.015-.242m4.724,12.724-.15-.365a.477.477,0,0,0-.5-.312l-9.663.494-.154.035a.277.277,0,0,0-.149.154.278.278,0,0,0,0,.216l.115.271a.292.292,0,0,0,.143.162.389.389,0,0,0,.172.044l9.159-.484-6.774,6.185a.426.426,0,0,0-.089.152.291.291,0,0,0,.014.216l.114.274a.266.266,0,0,0,.154.149.262.262,0,0,0,.216,0l.132-.085,7.133-6.536a.475.475,0,0,0,.125-.573m5.763,12.146-.124-.238a.306.306,0,0,0-.18-.161.318.318,0,0,0-.24.032l-8.184,4.326a.306.306,0,0,0-.161.181.305.305,0,0,0,.029.239l.128.236a.305.305,0,0,0,.18.161.306.306,0,0,0,.239-.029l8.185-4.328a.3.3,0,0,0,.16-.18.308.308,0,0,0-.032-.237m6.533,11.165-.138-.215a.334.334,0,0,0-.2-.149.291.291,0,0,0-.239.043l-7.343,4.707-1.5-2.342a.333.333,0,0,0-.2-.152.305.305,0,0,0-.24.046l-.176.114a.334.334,0,0,0-.159.2.343.343,0,0,0,.059.248l3.487,5.441a.291.291,0,0,0,.2.141.334.334,0,0,0,.242-.055l.179-.114a.317.317,0,0,0,.146-.195.313.313,0,0,0-.05-.235l-1.509-2.352,7.343-4.707a.311.311,0,0,0,.146-.192.312.312,0,0,0-.05-.235m1.465,17.331,3.043-5.13,2.664,3.4Zm9.431-2.358-.173-.223a.3.3,0,0,0-.183-.118.428.428,0,0,0-.177,0l-2.315.707-3.083-3.931,1.236-2.084a.388.388,0,0,0,.046-.169.282.282,0,0,0-.071-.2l-.174-.223a.271.271,0,0,0-.189-.1.259.259,0,0,0-.207.056l-.1.117-5,8.46a.418.418,0,0,0,.031.5l.3.377a.412.412,0,0,0,.474.148l9.41-2.846.139-.073a.268.268,0,0,0,.1-.189.268.268,0,0,0-.056-.207m9.865,10.731-3.922-4.021a.329.329,0,0,0-.223-.109.308.308,0,0,0-.226.092l-.151.148a.335.335,0,0,0-.113.228.331.331,0,0,0,.108.232l3.517,3.607-2.677,2.609-3.222-3.3a.333.333,0,0,0-.223-.109.3.3,0,0,0-.226.092l-.154.147a.34.34,0,0,0-.113.228.341.341,0,0,0,.108.232l3.222,3.305-2.576,2.512-3.439-3.525a.333.333,0,0,0-.223-.108.288.288,0,0,0-.226.092l-.151.148a.321.321,0,0,0-.113.228.327.327,0,0,0,.106.232l3.844,3.938a.286.286,0,0,0,.222.1.323.323,0,0,0,.228-.1l6.615-6.454a.3.3,0,0,0,.1-.219.3.3,0,0,0-.1-.221m8.462,14.328-2.568,3.078-2.026-1.691a2.8,2.8,0,0,1-1.08-1.556,1.841,1.841,0,0,1,.5-1.537,1.846,1.846,0,0,1,1.424-.77,2.8,2.8,0,0,1,1.723.786Zm3.665-3.488-.195-.161a.336.336,0,0,0-.233-.085.294.294,0,0,0-.216.115l-2.476,2.97-2.233-1.863.71-4.352a1.05,1.05,0,0,0,.016-.362.454.454,0,0,0-.183-.274l-.13-.11a.268.268,0,0,0-.206-.062.274.274,0,0,0-.193.1.346.346,0,0,0-.067.145l-.73,4.425a2.756,2.756,0,0,0-1.808-.3,2.772,2.772,0,0,0-1.574,1.028,2.628,2.628,0,0,0-.7,2.19,3.607,3.607,0,0,0,1.371,2.079l2.524,2.107a.288.288,0,0,0,.233.073.329.329,0,0,0,.215-.123l5.92-7.1a.3.3,0,0,0,.08-.225.312.312,0,0,0-.118-.211m10.907,7.758a4.29,4.29,0,0,0-1.994-.774,3.123,3.123,0,0,0-1.67.282,3.222,3.222,0,0,0-1.161.95.214.214,0,0,0-.049.212.343.343,0,0,0,.138.187l.236.155a.3.3,0,0,0,.422-.075,2.688,2.688,0,0,1,1.75-.874,3.268,3.268,0,0,1,1.859.643,2.753,2.753,0,0,1,1.3,1.76,3.365,3.365,0,0,1-.612,2.356q-.214.349-.652,1.008c-.291.439-.511.76-.661.969a3.363,3.363,0,0,1-1.928,1.48,2.746,2.746,0,0,1-2.13-.517,3.241,3.241,0,0,1-1.315-1.463,2.683,2.683,0,0,1,.123-1.95.3.3,0,0,0-.094-.417l-.236-.157a.323.323,0,0,0-.215-.058.224.224,0,0,0-.172.106l-.016.023a3.189,3.189,0,0,0-.42,1.441,3.118,3.118,0,0,0,.388,1.646,4.326,4.326,0,0,0,1.487,1.538,3.489,3.489,0,0,0,2.868.655,4.337,4.337,0,0,0,2.363-1.777c.153-.214.391-.565.712-1.05s.542-.826.676-1.043a4.327,4.327,0,0,0,.717-2.87,3.48,3.48,0,0,0-1.719-2.383m18.374,13.712a1.352,1.352,0,0,0-1.077-.043,1.349,1.349,0,0,0-.8.724,1.353,1.353,0,0,0-.043,1.077,1.356,1.356,0,0,0,.725.8,1.35,1.35,0,0,0,1.077.043,1.356,1.356,0,0,0,.8-.724,1.359,1.359,0,0,0,.046-1.077,1.36,1.36,0,0,0-.727-.8m23.263,5.75-5.207-1.6a.334.334,0,0,0-.247.013.3.3,0,0,0-.153.188l-.061.2a.321.321,0,0,0,.008.255.327.327,0,0,0,.205.152l4.654,1.433-2.568,8.334a.312.312,0,0,0,.014.242.314.314,0,0,0,.192.146l.254.08a.309.309,0,0,0,.242-.014.317.317,0,0,0,.148-.192L-404.49,284a.306.306,0,0,0-.015-.239.306.306,0,0,0-.191-.148m11.4,11.864-1.064-5.87,4.239.822Zm5.58-7.96-.277-.056a.31.31,0,0,0-.216.031.419.419,0,0,0-.131.12l-1.287,2.051-4.9-.952-.431-2.383a.357.357,0,0,0-.078-.157.283.283,0,0,0-.185-.109l-.277-.053a.272.272,0,0,0-.211.046.256.256,0,0,0-.119.177l0,.158,1.765,9.671a.409.409,0,0,0,.348.356l.472.09a.409.409,0,0,0,.455-.2l5.246-8.313.058-.147a.283.283,0,0,0-.046-.211.26.26,0,0,0-.177-.12m10.774,1.4-.254-.026a.332.332,0,0,0-.24.063.3.3,0,0,0-.113.216l-.839,8.68-2.768-.266a.328.328,0,0,0-.24.06.3.3,0,0,0-.113.216l-.02.212a.328.328,0,0,0,.063.246.32.32,0,0,0,.231.108l6.432.62a.289.289,0,0,0,.233-.068.332.332,0,0,0,.109-.222l.02-.212a.317.317,0,0,0-.062-.235.324.324,0,0,0-.218-.1l-2.782-.269.839-8.68a.3.3,0,0,0-.062-.234.293.293,0,0,0-.215-.1m12.914.712-.267-.005a.307.307,0,0,0-.227.083.3.3,0,0,0-.089.224l-.135,9.255a.314.314,0,0,0,.083.23.3.3,0,0,0,.225.086l.267.005a.308.308,0,0,0,.227-.083.306.306,0,0,0,.089-.224l.135-9.255a.3.3,0,0,0-.081-.227.314.314,0,0,0-.227-.089m13.51-.578a4.11,4.11,0,0,0-2,.641,3.237,3.237,0,0,0-1.2,1.437,4.255,4.255,0,0,0-.293,2.02l.1,1.238a.338.338,0,0,0,.1.234.336.336,0,0,0,.246.065l3.012-.24a.3.3,0,0,0,.218-.108.332.332,0,0,0,.066-.237l-.017-.2a.333.333,0,0,0-.1-.225.3.3,0,0,0-.233-.074l-2.447.193-.059-.718a2.874,2.874,0,0,1,.627-2.272,3,3,0,0,1,2.052-.913,2.878,2.878,0,0,1,2.117.555,3.128,3.128,0,0,1,.987,2.174c.032.28.07.7.117,1.265s.073.986.085,1.267a3.127,3.127,0,0,1-.632,2.3,2.867,2.867,0,0,1-2,.883,3.025,3.025,0,0,1-1.876-.362,2.492,2.492,0,0,1-1.022-1.178.622.622,0,0,0-.129-.216.246.246,0,0,0-.188-.041l-.31.023a.3.3,0,0,0-.205.088.215.215,0,0,0-.07.188v.029a2.335,2.335,0,0,0,.517,1.055,3.351,3.351,0,0,0,1.3.967,4.14,4.14,0,0,0,2.046.29,3.606,3.606,0,0,0,2.649-1.229,3.975,3.975,0,0,0,.813-2.8c-.015-.283-.044-.729-.093-1.338s-.088-1.055-.12-1.335a3.973,3.973,0,0,0-1.241-2.634,3.615,3.615,0,0,0-2.81-.8m13.759-1.561-.265.044a.312.312,0,0,0-.209.122.309.309,0,0,0-.045.236l1.527,9.132a.311.311,0,0,0,.122.209.306.306,0,0,0,.236.045l.265-.044a.317.317,0,0,0,.208-.119.315.315,0,0,0,.046-.238l-1.527-9.13a.3.3,0,0,0-.122-.209.3.3,0,0,0-.235-.048m16.029-2.735,2.082,7.915-2.28.6a3.214,3.214,0,0,1-2.47-.1,3.278,3.278,0,0,1-1.3-2.043q-.12-.405-.279-1.007c-.107-.408-.193-.751-.255-1.025a4.8,4.8,0,0,1-.148-1.807,1.852,1.852,0,0,1,.664-1.167,4.279,4.279,0,0,1,1.641-.746Zm.343-.964-2.976.783a5.207,5.207,0,0,0-2.093.974,2.426,2.426,0,0,0-.837,1.5,5.864,5.864,0,0,0,.179,2.208c.062.275.155.639.276,1.1s.216.8.3,1.074a5.7,5.7,0,0,0,.914,1.948,2.506,2.506,0,0,0,1.5.912,5.23,5.23,0,0,0,2.354-.175l2.906-.765a.293.293,0,0,0,.194-.148.329.329,0,0,0,.024-.246l-2.355-8.938a.3.3,0,0,0-.138-.2.3.3,0,0,0-.24-.023m19.473-4.036a1.354,1.354,0,0,0-.746.779,1.35,1.35,0,0,0,.011,1.077,1.372,1.372,0,0,0,.778.749,1.369,1.369,0,0,0,1.08-.014,1.353,1.353,0,0,0,.746-.779,1.349,1.349,0,0,0-.011-1.077,1.363,1.363,0,0,0-.778-.749,1.373,1.373,0,0,0-1.08.014m21.681-14.817-.214.132a.336.336,0,0,0-.152.2.287.287,0,0,0,.041.239l4.124,6.611-8.606-3.98a.336.336,0,0,0-.34.014l-.263.163a.3.3,0,0,0-.144.2.322.322,0,0,0,.052.241l4.887,7.832a.32.32,0,0,0,.2.158.311.311,0,0,0,.248-.056l.215-.135a.278.278,0,0,0,.143-.2.323.323,0,0,0-.051-.244l-4.131-6.621,8.631,4a.343.343,0,0,0,.343-.014l.251-.156a.3.3,0,0,0,.144-.2.335.335,0,0,0-.052-.241l-4.894-7.842a.3.3,0,0,0-.191-.148.319.319,0,0,0-.238.05m12.594-9.186-4.417,3.465a.333.333,0,0,0-.132.212.3.3,0,0,0,.068.232l.13.168a.324.324,0,0,0,.214.135.311.311,0,0,0,.241-.081l3.965-3.11,2.307,2.943-3.63,2.847a.332.332,0,0,0-.132.21.3.3,0,0,0,.067.235l.13.168a.336.336,0,0,0,.214.135.311.311,0,0,0,.241-.08l3.633-2.85,2.22,2.831-3.876,3.042a.333.333,0,0,0-.129.21.282.282,0,0,0,.068.233l.13.167a.312.312,0,0,0,.214.136.32.32,0,0,0,.241-.081l4.329-3.4a.3.3,0,0,0,.124-.211.331.331,0,0,0-.079-.238L-266.2,255.8a.3.3,0,0,0-.205-.125.3.3,0,0,0-.231.074m10.151-9.009-.283.273a.471.471,0,0,0-.112.576l3.959,8.827.088.133a.271.271,0,0,0,.2.083.281.281,0,0,0,.2-.077l.212-.207a.291.291,0,0,0,.1-.19.386.386,0,0,0-.022-.177l-3.768-8.362,8.218,4.074a.382.382,0,0,0,.176.027.306.306,0,0,0,.2-.09l.212-.207a.275.275,0,0,0,.083-.2.279.279,0,0,0-.074-.2l-.128-.092-8.676-4.282a.47.47,0,0,0-.58.089m9.237-9.768-.177.2a.314.314,0,0,0-.083.225.307.307,0,0,0,.115.211l7,6.061a.321.321,0,0,0,.228.084.307.307,0,0,0,.211-.116l.177-.2a.3.3,0,0,0,.083-.225.312.312,0,0,0-.115-.213l-7-6.058a.309.309,0,0,0-.228-.084.3.3,0,0,0-.211.115m13.727-9.442,3.255,2.336-1.536,2.144a2.816,2.816,0,0,1-1.473,1.2,1.864,1.864,0,0,1-1.571-.389,1.852,1.852,0,0,1-.872-1.364,2.8,2.8,0,0,1,.658-1.778Zm-3.747-3.4-.148.206a.341.341,0,0,0-.066.237.292.292,0,0,0,.131.208l3.142,2.252-1.7,2.362-4.391-.39a1.066,1.066,0,0,0-.362.01.464.464,0,0,0-.26.2l-.1.138a.272.272,0,0,0-.046.21.262.262,0,0,0,.112.184.337.337,0,0,0,.15.057l4.465.407a2.774,2.774,0,0,0-.169,1.823,2.789,2.789,0,0,0,1.141,1.5,2.625,2.625,0,0,0,2.234.543,3.618,3.618,0,0,0,1.974-1.519l1.917-2.672a.282.282,0,0,0,.057-.236.337.337,0,0,0-.139-.207l-7.51-5.387a.32.32,0,0,0-.235-.062.309.309,0,0,0-.2.135m9.243-13.379,7.113,4.051-1.168,2.046a3.211,3.211,0,0,1-1.8,1.7,3.294,3.294,0,0,1-2.373-.5c-.249-.134-.555-.3-.914-.506s-.673-.388-.913-.537a4.819,4.819,0,0,1-1.394-1.159,1.844,1.844,0,0,1-.368-1.291,4.245,4.245,0,0,1,.615-1.7Zm-.449-.921L-230,212.507a5.192,5.192,0,0,0-.768,2.177,2.4,2.4,0,0,0,.483,1.647,5.812,5.812,0,0,0,1.7,1.418c.241.147.565.337.976.57s.723.409.976.541a5.721,5.721,0,0,0,2.03.71,2.5,2.5,0,0,0,1.7-.43,5.2,5.2,0,0,0,1.525-1.8l1.488-2.612a.3.3,0,0,0,.032-.241.348.348,0,0,0-.16-.191l-8.032-4.575a.311.311,0,0,0-.24-.037.3.3,0,0,0-.184.155m10.727-16.74a1.364,1.364,0,0,0,.028,1.077,1.364,1.364,0,0,0,.779.746,1.35,1.35,0,0,0,1.078-.031,1.353,1.353,0,0,0,.749-.778,1.371,1.371,0,0,0-.032-1.078,1.363,1.363,0,0,0-.778-.746,1.35,1.35,0,0,0-1.078.031,1.338,1.338,0,0,0-.746.779m12.391-20.189-5.9.876.954-4.21Zm-7.783-5.829-.062.275a.294.294,0,0,0,.023.215.424.424,0,0,0,.117.133l2.008,1.353-1.106,4.873-2.394.354a.373.373,0,0,0-.161.071.3.3,0,0,0-.115.184l-.062.276a.275.275,0,0,0,.038.212.271.271,0,0,0,.176.125l.157.009,9.72-1.458a.411.411,0,0,0,.368-.337l.1-.468a.4.4,0,0,0-.183-.46l-8.145-5.508-.146-.061a.268.268,0,0,0-.21.038.277.277,0,0,0-.128.176m1.672-10.737-.034.252a.351.351,0,0,0,.055.241.29.29,0,0,0,.215.118l8.65,1.115-.356,2.756a.342.342,0,0,0,.055.241.3.3,0,0,0,.212.121l.211.026a.314.314,0,0,0,.25-.053.321.321,0,0,0,.113-.228l.826-6.41a.3.3,0,0,0-.062-.234.319.319,0,0,0-.222-.114l-.21-.028a.312.312,0,0,0-.233.056.294.294,0,0,0-.113.213l-.356,2.77-8.65-1.112a.308.308,0,0,0-.236.056.317.317,0,0,0-.113.213m9.99-14.275-5.619,2.008.118-4.317Zm-8.768-4.2-.008.281a.3.3,0,0,0,.067.207.419.419,0,0,0,.136.111l2.235.935-.134,4.993-2.283.815a.406.406,0,0,0-.144.1.3.3,0,0,0-.076.2l-.006.284a.261.261,0,0,0,.078.2.27.27,0,0,0,.195.091l.158-.026,9.252-3.319a.41.41,0,0,0,.292-.4l.014-.481a.407.407,0,0,0-.273-.415l-9.059-3.819-.155-.032a.255.255,0,0,0-.2.081.255.255,0,0,0-.091.194m.112-15.089,8.161-.647.185,2.348a3.206,3.206,0,0,1-.537,2.414,3.277,3.277,0,0,1-2.241.921c-.28.032-.627.065-1.039.1s-.775.058-1.057.07a4.83,4.83,0,0,1-1.8-.174,1.849,1.849,0,0,1-1.032-.861,4.319,4.319,0,0,1-.442-1.749Zm-.889-.512.245,3.068a5.209,5.209,0,0,0,.586,2.233,2.428,2.428,0,0,0,1.325,1.09,5.832,5.832,0,0,0,2.206.215c.282-.015.659-.039,1.127-.076s.829-.071,1.11-.1a5.676,5.676,0,0,0,2.079-.553,2.5,2.5,0,0,0,1.162-1.31,5.24,5.24,0,0,0,.247-2.349l-.237-2.995a.3.3,0,0,0-.111-.219.33.33,0,0,0-.237-.066l-9.215.729a.315.315,0,0,0-.22.1.3.3,0,0,0-.067.231m-.5-19.889a1.353,1.353,0,0,0,.635.872,1.351,1.351,0,0,0,1.065.173,1.339,1.339,0,0,0,.869-.636,1.343,1.343,0,0,0,.176-1.062,1.344,1.344,0,0,0-.635-.872,1.364,1.364,0,0,0-1.064-.176,1.353,1.353,0,0,0-.872.635,1.352,1.352,0,0,0-.173,1.065m-1.089-23.7-4.369,4.062-1.594-4.014Zm-9.713-.4.105.26a.275.275,0,0,0,.139.164.358.358,0,0,0,.172.046l2.421-.02,1.846,4.644-1.775,1.646a.376.376,0,0,0-.091.151.293.293,0,0,0,.008.215l.1.263a.28.28,0,0,0,.153.152.279.279,0,0,0,.215.006l.133-.085,7.193-6.7a.411.411,0,0,0,.11-.484l-.177-.445a.409.409,0,0,0-.413-.277l-9.829.068-.156.029a.282.282,0,0,0-.152.154.266.266,0,0,0-.006.215m-5.656-17.614a1.355,1.355,0,0,0,.857.655,1.343,1.343,0,0,0,1.068-.137,1.342,1.342,0,0,0,.655-.854,1.356,1.356,0,0,0-.134-1.07,1.359,1.359,0,0,0-.857-.655,1.356,1.356,0,0,0-1.07.134,1.36,1.36,0,0,0-.655.857,1.347,1.347,0,0,0,.137,1.071m-16.333-18.873,3.467,4.421a.337.337,0,0,0,.21.129.285.285,0,0,0,.235-.067l.165-.13a.327.327,0,0,0,.138-.214.337.337,0,0,0-.083-.242L-243.3,41.72l2.94-2.308,2.85,3.633a.332.332,0,0,0,.21.129.29.29,0,0,0,.235-.067l.165-.131a.312.312,0,0,0,.136-.214.32.32,0,0,0-.08-.241l-2.847-3.63,2.831-2.224,3.039,3.876a.327.327,0,0,0,.209.132.308.308,0,0,0,.236-.067l.165-.131a.329.329,0,0,0,.139-.214.325.325,0,0,0-.083-.242l-3.4-4.331a.284.284,0,0,0-.212-.121.323.323,0,0,0-.235.076l-7.273,5.706a.29.29,0,0,0-.125.205.3.3,0,0,0,.071.23M-251.2,26.641l2.887-2.779,1.831,1.9a2.817,2.817,0,0,1,.908,1.665,1.854,1.854,0,0,1-.666,1.475,1.852,1.852,0,0,1-1.5.611,2.82,2.82,0,0,1-1.629-.968Zm-4.017,3.071.176.183a.33.33,0,0,0,.223.109.3.3,0,0,0,.226-.09l2.784-2.685,2.019,2.1-1.178,4.247a1.2,1.2,0,0,0-.056.36.465.465,0,0,0,.154.29l.119.122a.27.27,0,0,0,.2.083.271.271,0,0,0,.2-.074.421.421,0,0,0,.083-.139l1.207-4.32a2.763,2.763,0,0,0,1.762.5,2.8,2.8,0,0,0,1.677-.854,2.616,2.616,0,0,0,.936-2.1,3.609,3.609,0,0,0-1.136-2.218l-2.283-2.368a.283.283,0,0,0-.222-.1.322.322,0,0,0-.228.1l-6.653,6.414a.308.308,0,0,0-.1.218.3.3,0,0,0,.1.221m-4.293-15.847-1.9,5.652-3.317-2.766Zm-8.732,4.274.216.182a.3.3,0,0,0,.2.076.426.426,0,0,0,.172-.04l2.117-1.173,3.836,3.2-.775,2.293a.37.37,0,0,0-.007.177.288.288,0,0,0,.112.187l.217.18a.262.262,0,0,0,.2.062.271.271,0,0,0,.193-.1l.077-.14,3.126-9.318a.4.4,0,0,0-.133-.479l-.367-.308a.415.415,0,0,0-.5-.047l-8.607,4.747-.122.1a.263.263,0,0,0-.062.2.271.271,0,0,0,.1.193M-281.681,5.432a1.353,1.353,0,0,0,1.066.165,1.365,1.365,0,0,0,.875-.631,1.365,1.365,0,0,0,.165-1.066,1.362,1.362,0,0,0-.634-.875,1.358,1.358,0,0,0-1.064-.162,1.351,1.351,0,0,0-.875.631,1.348,1.348,0,0,0-.164,1.064,1.356,1.356,0,0,0,.631.874M-305.1-3.218l5.175,2.182a.322.322,0,0,0,.248.013.283.283,0,0,0,.17-.173l.083-.194a.328.328,0,0,0,.015-.256.331.331,0,0,0-.187-.171l-4.642-1.958,1.456-3.445,4.249,1.795a.342.342,0,0,0,.248.013.307.307,0,0,0,.173-.172l.083-.2a.319.319,0,0,0,.014-.254.314.314,0,0,0-.187-.17L-302.453-8l1.4-3.316,4.538,1.914a.328.328,0,0,0,.248.013.3.3,0,0,0,.173-.172l.082-.194A.329.329,0,0,0-296-10.01a.333.333,0,0,0-.19-.171l-5.068-2.14a.3.3,0,0,0-.244,0,.344.344,0,0,0-.169.181l-3.593,8.517a.3.3,0,0,0-.011.239.31.31,0,0,0,.176.168m-16.044-5.488.2.062a.423.423,0,0,0,.515-.2L-316.908-14l.081,6.243a.432.432,0,0,0,.32.451l.2.062a.389.389,0,0,0,.271,0,.467.467,0,0,0,.2-.212l4.471-8.145.077-.152a.28.28,0,0,0-.025-.215.26.26,0,0,0-.165-.137l-.282-.086a.273.273,0,0,0-.36.114l-3.9,7.225-.02-6a.434.434,0,0,0-.326-.438l-.3-.09a.435.435,0,0,0-.513.187l-3.331,4.993.739-8.176c.015-.144-.066-.241-.237-.293l-.282-.086a.28.28,0,0,0-.215.025.258.258,0,0,0-.137.165l-.023.168-.767,9.262a.466.466,0,0,0,.051.287.4.4,0,0,0,.229.15" transform="translate(524.2 24.286)" fill="#ffa25b"/>
      </g>
    </g>
  </g>
</svg>
